<svg xmlns="http://www.w3.org/2000/svg" xmlns:xlink="http://www.w3.org/1999/xlink" version="1.1" width="299pt" height="202pt" viewBox="0 0 299 202">
<defs>
<path id="font_1_4" d="M.20599365 .3996582H.2999878C.31999208 .3996582 .32998658 .3996582 .32998658 .41966249 .32998658 .43066407 .31999208 .43066407 .3019867 .43066407H.21398926C.25 .5724945 .25498963 .59246829 .25498963 .59846499 .25498963 .61546328 .24299622 .62545779 .22599793 .62545779 .22299195 .62545779 .19499207 .62446597 .18598938 .58947756L.14698792 .43066407H.052993776C.032989503 .43066407 .022994996 .43066407 .022994996 .4116516 .022994996 .3996582 .0309906 .3996582 .050994874 .3996582H.13899231C.066986087 .11608887 .06298828 .099121097 .06298828 .08114624 .06298828 .02722168 .100997928-.0107421879 .15499878-.0107421879 .25698854-.0107421879 .31399537 .13505554 .31399537 .14305115 .31399537 .1530304 .30599977 .1530304 .3019867 .1530304 .29299928 .1530304 .2919922 .15003968 .2869873 .13905335 .24398804 .035217287 .19099427 .011245728 .15699768 .011245728 .13598633 .011245728 .12599182 .024230957 .12599182 .057174684 .12599182 .08114624 .12799073 .088134769 .13198853 .10510254L.20599365 .3996582Z"/>
<path id="font_1_5" d="M.48599244 .38136292C.48999024 .39537049 .48999024 .39736939 .48999024 .40437318 .48999024 .42237855 .47599793 .43138124 .46099855 .43138124 .45098878 .43138124 .43499757 .42536927 .42599488 .41036988 .42399598 .405365 .41600038 .37435914 .4119873 .35635377 .40499879 .33035279 .397995 .30334474 .3919983 .27633668L.34700013 .09628296C.34298707 .08126831 .2999878 .011245728 .23399353 .011245728 .18299866 .011245728 .17199707 .055267335 .17199707 .0922699 .17199707 .1382904 .18899536 .20030213 .22299195 .28833009 .23899842 .3293457 .24299622 .3403473 .24299622 .36035157 .24299622 .405365 .21099854 .4423828 .16099549 .4423828 .06599426 .4423828 .0289917 .29733277 .0289917 .28833009 .0289917 .27833558 .038986207 .27833558 .040985109 .27833558 .050994874 .27833558 .051986696 .28033448 .056991579 .29634095 .083999637 .3903656 .12399292 .42037965 .1579895 .42037965 .1659851 .42037965 .18299866 .42037965 .18299866 .3883667 .18299866 .36335755 .17298889 .3373413 .1659851 .31834413 .12599182 .21231079 .10798645 .1552887 .10798645 .10827637 .10798645 .019256592 .17098999-.0107421879 .22999573-.0107421879 .2689972-.0107421879 .30299378 .0062561037 .33099366 .03425598 .31799317-.017745972 .30599977-.06674194 .2659912-.11973572 .23999024-.15385437 .20199585-.18309021 .1559906-.18309021 .14199829-.18309021 .09700012-.18005371 .07998657-.14074707 .09599304-.14074707 .10899353-.14074707 .12298584-.1287384 .1329956-.11973572 .14299011-.10673523 .14299011-.08773804 .14299011-.056747438 .115997318-.052734376 .10598755-.052734376 .08299255-.052734376 .049987794-.068740848 .049987794-.11773682 .049987794-.16796875 .09399414-.20507813 .1559906-.20507813 .25898744-.20507813 .3619995-.11373901 .3899994-.00074768069L.48599244 .38136292Z"/>
<path id="font_1_2" d="M.36698915 .3996582H.45298768C.47299195 .3996582 .48298646 .3996582 .48298646 .41966249 .48298646 .43066407 .47299195 .43066407 .45599366 .43066407H.37298585L.3939972 .5449524C.397995 .5660095 .4119873 .6370239 .41799928 .6490326 .4269867 .66804507 .44400025 .68307498 .46499635 .68307498 .46899415 .68307498 .49499513 .68307498 .5139923 .66503909 .46998597 .661026 .45999146 .6260376 .45999146 .6110382 .45999146 .58802798 .47799684 .57603457 .49699403 .57603457 .522995 .57603457 .5519867 .5980377 .5519867 .6360321 .5519867 .6820679 .5059967 .7050781 .46499635 .7050781 .43099977 .7050781 .36799623 .68707278 .33799745 .58802798 .33198548 .56700137 .32899476 .5569763 .30499269 .43066407H.23599243C.21699524 .43066407 .20599365 .43066407 .20599365 .4116516 .20599365 .3996582 .21499634 .3996582 .23399353 .3996582H.2999878L.22499085 .0048828127C.20698548-.09207153 .18998719-.18309021 .13798523-.18309021 .13398743-.18309021 .10899353-.18309021 .08999634-.16506958 .13598633-.1620636 .14498902-.12606812 .14498902-.111068729 .14498902-.08807373 .1269989-.07606506 .10798645-.07606506 .08198547-.07606506 .052993776-.09806824 .052993776-.13606262 .052993776-.18109131 .09700012-.20507813 .13798523-.20507813 .19299317-.20507813 .23298645-.14607239 .25099183-.108062747 .2829895-.04508972 .30599977 .07583618 .30699159 .082839969L.36698915 .3996582Z"/>
<path id="font_2_1" d="M.33099366-.2400055C.33099366-.23701477 .33099366-.23500061 .31399537-.21800232 .18899536-.0920105 .15699768 .09700012 .15699768 .25 .15699768 .42399598 .19499207 .59799197 .31799317 .72299197 .33099366 .73498538 .33099366 .7369995 .33099366 .73999026 .33099366 .746994 .32699586 .75 .32099916 .75 .31098939 .75 .22099304 .6819916 .1619873 .5549927 .11099243 .44499208 .09899902 .33399964 .09899902 .25 .09899902 .17199707 .10998535 .050994874 .16499329-.06201172 .22499085-.18501282 .31098939-.25 .32099916-.25 .32699586-.25 .33099366-.24700928 .33099366-.2400055Z"/>
<path id="font_2_2" d="M.2889862 .25C.2889862 .32798768 .27799989 .44898988 .22299195 .56199648 .16299439 .68499758 .07699585 .75 .066986087 .75 .06098938 .75 .056991579 .74598696 .056991579 .73999026 .056991579 .7369995 .056991579 .73498538 .07598877 .71699526 .17399597 .6179962 .23098755 .45899964 .23098755 .25 .23098755 .07899475 .19400025-.09700012 .069992069-.2230072 .056991579-.23500061 .056991579-.23701477 .056991579-.2400055 .056991579-.2460022 .06098938-.25 .066986087-.25 .07699585-.25 .16699219-.18200684 .22599793-.055007936 .2769928 .054992677 .2889862 .16600037 .2889862 .25Z"/>
<path id="font_1_3" d="M.47099305 .3773346C.47200013 .3833313 .47399903 .38833619 .47399903 .39535523 .47399903 .41236878 .46199037 .42237855 .44499208 .42237855 .43499757 .42237855 .4079895 .41537477 .4039917 .3793335 .38598634 .41636659 .35099793 .4423828 .31098939 .4423828 .19699097 .4423828 .07299805 .30226136 .07299805 .15812683 .07299805 .059020997 .13398743 0 .20599365 0 .2649994 0 .31199647 .04701233 .32199098 .058029176L.32299806 .057022096C.3019867-.031982423 .2899933-.07295227 .2899933-.07495117 .28599549-.08395386 .2519989-.18309021 .1459961-.18309021 .1269989-.18309021 .09399414-.18206787 .06599426-.17297364 .09599304-.16394043 .10699463-.13793946 .10699463-.12094116 .10699463-.10494995 .09599304-.0859375 .068984989-.0859375 .04699707-.0859375 .01499939-.10394287 .01499939-.14395142 .01499939-.18508911 .051986696-.20507813 .147995-.20507813 .272995-.20507813 .34498597-.12693787 .3600006-.06695557L.47099305 .3773346M.34098817 .12809754C.33499146 .10206604 .31199647 .077041629 .2899933 .058029176 .2689972 .040008546 .23799134 .021987915 .20899964 .021987915 .15899658 .021987915 .14399719 .074035648 .14399719 .11407471 .14399719 .16212464 .17298889 .28024293 .19999695 .33128358 .22698975 .38034059 .269989 .42037965 .31199647 .42037965 .37799073 .42037965 .3919983 .33929444 .3919983 .33428956 .3919983 .32928468 .3899994 .3232727 .3889923 .3192749L.34098817 .12809754Z"/>
<path id="font_2_3" d="M.40899659 .23046875H.6879883C.70199587 .23046875 .72099307 .23046875 .72099307 .25045777 .72099307 .27046205 .70199587 .27046205 .6879883 .27046205H.40899659V.5500183C.40899659 .56399539 .40899659 .5830078 .3889923 .5830078 .36898805 .5830078 .36898805 .56399539 .36898805 .5500183V.27046205H.08898926C.07499695 .27046205 .055999757 .27046205 .055999757 .25045777 .055999757 .23046875 .07499695 .23046875 .08898926 .23046875H.36898805V-.05000305C.36898805-.06401062 .36898805-.08300781 .3889923-.08300781 .40899659-.08300781 .40899659-.06401062 .40899659-.05000305V.23046875Z"/>
<path id="font_3_1" d="M.6589966 .23046875C.6759949 .23046875 .69400027 .23046875 .69400027 .25045777 .69400027 .27046205 .6759949 .27046205 .6589966 .27046205H.117996219C.100997928 .27046205 .08299255 .27046205 .08299255 .25045777 .08299255 .23046875 .100997928 .23046875 .117996219 .23046875H.6589966Z"/>
<path id="font_1_1" d="M.2649994 .37265016H.37799073C.34498597 .22489929 .33599855 .18196106 .33599855 .11508179 .33599855 .100097659 .33599855 .073150638 .34399415 .03919983 .35398866-.0047454836 .36499024-.0107421879 .37998963-.0107421879 .3999939-.0107421879 .42099 .007247925 .42099 .02722168 .42099 .033218385 .42099 .035202028 .4149933 .049179079 .38598634 .12106323 .38598634 .18595886 .38598634 .21391297 .38598634 .26683045 .3929901 .32073976 .4039917 .37265016H.5179901C.5309906 .37265016 .5669861 .37265016 .5669861 .406662 .5669861 .43066407 .54599 .43066407 .5269928 .43066407H.19198609C.16999817 .43066407 .13198853 .43066407 .08799744 .38365174 .052993776 .34469605 .026992798 .29878236 .026992798 .29379273 .026992798 .29278565 .026992798 .28379823 .038986207 .28379823 .04699707 .28379823 .04899597 .28779603 .054992677 .29577638 .10398865 .37265016 .1619873 .37265016 .18199158 .37265016H.23899842C.20698548 .25186158 .15299988 .13105774 .11099243 .04020691 .102996829 .025222779 .102996829 .023223877 .102996829 .016235352 .102996829-.002746582 .11898804-.0107421879 .13198853-.0107421879 .1619873-.0107421879 .16999817 .017242432 .18199158 .05418396 .19599915 .100097659 .19599915 .10209656 .20899964 .15202332L.2649994 .37265016Z"/>
<path id="font_2_5" d="M.1269989 .07699585 .23298645 .18003845C.3889923 .31811524 .44898988 .3721466 .44898988 .47216798 .44898988 .5860901 .35899354 .6660156 .23699951 .6660156 .12399292 .6660156 .049987794 .57411196 .049987794 .48516847 .049987794 .4291687 .099990848 .4291687 .102996829 .4291687 .11999512 .4291687 .15499878 .44117738 .15499878 .48217774 .15499878 .5081787 .13699341 .5341797 .101989749 .5341797 .09399414 .5341797 .09199524 .5341797 .08898926 .5331726 .11199951 .59806826 .1659851 .63500979 .22399903 .63500979 .31498719 .63500979 .35798646 .5541382 .35798646 .47216798 .35798646 .39215089 .30799867 .31311036 .25299073 .25108338L.06098938 .036987306C.049987794 .025985718 .049987794 .023986817 .049987794 0H.42099L.44898988 .17404175H.42399598C.4189911 .14402771 .4119873 .1000061 .4019928 .084991458 .394989 .07699585 .32899476 .07699585 .30699159 .07699585H.1269989Z"/>
<path id="font_2_4" d="M.2939911 .64004519C.2939911 .66400149 .2939911 .6660156 .2709961 .6660156 .20899964 .60227969 .12098694 .60227969 .08898926 .60227969V.57128909C.10899353 .57128909 .16799927 .57128909 .21998596 .5972748V.07902527C.21998596 .042999269 .21699524 .0309906 .1269989 .0309906H.09498596V0C.12998963 .0029907227 .21699524 .0029907227 .25698854 .0029907227 .29699708 .0029907227 .38398744 .0029907227 .4189911 0V.0309906H.3869934C.29699708 .0309906 .2939911 .041992189 .2939911 .07902527V.64004519Z"/>
<path id="font_2_6" d="M.2899933 .35191346C.37199403 .37893678 .42999269 .4490509 .42999269 .52809146 .42999269 .6100464 .34199525 .6660156 .24598694 .6660156 .14498902 .6660156 .068984989 .60606387 .068984989 .53009036 .068984989 .49710084 .09098816 .47808839 .11999512 .47808839 .15098572 .47808839 .17098999 .50009158 .17098999 .5290985 .17098999 .57910159 .12399292 .57910159 .10899353 .57910159 .13999939 .62802127 .20599365 .64100649 .24198914 .64100649 .2829895 .64100649 .33799745 .6190338 .33799745 .5290985 .33799745 .51708987 .33599855 .45906068 .30999757 .4149933 .27999879 .36691285 .24598694 .36390687 .22099304 .36291505 .21299744 .36190797 .18899536 .35990907 .18199158 .35990907 .17399597 .35890199 .16699219 .35791017 .16699219 .3479004 .16699219 .33691407 .17399597 .33691407 .19099427 .33691407H.23498535C.31698609 .33691407 .35398866 .2686615 .35398866 .17037964 .35398866 .034469606 .2849884 .0055389406 .24099732 .0055389406 .19799805 .0055389406 .12298584 .022491456 .08799744 .08137512 .12298584 .07637024 .1539917 .09837341 .1539917 .1363678 .1539917 .17237854 .1269989 .19238281 .09799194 .19238281 .07398987 .19238281 .041992189 .17837525 .041992189 .1343689 .041992189 .043441774 .1349945-.022460938 .24398804-.022460938 .3659973-.022460938 .45700074 .06838989 .45700074 .17037964 .45700074 .252594 .3939972 .33088685 .2899933 .35191346Z"/>
<path id="font_2_7" d="M.2939911 .16503906V.07800293C.2939911 .041992189 .2919922 .0309906 .21798706 .0309906H.19699097V0C.23799134 .0029907227 .2899933 .0029907227 .33198548 .0029907227 .37399293 .0029907227 .4269867 .0029907227 .46798707 0V.0309906H.44699098C.37298585 .0309906 .37098695 .041992189 .37098695 .07800293V.16503906H.47099305V.19602967H.37098695V.65075686C.37098695 .67074587 .37098695 .6767578 .35499574 .6767578 .34599305 .6767578 .34298707 .6767578 .33499146 .66474917L.027999878 .19602967V.16503906H.2939911M.2999878 .19602967H.055999757L.2999878 .5688019V.19602967Z"/>
</defs>
<path transform="matrix(1.00008,0,0,-1.00006,104.33591,129.4158)" stroke-width=".49814" stroke-linecap="butt" stroke-miterlimit="10" stroke-linejoin="miter" fill="none" stroke="#424242" d="M0 0H188.3358"/>
<path transform="matrix(1.00008,0,0,-1.00006,292.68678,129.4158)" d="M3.85551 0C2.71312 .21419 .85678 .85678-.42839 1.60646V-1.60646C.85678-.85678 2.71312-.21419 3.85551 0" fill="#424242"/>
<use data-text="t" xlink:href="#font_1_4" transform="matrix(9.963397,0,0,-9.963197,294.74314,139.11438)" fill="#424242"/>
<path transform="matrix(1.00008,0,0,-1.00006,104.33591,129.4158)" stroke-width=".49814" stroke-linecap="butt" stroke-miterlimit="10" stroke-linejoin="miter" fill="none" stroke="#424242" d="M0 0H-99.32683"/>
<path transform="matrix(-1.00008,-0,0,1.00006,5.001137,129.4158)" d="M3.85551 0C2.71312 .21419 .85678 .85678-.42839 1.60646V-1.60646C.85678-.85678 2.71312-.21419 3.85551 0" fill="#424242"/>
<path transform="matrix(1.00008,0,0,-1.00006,104.33591,129.4158)" stroke-width=".49814" stroke-linecap="butt" stroke-miterlimit="10" stroke-linejoin="miter" fill="none" stroke="#424242" d="M0 0V123.70511"/>
<path transform="matrix(0,-1.00006,-1.00008,-0,104.33591,5.7032778)" d="M3.85551 0C2.71312 .21419 .85678 .85678-.42839 1.60646V-1.60646C.85678-.85678 2.71312-.21419 3.85551 0" fill="#424242"/>
<use data-text="y" xlink:href="#font_1_5" transform="matrix(9.963397,0,0,-9.963197,107.90619,10.110649)" fill="#424242"/>
<path transform="matrix(1.00008,0,0,-1.00006,104.33591,129.4158)" stroke-width=".49814" stroke-linecap="butt" stroke-miterlimit="10" stroke-linejoin="miter" fill="none" stroke="#424242" d="M0 0V-67.01149"/>
<path transform="matrix(0,1.00006,1.00008,0,104.33591,196.4313)" d="M3.85551 0C2.71312 .21419 .85678 .85678-.42839 1.60646V-1.60646C.85678-.85678 2.71312-.21419 3.85551 0" fill="#424242"/>
<path transform="matrix(1.00008,0,0,-1.00006,104.33591,129.4158)" stroke-width="1.49442" stroke-linecap="butt" stroke-miterlimit="10" stroke-linejoin="miter" fill="none" stroke="#0074c8" d="M-89.00894 0C-89.00894 0-80.97055-8.06532-77.88321-10.8463-74.79587-13.62727-69.8448-17.91492-66.75746-20.04337-63.67012-22.1718-58.71907-25.03467-55.63173-26.18669-52.54439-27.33871-47.59332-28.34619-44.50598-28.34636-41.41866-28.34653-36.46758-27.33978-33.38023-26.188-30.2929-25.03622-25.34184-22.1733-22.2545-20.04509-19.16716-17.91689-14.2161-13.63019-11.12875-10.84933-8.04141-8.06848-3.09036-3.01245-.00302-.00258 3.0843 3.00728 8.03537 8.06268 11.1227 10.84372 14.21004 13.62476 19.1611 17.91246 22.24844 20.0412 25.33577 22.16995 30.28685 25.03394 33.37419 26.18626 36.46153 27.3386 41.41258 28.34595 44.49992 28.34636 47.58727 28.34677 52.53833 27.34076 55.62567 26.18929 58.71301 25.03781 63.66406 22.17522 66.7514 20.04726 69.83875 17.9193 74.78983 13.63304 77.87715 10.85237 80.9645 8.0717 85.91556 3.01598 89.0029 .00604 92.09024-3.00388 97.0413-8.0599 100.12865-10.84111 103.21599-13.62233 108.16704-17.91011 111.25438-20.03905 114.34172-22.16797 119.29277-25.03236 122.38011-26.18497 125.46745-27.33759 130.41852-28.34558 133.50586-28.34636 136.5932-28.34714 141.54427-27.34172 144.6316-26.1906 147.71894-25.03947 152.67002-22.17764 155.75736-20.04985 158.8447-17.92206 163.79575-13.63557 166.88309-10.85497 169.97043-8.07436 178.00884-.00906 178.00884-.00906"/>
<use data-text="f" xlink:href="#font_1_2" transform="matrix(9.963397,0,0,-9.963197,209.08329,169.30519)" fill="#0074c8"/>
<use data-text="(" xlink:href="#font_2_1" transform="matrix(9.963397,0,0,-9.963197,215.03376,169.30519)" fill="#0074c8"/>
<use data-text="t" xlink:href="#font_1_4" transform="matrix(9.963397,0,0,-9.963197,218.90805,169.30519)" fill="#0074c8"/>
<use data-text=")" xlink:href="#font_2_2" transform="matrix(9.963397,0,0,-9.963197,222.50635,169.30519)" fill="#0074c8"/>
<path transform="matrix(1.00008,0,0,-1.00006,104.33591,129.4158)" stroke-width="1.49442" stroke-linecap="butt" stroke-dasharray="2.98883,2.98883" stroke-miterlimit="10" stroke-linejoin="miter" fill="none" stroke="#ff0000" d="M-89.00894 0C-89.00894 0-80.97055 24.16536-77.88321 30.06483-74.79587 35.96431-69.8448 42.51886-66.75746 42.51933-63.67012 42.5198-58.71907 35.96716-55.63173 30.06828-52.54439 24.16942-47.59332 8.34724-44.50598 .0043-41.41866-8.33861-36.46758-24.16174-33.38023-30.06181-30.2929-35.96188-25.34184-42.51808-22.2545-42.51933-19.16716-42.52058-14.2161-35.96922-11.12875-30.07089-8.04141-24.17255-3.09036-8.35101-.00302-.0082 3.0843 8.3346 8.03537 24.15773 11.1227 30.05835 14.21004 35.95897 19.1611 42.51707 22.24844 42.51933 25.33577 42.52159 30.28685 35.97238 33.37419 30.07478 36.46153 24.17717 41.41258 8.35622 44.49992 .0134 47.58727-8.3294 52.53833-24.15312 55.62567-30.05446 58.71301-35.95578 63.66406-42.51616 66.7514-42.51933 69.83875-42.5225 74.78983-35.97433 77.87715-30.07738 80.9645-24.18042 85.91556-8.36092 89.0029-.01816 92.09024 8.32458 97.0413 24.14943 100.12865 30.05144 103.21599 35.95343 108.16704 42.51532 111.25438 42.51933 114.34172 42.52335 119.29277 35.97676 122.38011 30.0804 125.46745 24.18405 130.41852 8.3653 133.50586 .02248 136.5932-8.32033 141.54427-24.14624 144.6316-30.04883 147.71894-35.95143 152.67002-42.51448 155.75736-42.51933 158.8447-42.52419 163.79575-35.97957 166.88309-30.08388 169.97043-24.18819 178.00884-.02724 178.00884-.02724"/>
<use data-text="g" xlink:href="#font_1_3" transform="matrix(9.963397,0,0,-9.963197,181.15406,94.50871)" fill="#ff0000"/>
<use data-text="(" xlink:href="#font_2_1" transform="matrix(9.963397,0,0,-9.963197,186.26346,94.50871)" fill="#ff0000"/>
<use data-text="t" xlink:href="#font_1_4" transform="matrix(9.963397,0,0,-9.963197,190.13776,94.50871)" fill="#ff0000"/>
<use data-text=")" xlink:href="#font_2_2" transform="matrix(9.963397,0,0,-9.963197,193.73606,94.50871)" fill="#ff0000"/>
<path transform="matrix(1.00008,0,0,-1.00006,104.33591,129.4158)" stroke-width="1.99255" stroke-linecap="butt" stroke-dasharray="6.97394,1.99255,.99628,2.98883" stroke-miterlimit="10" stroke-linejoin="miter" fill="none" stroke="#000000" d="M-89.00894 0C-89.00894 0-80.97055 16.10002-77.88321 19.21852-74.79587 22.337-69.8448 24.60391-66.75746 22.47595-63.67012 20.34799-58.71907 10.93248-55.63173 3.88158-52.54439-3.16931-47.59332-19.99893-44.50598-28.34204-41.41866-36.68517-36.46758-51.50153-33.38023-56.24982-30.2929-60.99811-25.34184-64.69139-22.2545-62.56445-19.16716-60.43752-14.2161-49.59943-11.12875-40.92024-8.04141-32.24104-3.09036-11.36348-.00302-.0108 3.0843 11.34187 8.03537 32.22041 11.1227 40.90207 14.21004 49.58372 19.1611 60.42953 22.24844 62.56056 25.33577 64.69159 30.28685 61.00635 33.37419 56.26106 36.46153 51.5158 41.41258 36.70216 44.49992 28.35977 47.58727 20.01738 52.53833 3.18767 55.62567-3.86514 58.71301-10.91797 63.66406-20.34091 66.7514-22.47206 69.83875-24.60321 74.78983-22.34128 77.87715-19.225 80.9645-16.10873 85.91556-5.34491 89.0029-.0121 92.09024 5.32071 97.0413 16.08952 100.12865 19.2103 103.21599 22.33105 108.16704 24.60518 111.25438 22.48029 114.34172 20.35538 119.29277 10.9444 122.38011 3.89542 125.46745-3.15353 130.41852-19.98029 133.50586-28.32388 136.5932-36.66747 141.54427-51.48796 144.6316-56.23944 147.71894-60.9909 152.67002-64.69214 155.75736-62.56921 158.8447-60.44627 163.79575-49.61516 166.88309-40.93884 169.97043-32.26253 178.00884-.03633 178.00884-.03633"/>
<use data-text="(" xlink:href="#font_2_1" transform="matrix(9.963397,0,0,-9.963197,12.2955479,179.3048)"/>
<use data-text="f" xlink:href="#font_1_2" transform="matrix(9.963397,0,0,-9.963197,16.169846,179.3048)"/>
<use data-text="+" xlink:href="#font_2_3" transform="matrix(9.963397,0,0,-9.963197,24.334504,179.3048)"/>
<use data-text="g" xlink:href="#font_1_3" transform="matrix(9.963397,0,0,-9.963197,34.298295,179.3048)"/>
<use data-text=")" xlink:href="#font_2_2" transform="matrix(9.963397,0,0,-9.963197,39.4077,179.3048)"/>
<use data-text="(" xlink:href="#font_2_1" transform="matrix(9.963397,0,0,-9.963197,43.2735,179.3048)"/>
<use data-text="t" xlink:href="#font_1_4" transform="matrix(9.963397,0,0,-9.963197,47.157304,179.3048)"/>
<use data-text=")" xlink:href="#font_2_2" transform="matrix(9.963397,0,0,-9.963197,50.754594,179.3048)"/>
<path transform="matrix(1.00008,0,0,-1.00006,104.33591,129.4158)" stroke-width=".79701" stroke-linecap="butt" stroke-miterlimit="10" stroke-linejoin="miter" fill="none" stroke="#000000" d="M-89.00894 2.98883V-2.98883"/>
<use data-text="&#x2212;" xlink:href="#font_3_1" transform="matrix(9.963397,0,0,-9.963197,8.426239,141.93656)"/>
<use data-text="&#x03c0;" xlink:href="#font_1_1" transform="matrix(9.963397,0,0,-9.963197,16.17485,141.93656)"/>
<path transform="matrix(1.00008,0,0,-1.00006,104.33591,129.4158)" stroke-width=".79701" stroke-linecap="butt" stroke-miterlimit="10" stroke-linejoin="miter" fill="none" stroke="#000000" d="M89.00894 2.98883V-2.98883"/>
<use data-text="&#x03c0;" xlink:href="#font_1_1" transform="matrix(9.963397,0,0,-9.963197,190.33379,140.41345)"/>
<path transform="matrix(1.00008,0,0,-1.00006,104.33591,129.4158)" stroke-width=".79701" stroke-linecap="butt" stroke-miterlimit="10" stroke-linejoin="miter" fill="none" stroke="#000000" d="M178.01792 2.98883V-2.98883"/>
<use data-text="2" xlink:href="#font_2_5" transform="matrix(9.963397,0,0,-9.963197,276.8587,142.54459)"/>
<use data-text="&#x03c0;" xlink:href="#font_1_1" transform="matrix(9.963397,0,0,-9.963197,281.8401,142.54459)"/>
<path transform="matrix(1.00008,0,0,-1.00006,104.33591,129.4158)" stroke-width=".79701" stroke-linecap="butt" stroke-miterlimit="10" stroke-linejoin="miter" fill="none" stroke="#000000" d="M-1.99255-56.69362H1.99255"/>
<use data-text="&#x2212;" xlink:href="#font_3_1" transform="matrix(9.963397,0,0,-9.963197,89.87775,188.90836)"/>
<use data-text="2" xlink:href="#font_2_5" transform="matrix(9.963397,0,0,-9.963197,97.62636,188.90836)"/>
<path transform="matrix(1.00008,0,0,-1.00006,104.33591,129.4158)" stroke-width=".79701" stroke-linecap="butt" stroke-miterlimit="10" stroke-linejoin="miter" fill="none" stroke="#000000" d="M-1.99255-28.3468H1.99255"/>
<use data-text="&#x2212;" xlink:href="#font_3_1" transform="matrix(9.963397,0,0,-9.963197,89.87775,160.55966)"/>
<use data-text="1" xlink:href="#font_2_4" transform="matrix(9.963397,0,0,-9.963197,97.62636,160.55966)"/>
<path transform="matrix(1.00008,0,0,-1.00006,104.33591,129.4158)" stroke-width=".79701" stroke-linecap="butt" stroke-miterlimit="10" stroke-linejoin="miter" fill="none" stroke="#000000" d="M-1.99255 28.3468H1.99255"/>
<use data-text="1" xlink:href="#font_2_4" transform="matrix(9.963397,0,0,-9.963197,97.62737,104.2773)"/>
<path transform="matrix(1.00008,0,0,-1.00006,104.33591,129.4158)" stroke-width=".79701" stroke-linecap="butt" stroke-miterlimit="10" stroke-linejoin="miter" fill="none" stroke="#000000" d="M-1.99255 56.69362H1.99255"/>
<use data-text="2" xlink:href="#font_2_5" transform="matrix(9.963397,0,0,-9.963197,97.62737,75.929599)"/>
<path transform="matrix(1.00008,0,0,-1.00006,104.33591,129.4158)" stroke-width=".79701" stroke-linecap="butt" stroke-miterlimit="10" stroke-linejoin="miter" fill="none" stroke="#000000" d="M-1.99255 85.04042H1.99255"/>
<use data-text="3" xlink:href="#font_2_6" transform="matrix(9.963397,0,0,-9.963197,97.62737,47.580896)"/>
<path transform="matrix(1.00008,0,0,-1.00006,104.33591,129.4158)" stroke-width=".79701" stroke-linecap="butt" stroke-miterlimit="10" stroke-linejoin="miter" fill="none" stroke="#000000" d="M-1.99255 113.38724H1.99255"/>
<use data-text="4" xlink:href="#font_2_7" transform="matrix(9.963397,0,0,-9.963197,97.62737,19.232193)"/>
</svg>
