<svg xmlns="http://www.w3.org/2000/svg" xmlns:xlink="http://www.w3.org/1999/xlink" version="1.1" width="301pt" height="202pt" viewBox="0 0 301 202">
<defs>
<path id="font_1_4" d="M.20599365 .3996582H.2999878C.31999208 .3996582 .32998658 .3996582 .32998658 .41966249 .32998658 .43066407 .31999208 .43066407 .3019867 .43066407H.21398926C.25 .5724945 .25498963 .59246829 .25498963 .59846499 .25498963 .61546328 .24299622 .62545779 .22599793 .62545779 .22299195 .62545779 .19499207 .62446597 .18598938 .58947756L.14698792 .43066407H.052993776C.032989503 .43066407 .022994996 .43066407 .022994996 .4116516 .022994996 .3996582 .0309906 .3996582 .050994874 .3996582H.13899231C.066986087 .11608887 .06298828 .099121097 .06298828 .08114624 .06298828 .02722168 .100997928-.0107421879 .15499878-.0107421879 .25698854-.0107421879 .31399537 .13505554 .31399537 .14305115 .31399537 .1530304 .30599977 .1530304 .3019867 .1530304 .29299928 .1530304 .2919922 .15003968 .2869873 .13905335 .24398804 .035217287 .19099427 .011245728 .15699768 .011245728 .13598633 .011245728 .12599182 .024230957 .12599182 .057174684 .12599182 .08114624 .12799073 .088134769 .13198853 .10510254L.20599365 .3996582Z"/>
<path id="font_1_5" d="M.48599244 .38136292C.48999024 .39537049 .48999024 .39736939 .48999024 .40437318 .48999024 .42237855 .47599793 .43138124 .46099855 .43138124 .45098878 .43138124 .43499757 .42536927 .42599488 .41036988 .42399598 .405365 .41600038 .37435914 .4119873 .35635377 .40499879 .33035279 .397995 .30334474 .3919983 .27633668L.34700013 .09628296C.34298707 .08126831 .2999878 .011245728 .23399353 .011245728 .18299866 .011245728 .17199707 .055267335 .17199707 .0922699 .17199707 .1382904 .18899536 .20030213 .22299195 .28833009 .23899842 .3293457 .24299622 .3403473 .24299622 .36035157 .24299622 .405365 .21099854 .4423828 .16099549 .4423828 .06599426 .4423828 .0289917 .29733277 .0289917 .28833009 .0289917 .27833558 .038986207 .27833558 .040985109 .27833558 .050994874 .27833558 .051986696 .28033448 .056991579 .29634095 .083999637 .3903656 .12399292 .42037965 .1579895 .42037965 .1659851 .42037965 .18299866 .42037965 .18299866 .3883667 .18299866 .36335755 .17298889 .3373413 .1659851 .31834413 .12599182 .21231079 .10798645 .1552887 .10798645 .10827637 .10798645 .019256592 .17098999-.0107421879 .22999573-.0107421879 .2689972-.0107421879 .30299378 .0062561037 .33099366 .03425598 .31799317-.017745972 .30599977-.06674194 .2659912-.11973572 .23999024-.15385437 .20199585-.18309021 .1559906-.18309021 .14199829-.18309021 .09700012-.18005371 .07998657-.14074707 .09599304-.14074707 .10899353-.14074707 .12298584-.1287384 .1329956-.11973572 .14299011-.10673523 .14299011-.08773804 .14299011-.056747438 .115997318-.052734376 .10598755-.052734376 .08299255-.052734376 .049987794-.068740848 .049987794-.11773682 .049987794-.16796875 .09399414-.20507813 .1559906-.20507813 .25898744-.20507813 .3619995-.11373901 .3899994-.00074768069L.48599244 .38136292Z"/>
<path id="font_1_2" d="M.36698915 .3996582H.45298768C.47299195 .3996582 .48298646 .3996582 .48298646 .41966249 .48298646 .43066407 .47299195 .43066407 .45599366 .43066407H.37298585L.3939972 .5449524C.397995 .5660095 .4119873 .6370239 .41799928 .6490326 .4269867 .66804507 .44400025 .68307498 .46499635 .68307498 .46899415 .68307498 .49499513 .68307498 .5139923 .66503909 .46998597 .661026 .45999146 .6260376 .45999146 .6110382 .45999146 .58802798 .47799684 .57603457 .49699403 .57603457 .522995 .57603457 .5519867 .5980377 .5519867 .6360321 .5519867 .6820679 .5059967 .7050781 .46499635 .7050781 .43099977 .7050781 .36799623 .68707278 .33799745 .58802798 .33198548 .56700137 .32899476 .5569763 .30499269 .43066407H.23599243C.21699524 .43066407 .20599365 .43066407 .20599365 .4116516 .20599365 .3996582 .21499634 .3996582 .23399353 .3996582H.2999878L.22499085 .0048828127C.20698548-.09207153 .18998719-.18309021 .13798523-.18309021 .13398743-.18309021 .10899353-.18309021 .08999634-.16506958 .13598633-.1620636 .14498902-.12606812 .14498902-.111068729 .14498902-.08807373 .1269989-.07606506 .10798645-.07606506 .08198547-.07606506 .052993776-.09806824 .052993776-.13606262 .052993776-.18109131 .09700012-.20507813 .13798523-.20507813 .19299317-.20507813 .23298645-.14607239 .25099183-.108062747 .2829895-.04508972 .30599977 .07583618 .30699159 .082839969L.36698915 .3996582Z"/>
<path id="font_2_1" d="M.33099366-.2400055C.33099366-.23701477 .33099366-.23500061 .31399537-.21800232 .18899536-.0920105 .15699768 .09700012 .15699768 .25 .15699768 .42399598 .19499207 .59799197 .31799317 .72299197 .33099366 .73498538 .33099366 .7369995 .33099366 .73999026 .33099366 .746994 .32699586 .75 .32099916 .75 .31098939 .75 .22099304 .6819916 .1619873 .5549927 .11099243 .44499208 .09899902 .33399964 .09899902 .25 .09899902 .17199707 .10998535 .050994874 .16499329-.06201172 .22499085-.18501282 .31098939-.25 .32099916-.25 .32699586-.25 .33099366-.24700928 .33099366-.2400055Z"/>
<path id="font_2_2" d="M.2889862 .25C.2889862 .32798768 .27799989 .44898988 .22299195 .56199648 .16299439 .68499758 .07699585 .75 .066986087 .75 .06098938 .75 .056991579 .74598696 .056991579 .73999026 .056991579 .7369995 .056991579 .73498538 .07598877 .71699526 .17399597 .6179962 .23098755 .45899964 .23098755 .25 .23098755 .07899475 .19400025-.09700012 .069992069-.2230072 .056991579-.23500061 .056991579-.23701477 .056991579-.2400055 .056991579-.2460022 .06098938-.25 .066986087-.25 .07699585-.25 .16699219-.18200684 .22599793-.055007936 .2769928 .054992677 .2889862 .16600037 .2889862 .25Z"/>
<path id="font_1_3" d="M.47099305 .3773346C.47200013 .3833313 .47399903 .38833619 .47399903 .39535523 .47399903 .41236878 .46199037 .42237855 .44499208 .42237855 .43499757 .42237855 .4079895 .41537477 .4039917 .3793335 .38598634 .41636659 .35099793 .4423828 .31098939 .4423828 .19699097 .4423828 .07299805 .30226136 .07299805 .15812683 .07299805 .059020997 .13398743 0 .20599365 0 .2649994 0 .31199647 .04701233 .32199098 .058029176L.32299806 .057022096C.3019867-.031982423 .2899933-.07295227 .2899933-.07495117 .28599549-.08395386 .2519989-.18309021 .1459961-.18309021 .1269989-.18309021 .09399414-.18206787 .06599426-.17297364 .09599304-.16394043 .10699463-.13793946 .10699463-.12094116 .10699463-.10494995 .09599304-.0859375 .068984989-.0859375 .04699707-.0859375 .01499939-.10394287 .01499939-.14395142 .01499939-.18508911 .051986696-.20507813 .147995-.20507813 .272995-.20507813 .34498597-.12693787 .3600006-.06695557L.47099305 .3773346M.34098817 .12809754C.33499146 .10206604 .31199647 .077041629 .2899933 .058029176 .2689972 .040008546 .23799134 .021987915 .20899964 .021987915 .15899658 .021987915 .14399719 .074035648 .14399719 .11407471 .14399719 .16212464 .17298889 .28024293 .19999695 .33128358 .22698975 .38034059 .269989 .42037965 .31199647 .42037965 .37799073 .42037965 .3919983 .33929444 .3919983 .33428956 .3919983 .32928468 .3899994 .3232727 .3889923 .3192749L.34098817 .12809754Z"/>
<path id="font_2_3" d="M.40899659 .23046875H.6879883C.70199587 .23046875 .72099307 .23046875 .72099307 .25045777 .72099307 .27046205 .70199587 .27046205 .6879883 .27046205H.40899659V.5500183C.40899659 .56399539 .40899659 .5830078 .3889923 .5830078 .36898805 .5830078 .36898805 .56399539 .36898805 .5500183V.27046205H.08898926C.07499695 .27046205 .055999757 .27046205 .055999757 .25045777 .055999757 .23046875 .07499695 .23046875 .08898926 .23046875H.36898805V-.05000305C.36898805-.06401062 .36898805-.08300781 .3889923-.08300781 .40899659-.08300781 .40899659-.06401062 .40899659-.05000305V.23046875Z"/>
<path id="font_3_1" d="M.6589966 .23046875C.6759949 .23046875 .69400027 .23046875 .69400027 .25045777 .69400027 .27046205 .6759949 .27046205 .6589966 .27046205H.117996219C.100997928 .27046205 .08299255 .27046205 .08299255 .25045777 .08299255 .23046875 .100997928 .23046875 .117996219 .23046875H.6589966Z"/>
<path id="font_1_1" d="M.2649994 .37265016H.37799073C.34498597 .22489929 .33599855 .18196106 .33599855 .11508179 .33599855 .100097659 .33599855 .073150638 .34399415 .03919983 .35398866-.0047454836 .36499024-.0107421879 .37998963-.0107421879 .3999939-.0107421879 .42099 .007247925 .42099 .02722168 .42099 .033218385 .42099 .035202028 .4149933 .049179079 .38598634 .12106323 .38598634 .18595886 .38598634 .21391297 .38598634 .26683045 .3929901 .32073976 .4039917 .37265016H.5179901C.5309906 .37265016 .5669861 .37265016 .5669861 .406662 .5669861 .43066407 .54599 .43066407 .5269928 .43066407H.19198609C.16999817 .43066407 .13198853 .43066407 .08799744 .38365174 .052993776 .34469605 .026992798 .29878236 .026992798 .29379273 .026992798 .29278565 .026992798 .28379823 .038986207 .28379823 .04699707 .28379823 .04899597 .28779603 .054992677 .29577638 .10398865 .37265016 .1619873 .37265016 .18199158 .37265016H.23899842C.20698548 .25186158 .15299988 .13105774 .11099243 .04020691 .102996829 .025222779 .102996829 .023223877 .102996829 .016235352 .102996829-.002746582 .11898804-.0107421879 .13198853-.0107421879 .1619873-.0107421879 .16999817 .017242432 .18199158 .05418396 .19599915 .100097659 .19599915 .10209656 .20899964 .15202332L.2649994 .37265016Z"/>
<path id="font_2_5" d="M.1269989 .07699585 .23298645 .18003845C.3889923 .31811524 .44898988 .3721466 .44898988 .47216798 .44898988 .5860901 .35899354 .6660156 .23699951 .6660156 .12399292 .6660156 .049987794 .57411196 .049987794 .48516847 .049987794 .4291687 .099990848 .4291687 .102996829 .4291687 .11999512 .4291687 .15499878 .44117738 .15499878 .48217774 .15499878 .5081787 .13699341 .5341797 .101989749 .5341797 .09399414 .5341797 .09199524 .5341797 .08898926 .5331726 .11199951 .59806826 .1659851 .63500979 .22399903 .63500979 .31498719 .63500979 .35798646 .5541382 .35798646 .47216798 .35798646 .39215089 .30799867 .31311036 .25299073 .25108338L.06098938 .036987306C.049987794 .025985718 .049987794 .023986817 .049987794 0H.42099L.44898988 .17404175H.42399598C.4189911 .14402771 .4119873 .1000061 .4019928 .084991458 .394989 .07699585 .32899476 .07699585 .30699159 .07699585H.1269989Z"/>
<path id="font_2_4" d="M.2939911 .64004519C.2939911 .66400149 .2939911 .6660156 .2709961 .6660156 .20899964 .60227969 .12098694 .60227969 .08898926 .60227969V.57128909C.10899353 .57128909 .16799927 .57128909 .21998596 .5972748V.07902527C.21998596 .042999269 .21699524 .0309906 .1269989 .0309906H.09498596V0C.12998963 .0029907227 .21699524 .0029907227 .25698854 .0029907227 .29699708 .0029907227 .38398744 .0029907227 .4189911 0V.0309906H.3869934C.29699708 .0309906 .2939911 .041992189 .2939911 .07902527V.64004519Z"/>
<path id="font_2_6" d="M.2899933 .35191346C.37199403 .37893678 .42999269 .4490509 .42999269 .52809146 .42999269 .6100464 .34199525 .6660156 .24598694 .6660156 .14498902 .6660156 .068984989 .60606387 .068984989 .53009036 .068984989 .49710084 .09098816 .47808839 .11999512 .47808839 .15098572 .47808839 .17098999 .50009158 .17098999 .5290985 .17098999 .57910159 .12399292 .57910159 .10899353 .57910159 .13999939 .62802127 .20599365 .64100649 .24198914 .64100649 .2829895 .64100649 .33799745 .6190338 .33799745 .5290985 .33799745 .51708987 .33599855 .45906068 .30999757 .4149933 .27999879 .36691285 .24598694 .36390687 .22099304 .36291505 .21299744 .36190797 .18899536 .35990907 .18199158 .35990907 .17399597 .35890199 .16699219 .35791017 .16699219 .3479004 .16699219 .33691407 .17399597 .33691407 .19099427 .33691407H.23498535C.31698609 .33691407 .35398866 .2686615 .35398866 .17037964 .35398866 .034469606 .2849884 .0055389406 .24099732 .0055389406 .19799805 .0055389406 .12298584 .022491456 .08799744 .08137512 .12298584 .07637024 .1539917 .09837341 .1539917 .1363678 .1539917 .17237854 .1269989 .19238281 .09799194 .19238281 .07398987 .19238281 .041992189 .17837525 .041992189 .1343689 .041992189 .043441774 .1349945-.022460938 .24398804-.022460938 .3659973-.022460938 .45700074 .06838989 .45700074 .17037964 .45700074 .252594 .3939972 .33088685 .2899933 .35191346Z"/>
<path id="font_2_7" d="M.2939911 .16503906V.07800293C.2939911 .041992189 .2919922 .0309906 .21798706 .0309906H.19699097V0C.23799134 .0029907227 .2899933 .0029907227 .33198548 .0029907227 .37399293 .0029907227 .4269867 .0029907227 .46798707 0V.0309906H.44699098C.37298585 .0309906 .37098695 .041992189 .37098695 .07800293V.16503906H.47099305V.19602967H.37098695V.65075686C.37098695 .67074587 .37098695 .6767578 .35499574 .6767578 .34599305 .6767578 .34298707 .6767578 .33499146 .66474917L.027999878 .19602967V.16503906H.2939911M.2999878 .19602967H.055999757L.2999878 .5688019V.19602967Z"/>
</defs>
<path transform="matrix(1.00005,0,0,-1.00006,106.42761,129.4158)" stroke-width=".49814" stroke-linecap="butt" stroke-miterlimit="10" stroke-linejoin="miter" fill="none" stroke="#424242" d="M0 0H188.3358"/>
<path transform="matrix(1.00005,0,0,-1.00006,294.77284,129.4158)" d="M3.85551 0C2.71312 .21419 .85678 .85678-.42839 1.60646V-1.60646C.85678-.85678 2.71312-.21419 3.85551 0" fill="#424242"/>
<use data-text="t" xlink:href="#font_1_4" transform="matrix(9.963098,0,0,-9.963197,296.8291,139.11438)" fill="#424242"/>
<path transform="matrix(1.00005,0,0,-1.00006,106.42761,129.4158)" stroke-width=".49814" stroke-linecap="butt" stroke-miterlimit="10" stroke-linejoin="miter" fill="none" stroke="#424242" d="M0 0H-99.32683"/>
<path transform="matrix(-1.00005,-0,0,1.00006,7.095825,129.4158)" d="M3.85551 0C2.71312 .21419 .85678 .85678-.42839 1.60646V-1.60646C.85678-.85678 2.71312-.21419 3.85551 0" fill="#424242"/>
<path transform="matrix(1.00005,0,0,-1.00006,106.42761,129.4158)" stroke-width=".49814" stroke-linecap="butt" stroke-miterlimit="10" stroke-linejoin="miter" fill="none" stroke="#424242" d="M0 0V123.70511"/>
<path transform="matrix(0,-1.00006,-1.00005,-0,106.42761,5.7032778)" d="M3.85551 0C2.71312 .21419 .85678 .85678-.42839 1.60646V-1.60646C.85678-.85678 2.71312-.21419 3.85551 0" fill="#424242"/>
<use data-text="y" xlink:href="#font_1_5" transform="matrix(9.963098,0,0,-9.963197,109.99779,10.110649)" fill="#424242"/>
<path transform="matrix(1.00005,0,0,-1.00006,106.42761,129.4158)" stroke-width=".49814" stroke-linecap="butt" stroke-miterlimit="10" stroke-linejoin="miter" fill="none" stroke="#424242" d="M0 0V-67.01149"/>
<path transform="matrix(0,1.00006,1.00005,0,106.42761,196.4313)" d="M3.85551 0C2.71312 .21419 .85678 .85678-.42839 1.60646V-1.60646C.85678-.85678 2.71312-.21419 3.85551 0" fill="#424242"/>
<path transform="matrix(1.00005,0,0,-1.00006,106.42761,129.4158)" stroke-width="1.49442" stroke-linecap="butt" stroke-miterlimit="10" stroke-linejoin="miter" fill="none" stroke="#0074c8" d="M-89.00894-20.04381C-89.00894-20.04381-80.97055-25.0356-77.88321-26.18756-74.79587-27.33952-69.8448-28.3463-66.75746-28.34636-63.67012-28.34642-58.71907-27.3399-55.63173-26.188-52.54439-25.0361-47.59332-22.1726-44.50598-20.04422-41.41866-17.91585-36.46758-13.62889-33.38023-10.84804-30.2929-8.06718-25.34184-3.01158-22.2545-.00171-19.16716 3.00815-14.2161 8.06398-11.12875 10.845-8.04141 13.62604-3.09036 17.9135-.00302 20.04207 3.0843 22.17064 8.03537 25.03406 11.1227 26.18626 14.21004 27.33847 19.1611 28.34595 22.24844 28.34636 25.33577 28.34677 30.28685 27.34082 33.37419 26.18929 36.46153 25.03775 41.41258 22.17491 44.49992 20.04683 47.58727 17.91875 52.53833 13.6323 55.62567 10.8515 58.71301 8.07071 63.66406 3.01466 66.7514 .00473 69.83875-3.00517 74.78983-8.06082 77.87715-10.84198 80.9645-13.62314 85.91556-17.91104 89.0029-20.0399 92.09024-22.16878 97.0413-25.03291 100.12865-26.1854 103.21599-27.33789 108.16704-28.3457 111.25438-28.34636 114.34172-28.34702 119.29277-27.34138 122.38011-26.19016 125.46745-25.03893 130.41852-22.17682 133.50586-20.04898 136.5932-17.92114 141.54427-13.63477 144.6316-10.8541 147.71894-8.07343 152.67002-3.01764 155.75736-.00778 158.8447 3.00208 163.79575 8.05768 166.88309 10.83896 169.97043 13.62024 178.00884 20.03773 178.00884 20.03773"/>
<use data-text="f" xlink:href="#font_1_2" transform="matrix(9.963098,0,0,-9.963197,229.59777,176.39162)" fill="#0074c8"/>
<use data-text="(" xlink:href="#font_2_1" transform="matrix(9.963098,0,0,-9.963197,235.54805,176.39162)" fill="#0074c8"/>
<use data-text="t" xlink:href="#font_1_4" transform="matrix(9.963098,0,0,-9.963197,239.42224,176.39162)" fill="#0074c8"/>
<use data-text=")" xlink:href="#font_2_2" transform="matrix(9.963098,0,0,-9.963197,243.02043,176.39162)" fill="#0074c8"/>
<path transform="matrix(1.00005,0,0,-1.00006,106.42761,129.4158)" stroke-width="1.49442" stroke-linecap="butt" stroke-dasharray="2.98883,2.98883" stroke-miterlimit="10" stroke-linejoin="miter" fill="none" stroke="#ff0000" d="M-89.00894 101.99417C-89.00894 101.99417-80.97055 111.47664-77.88321 112.65536-74.79587 113.83409-69.8448 112.82658-66.75746 110.48965-63.67012 108.15274-58.71907 101.30956-55.63173 95.81235-52.54439 90.31514-47.59332 78.68988-44.50598 70.86961-41.41866 63.04933-36.46758 48.4021-33.38023 39.44919-30.2929 30.49628-25.34184 15.06526-22.2545 6.34315-19.16716-2.37894-14.2161-16.24896-11.12875-23.4137-8.04141-30.57843-3.09036-40.77957-.00302-45.29536 3.0843-49.81116 8.03537-54.78082 11.1227-55.96045 14.21004-57.14008 19.1611-56.13336 22.24844-53.79733 25.33577-51.4613 30.28685-44.62021 33.37419-39.12392 36.46153-33.62761 41.41258-22.00351 44.49992-14.18378 47.58727-6.36404 52.53833 8.2826 55.62567 17.23532 58.71301 26.18806 63.66406 41.61906 66.7514 50.34135 69.83875 59.06364 74.78983 72.93425 77.87715 80.09953 80.9645 87.26482 85.91556 97.46692 89.0029 101.98378 92.09024 106.50066 97.0413 111.47336 100.12865 112.65407 103.21599 113.83478 108.16704 112.82886 111.25438 110.49355 114.34172 108.15823 119.29277 101.31828 122.38011 95.82271 125.46745 90.32713 130.41852 78.70438 133.50586 70.88518 136.5932 63.06598 141.54427 48.41992 144.6316 39.46735 147.71894 30.51479 152.67002 15.08397 155.75736 6.36133 158.8447-2.36131 163.79575-16.23343 166.88309-23.39943 169.97043-30.56543 178.00884-45.28627 178.00884-45.28627"/>
<use data-text="g" xlink:href="#font_1_3" transform="matrix(9.963098,0,0,-9.963197,169.06974,23.637459)" fill="#ff0000"/>
<use data-text="(" xlink:href="#font_2_1" transform="matrix(9.963098,0,0,-9.963197,174.17899,23.637459)" fill="#ff0000"/>
<use data-text="t" xlink:href="#font_1_4" transform="matrix(9.963098,0,0,-9.963197,178.05417,23.637459)" fill="#ff0000"/>
<use data-text=")" xlink:href="#font_2_2" transform="matrix(9.963098,0,0,-9.963197,181.65137,23.637459)" fill="#ff0000"/>
<path transform="matrix(1.00005,0,0,-1.00006,106.42761,129.4158)" stroke-width="1.99255" stroke-linecap="butt" stroke-dasharray="6.97394,1.99255,.99628,2.98883" stroke-miterlimit="10" stroke-linejoin="miter" fill="none" stroke="#000000" d="M-89.00894 81.95036C-89.00894 81.95036-80.97055 86.44104-77.88321 86.4678-74.79587 86.49455-69.8448 84.48027-66.75746 82.14328-63.67012 79.80627-58.71907 73.96962-55.63173 69.62433-52.54439 65.27902-47.59332 56.51724-44.50598 50.82536-41.41866 45.13348-36.46758 34.7732-33.38023 28.60114-30.2929 22.42906-25.34184 12.05365-22.2545 6.34142-19.16716 .62918-14.2161-8.18497-11.12875-12.56866-8.04141-16.95238-3.09036-22.86604-.00302-25.25328 3.0843-27.6405 8.03537-29.74675 11.1227-29.77417 14.21004-29.8016 19.1611-27.7874 22.24844-25.45094 25.33577-23.11449 30.28685-17.27936 33.37419-12.9346 36.46153-8.58984 41.41258 .1714 44.49992 5.86304 47.58727 11.55467 52.53833 21.91489 55.62567 28.08684 58.71301 34.25877 63.66406 44.63374 66.7514 50.3461 69.83875 56.05846 74.78983 64.8734 77.87715 69.25754 80.9645 73.64166 85.91556 79.55586 89.0029 81.94386 92.09024 84.33188 97.0413 86.44044 100.12865 86.46864 103.21599 86.49684 108.16704 84.48314 111.25438 82.14717 114.34172 79.8112 119.29277 73.97688 122.38011 69.63255 125.46745 65.28822 130.41852 56.52751 133.50586 50.83617 136.5932 45.14482 141.54427 34.78511 144.6316 28.61324 147.71894 22.44135 152.67002 12.0663 155.75736 6.35353 158.8447 .64078 163.79575-8.17574 166.88309-12.56046 169.97043-16.94518 178.00884-25.24852 178.00884-25.24852"/>
<use data-text="(" xlink:href="#font_2_1" transform="matrix(9.963098,0,0,-9.963197,.2163086,87.17227)"/>
<use data-text="f" xlink:href="#font_1_2" transform="matrix(9.963098,0,0,-9.963197,4.0905,87.17227)"/>
<use data-text="+" xlink:href="#font_2_3" transform="matrix(9.963098,0,0,-9.963197,12.254898,87.17227)"/>
<use data-text="g" xlink:href="#font_1_3" transform="matrix(9.963098,0,0,-9.963197,22.2184,87.17227)"/>
<use data-text=")" xlink:href="#font_2_2" transform="matrix(9.963098,0,0,-9.963197,27.327652,87.17227)"/>
<use data-text="(" xlink:href="#font_2_1" transform="matrix(9.963098,0,0,-9.963197,31.193329,87.17227)"/>
<use data-text="t" xlink:href="#font_1_4" transform="matrix(9.963098,0,0,-9.963197,35.077028,87.17227)"/>
<use data-text=")" xlink:href="#font_2_2" transform="matrix(9.963098,0,0,-9.963197,38.67421,87.17227)"/>
<path transform="matrix(1.00005,0,0,-1.00006,106.42761,129.4158)" stroke-width=".79701" stroke-linecap="butt" stroke-miterlimit="10" stroke-linejoin="miter" fill="none" stroke="#000000" d="M-89.00894 2.98883V-2.98883"/>
<use data-text="&#x2212;" xlink:href="#font_3_1" transform="matrix(9.963098,0,0,-9.963197,10.520813,141.93656)"/>
<use data-text="&#x03c0;" xlink:href="#font_1_1" transform="matrix(9.963098,0,0,-9.963197,18.270188,141.93656)"/>
<path transform="matrix(1.00005,0,0,-1.00006,106.42761,129.4158)" stroke-width=".79701" stroke-linecap="butt" stroke-miterlimit="10" stroke-linejoin="miter" fill="none" stroke="#000000" d="M89.00894 2.98883V-2.98883"/>
<use data-text="&#x03c0;" xlink:href="#font_1_1" transform="matrix(9.963098,0,0,-9.963197,192.42292,140.41345)"/>
<path transform="matrix(1.00005,0,0,-1.00006,106.42761,129.4158)" stroke-width=".79701" stroke-linecap="butt" stroke-miterlimit="10" stroke-linejoin="miter" fill="none" stroke="#000000" d="M178.01792 2.98883V-2.98883"/>
<use data-text="2" xlink:href="#font_2_5" transform="matrix(9.963098,0,0,-9.963197,278.94526,142.54459)"/>
<use data-text="&#x03c0;" xlink:href="#font_1_1" transform="matrix(9.963098,0,0,-9.963197,283.92649,142.54459)"/>
<path transform="matrix(1.00005,0,0,-1.00006,106.42761,129.4158)" stroke-width=".79701" stroke-linecap="butt" stroke-miterlimit="10" stroke-linejoin="miter" fill="none" stroke="#000000" d="M-1.99255-56.69362H1.99255"/>
<use data-text="&#x2212;" xlink:href="#font_3_1" transform="matrix(9.963098,0,0,-9.963197,91.969898,188.90836)"/>
<use data-text="2" xlink:href="#font_2_5" transform="matrix(9.963098,0,0,-9.963197,99.71927,188.90836)"/>
<path transform="matrix(1.00005,0,0,-1.00006,106.42761,129.4158)" stroke-width=".79701" stroke-linecap="butt" stroke-miterlimit="10" stroke-linejoin="miter" fill="none" stroke="#000000" d="M-1.99255-28.3468H1.99255"/>
<use data-text="&#x2212;" xlink:href="#font_3_1" transform="matrix(9.963098,0,0,-9.963197,91.969898,160.55966)"/>
<use data-text="1" xlink:href="#font_2_4" transform="matrix(9.963098,0,0,-9.963197,99.71927,160.55966)"/>
<path transform="matrix(1.00005,0,0,-1.00006,106.42761,129.4158)" stroke-width=".79701" stroke-linecap="butt" stroke-miterlimit="10" stroke-linejoin="miter" fill="none" stroke="#000000" d="M-1.99255 28.3468H1.99255"/>
<use data-text="1" xlink:href="#font_2_4" transform="matrix(9.963098,0,0,-9.963197,99.71928,104.2773)"/>
<path transform="matrix(1.00005,0,0,-1.00006,106.42761,129.4158)" stroke-width=".79701" stroke-linecap="butt" stroke-miterlimit="10" stroke-linejoin="miter" fill="none" stroke="#000000" d="M-1.99255 56.69362H1.99255"/>
<use data-text="2" xlink:href="#font_2_5" transform="matrix(9.963098,0,0,-9.963197,99.71928,75.929599)"/>
<path transform="matrix(1.00005,0,0,-1.00006,106.42761,129.4158)" stroke-width=".79701" stroke-linecap="butt" stroke-miterlimit="10" stroke-linejoin="miter" fill="none" stroke="#000000" d="M-1.99255 85.04042H1.99255"/>
<use data-text="3" xlink:href="#font_2_6" transform="matrix(9.963098,0,0,-9.963197,99.71928,47.580896)"/>
<path transform="matrix(1.00005,0,0,-1.00006,106.42761,129.4158)" stroke-width=".79701" stroke-linecap="butt" stroke-miterlimit="10" stroke-linejoin="miter" fill="none" stroke="#000000" d="M-1.99255 113.38724H1.99255"/>
<use data-text="4" xlink:href="#font_2_7" transform="matrix(9.963098,0,0,-9.963197,99.71928,19.232193)"/>
</svg>
