<svg xmlns="http://www.w3.org/2000/svg" xmlns:xlink="http://www.w3.org/1999/xlink" version="1.1" width="311pt" height="113pt" viewBox="0 0 311 113">
<defs>
<path id="font_1_1" d="M.36698915 .3996582H.45298768C.47299195 .3996582 .48298646 .3996582 .48298646 .41966249 .48298646 .43066407 .47299195 .43066407 .45599366 .43066407H.37298585L.3939972 .5449524C.397995 .5660095 .4119873 .6370239 .41799928 .6490326 .4269867 .66804507 .44400025 .68307498 .46499635 .68307498 .46899415 .68307498 .49499513 .68307498 .5139923 .66503909 .46998597 .661026 .45999146 .6260376 .45999146 .6110382 .45999146 .58802798 .47799684 .57603457 .49699403 .57603457 .522995 .57603457 .5519867 .5980377 .5519867 .6360321 .5519867 .6820679 .5059967 .7050781 .46499635 .7050781 .43099977 .7050781 .36799623 .68707278 .33799745 .58802798 .33198548 .56700137 .32899476 .5569763 .30499269 .43066407H.23599243C.21699524 .43066407 .20599365 .43066407 .20599365 .4116516 .20599365 .3996582 .21499634 .3996582 .23399353 .3996582H.2999878L.22499085 .0048828127C.20698548-.09207153 .18998719-.18309021 .13798523-.18309021 .13398743-.18309021 .10899353-.18309021 .08999634-.16506958 .13598633-.1620636 .14498902-.12606812 .14498902-.111068729 .14498902-.08807373 .1269989-.07606506 .10798645-.07606506 .08198547-.07606506 .052993776-.09806824 .052993776-.13606262 .052993776-.18109131 .09700012-.20507813 .13798523-.20507813 .19299317-.20507813 .23298645-.14607239 .25099183-.108062747 .2829895-.04508972 .30599977 .07583618 .30699159 .082839969L.36698915 .3996582Z"/>
<path id="font_2_2" d="M.33099366-.2400055C.33099366-.23701477 .33099366-.23500061 .31399537-.21800232 .18899536-.0920105 .15699768 .09700012 .15699768 .25 .15699768 .42399598 .19499207 .59799197 .31799317 .72299197 .33099366 .73498538 .33099366 .7369995 .33099366 .73999026 .33099366 .746994 .32699586 .75 .32099916 .75 .31098939 .75 .22099304 .6819916 .1619873 .5549927 .11099243 .44499208 .09899902 .33399964 .09899902 .25 .09899902 .17199707 .10998535 .050994874 .16499329-.06201172 .22499085-.18501282 .31098939-.25 .32099916-.25 .32699586-.25 .33099366-.24700928 .33099366-.2400055Z"/>
<path id="font_1_2" d="M.33399964 .30233766C.33999635 .32835389 .36299134 .42037965 .43299867 .42037965 .43798829 .42037965 .46199037 .42037965 .48298646 .40734864 .45498658 .402359 .43499757 .37734986 .43499757 .35334779 .43499757 .33735658 .44599916 .31835938 .47299195 .31835938 .49499513 .31835938 .5269928 .3363495 .5269928 .37635804 .5269928 .42837525 .46798707 .4423828 .43399049 .4423828 .37599183 .4423828 .34098817 .38935853 .32899476 .36634828 .3039856 .43237306 .25 .4423828 .22099304 .4423828 .116989139 .4423828 .05999756 .3133545 .05999756 .28834535 .05999756 .27833558 .069992069 .27833558 .07199097 .27833558 .07998657 .27833558 .08299255 .28033448 .084991458 .28933717 .11898804 .39535523 .18499756 .42037965 .21899414 .42037965 .23799134 .42037965 .272995 .4113617 .272995 .35334779 .272995 .32235719 .2559967 .25532533 .21899414 .11528015 .20298767 .053268434 .16799927 .011245728 .12399292 .011245728 .117996219 .011245728 .09498596 .011245728 .07398987 .024276734 .09899902 .029266358 .12098694 .05027771 .12098694 .07827759 .12098694 .105270389 .09899902 .11328125 .083999637 .11328125 .053985597 .11328125 .0289917 .08728027 .0289917 .055267335 .0289917 .009246826 .07899475-.0107421879 .12298584-.0107421879 .18899536-.0107421879 .22499085 .059280397 .22799683 .0652771 .23999024 .028274537 .27598573-.0107421879 .33599855-.0107421879 .43899537-.0107421879 .49598695 .118270877 .49598695 .14328003 .49598695 .1532898 .4869995 .1532898 .48399354 .1532898 .47499085 .1532898 .47299195 .14929199 .47099305 .14228821 .43798829 .03527832 .36999513 .011245728 .33799745 .011245728 .29899598 .011245728 .2829895 .043273927 .2829895 .07727051 .2829895 .09927368 .2889862 .121276859 .2999878 .16529846L.33399964 .30233766Z"/>
<path id="font_2_3" d="M.2889862 .25C.2889862 .32798768 .27799989 .44898988 .22299195 .56199648 .16299439 .68499758 .07699585 .75 .066986087 .75 .06098938 .75 .056991579 .74598696 .056991579 .73999026 .056991579 .7369995 .056991579 .73498538 .07598877 .71699526 .17399597 .6179962 .23098755 .45899964 .23098755 .25 .23098755 .07899475 .19400025-.09700012 .069992069-.2230072 .056991579-.23500061 .056991579-.23701477 .056991579-.2400055 .056991579-.2460022 .06098938-.25 .066986087-.25 .07699585-.25 .16699219-.18200684 .22599793-.055007936 .2769928 .054992677 .2889862 .16600037 .2889862 .25Z"/>
<path id="font_1_3" d="M.48599244 .38136292C.48999024 .39537049 .48999024 .39736939 .48999024 .40437318 .48999024 .42237855 .47599793 .43138124 .46099855 .43138124 .45098878 .43138124 .43499757 .42536927 .42599488 .41036988 .42399598 .405365 .41600038 .37435914 .4119873 .35635377 .40499879 .33035279 .397995 .30334474 .3919983 .27633668L.34700013 .09628296C.34298707 .08126831 .2999878 .011245728 .23399353 .011245728 .18299866 .011245728 .17199707 .055267335 .17199707 .0922699 .17199707 .1382904 .18899536 .20030213 .22299195 .28833009 .23899842 .3293457 .24299622 .3403473 .24299622 .36035157 .24299622 .405365 .21099854 .4423828 .16099549 .4423828 .06599426 .4423828 .0289917 .29733277 .0289917 .28833009 .0289917 .27833558 .038986207 .27833558 .040985109 .27833558 .050994874 .27833558 .051986696 .28033448 .056991579 .29634095 .083999637 .3903656 .12399292 .42037965 .1579895 .42037965 .1659851 .42037965 .18299866 .42037965 .18299866 .3883667 .18299866 .36335755 .17298889 .3373413 .1659851 .31834413 .12599182 .21231079 .10798645 .1552887 .10798645 .10827637 .10798645 .019256592 .17098999-.0107421879 .22999573-.0107421879 .2689972-.0107421879 .30299378 .0062561037 .33099366 .03425598 .31799317-.017745972 .30599977-.06674194 .2659912-.11973572 .23999024-.15385437 .20199585-.18309021 .1559906-.18309021 .14199829-.18309021 .09700012-.18005371 .07998657-.14074707 .09599304-.14074707 .10899353-.14074707 .12298584-.1287384 .1329956-.11973572 .14299011-.10673523 .14299011-.08773804 .14299011-.056747438 .115997318-.052734376 .10598755-.052734376 .08299255-.052734376 .049987794-.068740848 .049987794-.11773682 .049987794-.16796875 .09399414-.20507813 .1559906-.20507813 .25898744-.20507813 .3619995-.11373901 .3899994-.00074768069L.48599244 .38136292Z"/>
<path id="font_2_1" d="M.44198609 .69781497C.43499757 .7108154 .43299867 .7158203 .41600038 .7158203 .39898683 .7158203 .39698792 .7108154 .3899994 .69781497L.051986696 .019989014C.04699707 .010986328 .04699707 .008987427 .04699707 .0079956059 .04699707 0 .052993776 0 .068984989 0H.7630005C.7789917 0 .7849884 0 .7849884 .0079956059 .7849884 .008987427 .7849884 .010986328 .7799988 .019989014L.44198609 .69781497M.38398744 .61582949 .6529999 .07598877H.11399841L.38398744 .61582949Z"/>
<path id="font_3_1" d="M.45999146 .09199524C.45999146 .11898804 .45999146 .11999512 .43899537 .11999512 .33699037 .11999512 .11199951 .07199097-.024002076-.17189026V-.18788147C-.024002076-.21287537-.023010254-.21386719 0-.21386719 .018997193-.21386719 .019989014-.21287537 .024993897-.20587158 .10699463-.07495117 .24499512-.0039978029 .44799806 0 .45999146 0 .45999146 .0069885256 .45999146 .027999878V.09199524Z"/>
<path id="font_3_4" d="M.47399903 .3079834C.47399903 .3329773 .47299195 .33398438 .44999696 .33398438 .43099977 .33398438 .42999269 .3329773 .4249878 .3259735 .34298707 .19499207 .20498657 .12399292 .0019989014 .11999512-.010009766 .11999512-.010009766 .11299133-.010009766 .09199524V.027999878C-.010009766 .0009918213-.010009766 0 .010986328 0 .11299133 0 .33799745 .04798889 .47399903 .29197694V.3079834Z"/>
<path id="font_3_3" d="M.45999146 .09199524C.45999146 .114990238 .45999146 .11999512 .44599916 .11999512 .3849945 .12098694 .28599549 .1289978 .19599915 .17298889 .08799744 .22698975 .04699707 .28997804 .021987915 .3289795 .018997193 .33398438 .0129852299 .33398438 0 .33398438-.023010254 .33398438-.024002076 .3329773-.024002076 .3079834V.29197694C.11199951 .04699707 .33699037 0 .43899537 0 .45999146 0 .45999146 .0009918213 .45999146 .027999878V.09199524Z"/>
<path id="font_3_2" d="M.47399903-.17189026C.33799745 .07299805 .11299133 .11999512 .010986328 .11999512-.010009766 .11999512-.010009766 .11898804-.010009766 .09199524V.027999878C-.010009766 .004989624-.010009766 0 .0039978029 0 .06498718-.0010070801 .1639862-.009002686 .2539978-.052963258 .3619995-.106933597 .40299989-.16989136 .42799378-.20887757 .43099977-.21386719 .43699647-.21386719 .44999696-.21386719 .47299195-.21386719 .47399903-.21287537 .47399903-.18788147V-.17189026Z"/>
</defs>
<path transform="matrix(1.00002,0,0,-1.00002,2.8926774,85.24447)" stroke-width="1.99255" stroke-linecap="butt" stroke-miterlimit="10" stroke-linejoin="miter" fill="none" stroke="#0074c8" d="M0 0C0 0 3.41324 9.30142 4.72415 11.5721 6.03508 13.84277 8.1374 15.19012 9.44833 16.3655 10.75928 17.54088 12.86159 19.10283 14.17252 20.04337 15.48346 20.98389 17.58577 22.33495 18.8967 23.14423 20.20764 23.9535 22.30995 25.15448 23.62088 25.87613 24.93182 26.59778 27.03413 27.68768 28.34506 28.34549 29.656 29.0033 31.75833 30.00871 33.06924 30.61719 34.38017 31.22566 36.4825 32.16226 37.79341 32.731 39.10434 33.29976 41.20665 34.18031 42.5176 34.71635 43.82854 35.2524 45.93083 36.08606 47.24178 36.59442 48.55272 37.1028 50.65501 37.89577 51.96596 38.38039 53.2769 38.86499 55.3792 39.62326 56.69014 40.08717 58.00108 40.55107 60.10338 41.27829 61.41432 41.72389 62.72527 42.1695 64.82758 42.86937 66.1385 43.29877 67.44943 43.72816 69.55174 44.4039 70.86267 44.81871 72.1736 45.2335 74.27591 45.88686 75.58685 46.28847 76.8978 46.69008 79.00009 47.32364 80.31104 47.71326 81.62198 48.10287 83.72427 48.71796 85.03522 49.09651 86.34616 49.47507 88.44846 50.07323 89.7594 50.44171 91.07034 50.81018 93.17264 51.39311 94.48358 51.75229 95.79453 52.11147 97.89682 52.67998 99.20776 53.03044 100.5187 53.3809 102.62102 53.93593 103.93195 54.2783 105.24287 54.62068 107.34518 55.16325 108.65611 55.49806 109.96704 55.83287 113.3803 56.69144 113.3803 56.69144"/>
<use data-text="f" xlink:href="#font_1_1" transform="matrix(9.962799,0,0,-9.962799,120.59904,38.127527)" fill="#0074c8"/>
<use data-text="(" xlink:href="#font_2_2" transform="matrix(9.962799,0,0,-9.962799,126.54916,38.127527)" fill="#0074c8"/>
<use data-text="x" xlink:href="#font_1_2" transform="matrix(9.962799,0,0,-9.962799,130.42324,38.127527)" fill="#0074c8"/>
<use data-text=")" xlink:href="#font_2_3" transform="matrix(9.962799,0,0,-9.962799,136.11734,38.127527)" fill="#0074c8"/>
<path transform="matrix(1.00002,0,0,-1.00002,2.8926774,85.24447)" stroke-width=".29887" stroke-linecap="butt" stroke-miterlimit="10" stroke-linejoin="miter" fill="none" stroke="#797979" d="M0 0H117.15637"/>
<path transform="matrix(1.00002,0,0,-1.00002,120.0514,85.24447)" d="M3.31755 0C2.33455 .1843 .73723 .73723-.3686 1.38231V-1.38231C.73723-.73723 2.33455-.1843 3.31755 0" fill="#797979"/>
<use data-text="x" xlink:href="#font_1_2" transform="matrix(9.962799,0,0,-9.962799,113.43489,93.00462)" fill="#797979"/>
<path transform="matrix(1.00002,0,0,-1.00002,2.8926774,85.24447)" stroke-width=".29887" stroke-linecap="butt" stroke-miterlimit="10" stroke-linejoin="miter" fill="none" stroke="#797979" d="M0 0V53.37605"/>
<path transform="matrix(0,-1.00002,-1.00002,-0,2.8926774,31.867352)" d="M3.31755 0C2.33455 .1843 .73723 .73723-.3686 1.38231V-1.38231C.73723-.73723 2.33455-.1843 3.31755 0" fill="#797979"/>
<use data-text="y" xlink:href="#font_1_3" transform="matrix(9.962799,0,0,-9.962799,6.362747,36.8125)" fill="#797979"/>
<path transform="matrix(1.00002,0,0,-1.00002,2.8926774,85.24447)" stroke-width="1.99255" stroke-linecap="butt" stroke-miterlimit="10" stroke-linejoin="miter" fill="none" stroke="#0074c8" d="M170.08086 0H283.4681"/>
<use data-text="f" xlink:href="#font_1_1" transform="matrix(9.962799,0,0,-9.962799,290.68345,87.73552)" fill="#0074c8"/>
<use data-text="(" xlink:href="#font_2_2" transform="matrix(9.962799,0,0,-9.962799,296.63359,87.73552)" fill="#0074c8"/>
<use data-text="x" xlink:href="#font_1_2" transform="matrix(9.962799,0,0,-9.962799,300.50764,87.73552)" fill="#0074c8"/>
<use data-text=")" xlink:href="#font_2_3" transform="matrix(9.962799,0,0,-9.962799,306.20176,87.73552)" fill="#0074c8"/>
<path transform="matrix(1.00002,0,0,-1.00002,2.8926774,85.24447)" stroke-width="1.99255" stroke-linecap="butt" stroke-miterlimit="10" stroke-linejoin="miter" fill="none" stroke="#0074c8" d="M170.08086 56.69362H283.4681"/>
<use data-text="x" xlink:href="#font_1_2" transform="matrix(9.962799,0,0,-9.962799,290.68345,30.694378)" fill="#0074c8"/>
<path transform="matrix(1.00002,0,0,-1.00002,2.8926774,85.24447)" d="M173.06969 56.69362C173.06969 58.34431 171.73155 59.68245 170.08086 59.68245 168.43015 59.68245 167.09203 58.34431 167.09203 56.69362 167.09203 55.04291 168.43015 53.70479 170.08086 53.70479 171.73155 53.70479 173.06969 55.04291 173.06969 56.69362ZM170.08086 56.69362"/>
<path transform="matrix(1.00002,0,0,-1.00002,2.8926774,85.24447)" d="M201.41649 56.69362C201.41649 58.34431 200.07837 59.68245 198.42766 59.68245 196.77695 59.68245 195.43883 58.34431 195.43883 56.69362 195.43883 55.04291 196.77695 53.70479 198.42766 53.70479 200.07837 53.70479 201.41649 55.04291 201.41649 56.69362ZM198.42766 56.69362"/>
<path transform="matrix(1.00002,0,0,-1.00002,2.8926774,85.24447)" d="M229.7633 56.69362C229.7633 58.34431 228.42517 59.68245 226.77448 59.68245 225.12377 59.68245 223.78565 58.34431 223.78565 56.69362 223.78565 55.04291 225.12377 53.70479 226.77448 53.70479 228.42517 53.70479 229.7633 55.04291 229.7633 56.69362ZM226.77448 56.69362"/>
<path transform="matrix(1.00002,0,0,-1.00002,2.8926774,85.24447)" d="M258.1101 56.69362C258.1101 58.34431 256.772 59.68245 255.12128 59.68245 253.47058 59.68245 252.13245 58.34431 252.13245 56.69362 252.13245 55.04291 253.47058 53.70479 255.12128 53.70479 256.772 53.70479 258.1101 55.04291 258.1101 56.69362ZM255.12128 56.69362"/>
<path transform="matrix(1.00002,0,0,-1.00002,2.8926774,85.24447)" d="M286.4569 56.69362C286.4569 58.34431 285.1188 59.68245 283.4681 59.68245 281.81739 59.68245 280.47926 58.34431 280.47926 56.69362 280.47926 55.04291 281.81739 53.70479 283.4681 53.70479 285.1188 53.70479 286.4569 55.04291 286.4569 56.69362ZM283.4681 56.69362"/>
<path transform="matrix(1.00002,0,0,-1.00002,2.8926774,85.24447)" d="M173.06969 0C173.06969 1.6507 171.73155 2.98883 170.08086 2.98883 168.43015 2.98883 167.09203 1.6507 167.09203 0 167.09203-1.6507 168.43015-2.98883 170.08086-2.98883 171.73155-2.98883 173.06969-1.6507 173.06969 0ZM170.08086 0"/>
<path transform="matrix(1.00002,0,0,-1.00002,2.8926774,85.24447)" d="M201.41649 0C201.41649 1.6507 200.07837 2.98883 198.42766 2.98883 196.77695 2.98883 195.43883 1.6507 195.43883 0 195.43883-1.6507 196.77695-2.98883 198.42766-2.98883 200.07837-2.98883 201.41649-1.6507 201.41649 0ZM198.42766 0"/>
<path transform="matrix(1.00002,0,0,-1.00002,2.8926774,85.24447)" d="M213.03879 0C213.03879 1.6507 211.70066 2.98883 210.04996 2.98883 208.39925 2.98883 207.06113 1.6507 207.06113 0 207.06113-1.6507 208.39925-2.98883 210.04996-2.98883 211.70066-2.98883 213.03879-1.6507 213.03879 0ZM210.04996 0"/>
<path transform="matrix(1.00002,0,0,-1.00002,2.8926774,85.24447)" d="M222.10953 0C222.10953 1.6507 220.77141 2.98883 219.1207 2.98883 217.47 2.98883 216.13187 1.6507 216.13187 0 216.13187-1.6507 217.47-2.98883 219.1207-2.98883 220.77141-2.98883 222.10953-1.6507 222.10953 0ZM219.1207 0"/>
<path transform="matrix(1.00002,0,0,-1.00002,2.8926774,85.24447)" d="M229.7633 0C229.7633 1.6507 228.42517 2.98883 226.77448 2.98883 225.12377 2.98883 223.78565 1.6507 223.78565 0 223.78565-1.6507 225.12377-2.98883 226.77448-2.98883 228.42517-2.98883 229.7633-1.6507 229.7633 0ZM226.77448 0"/>
<path transform="matrix(1.00002,0,0,-1.00002,2.8926774,85.24447)" stroke-width=".79701" stroke-linecap="butt" stroke-miterlimit="10" stroke-linejoin="miter" fill="none" stroke="#000000" d="M170.08086 56.69362V7.49731"/>
<path transform="matrix(0,1.00002,1.00002,0,172.97693,77.74701)" d="M4.66248 0C3.28098 .25902 1.0361 1.0361-.51805 1.94269V-1.94269C1.0361-1.0361 3.28098-.25902 4.66248 0"/>
<path transform="matrix(1.00002,0,0,-1.00002,2.8926774,85.24447)" stroke-width=".79701" stroke-linecap="butt" stroke-miterlimit="10" stroke-linejoin="miter" fill="none" stroke="#000000" d="M198.42766 56.69362V7.49731"/>
<path transform="matrix(0,1.00002,1.00002,0,201.32431,77.74701)" d="M4.66248 0C3.28098 .25902 1.0361 1.0361-.51805 1.94269V-1.94269C1.0361-1.0361 3.28098-.25902 4.66248 0"/>
<path transform="matrix(1.00002,0,0,-1.00002,2.8926774,85.24447)" stroke-width=".79701" stroke-linecap="butt" stroke-miterlimit="10" stroke-linejoin="miter" fill="none" stroke="#000000" d="M226.77448 56.69362 211.43256 7.28737"/>
<path transform="matrix(-.29654593,.95498916,.95498916,.29654593,214.32947,77.95694)" d="M4.66248 0C3.28098 .25902 1.0361 1.0361-.51805 1.94269V-1.94269C1.0361-1.0361 3.28098-.25902 4.66248 0"/>
<path transform="matrix(1.00002,0,0,-1.00002,2.8926774,85.24447)" stroke-width=".79701" stroke-linecap="butt" stroke-miterlimit="10" stroke-linejoin="miter" fill="none" stroke="#000000" d="M255.12128 56.69362 221.71154 6.71089"/>
<path transform="matrix(-.5556911,.83134666,.83134666,.5556911,224.60868,78.53345)" d="M4.66248 0C3.28098 .25902 1.0361 1.0361-.51805 1.94269V-1.94269C1.0361-1.0361 3.28098-.25902 4.66248 0"/>
<path transform="matrix(1.00002,0,0,-1.00002,2.8926774,85.24447)" stroke-width=".79701" stroke-linecap="butt" stroke-miterlimit="10" stroke-linejoin="miter" fill="none" stroke="#000000" d="M283.4681 56.69362 230.15457 6.04591"/>
<path transform="matrix(-.7249746,.6887138,.6887138,.7249746,233.05185,79.19842)" d="M4.66248 0C3.28098 .25902 1.0361 1.0361-.51805 1.94269V-1.94269C1.0361-1.0361 3.28098-.25902 4.66248 0"/>
<path transform="matrix(1.00002,0,0,-1.00002,2.8926774,85.24447)" stroke-width=".79701" stroke-linecap="butt" stroke-miterlimit="10" stroke-linejoin="miter" fill="none" stroke="#000000" d=""/>
<use data-text="&#x2206;" xlink:href="#font_2_1" transform="matrix(9.962799,0,0,-9.962799,208.49881,9.287949)"/>
<use data-text="x" xlink:href="#font_1_2" transform="matrix(9.962799,0,0,-9.962799,216.80197,9.287949)"/>
<use data-text="&#xfffd;" xlink:href="#font_3_1" transform="matrix(9.962799,0,0,-9.962799,201.32367,18.255135)"/>
<path transform="matrix(1.00002,0,0,-1.00002,112.447879,-57.880395)" stroke-width="1.1955" stroke-linecap="butt" stroke-miterlimit="10" stroke-linejoin="miter" fill="none" stroke="#000000" d="M93.357-75.536H98.564"/>
<use data-text="&#xfffd;" xlink:href="#font_3_4" transform="matrix(9.962799,0,0,-9.962799,211.01386,18.255135)"/>
<use data-text="&#xfffd;" xlink:href="#font_3_3" transform="matrix(9.962799,0,0,-9.962799,215.4971,18.255135)"/>
<path transform="matrix(1.00002,0,0,-1.00002,112.447879,-57.880395)" stroke-width="1.1955" stroke-linecap="butt" stroke-miterlimit="10" stroke-linejoin="miter" fill="none" stroke="#000000" d="M107.531-75.536H112.737"/>
<use data-text="&#xfffd;" xlink:href="#font_3_2" transform="matrix(9.962799,0,0,-9.962799,225.18714,18.255135)"/>
<path transform="matrix(1.00002,0,0,-1.00002,2.8926774,85.24447)" stroke-width=".79701" stroke-linecap="butt" stroke-miterlimit="10" stroke-linejoin="miter" fill="none" stroke="#000000" d=""/>
<use data-text="&#xfffd;" xlink:href="#font_3_3" transform="matrix(9.962799,0,0,-9.962799,198.0266,98.68074)"/>
<use data-text="&#xfffd;" xlink:href="#font_3_2" transform="matrix(9.962799,0,0,-9.962799,202.50986,98.68074)"/>
<use data-text="&#xfffd;" xlink:href="#font_3_1" transform="matrix(9.962799,0,0,-9.962799,206.99312,98.68074)"/>
<use data-text="&#xfffd;" xlink:href="#font_3_4" transform="matrix(9.962799,0,0,-9.962799,211.47638,98.68074)"/>
<use data-text="&#x2206;" xlink:href="#font_2_1" transform="matrix(9.962799,0,0,-9.962799,199.86765,110.03896)"/>
<use data-text="f" xlink:href="#font_1_1" transform="matrix(9.962799,0,0,-9.962799,208.1698,110.03896)"/>
</svg>
