<svg xmlns="http://www.w3.org/2000/svg" xmlns:xlink="http://www.w3.org/1999/xlink" version="1.1" width="212pt" height="170pt" viewBox="0 0 212 170">
<defs>
<path id="font_1_2" d="M.47099305 .3773346C.47200013 .3833313 .47399903 .38833619 .47399903 .39535523 .47399903 .41236878 .46199037 .42237855 .44499208 .42237855 .43499757 .42237855 .4079895 .41537477 .4039917 .3793335 .38598634 .41636659 .35099793 .4423828 .31098939 .4423828 .19699097 .4423828 .07299805 .30226136 .07299805 .15812683 .07299805 .059020997 .13398743 0 .20599365 0 .2649994 0 .31199647 .04701233 .32199098 .058029176L.32299806 .057022096C.3019867-.031982423 .2899933-.07295227 .2899933-.07495117 .28599549-.08395386 .2519989-.18309021 .1459961-.18309021 .1269989-.18309021 .09399414-.18206787 .06599426-.17297364 .09599304-.16394043 .10699463-.13793946 .10699463-.12094116 .10699463-.10494995 .09599304-.0859375 .068984989-.0859375 .04699707-.0859375 .01499939-.10394287 .01499939-.14395142 .01499939-.18508911 .051986696-.20507813 .147995-.20507813 .272995-.20507813 .34498597-.12693787 .3600006-.06695557L.47099305 .3773346M.34098817 .12809754C.33499146 .10206604 .31199647 .077041629 .2899933 .058029176 .2689972 .040008546 .23799134 .021987915 .20899964 .021987915 .15899658 .021987915 .14399719 .074035648 .14399719 .11407471 .14399719 .16212464 .17298889 .28024293 .19999695 .33128358 .22698975 .38034059 .269989 .42037965 .31199647 .42037965 .37799073 .42037965 .3919983 .33929444 .3919983 .33428956 .3919983 .32928468 .3899994 .3232727 .3889923 .3192749L.34098817 .12809754Z"/>
<path id="font_2_2" d="M.33099366-.2400055C.33099366-.23701477 .33099366-.23500061 .31399537-.21800232 .18899536-.0920105 .15699768 .09700012 .15699768 .25 .15699768 .42399598 .19499207 .59799197 .31799317 .72299197 .33099366 .73498538 .33099366 .7369995 .33099366 .73999026 .33099366 .746994 .32699586 .75 .32099916 .75 .31098939 .75 .22099304 .6819916 .1619873 .5549927 .11099243 .44499208 .09899902 .33399964 .09899902 .25 .09899902 .17199707 .10998535 .050994874 .16499329-.06201172 .22499085-.18501282 .31098939-.25 .32099916-.25 .32699586-.25 .33099366-.24700928 .33099366-.2400055Z"/>
<path id="font_1_3" d="M.33399964 .30233766C.33999635 .32835389 .36299134 .42037965 .43299867 .42037965 .43798829 .42037965 .46199037 .42037965 .48298646 .40734864 .45498658 .402359 .43499757 .37734986 .43499757 .35334779 .43499757 .33735658 .44599916 .31835938 .47299195 .31835938 .49499513 .31835938 .5269928 .3363495 .5269928 .37635804 .5269928 .42837525 .46798707 .4423828 .43399049 .4423828 .37599183 .4423828 .34098817 .38935853 .32899476 .36634828 .3039856 .43237306 .25 .4423828 .22099304 .4423828 .116989139 .4423828 .05999756 .3133545 .05999756 .28834535 .05999756 .27833558 .069992069 .27833558 .07199097 .27833558 .07998657 .27833558 .08299255 .28033448 .084991458 .28933717 .11898804 .39535523 .18499756 .42037965 .21899414 .42037965 .23799134 .42037965 .272995 .4113617 .272995 .35334779 .272995 .32235719 .2559967 .25532533 .21899414 .11528015 .20298767 .053268434 .16799927 .011245728 .12399292 .011245728 .117996219 .011245728 .09498596 .011245728 .07398987 .024276734 .09899902 .029266358 .12098694 .05027771 .12098694 .07827759 .12098694 .105270389 .09899902 .11328125 .083999637 .11328125 .053985597 .11328125 .0289917 .08728027 .0289917 .055267335 .0289917 .009246826 .07899475-.0107421879 .12298584-.0107421879 .18899536-.0107421879 .22499085 .059280397 .22799683 .0652771 .23999024 .028274537 .27598573-.0107421879 .33599855-.0107421879 .43899537-.0107421879 .49598695 .118270877 .49598695 .14328003 .49598695 .1532898 .4869995 .1532898 .48399354 .1532898 .47499085 .1532898 .47299195 .14929199 .47099305 .14228821 .43798829 .03527832 .36999513 .011245728 .33799745 .011245728 .29899598 .011245728 .2829895 .043273927 .2829895 .07727051 .2829895 .09927368 .2889862 .121276859 .2999878 .16529846L.33399964 .30233766Z"/>
<path id="font_2_3" d="M.2889862 .25C.2889862 .32798768 .27799989 .44898988 .22299195 .56199648 .16299439 .68499758 .07699585 .75 .066986087 .75 .06098938 .75 .056991579 .74598696 .056991579 .73999026 .056991579 .7369995 .056991579 .73498538 .07598877 .71699526 .17399597 .6179962 .23098755 .45899964 .23098755 .25 .23098755 .07899475 .19400025-.09700012 .069992069-.2230072 .056991579-.23500061 .056991579-.23701477 .056991579-.2400055 .056991579-.2460022 .06098938-.25 .066986087-.25 .07699585-.25 .16699219-.18200684 .22599793-.055007936 .2769928 .054992677 .2889862 .16600037 .2889862 .25Z"/>
<path id="font_1_1" d="M.36698915 .3996582H.45298768C.47299195 .3996582 .48298646 .3996582 .48298646 .41966249 .48298646 .43066407 .47299195 .43066407 .45599366 .43066407H.37298585L.3939972 .5449524C.397995 .5660095 .4119873 .6370239 .41799928 .6490326 .4269867 .66804507 .44400025 .68307498 .46499635 .68307498 .46899415 .68307498 .49499513 .68307498 .5139923 .66503909 .46998597 .661026 .45999146 .6260376 .45999146 .6110382 .45999146 .58802798 .47799684 .57603457 .49699403 .57603457 .522995 .57603457 .5519867 .5980377 .5519867 .6360321 .5519867 .6820679 .5059967 .7050781 .46499635 .7050781 .43099977 .7050781 .36799623 .68707278 .33799745 .58802798 .33198548 .56700137 .32899476 .5569763 .30499269 .43066407H.23599243C.21699524 .43066407 .20599365 .43066407 .20599365 .4116516 .20599365 .3996582 .21499634 .3996582 .23399353 .3996582H.2999878L.22499085 .0048828127C.20698548-.09207153 .18998719-.18309021 .13798523-.18309021 .13398743-.18309021 .10899353-.18309021 .08999634-.16506958 .13598633-.1620636 .14498902-.12606812 .14498902-.111068729 .14498902-.08807373 .1269989-.07606506 .10798645-.07606506 .08198547-.07606506 .052993776-.09806824 .052993776-.13606262 .052993776-.18109131 .09700012-.20507813 .13798523-.20507813 .19299317-.20507813 .23298645-.14607239 .25099183-.108062747 .2829895-.04508972 .30599977 .07583618 .30699159 .082839969L.36698915 .3996582Z"/>
<path id="font_2_1" d="M.44198609 .69781497C.43499757 .7108154 .43299867 .7158203 .41600038 .7158203 .39898683 .7158203 .39698792 .7108154 .3899994 .69781497L.051986696 .019989014C.04699707 .010986328 .04699707 .008987427 .04699707 .0079956059 .04699707 0 .052993776 0 .068984989 0H.7630005C.7789917 0 .7849884 0 .7849884 .0079956059 .7849884 .008987427 .7849884 .010986328 .7799988 .019989014L.44198609 .69781497M.38398744 .61582949 .6529999 .07598877H.11399841L.38398744 .61582949Z"/>
<path id="font_3_1" d="M.45999146 .09199524C.45999146 .11898804 .45999146 .11999512 .43899537 .11999512 .33699037 .11999512 .11199951 .07199097-.024002076-.17189026V-.18788147C-.024002076-.21287537-.023010254-.21386719 0-.21386719 .018997193-.21386719 .019989014-.21287537 .024993897-.20587158 .10699463-.07495117 .24499512-.0039978029 .44799806 0 .45999146 0 .45999146 .0069885256 .45999146 .027999878V.09199524Z"/>
<path id="font_3_4" d="M.47399903 .3079834C.47399903 .3329773 .47299195 .33398438 .44999696 .33398438 .43099977 .33398438 .42999269 .3329773 .4249878 .3259735 .34298707 .19499207 .20498657 .12399292 .0019989014 .11999512-.010009766 .11999512-.010009766 .11299133-.010009766 .09199524V.027999878C-.010009766 .0009918213-.010009766 0 .010986328 0 .11299133 0 .33799745 .04798889 .47399903 .29197694V.3079834Z"/>
<path id="font_3_3" d="M.45999146 .09199524C.45999146 .114990238 .45999146 .11999512 .44599916 .11999512 .3849945 .12098694 .28599549 .1289978 .19599915 .17298889 .08799744 .22698975 .04699707 .28997804 .021987915 .3289795 .018997193 .33398438 .0129852299 .33398438 0 .33398438-.023010254 .33398438-.024002076 .3329773-.024002076 .3079834V.29197694C.11199951 .04699707 .33699037 0 .43899537 0 .45999146 0 .45999146 .0009918213 .45999146 .027999878V.09199524Z"/>
<path id="font_3_2" d="M.47399903-.17189026C.33799745 .07299805 .11299133 .11999512 .010986328 .11999512-.010009766 .11999512-.010009766 .11898804-.010009766 .09199524V.027999878C-.010009766 .004989624-.010009766 0 .0039978029 0 .06498718-.0010070801 .1639862-.009002686 .2539978-.052963258 .3619995-.106933597 .40299989-.16989136 .42799378-.20887757 .43099977-.21386719 .43699647-.21386719 .44999696-.21386719 .47299195-.21386719 .47399903-.21287537 .47399903-.18788147V-.17189026Z"/>
</defs>
<path transform="matrix(1.00003,0,0,-1.00005,4.885582,85.24666)" stroke-width="1.99255" stroke-linecap="butt" stroke-miterlimit="10" stroke-linejoin="miter" fill="none" stroke="#0074c8" d="M0 0H170.08086"/>
<use data-text="g" xlink:href="#font_1_2" transform="matrix(9.962899,0,0,-9.963098,179.28882,87.737789)" fill="#0074c8"/>
<use data-text="(" xlink:href="#font_2_2" transform="matrix(9.962899,0,0,-9.963098,184.39896,87.737789)" fill="#0074c8"/>
<use data-text="x" xlink:href="#font_1_3" transform="matrix(9.962899,0,0,-9.963098,188.27309,87.737789)" fill="#0074c8"/>
<use data-text=")" xlink:href="#font_2_3" transform="matrix(9.962899,0,0,-9.963098,193.96726,87.737789)" fill="#0074c8"/>
<path transform="matrix(1.00003,0,0,-1.00005,4.885582,85.24666)" stroke-width="1.99255" stroke-linecap="butt" stroke-miterlimit="10" stroke-linejoin="miter" fill="none" stroke="#0074c8" d="M0 56.69362H170.08086"/>
<use data-text="x" xlink:href="#font_1_3" transform="matrix(9.962899,0,0,-9.963098,179.28882,30.694935)" fill="#0074c8"/>
<path transform="matrix(1.00003,0,0,-1.00005,4.885582,85.24666)" stroke-width="1.99255" stroke-linecap="butt" stroke-miterlimit="10" stroke-linejoin="miter" fill="none" stroke="#0074c8" d="M0-56.69362H170.08086"/>
<use data-text="f" xlink:href="#font_1_1" transform="matrix(9.962899,0,0,-9.963098,179.28882,144.43363)" fill="#0074c8"/>
<use data-text="(" xlink:href="#font_2_2" transform="matrix(9.962899,0,0,-9.963098,185.23899,144.43363)" fill="#0074c8"/>
<use data-text="g" xlink:href="#font_1_2" transform="matrix(9.962899,0,0,-9.963098,189.1141,144.43363)" fill="#0074c8"/>
<use data-text="(" xlink:href="#font_2_2" transform="matrix(9.962899,0,0,-9.963098,194.22327,144.43363)" fill="#0074c8"/>
<use data-text="x" xlink:href="#font_1_3" transform="matrix(9.962899,0,0,-9.963098,198.09738,144.43363)" fill="#0074c8"/>
<use data-text=")" xlink:href="#font_2_3" transform="matrix(9.962899,0,0,-9.963098,203.79155,144.43363)" fill="#0074c8"/>
<use data-text=")" xlink:href="#font_2_3" transform="matrix(9.962899,0,0,-9.963098,207.65715,144.43363)" fill="#0074c8"/>
<path transform="matrix(1.00003,0,0,-1.00005,4.885582,85.24666)" d="M2.98883 56.69362C2.98883 58.34431 1.6507 59.68245 0 59.68245-1.6507 59.68245-2.98883 58.34431-2.98883 56.69362-2.98883 55.04291-1.6507 53.70479 0 53.70479 1.6507 53.70479 2.98883 55.04291 2.98883 56.69362ZM0 56.69362"/>
<path transform="matrix(1.00003,0,0,-1.00005,4.885582,85.24666)" d="M31.33563 56.69362C31.33563 58.34431 29.99751 59.68245 28.3468 59.68245 26.69609 59.68245 25.35797 58.34431 25.35797 56.69362 25.35797 55.04291 26.69609 53.70479 28.3468 53.70479 29.99751 53.70479 31.33563 55.04291 31.33563 56.69362ZM28.3468 56.69362"/>
<path transform="matrix(1.00003,0,0,-1.00005,4.885582,85.24666)" d="M59.68245 56.69362C59.68245 58.34431 58.34431 59.68245 56.69362 59.68245 55.04291 59.68245 53.70479 58.34431 53.70479 56.69362 53.70479 55.04291 55.04291 53.70479 56.69362 53.70479 58.34431 53.70479 59.68245 55.04291 59.68245 56.69362ZM56.69362 56.69362"/>
<path transform="matrix(1.00003,0,0,-1.00005,4.885582,85.24666)" d="M88.02925 56.69362C88.02925 58.34431 86.69113 59.68245 85.04042 59.68245 83.38971 59.68245 82.05159 58.34431 82.05159 56.69362 82.05159 55.04291 83.38971 53.70479 85.04042 53.70479 86.69113 53.70479 88.02925 55.04291 88.02925 56.69362ZM85.04042 56.69362"/>
<path transform="matrix(1.00003,0,0,-1.00005,4.885582,85.24666)" d="M116.37607 56.69362C116.37607 58.34431 115.03793 59.68245 113.38724 59.68245 111.73653 59.68245 110.3984 58.34431 110.3984 56.69362 110.3984 55.04291 111.73653 53.70479 113.38724 53.70479 115.03793 53.70479 116.37607 55.04291 116.37607 56.69362ZM113.38724 56.69362"/>
<path transform="matrix(1.00003,0,0,-1.00005,4.885582,85.24666)" d="M144.72287 56.69362C144.72287 58.34431 143.38475 59.68245 141.73404 59.68245 140.08333 59.68245 138.74521 58.34431 138.74521 56.69362 138.74521 55.04291 140.08333 53.70479 141.73404 53.70479 143.38475 53.70479 144.72287 55.04291 144.72287 56.69362ZM141.73404 56.69362"/>
<path transform="matrix(1.00003,0,0,-1.00005,4.885582,85.24666)" d="M173.06969 56.69362C173.06969 58.34431 171.73155 59.68245 170.08086 59.68245 168.43015 59.68245 167.09203 58.34431 167.09203 56.69362 167.09203 55.04291 168.43015 53.70479 170.08086 53.70479 171.73155 53.70479 173.06969 55.04291 173.06969 56.69362ZM170.08086 56.69362"/>
<path transform="matrix(1.00003,0,0,-1.00005,4.885582,85.24666)" d="M2.98883-56.69362C2.98883-55.04291 1.6507-53.70479 0-53.70479-1.6507-53.70479-2.98883-55.04291-2.98883-56.69362-2.98883-58.34431-1.6507-59.68245 0-59.68245 1.6507-59.68245 2.98883-58.34431 2.98883-56.69362ZM0-56.69362" fill="#ff0000"/>
<path transform="matrix(1.00003,0,0,-1.00005,4.885582,85.24666)" d="M25.66635-56.69362C25.66635-55.04291 24.32822-53.70479 22.67752-53.70479 21.02681-53.70479 19.68869-55.04291 19.68869-56.69362 19.68869-58.34431 21.02681-59.68245 22.67752-59.68245 24.32822-59.68245 25.66635-58.34431 25.66635-56.69362ZM22.67752-56.69362" fill="#ff0000"/>
<path transform="matrix(1.00003,0,0,-1.00005,4.885582,85.24666)" d="M34.96419-56.69362C34.96419-55.04291 33.62607-53.70479 31.97536-53.70479 30.32466-53.70479 28.98653-55.04291 28.98653-56.69362 28.98653-58.34431 30.32466-59.68245 31.97536-59.68245 33.62607-59.68245 34.96419-58.34431 34.96419-56.69362ZM31.97536-56.69362" fill="#ff0000"/>
<path transform="matrix(1.00003,0,0,-1.00005,4.885582,85.24666)" d="M42.22087-56.69362C42.22087-55.04291 40.88275-53.70479 39.23204-53.70479 37.58133-53.70479 36.24321-55.04291 36.24321-56.69362 36.24321-58.34431 37.58133-59.68245 39.23204-59.68245 40.88275-59.68245 42.22087-58.34431 42.22087-56.69362ZM39.23204-56.69362" fill="#ff0000"/>
<path transform="matrix(1.00003,0,0,-1.00005,4.885582,85.24666)" d="M48.34389-56.69362C48.34389-55.04291 47.00575-53.70479 45.35506-53.70479 43.70435-53.70479 42.36623-55.04291 42.36623-56.69362 42.36623-58.34431 43.70435-59.68245 45.35506-59.68245 47.00575-59.68245 48.34389-58.34431 48.34389-56.69362ZM45.35506-56.69362" fill="#ff0000"/>
<path transform="matrix(1.00003,0,0,-1.00005,4.885582,85.24666)" d="M53.78651-56.69362C53.78651-55.04291 52.44838-53.70479 50.79768-53.70479 49.14697-53.70479 47.80885-55.04291 47.80885-56.69362 47.80885-58.34431 49.14697-59.68245 50.79768-59.68245 52.44838-59.68245 53.78651-58.34431 53.78651-56.69362ZM50.79768-56.69362" fill="#ff0000"/>
<path transform="matrix(1.00003,0,0,-1.00005,4.885582,85.24666)" d="M58.54875-56.69362C58.54875-55.04291 57.21063-53.70479 55.55992-53.70479 53.90921-53.70479 52.57109-55.04291 52.57109-56.69362 52.57109-58.34431 53.90921-59.68245 55.55992-59.68245 57.21063-59.68245 58.54875-58.34431 58.54875-56.69362ZM55.55992-56.69362" fill="#ff0000"/>
<path transform="matrix(1.00003,0,0,-1.00005,4.885582,85.24666)" stroke-width=".79701" stroke-linecap="butt" stroke-miterlimit="10" stroke-linejoin="miter" fill="none" stroke="#000000" d="M0 56.69362V7.49731"/>
<path transform="matrix(0,1.00005,1.00003,0,4.885582,77.74898)" d="M4.66248 0C3.28098 .25902 1.0361 1.0361-.51805 1.94269V-1.94269C1.0361-1.0361 3.28098-.25902 4.66248 0"/>
<path transform="matrix(1.00003,0,0,-1.00005,4.885582,85.24666)" stroke-width=".79701" stroke-linecap="butt" stroke-miterlimit="10" stroke-linejoin="miter" fill="none" stroke="#000000" d="M28.3468 56.69362V7.49731"/>
<path transform="matrix(0,1.00005,1.00003,0,33.23323,77.74898)" d="M4.66248 0C3.28098 .25902 1.0361 1.0361-.51805 1.94269V-1.94269C1.0361-1.0361 3.28098-.25902 4.66248 0"/>
<path transform="matrix(1.00003,0,0,-1.00005,4.885582,85.24666)" stroke-width=".79701" stroke-linecap="butt" stroke-miterlimit="10" stroke-linejoin="miter" fill="none" stroke="#000000" d="M56.69362 56.69362 41.3517 7.28737"/>
<path transform="matrix(-.2965489,.9550177,.9549987,.2965548,46.238527,77.958919)" d="M4.66248 0C3.28098 .25902 1.0361 1.0361-.51805 1.94269V-1.94269C1.0361-1.0361 3.28098-.25902 4.66248 0"/>
<path transform="matrix(1.00003,0,0,-1.00005,4.885582,85.24666)" stroke-width=".79701" stroke-linecap="butt" stroke-miterlimit="10" stroke-linejoin="miter" fill="none" stroke="#000000" d="M85.04042 56.69362 51.63068 6.71089"/>
<path transform="matrix(-.55569669,.83137157,.831355,.55570778,56.517827,78.53543)" d="M4.66248 0C3.28098 .25902 1.0361 1.0361-.51805 1.94269V-1.94269C1.0361-1.0361 3.28098-.25902 4.66248 0"/>
<path transform="matrix(1.00003,0,0,-1.00005,4.885582,85.24666)" stroke-width=".79701" stroke-linecap="butt" stroke-miterlimit="10" stroke-linejoin="miter" fill="none" stroke="#000000" d="M113.38724 56.69362 60.07372 6.04591"/>
<path transform="matrix(-.7249818,.6887344,.6887207,.72499629,64.961109,79.200428)" d="M4.66248 0C3.28098 .25902 1.0361 1.0361-.51805 1.94269V-1.94269C1.0361-1.0361 3.28098-.25902 4.66248 0"/>
<path transform="matrix(1.00003,0,0,-1.00005,4.885582,85.24666)" stroke-width=".79701" stroke-linecap="butt" stroke-miterlimit="10" stroke-linejoin="miter" fill="none" stroke="#000000" d="M141.73404 56.69362 67.33727 5.47847"/>
<path transform="matrix(-.82367476,.5670283,.567017,.8236911,72.22488,79.767917)" d="M4.66248 0C3.28098 .25902 1.0361 1.0361-.51805 1.94269V-1.94269C1.0361-1.0361 3.28098-.25902 4.66248 0"/>
<path transform="matrix(1.00003,0,0,-1.00005,4.885582,85.24666)" stroke-width=".79701" stroke-linecap="butt" stroke-miterlimit="10" stroke-linejoin="miter" fill="none" stroke="#000000" d="M170.08086 56.69362 73.5602 5.0348"/>
<path transform="matrix(-.8816665,.47187359,.4718642,.88168409,78.448,80.211589)" d="M4.66248 0C3.28098 .25902 1.0361 1.0361-.51805 1.94269V-1.94269C1.0361-1.0361 3.28098-.25902 4.66248 0"/>
<path transform="matrix(1.00003,0,0,-1.00005,4.885582,85.24666)" stroke-width=".79701" stroke-linecap="butt" stroke-miterlimit="10" stroke-linejoin="miter" fill="none" stroke="#ff0000" d="M0 0V-49.19627"/>
<path transform="matrix(0,1.00005,1.00003,0,4.885582,134.44539)" d="M4.66248 0C3.28098 .25902 1.0361 1.0361-.51805 1.94269V-1.94269C1.0361-1.0361 3.28098-.25902 4.66248 0" fill="#ff0000"/>
<path transform="matrix(1.00003,0,0,-1.00005,4.885582,85.24666)" stroke-width=".79701" stroke-linecap="butt" stroke-miterlimit="10" stroke-linejoin="miter" fill="none" stroke="#ff0000" d="M28.3468 0 23.16548-49.22195"/>
<path transform="matrix(-.10466314,.9945397,.9945199,.10466523,28.051779,134.47107)" d="M4.66248 0C3.28098 .25902 1.0361 1.0361-.51805 1.94269V-1.94269C1.0361-1.0361 3.28098-.25902 4.66248 0" fill="#ff0000"/>
<path transform="matrix(1.00003,0,0,-1.00005,4.885582,85.24666)" stroke-width=".79701" stroke-linecap="butt" stroke-miterlimit="10" stroke-linejoin="miter" fill="none" stroke="#ff0000" d="M39.9691 0 32.65976-49.247"/>
<path transform="matrix(-.14679441,.9891694,.98914977,.14679733,37.54632,134.49613)" d="M4.66248 0C3.28098 .25902 1.0361 1.0361-.51805 1.94269V-1.94269C1.0361-1.0361 3.28098-.25902 4.66248 0" fill="#ff0000"/>
<path transform="matrix(1.00003,0,0,-1.00005,4.885582,85.24666)" stroke-width=".79701" stroke-linecap="butt" stroke-miterlimit="10" stroke-linejoin="miter" fill="none" stroke="#ff0000" d="M49.03984 0 40.06728-49.2719"/>
<path transform="matrix(-.17914538,.98382917,.9838096,.17914894,44.954069,134.52103)" d="M4.66248 0C3.28098 .25902 1.0361 1.0361-.51805 1.94269V-1.94269C1.0361-1.0361 3.28098-.25902 4.66248 0" fill="#ff0000"/>
<path transform="matrix(1.00003,0,0,-1.00005,4.885582,85.24666)" stroke-width=".79701" stroke-linecap="butt" stroke-miterlimit="10" stroke-linejoin="miter" fill="none" stroke="#ff0000" d="M56.69362 0 46.31555-49.29637"/>
<path transform="matrix(-.20601619,.97857889,.9785594,.2060203,51.202527,134.54549)" d="M4.66248 0C3.28098 .25902 1.0361 1.0361-.51805 1.94269V-1.94269C1.0361-1.0361 3.28098-.25902 4.66248 0" fill="#ff0000"/>
<path transform="matrix(1.00003,0,0,-1.00005,4.885582,85.24666)" stroke-width=".79701" stroke-linecap="butt" stroke-miterlimit="10" stroke-linejoin="miter" fill="none" stroke="#ff0000" d="M63.497 0 51.86761-49.32092"/>
<path transform="matrix(-.2294869,.97331866,.97329929,.22949146,56.75475,134.57003)" d="M4.66248 0C3.28098 .25902 1.0361 1.0361-.51805 1.94269V-1.94269C1.0361-1.0361 3.28098-.25902 4.66248 0" fill="#ff0000"/>
<path transform="matrix(1.00003,0,0,-1.00005,4.885582,85.24666)" stroke-width=".79701" stroke-linecap="butt" stroke-miterlimit="10" stroke-linejoin="miter" fill="none" stroke="#ff0000" d="M69.44957 0 56.72404-49.34427"/>
<path transform="matrix(-.2496875,.9683083,.9682891,.24969247,61.61133,134.59337)" d="M4.66248 0C3.28098 .25902 1.0361 1.0361-.51805 1.94269V-1.94269C1.0361-1.0361 3.28098-.25902 4.66248 0" fill="#ff0000"/>
<path transform="matrix(1.00003,0,0,-1.00005,4.885582,85.24666)" d="M2.98883 0C2.98883 1.6507 1.6507 2.98883 0 2.98883-1.6507 2.98883-2.98883 1.6507-2.98883 0-2.98883-1.6507-1.6507-2.98883 0-2.98883 1.6507-2.98883 2.98883-1.6507 2.98883 0ZM0 0"/>
<path transform="matrix(1.00003,0,0,-1.00005,4.885582,85.24666)" d="M31.33563 0C31.33563 1.6507 29.99751 2.98883 28.3468 2.98883 26.69609 2.98883 25.35797 1.6507 25.35797 0 25.35797-1.6507 26.69609-2.98883 28.3468-2.98883 29.99751-2.98883 31.33563-1.6507 31.33563 0ZM28.3468 0"/>
<path transform="matrix(1.00003,0,0,-1.00005,4.885582,85.24666)" d="M42.95793 0C42.95793 1.6507 41.6198 2.98883 39.9691 2.98883 38.31839 2.98883 36.98027 1.6507 36.98027 0 36.98027-1.6507 38.31839-2.98883 39.9691-2.98883 41.6198-2.98883 42.95793-1.6507 42.95793 0ZM39.9691 0"/>
<path transform="matrix(1.00003,0,0,-1.00005,4.885582,85.24666)" d="M52.02867 0C52.02867 1.6507 50.69055 2.98883 49.03984 2.98883 47.38913 2.98883 46.05101 1.6507 46.05101 0 46.05101-1.6507 47.38913-2.98883 49.03984-2.98883 50.69055-2.98883 52.02867-1.6507 52.02867 0ZM49.03984 0"/>
<path transform="matrix(1.00003,0,0,-1.00005,4.885582,85.24666)" d="M59.68245 0C59.68245 1.6507 58.34431 2.98883 56.69362 2.98883 55.04291 2.98883 53.70479 1.6507 53.70479 0 53.70479-1.6507 55.04291-2.98883 56.69362-2.98883 58.34431-2.98883 59.68245-1.6507 59.68245 0ZM56.69362 0"/>
<path transform="matrix(1.00003,0,0,-1.00005,4.885582,85.24666)" d="M66.48582 0C66.48582 1.6507 65.1477 2.98883 63.497 2.98883 61.8463 2.98883 60.50816 1.6507 60.50816 0 60.50816-1.6507 61.8463-2.98883 63.497-2.98883 65.1477-2.98883 66.48582-1.6507 66.48582 0ZM63.497 0"/>
<path transform="matrix(1.00003,0,0,-1.00005,4.885582,85.24666)" d="M72.4384 0C72.4384 1.6507 71.10028 2.98883 69.44957 2.98883 67.79887 2.98883 66.46074 1.6507 66.46074 0 66.46074-1.6507 67.79887-2.98883 69.44957-2.98883 71.10028-2.98883 72.4384-1.6507 72.4384 0ZM69.44957 0"/>
<path transform="matrix(1.00003,0,0,-1.00005,4.885582,85.24666)" stroke-width=".79701" stroke-linecap="butt" stroke-miterlimit="10" stroke-linejoin="miter" fill="none" stroke="#000000" d=""/>
<use data-text="&#x2206;" xlink:href="#font_2_1" transform="matrix(9.962899,0,0,-9.963098,40.408647,9.288872)"/>
<use data-text="x" xlink:href="#font_1_3" transform="matrix(9.962899,0,0,-9.963098,48.7109,9.288872)"/>
<use data-text="&#xfffd;" xlink:href="#font_3_1" transform="matrix(9.962899,0,0,-9.963098,33.233438,18.25531)"/>
<path transform="matrix(1.00003,0,0,-1.00005,-57.6363,-57.88849)" stroke-width="1.1955" stroke-linecap="butt" stroke-miterlimit="10" stroke-linejoin="miter" fill="none" stroke="#000000" d="M95.35-75.542H100.557"/>
<use data-text="&#xfffd;" xlink:href="#font_3_4" transform="matrix(9.962899,0,0,-9.963098,42.92372,18.25531)"/>
<use data-text="&#xfffd;" xlink:href="#font_3_3" transform="matrix(9.962899,0,0,-9.963098,47.40703,18.25531)"/>
<path transform="matrix(1.00003,0,0,-1.00005,-57.6363,-57.88849)" stroke-width="1.1955" stroke-linecap="butt" stroke-miterlimit="10" stroke-linejoin="miter" fill="none" stroke="#000000" d="M109.523-75.542H114.73"/>
<use data-text="&#xfffd;" xlink:href="#font_3_2" transform="matrix(9.962899,0,0,-9.963098,57.097154,18.25531)"/>
<path transform="matrix(1.00003,0,0,-1.00005,4.885582,85.24666)" stroke-width=".79701" stroke-linecap="butt" stroke-miterlimit="10" stroke-linejoin="miter" fill="none" stroke="#000000" d=""/>
<use data-text="&#xfffd;" xlink:href="#font_3_3" transform="matrix(9.962899,0,0,-9.963098,29.936333,98.684329)"/>
<use data-text="&#xfffd;" xlink:href="#font_3_2" transform="matrix(9.962899,0,0,-9.963098,34.419633,98.684329)"/>
<use data-text="&#xfffd;" xlink:href="#font_3_1" transform="matrix(9.962899,0,0,-9.963098,38.90294,98.684329)"/>
<use data-text="&#xfffd;" xlink:href="#font_3_4" transform="matrix(9.962899,0,0,-9.963098,43.386247,98.684329)"/>
<use data-text="&#x2206;" xlink:href="#font_2_1" transform="matrix(9.962899,0,0,-9.963098,32.196405,110.0419)"/>
<use data-text="g" xlink:href="#font_1_2" transform="matrix(9.962899,0,0,-9.963098,40.49965,110.0419)"/>
<path transform="matrix(1.00003,0,0,-1.00005,4.885582,85.24666)" stroke-width=".79701" stroke-linecap="butt" stroke-miterlimit="10" stroke-linejoin="miter" fill="none" stroke="#000000" d=""/>
<use data-text="&#xfffd;" xlink:href="#font_3_3" transform="matrix(9.962899,0,0,-9.963098,21.432076,155.38117)"/>
<use data-text="&#xfffd;" xlink:href="#font_3_2" transform="matrix(9.962899,0,0,-9.963098,25.915375,155.38117)"/>
<use data-text="&#xfffd;" xlink:href="#font_3_1" transform="matrix(9.962899,0,0,-9.963098,30.398682,155.38117)"/>
<use data-text="&#xfffd;" xlink:href="#font_3_4" transform="matrix(9.962899,0,0,-9.963098,34.88199,155.38117)"/>
<use data-text="&#x2206;" xlink:href="#font_2_1" transform="matrix(9.962899,0,0,-9.963098,23.272126,166.73874)"/>
<use data-text="f" xlink:href="#font_1_1" transform="matrix(9.962899,0,0,-9.963098,31.574379,166.73874)"/>
</svg>
