<svg xmlns="http://www.w3.org/2000/svg" xmlns:xlink="http://www.w3.org/1999/xlink" version="1.1" width="55pt" height="122pt" viewBox="0 0 55 122">
<defs>
<path id="font_1_1" d="M.4269867 .6066284C.43399049 .63461306 .43798829 .64060977 .44999696 .6436157 .45899964 .6456146 .49198915 .6456146 .5130005 .6456146 .6139984 .6456146 .6589966 .6416168 .6589966 .56365969 .6589966 .54867556 .6549988 .50968936 .651001 .4837036 .6499939 .4797058 .647995 .4677124 .647995 .46472169 .647995 .45872499 .651001 .45173646 .6599884 .45173646 .67099 .45173646 .6729889 .45973207 .6749878 .4747162L.70199587 .64860537C.7029877 .65260317 .70399478 .6626129 .70399478 .66560366 .70399478 .6766052 .69400027 .6766052 .6769867 .6766052H.12199402C.09799194 .6766052 .09700012 .6756134 .08999634 .6566162L.02999878 .4807129C.0289917 .478714 .023986817 .46472169 .023986817 .46272279 .023986817 .45672608 .0289917 .45173646 .035995485 .45173646 .04598999 .45173646 .04699707 .45672608 .052993776 .4727173 .10699463 .6276245 .1329956 .6456146 .2809906 .6456146H.31999208C.34799195 .6456146 .34799195 .6416168 .34799195 .6336212 .34799195 .6276245 .34498597 .6156311 .34399415 .6126251L.20999146 .07896423C.20098877 .041992189 .19799805 .0309906 .09098816 .0309906 .054992677 .0309906 .04899597 .0309906 .04899597 .011993408 .04899597 0 .05999756 0 .06599426 0 .09298706 0 .12098694 .0019989014 .147995 .0019989014 .17599488 .0019989014 .20498657 .0029907227 .23298645 .0029907227 .26098634 .0029907227 .2889862 .0019989014 .31599427 .0019989014 .34498597 .0019989014 .375 0 .40299989 0 .41299439 0 .4249878 0 .4249878 .019989014 .4249878 .0309906 .4169922 .0309906 .3909912 .0309906 .3659973 .0309906 .35299684 .0309906 .32699586 .032989503 .2979889 .035995485 .2899933 .038986207 .2899933 .054977418 .2899933 .05596924 .2899933 .06097412 .2939911 .07595825L.4269867 .6066284Z"/>
<path id="font_1_4" d="M.48599244 .38136292C.48999024 .39537049 .48999024 .39736939 .48999024 .40437318 .48999024 .42237855 .47599793 .43138124 .46099855 .43138124 .45098878 .43138124 .43499757 .42536927 .42599488 .41036988 .42399598 .405365 .41600038 .37435914 .4119873 .35635377 .40499879 .33035279 .397995 .30334474 .3919983 .27633668L.34700013 .09628296C.34298707 .08126831 .2999878 .011245728 .23399353 .011245728 .18299866 .011245728 .17199707 .055267335 .17199707 .0922699 .17199707 .1382904 .18899536 .20030213 .22299195 .28833009 .23899842 .3293457 .24299622 .3403473 .24299622 .36035157 .24299622 .405365 .21099854 .4423828 .16099549 .4423828 .06599426 .4423828 .0289917 .29733277 .0289917 .28833009 .0289917 .27833558 .038986207 .27833558 .040985109 .27833558 .050994874 .27833558 .051986696 .28033448 .056991579 .29634095 .083999637 .3903656 .12399292 .42037965 .1579895 .42037965 .1659851 .42037965 .18299866 .42037965 .18299866 .3883667 .18299866 .36335755 .17298889 .3373413 .1659851 .31834413 .12599182 .21231079 .10798645 .1552887 .10798645 .10827637 .10798645 .019256592 .17098999-.0107421879 .22999573-.0107421879 .2689972-.0107421879 .30299378 .0062561037 .33099366 .03425598 .31799317-.017745972 .30599977-.06674194 .2659912-.11973572 .23999024-.15385437 .20199585-.18309021 .1559906-.18309021 .14199829-.18309021 .09700012-.18005371 .07998657-.14074707 .09599304-.14074707 .10899353-.14074707 .12298584-.1287384 .1329956-.11973572 .14299011-.10673523 .14299011-.08773804 .14299011-.056747438 .115997318-.052734376 .10598755-.052734376 .08299255-.052734376 .049987794-.068740848 .049987794-.11773682 .049987794-.16796875 .09399414-.20507813 .1559906-.20507813 .25898744-.20507813 .3619995-.11373901 .3899994-.00074768069L.48599244 .38136292Z"/>
<path id="font_1_3" d="M.33399964 .30233766C.33999635 .32835389 .36299134 .42037965 .43299867 .42037965 .43798829 .42037965 .46199037 .42037965 .48298646 .40734864 .45498658 .402359 .43499757 .37734986 .43499757 .35334779 .43499757 .33735658 .44599916 .31835938 .47299195 .31835938 .49499513 .31835938 .5269928 .3363495 .5269928 .37635804 .5269928 .42837525 .46798707 .4423828 .43399049 .4423828 .37599183 .4423828 .34098817 .38935853 .32899476 .36634828 .3039856 .43237306 .25 .4423828 .22099304 .4423828 .116989139 .4423828 .05999756 .3133545 .05999756 .28834535 .05999756 .27833558 .069992069 .27833558 .07199097 .27833558 .07998657 .27833558 .08299255 .28033448 .084991458 .28933717 .11898804 .39535523 .18499756 .42037965 .21899414 .42037965 .23799134 .42037965 .272995 .4113617 .272995 .35334779 .272995 .32235719 .2559967 .25532533 .21899414 .11528015 .20298767 .053268434 .16799927 .011245728 .12399292 .011245728 .117996219 .011245728 .09498596 .011245728 .07398987 .024276734 .09899902 .029266358 .12098694 .05027771 .12098694 .07827759 .12098694 .105270389 .09899902 .11328125 .083999637 .11328125 .053985597 .11328125 .0289917 .08728027 .0289917 .055267335 .0289917 .009246826 .07899475-.0107421879 .12298584-.0107421879 .18899536-.0107421879 .22499085 .059280397 .22799683 .0652771 .23999024 .028274537 .27598573-.0107421879 .33599855-.0107421879 .43899537-.0107421879 .49598695 .118270877 .49598695 .14328003 .49598695 .1532898 .4869995 .1532898 .48399354 .1532898 .47499085 .1532898 .47299195 .14929199 .47099305 .14228821 .43798829 .03527832 .36999513 .011245728 .33799745 .011245728 .29899598 .011245728 .2829895 .043273927 .2829895 .07727051 .2829895 .09927368 .2889862 .121276859 .2999878 .16529846L.33399964 .30233766Z"/>
<path id="font_1_2" d="M.20599365 .3996582H.2999878C.31999208 .3996582 .32998658 .3996582 .32998658 .41966249 .32998658 .43066407 .31999208 .43066407 .3019867 .43066407H.21398926C.25 .5724945 .25498963 .59246829 .25498963 .59846499 .25498963 .61546328 .24299622 .62545779 .22599793 .62545779 .22299195 .62545779 .19499207 .62446597 .18598938 .58947756L.14698792 .43066407H.052993776C.032989503 .43066407 .022994996 .43066407 .022994996 .4116516 .022994996 .3996582 .0309906 .3996582 .050994874 .3996582H.13899231C.066986087 .11608887 .06298828 .099121097 .06298828 .08114624 .06298828 .02722168 .100997928-.0107421879 .15499878-.0107421879 .25698854-.0107421879 .31399537 .13505554 .31399537 .14305115 .31399537 .1530304 .30599977 .1530304 .3019867 .1530304 .29299928 .1530304 .2919922 .15003968 .2869873 .13905335 .24398804 .035217287 .19099427 .011245728 .15699768 .011245728 .13598633 .011245728 .12599182 .024230957 .12599182 .057174684 .12599182 .08114624 .12799073 .088134769 .13198853 .10510254L.20599365 .3996582Z"/>
<path id="font_2_1" d="M.5249939 .33813478C.5109863 .3960724 .46598817 .4560547 .37199403 .4560547 .23199463 .4560547 .115997318 .35112 .07998657 .2612152 .07398987 .24423218 .05999756 .20327759 .05999756 .16331482 .05999756 .09437561 .11399841-.01953125 .269989-.01953125 .5289917-.01953125 .6339874 .30317689 .6339874 .4450531 .6339874 .61631777 .5219879 .7138672 .3880005 .7138672 .22499085 .7138672 .17999268 .58436587 .17999268 .55336 .17999268 .5453644 .18499756 .5173645 .21998596 .5173645 .25498963 .5173645 .27598573 .54837039 .27598573 .57237246 .27598573 .59936526 .2559967 .6083679 .23699951 .6103668 .2869873 .6848602 .36898805 .6848602 .38598634 .6848602 .46099855 .6848602 .5499878 .63816836 .5499878 .4962616 .5499878 .4530487 .54499819 .4180603 .526001 .33813478H.5249939M.27198792 .012466431C.15899658 .012466431 .1459961 .09738159 .1459961 .12834168 .1459961 .16731262 .17298889 .265213 .18299866 .29019166 .20098877 .33613587 .2630005 .42803956 .37599183 .42803956 .47299195 .42803956 .5049896 .35212709 .5049896 .2921753 .5049896 .22525025 .43998719 .012466431 .27198792 .012466431Z"/>
<path id="font_2_2" d="M.48599244 .6046295C.49299623 .63360598 .49499513 .63661196 .5169983 .63861086 .5219879 .63960269 .5569916 .63960269 .57699587 .63960269 .6380005 .63960269 .6639862 .63960269 .68899539 .63160708 .73399356 .61761477 .73599246 .5886383 .73599246 .5526581 .73599246 .53666689 .73599246 .52368167 .72898867 .4717102L.72698977 .46072389C.72698977 .45072938 .73399356 .4457245 .74398806 .4457245 .7589874 .4457245 .7609863 .45472718 .7630005 .47071839L.7899933 .66160586C.7899933 .6756134 .7779999 .6756134 .7599945 .6756134H.14498902C.11999512 .6756134 .117996219 .6756134 .11099243 .65460208L.04798889 .4777069C.04699707 .4737091 .042999269 .46472169 .042999269 .4597168 .042999269 .455719 .04499817 .4457245 .05999756 .4457245 .07299805 .4457245 .07499695 .45072938 .08099365 .4697113 .13899231 .62960818 .17199707 .63960269 .32398988 .63960269H.3659973C.3959961 .63960269 .39698792 .63861086 .39698792 .62960818 .39698792 .62861636 .39698792 .62361147 .3929901 .6086273L.26098634 .082962039C.2519989 .04598999 .24899292 .035995485 .14399719 .035995485 .10798645 .035995485 .09899902 .035995485 .09899902 .01399231 .09899902 .010986328 .100997928 0 .115997318 0 .14399719 0 .17399597 .0029907227 .20199585 .0029907227 .22999573 .0029907227 .2599945 .0039978029 .28799439 .0039978029 .31599427 .0039978029 .34999085 .0039978029 .37799073 .0029907227 .40499879 .0019989014 .43499757 0 .46199037 0 .46998597 0 .4850006 0 .4850006 .021987915 .4850006 .035995485 .47499085 .035995485 .44400025 .035995485 .4249878 .035995485 .40499879 .036987306 .38598634 .037994386 .35198976 .040985109 .34999085 .04498291 .34999085 .05697632 .34999085 .0639801 .34999085 .065979007 .35398866 .07997131L.48599244 .6046295Z"/>
<path id="font_2_5" d="M.55599978 .37738038C.55999758 .39138795 .55999758 .39338685 .55999758 .3993988 .55999758 .41940309 .5439911 .43139649 .5269928 .43139649 .5159912 .43139649 .49699403 .4263916 .48599244 .4073944 .48298646 .4013977 .47499085 .36938478 .46998597 .34936524L.44898988 .2663269C.44299317 .24232483 .4119873 .11627197 .40899659 .105270389 .4079895 .105270389 .3639984 .018234253 .28599549 .018234253 .21798706 .018234253 .21798706 .08325195 .21798706 .101257327 .21798706 .1552887 .24099732 .2183075 .2709961 .29534913 .2829895 .32736207 .28799439 .33937074 .28799439 .35636903 .28799439 .40438844 .24699402 .44140626 .19299317 .44140626 .09199524 .44140626 .04699707 .3053589 .04699707 .28834535 .04699707 .27534486 .06098938 .27534486 .06399536 .27534486 .07798767 .27534486 .07899475 .28033448 .08198547 .29135133 .10699463 .3743744 .1499939 .4133911 .18998719 .4133911 .20698548 .4133911 .21499634 .40238954 .21499634 .37838746 .21499634 .3553772 .20599365 .33335877 .20098877 .32035829 .15299988 .19830323 .14299011 .1612854 .14299011 .117263797 .14299011 .1002655 .14299011 .053237916 .18199158 .021224976 .21299744-.004776001 .25498963-.009765625 .28199769-.009765625 .32199098-.009765625 .35798646 .0052337648 .3909912 .035232545 .37799073-.01977539 .36698915-.061782838 .32499696-.11178589 .2979889-.14279175 .2579956-.17610169 .20498657-.17610169 .19799805-.17610169 .15098572-.17610169 .12998963-.14279175 .18399048-.13679505 .18399048-.08879089 .18399048-.08778381 .18399048-.055786134 .15499878-.04978943 .14498902-.04978943 .11999512-.04978943 .08699036-.0697937 .08699036-.11578369 .08699036-.1670227 .1349945-.20410156 .20599365-.20410156 .30699159-.20410156 .42999269-.12579346 .46099855-.00077819827L.55599978 .37738038Z"/>
<path id="font_2_4" d="M.24899292 .10601807C.23899842 .072021488 .20599365 .018234253 .15499878 .018234253 .1519928 .018234253 .12199402 .018234253 .100997928 .03215027 .14199829 .04508972 .14498902 .08100891 .14498902 .087020877 .14498902 .10900879 .12799073 .12402344 .10499573 .12402344 .07699585 .12402344 .04798889 .10002136 .04798889 .0630188 .04798889 .01322937 .10398865-.009765625 .15299988-.009765625 .19898987-.009765625 .23999024 .019226075 .2649994 .061019899 .2889862 .008224487 .34399415-.009765625 .38398744-.009765625 .49899293-.009765625 .55999758 .11502075 .55999758 .14305115 .55999758 .15608216 .5469971 .15608216 .5439911 .15608216 .5299988 .15608216 .5289917 .15107727 .5249939 .13905335 .5039978 .07002258 .44400025 .018234253 .3880005 .018234253 .34799195 .018234253 .32699586 .04508972 .32699586 .08302307 .32699586 .10900879 .35099793 .20018006 .3789978 .31140138 .39898683 .38841249 .44400025 .4133911 .47698976 .4133911 .47898866 .4133911 .5099945 .4133911 .5309906 .39941407 .49899293 .39041139 .4869995 .3624115 .4869995 .34440614 .4869995 .32240296 .5039978 .30740357 .5269928 .30740357 .5499878 .30740357 .58299258 .32640077 .58299258 .3684082 .58299258 .4243927 .5189972 .44140626 .47898866 .44140626 .42900086 .44140626 .3889923 .4084015 .36698915 .3704071 .34899903 .4113922 .30299378 .44140626 .24699402 .44140626 .1349945 .44140626 .070999149 .31840516 .070999149 .2883606 .070999149 .27534486 .084991458 .27534486 .08799744 .27534486 .100997928 .27534486 .101989749 .27934266 .10699463 .29237367 .13198853 .3704071 .19499207 .4133911 .24398804 .4133911 .2769928 .4133911 .3039856 .395401 .3039856 .3474121 .3039856 .32740785 .2919922 .27734376 .2829895 .24327088L.24899292 .10601807Z"/>
<path id="font_2_3" d="M.24598694 .39465333H.34799195C.36698915 .39465333 .37998963 .39465333 .37998963 .4166565 .37998963 .43066407 .36698915 .43066407 .34999085 .43066407H.25498963L.2919922 .57850649C.29299928 .58351138 .29499818 .588501 .29499818 .5924988 .29499818 .6104889 .2809906 .6244812 .26098634 .6244812 .23599243 .6244812 .22099304 .6074829 .21398926 .58151248 .20698548 .5565338 .21998596 .6044922 .17599488 .43066407H.07398987C.054992677 .43066407 .041992189 .43066407 .041992189 .4086609 .041992189 .39465333 .053985597 .39465333 .07199097 .39465333H.16699219L.10798645 .15901184C.101989749 .13404846 .09298706 .098098758 .09298706 .085128787 .09298706 .0262146 .14299011-.009765625 .19999695-.009765625 .31098939-.009765625 .37399293 .13005066 .37399293 .14303589 .37399293 .15602112 .36099244 .15602112 .35798646 .15602112 .34599305 .15602112 .34498597 .15402222 .33699037 .13703919 .30899049 .074142459 .2579956 .018234253 .20298767 .018234253 .18199158 .018234253 .16799927 .031204224 .16799927 .06715393 .16799927 .07713318 .17199707 .098098758 .17399597 .10809326L.24598694 .39465333Z"/>
</defs>
<path transform="matrix(1,0,0,-1,27.418999,96.835)" stroke-width="1.49442" stroke-linecap="butt" stroke-miterlimit="10" stroke-linejoin="miter" fill="none" stroke="#0074c8" d="M0 85.04042-21.2601 42.5202"/>
<use data-text="T" xlink:href="#font_1_1" transform="matrix(9.9626,0,0,-9.9626,23.816002,7.7269976)" fill="#0074c8"/>
<path transform="matrix(1,0,0,-1,27.418999,96.835)" stroke-width="1.49442" stroke-linecap="butt" stroke-miterlimit="10" stroke-linejoin="miter" fill="none" stroke="#0074c8" d="M0 85.04042 21.2601 42.5202"/>
<use data-text="y" xlink:href="#font_1_4" transform="matrix(9.9626,0,0,-9.9626,46.058,62.672)" fill="#0074c8"/>
<path transform="matrix(1,0,0,-1,27.418999,96.835)" stroke-width=".79701" stroke-linecap="butt" stroke-miterlimit="10" stroke-linejoin="miter" fill="none" stroke="#0074c8" d=""/>
<use data-text="x" xlink:href="#font_1_3" transform="matrix(9.9626,0,0,-9.9626,3.3119965,62.322999)" fill="#0074c8"/>
<path transform="matrix(1,0,0,-1,27.418999,96.835)" stroke-width="1.49442" stroke-linecap="butt" stroke-miterlimit="10" stroke-linejoin="miter" fill="none" stroke="#0074c8" d="M-21.2601 29.764 0-12.75616"/>
<use data-text="t" xlink:href="#font_1_2" transform="matrix(9.9626,0,0,-9.9626,25.619996,119.787)" fill="#0074c8"/>
<path transform="matrix(1,0,0,-1,27.418999,96.835)" stroke-width="1.49442" stroke-linecap="butt" stroke-miterlimit="10" stroke-linejoin="miter" fill="none" stroke="#0074c8" d="M21.2601 29.764 0-12.75616"/>
<path transform="matrix(1,0,0,-1,27.418999,96.835)" stroke-width=".79701" stroke-linecap="butt" stroke-miterlimit="10" stroke-linejoin="miter" fill="none" stroke="#000000" d="M42.5202 42.5202V42.5202"/>
<use data-text="&#x2202;" xlink:href="#font_2_1" transform="matrix(6.9738,0,0,-6.9738,42.962999,25.805)"/>
<use data-text="T" xlink:href="#font_2_2" transform="matrix(6.9738,0,0,-6.9738,47.642419,25.805)"/>
<path transform="matrix(1,0,0,-1,-71.651,-55.108)" stroke-width=".3985" stroke-linecap="butt" stroke-miterlimit="10" stroke-linejoin="miter" fill="none" stroke="#000000" d="M114.614-82.345H125.076"/>
<use data-text="&#x2202;" xlink:href="#font_2_1" transform="matrix(6.9738,0,0,-6.9738,43.707,33.163003)"/>
<use data-text="y" xlink:href="#font_2_5" transform="matrix(6.9738,0,0,-6.9738,48.38642,33.163003)"/>
<path transform="matrix(1,0,0,-1,27.418999,96.835)" stroke-width=".79701" stroke-linecap="butt" stroke-miterlimit="10" stroke-linejoin="miter" fill="none" stroke="#000000" d="M42.5202 42.5202V42.5202"/>
<use data-text="&#x2202;" xlink:href="#font_2_1" transform="matrix(6.9738,0,0,-6.9738,1.4120026,26.483002)"/>
<use data-text="T" xlink:href="#font_2_2" transform="matrix(6.9738,0,0,-6.9738,6.091423,26.483002)"/>
<path transform="matrix(1,0,0,-1,-113.201999,-54.43)" stroke-width=".3985" stroke-linecap="butt" stroke-miterlimit="10" stroke-linejoin="miter" fill="none" stroke="#000000" d="M114.614-82.345H125.076"/>
<use data-text="&#x2202;" xlink:href="#font_2_1" transform="matrix(6.9738,0,0,-6.9738,2.0420075,33.841005)"/>
<use data-text="x" xlink:href="#font_2_4" transform="matrix(6.9738,0,0,-6.9738,6.721428,33.841005)"/>
<path transform="matrix(1,0,0,-1,27.418999,96.835)" stroke-width=".79701" stroke-linecap="butt" stroke-miterlimit="10" stroke-linejoin="miter" fill="none" stroke="#000000" d="M42.5202 42.5202V42.5202"/>
<use data-text="&#x2202;" xlink:href="#font_2_1" transform="matrix(6.9738,0,0,-6.9738,2.671997,87.074008)"/>
<use data-text="x" xlink:href="#font_2_4" transform="matrix(6.9738,0,0,-6.9738,7.3514177,87.074008)"/>
<path transform="matrix(1,0,0,-1,-111.942,6.161)" stroke-width=".3985" stroke-linecap="butt" stroke-miterlimit="10" stroke-linejoin="miter" fill="none" stroke="#000000" d="M114.614-82.345H123.815"/>
<use data-text="&#x2202;" xlink:href="#font_2_1" transform="matrix(6.9738,0,0,-6.9738,3.4259949,94.43201)"/>
<use data-text="t" xlink:href="#font_2_3" transform="matrix(6.9738,0,0,-6.9738,8.105415,94.43201)"/>
<path transform="matrix(1,0,0,-1,27.418999,96.835)" stroke-width=".79701" stroke-linecap="butt" stroke-miterlimit="10" stroke-linejoin="miter" fill="none" stroke="#000000" d="M42.5202 42.5202V42.5202"/>
<use data-text="&#x2202;" xlink:href="#font_2_1" transform="matrix(6.9738,0,0,-6.9738,42.962999,86.812999)"/>
<use data-text="y" xlink:href="#font_2_5" transform="matrix(6.9738,0,0,-6.9738,47.642419,86.812999)"/>
<path transform="matrix(1,0,0,-1,-71.651,6.422)" stroke-width=".3985" stroke-linecap="butt" stroke-miterlimit="10" stroke-linejoin="miter" fill="none" stroke="#000000" d="M114.614-82.345H123.588"/>
<use data-text="&#x2202;" xlink:href="#font_2_1" transform="matrix(6.9738,0,0,-6.9738,43.603998,94.693)"/>
<use data-text="t" xlink:href="#font_2_3" transform="matrix(6.9738,0,0,-6.9738,48.283418,94.693)"/>
</svg>
