<svg xmlns="http://www.w3.org/2000/svg" xmlns:xlink="http://www.w3.org/1999/xlink" version="1.1" width="327pt" height="183pt" viewBox="0 0 327 183">
<defs>
<path id="font_1_4" d="M.5369873 .5947571C.522995 .5818329 .48999024 .55400088 .48999024 .5361023 .48999024 .5261078 .5 .516098 .5099945 .516098 .5189972 .516098 .5239868 .5231018 .5289917 .5290985 .54100039 .5440674 .56399539 .5718994 .60798647 .59376528 .61499026 .59776309 .625 .6027527 .625 .61476138 .625 .62475588 .6179962 .62976077 .61099246 .6347656 .58898928 .6497803 .5779877 .66781619 .56999209 .69184878 .56799319 .7008667 .56399539 .7138672 .5499878 .7138672 .5359955 .7138672 .5299988 .7008667 .5299988 .69285586 .5299988 .68785098 .5379944 .65579226 .55400088 .6347656H.21699524C.19999695 .6347656 .18199158 .6347656 .18199158 .61476138 .18199158 .5947571 .19999695 .5947571 .21699524 .5947571H.5369873Z"/>
<path id="font_1_3" d="M.46798707 .37236024C.46798707 .42637635 .44198609 .4423828 .42399598 .4423828 .39898683 .4423828 .375 .41636659 .375 .3943634 .375 .38136292 .37998963 .3753662 .3909912 .36434938 .4119873 .3443451 .4249878 .31834413 .4249878 .28233338 .4249878 .24032593 .3639984 .011245728 .24699402 .011245728 .19599915 .011245728 .17298889 .04626465 .17298889 .09828186 .17298889 .15429688 .19999695 .22731018 .23098755 .31033326 .23799134 .3273468 .24299622 .34135438 .24299622 .36035157 .24299622 .405365 .21099854 .4423828 .16099549 .4423828 .066986087 .4423828 .0289917 .29733277 .0289917 .28833009 .0289917 .27833558 .038986207 .27833558 .040985109 .27833558 .050994874 .27833558 .051986696 .28033448 .056991579 .29634095 .085998538 .39736939 .1289978 .42037965 .1579895 .42037965 .1659851 .42037965 .18299866 .42037965 .18299866 .3883667 .18299866 .36335755 .17298889 .3363495 .1659851 .31834413 .12199402 .20230103 .10899353 .15629578 .10899353 .11328125 .10899353 .0052490236 .19699097-.0107421879 .24299622-.0107421879 .41099549-.0107421879 .46798707 .32034303 .46798707 .37236024Z"/>
<path id="font_2_1" d="M.6589966 .23046875C.6759949 .23046875 .69400027 .23046875 .69400027 .25045777 .69400027 .27046205 .6759949 .27046205 .6589966 .27046205H.117996219C.100997928 .27046205 .08299255 .27046205 .08299255 .25045777 .08299255 .23046875 .100997928 .23046875 .117996219 .23046875H.6589966Z"/>
<path id="font_2_3" d="M.7799988 .660614C.7819977 .66360476 .7849884 .6706085 .7849884 .6746063 .7849884 .6816101 .7839966 .6826172 .7609863 .6826172H.070999149C.04798889 .6826172 .04699707 .6816101 .04699707 .6746063 .04699707 .6706085 .049987794 .66360476 .051986696 .660614L.3889923-.014205933C.3959961-.02720642 .39898683-.033203126 .41600038-.033203126 .43299867-.033203126 .43598939-.02720642 .44299317-.014205933L.7799988 .660614M.17098999 .61061099H.7200012L.44599916 .060775758 .17098999 .61061099Z"/>
<path id="font_3_2" d="M.84098818 .60165408C.84999087 .63861086 .85198977 .64660647 .9259949 .64660647 .94799807 .64660647 .95999148 .64660647 .95999148 .6686096 .95999148 .6726074 .95700076 .6826172 .94400027 .6826172 .9149933 .6826172 .84199526 .6786041 .8129883 .6786041 .79599 .6786041 .7609863 .6786041 .74398806 .6796112 .723999 .680603 .69999697 .6826172 .68099978 .6826172 .6749878 .6826172 .6599884 .6826172 .6599884 .660614 .6599884 .64660647 .6719971 .64660647 .69200137 .64660647 .69299319 .64660647 .71199038 .64660647 .7299957 .64460757 .7509918 .64260867 .7529907 .64060977 .7529907 .6306305 .7529907 .6296234 .7529907 .6236267 .7489929 .60865786L.6899872 .37290956H.35499574L.41299439 .60466006C.42199708 .63861086 .42399598 .64660647 .5009918 .64660647 .5179901 .64660647 .5309906 .64660647 .5309906 .6686096 .5309906 .6726074 .5279999 .6826172 .5149994 .6826172 .48599244 .6826172 .41299439 .6786041 .38398744 .6786041 .36698915 .6786041 .33198548 .6786041 .31498719 .6796112 .29499818 .680603 .2709961 .6826172 .2519989 .6826172 .24598694 .6826172 .23098755 .6826172 .23098755 .660614 .23098755 .64660647 .24299622 .64660647 .2630005 .64660647 .2639923 .64660647 .2829895 .64660647 .30099488 .64460757 .32199098 .64260867 .32398988 .64060977 .32398988 .6306305 .32398988 .6286316 .32398988 .6236267 .31999208 .60865786L.18699646 .07798767C.1789856 .04399109 .1769867 .035995485 .09899902 .035995485 .08198547 .035995485 .068984989 .035995485 .068984989 .01499939 .068984989 .004989624 .07598877 0 .084991458 0 .11399841 0 .18598938 .0039978029 .21499634 .0039978029 .23199463 .0039978029 .2669983 .0039978029 .28399659 .0029907227 .3039856 .0019989014 .32899476 0 .34799195 0 .35299684 0 .36898805 0 .36898805 .020996094 .36898805 .035995485 .35899354 .035995485 .33599855 .035995485 .31999208 .035995485 .31599427 .035995485 .2979889 .037994386 .27598573 .040985109 .27598573 .04298401 .27598573 .052993776 .27598573 .053985597 .27598573 .0599823 .27999879 .07498169L.34599305 .33691407H.68099978L.6159973 .07798767C.60798647 .04399109 .60598757 .035995485 .5279999 .035995485 .5109863 .035995485 .49798585 .035995485 .49798585 .01499939 .49798585 .004989624 .5049896 0 .5139923 0 .54299929 0 .61499026 .0039978029 .6439972 .0039978029 .6609955 .0039978029 .69599917 .0039978029 .71299746 .0029907227 .73298647 .0019989014 .7579956 0 .7769928 0 .7819977 0 .7979889 0 .7979889 .020996094 .7979889 .035995485 .7879944 .035995485 .7649994 .035995485 .7489929 .035995485 .7449951 .035995485 .72698977 .037994386 .7049866 .040985109 .7049866 .04298401 .7049866 .052993776 .7049866 .05899048 .70799258 .068984989 .70899966 .07498169L.84098818 .60165408Z"/>
<path id="font_2_2" d="M.19198609 .2502594C.19198609 .2792511 .16799927 .30325318 .13899231 .30325318 .10998535 .30325318 .085998538 .2792511 .085998538 .2502594 .085998538 .22125244 .10998535 .19726563 .13899231 .19726563 .16799927 .19726563 .19198609 .22125244 .19198609 .2502594Z"/>
<path id="font_4_2" d="M.68699648 .32714845C.70199587 .32714845 .72099307 .32714845 .72099307 .34713746 .72099307 .36714173 .70199587 .36714173 .6879883 .36714173H.08898926C.07499695 .36714173 .055999757 .36714173 .055999757 .34713746 .055999757 .32714845 .07499695 .32714845 .08999634 .32714845H.68699648M.6879883 .13284302C.70199587 .13284302 .72099307 .13284302 .72099307 .15284729 .72099307 .17285156 .70199587 .17285156 .68699648 .17285156H.08999634C.07499695 .17285156 .055999757 .17285156 .055999757 .15284729 .055999757 .13284302 .07499695 .13284302 .08898926 .13284302H.6879883Z"/>
<path id="font_3_1" d="M.5249939 .33813478C.5109863 .3960724 .46598817 .4560547 .37199403 .4560547 .23199463 .4560547 .115997318 .35112 .07998657 .2612152 .07398987 .24423218 .05999756 .20327759 .05999756 .16331482 .05999756 .09437561 .11399841-.01953125 .269989-.01953125 .5289917-.01953125 .6339874 .30317689 .6339874 .4450531 .6339874 .61631777 .5219879 .7138672 .3880005 .7138672 .22499085 .7138672 .17999268 .58436587 .17999268 .55336 .17999268 .5453644 .18499756 .5173645 .21998596 .5173645 .25498963 .5173645 .27598573 .54837039 .27598573 .57237246 .27598573 .59936526 .2559967 .6083679 .23699951 .6103668 .2869873 .6848602 .36898805 .6848602 .38598634 .6848602 .46099855 .6848602 .5499878 .63816836 .5499878 .4962616 .5499878 .4530487 .54499819 .4180603 .526001 .33813478H.5249939M.27198792 .012466431C.15899658 .012466431 .1459961 .09738159 .1459961 .12834168 .1459961 .16731262 .17298889 .265213 .18299866 .29019166 .20098877 .33613587 .2630005 .42803956 .37599183 .42803956 .47299195 .42803956 .5049896 .35212709 .5049896 .2921753 .5049896 .22525025 .43998719 .012466431 .27198792 .012466431Z"/>
<path id="font_3_3" d="M.526001 .3193512C.5329895 .3463745 .54499819 .39439393 .54499819 .3993988 .54499819 .41940309 .5289917 .43139649 .5119934 .43139649 .49299623 .43139649 .47499085 .41940309 .46899415 .40238954 .46598817 .39439393 .45599366 .35237123 .44898988 .32736207 .43499757 .27033998 .43499757 .26834107 .41999818 .21231079 .40699769 .1572876 .40499879 .14927674 .4039917 .120269779 .4079895 .1002655 .3999939 .08125305 .37599183 .051239015 .36299134 .035232545 .34298707 .018234253 .30899049 .018234253 .269989 .018234253 .21899414 .032226564 .21899414 .11026001 .21899414 .1612854 .24699402 .23532105 .2669983 .28634645 .28399659 .33036805 .28799439 .33937074 .28799439 .35636903 .28799439 .40438844 .24699402 .44140626 .19299317 .44140626 .09199524 .44140626 .04699707 .3053589 .04699707 .28834535 .04699707 .27534486 .06098938 .27534486 .06399536 .27534486 .07798767 .27534486 .07899475 .28033448 .08198547 .29135133 .10699463 .3743744 .1499939 .4133911 .18998719 .4133911 .20698548 .4133911 .21499634 .40238954 .21499634 .37838746 .21499634 .3553772 .20599365 .33335877 .20098877 .32035829 .14399719 .17430115 .14399719 .15428162 .14399719 .12327576 .14399719 .0052337648 .25099183-.009765625 .30499269-.009765625 .32398988-.009765625 .37298585-.009765625 .41799928 .057250978 .44099427 .01222229 .49598695-.009765625 .5569916-.009765625 .6459961-.009765625 .6899872 .06724548 .70999148 .10826111 .7529907 .19230652 .7799988 .3173523 .7799988 .3633728 .7799988 .43840028 .7369995 .44239808 .7299957 .44239808 .70399478 .44239808 .6759949 .41540528 .6759949 .38938905 .6759949 .3723755 .6859894 .36437989 .69299319 .35836793 .71699526 .33836366 .7299957 .3103485 .7299957 .27833558 .7299957 .26533509 .6879883 .018234253 .5609894 .018234253 .47999574 .018234253 .47999574 .09025574 .47999574 .10726929 .47999574 .13427735 .48399354 .15028382 .49798585 .20730591L.526001 .3193512Z"/>
<path id="font_3_4" d="M.16799927 .08824158C.19400025 .11425781 .21199036 .13327027 .29699708 .2013092 .31799317 .2183075 .3929901 .27835084 .42199708 .30636598 .48298646 .36639405 .5209961 .41740418 .5209961 .42939759 .5209961 .44140626 .5079956 .44140626 .5039978 .44140626 .49499513 .44140626 .49198915 .4393921 .4869995 .43139649 .45599366 .38539125 .43499757 .37039186 .41099549 .37039186 .39898683 .37039186 .38398744 .37139894 .35398866 .40040589 .31999208 .43440248 .2979889 .44140626 .2749939 .44140626 .19499207 .44140626 .14099121 .35440064 .14099121 .32437135 .14099121 .31536866 .15098572 .31236268 .1579895 .31236268 .16999817 .31236268 .17199707 .31536866 .17599488 .3263855 .19099427 .36140443 .24699402 .36340333 .2630005 .36340333 .28599549 .36340333 .31199647 .35739137 .32598878 .35440064 .3809967 .34239198 .3880005 .34239198 .41299439 .34239198 .3869934 .31536866 .36898805 .29736329 .27398683 .22131348 .19599915 .1592865 .16899109 .13426209 .1499939 .11425781 .08999634 .055221559 .06098938 .011230469 .06098938 .0022277833 .06098938-.009765625 .07398987-.009765625 .07798767-.009765625 .08799744-.009765625 .08999634-.0077667238 .09498596 .00022888184 .12199402 .038223268 .15299988 .06123352 .18699646 .06123352 .19898987 .06123352 .21398926 .06022644 .24099732 .035232545 .27198792 .0052337648 .2919922-.009765625 .32398988-.009765625 .43099977-.009765625 .49798585 .11125183 .49798585 .14527893 .49798585 .15727234 .4869995 .15827942 .48098756 .15827942 .46899415 .15827942 .46699525 .15327454 .46299745 .14227295 .44400025 .09223938 .3849945 .068222049 .33599855 .068222049 .31298829 .068222049 .28799439 .07322693 .2630005 .07923889 .21699524 .0892334 .20899964 .0892334 .19099427 .0892334 .18899536 .0892334 .17399597 .0892334 .16799927 .08824158Z"/>
<path id="font_1_1" d="M.6749878 .49804688C.68699648 .5040436 .69400027 .50904849 .69400027 .52005007 .69400027 .53105166 .68499758 .5400543 .673996 .5400543 .67099 .5400543 .6689911 .5400543 .6559906 .53305056L.101989749 .27198792C.09098816 .2669983 .08299255 .2619934 .08299255 .24998474 .08299255 .23799134 .09098816 .23298645 .101989749 .22798157L.6559906-.033065797C.6689911-.04006958 .67099-.04006958 .673996-.04006958 .68499758-.04006958 .69400027-.031066895 .69400027-.020065308 .69400027-.009063721 .68699648-.0040740969 .6749878 .0019378662L.1499939 .24998474 .6749878 .49804688Z"/>
<path id="font_4_1" d="M.45999146 .31976319C.45999146 .39982606 .45498658 .47988893 .41999818 .5539398 .37399293 .65000918 .2919922 .6660156 .25 .6660156 .18998719 .6660156 .116989139 .64001467 .07598877 .54693606 .04399109 .47789 .038986207 .39982606 .038986207 .31976319 .038986207 .24472046 .042999269 .15464783 .083999637 .07859802 .1269989-.0024719239 .19999695-.022460938 .24899292-.022460938 .30299378-.022460938 .3789978-.0014648438 .4229889 .09359741 .45498658 .16265869 .45999146 .2407074 .45999146 .31976319M.24899292-.00047302247C.20999146-.00047302247 .15098572 .024551392 .1329956 .12062073 .12199402 .18066406 .12199402 .2727356 .12199402 .3317871 .12199402 .39582826 .12199402 .46188355 .12998963 .5159149 .14898682 .63500979 .22399903 .64401248 .24899292 .64401248 .28199769 .64401248 .34799195 .6259918 .36698915 .52693179 .3769989 .47088624 .3769989 .39482118 .3769989 .3317871 .3769989 .25672914 .3769989 .18867493 .3659973 .12461853 .35099793 .029556275 .2939911-.00047302247 .24899292-.00047302247Z"/>
<path id="font_5_46" d="M.70700076 .33580018C.70700076 .52568057 .57199099 .6826172 .40098573 .6826172H.034988405V.6516113H.05899048C.13598633 .6516113 .13798523 .64060977 .13798523 .6046295V.07795715C.13798523 .041992189 .13598633 .0309906 .05899048 .0309906H.034988405V0H.40098573C.56900027 0 .70700076 .1479187 .70700076 .33580018M.6069946 .33580018C.6069946 .22486878 .58799746 .16490174 .5519867 .11593628 .5319977 .08895874 .47499085 .0309906 .37399293 .0309906H.272995C.22599793 .0309906 .22399903 .037994386 .22399903 .07096863V.6116333C.22399903 .64460757 .22599793 .6516113 .272995 .6516113H.37298585C.43499757 .6516113 .5039978 .6296234 .5549927 .55867007 .59799197 .49969483 .6069946 .41375733 .6069946 .33580018Z"/>
<path id="font_5_65" d="M.33299256 0V.0309906H.30699159C.22799683 .0309906 .22499085 .041992189 .22499085 .07795715V.6046295C.22499085 .64060977 .22799683 .6516113 .30699159 .6516113H.33299256V.6826172C.2979889 .6796112 .21899414 .6796112 .18099976 .6796112 .14199829 .6796112 .06298828 .6796112 .027999878 .6826172V.6516113H.053985597C.1329956 .6516113 .13598633 .64060977 .13598633 .6046295V.07795715C.13598633 .041992189 .1329956 .0309906 .053985597 .0309906H.027999878V0C.06298828 .0029907227 .14199829 .0029907227 .17999268 .0029907227 .21899414 .0029907227 .2979889 .0029907227 .33299256 0Z"/>
<path id="font_5_111" d="M.7299957 .6516113V.6826172C.69898989 .680603 .6589966 .6796112 .6329956 .6796112L.5189972 .6826172V.6516113C.57099917 .6506195 .59199526 .6246033 .59199526 .6016083 .59199526 .5936127 .58898928 .5876007 .58699038 .581604L.4039917 .09954834 .21299744 .60461428C.20698548 .61860659 .20698548 .62260439 .20698548 .62260439 .20698548 .6516113 .2639923 .6516113 .2889862 .6516113V.6826172C.25299073 .6796112 .18399048 .6796112 .1459961 .6796112L.018997193 .6826172V.6516113C.083999637 .6516113 .102996829 .6516113 .116989139 .6136017L.34899903-.00047302247C.35598756-.019470215 .36099244-.022460938 .37399293-.022460938 .3909912-.022460938 .3929901-.017471314 .397995-.0034637452L.62098696 .58461C.6349945 .62161257 .6619873 .6506195 .7299957 .6516113Z"/>
<path id="font_5_42" d="M.6649933 .23271179C.6649933 .24272156 .6649933 .24972534 .6519928 .24972534 .6409912 .24972534 .6409912 .24372864 .6399994 .23371887 .6319885 .09059143 .5249939 .008529663 .41600038 .008529663 .35499574 .008529663 .15899658 .042556764 .15899658 .34080506 .15899658 .64004519 .35398866 .67407229 .4149933 .67407229 .5239868 .67407229 .61299136 .58299258 .6329956 .4368744 .6349945 .42286683 .6349945 .41986085 .6489868 .41986085 .6649933 .41986085 .6649933 .42286683 .6649933 .44387818V.68107607C.6649933 .69807437 .6649933 .7050781 .6539917 .7050781 .6499939 .7050781 .6459961 .7050781 .6380005 .69306948L.58799746 .61901858C.5509949 .6550598 .5 .7050781 .4039917 .7050781 .21699524 .7050781 .055999757 .5459595 .055999757 .34179688 .055999757 .1346283 .21798706-.022460938 .4039917-.022460938 .5669861-.022460938 .6649933 .116622928 .6649933 .23271179Z"/>
<path id="font_5_80" d="M.72099307 .3387909C.72099307 .5429535 .56999209 .7050781 .3880005 .7050781 .20899964 .7050781 .055999757 .5449524 .055999757 .3387909 .055999757 .13363648 .20999146-.022460938 .3880005-.022460938 .56999209-.022460938 .72099307 .13664246 .72099307 .3387909M.6179962 .35281373C.6179962 .08760071 .48098756 .0035247803 .3889923 .0035247803 .29299928 .0035247803 .15899658 .09159851 .15899658 .35281373 .15899658 .6120148 .30499269 .68006899 .3880005 .68006899 .47499085 .68006899 .6179962 .6090088 .6179962 .35281373Z"/>
<path id="font_5_76" d="M.71598818 .6516113V.6826172L.598999 .6796112 .48199464 .6826172V.6516113C.58499148 .6516113 .58499148 .6046295 .58499148 .577652V.15092469L.23199463 .6696167C.22299195 .6816101 .22200012 .6826172 .20298767 .6826172H.032989503V.6516113H.06199646C.07699585 .6516113 .09700012 .65060427 .11199951 .6496124 .1349945 .64660647 .13598633 .6456146 .13598633 .62661746V.10494995C.13598633 .07795715 .13598633 .0309906 .032989503 .0309906V0L.1499939 .0029907227 .2669983 0V.0309906C.1639862 .0309906 .1639862 .07795715 .1639862 .10494995V.62461856C.16899109 .6196289 .16999817 .6186218 .17399597 .6126251L.58200076 .0129852299C.59098818 .0009918213 .59199526 0 .598999 0 .61299136 0 .61299136 .0069885256 .61299136 .025985718V.577652C.61299136 .6046295 .61299136 .6516113 .71598818 .6516113Z"/>
<path id="font_1_2" d="M.6749878 .22798157C.6859894 .23298645 .69400027 .23799134 .69400027 .24998474 .69400027 .2619934 .6859894 .2669983 .6749878 .27198792L.12098694 .53305056C.10798645 .5400543 .10598755 .5400543 .102996829 .5400543 .09199524 .5400543 .08299255 .53105166 .08299255 .52005007 .08299255 .51104739 .08799744 .50505068 .101989749 .49804688L.6269989 .24998474 .101989749 .0019378662C.08799744-.005065918 .08299255-.011062622 .08299255-.020065308 .08299255-.031066895 .09199524-.04006958 .102996829-.04006958 .10598755-.04006958 .10798645-.04006958 .12098694-.033065797L.6749878 .22798157Z"/>
<path id="font_5_97" d="M.49899293 .18579102C.49899293 .2858429 .43299867 .36791993 .34899903 .38793946L.22099304 .4189453C.15899658 .43388368 .11999512 .48773194 .11999512 .5458069 .11999512 .61595156 .17399597 .677063 .2519989 .677063 .4189911 .677063 .44099427 .5127411 .44699098 .46777345 .44799806 .461792 .44799806 .45581056 .45899964 .45581056 .47200013 .45581056 .47200013 .46080018 .47200013 .47973634V.68107607C.47200013 .69807437 .47200013 .7050781 .46099855 .7050781 .45399476 .7050781 .45298768 .70407107 .44599916 .69207766L.41099549 .63497927C.3809967 .66404727 .33999635 .7050781 .25099183 .7050781 .13999939 .7050781 .055999757 .61694338 .055999757 .5107422 .055999757 .42790223 .10899353 .35490418 .18699646 .32788087 .19799805 .32388307 .24899292 .3118744 .31900025 .29486085 .34599305 .28785707 .37599183 .280838 .4039917 .24382019 .4249878 .2177887 .43499757 .18478394 .43499757 .1517334 .43499757 .0806427 .3849945 .008529663 .30099488 .008529663 .27198792 .008529663 .19599915 .013534546 .14299011 .06260681 .084991458 .11668396 .08198547 .18078614 .08099365 .21679688 .07998657 .22679138 .07199097 .22679138 .068984989 .22679138 .055999757 .22679138 .055999757 .2197876 .055999757 .20178223V.0015258789C.055999757-.015472412 .055999757-.022460938 .066986087-.022460938 .07398987-.022460938 .07499695-.020462037 .08198547-.009475708 .08198547-.009475708 .084991458-.0054626467 .117996219 .047592164 .14898682 .013534546 .21299744-.022460938 .3019867-.022460938 .4189911-.022460938 .49899293 .07562256 .49899293 .18579102Z"/>
<path id="font_5_109" d="M.5349884 0V.0309906C.46499635 .0309906 .45700074 .037994386 .45700074 .08705139V.4423828L.30999757 .43066407V.3996582C.37998963 .3996582 .3880005 .39266969 .3880005 .34373475V.16601563C.3880005 .07910156 .33999635 .011245728 .2669983 .011245728 .18299866 .011245728 .1789856 .058135988 .1789856 .11009216V.4423828L.03199768 .43066407V.3996582C.10998535 .3996582 .10998535 .39666749 .10998535 .3078003V.15802002C.10998535 .080093387 .10998535-.0107421879 .2619934-.0107421879 .31799317-.0107421879 .3619995 .017242432 .3909912 .07910156V-.0107421879L.5349884 0Z"/>
<path id="font_5_96" d="M.3639984 .38137818C.3639984 .41337586 .33299256 .4423828 .2899933 .4423828 .21699524 .4423828 .18099976 .37538148 .16699219 .3323822V.4423828L.027999878 .43066407V.3996582C.09799194 .3996582 .10598755 .39266969 .10598755 .34370423V.07595825C.10598755 .0309906 .09498596 .0309906 .027999878 .0309906V0L.14199829 .0029907227C.18199158 .0029907227 .22898865 .0029907227 .2689972 0V.0309906H.24798584C.17399597 .0309906 .17199707 .04197693 .17199707 .07795715V.23181153C.17199707 .33137513 .21398926 .42037965 .2899933 .42037965 .29699708 .42037965 .29899598 .42037965 .30099488 .41937257 .2979889 .41838075 .27799989 .40637208 .27799989 .3803711 .27799989 .35237123 .29899598 .33737184 .32099916 .33737184 .33898927 .33737184 .3639984 .3493805 .3639984 .38137818Z"/>
<path id="font_5_55" d="M.35699464 .63479617C.35699464 .6717987 .31999208 .7050781 .2669983 .7050781 .19699097 .7050781 .11199951 .65179446 .11199951 .5457611V.43066407H.032989503V.3996582H.11199951V.07595825C.11199951 .0309906 .100997928 .0309906 .033996583 .0309906V0L.147995 .0029907227C.18798828 .0029907227 .23498535 .0029907227 .2749939 0V.0309906H.2539978C.17999268 .0309906 .17799378 .04197693 .17799378 .07795715V.3996582H.2919922V.43066407H.1749878V.5467529C.1749878 .63479617 .22299195 .68307498 .2669983 .68307498 .269989 .68307498 .2849884 .68307498 .2999878 .675827 .28799439 .6717987 .269989 .6587982 .269989 .6338043 .269989 .61079409 .28599549 .5907898 .31298829 .5907898 .34199525 .5907898 .35699464 .61079409 .35699464 .63479617Z"/>
<path id="font_5_28" d="M.48298646 .08912659V.14511109H.45799256V.08912659C.45799256 .03112793 .43299867 .025131226 .42199708 .025131226 .3889923 .025131226 .3849945 .070129398 .3849945 .07511902V.27508546C.3849945 .31707765 .3849945 .3560791 .34899903 .39312745 .30999757 .43223573 .2599945 .4482422 .21199036 .4482422 .12998963 .4482422 .06098938 .40115357 .06098938 .335083 .06098938 .30508424 .08099365 .28808595 .10699463 .28808595 .1349945 .28808595 .15299988 .30807496 .15299988 .33407594 .15299988 .3460846 .147995 .37908937 .101989749 .38008119 .1289978 .41519166 .17799378 .426239 .20999146 .426239 .25898744 .426239 .31599427 .38710023 .31599427 .29808045V.26107789C.2649994 .25808717 .19499207 .25508119 .13198853 .22509766 .056991579 .19110108 .03199768 .13911438 .03199768 .09512329 .03199768 .014251709 .1289978-.0107421879 .19198609-.0107421879 .2579956-.0107421879 .3039856 .029251099 .32299806 .07624817 .32699586 .036132814 .35398866-.005859375 .40098573-.005859375 .42199708-.005859375 .48298646 .008132935 .48298646 .08912659M.31599427 .14013672C.31599427 .04525757 .24398804 .011245728 .19898987 .011245728 .1499939 .011245728 .10899353 .04624939 .10899353 .09625244 .10899353 .15124512 .15098572 .23425293 .31599427 .24024964V.14013672Z"/>
<path id="font_5_43" d="M.4149933 .119140628C.4149933 .12911988 .40499879 .12911988 .4019928 .12911988 .3929901 .12911988 .3909912 .12512207 .3889923 .119140628 .3600006 .026229859 .29499818 .014251709 .2579956 .014251709 .20498657 .014251709 .116989139 .0572052 .116989139 .21801758 .116989139 .38093568 .19898987 .42323304 .2519989 .42323304 .26098634 .42323304 .32398988 .42222596 .35899354 .38594056 .31799317 .38293458 .31199647 .3529358 .31199647 .3399353 .31199647 .31393434 .32998658 .2939453 .35798646 .2939453 .38398744 .2939453 .4039917 .3109436 .4039917 .34094239 .4039917 .40911866 .32798768 .4482422 .25099183 .4482422 .12599182 .4482422 .033996583 .3399353 .033996583 .21601868 .033996583 .08816528 .1329956-.0107421879 .24899292-.0107421879 .3829956-.0107421879 .4149933 .10914612 .4149933 .119140628Z"/>
<path id="font_5_50" d="M.4149933 .11933899C.4149933 .12934876 .40699769 .13134766 .4019928 .13134766 .3929901 .13134766 .3909912 .12535095 .3889923 .11734009 .35398866 .014251709 .2639923 .014251709 .2539978 .014251709 .20399475 .014251709 .1639862 .044281007 .14099121 .08131409 .11099243 .12934876 .11099243 .19540406 .11099243 .23144531H.3899994C.4119873 .23144531 .4149933 .23144531 .4149933 .2524414 .4149933 .35131837 .36099244 .4482422 .23599243 .4482422 .11999512 .4482422 .027999878 .34532167 .027999878 .22042847 .027999878 .08631897 .1329956-.0107421879 .24798584-.0107421879 .36999513-.0107421879 .4149933 .10032654 .4149933 .11933899M.34899903 .2524414H.11199951C.117996219 .40126039 .20199585 .426239 .23599243 .426239 .33898927 .426239 .34899903 .2913971 .34899903 .2524414Z"/>
<path id="font_5_81" d="M.47099305 .21424866C.47099305 .34223939 .37098695 .4482422 .25 .4482422 .125 .4482422 .027999878 .3392334 .027999878 .21424866 .027999878 .085250858 .13198853-.0107421879 .24899292-.0107421879 .36999513-.0107421879 .47099305 .087249759 .47099305 .21424866M.3880005 .22224427C.3880005 .18624878 .3880005 .13224793 .3659973 .08824158 .34399415 .04324341 .2999878 .014251709 .25 .014251709 .20698548 .014251709 .16299439 .035247804 .13598633 .08125305 .11099243 .12524414 .11099243 .18624878 .11099243 .22224427 .11099243 .26124574 .11099243 .31523133 .1349945 .35923768 .1619873 .40522767 .20899964 .426239 .24899292 .426239 .29299928 .426239 .33599855 .40423585 .3619995 .36123658 .3880005 .3182373 .3880005 .26023866 .3880005 .22224427Z"/>
<path id="font_5_105" d="M.33198548 .12385559V.18066406H.30699159V.12585449C.30699159 .052108766 .2769928 .014251709 .23999024 .014251709 .17298889 .014251709 .17298889 .10491943 .17298889 .12187195V.3996582H.31599427V.43066407H.17298889V.6142578H.147995C.14698792 .5324249 .116989139 .42565919 .018997193 .42166139V.3996582H.10398865V.12408447C.10398865 .0012512207 .19699097-.0107421879 .23298645-.0107421879 .3039856-.0107421879 .33198548 .060180665 .33198548 .12408447V.12385559Z"/>
<path id="font_5_63" d="M.5349884 0V.0309906C.48298646 .0309906 .45799256 .0309906 .45700074 .061019899V.25221253C.45700074 .3383026 .45700074 .36932374 .42599488 .405365 .4119873 .42237855 .3789978 .4423828 .32099916 .4423828 .23699951 .4423828 .19299317 .38233949 .1769867 .34629823H.17599488V.69433596L.03199768 .6826172V.6516113C.101989749 .6516113 .10998535 .64463809 .10998535 .59580996V.076034549C.10998535 .0309906 .09899902 .0309906 .03199768 .0309906V0L.14498902 .0029907227 .25698854 0V.0309906C.18998719 .0309906 .1789856 .0309906 .1789856 .076034549V.2602234C.1789856 .36431886 .25 .42037965 .31399537 .42037965 .3769989 .42037965 .3880005 .36631776 .3880005 .30926515V.076034549C.3880005 .0309906 .3769989 .0309906 .30999757 .0309906V0L.4229889 .0029907227 .5349884 0Z"/>
<path id="font_5_49" d="M.6519928 .2579193H.6269989C.60198977 .10397339 .57899478 .0309906 .40699769 .0309906H.27398683C.22698975 .0309906 .22499085 .037994386 .22499085 .07098389V.33789063H.31498719C.4119873 .33789063 .4229889 .30589295 .4229889 .220932H.44799806V.48606874H.4229889C.4229889 .39994813 .4119873 .36888124 .31498719 .36888124H.22499085V.6087799C.22499085 .6416931 .22698975 .64868167 .27398683 .64868167H.40299989C.55599978 .64868167 .58299258 .59381106 .598999 .45507813H.6239929L.59599307 .6796875H.032989503V.64868167H.056991579C.13398743 .64868167 .13598633 .6377106 .13598633 .6017914V.07797241C.13598633 .041992189 .13398743 .0309906 .056991579 .0309906H.032989503V0H.6100006L.6519928 .2579193Z"/>
<path id="font_5_104" d="M.68499758 .45214845 .66600039 .6767578H.054992677L.035995485 .45214845H.06098938C.07499695 .6128235 .08999634 .64575198 .24099732 .64575198 .25898744 .64575198 .2849884 .64575198 .29499818 .64375308 .31599427 .6397705 .31599427 .6287842 .31599427 .60583499V.07901001C.31599427 .04499817 .31599427 .0309906 .21099854 .0309906H.17098999V0C.21199036 .0029907227 .31399537 .0029907227 .3600006 .0029907227 .4059906 .0029907227 .5089874 .0029907227 .5499878 0V.0309906H.5099945C.40499879 .0309906 .40499879 .04499817 .40499879 .07901001V.60583499C.40499879 .62579348 .40499879 .6397705 .4229889 .64375308 .43399049 .64575198 .46099855 .64575198 .47999574 .64575198 .6309967 .64575198 .6459961 .6128235 .6599884 .45214845H.68499758Z"/>
<path id="font_5_84" d="M.5209961 .21636963C.5209961 .34336854 .42399598 .4423828 .31199647 .4423828 .23399353 .4423828 .19198609 .39837647 .17199707 .3763733V.4423828L.027999878 .43066407V.3996582C.09899902 .3996582 .10598755 .3936615 .10598755 .34973146V-.117996219C.10598755-.16308594 .09498596-.16308594 .027999878-.16308594V-.1940918L.13999939-.19110108 .25299073-.1940918V-.16308594C.18598938-.16308594 .1749878-.16308594 .1749878-.117996219V.050186159 .059173585C.17999268 .04319763 .22200012-.0107421879 .2979889-.0107421879 .4169922-.0107421879 .5209961 .087127689 .5209961 .21594239V.21636963M.43798829 .21594239C.43798829 .09512329 .36799623 .011245728 .2939911 .011245728 .2539978 .011245728 .21598816 .031219483 .18899536 .07215881 .1749878 .09312439 .1749878 .09411621 .1749878 .114089969V.33674623C.20399475 .38838197 .25299073 .41737367 .3039856 .41737367 .3769989 .41737367 .43798829 .32937623 .43798829 .21636963V.21594239Z"/>
<path id="font_5_98" d="M.3600006 .12823487C.3600006 .18122864 .32998658 .21122742 .31799317 .22323609 .2849884 .25523377 .24598694 .26322938 .20399475 .27124024 .147995 .28224183 .08099365 .29522706 .08099365 .35324098 .08099365 .38822938 .10699463 .42922975 .19299317 .42922975 .30299378 .42922975 .30799867 .3392334 .30999757 .30822755 .31098939 .2992401 .32199098 .2992401 .32199098 .2992401 .33499146 .2992401 .33499146 .30422975 .33499146 .32322694V.4242401C.33499146 .4412384 .33499146 .4482422 .32398988 .4482422 .31900025 .4482422 .31698609 .4482422 .3039856 .43623353 .30099488 .43223573 .29100038 .42323304 .2869873 .42022706 .24899292 .4482422 .20799256 .4482422 .19299317 .4482422 .070999149 .4482422 .032989503 .38124085 .032989503 .3252411 .032989503 .29023744 .04899597 .26223756 .07598877 .24023438 .10798645 .2142334 .13598633 .2082367 .20799256 .19422913 .22999573 .19021607 .31199647 .17422486 .31199647 .10221863 .31199647 .051223756 .2769928 .011245728 .19898987 .011245728 .114990238 .011245728 .07899475 .068222049 .05999756 .1532135 .056991579 .16621399 .055999757 .17021179 .04598999 .17021179 .032989503 .17021179 .032989503 .16322327 .032989503 .1452179V.013214111C.032989503-.003753662 .032989503-.0107421879 .04399109-.0107421879 .04899597-.0107421879 .049987794-.009750366 .068984989 .009246826 .070999149 .011245728 .070999149 .013214111 .08898926 .032226564 .1329956-.009750366 .17799378-.0107421879 .19898987-.0107421879 .31399537-.0107421879 .3600006 .05621338 .3600006 .1282196V.12823487Z"/>
</defs>
<path transform="matrix(1.00006,0,0,-1.00002,35.492288,162.48702)" stroke-width="1.99255" stroke-linecap="butt" stroke-miterlimit="10" stroke-linejoin="miter" fill="none" stroke="#ff0000" d="M141.73404 14.17339H169.277"/>
<path transform="matrix(1.00006,0,0,-1.00002,204.77942,148.31334)" d="M7.89055 0C5.55257 .43835 1.75345 1.75345-.87672 3.28772V-3.28772C1.75345-1.75345 5.55257-.43835 7.89055 0" fill="#ff0000"/>
<use data-text="&#x20d7;" xlink:href="#font_1_4" transform="matrix(9.963197,0,0,-9.962799,202.60431,143.99665)" fill="#ff0000"/>
<use data-text="v" xlink:href="#font_1_3" transform="matrix(9.963197,0,0,-9.962799,202.99288,143.99665)" fill="#ff0000"/>
<path transform="matrix(1.00006,0,0,-1.00002,35.492288,162.48702)" stroke-width="1.99255" stroke-linecap="butt" stroke-miterlimit="10" stroke-linejoin="miter" fill="none" stroke="#ff0000" d="M255.12128 14.17339H227.57833"/>
<path transform="matrix(-1.00006,-0,0,1.00002,263.08427,148.31334)" d="M7.89055 0C5.55257 .43835 1.75345 1.75345-.87672 3.28772V-3.28772C1.75345-1.75345 5.55257-.43835 7.89055 0" fill="#ff0000"/>
<path transform="matrix(1.00006,0,0,-1.00002,35.492288,162.48702)" stroke-width="1.99255" stroke-linecap="butt" stroke-miterlimit="10" stroke-linejoin="miter" fill="none" stroke="#ff0000" d="M198.42766 113.38724V36.23737"/>
<path transform="matrix(0,1.00002,1.00006,0,233.93186,126.24892)" d="M7.89055 0C5.55257 .43835 1.75345 1.75345-.87672 3.28772V-3.28772C1.75345-1.75345 5.55257-.43835 7.89055 0" fill="#ff0000"/>
<use data-text="&#x2212;" xlink:href="#font_2_1" transform="matrix(9.963197,0,0,-9.962799,245.33588,94.283649)"/>
<use data-text="&#x2207;" xlink:href="#font_2_3" transform="matrix(9.963197,0,0,-9.962799,253.07727,94.283649)"/>
<use data-text="H" xlink:href="#font_3_2" transform="matrix(6.9742186,0,0,-6.97394,261.38783,95.778659)"/>
<use data-text="&#x00b7;" xlink:href="#font_2_2" transform="matrix(9.963197,0,0,-9.962799,271.15943,94.283649)"/>
<use data-text="&#x20d7;" xlink:href="#font_1_4" transform="matrix(9.963197,0,0,-9.962799,275.7537,94.283649)"/>
<use data-text="v" xlink:href="#font_1_3" transform="matrix(9.963197,0,0,-9.962799,276.14225,94.283649)"/>
<use data-text="=" xlink:href="#font_4_2" transform="matrix(9.963197,0,0,-9.962799,284.09519,94.283649)"/>
<use data-text="&#x2202;" xlink:href="#font_3_1" transform="matrix(6.9742186,0,0,-6.97394,295.8069,90.36156)"/>
<use data-text="w" xlink:href="#font_3_3" transform="matrix(6.9742186,0,0,-6.97394,300.48658,90.36156)"/>
<path transform="matrix(1.00006,0,0,-1.00002,123.838588,-56.206377)" stroke-width=".3985" stroke-linecap="butt" stroke-miterlimit="10" stroke-linejoin="miter" fill="none" stroke="#000000" d="M171.958-147.997H182.593"/>
<use data-text="&#x2202;" xlink:href="#font_3_1" transform="matrix(6.9742186,0,0,-6.97394,296.73695,97.71971)"/>
<use data-text="z" xlink:href="#font_3_4" transform="matrix(6.9742186,0,0,-6.97394,301.41667,97.71971)"/>
<use data-text="&#x003c;" xlink:href="#font_1_1" transform="matrix(9.963197,0,0,-9.962799,310.40577,94.283649)"/>
<use data-text="0" xlink:href="#font_4_1" transform="matrix(9.963197,0,0,-9.962799,320.9224,94.283649)"/>
<path transform="matrix(1.00006,0,0,-1.00002,35.492288,162.48702)" stroke-width=".79701" stroke-linecap="butt" stroke-miterlimit="10" stroke-linejoin="miter" fill="none" stroke="#000000" d=""/>
<use data-text="D" xlink:href="#font_5_46" transform="matrix(9.963197,0,0,-9.962799,224.59162,151.46179)"/>
<use data-text="I" xlink:href="#font_5_65" transform="matrix(9.963197,0,0,-9.962799,232.20349,151.46179)"/>
<use data-text="V" xlink:href="#font_5_111" transform="matrix(9.963197,0,0,-9.962799,235.8002,151.46179)"/>
<path transform="matrix(1.00006,0,0,-1.00002,35.492288,162.48702)" stroke-width=".79701" stroke-linecap="butt" stroke-miterlimit="10" stroke-linejoin="miter" fill="none" stroke="#000000" d=""/>
<use data-text="C" xlink:href="#font_5_42" transform="matrix(9.963197,0,0,-9.962799,218.9863,38.579538)"/>
<use data-text="O" xlink:href="#font_5_80" transform="matrix(9.963197,0,0,-9.962799,226.17972,38.579538)"/>
<use data-text="N" xlink:href="#font_5_76" transform="matrix(9.963197,0,0,-9.962799,233.93109,38.579538)"/>
<use data-text="V" xlink:href="#font_5_111" transform="matrix(9.963197,0,0,-9.962799,241.4035,38.579538)"/>
<path transform="matrix(1.00006,0,0,-1.00002,35.492288,162.48702)" stroke-width="1.99255" stroke-linecap="butt" stroke-miterlimit="10" stroke-linejoin="miter" fill="none" stroke="#ff0000" d="M177.16754 127.56062H149.6246"/>
<path transform="matrix(-1.00006,-0,0,1.00002,185.12586,34.923837)" d="M7.89055 0C5.55257 .43835 1.75345 1.75345-.87672 3.28772V-3.28772C1.75345-1.75345 5.55257-.43835 7.89055 0" fill="#ff0000"/>
<path transform="matrix(1.00006,0,0,-1.00002,35.492288,162.48702)" stroke-width="1.99255" stroke-linecap="butt" stroke-miterlimit="10" stroke-linejoin="miter" fill="none" stroke="#ff0000" d="M218.27034 127.56062H247.23073"/>
<path transform="matrix(1.00006,0,0,-1.00002,282.73786,34.923837)" d="M7.89055 0C5.55257 .43835 1.75345 1.75345-.87672 3.28772V-3.28772C1.75345-1.75345 5.55257-.43835 7.89055 0" fill="#ff0000"/>
<path transform="matrix(1.00006,0,0,-1.00002,35.492288,162.48702)" stroke-width="1.99255" stroke-linecap="butt" stroke-miterlimit="10" stroke-linejoin="miter" fill="none" stroke="#0074c8" d="M35.43349 14.17339H7.89055"/>
<path transform="matrix(-1.00006,-0,0,1.00002,43.38331,148.31334)" d="M7.89055 0C5.55257 .43835 1.75345 1.75345-.87672 3.28772V-3.28772C1.75345-1.75345 5.55257-.43835 7.89055 0" fill="#0074c8"/>
<use data-text="&#x20d7;" xlink:href="#font_1_4" transform="matrix(9.963197,0,0,-9.962799,60.86081,143.99665)" fill="#0074c8"/>
<use data-text="v" xlink:href="#font_1_3" transform="matrix(9.963197,0,0,-9.962799,61.249376,143.99665)" fill="#0074c8"/>
<path transform="matrix(1.00006,0,0,-1.00002,35.492288,162.48702)" stroke-width="1.99255" stroke-linecap="butt" stroke-miterlimit="10" stroke-linejoin="miter" fill="none" stroke="#0074c8" d="M77.95372 14.17339H105.49667"/>
<path transform="matrix(1.00006,0,0,-1.00002,140.99529,148.31334)" d="M7.89055 0C5.55257 .43835 1.75345 1.75345-.87672 3.28772V-3.28772C1.75345-1.75345 5.55257-.43835 7.89055 0" fill="#0074c8"/>
<path transform="matrix(1.00006,0,0,-1.00002,35.492288,162.48702)" stroke-width="1.99255" stroke-linecap="butt" stroke-miterlimit="10" stroke-linejoin="miter" fill="none" stroke="#0074c8" d="M56.69362 28.3468V105.49667"/>
<path transform="matrix(0,-1.00002,-1.00006,-0,92.1893,56.988229)" d="M7.89055 0C5.55257 .43835 1.75345 1.75345-.87672 3.28772V-3.28772C1.75345-1.75345 5.55257-.43835 7.89055 0" fill="#0074c8"/>
<use data-text="&#x2212;" xlink:href="#font_2_1" transform="matrix(9.963197,0,0,-9.962799,.21617127,94.283649)"/>
<use data-text="&#x2207;" xlink:href="#font_2_3" transform="matrix(9.963197,0,0,-9.962799,7.9575808,94.283649)"/>
<use data-text="H" xlink:href="#font_3_2" transform="matrix(6.9742186,0,0,-6.97394,16.268128,95.778659)"/>
<use data-text="&#x00b7;" xlink:href="#font_2_2" transform="matrix(9.963197,0,0,-9.962799,26.039719,94.283649)"/>
<use data-text="&#x20d7;" xlink:href="#font_1_4" transform="matrix(9.963197,0,0,-9.962799,30.633988,94.283649)"/>
<use data-text="v" xlink:href="#font_1_3" transform="matrix(9.963197,0,0,-9.962799,31.022538,94.283649)"/>
<use data-text="=" xlink:href="#font_4_2" transform="matrix(9.963197,0,0,-9.962799,38.975496,94.283649)"/>
<use data-text="&#x2202;" xlink:href="#font_3_1" transform="matrix(6.9742186,0,0,-6.97394,50.687196,90.36156)"/>
<use data-text="w" xlink:href="#font_3_3" transform="matrix(6.9742186,0,0,-6.97394,55.366884,90.36156)"/>
<path transform="matrix(1.00006,0,0,-1.00002,-121.28111,-56.206377)" stroke-width=".3985" stroke-linecap="butt" stroke-miterlimit="10" stroke-linejoin="miter" fill="none" stroke="#000000" d="M171.958-147.997H182.593"/>
<use data-text="&#x2202;" xlink:href="#font_3_1" transform="matrix(6.9742186,0,0,-6.97394,51.61725,97.71971)"/>
<use data-text="z" xlink:href="#font_3_4" transform="matrix(6.9742186,0,0,-6.97394,56.29695,97.71971)"/>
<use data-text="&#x003e;" xlink:href="#font_1_2" transform="matrix(9.963197,0,0,-9.962799,65.28607,94.283649)"/>
<use data-text="0" xlink:href="#font_4_1" transform="matrix(9.963197,0,0,-9.962799,75.802707,94.283649)"/>
<path transform="matrix(1.00006,0,0,-1.00002,35.492288,162.48702)" stroke-width=".79701" stroke-linecap="butt" stroke-miterlimit="10" stroke-linejoin="miter" fill="none" stroke="#000000" d=""/>
<use data-text="C" xlink:href="#font_5_42" transform="matrix(9.963197,0,0,-9.962799,77.24379,151.46179)"/>
<use data-text="O" xlink:href="#font_5_80" transform="matrix(9.963197,0,0,-9.962799,84.437229,151.46179)"/>
<use data-text="N" xlink:href="#font_5_76" transform="matrix(9.963197,0,0,-9.962799,92.18858,151.46179)"/>
<use data-text="V" xlink:href="#font_5_111" transform="matrix(9.963197,0,0,-9.962799,99.660999,151.46179)"/>
<path transform="matrix(1.00006,0,0,-1.00002,35.492288,162.48702)" stroke-width=".79701" stroke-linecap="butt" stroke-miterlimit="10" stroke-linejoin="miter" fill="none" stroke="#000000" d=""/>
<use data-text="D" xlink:href="#font_5_46" transform="matrix(9.963197,0,0,-9.962799,82.84912,38.360528)"/>
<use data-text="I" xlink:href="#font_5_65" transform="matrix(9.963197,0,0,-9.962799,90.461,38.360528)"/>
<use data-text="V" xlink:href="#font_5_111" transform="matrix(9.963197,0,0,-9.962799,94.05771,38.360528)"/>
<path transform="matrix(1.00006,0,0,-1.00002,35.492288,162.48702)" stroke-width="1.99255" stroke-linecap="butt" stroke-miterlimit="10" stroke-linejoin="miter" fill="none" stroke="#0074c8" d="M0 127.56062H27.54294"/>
<path transform="matrix(1.00006,0,0,-1.00002,63.03688,34.923837)" d="M7.89055 0C5.55257 .43835 1.75345 1.75345-.87672 3.28772V-3.28772C1.75345-1.75345 5.55257-.43835 7.89055 0" fill="#0074c8"/>
<path transform="matrix(1.00006,0,0,-1.00002,35.492288,162.48702)" stroke-width="1.99255" stroke-linecap="butt" stroke-miterlimit="10" stroke-linejoin="miter" fill="none" stroke="#0074c8" d="M113.38724 127.56062H85.84427"/>
<path transform="matrix(-1.00006,-0,0,1.00002,121.341709,34.923837)" d="M7.89055 0C5.55257 .43835 1.75345 1.75345-.87672 3.28772V-3.28772C1.75345-1.75345 5.55257-.43835 7.89055 0" fill="#0074c8"/>
<path transform="matrix(1.00006,0,0,-1.00002,35.492288,162.48702)" d="M0 0H255.12128V-7.08669H0V0" fill="#cce3f4"/>
<path transform="matrix(1.00006,0,0,-1.00002,35.492288,162.48702)" stroke-width="1.49442" stroke-linecap="butt" stroke-miterlimit="10" stroke-linejoin="miter" fill="none" stroke="#000000" d="M0 0H255.12128"/>
<use data-text="S" xlink:href="#font_5_97" transform="matrix(9.963197,0,0,-9.962799,118.67428,180.66538)"/>
<use data-text="u" xlink:href="#font_5_109" transform="matrix(9.963197,0,0,-9.962799,124.21381,180.66538)"/>
<use data-text="r" xlink:href="#font_5_96" transform="matrix(9.963197,0,0,-9.962799,129.75336,180.66538)"/>
<use data-text="f" xlink:href="#font_5_55" transform="matrix(9.963197,0,0,-9.962799,133.6589,180.66538)"/>
<use data-text="a" xlink:href="#font_5_28" transform="matrix(9.963197,0,0,-9.962799,136.70764,180.66538)"/>
<use data-text="c" xlink:href="#font_5_43" transform="matrix(9.963197,0,0,-9.962799,141.68924,180.66538)"/>
<use data-text="e" xlink:href="#font_5_50" transform="matrix(9.963197,0,0,-9.962799,146.11292,180.66538)"/>
<use data-text="o" xlink:href="#font_5_81" transform="matrix(9.963197,0,0,-9.962799,153.85434,180.66538)"/>
<use data-text="f" xlink:href="#font_5_55" transform="matrix(9.963197,0,0,-9.962799,158.8359,180.66538)"/>
<use data-text="t" xlink:href="#font_5_105" transform="matrix(9.963197,0,0,-9.962799,165.2024,180.66538)"/>
<use data-text="h" xlink:href="#font_5_63" transform="matrix(9.963197,0,0,-9.962799,169.0781,180.66538)"/>
<use data-text="e" xlink:href="#font_5_50" transform="matrix(9.963197,0,0,-9.962799,174.61762,180.66538)"/>
<use data-text="E" xlink:href="#font_5_49" transform="matrix(9.963197,0,0,-9.962799,182.35904,180.66538)"/>
<use data-text="a" xlink:href="#font_5_28" transform="matrix(9.963197,0,0,-9.962799,189.14398,180.66538)"/>
<use data-text="r" xlink:href="#font_5_96" transform="matrix(9.963197,0,0,-9.962799,194.12558,180.66538)"/>
<use data-text="t" xlink:href="#font_5_105" transform="matrix(9.963197,0,0,-9.962799,198.03113,180.66538)"/>
<use data-text="h" xlink:href="#font_5_63" transform="matrix(9.963197,0,0,-9.962799,201.90683,180.66538)"/>
<path transform="matrix(1.00006,0,0,-1.00002,35.492288,162.48702)" d="M0 141.73404H255.12128V148.82074H0V141.73404" fill="#cce3f4"/>
<path transform="matrix(1.00006,0,0,-1.00002,35.492288,162.48702)" stroke-width="1.49442" stroke-linecap="butt" stroke-miterlimit="10" stroke-linejoin="miter" fill="none" stroke="#000000" d="M0 141.73404H255.12128"/>
<use data-text="T" xlink:href="#font_5_104" transform="matrix(9.963197,0,0,-9.962799,137.82843,7.662918)"/>
<use data-text="r" xlink:href="#font_5_96" transform="matrix(9.963197,0,0,-9.962799,144.20487,7.662918)"/>
<use data-text="o" xlink:href="#font_5_81" transform="matrix(9.963197,0,0,-9.962799,148.11045,7.662918)"/>
<use data-text="p" xlink:href="#font_5_84" transform="matrix(9.963197,0,0,-9.962799,153.09204,7.662918)"/>
<use data-text="o" xlink:href="#font_5_81" transform="matrix(9.963197,0,0,-9.962799,158.90058,7.662918)"/>
<use data-text="p" xlink:href="#font_5_84" transform="matrix(9.963197,0,0,-9.962799,163.88217,7.662918)"/>
<use data-text="a" xlink:href="#font_5_28" transform="matrix(9.963197,0,0,-9.962799,169.42173,7.662918)"/>
<use data-text="u" xlink:href="#font_5_109" transform="matrix(9.963197,0,0,-9.962799,174.40329,7.662918)"/>
<use data-text="s" xlink:href="#font_5_98" transform="matrix(9.963197,0,0,-9.962799,179.94284,7.662918)"/>
<use data-text="e" xlink:href="#font_5_50" transform="matrix(9.963197,0,0,-9.962799,183.86832,7.662918)"/>
</svg>
