<svg xmlns="http://www.w3.org/2000/svg" xmlns:xlink="http://www.w3.org/1999/xlink" version="1.1" width="170pt" height="157pt" viewBox="0 0 170 157">
<defs>
<path id="font_1_1" d="M.33399964 .30233766C.33999635 .32835389 .36299134 .42037965 .43299867 .42037965 .43798829 .42037965 .46199037 .42037965 .48298646 .40734864 .45498658 .402359 .43499757 .37734986 .43499757 .35334779 .43499757 .33735658 .44599916 .31835938 .47299195 .31835938 .49499513 .31835938 .5269928 .3363495 .5269928 .37635804 .5269928 .42837525 .46798707 .4423828 .43399049 .4423828 .37599183 .4423828 .34098817 .38935853 .32899476 .36634828 .3039856 .43237306 .25 .4423828 .22099304 .4423828 .116989139 .4423828 .05999756 .3133545 .05999756 .28834535 .05999756 .27833558 .069992069 .27833558 .07199097 .27833558 .07998657 .27833558 .08299255 .28033448 .084991458 .28933717 .11898804 .39535523 .18499756 .42037965 .21899414 .42037965 .23799134 .42037965 .272995 .4113617 .272995 .35334779 .272995 .32235719 .2559967 .25532533 .21899414 .11528015 .20298767 .053268434 .16799927 .011245728 .12399292 .011245728 .117996219 .011245728 .09498596 .011245728 .07398987 .024276734 .09899902 .029266358 .12098694 .05027771 .12098694 .07827759 .12098694 .105270389 .09899902 .11328125 .083999637 .11328125 .053985597 .11328125 .0289917 .08728027 .0289917 .055267335 .0289917 .009246826 .07899475-.0107421879 .12298584-.0107421879 .18899536-.0107421879 .22499085 .059280397 .22799683 .0652771 .23999024 .028274537 .27598573-.0107421879 .33599855-.0107421879 .43899537-.0107421879 .49598695 .118270877 .49598695 .14328003 .49598695 .1532898 .4869995 .1532898 .48399354 .1532898 .47499085 .1532898 .47299195 .14929199 .47099305 .14228821 .43798829 .03527832 .36999513 .011245728 .33799745 .011245728 .29899598 .011245728 .2829895 .043273927 .2829895 .07727051 .2829895 .09927368 .2889862 .121276859 .2999878 .16529846L.33399964 .30233766Z"/>
<path id="font_1_2" d="M.48599244 .38136292C.48999024 .39537049 .48999024 .39736939 .48999024 .40437318 .48999024 .42237855 .47599793 .43138124 .46099855 .43138124 .45098878 .43138124 .43499757 .42536927 .42599488 .41036988 .42399598 .405365 .41600038 .37435914 .4119873 .35635377 .40499879 .33035279 .397995 .30334474 .3919983 .27633668L.34700013 .09628296C.34298707 .08126831 .2999878 .011245728 .23399353 .011245728 .18299866 .011245728 .17199707 .055267335 .17199707 .0922699 .17199707 .1382904 .18899536 .20030213 .22299195 .28833009 .23899842 .3293457 .24299622 .3403473 .24299622 .36035157 .24299622 .405365 .21099854 .4423828 .16099549 .4423828 .06599426 .4423828 .0289917 .29733277 .0289917 .28833009 .0289917 .27833558 .038986207 .27833558 .040985109 .27833558 .050994874 .27833558 .051986696 .28033448 .056991579 .29634095 .083999637 .3903656 .12399292 .42037965 .1579895 .42037965 .1659851 .42037965 .18299866 .42037965 .18299866 .3883667 .18299866 .36335755 .17298889 .3373413 .1659851 .31834413 .12599182 .21231079 .10798645 .1552887 .10798645 .10827637 .10798645 .019256592 .17098999-.0107421879 .22999573-.0107421879 .2689972-.0107421879 .30299378 .0062561037 .33099366 .03425598 .31799317-.017745972 .30599977-.06674194 .2659912-.11973572 .23999024-.15385437 .20199585-.18309021 .1559906-.18309021 .14199829-.18309021 .09700012-.18005371 .07998657-.14074707 .09599304-.14074707 .10899353-.14074707 .12298584-.1287384 .1329956-.11973572 .14299011-.10673523 .14299011-.08773804 .14299011-.056747438 .115997318-.052734376 .10598755-.052734376 .08299255-.052734376 .049987794-.068740848 .049987794-.11773682 .049987794-.16796875 .09399414-.20507813 .1559906-.20507813 .25898744-.20507813 .3619995-.11373901 .3899994-.00074768069L.48599244 .38136292Z"/>
<path id="font_2_1" d="M.6589966 .23046875C.6759949 .23046875 .69400027 .23046875 .69400027 .25045777 .69400027 .27046205 .6759949 .27046205 .6589966 .27046205H.117996219C.100997928 .27046205 .08299255 .27046205 .08299255 .25045777 .08299255 .23046875 .100997928 .23046875 .117996219 .23046875H.6589966Z"/>
<path id="font_3_1" d="M.2939911 .64004519C.2939911 .66400149 .2939911 .6660156 .2709961 .6660156 .20899964 .60227969 .12098694 .60227969 .08898926 .60227969V.57128909C.10899353 .57128909 .16799927 .57128909 .21998596 .5972748V.07902527C.21998596 .042999269 .21699524 .0309906 .1269989 .0309906H.09498596V0C.12998963 .0029907227 .21699524 .0029907227 .25698854 .0029907227 .29699708 .0029907227 .38398744 .0029907227 .4189911 0V.0309906H.3869934C.29699708 .0309906 .2939911 .041992189 .2939911 .07902527V.64004519Z"/>
<path id="font_3_2" d="M.1269989 .07699585 .23298645 .18003845C.3889923 .31811524 .44898988 .3721466 .44898988 .47216798 .44898988 .5860901 .35899354 .6660156 .23699951 .6660156 .12399292 .6660156 .049987794 .57411196 .049987794 .48516847 .049987794 .4291687 .099990848 .4291687 .102996829 .4291687 .11999512 .4291687 .15499878 .44117738 .15499878 .48217774 .15499878 .5081787 .13699341 .5341797 .101989749 .5341797 .09399414 .5341797 .09199524 .5341797 .08898926 .5331726 .11199951 .59806826 .1659851 .63500979 .22399903 .63500979 .31498719 .63500979 .35798646 .5541382 .35798646 .47216798 .35798646 .39215089 .30799867 .31311036 .25299073 .25108338L.06098938 .036987306C.049987794 .025985718 .049987794 .023986817 .049987794 0H.42099L.44898988 .17404175H.42399598C.4189911 .14402771 .4119873 .1000061 .4019928 .084991458 .394989 .07699585 .32899476 .07699585 .30699159 .07699585H.1269989Z"/>
</defs>
<path transform="matrix(1.00003,0,0,-1.00003,79.42685,78.53587)" stroke-width=".79701" stroke-linecap="butt" stroke-dasharray=".79701,1.99255" stroke-miterlimit="10" stroke-linejoin="miter" fill="none" stroke="#cbcbcb" d="M-76.53586-76.53586H76.53586M-76.53586-51.0239H76.53586M-76.53586-25.51193H76.53586M-76.53586 0H76.53586M-76.53586 25.51193H76.53586M-76.53586 51.0239H76.53586M-76.53586 76.52689H76.53586M-76.53586-76.53586V76.53586M-51.0239-76.53586V76.53586M-25.51193-76.53586V76.53586M0-76.53586V76.53586M25.51193-76.53586V76.53586M51.0239-76.53586V76.53586M76.52689-76.53586V76.53586M76.53586 76.53586"/>
<path transform="matrix(1.00003,0,0,-1.00003,79.42685,78.53587)" stroke-width=".29887" stroke-linecap="butt" stroke-miterlimit="10" stroke-linejoin="miter" fill="none" stroke="#424242" d="M-25.51193 0H73.21829"/>
<path transform="matrix(1.00003,0,0,-1.00003,152.64734,78.53587)" d="M3.31755 0C2.33455 .1843 .73723 .73723-.3686 1.38231V-1.38231C.73723-.73723 2.33455-.1843 3.31755 0" fill="#424242"/>
<use data-text="x" xlink:href="#font_1_1" transform="matrix(9.962899,0,0,-9.962899,146.73987,86.296108)" fill="#424242"/>
<path transform="matrix(1.00003,0,0,-1.00003,79.42685,78.53587)" stroke-width=".29887" stroke-linecap="butt" stroke-miterlimit="10" stroke-linejoin="miter" fill="none" stroke="#424242" d="M0 0H-73.21829"/>
<path transform="matrix(-1.00003,-0,0,1.00003,6.20636,78.53587)" d="M3.31755 0C2.33455 .1843 .73723 .73723-.3686 1.38231V-1.38231C.73723-.73723 2.33455-.1843 3.31755 0" fill="#424242"/>
<path transform="matrix(1.00003,0,0,-1.00003,79.42685,78.53587)" stroke-width=".29887" stroke-linecap="butt" stroke-miterlimit="10" stroke-linejoin="miter" fill="none" stroke="#424242" d="M0-25.51193V73.21829"/>
<path transform="matrix(0,-1.00003,-1.00003,-0,79.42685,5.315384)" d="M3.31755 0C2.33455 .1843 .73723 .73723-.3686 1.38231V-1.38231C.73723-.73723 2.33455-.1843 3.31755 0" fill="#424242"/>
<use data-text="y" xlink:href="#font_1_2" transform="matrix(9.962899,0,0,-9.962899,82.89696,9.551796)" fill="#424242"/>
<path transform="matrix(1.00003,0,0,-1.00003,79.42685,78.53587)" stroke-width=".29887" stroke-linecap="butt" stroke-miterlimit="10" stroke-linejoin="miter" fill="none" stroke="#424242" d="M0 0V-73.21829"/>
<path transform="matrix(0,1.00003,1.00003,0,79.42685,151.75637)" d="M3.31755 0C2.33455 .1843 .73723 .73723-.3686 1.38231V-1.38231C.73723-.73723 2.33455-.1843 3.31755 0" fill="#424242"/>
<path transform="matrix(1.00003,0,0,-1.00003,79.42685,78.53587)" d="M2.68993 25.51193C2.68993 26.99754 1.48561 28.20187 0 28.20187-1.48561 28.20187-2.68993 26.99754-2.68993 25.51193-2.68993 24.02632-1.48561 22.822 0 22.822 1.48561 22.822 2.68993 24.02632 2.68993 25.51193ZM0 25.51193" fill="#ff0000"/>
<path transform="matrix(1.00003,0,0,-1.00003,79.42685,78.53587)" d="M2.68993-25.51193C2.68993-24.02632 1.48561-22.822 0-22.822-1.48561-22.822-2.68993-24.02632-2.68993-25.51193-2.68993-26.99754-1.48561-28.20187 0-28.20187 1.48561-28.20187 2.68993-26.99754 2.68993-25.51193ZM0-25.51193" fill="#ff0000"/>
<path transform="matrix(1.00003,0,0,-1.00003,79.42685,78.53587)" stroke-width=".79701" stroke-linecap="butt" stroke-miterlimit="10" stroke-linejoin="miter" fill="none" stroke="#0074c8" d="M-63.77986-63.77986H-73.46786"/>
<path transform="matrix(-1.00003,-0,0,1.00003,5.956787,142.31766)" d="M4.66248 0C3.28098 .25902 1.0361 1.0361-.51805 1.94269V-1.94269C1.0361-1.0361 3.28098-.25902 4.66248 0" fill="#0074c8"/>
<path transform="matrix(1.00003,0,0,-1.00003,79.42685,78.53587)" stroke-width=".79701" stroke-linecap="butt" stroke-miterlimit="10" stroke-linejoin="miter" fill="none" stroke="#0074c8" d="M-38.26791-63.77986H-47.95592"/>
<path transform="matrix(-1.00003,-0,0,1.00003,31.469487,142.31766)" d="M4.66248 0C3.28098 .25902 1.0361 1.0361-.51805 1.94269V-1.94269C1.0361-1.0361 3.28098-.25902 4.66248 0" fill="#0074c8"/>
<path transform="matrix(1.00003,0,0,-1.00003,79.42685,78.53587)" stroke-width=".79701" stroke-linecap="butt" stroke-miterlimit="10" stroke-linejoin="miter" fill="none" stroke="#0074c8" d="M-12.75595-63.77986H-22.44395"/>
<path transform="matrix(-1.00003,-0,0,1.00003,56.982225,142.31766)" d="M4.66248 0C3.28098 .25902 1.0361 1.0361-.51805 1.94269V-1.94269C1.0361-1.0361 3.28098-.25902 4.66248 0" fill="#0074c8"/>
<path transform="matrix(1.00003,0,0,-1.00003,79.42685,78.53587)" stroke-width=".79701" stroke-linecap="butt" stroke-miterlimit="10" stroke-linejoin="miter" fill="none" stroke="#0074c8" d="M12.75595-63.77986H3.06798"/>
<path transform="matrix(-1.00003,-0,0,1.00003,82.49492,142.31766)" d="M4.66248 0C3.28098 .25902 1.0361 1.0361-.51805 1.94269V-1.94269C1.0361-1.0361 3.28098-.25902 4.66248 0" fill="#0074c8"/>
<path transform="matrix(1.00003,0,0,-1.00003,79.42685,78.53587)" stroke-width=".79701" stroke-linecap="butt" stroke-miterlimit="10" stroke-linejoin="miter" fill="none" stroke="#0074c8" d="M38.26791-63.77986H28.57991"/>
<path transform="matrix(-1.00003,-0,0,1.00003,108.007617,142.31766)" d="M4.66248 0C3.28098 .25902 1.0361 1.0361-.51805 1.94269V-1.94269C1.0361-1.0361 3.28098-.25902 4.66248 0" fill="#0074c8"/>
<path transform="matrix(1.00003,0,0,-1.00003,79.42685,78.53587)" stroke-width=".79701" stroke-linecap="butt" stroke-miterlimit="10" stroke-linejoin="miter" fill="none" stroke="#0074c8" d="M63.77986-63.77986H54.09187"/>
<path transform="matrix(-1.00003,-0,0,1.00003,133.52034,142.31766)" d="M4.66248 0C3.28098 .25902 1.0361 1.0361-.51805 1.94269V-1.94269C1.0361-1.0361 3.28098-.25902 4.66248 0" fill="#0074c8"/>
<path transform="matrix(1.00003,0,0,-1.00003,79.42685,78.53587)" stroke-width=".79701" stroke-linecap="butt" stroke-miterlimit="10" stroke-linejoin="miter" fill="none" stroke="#0074c8" d="M-63.77986-51.0239H-68.18736"/>
<path transform="matrix(1.00003,0,0,-1.00003,11.237442,129.56131)" d="M4.66248 0C3.28098 .25902 1.0361 1.0361-.51805 1.94269V-1.94269C1.0361-1.0361 3.28098-.25902 4.66248 0" fill="#0074c8"/>
<path transform="matrix(1.00003,0,0,-1.00003,79.42685,78.53587)" stroke-width=".79701" stroke-linecap="butt" stroke-miterlimit="10" stroke-linejoin="miter" fill="none" stroke="#0074c8" d="M-38.26791-51.0239H-42.6754"/>
<path transform="matrix(1.00003,0,0,-1.00003,36.750169,129.56131)" d="M4.66248 0C3.28098 .25902 1.0361 1.0361-.51805 1.94269V-1.94269C1.0361-1.0361 3.28098-.25902 4.66248 0" fill="#0074c8"/>
<path transform="matrix(1.00003,0,0,-1.00003,79.42685,78.53587)" stroke-width=".79701" stroke-linecap="butt" stroke-miterlimit="10" stroke-linejoin="miter" fill="none" stroke="#0074c8" d="M-12.75595-51.0239H-17.16345"/>
<path transform="matrix(1.00003,0,0,-1.00003,62.262887,129.56131)" d="M4.66248 0C3.28098 .25902 1.0361 1.0361-.51805 1.94269V-1.94269C1.0361-1.0361 3.28098-.25902 4.66248 0" fill="#0074c8"/>
<path transform="matrix(1.00003,0,0,-1.00003,79.42685,78.53587)" stroke-width=".79701" stroke-linecap="butt" stroke-miterlimit="10" stroke-linejoin="miter" fill="none" stroke="#0074c8" d="M12.75595-51.0239H8.34846"/>
<path transform="matrix(1.00003,0,0,-1.00003,87.77556,129.56131)" d="M4.66248 0C3.28098 .25902 1.0361 1.0361-.51805 1.94269V-1.94269C1.0361-1.0361 3.28098-.25902 4.66248 0" fill="#0074c8"/>
<path transform="matrix(1.00003,0,0,-1.00003,79.42685,78.53587)" stroke-width=".79701" stroke-linecap="butt" stroke-miterlimit="10" stroke-linejoin="miter" fill="none" stroke="#0074c8" d="M38.26791-51.0239H33.86043"/>
<path transform="matrix(1.00003,0,0,-1.00003,113.2883,129.56131)" d="M4.66248 0C3.28098 .25902 1.0361 1.0361-.51805 1.94269V-1.94269C1.0361-1.0361 3.28098-.25902 4.66248 0" fill="#0074c8"/>
<path transform="matrix(1.00003,0,0,-1.00003,79.42685,78.53587)" stroke-width=".79701" stroke-linecap="butt" stroke-miterlimit="10" stroke-linejoin="miter" fill="none" stroke="#0074c8" d="M63.77986-51.0239H59.37238"/>
<path transform="matrix(1.00003,0,0,-1.00003,138.80101,129.56131)" d="M4.66248 0C3.28098 .25902 1.0361 1.0361-.51805 1.94269V-1.94269C1.0361-1.0361 3.28098-.25902 4.66248 0" fill="#0074c8"/>
<path transform="matrix(1.00003,0,0,-1.00003,79.42685,78.53587)" stroke-width=".79701" stroke-linecap="butt" stroke-miterlimit="10" stroke-linejoin="miter" fill="none" stroke="#0074c8" d="M-63.77986-38.26791H-57.28087"/>
<path transform="matrix(1.00003,0,0,-1.00003,22.14426,116.80493)" d="M4.66248 0C3.28098 .25902 1.0361 1.0361-.51805 1.94269V-1.94269C1.0361-1.0361 3.28098-.25902 4.66248 0" fill="#0074c8"/>
<path transform="matrix(1.00003,0,0,-1.00003,79.42685,78.53587)" stroke-width=".79701" stroke-linecap="butt" stroke-miterlimit="10" stroke-linejoin="miter" fill="none" stroke="#0074c8" d="M-38.26791-38.26791H-31.7689"/>
<path transform="matrix(1.00003,0,0,-1.00003,47.656999,116.80493)" d="M4.66248 0C3.28098 .25902 1.0361 1.0361-.51805 1.94269V-1.94269C1.0361-1.0361 3.28098-.25902 4.66248 0" fill="#0074c8"/>
<path transform="matrix(1.00003,0,0,-1.00003,79.42685,78.53587)" stroke-width=".79701" stroke-linecap="butt" stroke-miterlimit="10" stroke-linejoin="miter" fill="none" stroke="#0074c8" d="M-12.75595-38.26791H-6.25696"/>
<path transform="matrix(1.00003,0,0,-1.00003,73.1697,116.80493)" d="M4.66248 0C3.28098 .25902 1.0361 1.0361-.51805 1.94269V-1.94269C1.0361-1.0361 3.28098-.25902 4.66248 0" fill="#0074c8"/>
<path transform="matrix(1.00003,0,0,-1.00003,79.42685,78.53587)" stroke-width=".79701" stroke-linecap="butt" stroke-miterlimit="10" stroke-linejoin="miter" fill="none" stroke="#0074c8" d="M12.75595-38.26791H19.25496"/>
<path transform="matrix(1.00003,0,0,-1.00003,98.68239,116.80493)" d="M4.66248 0C3.28098 .25902 1.0361 1.0361-.51805 1.94269V-1.94269C1.0361-1.0361 3.28098-.25902 4.66248 0" fill="#0074c8"/>
<path transform="matrix(1.00003,0,0,-1.00003,79.42685,78.53587)" stroke-width=".79701" stroke-linecap="butt" stroke-miterlimit="10" stroke-linejoin="miter" fill="none" stroke="#0074c8" d="M38.26791-38.26791H44.76692"/>
<path transform="matrix(1.00003,0,0,-1.00003,124.195117,116.80493)" d="M4.66248 0C3.28098 .25902 1.0361 1.0361-.51805 1.94269V-1.94269C1.0361-1.0361 3.28098-.25902 4.66248 0" fill="#0074c8"/>
<path transform="matrix(1.00003,0,0,-1.00003,79.42685,78.53587)" stroke-width=".79701" stroke-linecap="butt" stroke-miterlimit="10" stroke-linejoin="miter" fill="none" stroke="#0074c8" d="M63.77986-38.26791H70.27887"/>
<path transform="matrix(1.00003,0,0,-1.00003,149.70783,116.80493)" d="M4.66248 0C3.28098 .25902 1.0361 1.0361-.51805 1.94269V-1.94269C1.0361-1.0361 3.28098-.25902 4.66248 0" fill="#0074c8"/>
<path transform="matrix(1.00003,0,0,-1.00003,79.42685,78.53587)" stroke-width=".79701" stroke-linecap="butt" stroke-miterlimit="10" stroke-linejoin="miter" fill="none" stroke="#0074c8" d="M-63.77986-25.51193H-49.30838"/>
<path transform="matrix(1.00003,0,0,-1.00003,30.11699,104.04857)" d="M4.66248 0C3.28098 .25902 1.0361 1.0361-.51805 1.94269V-1.94269C1.0361-1.0361 3.28098-.25902 4.66248 0" fill="#0074c8"/>
<path transform="matrix(1.00003,0,0,-1.00003,79.42685,78.53587)" stroke-width=".79701" stroke-linecap="butt" stroke-miterlimit="10" stroke-linejoin="miter" fill="none" stroke="#0074c8" d="M-38.26791-25.51193H-23.79642"/>
<path transform="matrix(1.00003,0,0,-1.00003,55.629716,104.04857)" d="M4.66248 0C3.28098 .25902 1.0361 1.0361-.51805 1.94269V-1.94269C1.0361-1.0361 3.28098-.25902 4.66248 0" fill="#0074c8"/>
<path transform="matrix(1.00003,0,0,-1.00003,79.42685,78.53587)" stroke-width=".79701" stroke-linecap="butt" stroke-miterlimit="10" stroke-linejoin="miter" fill="none" stroke="#0074c8" d="M-12.75595-25.51193H1.71548"/>
<path transform="matrix(1.00003,0,0,-1.00003,81.14238,104.04857)" d="M4.66248 0C3.28098 .25902 1.0361 1.0361-.51805 1.94269V-1.94269C1.0361-1.0361 3.28098-.25902 4.66248 0" fill="#0074c8"/>
<path transform="matrix(1.00003,0,0,-1.00003,79.42685,78.53587)" stroke-width=".79701" stroke-linecap="butt" stroke-miterlimit="10" stroke-linejoin="miter" fill="none" stroke="#0074c8" d="M12.75595-25.51193H27.22743"/>
<path transform="matrix(1.00003,0,0,-1.00003,106.6551,104.04857)" d="M4.66248 0C3.28098 .25902 1.0361 1.0361-.51805 1.94269V-1.94269C1.0361-1.0361 3.28098-.25902 4.66248 0" fill="#0074c8"/>
<path transform="matrix(1.00003,0,0,-1.00003,79.42685,78.53587)" stroke-width=".79701" stroke-linecap="butt" stroke-miterlimit="10" stroke-linejoin="miter" fill="none" stroke="#0074c8" d="M38.26791-25.51193H52.7394"/>
<path transform="matrix(1.00003,0,0,-1.00003,132.16783,104.04857)" d="M4.66248 0C3.28098 .25902 1.0361 1.0361-.51805 1.94269V-1.94269C1.0361-1.0361 3.28098-.25902 4.66248 0" fill="#0074c8"/>
<path transform="matrix(1.00003,0,0,-1.00003,79.42685,78.53587)" stroke-width=".79701" stroke-linecap="butt" stroke-miterlimit="10" stroke-linejoin="miter" fill="none" stroke="#0074c8" d="M63.77986-25.51193H78.25136"/>
<path transform="matrix(1.00003,0,0,-1.00003,157.68056,104.04857)" d="M4.66248 0C3.28098 .25902 1.0361 1.0361-.51805 1.94269V-1.94269C1.0361-1.0361 3.28098-.25902 4.66248 0" fill="#0074c8"/>
<path transform="matrix(1.00003,0,0,-1.00003,79.42685,78.53587)" stroke-width=".79701" stroke-linecap="butt" stroke-miterlimit="10" stroke-linejoin="miter" fill="none" stroke="#0074c8" d="M-63.77986-12.75595H-44.52489"/>
<path transform="matrix(1.00003,0,0,-1.00003,34.90062,91.292209)" d="M4.66248 0C3.28098 .25902 1.0361 1.0361-.51805 1.94269V-1.94269C1.0361-1.0361 3.28098-.25902 4.66248 0" fill="#0074c8"/>
<path transform="matrix(1.00003,0,0,-1.00003,79.42685,78.53587)" stroke-width=".79701" stroke-linecap="butt" stroke-miterlimit="10" stroke-linejoin="miter" fill="none" stroke="#0074c8" d="M-38.26791-12.75595H-19.01292"/>
<path transform="matrix(1.00003,0,0,-1.00003,60.41336,91.292209)" d="M4.66248 0C3.28098 .25902 1.0361 1.0361-.51805 1.94269V-1.94269C1.0361-1.0361 3.28098-.25902 4.66248 0" fill="#0074c8"/>
<path transform="matrix(1.00003,0,0,-1.00003,79.42685,78.53587)" stroke-width=".79701" stroke-linecap="butt" stroke-miterlimit="10" stroke-linejoin="miter" fill="none" stroke="#0074c8" d="M-12.75595-12.75595H6.499"/>
<path transform="matrix(1.00003,0,0,-1.00003,85.92604,91.292209)" d="M4.66248 0C3.28098 .25902 1.0361 1.0361-.51805 1.94269V-1.94269C1.0361-1.0361 3.28098-.25902 4.66248 0" fill="#0074c8"/>
<path transform="matrix(1.00003,0,0,-1.00003,79.42685,78.53587)" stroke-width=".79701" stroke-linecap="butt" stroke-miterlimit="10" stroke-linejoin="miter" fill="none" stroke="#0074c8" d="M12.75595-12.75595H32.01096"/>
<path transform="matrix(1.00003,0,0,-1.00003,111.43877,91.292209)" d="M4.66248 0C3.28098 .25902 1.0361 1.0361-.51805 1.94269V-1.94269C1.0361-1.0361 3.28098-.25902 4.66248 0" fill="#0074c8"/>
<path transform="matrix(1.00003,0,0,-1.00003,79.42685,78.53587)" stroke-width=".79701" stroke-linecap="butt" stroke-miterlimit="10" stroke-linejoin="miter" fill="none" stroke="#0074c8" d="M38.26791-12.75595H57.52289"/>
<path transform="matrix(1.00003,0,0,-1.00003,136.95146,91.292209)" d="M4.66248 0C3.28098 .25902 1.0361 1.0361-.51805 1.94269V-1.94269C1.0361-1.0361 3.28098-.25902 4.66248 0" fill="#0074c8"/>
<path transform="matrix(1.00003,0,0,-1.00003,79.42685,78.53587)" stroke-width=".79701" stroke-linecap="butt" stroke-miterlimit="10" stroke-linejoin="miter" fill="none" stroke="#0074c8" d="M63.77986-12.75595H83.03485"/>
<path transform="matrix(1.00003,0,0,-1.00003,162.4642,91.292209)" d="M4.66248 0C3.28098 .25902 1.0361 1.0361-.51805 1.94269V-1.94269C1.0361-1.0361 3.28098-.25902 4.66248 0" fill="#0074c8"/>
<path transform="matrix(1.00003,0,0,-1.00003,79.42685,78.53587)" stroke-width=".79701" stroke-linecap="butt" stroke-miterlimit="10" stroke-linejoin="miter" fill="none" stroke="#0074c8" d="M-63.77986 0H-42.93039"/>
<path transform="matrix(1.00003,0,0,-1.00003,36.49517,78.53587)" d="M4.66248 0C3.28098 .25902 1.0361 1.0361-.51805 1.94269V-1.94269C1.0361-1.0361 3.28098-.25902 4.66248 0" fill="#0074c8"/>
<path transform="matrix(1.00003,0,0,-1.00003,79.42685,78.53587)" stroke-width=".79701" stroke-linecap="butt" stroke-miterlimit="10" stroke-linejoin="miter" fill="none" stroke="#0074c8" d="M-38.26791 0H-17.41844"/>
<path transform="matrix(1.00003,0,0,-1.00003,62.00789,78.53587)" d="M4.66248 0C3.28098 .25902 1.0361 1.0361-.51805 1.94269V-1.94269C1.0361-1.0361 3.28098-.25902 4.66248 0" fill="#0074c8"/>
<path transform="matrix(1.00003,0,0,-1.00003,79.42685,78.53587)" stroke-width=".79701" stroke-linecap="butt" stroke-miterlimit="10" stroke-linejoin="miter" fill="none" stroke="#0074c8" d="M-12.75595 0H8.09348"/>
<path transform="matrix(1.00003,0,0,-1.00003,87.52057,78.53587)" d="M4.66248 0C3.28098 .25902 1.0361 1.0361-.51805 1.94269V-1.94269C1.0361-1.0361 3.28098-.25902 4.66248 0" fill="#0074c8"/>
<path transform="matrix(1.00003,0,0,-1.00003,79.42685,78.53587)" stroke-width=".79701" stroke-linecap="butt" stroke-miterlimit="10" stroke-linejoin="miter" fill="none" stroke="#0074c8" d="M12.75595 0H33.60544"/>
<path transform="matrix(1.00003,0,0,-1.00003,113.033298,78.53587)" d="M4.66248 0C3.28098 .25902 1.0361 1.0361-.51805 1.94269V-1.94269C1.0361-1.0361 3.28098-.25902 4.66248 0" fill="#0074c8"/>
<path transform="matrix(1.00003,0,0,-1.00003,79.42685,78.53587)" stroke-width=".79701" stroke-linecap="butt" stroke-miterlimit="10" stroke-linejoin="miter" fill="none" stroke="#0074c8" d="M38.26791 0H59.11739"/>
<path transform="matrix(1.00003,0,0,-1.00003,138.54602,78.53587)" d="M4.66248 0C3.28098 .25902 1.0361 1.0361-.51805 1.94269V-1.94269C1.0361-1.0361 3.28098-.25902 4.66248 0" fill="#0074c8"/>
<path transform="matrix(1.00003,0,0,-1.00003,79.42685,78.53587)" stroke-width=".79701" stroke-linecap="butt" stroke-miterlimit="10" stroke-linejoin="miter" fill="none" stroke="#0074c8" d="M63.77986 0H84.62935"/>
<path transform="matrix(1.00003,0,0,-1.00003,164.05875,78.53587)" d="M4.66248 0C3.28098 .25902 1.0361 1.0361-.51805 1.94269V-1.94269C1.0361-1.0361 3.28098-.25902 4.66248 0" fill="#0074c8"/>
<path transform="matrix(1.00003,0,0,-1.00003,79.42685,78.53587)" stroke-width=".79701" stroke-linecap="butt" stroke-miterlimit="10" stroke-linejoin="miter" fill="none" stroke="#0074c8" d="M-63.77986 12.75595H-44.52489"/>
<path transform="matrix(1.00003,0,0,-1.00003,34.90062,65.77954)" d="M4.66248 0C3.28098 .25902 1.0361 1.0361-.51805 1.94269V-1.94269C1.0361-1.0361 3.28098-.25902 4.66248 0" fill="#0074c8"/>
<path transform="matrix(1.00003,0,0,-1.00003,79.42685,78.53587)" stroke-width=".79701" stroke-linecap="butt" stroke-miterlimit="10" stroke-linejoin="miter" fill="none" stroke="#0074c8" d="M-38.26791 12.75595H-19.01292"/>
<path transform="matrix(1.00003,0,0,-1.00003,60.41336,65.77954)" d="M4.66248 0C3.28098 .25902 1.0361 1.0361-.51805 1.94269V-1.94269C1.0361-1.0361 3.28098-.25902 4.66248 0" fill="#0074c8"/>
<path transform="matrix(1.00003,0,0,-1.00003,79.42685,78.53587)" stroke-width=".79701" stroke-linecap="butt" stroke-miterlimit="10" stroke-linejoin="miter" fill="none" stroke="#0074c8" d="M-12.75595 12.75595H6.499"/>
<path transform="matrix(1.00003,0,0,-1.00003,85.92604,65.77954)" d="M4.66248 0C3.28098 .25902 1.0361 1.0361-.51805 1.94269V-1.94269C1.0361-1.0361 3.28098-.25902 4.66248 0" fill="#0074c8"/>
<path transform="matrix(1.00003,0,0,-1.00003,79.42685,78.53587)" stroke-width=".79701" stroke-linecap="butt" stroke-miterlimit="10" stroke-linejoin="miter" fill="none" stroke="#0074c8" d="M12.75595 12.75595H32.01096"/>
<path transform="matrix(1.00003,0,0,-1.00003,111.43877,65.77954)" d="M4.66248 0C3.28098 .25902 1.0361 1.0361-.51805 1.94269V-1.94269C1.0361-1.0361 3.28098-.25902 4.66248 0" fill="#0074c8"/>
<path transform="matrix(1.00003,0,0,-1.00003,79.42685,78.53587)" stroke-width=".79701" stroke-linecap="butt" stroke-miterlimit="10" stroke-linejoin="miter" fill="none" stroke="#0074c8" d="M38.26791 12.75595H57.52289"/>
<path transform="matrix(1.00003,0,0,-1.00003,136.95146,65.77954)" d="M4.66248 0C3.28098 .25902 1.0361 1.0361-.51805 1.94269V-1.94269C1.0361-1.0361 3.28098-.25902 4.66248 0" fill="#0074c8"/>
<path transform="matrix(1.00003,0,0,-1.00003,79.42685,78.53587)" stroke-width=".79701" stroke-linecap="butt" stroke-miterlimit="10" stroke-linejoin="miter" fill="none" stroke="#0074c8" d="M63.77986 12.75595H83.03485"/>
<path transform="matrix(1.00003,0,0,-1.00003,162.4642,65.77954)" d="M4.66248 0C3.28098 .25902 1.0361 1.0361-.51805 1.94269V-1.94269C1.0361-1.0361 3.28098-.25902 4.66248 0" fill="#0074c8"/>
<path transform="matrix(1.00003,0,0,-1.00003,79.42685,78.53587)" stroke-width=".79701" stroke-linecap="butt" stroke-miterlimit="10" stroke-linejoin="miter" fill="none" stroke="#0074c8" d="M-63.77986 25.51193H-49.30838"/>
<path transform="matrix(1.00003,0,0,-1.00003,30.11699,53.02318)" d="M4.66248 0C3.28098 .25902 1.0361 1.0361-.51805 1.94269V-1.94269C1.0361-1.0361 3.28098-.25902 4.66248 0" fill="#0074c8"/>
<path transform="matrix(1.00003,0,0,-1.00003,79.42685,78.53587)" stroke-width=".79701" stroke-linecap="butt" stroke-miterlimit="10" stroke-linejoin="miter" fill="none" stroke="#0074c8" d="M-38.26791 25.51193H-23.79642"/>
<path transform="matrix(1.00003,0,0,-1.00003,55.629716,53.02318)" d="M4.66248 0C3.28098 .25902 1.0361 1.0361-.51805 1.94269V-1.94269C1.0361-1.0361 3.28098-.25902 4.66248 0" fill="#0074c8"/>
<path transform="matrix(1.00003,0,0,-1.00003,79.42685,78.53587)" stroke-width=".79701" stroke-linecap="butt" stroke-miterlimit="10" stroke-linejoin="miter" fill="none" stroke="#0074c8" d="M-12.75595 25.51193H1.71548"/>
<path transform="matrix(1.00003,0,0,-1.00003,81.14238,53.02318)" d="M4.66248 0C3.28098 .25902 1.0361 1.0361-.51805 1.94269V-1.94269C1.0361-1.0361 3.28098-.25902 4.66248 0" fill="#0074c8"/>
<path transform="matrix(1.00003,0,0,-1.00003,79.42685,78.53587)" stroke-width=".79701" stroke-linecap="butt" stroke-miterlimit="10" stroke-linejoin="miter" fill="none" stroke="#0074c8" d="M12.75595 25.51193H27.22743"/>
<path transform="matrix(1.00003,0,0,-1.00003,106.6551,53.02318)" d="M4.66248 0C3.28098 .25902 1.0361 1.0361-.51805 1.94269V-1.94269C1.0361-1.0361 3.28098-.25902 4.66248 0" fill="#0074c8"/>
<path transform="matrix(1.00003,0,0,-1.00003,79.42685,78.53587)" stroke-width=".79701" stroke-linecap="butt" stroke-miterlimit="10" stroke-linejoin="miter" fill="none" stroke="#0074c8" d="M38.26791 25.51193H52.7394"/>
<path transform="matrix(1.00003,0,0,-1.00003,132.16783,53.02318)" d="M4.66248 0C3.28098 .25902 1.0361 1.0361-.51805 1.94269V-1.94269C1.0361-1.0361 3.28098-.25902 4.66248 0" fill="#0074c8"/>
<path transform="matrix(1.00003,0,0,-1.00003,79.42685,78.53587)" stroke-width=".79701" stroke-linecap="butt" stroke-miterlimit="10" stroke-linejoin="miter" fill="none" stroke="#0074c8" d="M63.77986 25.51193H78.25136"/>
<path transform="matrix(1.00003,0,0,-1.00003,157.68056,53.02318)" d="M4.66248 0C3.28098 .25902 1.0361 1.0361-.51805 1.94269V-1.94269C1.0361-1.0361 3.28098-.25902 4.66248 0" fill="#0074c8"/>
<path transform="matrix(1.00003,0,0,-1.00003,79.42685,78.53587)" stroke-width=".79701" stroke-linecap="butt" stroke-miterlimit="10" stroke-linejoin="miter" fill="none" stroke="#0074c8" d="M-63.77986 38.26791H-57.28087"/>
<path transform="matrix(1.00003,0,0,-1.00003,22.14426,40.266817)" d="M4.66248 0C3.28098 .25902 1.0361 1.0361-.51805 1.94269V-1.94269C1.0361-1.0361 3.28098-.25902 4.66248 0" fill="#0074c8"/>
<path transform="matrix(1.00003,0,0,-1.00003,79.42685,78.53587)" stroke-width=".79701" stroke-linecap="butt" stroke-miterlimit="10" stroke-linejoin="miter" fill="none" stroke="#0074c8" d="M-38.26791 38.26791H-31.7689"/>
<path transform="matrix(1.00003,0,0,-1.00003,47.656999,40.266817)" d="M4.66248 0C3.28098 .25902 1.0361 1.0361-.51805 1.94269V-1.94269C1.0361-1.0361 3.28098-.25902 4.66248 0" fill="#0074c8"/>
<path transform="matrix(1.00003,0,0,-1.00003,79.42685,78.53587)" stroke-width=".79701" stroke-linecap="butt" stroke-miterlimit="10" stroke-linejoin="miter" fill="none" stroke="#0074c8" d="M-12.75595 38.26791H-6.25696"/>
<path transform="matrix(1.00003,0,0,-1.00003,73.1697,40.266817)" d="M4.66248 0C3.28098 .25902 1.0361 1.0361-.51805 1.94269V-1.94269C1.0361-1.0361 3.28098-.25902 4.66248 0" fill="#0074c8"/>
<path transform="matrix(1.00003,0,0,-1.00003,79.42685,78.53587)" stroke-width=".79701" stroke-linecap="butt" stroke-miterlimit="10" stroke-linejoin="miter" fill="none" stroke="#0074c8" d="M12.75595 38.26791H19.25496"/>
<path transform="matrix(1.00003,0,0,-1.00003,98.68239,40.266817)" d="M4.66248 0C3.28098 .25902 1.0361 1.0361-.51805 1.94269V-1.94269C1.0361-1.0361 3.28098-.25902 4.66248 0" fill="#0074c8"/>
<path transform="matrix(1.00003,0,0,-1.00003,79.42685,78.53587)" stroke-width=".79701" stroke-linecap="butt" stroke-miterlimit="10" stroke-linejoin="miter" fill="none" stroke="#0074c8" d="M38.26791 38.26791H44.76692"/>
<path transform="matrix(1.00003,0,0,-1.00003,124.195117,40.266817)" d="M4.66248 0C3.28098 .25902 1.0361 1.0361-.51805 1.94269V-1.94269C1.0361-1.0361 3.28098-.25902 4.66248 0" fill="#0074c8"/>
<path transform="matrix(1.00003,0,0,-1.00003,79.42685,78.53587)" stroke-width=".79701" stroke-linecap="butt" stroke-miterlimit="10" stroke-linejoin="miter" fill="none" stroke="#0074c8" d="M63.77986 38.26791H70.27887"/>
<path transform="matrix(1.00003,0,0,-1.00003,149.70783,40.266817)" d="M4.66248 0C3.28098 .25902 1.0361 1.0361-.51805 1.94269V-1.94269C1.0361-1.0361 3.28098-.25902 4.66248 0" fill="#0074c8"/>
<path transform="matrix(1.00003,0,0,-1.00003,79.42685,78.53587)" stroke-width=".79701" stroke-linecap="butt" stroke-miterlimit="10" stroke-linejoin="miter" fill="none" stroke="#0074c8" d="M-63.77986 51.0239H-68.18736"/>
<path transform="matrix(1.00003,0,0,-1.00003,11.237442,27.51044)" d="M4.66248 0C3.28098 .25902 1.0361 1.0361-.51805 1.94269V-1.94269C1.0361-1.0361 3.28098-.25902 4.66248 0" fill="#0074c8"/>
<path transform="matrix(1.00003,0,0,-1.00003,79.42685,78.53587)" stroke-width=".79701" stroke-linecap="butt" stroke-miterlimit="10" stroke-linejoin="miter" fill="none" stroke="#0074c8" d="M-38.26791 51.0239H-42.6754"/>
<path transform="matrix(1.00003,0,0,-1.00003,36.750169,27.51044)" d="M4.66248 0C3.28098 .25902 1.0361 1.0361-.51805 1.94269V-1.94269C1.0361-1.0361 3.28098-.25902 4.66248 0" fill="#0074c8"/>
<path transform="matrix(1.00003,0,0,-1.00003,79.42685,78.53587)" stroke-width=".79701" stroke-linecap="butt" stroke-miterlimit="10" stroke-linejoin="miter" fill="none" stroke="#0074c8" d="M-12.75595 51.0239H-17.16345"/>
<path transform="matrix(1.00003,0,0,-1.00003,62.262887,27.51044)" d="M4.66248 0C3.28098 .25902 1.0361 1.0361-.51805 1.94269V-1.94269C1.0361-1.0361 3.28098-.25902 4.66248 0" fill="#0074c8"/>
<path transform="matrix(1.00003,0,0,-1.00003,79.42685,78.53587)" stroke-width=".79701" stroke-linecap="butt" stroke-miterlimit="10" stroke-linejoin="miter" fill="none" stroke="#0074c8" d="M12.75595 51.0239H8.34846"/>
<path transform="matrix(1.00003,0,0,-1.00003,87.77556,27.51044)" d="M4.66248 0C3.28098 .25902 1.0361 1.0361-.51805 1.94269V-1.94269C1.0361-1.0361 3.28098-.25902 4.66248 0" fill="#0074c8"/>
<path transform="matrix(1.00003,0,0,-1.00003,79.42685,78.53587)" stroke-width=".79701" stroke-linecap="butt" stroke-miterlimit="10" stroke-linejoin="miter" fill="none" stroke="#0074c8" d="M38.26791 51.0239H33.86043"/>
<path transform="matrix(1.00003,0,0,-1.00003,113.2883,27.51044)" d="M4.66248 0C3.28098 .25902 1.0361 1.0361-.51805 1.94269V-1.94269C1.0361-1.0361 3.28098-.25902 4.66248 0" fill="#0074c8"/>
<path transform="matrix(1.00003,0,0,-1.00003,79.42685,78.53587)" stroke-width=".79701" stroke-linecap="butt" stroke-miterlimit="10" stroke-linejoin="miter" fill="none" stroke="#0074c8" d="M63.77986 51.0239H59.37238"/>
<path transform="matrix(1.00003,0,0,-1.00003,138.80101,27.51044)" d="M4.66248 0C3.28098 .25902 1.0361 1.0361-.51805 1.94269V-1.94269C1.0361-1.0361 3.28098-.25902 4.66248 0" fill="#0074c8"/>
<path transform="matrix(1.00003,0,0,-1.00003,79.42685,78.53587)" stroke-width=".79701" stroke-linecap="butt" stroke-miterlimit="10" stroke-linejoin="miter" fill="none" stroke="#0074c8" d="M-63.77986 63.77986H-73.46786"/>
<path transform="matrix(-1.00003,-0,0,1.00003,5.956787,14.754097)" d="M4.66248 0C3.28098 .25902 1.0361 1.0361-.51805 1.94269V-1.94269C1.0361-1.0361 3.28098-.25902 4.66248 0" fill="#0074c8"/>
<path transform="matrix(1.00003,0,0,-1.00003,79.42685,78.53587)" stroke-width=".79701" stroke-linecap="butt" stroke-miterlimit="10" stroke-linejoin="miter" fill="none" stroke="#0074c8" d="M-38.26791 63.77986H-47.95592"/>
<path transform="matrix(-1.00003,-0,0,1.00003,31.469487,14.754097)" d="M4.66248 0C3.28098 .25902 1.0361 1.0361-.51805 1.94269V-1.94269C1.0361-1.0361 3.28098-.25902 4.66248 0" fill="#0074c8"/>
<path transform="matrix(1.00003,0,0,-1.00003,79.42685,78.53587)" stroke-width=".79701" stroke-linecap="butt" stroke-miterlimit="10" stroke-linejoin="miter" fill="none" stroke="#0074c8" d="M-12.75595 63.77986H-22.44395"/>
<path transform="matrix(-1.00003,-0,0,1.00003,56.982225,14.754097)" d="M4.66248 0C3.28098 .25902 1.0361 1.0361-.51805 1.94269V-1.94269C1.0361-1.0361 3.28098-.25902 4.66248 0" fill="#0074c8"/>
<path transform="matrix(1.00003,0,0,-1.00003,79.42685,78.53587)" stroke-width=".79701" stroke-linecap="butt" stroke-miterlimit="10" stroke-linejoin="miter" fill="none" stroke="#0074c8" d="M12.75595 63.77986H3.06798"/>
<path transform="matrix(-1.00003,-0,0,1.00003,82.49492,14.754097)" d="M4.66248 0C3.28098 .25902 1.0361 1.0361-.51805 1.94269V-1.94269C1.0361-1.0361 3.28098-.25902 4.66248 0" fill="#0074c8"/>
<path transform="matrix(1.00003,0,0,-1.00003,79.42685,78.53587)" stroke-width=".79701" stroke-linecap="butt" stroke-miterlimit="10" stroke-linejoin="miter" fill="none" stroke="#0074c8" d="M38.26791 63.77986H28.57991"/>
<path transform="matrix(-1.00003,-0,0,1.00003,108.007617,14.754097)" d="M4.66248 0C3.28098 .25902 1.0361 1.0361-.51805 1.94269V-1.94269C1.0361-1.0361 3.28098-.25902 4.66248 0" fill="#0074c8"/>
<path transform="matrix(1.00003,0,0,-1.00003,79.42685,78.53587)" stroke-width=".79701" stroke-linecap="butt" stroke-miterlimit="10" stroke-linejoin="miter" fill="none" stroke="#0074c8" d="M63.77986 63.77986H54.09187"/>
<path transform="matrix(-1.00003,-0,0,1.00003,133.52034,14.754097)" d="M4.66248 0C3.28098 .25902 1.0361 1.0361-.51805 1.94269V-1.94269C1.0361-1.0361 3.28098-.25902 4.66248 0" fill="#0074c8"/>
<path transform="matrix(1.00003,0,0,-1.00003,79.42685,78.53587)" stroke-width=".79701" stroke-linecap="butt" stroke-miterlimit="10" stroke-linejoin="miter" fill="none" stroke="#000000" d="M-25.51193 2.68993V-2.68993"/>
<use data-text="&#x2212;" xlink:href="#font_2_1" transform="matrix(9.962899,0,0,-9.962899,47.54889,91.36526)"/>
<use data-text="1" xlink:href="#font_3_1" transform="matrix(9.962899,0,0,-9.962899,55.29811,91.36526)"/>
<path transform="matrix(1.00003,0,0,-1.00003,79.42685,78.53587)" stroke-width=".79701" stroke-linecap="butt" stroke-miterlimit="10" stroke-linejoin="miter" fill="none" stroke="#000000" d="M-51.0239 2.68993V-2.68993"/>
<use data-text="&#x2212;" xlink:href="#font_2_1" transform="matrix(9.962899,0,0,-9.962899,22.036118,91.36526)"/>
<use data-text="2" xlink:href="#font_3_2" transform="matrix(9.962899,0,0,-9.962899,29.78534,91.36526)"/>
<path transform="matrix(1.00003,0,0,-1.00003,79.42685,78.53587)" stroke-width=".79701" stroke-linecap="butt" stroke-miterlimit="10" stroke-linejoin="miter" fill="none" stroke="#000000" d="M25.51193 2.68993V-2.68993"/>
<use data-text="1" xlink:href="#font_3_1" transform="matrix(9.962899,0,0,-9.962899,102.44854,91.36526)"/>
<path transform="matrix(1.00003,0,0,-1.00003,79.42685,78.53587)" stroke-width=".79701" stroke-linecap="butt" stroke-miterlimit="10" stroke-linejoin="miter" fill="none" stroke="#000000" d="M51.0239 2.68993V-2.68993"/>
<use data-text="2" xlink:href="#font_3_2" transform="matrix(9.962899,0,0,-9.962899,127.9613,91.36526)"/>
<path transform="matrix(1.00003,0,0,-1.00003,79.42685,78.53587)" stroke-width=".79701" stroke-linecap="butt" stroke-miterlimit="10" stroke-linejoin="miter" fill="none" stroke="#000000" d="M-1.79327-51.0239H1.79327"/>
<use data-text="&#x2212;" xlink:href="#font_2_1" transform="matrix(9.962899,0,0,-9.962899,64.77041,132.35649)"/>
<use data-text="2" xlink:href="#font_3_2" transform="matrix(9.962899,0,0,-9.962899,72.51963,132.35649)"/>
<path transform="matrix(1.00003,0,0,-1.00003,79.42685,78.53587)" stroke-width=".79701" stroke-linecap="butt" stroke-miterlimit="10" stroke-linejoin="miter" fill="none" stroke="#000000" d="M-1.79327-25.51193H1.79327"/>
<use data-text="&#x2212;" xlink:href="#font_2_1" transform="matrix(9.962899,0,0,-9.962899,64.77041,106.84372)"/>
<use data-text="1" xlink:href="#font_3_1" transform="matrix(9.962899,0,0,-9.962899,72.51963,106.84372)"/>
<path transform="matrix(1.00003,0,0,-1.00003,79.42685,78.53587)" stroke-width=".79701" stroke-linecap="butt" stroke-miterlimit="10" stroke-linejoin="miter" fill="none" stroke="#000000" d="M-1.79327 25.51193H1.79327"/>
<use data-text="1" xlink:href="#font_3_1" transform="matrix(9.962899,0,0,-9.962899,72.51964,56.233205)"/>
<path transform="matrix(1.00003,0,0,-1.00003,79.42685,78.53587)" stroke-width=".79701" stroke-linecap="butt" stroke-miterlimit="10" stroke-linejoin="miter" fill="none" stroke="#000000" d="M-1.79327 51.0239H1.79327"/>
<use data-text="2" xlink:href="#font_3_2" transform="matrix(9.962899,0,0,-9.962899,72.51964,30.720437)"/>
</svg>
