<svg xmlns="http://www.w3.org/2000/svg" xmlns:xlink="http://www.w3.org/1999/xlink" version="1.1" width="160pt" height="206pt" viewBox="0 0 160 206">
<defs>
<path id="font_1_2" d="M.33399964 .30233766C.33999635 .32835389 .36299134 .42037965 .43299867 .42037965 .43798829 .42037965 .46199037 .42037965 .48298646 .40734864 .45498658 .402359 .43499757 .37734986 .43499757 .35334779 .43499757 .33735658 .44599916 .31835938 .47299195 .31835938 .49499513 .31835938 .5269928 .3363495 .5269928 .37635804 .5269928 .42837525 .46798707 .4423828 .43399049 .4423828 .37599183 .4423828 .34098817 .38935853 .32899476 .36634828 .3039856 .43237306 .25 .4423828 .22099304 .4423828 .116989139 .4423828 .05999756 .3133545 .05999756 .28834535 .05999756 .27833558 .069992069 .27833558 .07199097 .27833558 .07998657 .27833558 .08299255 .28033448 .084991458 .28933717 .11898804 .39535523 .18499756 .42037965 .21899414 .42037965 .23799134 .42037965 .272995 .4113617 .272995 .35334779 .272995 .32235719 .2559967 .25532533 .21899414 .11528015 .20298767 .053268434 .16799927 .011245728 .12399292 .011245728 .117996219 .011245728 .09498596 .011245728 .07398987 .024276734 .09899902 .029266358 .12098694 .05027771 .12098694 .07827759 .12098694 .105270389 .09899902 .11328125 .083999637 .11328125 .053985597 .11328125 .0289917 .08728027 .0289917 .055267335 .0289917 .009246826 .07899475-.0107421879 .12298584-.0107421879 .18899536-.0107421879 .22499085 .059280397 .22799683 .0652771 .23999024 .028274537 .27598573-.0107421879 .33599855-.0107421879 .43899537-.0107421879 .49598695 .118270877 .49598695 .14328003 .49598695 .1532898 .4869995 .1532898 .48399354 .1532898 .47499085 .1532898 .47299195 .14929199 .47099305 .14228821 .43798829 .03527832 .36999513 .011245728 .33799745 .011245728 .29899598 .011245728 .2829895 .043273927 .2829895 .07727051 .2829895 .09927368 .2889862 .121276859 .2999878 .16529846L.33399964 .30233766Z"/>
<path id="font_1_3" d="M.48599244 .38136292C.48999024 .39537049 .48999024 .39736939 .48999024 .40437318 .48999024 .42237855 .47599793 .43138124 .46099855 .43138124 .45098878 .43138124 .43499757 .42536927 .42599488 .41036988 .42399598 .405365 .41600038 .37435914 .4119873 .35635377 .40499879 .33035279 .397995 .30334474 .3919983 .27633668L.34700013 .09628296C.34298707 .08126831 .2999878 .011245728 .23399353 .011245728 .18299866 .011245728 .17199707 .055267335 .17199707 .0922699 .17199707 .1382904 .18899536 .20030213 .22299195 .28833009 .23899842 .3293457 .24299622 .3403473 .24299622 .36035157 .24299622 .405365 .21099854 .4423828 .16099549 .4423828 .06599426 .4423828 .0289917 .29733277 .0289917 .28833009 .0289917 .27833558 .038986207 .27833558 .040985109 .27833558 .050994874 .27833558 .051986696 .28033448 .056991579 .29634095 .083999637 .3903656 .12399292 .42037965 .1579895 .42037965 .1659851 .42037965 .18299866 .42037965 .18299866 .3883667 .18299866 .36335755 .17298889 .3373413 .1659851 .31834413 .12599182 .21231079 .10798645 .1552887 .10798645 .10827637 .10798645 .019256592 .17098999-.0107421879 .22999573-.0107421879 .2689972-.0107421879 .30299378 .0062561037 .33099366 .03425598 .31799317-.017745972 .30599977-.06674194 .2659912-.11973572 .23999024-.15385437 .20199585-.18309021 .1559906-.18309021 .14199829-.18309021 .09700012-.18005371 .07998657-.14074707 .09599304-.14074707 .10899353-.14074707 .12298584-.1287384 .1329956-.11973572 .14299011-.10673523 .14299011-.08773804 .14299011-.056747438 .115997318-.052734376 .10598755-.052734376 .08299255-.052734376 .049987794-.068740848 .049987794-.11773682 .049987794-.16796875 .09399414-.20507813 .1559906-.20507813 .25898744-.20507813 .3619995-.11373901 .3899994-.00074768069L.48599244 .38136292Z"/>
<path id="font_1_1" d="M.7599945 .69506838C.7599945 .69807437 .7579956 .7050781 .7489929 .7050781 .74598696 .7050781 .7449951 .70407107 .73399356 .69306948L.6639862 .61602786C.6549988 .6300354 .60899356 .7050781 .49798585 .7050781 .2749939 .7050781 .049987794 .48391725 .049987794 .25172425 .049987794 .08659363 .16799927-.022460938 .32099916-.022460938 .4079895-.022460938 .48399354 .017532349 .5369873 .063583377 .6299896 .14564514 .6469879 .2367096 .6469879 .23971558 .6469879 .24972534 .6369934 .24972534 .6349945 .24972534 .6289978 .24972534 .6239929 .24772644 .621994 .23971558 .61299136 .21069336 .58999636 .13963318 .5209961 .081588748 .45199586 .025543213 .3889923 .008529663 .33699037 .008529663 .24699402 .008529663 .14099121 .060577394 .14099121 .21670532 .14099121 .27374269 .1619873 .43588258 .2619934 .55296328 .32299806 .62402346 .4169922 .67407229 .5059967 .67407229 .60798647 .67407229 .6669922 .5970001 .6669922 .48091126 .6669922 .44088746 .6639862 .43988038 .6639862 .4298706 .6639862 .41986085 .6749878 .41986085 .67900088 .41986085 .69200137 .41986085 .69200137 .42185975 .69699099 .43988038L.7599945 .69506838Z"/>
<path id="font_2_1" d="M.6589966 .23046875C.6759949 .23046875 .69400027 .23046875 .69400027 .25045777 .69400027 .27046205 .6759949 .27046205 .6589966 .27046205H.117996219C.100997928 .27046205 .08299255 .27046205 .08299255 .25045777 .08299255 .23046875 .100997928 .23046875 .117996219 .23046875H.6589966Z"/>
<path id="font_3_1" d="M.2939911 .64004519C.2939911 .66400149 .2939911 .6660156 .2709961 .6660156 .20899964 .60227969 .12098694 .60227969 .08898926 .60227969V.57128909C.10899353 .57128909 .16799927 .57128909 .21998596 .5972748V.07902527C.21998596 .042999269 .21699524 .0309906 .1269989 .0309906H.09498596V0C.12998963 .0029907227 .21699524 .0029907227 .25698854 .0029907227 .29699708 .0029907227 .38398744 .0029907227 .4189911 0V.0309906H.3869934C.29699708 .0309906 .2939911 .041992189 .2939911 .07902527V.64004519Z"/>
<path id="font_3_2" d="M.1269989 .07699585 .23298645 .18003845C.3889923 .31811524 .44898988 .3721466 .44898988 .47216798 .44898988 .5860901 .35899354 .6660156 .23699951 .6660156 .12399292 .6660156 .049987794 .57411196 .049987794 .48516847 .049987794 .4291687 .099990848 .4291687 .102996829 .4291687 .11999512 .4291687 .15499878 .44117738 .15499878 .48217774 .15499878 .5081787 .13699341 .5341797 .101989749 .5341797 .09399414 .5341797 .09199524 .5341797 .08898926 .5331726 .11199951 .59806826 .1659851 .63500979 .22399903 .63500979 .31498719 .63500979 .35798646 .5541382 .35798646 .47216798 .35798646 .39215089 .30799867 .31311036 .25299073 .25108338L.06098938 .036987306C.049987794 .025985718 .049987794 .023986817 .049987794 0H.42099L.44898988 .17404175H.42399598C.4189911 .14402771 .4119873 .1000061 .4019928 .084991458 .394989 .07699585 .32899476 .07699585 .30699159 .07699585H.1269989Z"/>
</defs>
<path transform="matrix(1.00006,0,0,-1,79.83459,103.045)" stroke-width=".79701" stroke-linecap="butt" stroke-dasharray=".79701,1.99255" stroke-miterlimit="10" stroke-linejoin="miter" fill="none" stroke="#cbcbcb" d="M-76.53586-76.53586H76.53586M-76.53586-51.0239H76.53586M-76.53586-25.51193H76.53586M-76.53586 0H76.53586M-76.53586 25.51193H76.53586M-76.53586 51.0239H76.53586M-76.53586 76.52689H76.53586M-76.53586-76.53586V76.53586M-51.0239-76.53586V76.53586M-25.51193-76.53586V76.53586M0-76.53586V76.53586M25.51193-76.53586V76.53586M51.0239-76.53586V76.53586M76.52689-76.53586V76.53586M76.53586 76.53586"/>
<path transform="matrix(1.00006,0,0,-1,79.83459,103.045)" stroke-width=".29887" stroke-linecap="butt" stroke-miterlimit="10" stroke-linejoin="miter" fill="none" stroke="#424242" d="M-25.51193 0H73.21829"/>
<path transform="matrix(1.00006,0,0,-1,153.05727,103.045)" d="M3.31755 0C2.33455 .1843 .73723 .73723-.3686 1.38231V-1.38231C.73723-.73723 2.33455-.1843 3.31755 0" fill="#424242"/>
<use data-text="x" xlink:href="#font_1_2" transform="matrix(9.963197,0,0,-9.9626,147.14963,110.805)" fill="#424242"/>
<path transform="matrix(1.00006,0,0,-1,79.83459,103.045)" stroke-width=".29887" stroke-linecap="butt" stroke-miterlimit="10" stroke-linejoin="miter" fill="none" stroke="#424242" d="M0 0H-73.21829"/>
<path transform="matrix(-1.00006,-0,0,1,6.611908,103.045)" d="M3.31755 0C2.33455 .1843 .73723 .73723-.3686 1.38231V-1.38231C.73723-.73723 2.33455-.1843 3.31755 0" fill="#424242"/>
<path transform="matrix(1.00006,0,0,-1,79.83459,103.045)" stroke-width=".29887" stroke-linecap="butt" stroke-miterlimit="10" stroke-linejoin="miter" fill="none" stroke="#424242" d="M0-25.51193V73.21829"/>
<path transform="matrix(0,-1,-1.00006,-0,79.83459,29.826706)" d="M3.31755 0C2.33455 .1843 .73723 .73723-.3686 1.38231V-1.38231C.73723-.73723 2.33455-.1843 3.31755 0" fill="#424242"/>
<use data-text="y" xlink:href="#font_1_3" transform="matrix(9.963197,0,0,-9.9626,83.304798,34.062997)" fill="#424242"/>
<path transform="matrix(1.00006,0,0,-1,79.83459,103.045)" stroke-width=".29887" stroke-linecap="butt" stroke-miterlimit="10" stroke-linejoin="miter" fill="none" stroke="#424242" d="M0 0V-73.21829"/>
<path transform="matrix(0,1,1.00006,0,79.83459,176.26329)" d="M3.31755 0C2.33455 .1843 .73723 .73723-.3686 1.38231V-1.38231C.73723-.73723 2.33455-.1843 3.31755 0" fill="#424242"/>
<path transform="matrix(1.00006,0,0,-1,79.83459,103.045)" stroke-width="1.49442" stroke-linecap="butt" stroke-miterlimit="10" stroke-linejoin="miter" fill="none" stroke="#ff0000" d="M-44.6459 6.37796H-6.37796V44.6459H-44.6459V6.37796"/>
<path transform="matrix(1.00006,0,0,-1,79.83459,103.045)" stroke-width="1.49442" stroke-linecap="butt" stroke-miterlimit="10" stroke-linejoin="miter" fill="none" stroke="#ff0000" d="M-31.88991 6.37796H-25.67944"/>
<path transform="matrix(1.00006,0,0,-1,54.15361,96.66704)" d="M6.54549 0C4.60605 .36362 1.45454 1.45454-.72726 2.72728V-2.72728C1.45454-1.45454 4.60605-.36362 6.54549 0" fill="#ff0000"/>
<path transform="matrix(1.00006,0,0,-1,79.83459,103.045)" stroke-width="1.49442" stroke-linecap="butt" stroke-miterlimit="10" stroke-linejoin="miter" fill="none" stroke="#ff0000" d="M-6.37796 19.13394V25.3444"/>
<path transform="matrix(0,-1,-1.00006,-0,73.456249,77.7006)" d="M6.54549 0C4.60605 .36362 1.45454 1.45454-.72726 2.72728V-2.72728C1.45454-1.45454 4.60605-.36362 6.54549 0" fill="#ff0000"/>
<path transform="matrix(1.00006,0,0,-1,79.83459,103.045)" stroke-width="1.49442" stroke-linecap="butt" stroke-miterlimit="10" stroke-linejoin="miter" fill="none" stroke="#ff0000" d="M-19.13394 44.6459H-25.3444"/>
<path transform="matrix(-1.00006,-0,0,1,54.488668,58.399099)" d="M6.54549 0C4.60605 .36362 1.45454 1.45454-.72726 2.72728V-2.72728C1.45454-1.45454 4.60605-.36362 6.54549 0" fill="#ff0000"/>
<path transform="matrix(1.00006,0,0,-1,79.83459,103.045)" stroke-width="1.49442" stroke-linecap="butt" stroke-miterlimit="10" stroke-linejoin="miter" fill="none" stroke="#ff0000" d="M-44.6459 31.88991V25.67944"/>
<path transform="matrix(0,1,1.00006,0,35.18601,77.365558)" d="M6.54549 0C4.60605 .36362 1.45454 1.45454-.72726 2.72728V-2.72728C1.45454-1.45454 4.60605-.36362 6.54549 0" fill="#ff0000"/>
<use data-text="C" xlink:href="#font_1_1" transform="matrix(9.963197,0,0,-9.9626,19.45697,74.559)" fill="#ff0000"/>
<path transform="matrix(1.00006,0,0,-1,79.83459,103.045)" d="M-22.822 25.51193C-22.822 26.99754-24.02632 28.20187-25.51193 28.20187-26.99754 28.20187-28.20187 26.99754-28.20187 25.51193-28.20187 24.02632-26.99754 22.822-25.51193 22.822-24.02632 22.822-22.822 24.02632-22.822 25.51193ZM-25.51193 25.51193" fill="#0074c8"/>
<path transform="matrix(1.00006,0,0,-1,79.83459,103.045)" stroke-width=".79701" stroke-linecap="butt" stroke-miterlimit="10" stroke-linejoin="miter" fill="none" stroke="#0074c8" d="M-76.53586-76.53586V-97.38533"/>
<path transform="matrix(0,1,1.00006,0,3.294136,200.43033)" d="M4.66248 0C3.28098 .25902 1.0361 1.0361-.51805 1.94269V-1.94269C1.0361-1.0361 3.28098-.25902 4.66248 0" fill="#0074c8"/>
<path transform="matrix(1.00006,0,0,-1,79.83459,103.045)" stroke-width=".79701" stroke-linecap="butt" stroke-miterlimit="10" stroke-linejoin="miter" fill="none" stroke="#0074c8" d="M-76.53586-51.0239V-71.87338"/>
<path transform="matrix(0,1,1.00006,0,3.294136,174.91838)" d="M4.66248 0C3.28098 .25902 1.0361 1.0361-.51805 1.94269V-1.94269C1.0361-1.0361 3.28098-.25902 4.66248 0" fill="#0074c8"/>
<path transform="matrix(1.00006,0,0,-1,79.83459,103.045)" stroke-width=".79701" stroke-linecap="butt" stroke-miterlimit="10" stroke-linejoin="miter" fill="none" stroke="#0074c8" d="M-76.53586-25.51193V-46.36142"/>
<path transform="matrix(0,1,1.00006,0,3.294136,149.40642)" d="M4.66248 0C3.28098 .25902 1.0361 1.0361-.51805 1.94269V-1.94269C1.0361-1.0361 3.28098-.25902 4.66248 0" fill="#0074c8"/>
<path transform="matrix(1.00006,0,0,-1,79.83459,103.045)" stroke-width=".79701" stroke-linecap="butt" stroke-miterlimit="10" stroke-linejoin="miter" fill="none" stroke="#0074c8" d="M-76.53586 0V-20.84946"/>
<path transform="matrix(0,1,1.00006,0,3.294136,123.894458)" d="M4.66248 0C3.28098 .25902 1.0361 1.0361-.51805 1.94269V-1.94269C1.0361-1.0361 3.28098-.25902 4.66248 0" fill="#0074c8"/>
<path transform="matrix(1.00006,0,0,-1,79.83459,103.045)" stroke-width=".79701" stroke-linecap="butt" stroke-miterlimit="10" stroke-linejoin="miter" fill="none" stroke="#0074c8" d="M-76.53586 25.51193V4.66248"/>
<path transform="matrix(0,1,1.00006,0,3.294136,98.382518)" d="M4.66248 0C3.28098 .25902 1.0361 1.0361-.51805 1.94269V-1.94269C1.0361-1.0361 3.28098-.25902 4.66248 0" fill="#0074c8"/>
<path transform="matrix(1.00006,0,0,-1,79.83459,103.045)" stroke-width=".79701" stroke-linecap="butt" stroke-miterlimit="10" stroke-linejoin="miter" fill="none" stroke="#0074c8" d="M-76.53586 51.0239V30.17441"/>
<path transform="matrix(0,1,1.00006,0,3.294136,72.87059)" d="M4.66248 0C3.28098 .25902 1.0361 1.0361-.51805 1.94269V-1.94269C1.0361-1.0361 3.28098-.25902 4.66248 0" fill="#0074c8"/>
<path transform="matrix(1.00006,0,0,-1,79.83459,103.045)" stroke-width=".79701" stroke-linecap="butt" stroke-miterlimit="10" stroke-linejoin="miter" fill="none" stroke="#0074c8" d="M-76.53586 76.53586V55.68637"/>
<path transform="matrix(0,1,1.00006,0,3.294136,47.358629)" d="M4.66248 0C3.28098 .25902 1.0361 1.0361-.51805 1.94269V-1.94269C1.0361-1.0361 3.28098-.25902 4.66248 0" fill="#0074c8"/>
<path transform="matrix(1.00006,0,0,-1,79.83459,103.045)" stroke-width=".79701" stroke-linecap="butt" stroke-miterlimit="10" stroke-linejoin="miter" fill="none" stroke="#0074c8" d="M-63.77986-76.53586V-92.92065"/>
<path transform="matrix(0,1,1.00006,0,16.0509,195.96564)" d="M4.66248 0C3.28098 .25902 1.0361 1.0361-.51805 1.94269V-1.94269C1.0361-1.0361 3.28098-.25902 4.66248 0" fill="#0074c8"/>
<path transform="matrix(1.00006,0,0,-1,79.83459,103.045)" stroke-width=".79701" stroke-linecap="butt" stroke-miterlimit="10" stroke-linejoin="miter" fill="none" stroke="#0074c8" d="M-63.77986-51.0239V-67.40869"/>
<path transform="matrix(0,1,1.00006,0,16.0509,170.45369)" d="M4.66248 0C3.28098 .25902 1.0361 1.0361-.51805 1.94269V-1.94269C1.0361-1.0361 3.28098-.25902 4.66248 0" fill="#0074c8"/>
<path transform="matrix(1.00006,0,0,-1,79.83459,103.045)" stroke-width=".79701" stroke-linecap="butt" stroke-miterlimit="10" stroke-linejoin="miter" fill="none" stroke="#0074c8" d="M-63.77986-25.51193V-41.89673"/>
<path transform="matrix(0,1,1.00006,0,16.0509,144.94173)" d="M4.66248 0C3.28098 .25902 1.0361 1.0361-.51805 1.94269V-1.94269C1.0361-1.0361 3.28098-.25902 4.66248 0" fill="#0074c8"/>
<path transform="matrix(1.00006,0,0,-1,79.83459,103.045)" stroke-width=".79701" stroke-linecap="butt" stroke-miterlimit="10" stroke-linejoin="miter" fill="none" stroke="#0074c8" d="M-63.77986 0V-16.3848"/>
<path transform="matrix(0,1,1.00006,0,16.0509,119.429798)" d="M4.66248 0C3.28098 .25902 1.0361 1.0361-.51805 1.94269V-1.94269C1.0361-1.0361 3.28098-.25902 4.66248 0" fill="#0074c8"/>
<path transform="matrix(1.00006,0,0,-1,79.83459,103.045)" stroke-width=".79701" stroke-linecap="butt" stroke-miterlimit="10" stroke-linejoin="miter" fill="none" stroke="#0074c8" d="M-63.77986 25.51193V9.12712"/>
<path transform="matrix(0,1,1.00006,0,16.0509,93.91788)" d="M4.66248 0C3.28098 .25902 1.0361 1.0361-.51805 1.94269V-1.94269C1.0361-1.0361 3.28098-.25902 4.66248 0" fill="#0074c8"/>
<path transform="matrix(1.00006,0,0,-1,79.83459,103.045)" stroke-width=".79701" stroke-linecap="butt" stroke-miterlimit="10" stroke-linejoin="miter" fill="none" stroke="#0074c8" d="M-63.77986 51.0239V34.63908"/>
<path transform="matrix(0,1,1.00006,0,16.0509,68.405918)" d="M4.66248 0C3.28098 .25902 1.0361 1.0361-.51805 1.94269V-1.94269C1.0361-1.0361 3.28098-.25902 4.66248 0" fill="#0074c8"/>
<path transform="matrix(1.00006,0,0,-1,79.83459,103.045)" stroke-width=".79701" stroke-linecap="butt" stroke-miterlimit="10" stroke-linejoin="miter" fill="none" stroke="#0074c8" d="M-63.77986 76.53586V60.15105"/>
<path transform="matrix(0,1,1.00006,0,16.0509,42.893949)" d="M4.66248 0C3.28098 .25902 1.0361 1.0361-.51805 1.94269V-1.94269C1.0361-1.0361 3.28098-.25902 4.66248 0" fill="#0074c8"/>
<path transform="matrix(1.00006,0,0,-1,79.83459,103.045)" stroke-width=".79701" stroke-linecap="butt" stroke-miterlimit="10" stroke-linejoin="miter" fill="none" stroke="#0074c8" d="M-51.0239-76.53586V-88.71135"/>
<path transform="matrix(0,1,1.00006,0,28.807629,191.75635)" d="M4.66248 0C3.28098 .25902 1.0361 1.0361-.51805 1.94269V-1.94269C1.0361-1.0361 3.28098-.25902 4.66248 0" fill="#0074c8"/>
<path transform="matrix(1.00006,0,0,-1,79.83459,103.045)" stroke-width=".79701" stroke-linecap="butt" stroke-miterlimit="10" stroke-linejoin="miter" fill="none" stroke="#0074c8" d="M-51.0239-51.0239V-63.19939"/>
<path transform="matrix(0,1,1.00006,0,28.807629,166.24439)" d="M4.66248 0C3.28098 .25902 1.0361 1.0361-.51805 1.94269V-1.94269C1.0361-1.0361 3.28098-.25902 4.66248 0" fill="#0074c8"/>
<path transform="matrix(1.00006,0,0,-1,79.83459,103.045)" stroke-width=".79701" stroke-linecap="butt" stroke-miterlimit="10" stroke-linejoin="miter" fill="none" stroke="#0074c8" d="M-51.0239-25.51193V-37.68742"/>
<path transform="matrix(0,1,1.00006,0,28.807629,140.73242)" d="M4.66248 0C3.28098 .25902 1.0361 1.0361-.51805 1.94269V-1.94269C1.0361-1.0361 3.28098-.25902 4.66248 0" fill="#0074c8"/>
<path transform="matrix(1.00006,0,0,-1,79.83459,103.045)" stroke-width=".79701" stroke-linecap="butt" stroke-miterlimit="10" stroke-linejoin="miter" fill="none" stroke="#0074c8" d="M-51.0239 0V-12.17549"/>
<path transform="matrix(0,1,1.00006,0,28.807629,115.22049)" d="M4.66248 0C3.28098 .25902 1.0361 1.0361-.51805 1.94269V-1.94269C1.0361-1.0361 3.28098-.25902 4.66248 0" fill="#0074c8"/>
<path transform="matrix(1.00006,0,0,-1,79.83459,103.045)" stroke-width=".79701" stroke-linecap="butt" stroke-miterlimit="10" stroke-linejoin="miter" fill="none" stroke="#0074c8" d="M-51.0239 25.51193V13.33643"/>
<path transform="matrix(0,1,1.00006,0,28.807629,89.70857)" d="M4.66248 0C3.28098 .25902 1.0361 1.0361-.51805 1.94269V-1.94269C1.0361-1.0361 3.28098-.25902 4.66248 0" fill="#0074c8"/>
<path transform="matrix(1.00006,0,0,-1,79.83459,103.045)" stroke-width=".79701" stroke-linecap="butt" stroke-miterlimit="10" stroke-linejoin="miter" fill="none" stroke="#0074c8" d="M-51.0239 51.0239V38.84839"/>
<path transform="matrix(0,1,1.00006,0,28.807629,64.19661)" d="M4.66248 0C3.28098 .25902 1.0361 1.0361-.51805 1.94269V-1.94269C1.0361-1.0361 3.28098-.25902 4.66248 0" fill="#0074c8"/>
<path transform="matrix(1.00006,0,0,-1,79.83459,103.045)" stroke-width=".79701" stroke-linecap="butt" stroke-miterlimit="10" stroke-linejoin="miter" fill="none" stroke="#0074c8" d="M-51.0239 76.53586V64.36035"/>
<path transform="matrix(0,1,1.00006,0,28.807629,38.684648)" d="M4.66248 0C3.28098 .25902 1.0361 1.0361-.51805 1.94269V-1.94269C1.0361-1.0361 3.28098-.25902 4.66248 0" fill="#0074c8"/>
<path transform="matrix(1.00006,0,0,-1,79.83459,103.045)" stroke-width=".79701" stroke-linecap="butt" stroke-miterlimit="10" stroke-linejoin="miter" fill="none" stroke="#0074c8" d="M-38.26791-76.53586V-84.11899"/>
<path transform="matrix(0,1,1.00006,0,41.56438,187.16399)" d="M4.66248 0C3.28098 .25902 1.0361 1.0361-.51805 1.94269V-1.94269C1.0361-1.0361 3.28098-.25902 4.66248 0" fill="#0074c8"/>
<path transform="matrix(1.00006,0,0,-1,79.83459,103.045)" stroke-width=".79701" stroke-linecap="butt" stroke-miterlimit="10" stroke-linejoin="miter" fill="none" stroke="#0074c8" d="M-38.26791-51.0239V-58.60704"/>
<path transform="matrix(0,1,1.00006,0,41.56438,161.65204)" d="M4.66248 0C3.28098 .25902 1.0361 1.0361-.51805 1.94269V-1.94269C1.0361-1.0361 3.28098-.25902 4.66248 0" fill="#0074c8"/>
<path transform="matrix(1.00006,0,0,-1,79.83459,103.045)" stroke-width=".79701" stroke-linecap="butt" stroke-miterlimit="10" stroke-linejoin="miter" fill="none" stroke="#0074c8" d="M-38.26791-25.51193V-33.09508"/>
<path transform="matrix(0,1,1.00006,0,41.56438,136.14008)" d="M4.66248 0C3.28098 .25902 1.0361 1.0361-.51805 1.94269V-1.94269C1.0361-1.0361 3.28098-.25902 4.66248 0" fill="#0074c8"/>
<path transform="matrix(1.00006,0,0,-1,79.83459,103.045)" stroke-width=".79701" stroke-linecap="butt" stroke-miterlimit="10" stroke-linejoin="miter" fill="none" stroke="#0074c8" d="M-38.26791 0V-7.58311"/>
<path transform="matrix(0,1,1.00006,0,41.56438,110.628108)" d="M4.66248 0C3.28098 .25902 1.0361 1.0361-.51805 1.94269V-1.94269C1.0361-1.0361 3.28098-.25902 4.66248 0" fill="#0074c8"/>
<path transform="matrix(1.00006,0,0,-1,79.83459,103.045)" stroke-width=".79701" stroke-linecap="butt" stroke-miterlimit="10" stroke-linejoin="miter" fill="none" stroke="#0074c8" d="M-38.26791 25.51193V17.92879"/>
<path transform="matrix(0,1,1.00006,0,41.56438,85.11621)" d="M4.66248 0C3.28098 .25902 1.0361 1.0361-.51805 1.94269V-1.94269C1.0361-1.0361 3.28098-.25902 4.66248 0" fill="#0074c8"/>
<path transform="matrix(1.00006,0,0,-1,79.83459,103.045)" stroke-width=".79701" stroke-linecap="butt" stroke-miterlimit="10" stroke-linejoin="miter" fill="none" stroke="#0074c8" d="M-38.26791 51.0239V43.44073"/>
<path transform="matrix(0,1,1.00006,0,41.56438,59.604269)" d="M4.66248 0C3.28098 .25902 1.0361 1.0361-.51805 1.94269V-1.94269C1.0361-1.0361 3.28098-.25902 4.66248 0" fill="#0074c8"/>
<path transform="matrix(1.00006,0,0,-1,79.83459,103.045)" stroke-width=".79701" stroke-linecap="butt" stroke-miterlimit="10" stroke-linejoin="miter" fill="none" stroke="#0074c8" d="M-38.26791 76.53586V68.9527"/>
<path transform="matrix(0,1,1.00006,0,41.56438,34.0923)" d="M4.66248 0C3.28098 .25902 1.0361 1.0361-.51805 1.94269V-1.94269C1.0361-1.0361 3.28098-.25902 4.66248 0" fill="#0074c8"/>
<path transform="matrix(1.00006,0,0,-1,79.83459,103.045)" stroke-width=".79701" stroke-linecap="butt" stroke-miterlimit="10" stroke-linejoin="miter" fill="none" stroke="#0074c8" d="M-25.51193-76.53586V-80.29236"/>
<path transform="matrix(0,1,1.00006,0,54.32113,183.33736)" d="M4.66248 0C3.28098 .25902 1.0361 1.0361-.51805 1.94269V-1.94269C1.0361-1.0361 3.28098-.25902 4.66248 0" fill="#0074c8"/>
<path transform="matrix(1.00006,0,0,-1,79.83459,103.045)" stroke-width=".79701" stroke-linecap="butt" stroke-miterlimit="10" stroke-linejoin="miter" fill="none" stroke="#0074c8" d="M-25.51193-51.0239V-54.7804"/>
<path transform="matrix(0,1,1.00006,0,54.32113,157.8254)" d="M4.66248 0C3.28098 .25902 1.0361 1.0361-.51805 1.94269V-1.94269C1.0361-1.0361 3.28098-.25902 4.66248 0" fill="#0074c8"/>
<path transform="matrix(1.00006,0,0,-1,79.83459,103.045)" stroke-width=".79701" stroke-linecap="butt" stroke-miterlimit="10" stroke-linejoin="miter" fill="none" stroke="#0074c8" d="M-25.51193-25.51193V-29.26845"/>
<path transform="matrix(0,1,1.00006,0,54.32113,132.31345)" d="M4.66248 0C3.28098 .25902 1.0361 1.0361-.51805 1.94269V-1.94269C1.0361-1.0361 3.28098-.25902 4.66248 0" fill="#0074c8"/>
<path transform="matrix(1.00006,0,0,-1,79.83459,103.045)" stroke-width=".79701" stroke-linecap="butt" stroke-miterlimit="10" stroke-linejoin="miter" fill="none" stroke="#0074c8" d="M-25.51193 0V-3.75648"/>
<path transform="matrix(0,1,1.00006,0,54.32113,106.801479)" d="M4.66248 0C3.28098 .25902 1.0361 1.0361-.51805 1.94269V-1.94269C1.0361-1.0361 3.28098-.25902 4.66248 0" fill="#0074c8"/>
<path transform="matrix(1.00006,0,0,-1,79.83459,103.045)" stroke-width=".79701" stroke-linecap="butt" stroke-miterlimit="10" stroke-linejoin="miter" fill="none" stroke="#0074c8" d="M-25.51193 25.51193V21.75542"/>
<path transform="matrix(0,1,1.00006,0,54.32113,81.28958)" d="M4.66248 0C3.28098 .25902 1.0361 1.0361-.51805 1.94269V-1.94269C1.0361-1.0361 3.28098-.25902 4.66248 0" fill="#0074c8"/>
<path transform="matrix(1.00006,0,0,-1,79.83459,103.045)" stroke-width=".79701" stroke-linecap="butt" stroke-miterlimit="10" stroke-linejoin="miter" fill="none" stroke="#0074c8" d="M-25.51193 51.0239V47.26736"/>
<path transform="matrix(0,1,1.00006,0,54.32113,55.777639)" d="M4.66248 0C3.28098 .25902 1.0361 1.0361-.51805 1.94269V-1.94269C1.0361-1.0361 3.28098-.25902 4.66248 0" fill="#0074c8"/>
<path transform="matrix(1.00006,0,0,-1,79.83459,103.045)" stroke-width=".79701" stroke-linecap="butt" stroke-miterlimit="10" stroke-linejoin="miter" fill="none" stroke="#0074c8" d="M-25.51193 76.53586V72.77933"/>
<path transform="matrix(0,1,1.00006,0,54.32113,30.26567)" d="M4.66248 0C3.28098 .25902 1.0361 1.0361-.51805 1.94269V-1.94269C1.0361-1.0361 3.28098-.25902 4.66248 0" fill="#0074c8"/>
<path transform="matrix(1.00006,0,0,-1,79.83459,103.045)" stroke-width=".79701" stroke-linecap="butt" stroke-miterlimit="10" stroke-linejoin="miter" fill="none" stroke="#0074c8" d="M-12.75595-76.53586V-76.08267"/>
<path transform="matrix(0,1,1.00006,0,67.07787,179.12767)" d="M4.66248 0C3.28098 .25902 1.0361 1.0361-.51805 1.94269V-1.94269C1.0361-1.0361 3.28098-.25902 4.66248 0" fill="#0074c8"/>
<path transform="matrix(1.00006,0,0,-1,79.83459,103.045)" stroke-width=".79701" stroke-linecap="butt" stroke-miterlimit="10" stroke-linejoin="miter" fill="none" stroke="#0074c8" d="M-12.75595-51.0239V-50.57071"/>
<path transform="matrix(0,1,1.00006,0,67.07787,153.6157)" d="M4.66248 0C3.28098 .25902 1.0361 1.0361-.51805 1.94269V-1.94269C1.0361-1.0361 3.28098-.25902 4.66248 0" fill="#0074c8"/>
<path transform="matrix(1.00006,0,0,-1,79.83459,103.045)" stroke-width=".79701" stroke-linecap="butt" stroke-miterlimit="10" stroke-linejoin="miter" fill="none" stroke="#0074c8" d="M-12.75595-25.51193V-25.05875"/>
<path transform="matrix(0,1,1.00006,0,67.07787,128.10375)" d="M4.66248 0C3.28098 .25902 1.0361 1.0361-.51805 1.94269V-1.94269C1.0361-1.0361 3.28098-.25902 4.66248 0" fill="#0074c8"/>
<path transform="matrix(1.00006,0,0,-1,79.83459,103.045)" stroke-width=".79701" stroke-linecap="butt" stroke-miterlimit="10" stroke-linejoin="miter" fill="none" stroke="#0074c8" d="M-12.75595 0V.45319"/>
<path transform="matrix(0,1,1.00006,0,67.07787,102.591808)" d="M4.66248 0C3.28098 .25902 1.0361 1.0361-.51805 1.94269V-1.94269C1.0361-1.0361 3.28098-.25902 4.66248 0" fill="#0074c8"/>
<path transform="matrix(1.00006,0,0,-1,79.83459,103.045)" stroke-width=".79701" stroke-linecap="butt" stroke-miterlimit="10" stroke-linejoin="miter" fill="none" stroke="#0074c8" d="M-12.75595 25.51193V25.9651"/>
<path transform="matrix(0,1,1.00006,0,67.07787,77.079898)" d="M4.66248 0C3.28098 .25902 1.0361 1.0361-.51805 1.94269V-1.94269C1.0361-1.0361 3.28098-.25902 4.66248 0" fill="#0074c8"/>
<path transform="matrix(1.00006,0,0,-1,79.83459,103.045)" stroke-width=".79701" stroke-linecap="butt" stroke-miterlimit="10" stroke-linejoin="miter" fill="none" stroke="#0074c8" d="M-12.75595 51.0239V51.47707"/>
<path transform="matrix(0,1,1.00006,0,67.07787,51.56793)" d="M4.66248 0C3.28098 .25902 1.0361 1.0361-.51805 1.94269V-1.94269C1.0361-1.0361 3.28098-.25902 4.66248 0" fill="#0074c8"/>
<path transform="matrix(1.00006,0,0,-1,79.83459,103.045)" stroke-width=".79701" stroke-linecap="butt" stroke-miterlimit="10" stroke-linejoin="miter" fill="none" stroke="#0074c8" d="M-12.75595 76.53586V76.98903"/>
<path transform="matrix(0,1,1.00006,0,67.07787,26.05597)" d="M4.66248 0C3.28098 .25902 1.0361 1.0361-.51805 1.94269V-1.94269C1.0361-1.0361 3.28098-.25902 4.66248 0" fill="#0074c8"/>
<path transform="matrix(1.00006,0,0,-1,79.83459,103.045)" stroke-width=".79701" stroke-linecap="butt" stroke-miterlimit="10" stroke-linejoin="miter" fill="none" stroke="#0074c8" d="M12.75595-76.53586V-76.98903"/>
<path transform="matrix(0,-1,-1.00006,-0,92.5913,180.03403)" d="M4.66248 0C3.28098 .25902 1.0361 1.0361-.51805 1.94269V-1.94269C1.0361-1.0361 3.28098-.25902 4.66248 0" fill="#0074c8"/>
<path transform="matrix(1.00006,0,0,-1,79.83459,103.045)" stroke-width=".79701" stroke-linecap="butt" stroke-miterlimit="10" stroke-linejoin="miter" fill="none" stroke="#0074c8" d="M12.75595-51.0239V-51.47707"/>
<path transform="matrix(0,-1,-1.00006,-0,92.5913,154.52207)" d="M4.66248 0C3.28098 .25902 1.0361 1.0361-.51805 1.94269V-1.94269C1.0361-1.0361 3.28098-.25902 4.66248 0" fill="#0074c8"/>
<path transform="matrix(1.00006,0,0,-1,79.83459,103.045)" stroke-width=".79701" stroke-linecap="butt" stroke-miterlimit="10" stroke-linejoin="miter" fill="none" stroke="#0074c8" d="M12.75595-25.51193V-25.9651"/>
<path transform="matrix(0,-1,-1.00006,-0,92.5913,129.0101)" d="M4.66248 0C3.28098 .25902 1.0361 1.0361-.51805 1.94269V-1.94269C1.0361-1.0361 3.28098-.25902 4.66248 0" fill="#0074c8"/>
<path transform="matrix(1.00006,0,0,-1,79.83459,103.045)" stroke-width=".79701" stroke-linecap="butt" stroke-miterlimit="10" stroke-linejoin="miter" fill="none" stroke="#0074c8" d="M12.75595 0V-.45319"/>
<path transform="matrix(0,-1,-1.00006,-0,92.5913,103.49819)" d="M4.66248 0C3.28098 .25902 1.0361 1.0361-.51805 1.94269V-1.94269C1.0361-1.0361 3.28098-.25902 4.66248 0" fill="#0074c8"/>
<path transform="matrix(1.00006,0,0,-1,79.83459,103.045)" stroke-width=".79701" stroke-linecap="butt" stroke-miterlimit="10" stroke-linejoin="miter" fill="none" stroke="#0074c8" d="M12.75595 25.51193V25.05875"/>
<path transform="matrix(0,-1,-1.00006,-0,92.5913,77.98625)" d="M4.66248 0C3.28098 .25902 1.0361 1.0361-.51805 1.94269V-1.94269C1.0361-1.0361 3.28098-.25902 4.66248 0" fill="#0074c8"/>
<path transform="matrix(1.00006,0,0,-1,79.83459,103.045)" stroke-width=".79701" stroke-linecap="butt" stroke-miterlimit="10" stroke-linejoin="miter" fill="none" stroke="#0074c8" d="M12.75595 51.0239V50.57071"/>
<path transform="matrix(0,-1,-1.00006,-0,92.5913,52.47429)" d="M4.66248 0C3.28098 .25902 1.0361 1.0361-.51805 1.94269V-1.94269C1.0361-1.0361 3.28098-.25902 4.66248 0" fill="#0074c8"/>
<path transform="matrix(1.00006,0,0,-1,79.83459,103.045)" stroke-width=".79701" stroke-linecap="butt" stroke-miterlimit="10" stroke-linejoin="miter" fill="none" stroke="#0074c8" d="M12.75595 76.53586V76.08267"/>
<path transform="matrix(0,-1,-1.00006,-0,92.5913,26.962327)" d="M4.66248 0C3.28098 .25902 1.0361 1.0361-.51805 1.94269V-1.94269C1.0361-1.0361 3.28098-.25902 4.66248 0" fill="#0074c8"/>
<path transform="matrix(1.00006,0,0,-1,79.83459,103.045)" stroke-width=".79701" stroke-linecap="butt" stroke-miterlimit="10" stroke-linejoin="miter" fill="none" stroke="#0074c8" d="M25.51193-76.53586V-72.77933"/>
<path transform="matrix(0,-1,-1.00006,-0,105.348049,175.82433)" d="M4.66248 0C3.28098 .25902 1.0361 1.0361-.51805 1.94269V-1.94269C1.0361-1.0361 3.28098-.25902 4.66248 0" fill="#0074c8"/>
<path transform="matrix(1.00006,0,0,-1,79.83459,103.045)" stroke-width=".79701" stroke-linecap="butt" stroke-miterlimit="10" stroke-linejoin="miter" fill="none" stroke="#0074c8" d="M25.51193-51.0239V-47.26736"/>
<path transform="matrix(0,-1,-1.00006,-0,105.348049,150.31237)" d="M4.66248 0C3.28098 .25902 1.0361 1.0361-.51805 1.94269V-1.94269C1.0361-1.0361 3.28098-.25902 4.66248 0" fill="#0074c8"/>
<path transform="matrix(1.00006,0,0,-1,79.83459,103.045)" stroke-width=".79701" stroke-linecap="butt" stroke-miterlimit="10" stroke-linejoin="miter" fill="none" stroke="#0074c8" d="M25.51193-25.51193V-21.75542"/>
<path transform="matrix(0,-1,-1.00006,-0,105.348049,124.800418)" d="M4.66248 0C3.28098 .25902 1.0361 1.0361-.51805 1.94269V-1.94269C1.0361-1.0361 3.28098-.25902 4.66248 0" fill="#0074c8"/>
<path transform="matrix(1.00006,0,0,-1,79.83459,103.045)" stroke-width=".79701" stroke-linecap="butt" stroke-miterlimit="10" stroke-linejoin="miter" fill="none" stroke="#0074c8" d="M25.51193 0V3.75648"/>
<path transform="matrix(0,-1,-1.00006,-0,105.348049,99.28852)" d="M4.66248 0C3.28098 .25902 1.0361 1.0361-.51805 1.94269V-1.94269C1.0361-1.0361 3.28098-.25902 4.66248 0" fill="#0074c8"/>
<path transform="matrix(1.00006,0,0,-1,79.83459,103.045)" stroke-width=".79701" stroke-linecap="butt" stroke-miterlimit="10" stroke-linejoin="miter" fill="none" stroke="#0074c8" d="M25.51193 25.51193V29.26845"/>
<path transform="matrix(0,-1,-1.00006,-0,105.348049,73.77655)" d="M4.66248 0C3.28098 .25902 1.0361 1.0361-.51805 1.94269V-1.94269C1.0361-1.0361 3.28098-.25902 4.66248 0" fill="#0074c8"/>
<path transform="matrix(1.00006,0,0,-1,79.83459,103.045)" stroke-width=".79701" stroke-linecap="butt" stroke-miterlimit="10" stroke-linejoin="miter" fill="none" stroke="#0074c8" d="M25.51193 51.0239V54.7804"/>
<path transform="matrix(0,-1,-1.00006,-0,105.348049,48.2646)" d="M4.66248 0C3.28098 .25902 1.0361 1.0361-.51805 1.94269V-1.94269C1.0361-1.0361 3.28098-.25902 4.66248 0" fill="#0074c8"/>
<path transform="matrix(1.00006,0,0,-1,79.83459,103.045)" stroke-width=".79701" stroke-linecap="butt" stroke-miterlimit="10" stroke-linejoin="miter" fill="none" stroke="#0074c8" d="M25.51193 76.53586V80.29236"/>
<path transform="matrix(0,-1,-1.00006,-0,105.348049,22.75264)" d="M4.66248 0C3.28098 .25902 1.0361 1.0361-.51805 1.94269V-1.94269C1.0361-1.0361 3.28098-.25902 4.66248 0" fill="#0074c8"/>
<path transform="matrix(1.00006,0,0,-1,79.83459,103.045)" stroke-width=".79701" stroke-linecap="butt" stroke-miterlimit="10" stroke-linejoin="miter" fill="none" stroke="#0074c8" d="M38.26791-76.53586V-68.9527"/>
<path transform="matrix(0,-1,-1.00006,-0,118.1048,171.9977)" d="M4.66248 0C3.28098 .25902 1.0361 1.0361-.51805 1.94269V-1.94269C1.0361-1.0361 3.28098-.25902 4.66248 0" fill="#0074c8"/>
<path transform="matrix(1.00006,0,0,-1,79.83459,103.045)" stroke-width=".79701" stroke-linecap="butt" stroke-miterlimit="10" stroke-linejoin="miter" fill="none" stroke="#0074c8" d="M38.26791-51.0239V-43.44073"/>
<path transform="matrix(0,-1,-1.00006,-0,118.1048,146.48574)" d="M4.66248 0C3.28098 .25902 1.0361 1.0361-.51805 1.94269V-1.94269C1.0361-1.0361 3.28098-.25902 4.66248 0" fill="#0074c8"/>
<path transform="matrix(1.00006,0,0,-1,79.83459,103.045)" stroke-width=".79701" stroke-linecap="butt" stroke-miterlimit="10" stroke-linejoin="miter" fill="none" stroke="#0074c8" d="M38.26791-25.51193V-17.92879"/>
<path transform="matrix(0,-1,-1.00006,-0,118.1048,120.973789)" d="M4.66248 0C3.28098 .25902 1.0361 1.0361-.51805 1.94269V-1.94269C1.0361-1.0361 3.28098-.25902 4.66248 0" fill="#0074c8"/>
<path transform="matrix(1.00006,0,0,-1,79.83459,103.045)" stroke-width=".79701" stroke-linecap="butt" stroke-miterlimit="10" stroke-linejoin="miter" fill="none" stroke="#0074c8" d="M38.26791 0V7.58311"/>
<path transform="matrix(0,-1,-1.00006,-0,118.1048,95.46189)" d="M4.66248 0C3.28098 .25902 1.0361 1.0361-.51805 1.94269V-1.94269C1.0361-1.0361 3.28098-.25902 4.66248 0" fill="#0074c8"/>
<path transform="matrix(1.00006,0,0,-1,79.83459,103.045)" stroke-width=".79701" stroke-linecap="butt" stroke-miterlimit="10" stroke-linejoin="miter" fill="none" stroke="#0074c8" d="M38.26791 25.51193V33.09508"/>
<path transform="matrix(0,-1,-1.00006,-0,118.1048,69.94992)" d="M4.66248 0C3.28098 .25902 1.0361 1.0361-.51805 1.94269V-1.94269C1.0361-1.0361 3.28098-.25902 4.66248 0" fill="#0074c8"/>
<path transform="matrix(1.00006,0,0,-1,79.83459,103.045)" stroke-width=".79701" stroke-linecap="butt" stroke-miterlimit="10" stroke-linejoin="miter" fill="none" stroke="#0074c8" d="M38.26791 51.0239V58.60704"/>
<path transform="matrix(0,-1,-1.00006,-0,118.1048,44.437959)" d="M4.66248 0C3.28098 .25902 1.0361 1.0361-.51805 1.94269V-1.94269C1.0361-1.0361 3.28098-.25902 4.66248 0" fill="#0074c8"/>
<path transform="matrix(1.00006,0,0,-1,79.83459,103.045)" stroke-width=".79701" stroke-linecap="butt" stroke-miterlimit="10" stroke-linejoin="miter" fill="none" stroke="#0074c8" d="M38.26791 76.53586V84.11899"/>
<path transform="matrix(0,-1,-1.00006,-0,118.1048,18.92601)" d="M4.66248 0C3.28098 .25902 1.0361 1.0361-.51805 1.94269V-1.94269C1.0361-1.0361 3.28098-.25902 4.66248 0" fill="#0074c8"/>
<path transform="matrix(1.00006,0,0,-1,79.83459,103.045)" stroke-width=".79701" stroke-linecap="butt" stroke-miterlimit="10" stroke-linejoin="miter" fill="none" stroke="#0074c8" d="M51.0239-76.53586V-64.36035"/>
<path transform="matrix(0,-1,-1.00006,-0,130.86154,167.40535)" d="M4.66248 0C3.28098 .25902 1.0361 1.0361-.51805 1.94269V-1.94269C1.0361-1.0361 3.28098-.25902 4.66248 0" fill="#0074c8"/>
<path transform="matrix(1.00006,0,0,-1,79.83459,103.045)" stroke-width=".79701" stroke-linecap="butt" stroke-miterlimit="10" stroke-linejoin="miter" fill="none" stroke="#0074c8" d="M51.0239-51.0239V-38.84839"/>
<path transform="matrix(0,-1,-1.00006,-0,130.86154,141.89339)" d="M4.66248 0C3.28098 .25902 1.0361 1.0361-.51805 1.94269V-1.94269C1.0361-1.0361 3.28098-.25902 4.66248 0" fill="#0074c8"/>
<path transform="matrix(1.00006,0,0,-1,79.83459,103.045)" stroke-width=".79701" stroke-linecap="butt" stroke-miterlimit="10" stroke-linejoin="miter" fill="none" stroke="#0074c8" d="M51.0239-25.51193V-13.33643"/>
<path transform="matrix(0,-1,-1.00006,-0,130.86154,116.381427)" d="M4.66248 0C3.28098 .25902 1.0361 1.0361-.51805 1.94269V-1.94269C1.0361-1.0361 3.28098-.25902 4.66248 0" fill="#0074c8"/>
<path transform="matrix(1.00006,0,0,-1,79.83459,103.045)" stroke-width=".79701" stroke-linecap="butt" stroke-miterlimit="10" stroke-linejoin="miter" fill="none" stroke="#0074c8" d="M51.0239 0V12.17549"/>
<path transform="matrix(0,-1,-1.00006,-0,130.86154,90.86951)" d="M4.66248 0C3.28098 .25902 1.0361 1.0361-.51805 1.94269V-1.94269C1.0361-1.0361 3.28098-.25902 4.66248 0" fill="#0074c8"/>
<path transform="matrix(1.00006,0,0,-1,79.83459,103.045)" stroke-width=".79701" stroke-linecap="butt" stroke-miterlimit="10" stroke-linejoin="miter" fill="none" stroke="#0074c8" d="M51.0239 25.51193V37.68742"/>
<path transform="matrix(0,-1,-1.00006,-0,130.86154,65.357578)" d="M4.66248 0C3.28098 .25902 1.0361 1.0361-.51805 1.94269V-1.94269C1.0361-1.0361 3.28098-.25902 4.66248 0" fill="#0074c8"/>
<path transform="matrix(1.00006,0,0,-1,79.83459,103.045)" stroke-width=".79701" stroke-linecap="butt" stroke-miterlimit="10" stroke-linejoin="miter" fill="none" stroke="#0074c8" d="M51.0239 51.0239V63.19939"/>
<path transform="matrix(0,-1,-1.00006,-0,130.86154,39.845609)" d="M4.66248 0C3.28098 .25902 1.0361 1.0361-.51805 1.94269V-1.94269C1.0361-1.0361 3.28098-.25902 4.66248 0" fill="#0074c8"/>
<path transform="matrix(1.00006,0,0,-1,79.83459,103.045)" stroke-width=".79701" stroke-linecap="butt" stroke-miterlimit="10" stroke-linejoin="miter" fill="none" stroke="#0074c8" d="M51.0239 76.53586V88.71135"/>
<path transform="matrix(0,-1,-1.00006,-0,130.86154,14.333649)" d="M4.66248 0C3.28098 .25902 1.0361 1.0361-.51805 1.94269V-1.94269C1.0361-1.0361 3.28098-.25902 4.66248 0" fill="#0074c8"/>
<path transform="matrix(1.00006,0,0,-1,79.83459,103.045)" stroke-width=".79701" stroke-linecap="butt" stroke-miterlimit="10" stroke-linejoin="miter" fill="none" stroke="#0074c8" d="M63.77986-76.53586V-60.15105"/>
<path transform="matrix(0,-1,-1.00006,-0,143.61827,163.19605)" d="M4.66248 0C3.28098 .25902 1.0361 1.0361-.51805 1.94269V-1.94269C1.0361-1.0361 3.28098-.25902 4.66248 0" fill="#0074c8"/>
<path transform="matrix(1.00006,0,0,-1,79.83459,103.045)" stroke-width=".79701" stroke-linecap="butt" stroke-miterlimit="10" stroke-linejoin="miter" fill="none" stroke="#0074c8" d="M63.77986-51.0239V-34.63908"/>
<path transform="matrix(0,-1,-1.00006,-0,143.61827,137.68408)" d="M4.66248 0C3.28098 .25902 1.0361 1.0361-.51805 1.94269V-1.94269C1.0361-1.0361 3.28098-.25902 4.66248 0" fill="#0074c8"/>
<path transform="matrix(1.00006,0,0,-1,79.83459,103.045)" stroke-width=".79701" stroke-linecap="butt" stroke-miterlimit="10" stroke-linejoin="miter" fill="none" stroke="#0074c8" d="M63.77986-25.51193V-9.12712"/>
<path transform="matrix(0,-1,-1.00006,-0,143.61827,112.17212)" d="M4.66248 0C3.28098 .25902 1.0361 1.0361-.51805 1.94269V-1.94269C1.0361-1.0361 3.28098-.25902 4.66248 0" fill="#0074c8"/>
<path transform="matrix(1.00006,0,0,-1,79.83459,103.045)" stroke-width=".79701" stroke-linecap="butt" stroke-miterlimit="10" stroke-linejoin="miter" fill="none" stroke="#0074c8" d="M63.77986 0V16.3848"/>
<path transform="matrix(0,-1,-1.00006,-0,143.61827,86.6602)" d="M4.66248 0C3.28098 .25902 1.0361 1.0361-.51805 1.94269V-1.94269C1.0361-1.0361 3.28098-.25902 4.66248 0" fill="#0074c8"/>
<path transform="matrix(1.00006,0,0,-1,79.83459,103.045)" stroke-width=".79701" stroke-linecap="butt" stroke-miterlimit="10" stroke-linejoin="miter" fill="none" stroke="#0074c8" d="M63.77986 25.51193V41.89673"/>
<path transform="matrix(0,-1,-1.00006,-0,143.61827,61.14827)" d="M4.66248 0C3.28098 .25902 1.0361 1.0361-.51805 1.94269V-1.94269C1.0361-1.0361 3.28098-.25902 4.66248 0" fill="#0074c8"/>
<path transform="matrix(1.00006,0,0,-1,79.83459,103.045)" stroke-width=".79701" stroke-linecap="butt" stroke-miterlimit="10" stroke-linejoin="miter" fill="none" stroke="#0074c8" d="M63.77986 51.0239V67.40869"/>
<path transform="matrix(0,-1,-1.00006,-0,143.61827,35.636308)" d="M4.66248 0C3.28098 .25902 1.0361 1.0361-.51805 1.94269V-1.94269C1.0361-1.0361 3.28098-.25902 4.66248 0" fill="#0074c8"/>
<path transform="matrix(1.00006,0,0,-1,79.83459,103.045)" stroke-width=".79701" stroke-linecap="butt" stroke-miterlimit="10" stroke-linejoin="miter" fill="none" stroke="#0074c8" d="M63.77986 76.53586V92.92065"/>
<path transform="matrix(0,-1,-1.00006,-0,143.61827,10.1243519)" d="M4.66248 0C3.28098 .25902 1.0361 1.0361-.51805 1.94269V-1.94269C1.0361-1.0361 3.28098-.25902 4.66248 0" fill="#0074c8"/>
<path transform="matrix(1.00006,0,0,-1,79.83459,103.045)" stroke-width=".79701" stroke-linecap="butt" stroke-miterlimit="10" stroke-linejoin="miter" fill="none" stroke="#0074c8" d="M76.53586-76.53586V-55.68637"/>
<path transform="matrix(0,-1,-1.00006,-0,156.37503,158.73137)" d="M4.66248 0C3.28098 .25902 1.0361 1.0361-.51805 1.94269V-1.94269C1.0361-1.0361 3.28098-.25902 4.66248 0" fill="#0074c8"/>
<path transform="matrix(1.00006,0,0,-1,79.83459,103.045)" stroke-width=".79701" stroke-linecap="butt" stroke-miterlimit="10" stroke-linejoin="miter" fill="none" stroke="#0074c8" d="M76.53586-51.0239V-30.17441"/>
<path transform="matrix(0,-1,-1.00006,-0,156.37503,133.2194)" d="M4.66248 0C3.28098 .25902 1.0361 1.0361-.51805 1.94269V-1.94269C1.0361-1.0361 3.28098-.25902 4.66248 0" fill="#0074c8"/>
<path transform="matrix(1.00006,0,0,-1,79.83459,103.045)" stroke-width=".79701" stroke-linecap="butt" stroke-miterlimit="10" stroke-linejoin="miter" fill="none" stroke="#0074c8" d="M76.53586-25.51193V-4.66248"/>
<path transform="matrix(0,-1,-1.00006,-0,156.37503,107.70748)" d="M4.66248 0C3.28098 .25902 1.0361 1.0361-.51805 1.94269V-1.94269C1.0361-1.0361 3.28098-.25902 4.66248 0" fill="#0074c8"/>
<path transform="matrix(1.00006,0,0,-1,79.83459,103.045)" stroke-width=".79701" stroke-linecap="butt" stroke-miterlimit="10" stroke-linejoin="miter" fill="none" stroke="#0074c8" d="M76.53586 0V20.84946"/>
<path transform="matrix(0,-1,-1.00006,-0,156.37503,82.19554)" d="M4.66248 0C3.28098 .25902 1.0361 1.0361-.51805 1.94269V-1.94269C1.0361-1.0361 3.28098-.25902 4.66248 0" fill="#0074c8"/>
<path transform="matrix(1.00006,0,0,-1,79.83459,103.045)" stroke-width=".79701" stroke-linecap="butt" stroke-miterlimit="10" stroke-linejoin="miter" fill="none" stroke="#0074c8" d="M76.53586 25.51193V46.36142"/>
<path transform="matrix(0,-1,-1.00006,-0,156.37503,56.68358)" d="M4.66248 0C3.28098 .25902 1.0361 1.0361-.51805 1.94269V-1.94269C1.0361-1.0361 3.28098-.25902 4.66248 0" fill="#0074c8"/>
<path transform="matrix(1.00006,0,0,-1,79.83459,103.045)" stroke-width=".79701" stroke-linecap="butt" stroke-miterlimit="10" stroke-linejoin="miter" fill="none" stroke="#0074c8" d="M76.53586 51.0239V71.87338"/>
<path transform="matrix(0,-1,-1.00006,-0,156.37503,31.171616)" d="M4.66248 0C3.28098 .25902 1.0361 1.0361-.51805 1.94269V-1.94269C1.0361-1.0361 3.28098-.25902 4.66248 0" fill="#0074c8"/>
<path transform="matrix(1.00006,0,0,-1,79.83459,103.045)" stroke-width=".79701" stroke-linecap="butt" stroke-miterlimit="10" stroke-linejoin="miter" fill="none" stroke="#0074c8" d="M76.53586 76.53586V97.38533"/>
<path transform="matrix(0,-1,-1.00006,-0,156.37503,5.659668)" d="M4.66248 0C3.28098 .25902 1.0361 1.0361-.51805 1.94269V-1.94269C1.0361-1.0361 3.28098-.25902 4.66248 0" fill="#0074c8"/>
<path transform="matrix(1.00006,0,0,-1,79.83459,103.045)" stroke-width=".79701" stroke-linecap="butt" stroke-miterlimit="10" stroke-linejoin="miter" fill="none" stroke="#000000" d="M-25.51193 2.68993V-2.68993"/>
<use data-text="&#x2212;" xlink:href="#font_2_1" transform="matrix(9.963197,0,0,-9.9626,47.955675,115.874)"/>
<use data-text="1" xlink:href="#font_3_1" transform="matrix(9.963197,0,0,-9.9626,55.70514,115.874)"/>
<path transform="matrix(1.00006,0,0,-1,79.83459,103.045)" stroke-width=".79701" stroke-linecap="butt" stroke-miterlimit="10" stroke-linejoin="miter" fill="none" stroke="#000000" d="M-51.0239 2.68993V-2.68993"/>
<use data-text="&#x2212;" xlink:href="#font_2_1" transform="matrix(9.963197,0,0,-9.9626,22.442154,115.874)"/>
<use data-text="2" xlink:href="#font_3_2" transform="matrix(9.963197,0,0,-9.9626,30.19162,115.874)"/>
<path transform="matrix(1.00006,0,0,-1,79.83459,103.045)" stroke-width=".79701" stroke-linecap="butt" stroke-miterlimit="10" stroke-linejoin="miter" fill="none" stroke="#000000" d="M25.51193 2.68993V-2.68993"/>
<use data-text="1" xlink:href="#font_3_1" transform="matrix(9.963197,0,0,-9.9626,102.856967,115.874)"/>
<path transform="matrix(1.00006,0,0,-1,79.83459,103.045)" stroke-width=".79701" stroke-linecap="butt" stroke-miterlimit="10" stroke-linejoin="miter" fill="none" stroke="#000000" d="M51.0239 2.68993V-2.68993"/>
<use data-text="2" xlink:href="#font_3_2" transform="matrix(9.963197,0,0,-9.9626,128.3705,115.874)"/>
<path transform="matrix(1.00006,0,0,-1,79.83459,103.045)" stroke-width=".79701" stroke-linecap="butt" stroke-miterlimit="10" stroke-linejoin="miter" fill="none" stroke="#000000" d="M-1.79327-51.0239H1.79327"/>
<use data-text="&#x2212;" xlink:href="#font_2_1" transform="matrix(9.963197,0,0,-9.9626,65.17771,156.864)"/>
<use data-text="2" xlink:href="#font_3_2" transform="matrix(9.963197,0,0,-9.9626,72.92718,156.864)"/>
<path transform="matrix(1.00006,0,0,-1,79.83459,103.045)" stroke-width=".79701" stroke-linecap="butt" stroke-miterlimit="10" stroke-linejoin="miter" fill="none" stroke="#000000" d="M-1.79327-25.51193H1.79327"/>
<use data-text="&#x2212;" xlink:href="#font_2_1" transform="matrix(9.963197,0,0,-9.9626,65.17771,131.35199)"/>
<use data-text="1" xlink:href="#font_3_1" transform="matrix(9.963197,0,0,-9.9626,72.92718,131.35199)"/>
<path transform="matrix(1.00006,0,0,-1,79.83459,103.045)" stroke-width=".79701" stroke-linecap="butt" stroke-miterlimit="10" stroke-linejoin="miter" fill="none" stroke="#000000" d="M-1.79327 25.51193H1.79327"/>
<use data-text="1" xlink:href="#font_3_1" transform="matrix(9.963197,0,0,-9.9626,72.92717,80.743)"/>
<path transform="matrix(1.00006,0,0,-1,79.83459,103.045)" stroke-width=".79701" stroke-linecap="butt" stroke-miterlimit="10" stroke-linejoin="miter" fill="none" stroke="#000000" d="M-1.79327 51.0239H1.79327"/>
<use data-text="2" xlink:href="#font_3_2" transform="matrix(9.963197,0,0,-9.9626,72.92717,55.231)"/>
</svg>
