<svg xmlns="http://www.w3.org/2000/svg" xmlns:xlink="http://www.w3.org/1999/xlink" version="1.1" width="163pt" height="124pt" viewBox="0 0 163 124">
<defs>
<path id="font_1_1" d="M.43798829 .0055236818C.59298709 .0644989 .73999026 .24256897 .73999026 .43579103 .73999026 .5969696 .6339874 .7050781 .4850006 .7050781 .2689972 .7050781 .04899597 .47784425 .04899597 .24456787 .04899597 .07847595 .16099549-.022460938 .30499269-.022460938 .32998658-.022460938 .3639984-.018463135 .40299989-.007461548 .39898683-.06939697 .39898683-.071380618 .39898683-.084365848 .39898683-.11634827 .39898683-.19433594 .48199464-.19433594 .6009979-.19433594 .6489868-.011474609 .6489868-.00047302247 .6489868 .0065307619 .6419983 .009521484 .6380005 .009521484 .6299896 .009521484 .6279907 .0045318605 .6259918-.0014648438 .60198977-.072387699 .5439911-.097335819 .5089874-.097335819 .46299745-.097335819 .44799806-.070388797 .43798829 .0055236818M.24899292 .013519287C.17098999 .044509889 .13699341 .12245178 .13699341 .21252442 .13699341 .2816162 .16299439 .4237671 .23899842 .5319061 .31199647 .63401797 .4059906 .68006899 .47898866 .68006899 .57899478 .68006899 .6519928 .6019745 .6519928 .4678192 .6519928 .3677063 .6009979 .13345337 .43299867 .039505006 .42799378 .07447815 .41799928 .14746094 .34498597 .14746094 .2919922 .14746094 .24299622 .097473148 .24299622 .04550171 .24299622 .025512696 .24899292 .014526367 .24899292 .013519287M.31098939 .002532959C.29699708 .002532959 .2649994 .002532959 .2649994 .04550171 .2649994 .08547974 .30299378 .12545777 .34498597 .12545777 .3869934 .12545777 .4059906 .10147095 .4059906 .040512086 .4059906 .025512696 .40499879 .024520874 .394989 .020523072 .36898805 .009521484 .33898927 .002532959 .31098939 .002532959Z"/>
<path id="font_1_4" d="M.48599244 .38136292C.48999024 .39537049 .48999024 .39736939 .48999024 .40437318 .48999024 .42237855 .47599793 .43138124 .46099855 .43138124 .45098878 .43138124 .43499757 .42536927 .42599488 .41036988 .42399598 .405365 .41600038 .37435914 .4119873 .35635377 .40499879 .33035279 .397995 .30334474 .3919983 .27633668L.34700013 .09628296C.34298707 .08126831 .2999878 .011245728 .23399353 .011245728 .18299866 .011245728 .17199707 .055267335 .17199707 .0922699 .17199707 .1382904 .18899536 .20030213 .22299195 .28833009 .23899842 .3293457 .24299622 .3403473 .24299622 .36035157 .24299622 .405365 .21099854 .4423828 .16099549 .4423828 .06599426 .4423828 .0289917 .29733277 .0289917 .28833009 .0289917 .27833558 .038986207 .27833558 .040985109 .27833558 .050994874 .27833558 .051986696 .28033448 .056991579 .29634095 .083999637 .3903656 .12399292 .42037965 .1579895 .42037965 .1659851 .42037965 .18299866 .42037965 .18299866 .3883667 .18299866 .36335755 .17298889 .3373413 .1659851 .31834413 .12599182 .21231079 .10798645 .1552887 .10798645 .10827637 .10798645 .019256592 .17098999-.0107421879 .22999573-.0107421879 .2689972-.0107421879 .30299378 .0062561037 .33099366 .03425598 .31799317-.017745972 .30599977-.06674194 .2659912-.11973572 .23999024-.15385437 .20199585-.18309021 .1559906-.18309021 .14199829-.18309021 .09700012-.18005371 .07998657-.14074707 .09599304-.14074707 .10899353-.14074707 .12298584-.1287384 .1329956-.11973572 .14299011-.10673523 .14299011-.08773804 .14299011-.056747438 .115997318-.052734376 .10598755-.052734376 .08299255-.052734376 .049987794-.068740848 .049987794-.11773682 .049987794-.16796875 .09399414-.20507813 .1559906-.20507813 .25898744-.20507813 .3619995-.11373901 .3899994-.00074768069L.48599244 .38136292Z"/>
<path id="font_1_3" d="M.33399964 .30233766C.33999635 .32835389 .36299134 .42037965 .43299867 .42037965 .43798829 .42037965 .46199037 .42037965 .48298646 .40734864 .45498658 .402359 .43499757 .37734986 .43499757 .35334779 .43499757 .33735658 .44599916 .31835938 .47299195 .31835938 .49499513 .31835938 .5269928 .3363495 .5269928 .37635804 .5269928 .42837525 .46798707 .4423828 .43399049 .4423828 .37599183 .4423828 .34098817 .38935853 .32899476 .36634828 .3039856 .43237306 .25 .4423828 .22099304 .4423828 .116989139 .4423828 .05999756 .3133545 .05999756 .28834535 .05999756 .27833558 .069992069 .27833558 .07199097 .27833558 .07998657 .27833558 .08299255 .28033448 .084991458 .28933717 .11898804 .39535523 .18499756 .42037965 .21899414 .42037965 .23799134 .42037965 .272995 .4113617 .272995 .35334779 .272995 .32235719 .2559967 .25532533 .21899414 .11528015 .20298767 .053268434 .16799927 .011245728 .12399292 .011245728 .117996219 .011245728 .09498596 .011245728 .07398987 .024276734 .09899902 .029266358 .12098694 .05027771 .12098694 .07827759 .12098694 .105270389 .09899902 .11328125 .083999637 .11328125 .053985597 .11328125 .0289917 .08728027 .0289917 .055267335 .0289917 .009246826 .07899475-.0107421879 .12298584-.0107421879 .18899536-.0107421879 .22499085 .059280397 .22799683 .0652771 .23999024 .028274537 .27598573-.0107421879 .33599855-.0107421879 .43899537-.0107421879 .49598695 .118270877 .49598695 .14328003 .49598695 .1532898 .4869995 .1532898 .48399354 .1532898 .47499085 .1532898 .47299195 .14929199 .47099305 .14228821 .43798829 .03527832 .36999513 .011245728 .33799745 .011245728 .29899598 .011245728 .2829895 .043273927 .2829895 .07727051 .2829895 .09927368 .2889862 .121276859 .2999878 .16529846L.33399964 .30233766Z"/>
<path id="font_1_2" d="M.20599365 .3996582H.2999878C.31999208 .3996582 .32998658 .3996582 .32998658 .41966249 .32998658 .43066407 .31999208 .43066407 .3019867 .43066407H.21398926C.25 .5724945 .25498963 .59246829 .25498963 .59846499 .25498963 .61546328 .24299622 .62545779 .22599793 .62545779 .22299195 .62545779 .19499207 .62446597 .18598938 .58947756L.14698792 .43066407H.052993776C.032989503 .43066407 .022994996 .43066407 .022994996 .4116516 .022994996 .3996582 .0309906 .3996582 .050994874 .3996582H.13899231C.066986087 .11608887 .06298828 .099121097 .06298828 .08114624 .06298828 .02722168 .100997928-.0107421879 .15499878-.0107421879 .25698854-.0107421879 .31399537 .13505554 .31399537 .14305115 .31399537 .1530304 .30599977 .1530304 .3019867 .1530304 .29299928 .1530304 .2919922 .15003968 .2869873 .13905335 .24398804 .035217287 .19099427 .011245728 .15699768 .011245728 .13598633 .011245728 .12599182 .024230957 .12599182 .057174684 .12599182 .08114624 .12799073 .088134769 .13198853 .10510254L.20599365 .3996582Z"/>
<path id="font_2_1" d="M.5249939 .33813478C.5109863 .3960724 .46598817 .4560547 .37199403 .4560547 .23199463 .4560547 .115997318 .35112 .07998657 .2612152 .07398987 .24423218 .05999756 .20327759 .05999756 .16331482 .05999756 .09437561 .11399841-.01953125 .269989-.01953125 .5289917-.01953125 .6339874 .30317689 .6339874 .4450531 .6339874 .61631777 .5219879 .7138672 .3880005 .7138672 .22499085 .7138672 .17999268 .58436587 .17999268 .55336 .17999268 .5453644 .18499756 .5173645 .21998596 .5173645 .25498963 .5173645 .27598573 .54837039 .27598573 .57237246 .27598573 .59936526 .2559967 .6083679 .23699951 .6103668 .2869873 .6848602 .36898805 .6848602 .38598634 .6848602 .46099855 .6848602 .5499878 .63816836 .5499878 .4962616 .5499878 .4530487 .54499819 .4180603 .526001 .33813478H.5249939M.27198792 .012466431C.15899658 .012466431 .1459961 .09738159 .1459961 .12834168 .1459961 .16731262 .17298889 .265213 .18299866 .29019166 .20098877 .33613587 .2630005 .42803956 .37599183 .42803956 .47299195 .42803956 .5049896 .35212709 .5049896 .2921753 .5049896 .22525025 .43998719 .012466431 .27198792 .012466431Z"/>
<path id="font_2_2" d="M.46499635-.060012819C.46499635-.12535095 .47799684-.19433594 .55999758-.19433594 .68099978-.19433594 .7389984-.021560669 .7389984 .00045776368 .7389984 .007461548 .73298647 .014465332 .72499087 .014465332 .71499636 .014465332 .71199038 .0054626467 .71099856 .0014648438 .68699648-.069107059 .62098696-.08934021 .58699038-.08934021 .5469971-.08934021 .526001-.072143558 .5079956 .008468628 .6859894 .07141113 .82899478 .24832154 .82899478 .42523194 .82899478 .5821686 .71598818 .703125 .5389862 .703125 .2999878 .703125 .068984989 .47920228 .068984989 .25431825 .068984989 .09338379 .18798828-.01953125 .3600006-.01953125 .3789978-.01953125 .41299439-.018539429 .46499635-.0055389406V-.060012819M.2919922 .02545166C.23999024 .043426515 .1659851 .09538269 .1659851 .22932434 .1659851 .29328919 .18699646 .426239 .27799989 .5391846 .34098817 .6161499 .43798829 .67111209 .5309906 .67111209 .6399994 .67111209 .7319946 .5981598 .7319946 .45222474 .7319946 .3522644 .68299868 .13735962 .5 .046432496 .48399354 .109375 .45799256 .15136719 .39898683 .15136719 .34298707 .15136719 .28799439 .10437012 .28799439 .05142212 .28799439 .033447267 .2889862 .032440187 .2919922 .02545166M.46499635 .030441285C.44299317 .022445679 .4059906 .012466431 .36698915 .012466431 .35099793 .012466431 .31599427 .012466431 .31599427 .05142212 .31599427 .08938599 .35699464 .12335205 .39898683 .12335205 .43499757 .12335205 .46199037 .1073761 .46499635 .030441285Z"/>
<path id="font_2_3" d="M.24598694 .39465333H.34799195C.36698915 .39465333 .37998963 .39465333 .37998963 .4166565 .37998963 .43066407 .36698915 .43066407 .34999085 .43066407H.25498963L.2919922 .57850649C.29299928 .58351138 .29499818 .588501 .29499818 .5924988 .29499818 .6104889 .2809906 .6244812 .26098634 .6244812 .23599243 .6244812 .22099304 .6074829 .21398926 .58151248 .20698548 .5565338 .21998596 .6044922 .17599488 .43066407H.07398987C.054992677 .43066407 .041992189 .43066407 .041992189 .4086609 .041992189 .39465333 .053985597 .39465333 .07199097 .39465333H.16699219L.10798645 .15901184C.101989749 .13404846 .09298706 .098098758 .09298706 .085128787 .09298706 .0262146 .14299011-.009765625 .19999695-.009765625 .31098939-.009765625 .37399293 .13005066 .37399293 .14303589 .37399293 .15602112 .36099244 .15602112 .35798646 .15602112 .34599305 .15602112 .34498597 .15402222 .33699037 .13703919 .30899049 .074142459 .2579956 .018234253 .20298767 .018234253 .18199158 .018234253 .16799927 .031204224 .16799927 .06715393 .16799927 .07713318 .17199707 .098098758 .17399597 .10809326L.24598694 .39465333Z"/>
<path id="font_1_5" d="M.1329956 .08345032C.18699646 .14138794 .21598816 .16636658 .2519989 .19732666 .2519989 .19833374 .31399537 .25128175 .34999085 .2872467 .44499208 .3803711 .46699525 .42837525 .46699525 .43237306 .46699525 .4423828 .45799256 .4423828 .45599366 .4423828 .44898988 .4423828 .44599916 .44036866 .44099427 .43138124 .41099549 .38337709 .3899994 .3671875 .3659973 .3671875 .34199525 .3671875 .32998658 .38237 .31498719 .3993683 .29599 .42237855 .2789917 .4423828 .24598694 .4423828 .17098999 .4423828 .125 .34918214 .125 .3282013 .125 .3231964 .12799073 .31721498 .13699341 .31721498 .1459961 .31721498 .147995 .3222046 .1499939 .3282013 .16899109 .37434388 .22698975 .37538148 .23498535 .37538148 .2559967 .37538148 .2749939 .36820985 .2979889 .36018373 .33799745 .34518434 .34899903 .34518434 .375 .34518434 .33898927 .30223084 .25498963 .2303009 .23599243 .21430969L.1459961 .13040161C.07798767 .06341553 .042999269 .0062561037 .042999269-.00074768069 .042999269-.0107421879 .052993776-.0107421879 .054992677-.0107421879 .06298828-.0107421879 .06498718-.008743286 .070999149 .002243042 .09399414 .037246705 .12399292 .064453128 .1559906 .064453128 .1789856 .064453128 .18899536 .055252077 .21398926 .026245118 .23098755 .0052490236 .24899292-.0107421879 .27799989-.0107421879 .3769989-.0107421879 .43499757 .1164093 .43499757 .14338684 .43499757 .14837647 .43099977 .15338135 .4229889 .15338135 .4139862 .15338135 .4119873 .14738465 .40899659 .14039612 .38598634 .07543945 .32199098 .056243898 .2889862 .056243898 .2689972 .056243898 .25099183 .06239319 .22999573 .06944275 .19599915 .08244324 .18099976 .08644104 .1599884 .08644104 .1579895 .08644104 .14199829 .08644104 .1329956 .08345032Z"/>
<path id="font_2_6" d="M.16799927 .08824158C.19400025 .11425781 .21199036 .13327027 .29699708 .2013092 .31799317 .2183075 .3929901 .27835084 .42199708 .30636598 .48298646 .36639405 .5209961 .41740418 .5209961 .42939759 .5209961 .44140626 .5079956 .44140626 .5039978 .44140626 .49499513 .44140626 .49198915 .4393921 .4869995 .43139649 .45599366 .38539125 .43499757 .37039186 .41099549 .37039186 .39898683 .37039186 .38398744 .37139894 .35398866 .40040589 .31999208 .43440248 .2979889 .44140626 .2749939 .44140626 .19499207 .44140626 .14099121 .35440064 .14099121 .32437135 .14099121 .31536866 .15098572 .31236268 .1579895 .31236268 .16999817 .31236268 .17199707 .31536866 .17599488 .3263855 .19099427 .36140443 .24699402 .36340333 .2630005 .36340333 .28599549 .36340333 .31199647 .35739137 .32598878 .35440064 .3809967 .34239198 .3880005 .34239198 .41299439 .34239198 .3869934 .31536866 .36898805 .29736329 .27398683 .22131348 .19599915 .1592865 .16899109 .13426209 .1499939 .11425781 .08999634 .055221559 .06098938 .011230469 .06098938 .0022277833 .06098938-.009765625 .07398987-.009765625 .07798767-.009765625 .08799744-.009765625 .08999634-.0077667238 .09498596 .00022888184 .12199402 .038223268 .15299988 .06123352 .18699646 .06123352 .19898987 .06123352 .21398926 .06022644 .24099732 .035232545 .27198792 .0052337648 .2919922-.009765625 .32398988-.009765625 .43099977-.009765625 .49798585 .11125183 .49798585 .14527893 .49798585 .15727234 .4869995 .15827942 .48098756 .15827942 .46899415 .15827942 .46699525 .15327454 .46299745 .14227295 .44400025 .09223938 .3849945 .068222049 .33599855 .068222049 .31298829 .068222049 .28799439 .07322693 .2630005 .07923889 .21699524 .0892334 .20899964 .0892334 .19099427 .0892334 .18899536 .0892334 .17399597 .0892334 .16799927 .08824158Z"/>
<path id="font_2_5" d="M.55599978 .37738038C.55999758 .39138795 .55999758 .39338685 .55999758 .3993988 .55999758 .41940309 .5439911 .43139649 .5269928 .43139649 .5159912 .43139649 .49699403 .4263916 .48599244 .4073944 .48298646 .4013977 .47499085 .36938478 .46998597 .34936524L.44898988 .2663269C.44299317 .24232483 .4119873 .11627197 .40899659 .105270389 .4079895 .105270389 .3639984 .018234253 .28599549 .018234253 .21798706 .018234253 .21798706 .08325195 .21798706 .101257327 .21798706 .1552887 .24099732 .2183075 .2709961 .29534913 .2829895 .32736207 .28799439 .33937074 .28799439 .35636903 .28799439 .40438844 .24699402 .44140626 .19299317 .44140626 .09199524 .44140626 .04699707 .3053589 .04699707 .28834535 .04699707 .27534486 .06098938 .27534486 .06399536 .27534486 .07798767 .27534486 .07899475 .28033448 .08198547 .29135133 .10699463 .3743744 .1499939 .4133911 .18998719 .4133911 .20698548 .4133911 .21499634 .40238954 .21499634 .37838746 .21499634 .3553772 .20599365 .33335877 .20098877 .32035829 .15299988 .19830323 .14299011 .1612854 .14299011 .117263797 .14299011 .1002655 .14299011 .053237916 .18199158 .021224976 .21299744-.004776001 .25498963-.009765625 .28199769-.009765625 .32199098-.009765625 .35798646 .0052337648 .3909912 .035232545 .37799073-.01977539 .36698915-.061782838 .32499696-.11178589 .2979889-.14279175 .2579956-.17610169 .20498657-.17610169 .19799805-.17610169 .15098572-.17610169 .12998963-.14279175 .18399048-.13679505 .18399048-.08879089 .18399048-.08778381 .18399048-.055786134 .15499878-.04978943 .14498902-.04978943 .11999512-.04978943 .08699036-.0697937 .08699036-.11578369 .08699036-.1670227 .1349945-.20410156 .20599365-.20410156 .30699159-.20410156 .42999269-.12579346 .46099855-.00077819827L.55599978 .37738038Z"/>
<path id="font_2_4" d="M.24899292 .10601807C.23899842 .072021488 .20599365 .018234253 .15499878 .018234253 .1519928 .018234253 .12199402 .018234253 .100997928 .03215027 .14199829 .04508972 .14498902 .08100891 .14498902 .087020877 .14498902 .10900879 .12799073 .12402344 .10499573 .12402344 .07699585 .12402344 .04798889 .10002136 .04798889 .0630188 .04798889 .01322937 .10398865-.009765625 .15299988-.009765625 .19898987-.009765625 .23999024 .019226075 .2649994 .061019899 .2889862 .008224487 .34399415-.009765625 .38398744-.009765625 .49899293-.009765625 .55999758 .11502075 .55999758 .14305115 .55999758 .15608216 .5469971 .15608216 .5439911 .15608216 .5299988 .15608216 .5289917 .15107727 .5249939 .13905335 .5039978 .07002258 .44400025 .018234253 .3880005 .018234253 .34799195 .018234253 .32699586 .04508972 .32699586 .08302307 .32699586 .10900879 .35099793 .20018006 .3789978 .31140138 .39898683 .38841249 .44400025 .4133911 .47698976 .4133911 .47898866 .4133911 .5099945 .4133911 .5309906 .39941407 .49899293 .39041139 .4869995 .3624115 .4869995 .34440614 .4869995 .32240296 .5039978 .30740357 .5269928 .30740357 .5499878 .30740357 .58299258 .32640077 .58299258 .3684082 .58299258 .4243927 .5189972 .44140626 .47898866 .44140626 .42900086 .44140626 .3889923 .4084015 .36698915 .3704071 .34899903 .4113922 .30299378 .44140626 .24699402 .44140626 .1349945 .44140626 .070999149 .31840516 .070999149 .2883606 .070999149 .27534486 .084991458 .27534486 .08799744 .27534486 .100997928 .27534486 .101989749 .27934266 .10699463 .29237367 .13198853 .3704071 .19499207 .4133911 .24398804 .4133911 .2769928 .4133911 .3039856 .395401 .3039856 .3474121 .3039856 .32740785 .2919922 .27734376 .2829895 .24327088L.24899292 .10601807Z"/>
</defs>
<path transform="matrix(1.00008,0,0,-1,81.420398,98.773)" stroke-width="1.49442" stroke-linecap="butt" stroke-miterlimit="10" stroke-linejoin="miter" fill="none" stroke="#0074c8" d="M0 85.04042-21.2601 42.5202"/>
<use data-text="Q" xlink:href="#font_1_1" transform="matrix(9.963397,0,0,-9.9626,77.48208,7.7280046)" fill="#0074c8"/>
<path transform="matrix(1.00008,0,0,-1,81.420398,98.773)" stroke-width="1.49442" stroke-linecap="butt" stroke-miterlimit="10" stroke-linejoin="miter" fill="none" stroke="#0074c8" d="M0 85.04042 21.2601 42.5202"/>
<use data-text="y" xlink:href="#font_1_4" transform="matrix(9.963397,0,0,-9.9626,100.06088,64.61)" fill="#0074c8"/>
<path transform="matrix(1.00008,0,0,-1,81.420398,98.773)" stroke-width=".79701" stroke-linecap="butt" stroke-miterlimit="10" stroke-linejoin="miter" fill="none" stroke="#0074c8" d=""/>
<use data-text="x" xlink:href="#font_1_3" transform="matrix(9.963397,0,0,-9.9626,57.311464,64.261)" fill="#0074c8"/>
<path transform="matrix(1.00008,0,0,-1,81.420398,98.773)" stroke-width=".79701" stroke-linecap="butt" stroke-miterlimit="10" stroke-linejoin="miter" fill="none" stroke="#0074c8" d=""/>
<use data-text="t" xlink:href="#font_1_2" transform="matrix(9.963397,0,0,-9.9626,15.836151,66.100009)" fill="#0074c8"/>
<path transform="matrix(1.00008,0,0,-1,81.420398,98.773)" stroke-width="1.49442" stroke-linecap="butt" stroke-miterlimit="10" stroke-linejoin="miter" fill="none" stroke="#0074c8" d="M0 85.04042H-63.7803V42.5202"/>
<use data-text="&#x2202;" xlink:href="#font_2_1" transform="matrix(6.974358,0,0,-6.9738,1.4129944,28.159005)"/>
<use data-text="Q" xlink:href="#font_2_2" transform="matrix(6.974358,0,0,-6.9738,6.0927736,28.159005)"/>
<path transform="matrix(1.00008,0,0,-1,-167.20949,-54.169)" stroke-width=".3985" stroke-linecap="butt" stroke-miterlimit="10" stroke-linejoin="miter" fill="none" stroke="#000000" d="M168.609-84.282H179.566"/>
<use data-text="&#x2202;" xlink:href="#font_2_1" transform="matrix(6.974358,0,0,-6.9738,3.0451203,36.039)"/>
<use data-text="t" xlink:href="#font_2_3" transform="matrix(6.974358,0,0,-6.9738,7.7249147,36.039)"/>
<path transform="matrix(1.00008,0,0,-1,81.420398,98.773)" stroke-width=".79701" stroke-linecap="butt" stroke-miterlimit="10" stroke-linejoin="miter" fill="none" stroke="#0074c8" d=""/>
<use data-text="z" xlink:href="#font_1_5" transform="matrix(9.963397,0,0,-9.9626,142.67029,64.261)" fill="#0074c8"/>
<path transform="matrix(1.00008,0,0,-1,81.420398,98.773)" stroke-width="1.49442" stroke-linecap="butt" stroke-miterlimit="10" stroke-linejoin="miter" fill="none" stroke="#0074c8" d="M0 85.04042H63.7803V42.5202"/>
<use data-text="&#x2202;" xlink:href="#font_2_1" transform="matrix(6.974358,0,0,-6.9738,150.46991,28.159005)"/>
<use data-text="Q" xlink:href="#font_2_2" transform="matrix(6.974358,0,0,-6.9738,155.14969,28.159005)"/>
<path transform="matrix(1.00008,0,0,-1,-18.152573,-54.169)" stroke-width=".3985" stroke-linecap="butt" stroke-miterlimit="10" stroke-linejoin="miter" fill="none" stroke="#000000" d="M168.609-84.282H179.566"/>
<use data-text="&#x2202;" xlink:href="#font_2_1" transform="matrix(6.974358,0,0,-6.9738,151.561,36.039)"/>
<use data-text="z" xlink:href="#font_2_6" transform="matrix(6.974358,0,0,-6.9738,156.24079,36.039)"/>
<path transform="matrix(1.00008,0,0,-1,81.420398,98.773)" stroke-width="1.49442" stroke-linecap="butt" stroke-miterlimit="10" stroke-linejoin="miter" fill="none" stroke="#0074c8" d="M-21.2601 29.764V-12.75616"/>
<use data-text="t" xlink:href="#font_1_2" transform="matrix(9.963397,0,0,-9.9626,58.35955,121.725009)" fill="#0074c8"/>
<path transform="matrix(1.00008,0,0,-1,81.420398,98.773)" stroke-width="1.49442" stroke-linecap="butt" stroke-miterlimit="10" stroke-linejoin="miter" fill="none" stroke="#0074c8" d="M21.2601 29.764V-12.75616"/>
<use data-text="t" xlink:href="#font_1_2" transform="matrix(9.963397,0,0,-9.9626,100.88295,121.725009)" fill="#0074c8"/>
<path transform="matrix(1.00008,0,0,-1,81.420398,98.773)" stroke-width="1.49442" stroke-linecap="butt" stroke-miterlimit="10" stroke-linejoin="miter" fill="none" stroke="#0074c8" d="M63.7803 29.764V-12.75616"/>
<use data-text="t" xlink:href="#font_1_2" transform="matrix(9.963397,0,0,-9.9626,143.40636,121.725009)" fill="#0074c8"/>
<path transform="matrix(1.00008,0,0,-1,81.420398,98.773)" stroke-width=".79701" stroke-linecap="butt" stroke-miterlimit="10" stroke-linejoin="miter" fill="none" stroke="#000000" d="M42.5202 42.5202V42.5202"/>
<use data-text="&#x2202;" xlink:href="#font_2_1" transform="matrix(6.974358,0,0,-6.9738,96.96664,27.481003)"/>
<use data-text="Q" xlink:href="#font_2_2" transform="matrix(6.974358,0,0,-6.9738,101.646419,27.481003)"/>
<path transform="matrix(1.00008,0,0,-1,-71.655849,-54.847)" stroke-width=".3985" stroke-linecap="butt" stroke-miterlimit="10" stroke-linejoin="miter" fill="none" stroke="#000000" d="M168.609-84.282H179.566"/>
<use data-text="&#x2202;" xlink:href="#font_2_1" transform="matrix(6.974358,0,0,-6.9738,97.957729,35.361)"/>
<use data-text="y" xlink:href="#font_2_5" transform="matrix(6.974358,0,0,-6.9738,102.63752,35.361)"/>
<path transform="matrix(1.00008,0,0,-1,81.420398,98.773)" stroke-width=".79701" stroke-linecap="butt" stroke-miterlimit="10" stroke-linejoin="miter" fill="none" stroke="#000000" d="M42.5202 42.5202V42.5202"/>
<use data-text="&#x2202;" xlink:href="#font_2_1" transform="matrix(6.974358,0,0,-6.9738,54.916269,28.159005)"/>
<use data-text="Q" xlink:href="#font_2_2" transform="matrix(6.974358,0,0,-6.9738,59.596048,28.159005)"/>
<path transform="matrix(1.00008,0,0,-1,-113.706218,-54.169)" stroke-width=".3985" stroke-linecap="butt" stroke-miterlimit="10" stroke-linejoin="miter" fill="none" stroke="#000000" d="M168.609-84.282H179.566"/>
<use data-text="&#x2202;" xlink:href="#font_2_1" transform="matrix(6.974358,0,0,-6.9738,55.794336,36.039)"/>
<use data-text="x" xlink:href="#font_2_4" transform="matrix(6.974358,0,0,-6.9738,60.47413,36.039)"/>
<path transform="matrix(1.00008,0,0,-1,81.420398,98.773)" stroke-width=".79701" stroke-linecap="butt" stroke-miterlimit="10" stroke-linejoin="miter" fill="none" stroke="#000000" d="M42.5202 42.5202V42.5202"/>
<use data-text="&#x2202;" xlink:href="#font_2_1" transform="matrix(6.974358,0,0,-6.9738,46.041566,89.011)"/>
<use data-text="x" xlink:href="#font_2_4" transform="matrix(6.974358,0,0,-6.9738,50.721345,89.011)"/>
<path transform="matrix(1.00008,0,0,-1,-122.58092,6.161)" stroke-width=".3985" stroke-linecap="butt" stroke-miterlimit="10" stroke-linejoin="miter" fill="none" stroke="#000000" d="M168.609-84.282H177.81"/>
<use data-text="&#x2202;" xlink:href="#font_2_1" transform="matrix(6.974358,0,0,-6.9738,46.79564,96.369)"/>
<use data-text="t" xlink:href="#font_2_3" transform="matrix(6.974358,0,0,-6.9738,51.475419,96.369)"/>
<path transform="matrix(1.00008,0,0,-1,81.420398,98.773)" stroke-width=".79701" stroke-linecap="butt" stroke-miterlimit="10" stroke-linejoin="miter" fill="none" stroke="#000000" d="M42.5202 42.5202V42.5202"/>
<use data-text="&#x2202;" xlink:href="#font_2_1" transform="matrix(6.974358,0,0,-6.9738,107.59749,88.75)"/>
<use data-text="y" xlink:href="#font_2_5" transform="matrix(6.974358,0,0,-6.9738,112.27727,88.75)"/>
<path transform="matrix(1.00008,0,0,-1,-61.024999,6.422)" stroke-width=".3985" stroke-linecap="butt" stroke-miterlimit="10" stroke-linejoin="miter" fill="none" stroke="#000000" d="M168.609-84.282H177.583"/>
<use data-text="&#x2202;" xlink:href="#font_2_1" transform="matrix(6.974358,0,0,-6.9738,108.23753,96.63)"/>
<use data-text="t" xlink:href="#font_2_3" transform="matrix(6.974358,0,0,-6.9738,112.91733,96.63)"/>
<path transform="matrix(1.00008,0,0,-1,81.420398,98.773)" stroke-width=".79701" stroke-linecap="butt" stroke-miterlimit="10" stroke-linejoin="miter" fill="none" stroke="#000000" d="M42.5202 42.5202V42.5202"/>
<use data-text="&#x2202;" xlink:href="#font_2_1" transform="matrix(6.974358,0,0,-6.9738,150.12088,89.011)"/>
<use data-text="z" xlink:href="#font_2_6" transform="matrix(6.974358,0,0,-6.9738,154.80066,89.011)"/>
<path transform="matrix(1.00008,0,0,-1,-18.501595,6.161)" stroke-width=".3985" stroke-linecap="butt" stroke-miterlimit="10" stroke-linejoin="miter" fill="none" stroke="#000000" d="M168.609-84.282H177.384"/>
<use data-text="&#x2202;" xlink:href="#font_2_1" transform="matrix(6.974358,0,0,-6.9738,150.66193,96.369)"/>
<use data-text="t" xlink:href="#font_2_3" transform="matrix(6.974358,0,0,-6.9738,155.3417,96.369)"/>
</svg>
