<svg xmlns="http://www.w3.org/2000/svg" xmlns:xlink="http://www.w3.org/1999/xlink" version="1.1" width="90pt" height="104pt" viewBox="0 0 90 104">
<path transform="matrix(1.00002,0,0,-1.00006,17.065964,80.55387)" stroke-width="1.99255" stroke-linecap="butt" stroke-miterlimit="10" stroke-linejoin="miter" fill="none" stroke="#000000" d="M0 0H56.69362V56.69362H0V0"/>
<path transform="matrix(1.00002,0,0,-1.00006,17.065964,80.55387)" stroke-width="1.99255" stroke-linecap="butt" stroke-dasharray="2.98883,2.98883" stroke-miterlimit="10" stroke-linejoin="miter" fill="none" stroke="#0074c8" d="M-14.17339-21.2601H70.867V77.95372H-14.17339V-21.2601"/>
<path transform="matrix(1.00002,0,0,-1.00006,17.065964,80.55387)" stroke-width="1.49442" stroke-linecap="butt" stroke-miterlimit="10" stroke-linejoin="miter" fill="none" stroke="#0074c8" d="M28.3468 56.69362V71.40822"/>
<path transform="matrix(0,-1.00006,-1.00002,-0,45.41333,9.141373)" d="M6.54549 0C4.60605 .36362 1.45454 1.45454-.72726 2.72728V-2.72728C1.45454-1.45454 4.60605-.36362 6.54549 0" fill="#0074c8"/>
<path transform="matrix(1.00002,0,0,-1.00006,17.065964,80.55387)" stroke-width="1.49442" stroke-linecap="butt" stroke-miterlimit="10" stroke-linejoin="miter" fill="none" stroke="#0074c8" d="M56.69362 28.3468H64.3215"/>
<path transform="matrix(1.00002,0,0,-1.00006,81.388759,52.20537)" d="M6.54549 0C4.60605 .36362 1.45454 1.45454-.72726 2.72728V-2.72728C1.45454-1.45454 4.60605-.36362 6.54549 0" fill="#0074c8"/>
</svg>
