<svg xmlns="http://www.w3.org/2000/svg" xmlns:xlink="http://www.w3.org/1999/xlink" version="1.1" width="157pt" height="145pt" viewBox="0 0 157 145">
<defs>
<path id="font_1_1" d="M.33099366-.2400055C.33099366-.23701477 .33099366-.23500061 .31399537-.21800232 .18899536-.0920105 .15699768 .09700012 .15699768 .25 .15699768 .42399598 .19499207 .59799197 .31799317 .72299197 .33099366 .73498538 .33099366 .7369995 .33099366 .73999026 .33099366 .746994 .32699586 .75 .32099916 .75 .31098939 .75 .22099304 .6819916 .1619873 .5549927 .11099243 .44499208 .09899902 .33399964 .09899902 .25 .09899902 .17199707 .10998535 .050994874 .16499329-.06201172 .22499085-.18501282 .31098939-.25 .32099916-.25 .32699586-.25 .33099366-.24700928 .33099366-.2400055Z"/>
<path id="font_2_4" d="M.08799744 .059265138C.084991458 .044265748 .07899475 .021255494 .07899475 .01625061 .07899475-.0017547608 .09298706-.0107421879 .10798645-.0107421879 .11999512-.0107421879 .13798523-.002746582 .14498902 .01725769 .14698792 .021255494 .18099976 .15730286 .18499756 .17530823 .19299317 .20831299 .21099854 .27833558 .21699524 .30534364 .22099304 .31835938 .24899292 .36535646 .272995 .38734437 .2809906 .39434815 .30999757 .42037965 .35299684 .42037965 .3789978 .42037965 .3939972 .4083557 .394989 .4083557 .36499024 .40335084 .34298707 .37934876 .34298707 .35334779 .34298707 .33735658 .35398866 .31835938 .3809967 .31835938 .4079895 .31835938 .43598939 .34135438 .43598939 .37734986 .43598939 .41235353 .4039917 .4423828 .35299684 .4423828 .28799439 .4423828 .24398804 .39335633 .22499085 .36535646 .21699524 .4103546 .18099976 .4423828 .13398743 .4423828 .08799744 .4423828 .068984989 .40335084 .05999756 .38534547 .041992189 .35134889 .0289917 .29133607 .0289917 .28834535 .0289917 .27833558 .038986207 .27833558 .040985109 .27833558 .050994874 .27833558 .051986696 .27934266 .057998659 .30134584 .07499695 .37234498 .09498596 .42037965 .1309967 .42037965 .147995 .42037965 .1619873 .41235353 .1619873 .37435914 .1619873 .35334779 .15899658 .3423462 .1459961 .29034425L.08799744 .059265138Z"/>
<path id="font_2_3" d="M.20298767 .0009918213C.20298767 .066986087 .17799378 .10598755 .13899231 .10598755 .10598755 .10598755 .085998538 .08099365 .085998538 .052993776 .085998538 .025985718 .10598755 0 .13899231 0 .15098572 0 .1639862 .0039978029 .17399597 .0129852299 .1769867 .01499939 .17799378 .015991211 .1789856 .015991211 .17999268 .015991211 .18099976 .01499939 .18099976 .0009918213 .18099976-.07316589 .1459961-.13328552 .11299133-.16635132 .101989749-.17736817 .101989749-.17936707 .101989749-.18237305 .101989749-.18936157 .10699463-.19335938 .11199951-.19335938 .12298584-.19335938 .20298767-.116256717 .20298767 .0009918213Z"/>
<path id="font_2_1" d="M.35699464 .29231263C.397995 .18730164 .44599916 .034301759 .46199037 .011291504 .47799684-.010696411 .48799134-.010696411 .5149994-.010696411H.5369873C.5469971-.00970459 .5479889-.0037078858 .5479889-.0007019043 .5479889 .0023040772 .54599 .0043029787 .54299929 .008300781 .5329895 .019302369 .5269928 .034301759 .519989 .05430603L.31599427 .62332156C.29499818 .68133547 .24099732 .69433596 .19400025 .69433596 .18899536 .69433596 .17599488 .69433596 .17599488 .68333438 .17599488 .6753235 .18399048 .6733246 .18499756 .6733246 .21798706 .6673279 .22499085 .6613312 .25 .59332278L.34700013 .32130433 .070999149 .047302247C.05899048 .03529358 .052993776 .029296875 .052993776 .016296387 .052993776-.0007019043 .066986087-.0126953129 .08299255-.0126953129 .09899902-.0126953129 .10798645-.0017089844 .115997318 .008300781L.35699464 .29231263Z"/>
<path id="font_3_2" d="M.5049896 .18203736H.47099305C.46798707 .16001892 .45799256 .100997928 .44499208 .09098816 .43699647 .084991458 .3600006 .084991458 .34599305 .084991458H.1619873C.2669983 .17803955 .3019867 .20603943 .3619995 .25306703 .43598939 .312088 .5049896 .374115 .5049896 .46914674 .5049896 .5900879 .39898683 .6640625 .2709961 .6640625 .14698792 .6640625 .06298828 .57710269 .06298828 .4851532 .06298828 .43414308 .10598755 .42915345 .115997318 .42915345 .13999939 .42915345 .16899109 .44615174 .16899109 .48214723 .16899109 .5001526 .1619873 .53515627 .10998535 .53515627 .14099121 .6060791 .20899964 .62805178 .2559967 .62805178 .35598756 .62805178 .4079895 .5501404 .4079895 .46914674 .4079895 .38212586 .34599305 .3130951 .31399537 .27708436L.07299805 .038986207C.06298828 .02999878 .06298828 .027999878 .06298828 0H.47499085L.5049896 .18203736Z"/>
<path id="font_2_2" d="M.16999817-.16976929C.1659851-.18278504 .16499329-.18478394 .16499329-.18977356 .16499329-.21177674 .18399048-.21777344 .19400025-.21777344 .19898987-.21777344 .22099304-.21478272 .23098755-.19178772 .23399353-.18377686 .23899842-.1507721 .2659912-.008743286 .2749939-.009750366 .28199769-.0107421879 .29899598-.0107421879 .46499635-.0107421879 .61898806 .14628601 .61898806 .3043518 .61898806 .38237 .5799866 .4423828 .5049896 .4423828 .3600006 .4423828 .2999878 .24832154 .23999024 .053253175 .13198853 .07325745 .07598877 .12928772 .07598877 .2013092 .07598877 .22932434 .09899902 .33935548 .15899658 .40837098 .16699219 .41737367 .16699219 .41937257 .16699219 .42137147 .16699219 .42536927 .16499329 .43138124 .15499878 .43138124 .1269989 .43138124 .049987794 .28634645 .049987794 .19030762 .049987794 .0962677 .115997318 .023254395 .22299195-.0017547608L.16999817-.16976929M.30799867 .04725647C.2999878 .04725647 .2979889 .04725647 .2899933 .04824829 .27799989 .04824829 .2769928 .04925537 .2769928 .052246095 .2769928 .054260255 .2939911 .14529419 .29699708 .16029358 .32798768 .28834535 .4059906 .3843689 .49499513 .3843689 .56399539 .3843689 .59098818 .33035279 .59098818 .28233338 .59098818 .16929627 .46199037 .04725647 .30799867 .04725647Z"/>
<path id="font_1_2" d="M.2889862 .25C.2889862 .32798768 .27799989 .44898988 .22299195 .56199648 .16299439 .68499758 .07699585 .75 .066986087 .75 .06098938 .75 .056991579 .74598696 .056991579 .73999026 .056991579 .7369995 .056991579 .73498538 .07598877 .71699526 .17399597 .6179962 .23098755 .45899964 .23098755 .25 .23098755 .07899475 .19400025-.09700012 .069992069-.2230072 .056991579-.23500061 .056991579-.23701477 .056991579-.2400055 .056991579-.2460022 .06098938-.25 .066986087-.25 .07699585-.25 .16699219-.18200684 .22599793-.055007936 .2769928 .054992677 .2889862 .16600037 .2889862 .25Z"/>
<path id="font_3_1" d="M.33499146 .63612368C.33499146 .6630554 .33299256 .6640625 .30499269 .6640625 .24099732 .6014404 .1499939 .6004486 .10899353 .6004486V.5644531C.1329956 .5644531 .19898987 .5644531 .2539978 .592453V.08203125C.2539978 .04899597 .2539978 .035995485 .1539917 .035995485H.115997318V0C.13398743 .0009918213 .25698854 .0039978029 .2939911 .0039978029 .32499696 .0039978029 .45098878 .0009918213 .47299195 0V.035995485H.43499757C.33499146 .035995485 .33499146 .04899597 .33499146 .08203125V.63612368Z"/>
</defs>
<path transform="matrix(1.00008,0,0,-1.00005,84.47792,72.66883)" stroke-width=".3985" stroke-linecap="butt" stroke-miterlimit="10" stroke-linejoin="miter" fill="none" stroke="#000000" d="M70.867 0C70.867 39.13927 39.13927 70.867 0 70.867-39.13927 70.867-70.867 39.13927-70.867 0-70.867-39.13927-39.13927-70.867 0-70.867 39.13927-70.867 70.867-39.13927 70.867 0ZM0 0"/>
<path transform="matrix(1.00008,0,0,-1.00005,84.47792,72.66883)" stroke-width=".3985" stroke-linecap="butt" stroke-miterlimit="10" stroke-linejoin="miter" fill="none" stroke="#000000" d="M70.86723 .00047C70.86723 .00047 70.59276-2.29286 70.25777-3.16325 69.92274-4.03365 69.11673-5.42482 68.45245-6.27278 67.78815-7.12076 66.45218-8.46393 65.4699-9.27498 64.48763-10.08604 62.656-11.35841 61.37277-12.11859 60.08954-12.87875 57.78374-14.05745 56.22116-14.75392 54.65858-15.45041 51.92572-16.51778 50.11073-17.13855 48.29572-17.75932 45.17624-18.69366 43.13986-19.22809 41.10349-19.76251 37.6567-20.55157 35.43378-20.99054 33.21088-21.42949 29.49011-22.0559 27.11865-22.39185 24.74718-22.72781 20.82115-23.18483 18.34186-23.41203 15.86258-23.63922 11.79453-23.91498 9.24963-24.02956 6.70474-24.14415 2.56677-24.23805 0-24.23805-2.56677-24.23805-6.70523-24.14423-9.25009-24.02968-11.79494-23.91513-15.86235-23.63945-18.34166-23.4123-20.821-23.18513-24.74797-22.7282-27.11942-22.39227-29.49084-22.05635-33.21085-21.42992-35.43347-20.99104-37.65613-20.55215-41.1023-19.7635-43.13872-19.22913-45.17514-18.69473-48.29564-17.76001-50.11061-17.13927-51.92557-16.51854-54.65729-15.45158-56.21988-14.75511-57.78244-14.05862-60.08934-12.87975-61.37274-12.11949-62.65611-11.35924-64.48747-10.08665-65.46974-9.27559-66.45203-8.46452-67.78804-7.12173-68.45238-6.27377-69.1167-5.42581-69.92271-4.0344-70.25777-3.16402-70.5928-2.29362-70.86723-.00047-70.86723-.00047"/>
<path transform="matrix(1.00008,0,0,-1.00005,84.47792,72.66883)" stroke-width=".3985" stroke-linecap="butt" stroke-dasharray="2.98883,1.99255" stroke-miterlimit="10" stroke-linejoin="miter" fill="none" stroke="#000000" d="M70.86723 .00047C70.86723 .00047 70.5928 2.29362 70.25777 3.16402 69.92271 4.0344 69.1167 5.42581 68.45238 6.27377 67.78804 7.12173 66.45203 8.46452 65.46974 9.27559 64.48747 10.08665 62.65611 11.35924 61.37274 12.11949 60.08934 12.87975 57.78244 14.05862 56.21988 14.75511 54.65729 15.45158 51.92557 16.51854 50.11061 17.13927 48.29564 17.76001 45.17514 18.69473 43.13872 19.22913 41.1023 19.7635 37.65613 20.55215 35.43347 20.99104 33.21085 21.42992 29.49084 22.05635 27.11942 22.39227 24.74797 22.7282 20.821 23.18513 18.34166 23.4123 15.86235 23.63945 11.79494 23.91513 9.25009 24.02968 6.70523 24.14423 2.56677 24.23805 0 24.23805-2.56677 24.23805-6.70474 24.14415-9.24963 24.02956-11.79453 23.91498-15.86258 23.63922-18.34186 23.41203-20.82115 23.18483-24.74718 22.72781-27.11865 22.39185-29.49011 22.0559-33.21088 21.42949-35.43378 20.99054-37.6567 20.55157-41.10349 19.76251-43.13986 19.22809-45.17624 18.69366-48.29572 17.75932-50.11073 17.13855-51.92572 16.51778-54.65858 15.45041-56.22116 14.75392-57.78374 14.05745-60.08954 12.87875-61.37277 12.11859-62.656 11.35841-64.48763 10.08604-65.4699 9.27498-66.45218 8.46393-67.78815 7.12076-68.45245 6.27278-69.11673 5.42482-69.92274 4.03365-70.25777 3.16325-70.59276 2.29286-70.86723-.00047-70.86723-.00047"/>
<path transform="matrix(1.00008,0,0,-1.00005,84.47792,72.66883)" stroke-width=".3985" stroke-linecap="butt" stroke-miterlimit="10" stroke-linejoin="miter" fill="none" stroke="#0074c8" d="M31.84433 62.08867C31.84433 62.08867 29.24997 61.87288 28.1615 61.58856 27.07304 61.30424 25.21141 60.61234 23.99924 60.03944 22.78708 59.46655 20.74028 58.31123 19.425 57.45952 18.10973 56.60779 15.9154 55.01697 14.51949 53.9007 13.12355 52.78441 10.81683 50.7757 9.36414 49.4141 7.91144 48.05249 5.53384 45.67049 4.04942 44.08705 2.56497 42.50362 .15619 39.78-1.33473 38.00151-2.82565 36.22304-5.22469 33.21156-6.69641 31.26886-8.16817 29.32616-10.51466 26.07378-11.94225 23.99982-13.36983 21.92584-15.62656 18.49077-16.98547 16.32094-18.34438 14.15114-20.4693 10.5895-21.73631 8.36111-23.00333 6.13274-24.96388 2.50896-26.11725 .26028-27.27063-1.98837-29.02911-5.61517-30.04909-7.846-31.06906-10.07681-32.5996-13.64357-33.46878-15.81805-34.33795-17.99255-35.61005-21.43713-36.31372-23.51845-37.01738-25.59975-38.01462-28.86668-38.54045-30.8189-39.0663-32.77107-39.7646-35.79883-40.10376-37.58875-40.44292-39.37866-40.83836-42.12265-40.98502-43.71944-41.13168-45.31621-41.20932-47.72105-41.16095-49.09747-41.11256-50.4739-40.87868-52.50748-40.6362-53.64001-40.39374-54.77257-39.84575-56.39082-39.41321-57.2601-38.98068-58.1294-38.134-59.31442-37.5187-59.9054-36.9034-60.49637-35.76569-61.21672-34.97841-61.51962-34.19115-61.82251-31.84433-62.08867-31.84433-62.08867"/>
<path transform="matrix(1.00008,0,0,-1.00005,84.47792,72.66883)" stroke-width=".3985" stroke-linecap="butt" stroke-dasharray="2.98883,1.99255" stroke-miterlimit="10" stroke-linejoin="miter" fill="none" stroke="#0074c8" d="M31.84433 62.08867C31.84433 62.08867 34.19115 61.82251 34.97841 61.51962 35.76569 61.21672 36.9034 60.49637 37.5187 59.9054 38.134 59.31442 38.98068 58.1294 39.41321 57.2601 39.84575 56.39082 40.39374 54.77257 40.6362 53.64001 40.87868 52.50748 41.11256 50.4739 41.16095 49.09747 41.20932 47.72105 41.13168 45.31621 40.98502 43.71944 40.83836 42.12265 40.44292 39.37866 40.10376 37.58875 39.7646 35.79883 39.0663 32.77107 38.54045 30.8189 38.01462 28.86668 37.01738 25.59975 36.31372 23.51845 35.61005 21.43713 34.33795 17.99255 33.46878 15.81805 32.5996 13.64357 31.06906 10.07681 30.04909 7.846 29.02911 5.61517 27.27063 1.98837 26.11725-.26028 24.96388-2.50896 23.00333-6.13274 21.73631-8.36111 20.4693-10.5895 18.34438-14.15114 16.98547-16.32094 15.62656-18.49077 13.36983-21.92584 11.94225-23.99982 10.51466-26.07378 8.16817-29.32616 6.69641-31.26886 5.22469-33.21156 2.82565-36.22304 1.33473-38.00151-.15619-39.78-2.56497-42.50362-4.04942-44.08705-5.53384-45.67049-7.91144-48.05249-9.36414-49.4141-10.81683-50.7757-13.12355-52.78441-14.51949-53.9007-15.9154-55.01697-18.10973-56.60779-19.425-57.45952-20.74028-58.31123-22.78708-59.46655-23.99924-60.03944-25.21141-60.61234-27.07304-61.30424-28.1615-61.58856-29.24997-61.87288-31.84433-62.08867-31.84433-62.08867"/>
<path transform="matrix(1.00008,0,0,-1.00005,84.47792,72.66883)" stroke-width="1.19553" stroke-linecap="butt" stroke-miterlimit="10" stroke-linejoin="miter" fill="none" stroke="#0074c8" d="M7.60608 47.72972C7.60608 47.72972 6.11311 46.24084 5.53693 45.64629 4.96074 45.05174 4.03242 44.0709 3.453 43.44453 2.87358 42.81819 1.9419 41.78859 1.36072 41.13191 .77956 40.47522-.1544 39.39694-.7358 38.71149-1.3172 38.02602-2.24977 36.9037-2.82979 36.1915-3.40982 35.47928-4.3391 34.31564-4.91641 33.57828-5.49376 32.8409-6.41785 31.63739-6.99092 30.87683-7.564 30.11629-8.47954 28.87831-9.04692 28.09647-9.61429 27.31464-10.52014 26.04268-11.08026 25.2418-11.64038 24.44093-12.53261 23.14185-13.08391 22.32405-13.63521 21.50626-14.51244 20.1807-15.05371 19.3477-15.59497 18.51471-16.4554 17.16617-16.9852 16.32033-17.51498 15.4745-18.35535 14.1078-18.8721 13.25136-19.38885 12.39493-20.20718 11.01263-20.70975 10.14764-21.21233 9.28265-22.0074 7.8881-22.49446 7.01703-22.98154 6.14595-23.74997 4.74442-24.22025 3.86946-24.6905 2.9945-25.43164 1.58754-25.8839 .71086-26.33615-.16577-27.04692-1.57297-27.48-2.44899-27.91306-3.325-28.59251-4.72981-29.00537-5.60286-29.41821-6.4759-30.06413-7.87381-30.45552-8.7416-30.8469-9.60934-31.45721-10.9966-31.82628-11.8572-32.19534-12.71777-32.76994-14.09325-33.1157-14.94421-33.46147-15.79518-33.99709-17.15158-34.31856-17.9905-34.64006-18.82942-35.43292-20.99069-35.43292-20.99069"/>
<path transform="matrix(1.00008,0,0,-1.00005,84.47792,72.66883)" d="M-32.6154-20.99104C-32.6154-19.43465-33.87709-18.17296-35.43347-18.17296-36.98987-18.17296-38.25156-19.43465-38.25156-20.99104-38.25156-22.54742-36.98987-23.80911-35.43347-23.80911-33.87709-23.80911-32.6154-22.54742-32.6154-20.99104ZM-35.43347-20.99104" fill="#ff0000"/>
<use data-text="(" xlink:href="#font_1_1" transform="matrix(9.963397,0,0,-9.963098,.80622866,106.166507)"/>
<use data-text="r" xlink:href="#font_2_4" transform="matrix(9.963397,0,0,-9.963098,4.6805269,106.166507)"/>
<use data-text="," xlink:href="#font_2_3" transform="matrix(9.963397,0,0,-9.963098,8.904999,106.166507)"/>
<use data-text="&#x03bb;" xlink:href="#font_2_1" transform="matrix(9.963397,0,0,-9.963098,13.308823,106.166507)"/>
<use data-text="2" xlink:href="#font_3_2" transform="matrix(6.974358,0,0,-6.9741489,19.139695,107.66058)"/>
<use data-text="," xlink:href="#font_2_3" transform="matrix(9.963397,0,0,-9.963098,23.60904,106.166507)"/>
<use data-text="&#x03c6;" xlink:href="#font_2_2" transform="matrix(9.963397,0,0,-9.963098,28.022828,106.166507)"/>
<use data-text="2" xlink:href="#font_3_2" transform="matrix(6.974358,0,0,-6.9741489,34.554918,107.66058)"/>
<use data-text=")" xlink:href="#font_1_2" transform="matrix(9.963397,0,0,-9.963098,39.024278,106.166507)"/>
<path transform="matrix(1.00008,0,0,-1.00005,84.47792,72.66883)" d="M10.42415 47.72972C10.42415 49.28612 9.16248 50.5478 7.60608 50.5478 6.04968 50.5478 4.788 49.28612 4.788 47.72972 4.788 46.17332 6.04968 44.91164 7.60608 44.91164 9.16248 44.91164 10.42415 46.17332 10.42415 47.72972ZM7.60608 47.72972" fill="#ff0000"/>
<use data-text="(" xlink:href="#font_1_1" transform="matrix(9.963397,0,0,-9.963098,44.96376,16.302018)"/>
<use data-text="r" xlink:href="#font_2_4" transform="matrix(9.963397,0,0,-9.963098,48.83806,16.302018)"/>
<use data-text="," xlink:href="#font_2_3" transform="matrix(9.963397,0,0,-9.963098,53.06253,16.302018)"/>
<use data-text="&#x03bb;" xlink:href="#font_2_1" transform="matrix(9.963397,0,0,-9.963098,57.466356,16.302018)"/>
<use data-text="1" xlink:href="#font_3_1" transform="matrix(6.974358,0,0,-6.9741489,63.297227,17.796093)"/>
<use data-text="," xlink:href="#font_2_3" transform="matrix(9.963397,0,0,-9.963098,67.76657,16.302018)"/>
<use data-text="&#x03c6;" xlink:href="#font_2_2" transform="matrix(9.963397,0,0,-9.963098,72.18036,16.302018)"/>
<use data-text="1" xlink:href="#font_3_1" transform="matrix(6.974358,0,0,-6.9741489,78.71245,17.796093)"/>
<use data-text=")" xlink:href="#font_1_2" transform="matrix(9.963397,0,0,-9.963098,83.18181,16.302018)"/>
</svg>
