<svg xmlns="http://www.w3.org/2000/svg" xmlns:xlink="http://www.w3.org/1999/xlink" version="1.1" width="141pt" height="119pt" viewBox="0 0 141 119">
<defs>
<path id="font_1_1" d="M.7599945 .69506838C.7599945 .69807437 .7579956 .7050781 .7489929 .7050781 .74598696 .7050781 .7449951 .70407107 .73399356 .69306948L.6639862 .61602786C.6549988 .6300354 .60899356 .7050781 .49798585 .7050781 .2749939 .7050781 .049987794 .48391725 .049987794 .25172425 .049987794 .08659363 .16799927-.022460938 .32099916-.022460938 .4079895-.022460938 .48399354 .017532349 .5369873 .063583377 .6299896 .14564514 .6469879 .2367096 .6469879 .23971558 .6469879 .24972534 .6369934 .24972534 .6349945 .24972534 .6289978 .24972534 .6239929 .24772644 .621994 .23971558 .61299136 .21069336 .58999636 .13963318 .5209961 .081588748 .45199586 .025543213 .3889923 .008529663 .33699037 .008529663 .24699402 .008529663 .14099121 .060577394 .14099121 .21670532 .14099121 .27374269 .1619873 .43588258 .2619934 .55296328 .32299806 .62402346 .4169922 .67407229 .5059967 .67407229 .60798647 .67407229 .6669922 .5970001 .6669922 .48091126 .6669922 .44088746 .6639862 .43988038 .6639862 .4298706 .6639862 .41986085 .6749878 .41986085 .67900088 .41986085 .69200137 .41986085 .69200137 .42185975 .69699099 .43988038L.7599945 .69506838Z"/>
<path id="font_2_1" d="M.44198609 .69781497C.43499757 .7108154 .43299867 .7158203 .41600038 .7158203 .39898683 .7158203 .39698792 .7108154 .3899994 .69781497L.051986696 .019989014C.04699707 .010986328 .04699707 .008987427 .04699707 .0079956059 .04699707 0 .052993776 0 .068984989 0H.7630005C.7789917 0 .7849884 0 .7849884 .0079956059 .7849884 .008987427 .7849884 .010986328 .7799988 .019989014L.44198609 .69781497M.38398744 .61582949 .6529999 .07598877H.11399841L.38398744 .61582949Z"/>
<path id="font_1_5" d="M.5369873 .5947571C.522995 .5818329 .48999024 .55400088 .48999024 .5361023 .48999024 .5261078 .5 .516098 .5099945 .516098 .5189972 .516098 .5239868 .5231018 .5289917 .5290985 .54100039 .5440674 .56399539 .5718994 .60798647 .59376528 .61499026 .59776309 .625 .6027527 .625 .61476138 .625 .62475588 .6179962 .62976077 .61099246 .6347656 .58898928 .6497803 .5779877 .66781619 .56999209 .69184878 .56799319 .7008667 .56399539 .7138672 .5499878 .7138672 .5359955 .7138672 .5299988 .7008667 .5299988 .69285586 .5299988 .68785098 .5379944 .65579226 .55400088 .6347656H.21699524C.19999695 .6347656 .18199158 .6347656 .18199158 .61476138 .18199158 .5947571 .19999695 .5947571 .21699524 .5947571H.5369873Z"/>
<path id="font_1_3" d="M.08799744 .059265138C.084991458 .044265748 .07899475 .021255494 .07899475 .01625061 .07899475-.0017547608 .09298706-.0107421879 .10798645-.0107421879 .11999512-.0107421879 .13798523-.002746582 .14498902 .01725769 .14698792 .021255494 .18099976 .15730286 .18499756 .17530823 .19299317 .20831299 .21099854 .27833558 .21699524 .30534364 .22099304 .31835938 .24899292 .36535646 .272995 .38734437 .2809906 .39434815 .30999757 .42037965 .35299684 .42037965 .3789978 .42037965 .3939972 .4083557 .394989 .4083557 .36499024 .40335084 .34298707 .37934876 .34298707 .35334779 .34298707 .33735658 .35398866 .31835938 .3809967 .31835938 .4079895 .31835938 .43598939 .34135438 .43598939 .37734986 .43598939 .41235353 .4039917 .4423828 .35299684 .4423828 .28799439 .4423828 .24398804 .39335633 .22499085 .36535646 .21699524 .4103546 .18099976 .4423828 .13398743 .4423828 .08799744 .4423828 .068984989 .40335084 .05999756 .38534547 .041992189 .35134889 .0289917 .29133607 .0289917 .28834535 .0289917 .27833558 .038986207 .27833558 .040985109 .27833558 .050994874 .27833558 .051986696 .27934266 .057998659 .30134584 .07499695 .37234498 .09498596 .42037965 .1309967 .42037965 .147995 .42037965 .1619873 .41235353 .1619873 .37435914 .1619873 .35334779 .15899658 .3423462 .1459961 .29034425L.08799744 .059265138Z"/>
<path id="font_3_2" d="M.33499146 .63612368C.33499146 .6630554 .33299256 .6640625 .30499269 .6640625 .24099732 .6014404 .1499939 .6004486 .10899353 .6004486V.5644531C.1329956 .5644531 .19898987 .5644531 .2539978 .592453V.08203125C.2539978 .04899597 .2539978 .035995485 .1539917 .035995485H.115997318V0C.13398743 .0009918213 .25698854 .0039978029 .2939911 .0039978029 .32499696 .0039978029 .45098878 .0009918213 .47299195 0V.035995485H.43499757C.33499146 .035995485 .33499146 .04899597 .33499146 .08203125V.63612368Z"/>
<path id="font_3_3" d="M.5049896 .18203736H.47099305C.46798707 .16001892 .45799256 .100997928 .44499208 .09098816 .43699647 .084991458 .3600006 .084991458 .34599305 .084991458H.1619873C.2669983 .17803955 .3019867 .20603943 .3619995 .25306703 .43598939 .312088 .5049896 .374115 .5049896 .46914674 .5049896 .5900879 .39898683 .6640625 .2709961 .6640625 .14698792 .6640625 .06298828 .57710269 .06298828 .4851532 .06298828 .43414308 .10598755 .42915345 .115997318 .42915345 .13999939 .42915345 .16899109 .44615174 .16899109 .48214723 .16899109 .5001526 .1619873 .53515627 .10998535 .53515627 .14099121 .6060791 .20899964 .62805178 .2559967 .62805178 .35598756 .62805178 .4079895 .5501404 .4079895 .46914674 .4079895 .38212586 .34599305 .3130951 .31399537 .27708436L.07299805 .038986207C.06298828 .02999878 .06298828 .027999878 .06298828 0H.47499085L.5049896 .18203736Z"/>
<path id="font_3_4" d="M.272995 .33428956C.35099793 .33428956 .40699769 .2803192 .40699769 .1733551 .40699769 .04940796 .33499146 .012466431 .2769928 .012466431 .23699951 .012466431 .14898682 .0234375 .10699463 .082351688 .1539917 .084350589 .16499329 .11735535 .16499329 .13835144 .16499329 .17034912 .14099121 .19335938 .10998535 .19335938 .08198547 .19335938 .053985597 .17634583 .053985597 .13534546 .053985597 .041412355 .1579895-.01953125 .2789917-.01953125 .41799928-.01953125 .5139923 .07336426 .5139923 .1733551 .5139923 .2513275 .44999696 .32929994 .33999635 .35229493 .44499208 .39024354 .48298646 .4650879 .48298646 .5260773 .48298646 .60505679 .3919983 .6640625 .2809906 .6640625 .16999817 .6640625 .084991458 .61006167 .084991458 .5300751 .084991458 .49606324 .10699463 .47706605 .13699341 .47706605 .16799927 .47706605 .18798828 .5000763 .18798828 .5280762 .18798828 .5570679 .16799927 .57806399 .13699341 .5800781 .17199707 .62405398 .24099732 .63505557 .27799989 .63505557 .32299806 .63505557 .38598634 .6130676 .38598634 .5260773 .38598634 .48406983 .37199403 .43814088 .34599305 .4072113 .31298829 .36927796 .2849884 .3672943 .23498535 .36428834 .20999146 .3623047 .20799256 .3623047 .20298767 .3612976 .20098877 .3612976 .19299317 .3592987 .19299317 .34829713 .19299317 .33428956 .20199585 .33428956 .21899414 .33428956H.272995Z"/>
<path id="font_1_4" d="M.46798707 .37236024C.46798707 .42637635 .44198609 .4423828 .42399598 .4423828 .39898683 .4423828 .375 .41636659 .375 .3943634 .375 .38136292 .37998963 .3753662 .3909912 .36434938 .4119873 .3443451 .4249878 .31834413 .4249878 .28233338 .4249878 .24032593 .3639984 .011245728 .24699402 .011245728 .19599915 .011245728 .17298889 .04626465 .17298889 .09828186 .17298889 .15429688 .19999695 .22731018 .23098755 .31033326 .23799134 .3273468 .24299622 .34135438 .24299622 .36035157 .24299622 .405365 .21099854 .4423828 .16099549 .4423828 .066986087 .4423828 .0289917 .29733277 .0289917 .28833009 .0289917 .27833558 .038986207 .27833558 .040985109 .27833558 .050994874 .27833558 .051986696 .28033448 .056991579 .29634095 .085998538 .39736939 .1289978 .42037965 .1579895 .42037965 .1659851 .42037965 .18299866 .42037965 .18299866 .3883667 .18299866 .36335755 .17298889 .3363495 .1659851 .31834413 .12199402 .20230103 .10899353 .15629578 .10899353 .11328125 .10899353 .0052490236 .19699097-.0107421879 .24299622-.0107421879 .41099549-.0107421879 .46798707 .32034303 .46798707 .37236024Z"/>
<path id="font_2_2" d="M.33099366-.2400055C.33099366-.23701477 .33099366-.23500061 .31399537-.21800232 .18899536-.0920105 .15699768 .09700012 .15699768 .25 .15699768 .42399598 .19499207 .59799197 .31799317 .72299197 .33099366 .73498538 .33099366 .7369995 .33099366 .73999026 .33099366 .746994 .32699586 .75 .32099916 .75 .31098939 .75 .22099304 .6819916 .1619873 .5549927 .11099243 .44499208 .09899902 .33399964 .09899902 .25 .09899902 .17199707 .10998535 .050994874 .16499329-.06201172 .22499085-.18501282 .31098939-.25 .32099916-.25 .32699586-.25 .33099366-.24700928 .33099366-.2400055Z"/>
<path id="font_1_2" d="M.30299378 .3157959H.47299195C.61499026 .3157959 .7539978 .41973878 .7539978 .53167727 .7539978 .6086273 .6879883 .6826172 .5569916 .6826172H.23298645C.21398926 .6826172 .20298767 .6826172 .20298767 .66360476 .20298767 .6516113 .21199036 .6516113 .23199463 .6516113 .24499512 .6516113 .2630005 .65060427 .2749939 .6496124 .29100038 .6476135 .29699708 .64460757 .29699708 .6336212 .29699708 .6296234 .29599 .62661746 .29299928 .614624L.15899658 .07795715C.14898682 .038986207 .14698792 .0309906 .067993167 .0309906 .050994874 .0309906 .039993287 .0309906 .039993287 .011993408 .039993287 0 .051986696 0 .054992677 0 .08299255 0 .1539917 .0029907227 .18199158 .0029907227 .20298767 .0029907227 .22499085 .0019989014 .24598694 .0019989014 .2679901 .0019989014 .2899933 0 .31098939 0 .31799317 0 .33099366 0 .33099366 .019989014 .33099366 .0309906 .32199098 .0309906 .30299378 .0309906 .2659912 .0309906 .23799134 .0309906 .23799134 .048980714 .23799134 .054977418 .23999024 .05996704 .24099732 .065963748L.30299378 .3157959M.375 .6136322C.38398744 .64860537 .38598634 .6516113 .42900086 .6516113H.5249939C.60798647 .6516113 .6609955 .62461856 .6609955 .55566409 .6609955 .5166931 .6409912 .43074037 .60198977 .39476014 .5519867 .34977723 .49198915 .34179688 .44799806 .34179688H.30699159L.375 .6136322Z"/>
<path id="font_3_1" d="M.5159912 .31925965C.5159912 .42918397 .5029907 .50813296 .45700074 .5780945 .42599488 .62405398 .3639984 .6640625 .28399659 .6640625 .051986696 .6640625 .051986696 .39120484 .051986696 .31925965 .051986696 .2472992 .051986696-.01953125 .28399659-.01953125 .5159912-.01953125 .5159912 .2472992 .5159912 .31925965M.28399659 .008468628C.23799134 .008468628 .1769867 .035446168 .15699768 .117385867 .14299011 .17634583 .14299011 .25830079 .14299011 .33224488 .14299011 .40519715 .14299011 .4811554 .1579895 .53611758 .1789856 .6150665 .24299622 .63604739 .28399659 .63604739 .33799745 .63604739 .3899994 .6030731 .4079895 .545105 .42399598 .4911499 .4249878 .41918946 .4249878 .33224488 .4249878 .25830079 .4249878 .18434143 .4119873 .12138367 .3919983 .030441285 .32398988 .008468628 .28399659 .008468628Z"/>
<path id="font_2_3" d="M.2889862 .25C.2889862 .32798768 .27799989 .44898988 .22299195 .56199648 .16299439 .68499758 .07699585 .75 .066986087 .75 .06098938 .75 .056991579 .74598696 .056991579 .73999026 .056991579 .7369995 .056991579 .73498538 .07598877 .71699526 .17399597 .6179962 .23098755 .45899964 .23098755 .25 .23098755 .07899475 .19400025-.09700012 .069992069-.2230072 .056991579-.23500061 .056991579-.23701477 .056991579-.2400055 .056991579-.2460022 .06098938-.25 .066986087-.25 .07699585-.25 .16699219-.18200684 .22599793-.055007936 .2769928 .054992677 .2889862 .16600037 .2889862 .25Z"/>
</defs>
<path transform="matrix(1.00006,0,0,-1.00005,90.60053,77.77224)" stroke-width=".99628" stroke-linecap="butt" stroke-miterlimit="10" stroke-linejoin="miter" fill="none" stroke="#0074c8" d="M-70.867-35.43349C-70.867-35.43349-67.6669-29.15648-66.43782-26.85194-65.20874-24.54742-63.23772-20.97491-62.00864-18.82402-60.77956-16.67314-58.80852-13.34703-57.57944-11.34976-56.35036-9.35251-54.37932-6.27278-53.15024-4.42917-51.92116-2.58554-49.95013 .24776-48.72105 1.93774-47.49197 3.62773-45.52095 6.2147-44.29187 7.75105-43.06279 9.28741-41.09175 11.628-39.86267 13.01071-38.63359 14.39342-36.66257 16.48764-35.43349 17.71672-34.2044 18.9458-32.23338 20.79366-31.0043 21.8691-29.77522 22.94453-27.8042 24.54602-26.57512 25.46782-25.34604 26.38963-23.37502 27.74469-22.14594 28.51286-20.91685 29.28105-18.9458 30.38977-17.71672 31.0043-16.48764 31.61885-14.51662 32.48117-13.28754 32.94208-12.05846 33.40295-10.08743 34.01892-8.85835 34.32619-7.62927 34.63345-5.65825 35.00304-4.42917 35.15666-3.20009 35.31032-1.22903 35.43349 0 35.43349 1.22903 35.43349 3.20009 35.31032 4.42917 35.15666 5.65825 35.00304 7.62927 34.63345 8.85835 34.32619 10.08743 34.01892 12.05846 33.40295 13.28754 32.94208 14.51662 32.48117 16.48764 31.61885 17.71672 31.0043 18.9458 30.38977 20.91685 29.28105 22.14594 28.51286 23.37502 27.74469 25.34604 26.38963 26.57512 25.46782 27.8042 24.54602 29.77522 22.94453 31.0043 21.8691 32.23338 20.79366 35.43349 17.71672 35.43349 17.71672"/>
<use data-text="C" xlink:href="#font_1_1" transform="matrix(9.963197,0,0,-9.963098,104.40136,38.51828)" fill="#0074c8"/>
<path transform="matrix(1.00006,0,0,-1.00005,90.60053,77.77224)" stroke-width="1.49442" stroke-linecap="butt" stroke-miterlimit="10" stroke-linejoin="miter" fill="none" stroke="#ff0000" d="M-70.867-35.43349-39.06409 12.27077"/>
<path transform="matrix(.55470326,-.8320615,-.8320699,-.5546977,51.5341,65.500858)" d="M6.54549 0C4.60605 .36362 1.45454 1.45454-.72726 2.72728V-2.72728C1.45454-1.45454 4.60605-.36362 6.54549 0" fill="#ff0000"/>
<path transform="matrix(1.00006,0,0,-1.00005,90.60053,77.77224)" stroke-width="1.49442" stroke-linecap="butt" stroke-miterlimit="10" stroke-linejoin="miter" fill="none" stroke="#ff0000" d="M-35.43349 17.71672-5.85405 32.50652"/>
<path transform="matrix(.89441367,-.4471923,-.4471968,-.89440467,84.74613,45.264097)" d="M6.54549 0C4.60605 .36362 1.45454 1.45454-.72726 2.72728V-2.72728C1.45454-1.45454 4.60605-.36362 6.54549 0" fill="#ff0000"/>
<path transform="matrix(1.00006,0,0,-1.00005,90.60053,77.77224)" stroke-width="1.49442" stroke-linecap="butt" stroke-miterlimit="10" stroke-linejoin="miter" fill="none" stroke="#ff0000" d="M0 35.43349 29.57944 20.6437"/>
<path transform="matrix(.89441367,.4471923,.4471968,-.89440467,120.18175,57.12751)" d="M6.54549 0C4.60605 .36362 1.45454 1.45454-.72726 2.72728V-2.72728C1.45454-1.45454 4.60605-.36362 6.54549 0" fill="#ff0000"/>
<path transform="matrix(1.00006,0,0,-1.00005,90.60053,77.77224)" d="M-67.13097-35.43349C-67.13097-33.37012-68.80363-31.69745-70.867-31.69745-72.93039-31.69745-74.60304-33.37012-74.60304-35.43349-74.60304-37.49687-72.93039-39.16953-70.867-39.16953-68.80363-39.16953-67.13097-37.49687-67.13097-35.43349ZM-70.867-35.43349"/>
<path transform="matrix(1.00006,0,0,-1.00005,90.60053,77.77224)" d="M-31.69745 17.71672C-31.69745 19.7801-33.37012 21.45276-35.43349 21.45276-37.49687 21.45276-39.16953 19.7801-39.16953 17.71672-39.16953 15.65335-37.49687 13.98068-35.43349 13.98068-33.37012 13.98068-31.69745 15.65335-31.69745 17.71672ZM-35.43349 17.71672"/>
<path transform="matrix(1.00006,0,0,-1.00005,90.60053,77.77224)" d="M3.73604 35.43349C3.73604 37.49687 2.06337 39.16953 0 39.16953-2.06337 39.16953-3.73604 37.49687-3.73604 35.43349-3.73604 33.37012-2.06337 31.69745 0 31.69745 2.06337 31.69745 3.73604 33.37012 3.73604 35.43349ZM0 35.43349"/>
<path transform="matrix(1.00006,0,0,-1.00005,90.60053,77.77224)" d="M39.16953 17.71672C39.16953 19.7801 37.49687 21.45276 35.43349 21.45276 33.37012 21.45276 31.69745 19.7801 31.69745 17.71672 31.69745 15.65335 33.37012 13.98068 35.43349 13.98068 37.49687 13.98068 39.16953 15.65335 39.16953 17.71672ZM35.43349 17.71672"/>
<path transform="matrix(1.00006,0,0,-1.00005,90.60053,77.77224)" stroke-width=".79701" stroke-linecap="butt" stroke-miterlimit="10" stroke-linejoin="miter" fill="none" stroke="#ff0000" d=""/>
<use data-text="&#x2206;" xlink:href="#font_2_1" transform="matrix(9.963197,0,0,-9.963098,37.672365,102.78349)" fill="#ff0000"/>
<use data-text="&#x20d7;" xlink:href="#font_1_5" transform="matrix(9.963197,0,0,-9.963098,45.657838,102.78349)" fill="#ff0000"/>
<use data-text="r" xlink:href="#font_1_3" transform="matrix(9.963197,0,0,-9.963098,45.97667,102.78349)" fill="#ff0000"/>
<use data-text="1" xlink:href="#font_3_2" transform="matrix(6.9742186,0,0,-6.9741489,50.470125,104.27757)" fill="#ff0000"/>
<path transform="matrix(1.00006,0,0,-1.00005,90.60053,77.77224)" stroke-width=".79701" stroke-linecap="butt" stroke-miterlimit="10" stroke-linejoin="miter" fill="none" stroke="#ff0000" d=""/>
<use data-text="&#x2206;" xlink:href="#font_2_1" transform="matrix(9.963197,0,0,-9.963098,73.10748,63.805543)" fill="#ff0000"/>
<use data-text="&#x20d7;" xlink:href="#font_1_5" transform="matrix(9.963197,0,0,-9.963098,81.09296,63.805543)" fill="#ff0000"/>
<use data-text="r" xlink:href="#font_1_3" transform="matrix(9.963197,0,0,-9.963098,81.41179,63.805543)" fill="#ff0000"/>
<use data-text="2" xlink:href="#font_3_3" transform="matrix(6.9742186,0,0,-6.9741489,85.90524,65.29962)" fill="#ff0000"/>
<path transform="matrix(1.00006,0,0,-1.00005,90.60053,77.77224)" stroke-width=".79701" stroke-linecap="butt" stroke-miterlimit="10" stroke-linejoin="miter" fill="none" stroke="#ff0000" d=""/>
<use data-text="&#x2206;" xlink:href="#font_2_1" transform="matrix(9.963197,0,0,-9.963098,99.684078,70.8919)" fill="#ff0000"/>
<use data-text="&#x20d7;" xlink:href="#font_1_5" transform="matrix(9.963197,0,0,-9.963098,107.66955,70.8919)" fill="#ff0000"/>
<use data-text="r" xlink:href="#font_1_3" transform="matrix(9.963197,0,0,-9.963098,107.98838,70.8919)" fill="#ff0000"/>
<use data-text="3" xlink:href="#font_3_4" transform="matrix(6.9742186,0,0,-6.9741489,112.481838,72.38598)" fill="#ff0000"/>
<path transform="matrix(1.00006,0,0,-1.00005,90.60053,77.77224)" stroke-width=".49814" stroke-linecap="butt" stroke-miterlimit="10" stroke-linejoin="miter" fill="none" stroke="#000000" d="M-70.867-35.43349-62.94362-3.74037"/>
<path transform="matrix(.24252455,-.97018846,-.97019818,-.24252212,27.65313,81.51282)" d="M3.85551 0C2.71312 .21419 .85678 .85678-.42839 1.60646V-1.60646C.85678-.85678 2.71312-.21419 3.85551 0"/>
<use data-text="&#x20d7;" xlink:href="#font_1_5" transform="matrix(9.963197,0,0,-9.963098,.8301697,80.26337)"/>
<use data-text="v" xlink:href="#font_1_4" transform="matrix(9.963197,0,0,-9.963098,1.2187195,80.26337)"/>
<use data-text="(" xlink:href="#font_2_2" transform="matrix(9.963197,0,0,-9.963098,6.403488,80.26337)"/>
<use data-text="P" xlink:href="#font_1_2" transform="matrix(9.963197,0,0,-9.963098,10.277725,80.26337)"/>
<use data-text="0" xlink:href="#font_3_1" transform="matrix(6.9742186,0,0,-6.9741489,16.674103,81.75745)"/>
<use data-text=")" xlink:href="#font_2_3" transform="matrix(9.963197,0,0,-9.963098,21.144364,80.26337)"/>
<path transform="matrix(1.00006,0,0,-1.00005,90.60053,77.77224)" stroke-width=".49814" stroke-linecap="butt" stroke-miterlimit="10" stroke-linejoin="miter" fill="none" stroke="#000000" d="M-35.43349 17.71672-21.07059 49.63446"/>
<path transform="matrix(.41036464,-.91192558,-.9119347,-.41036053,69.52868,28.1353)" d="M3.85551 0C2.71312 .21419 .85678 .85678-.42839 1.60646V-1.60646C.85678-.85678 2.71312-.21419 3.85551 0"/>
<use data-text="&#x20d7;" xlink:href="#font_1_5" transform="matrix(9.963197,0,0,-9.963098,43.352708,27.10971)"/>
<use data-text="v" xlink:href="#font_1_4" transform="matrix(9.963197,0,0,-9.963098,43.741258,27.10971)"/>
<use data-text="(" xlink:href="#font_2_2" transform="matrix(9.963197,0,0,-9.963098,48.926027,27.10971)"/>
<use data-text="P" xlink:href="#font_1_2" transform="matrix(9.963197,0,0,-9.963098,52.800264,27.10971)"/>
<use data-text="1" xlink:href="#font_3_2" transform="matrix(6.9742186,0,0,-6.9741489,59.19664,28.60379)"/>
<use data-text=")" xlink:href="#font_2_3" transform="matrix(9.963197,0,0,-9.963098,63.6669,27.10971)"/>
<path transform="matrix(1.00006,0,0,-1.00005,90.60053,77.77224)" stroke-width=".49814" stroke-linecap="butt" stroke-miterlimit="10" stroke-linejoin="miter" fill="none" stroke="#000000" d="M0 35.43349 20.93034 67.63445"/>
<path transform="matrix(.54501268,-.8384619,-.8384702,-.5450072,111.53212,10.13443)" d="M3.85551 0C2.71312 .21419 .85678 .85678-.42839 1.60646V-1.60646C.85678-.85678 2.71312-.21419 3.85551 0"/>
<use data-text="&#x20d7;" xlink:href="#font_1_5" transform="matrix(9.963197,0,0,-9.963098,82.33205,9.392822)"/>
<use data-text="v" xlink:href="#font_1_4" transform="matrix(9.963197,0,0,-9.963098,82.7206,9.392822)"/>
<use data-text="(" xlink:href="#font_2_2" transform="matrix(9.963197,0,0,-9.963098,87.905368,9.392822)"/>
<use data-text="P" xlink:href="#font_1_2" transform="matrix(9.963197,0,0,-9.963098,91.7796,9.392822)"/>
<use data-text="2" xlink:href="#font_3_3" transform="matrix(6.9742186,0,0,-6.9741489,98.17598,10.886902)"/>
<use data-text=")" xlink:href="#font_2_3" transform="matrix(9.963197,0,0,-9.963098,102.64624,9.392822)"/>
<path transform="matrix(1.00006,0,0,-1.00005,90.60053,77.77224)" stroke-width=".79701" stroke-linecap="butt" stroke-miterlimit="10" stroke-linejoin="miter" fill="none" stroke="#929292" d=""/>
<use data-text="P" xlink:href="#font_1_2" transform="matrix(9.963197,0,0,-9.963098,23.448502,115.86414)" fill="#929292"/>
<use data-text="0" xlink:href="#font_3_1" transform="matrix(6.9742186,0,0,-6.9741489,29.845887,117.35822)" fill="#929292"/>
<path transform="matrix(1.00006,0,0,-1.00005,90.60053,77.77224)" stroke-width=".79701" stroke-linecap="butt" stroke-miterlimit="10" stroke-linejoin="miter" fill="none" stroke="#929292" d=""/>
<use data-text="P" xlink:href="#font_1_2" transform="matrix(9.963197,0,0,-9.963098,58.88463,66.25566)" fill="#929292"/>
<use data-text="1" xlink:href="#font_3_2" transform="matrix(6.9742186,0,0,-6.9741489,65.28201,67.74974)" fill="#929292"/>
<path transform="matrix(1.00006,0,0,-1.00005,90.60053,77.77224)" stroke-width=".79701" stroke-linecap="butt" stroke-miterlimit="10" stroke-linejoin="miter" fill="none" stroke="#929292" d=""/>
<use data-text="P" xlink:href="#font_1_2" transform="matrix(9.963197,0,0,-9.963098,94.319759,59.167314)" fill="#929292"/>
<use data-text="2" xlink:href="#font_3_3" transform="matrix(6.9742186,0,0,-6.9741489,100.71714,60.661394)" fill="#929292"/>
<path transform="matrix(1.00006,0,0,-1.00005,90.60053,77.77224)" stroke-width=".79701" stroke-linecap="butt" stroke-miterlimit="10" stroke-linejoin="miter" fill="none" stroke="#929292" d=""/>
<use data-text="P" xlink:href="#font_1_2" transform="matrix(9.963197,0,0,-9.963098,129.75588,71.56993)" fill="#929292"/>
<use data-text="3" xlink:href="#font_3_4" transform="matrix(6.9742186,0,0,-6.9741489,136.15326,73.06401)" fill="#929292"/>
</svg>
