<svg xmlns="http://www.w3.org/2000/svg" xmlns:xlink="http://www.w3.org/1999/xlink" version="1.1" width="107pt" height="97pt" viewBox="0 0 107 97">
<defs>
<path id="font_1_1" d="M.7599945 .69506838C.7599945 .69807437 .7579956 .7050781 .7489929 .7050781 .74598696 .7050781 .7449951 .70407107 .73399356 .69306948L.6639862 .61602786C.6549988 .6300354 .60899356 .7050781 .49798585 .7050781 .2749939 .7050781 .049987794 .48391725 .049987794 .25172425 .049987794 .08659363 .16799927-.022460938 .32099916-.022460938 .4079895-.022460938 .48399354 .017532349 .5369873 .063583377 .6299896 .14564514 .6469879 .2367096 .6469879 .23971558 .6469879 .24972534 .6369934 .24972534 .6349945 .24972534 .6289978 .24972534 .6239929 .24772644 .621994 .23971558 .61299136 .21069336 .58999636 .13963318 .5209961 .081588748 .45199586 .025543213 .3889923 .008529663 .33699037 .008529663 .24699402 .008529663 .14099121 .060577394 .14099121 .21670532 .14099121 .27374269 .1619873 .43588258 .2619934 .55296328 .32299806 .62402346 .4169922 .67407229 .5059967 .67407229 .60798647 .67407229 .6669922 .5970001 .6669922 .48091126 .6669922 .44088746 .6639862 .43988038 .6639862 .4298706 .6639862 .41986085 .6749878 .41986085 .67900088 .41986085 .69200137 .41986085 .69200137 .42185975 .69699099 .43988038L.7599945 .69506838Z"/>
<path id="font_1_5" d="M.5369873 .5947571C.522995 .5818329 .48999024 .55400088 .48999024 .5361023 .48999024 .5261078 .5 .516098 .5099945 .516098 .5189972 .516098 .5239868 .5231018 .5289917 .5290985 .54100039 .5440674 .56399539 .5718994 .60798647 .59376528 .61499026 .59776309 .625 .6027527 .625 .61476138 .625 .62475588 .6179962 .62976077 .61099246 .6347656 .58898928 .6497803 .5779877 .66781619 .56999209 .69184878 .56799319 .7008667 .56399539 .7138672 .5499878 .7138672 .5359955 .7138672 .5299988 .7008667 .5299988 .69285586 .5299988 .68785098 .5379944 .65579226 .55400088 .6347656H.21699524C.19999695 .6347656 .18199158 .6347656 .18199158 .61476138 .18199158 .5947571 .19999695 .5947571 .21699524 .5947571H.5369873Z"/>
<path id="font_1_3" d="M.4269867 .6066284C.43399049 .63461306 .43798829 .64060977 .44999696 .6436157 .45899964 .6456146 .49198915 .6456146 .5130005 .6456146 .6139984 .6456146 .6589966 .6416168 .6589966 .56365969 .6589966 .54867556 .6549988 .50968936 .651001 .4837036 .6499939 .4797058 .647995 .4677124 .647995 .46472169 .647995 .45872499 .651001 .45173646 .6599884 .45173646 .67099 .45173646 .6729889 .45973207 .6749878 .4747162L.70199587 .64860537C.7029877 .65260317 .70399478 .6626129 .70399478 .66560366 .70399478 .6766052 .69400027 .6766052 .6769867 .6766052H.12199402C.09799194 .6766052 .09700012 .6756134 .08999634 .6566162L.02999878 .4807129C.0289917 .478714 .023986817 .46472169 .023986817 .46272279 .023986817 .45672608 .0289917 .45173646 .035995485 .45173646 .04598999 .45173646 .04699707 .45672608 .052993776 .4727173 .10699463 .6276245 .1329956 .6456146 .2809906 .6456146H.31999208C.34799195 .6456146 .34799195 .6416168 .34799195 .6336212 .34799195 .6276245 .34498597 .6156311 .34399415 .6126251L.20999146 .07896423C.20098877 .041992189 .19799805 .0309906 .09098816 .0309906 .054992677 .0309906 .04899597 .0309906 .04899597 .011993408 .04899597 0 .05999756 0 .06599426 0 .09298706 0 .12098694 .0019989014 .147995 .0019989014 .17599488 .0019989014 .20498657 .0029907227 .23298645 .0029907227 .26098634 .0029907227 .2889862 .0019989014 .31599427 .0019989014 .34498597 .0019989014 .375 0 .40299989 0 .41299439 0 .4249878 0 .4249878 .019989014 .4249878 .0309906 .4169922 .0309906 .3909912 .0309906 .3659973 .0309906 .35299684 .0309906 .32699586 .032989503 .2979889 .035995485 .2899933 .038986207 .2899933 .054977418 .2899933 .05596924 .2899933 .06097412 .2939911 .07595825L.4269867 .6066284Z"/>
<path id="font_2_1" d="M.5159912 .31925965C.5159912 .42918397 .5029907 .50813296 .45700074 .5780945 .42599488 .62405398 .3639984 .6640625 .28399659 .6640625 .051986696 .6640625 .051986696 .39120484 .051986696 .31925965 .051986696 .2472992 .051986696-.01953125 .28399659-.01953125 .5159912-.01953125 .5159912 .2472992 .5159912 .31925965M.28399659 .008468628C.23799134 .008468628 .1769867 .035446168 .15699768 .117385867 .14299011 .17634583 .14299011 .25830079 .14299011 .33224488 .14299011 .40519715 .14299011 .4811554 .1579895 .53611758 .1789856 .6150665 .24299622 .63604739 .28399659 .63604739 .33799745 .63604739 .3899994 .6030731 .4079895 .545105 .42399598 .4911499 .4249878 .41918946 .4249878 .33224488 .4249878 .25830079 .4249878 .18434143 .4119873 .12138367 .3919983 .030441285 .32398988 .008468628 .28399659 .008468628Z"/>
<path id="font_2_2" d="M.33499146 .63612368C.33499146 .6630554 .33299256 .6640625 .30499269 .6640625 .24099732 .6014404 .1499939 .6004486 .10899353 .6004486V.5644531C.1329956 .5644531 .19898987 .5644531 .2539978 .592453V.08203125C.2539978 .04899597 .2539978 .035995485 .1539917 .035995485H.115997318V0C.13398743 .0009918213 .25698854 .0039978029 .2939911 .0039978029 .32499696 .0039978029 .45098878 .0009918213 .47299195 0V.035995485H.43499757C.33499146 .035995485 .33499146 .04899597 .33499146 .08203125V.63612368Z"/>
<path id="font_2_3" d="M.5049896 .18203736H.47099305C.46798707 .16001892 .45799256 .100997928 .44499208 .09098816 .43699647 .084991458 .3600006 .084991458 .34599305 .084991458H.1619873C.2669983 .17803955 .3019867 .20603943 .3619995 .25306703 .43598939 .312088 .5049896 .374115 .5049896 .46914674 .5049896 .5900879 .39898683 .6640625 .2709961 .6640625 .14698792 .6640625 .06298828 .57710269 .06298828 .4851532 .06298828 .43414308 .10598755 .42915345 .115997318 .42915345 .13999939 .42915345 .16899109 .44615174 .16899109 .48214723 .16899109 .5001526 .1619873 .53515627 .10998535 .53515627 .14099121 .6060791 .20899964 .62805178 .2559967 .62805178 .35598756 .62805178 .4079895 .5501404 .4079895 .46914674 .4079895 .38212586 .34599305 .3130951 .31399537 .27708436L.07299805 .038986207C.06298828 .02999878 .06298828 .027999878 .06298828 0H.47499085L.5049896 .18203736Z"/>
<path id="font_1_4" d="M.46798707 .37236024C.46798707 .42637635 .44198609 .4423828 .42399598 .4423828 .39898683 .4423828 .375 .41636659 .375 .3943634 .375 .38136292 .37998963 .3753662 .3909912 .36434938 .4119873 .3443451 .4249878 .31834413 .4249878 .28233338 .4249878 .24032593 .3639984 .011245728 .24699402 .011245728 .19599915 .011245728 .17298889 .04626465 .17298889 .09828186 .17298889 .15429688 .19999695 .22731018 .23098755 .31033326 .23799134 .3273468 .24299622 .34135438 .24299622 .36035157 .24299622 .405365 .21099854 .4423828 .16099549 .4423828 .066986087 .4423828 .0289917 .29733277 .0289917 .28833009 .0289917 .27833558 .038986207 .27833558 .040985109 .27833558 .050994874 .27833558 .051986696 .28033448 .056991579 .29634095 .085998538 .39736939 .1289978 .42037965 .1579895 .42037965 .1659851 .42037965 .18299866 .42037965 .18299866 .3883667 .18299866 .36335755 .17298889 .3363495 .1659851 .31834413 .12199402 .20230103 .10899353 .15629578 .10899353 .11328125 .10899353 .0052490236 .19699097-.0107421879 .24299622-.0107421879 .41099549-.0107421879 .46798707 .32034303 .46798707 .37236024Z"/>
<path id="font_1_2" d="M.30299378 .3157959H.47299195C.61499026 .3157959 .7539978 .41973878 .7539978 .53167727 .7539978 .6086273 .6879883 .6826172 .5569916 .6826172H.23298645C.21398926 .6826172 .20298767 .6826172 .20298767 .66360476 .20298767 .6516113 .21199036 .6516113 .23199463 .6516113 .24499512 .6516113 .2630005 .65060427 .2749939 .6496124 .29100038 .6476135 .29699708 .64460757 .29699708 .6336212 .29699708 .6296234 .29599 .62661746 .29299928 .614624L.15899658 .07795715C.14898682 .038986207 .14698792 .0309906 .067993167 .0309906 .050994874 .0309906 .039993287 .0309906 .039993287 .011993408 .039993287 0 .051986696 0 .054992677 0 .08299255 0 .1539917 .0029907227 .18199158 .0029907227 .20298767 .0029907227 .22499085 .0019989014 .24598694 .0019989014 .2679901 .0019989014 .2899933 0 .31098939 0 .31799317 0 .33099366 0 .33099366 .019989014 .33099366 .0309906 .32199098 .0309906 .30299378 .0309906 .2659912 .0309906 .23799134 .0309906 .23799134 .048980714 .23799134 .054977418 .23999024 .05996704 .24099732 .065963748L.30299378 .3157959M.375 .6136322C.38398744 .64860537 .38598634 .6516113 .42900086 .6516113H.5249939C.60798647 .6516113 .6609955 .62461856 .6609955 .55566409 .6609955 .5166931 .6409912 .43074037 .60198977 .39476014 .5519867 .34977723 .49198915 .34179688 .44799806 .34179688H.30699159L.375 .6136322Z"/>
<path id="font_2_4" d="M.272995 .33428956C.35099793 .33428956 .40699769 .2803192 .40699769 .1733551 .40699769 .04940796 .33499146 .012466431 .2769928 .012466431 .23699951 .012466431 .14898682 .0234375 .10699463 .082351688 .1539917 .084350589 .16499329 .11735535 .16499329 .13835144 .16499329 .17034912 .14099121 .19335938 .10998535 .19335938 .08198547 .19335938 .053985597 .17634583 .053985597 .13534546 .053985597 .041412355 .1579895-.01953125 .2789917-.01953125 .41799928-.01953125 .5139923 .07336426 .5139923 .1733551 .5139923 .2513275 .44999696 .32929994 .33999635 .35229493 .44499208 .39024354 .48298646 .4650879 .48298646 .5260773 .48298646 .60505679 .3919983 .6640625 .2809906 .6640625 .16999817 .6640625 .084991458 .61006167 .084991458 .5300751 .084991458 .49606324 .10699463 .47706605 .13699341 .47706605 .16799927 .47706605 .18798828 .5000763 .18798828 .5280762 .18798828 .5570679 .16799927 .57806399 .13699341 .5800781 .17199707 .62405398 .24099732 .63505557 .27799989 .63505557 .32299806 .63505557 .38598634 .6130676 .38598634 .5260773 .38598634 .48406983 .37199403 .43814088 .34599305 .4072113 .31298829 .36927796 .2849884 .3672943 .23498535 .36428834 .20999146 .3623047 .20799256 .3623047 .20298767 .3612976 .20098877 .3612976 .19299317 .3592987 .19299317 .34829713 .19299317 .33428956 .20199585 .33428956 .21899414 .33428956H.272995Z"/>
</defs>
<path transform="matrix(1,0,0,-1.00005,63.692,62.922494)" stroke-width=".99628" stroke-linecap="butt" stroke-miterlimit="10" stroke-linejoin="miter" fill="none" stroke="#0074c8" d="M-56.69362-28.3468C-56.69362-28.3468-54.13353-23.32518-53.15025-21.48155-52.16699-19.63794-50.59016-16.77994-49.6069-15.05922-48.62364-13.33852-47.04681-10.67761-46.06355-9.07982-45.08029-7.48201-43.50346-5.01822-42.5202-3.54333-41.53694-2.06844-39.96011 .19821-38.97685 1.5502-37.99358 2.90219-36.41676 4.97177-35.43349 6.20085-34.45023 7.42993-32.8734 9.3024-31.89014 10.40857-30.90688 11.51474-29.33006 13.19012-28.3468 14.17339-27.36354 15.15665-25.78671 16.63492-24.80345 17.49529-23.82019 18.35564-22.24336 19.63681-21.2601 20.37427-20.27682 21.11171-18.70001 22.19576-17.71674 22.8103-16.73347 23.42484-15.15665 24.31181-14.17339 24.80345-13.19012 25.29507-11.6133 25.98494-10.63004 26.35365-9.64677 26.72237-8.06995 27.21513-7.08669 27.46095-6.10342 27.70677-4.5266 28.00243-3.54333 28.12534-2.56007 28.24825-.98325 28.3468 0 28.3468 .98325 28.3468 2.56007 28.24825 3.54333 28.12534 4.5266 28.00243 6.10342 27.70677 7.08669 27.46095 8.06995 27.21513 9.64677 26.72237 10.63004 26.35365 11.6133 25.98494 13.19012 25.29507 14.17339 24.80345 15.15665 24.31181 16.73347 23.42484 17.71674 22.8103 18.70001 22.19576 20.27682 21.11171 21.2601 20.37427 22.24336 19.63681 23.82019 18.35564 24.80345 17.49529 25.78671 16.63492 28.3468 14.17339 28.3468 14.17339"/>
<use data-text="C" xlink:href="#font_1_1" transform="matrix(9.9626,0,0,-9.963098,73.949008,66.19066)" fill="#0074c8"/>
<path transform="matrix(1,0,0,-1.00005,63.692,62.922494)" stroke-width=".99628" stroke-linecap="butt" stroke-miterlimit="10" stroke-linejoin="miter" fill="none" stroke="#ff0000" d="M-56.69362-28.3468-30.67235 23.6956"/>
<path transform="matrix(.44717,-.89440467,-.89436,-.4471923,33.01964,39.22572)" d="M5.20058 0C3.65962 .28891 1.15567 1.15567-.57784 2.1669V-2.1669C1.15567-1.15567 3.65962-.28891 5.20058 0" fill="#ff0000"/>
<path transform="matrix(1,0,0,-1.00005,63.692,62.922494)" stroke-width=".99628" stroke-linecap="butt" stroke-miterlimit="10" stroke-linejoin="miter" fill="none" stroke="#ff0000" d="M-28.3468 14.17339-3.67735 38.84283"/>
<path transform="matrix(.7071,-.7071353,-.7071,-.7071353,60.014635,24.077733)" d="M5.20058 0C3.65962 .28891 1.15567 1.15567-.57784 2.1669V-2.1669C1.15567-1.15567 3.65962-.28891 5.20058 0" fill="#ff0000"/>
<path transform="matrix(1,0,0,-1.00005,63.692,62.922494)" stroke-width=".99628" stroke-linecap="butt" stroke-miterlimit="10" stroke-linejoin="miter" fill="none" stroke="#ff0000" d="M0 28.3468H23.14622"/>
<path transform="matrix(1,0,0,-1.00005,86.83822,34.57428)" d="M5.20058 0C3.65962 .28891 1.15567 1.15567-.57784 2.1669V-2.1669C1.15567-1.15567 3.65962-.28891 5.20058 0" fill="#ff0000"/>
<path transform="matrix(1,0,0,-1.00005,63.692,62.922494)" d="M-53.70479-28.3468C-53.70479-26.69609-55.04291-25.35797-56.69362-25.35797-58.34431-25.35797-59.68245-26.69609-59.68245-28.3468-59.68245-29.99751-58.34431-31.33563-56.69362-31.33563-55.04291-31.33563-53.70479-29.99751-53.70479-28.3468ZM-56.69362-28.3468"/>
<path transform="matrix(1,0,0,-1.00005,63.692,62.922494)" d="M-25.35797 14.17339C-25.35797 15.8241-26.69609 17.16222-28.3468 17.16222-29.99751 17.16222-31.33563 15.8241-31.33563 14.17339-31.33563 12.52269-29.99751 11.18456-28.3468 11.18456-26.69609 11.18456-25.35797 12.52269-25.35797 14.17339ZM-28.3468 14.17339"/>
<path transform="matrix(1,0,0,-1.00005,63.692,62.922494)" d="M2.98883 28.3468C2.98883 29.99751 1.6507 31.33563 0 31.33563-1.6507 31.33563-2.98883 29.99751-2.98883 28.3468-2.98883 26.69609-1.6507 25.35797 0 25.35797 1.6507 25.35797 2.98883 26.69609 2.98883 28.3468ZM0 28.3468"/>
<path transform="matrix(1,0,0,-1.00005,63.692,62.922494)" d="M31.33563 14.17339C31.33563 15.8241 29.99751 17.16222 28.3468 17.16222 26.69609 17.16222 25.35797 15.8241 25.35797 14.17339 25.35797 12.52269 26.69609 11.18456 28.3468 11.18456 29.99751 11.18456 31.33563 12.52269 31.33563 14.17339ZM28.3468 14.17339"/>
<path transform="matrix(1,0,0,-1.00005,63.692,62.922494)" stroke-width=".79701" stroke-linecap="butt" stroke-miterlimit="10" stroke-linejoin="miter" fill="none" stroke="#ff0000" d=""/>
<use data-text="&#x20d7;" xlink:href="#font_1_5" transform="matrix(9.9626,0,0,-9.963098,15.423996,53.136)" fill="#ff0000"/>
<use data-text="T" xlink:href="#font_1_3" transform="matrix(9.9626,0,0,-9.963098,14.248001,55.65413)" fill="#ff0000"/>
<use data-text="0" xlink:href="#font_2_1" transform="matrix(6.9738,0,0,-6.9741489,20.069,57.1482)" fill="#ff0000"/>
<path transform="matrix(1,0,0,-1.00005,63.692,62.922494)" stroke-width=".79701" stroke-linecap="butt" stroke-miterlimit="10" stroke-linejoin="miter" fill="none" stroke="#ff0000" d=""/>
<use data-text="&#x20d7;" xlink:href="#font_1_5" transform="matrix(9.9626,0,0,-9.963098,50.857995,19.118302)" fill="#ff0000"/>
<use data-text="T" xlink:href="#font_1_3" transform="matrix(9.9626,0,0,-9.963098,49.682,21.636429)" fill="#ff0000"/>
<use data-text="1" xlink:href="#font_2_2" transform="matrix(6.9738,0,0,-6.9741489,55.503,23.1305)" fill="#ff0000"/>
<path transform="matrix(1,0,0,-1.00005,63.692,62.922494)" stroke-width=".79701" stroke-linecap="butt" stroke-miterlimit="10" stroke-linejoin="miter" fill="none" stroke="#ff0000" d=""/>
<use data-text="&#x20d7;" xlink:href="#font_1_5" transform="matrix(9.9626,0,0,-9.963098,80.981998,26.84269)" fill="#ff0000"/>
<use data-text="T" xlink:href="#font_1_3" transform="matrix(9.9626,0,0,-9.963098,79.806,29.360817)" fill="#ff0000"/>
<use data-text="2" xlink:href="#font_2_3" transform="matrix(6.9738,0,0,-6.9741489,85.627,30.854889)" fill="#ff0000"/>
<path transform="matrix(1,0,0,-1.00005,63.692,62.922494)" stroke-width=".49814" stroke-linecap="butt" stroke-miterlimit="10" stroke-linejoin="miter" fill="none" stroke="#000000" d="M-56.69362-28.3468-50.54189-3.74037"/>
<path transform="matrix(.24251,-.97018846,-.97014,-.24252212,13.150101,66.66307)" d="M3.85551 0C2.71312 .21419 .85678 .85678-.42839 1.60646V-1.60646C.85678-.85678 2.71312-.21419 3.85551 0"/>
<use data-text="&#x20d7;" xlink:href="#font_1_5" transform="matrix(9.9626,0,0,-9.963098,.8299866,65.734638)"/>
<use data-text="v" xlink:href="#font_1_4" transform="matrix(9.9626,0,0,-9.963098,1.2185211,65.734638)"/>
<use data-text="0" xlink:href="#font_2_1" transform="matrix(6.9738,0,0,-6.9741489,6.04599,67.22871)"/>
<path transform="matrix(1,0,0,-1.00005,63.692,62.922494)" stroke-width=".49814" stroke-linecap="butt" stroke-miterlimit="10" stroke-linejoin="miter" fill="none" stroke="#000000" d="M-28.3468 14.17339-17.1729 39.00443"/>
<path transform="matrix(.41034,-.91192558,-.91188,-.41036053,46.519105,23.916115)" d="M3.85551 0C2.71312 .21419 .85678 .85678-.42839 1.60646V-1.60646C.85678-.85678 2.71312-.21419 3.85551 0"/>
<use data-text="&#x20d7;" xlink:href="#font_1_5" transform="matrix(9.9626,0,0,-9.963098,34.845994,23.21251)"/>
<use data-text="v" xlink:href="#font_1_4" transform="matrix(9.9626,0,0,-9.963098,35.234529,23.21251)"/>
<use data-text="1" xlink:href="#font_2_2" transform="matrix(6.9738,0,0,-6.9741489,40.061998,24.706582)"/>
<path transform="matrix(1,0,0,-1.00005,63.692,62.922494)" stroke-width=".49814" stroke-linecap="butt" stroke-miterlimit="10" stroke-linejoin="miter" fill="none" stroke="#000000" d="M0 28.3468 16.32411 53.46104"/>
<path transform="matrix(.54497,-.8384619,-.83842,-.5449972,80.01611,9.458794)" d="M3.85551 0C2.71312 .21419 .85678 .85678-.42839 1.60646V-1.60646C.85678-.85678 2.71312-.21419 3.85551 0"/>
<use data-text="&#x20d7;" xlink:href="#font_1_5" transform="matrix(9.9626,0,0,-9.963098,68.86199,9.0378)"/>
<use data-text="v" xlink:href="#font_1_4" transform="matrix(9.9626,0,0,-9.963098,69.25053,9.0378)"/>
<use data-text="2" xlink:href="#font_2_3" transform="matrix(6.9738,0,0,-6.9741489,74.077999,10.531872)"/>
<path transform="matrix(1,0,0,-1.00005,63.692,62.922494)" stroke-width=".79701" stroke-linecap="butt" stroke-miterlimit="10" stroke-linejoin="miter" fill="none" stroke="#929292" d=""/>
<use data-text="P" xlink:href="#font_1_2" transform="matrix(9.9626,0,0,-9.963098,10.716995,93.92804)" fill="#929292"/>
<use data-text="0" xlink:href="#font_2_1" transform="matrix(6.9738,0,0,-6.9741489,17.112992,95.42212)" fill="#929292"/>
<path transform="matrix(1,0,0,-1.00005,63.692,62.922494)" stroke-width=".79701" stroke-linecap="butt" stroke-miterlimit="10" stroke-linejoin="miter" fill="none" stroke="#929292" d=""/>
<use data-text="P" xlink:href="#font_1_2" transform="matrix(9.9626,0,0,-9.963098,39.064004,54.24006)" fill="#929292"/>
<use data-text="1" xlink:href="#font_2_2" transform="matrix(6.9738,0,0,-6.9741489,45.46,55.73413)" fill="#929292"/>
<path transform="matrix(1,0,0,-1.00005,63.692,62.922494)" stroke-width=".79701" stroke-linecap="butt" stroke-miterlimit="10" stroke-linejoin="miter" fill="none" stroke="#929292" d=""/>
<use data-text="P" xlink:href="#font_1_2" transform="matrix(9.9626,0,0,-9.963098,67.411,48.570779)" fill="#929292"/>
<use data-text="2" xlink:href="#font_2_3" transform="matrix(6.9738,0,0,-6.9741489,73.807,50.06485)" fill="#929292"/>
<path transform="matrix(1,0,0,-1.00005,63.692,62.922494)" stroke-width=".79701" stroke-linecap="butt" stroke-miterlimit="10" stroke-linejoin="miter" fill="none" stroke="#929292" d=""/>
<use data-text="P" xlink:href="#font_1_2" transform="matrix(9.9626,0,0,-9.963098,95.758,58.49227)" fill="#929292"/>
<use data-text="3" xlink:href="#font_2_4" transform="matrix(6.9738,0,0,-6.9741489,102.154,59.986345)" fill="#929292"/>
</svg>
