<svg xmlns="http://www.w3.org/2000/svg" xmlns:xlink="http://www.w3.org/1999/xlink" version="1.1" width="428pt" height="150pt" viewBox="0 0 428 150">
<defs>
<path id="font_1_6" d="M.1329956 .08345032C.18699646 .14138794 .21598816 .16636658 .2519989 .19732666 .2519989 .19833374 .31399537 .25128175 .34999085 .2872467 .44499208 .3803711 .46699525 .42837525 .46699525 .43237306 .46699525 .4423828 .45799256 .4423828 .45599366 .4423828 .44898988 .4423828 .44599916 .44036866 .44099427 .43138124 .41099549 .38337709 .3899994 .3671875 .3659973 .3671875 .34199525 .3671875 .32998658 .38237 .31498719 .3993683 .29599 .42237855 .2789917 .4423828 .24598694 .4423828 .17098999 .4423828 .125 .34918214 .125 .3282013 .125 .3231964 .12799073 .31721498 .13699341 .31721498 .1459961 .31721498 .147995 .3222046 .1499939 .3282013 .16899109 .37434388 .22698975 .37538148 .23498535 .37538148 .2559967 .37538148 .2749939 .36820985 .2979889 .36018373 .33799745 .34518434 .34899903 .34518434 .375 .34518434 .33898927 .30223084 .25498963 .2303009 .23599243 .21430969L.1459961 .13040161C.07798767 .06341553 .042999269 .0062561037 .042999269-.00074768069 .042999269-.0107421879 .052993776-.0107421879 .054992677-.0107421879 .06298828-.0107421879 .06498718-.008743286 .070999149 .002243042 .09399414 .037246705 .12399292 .064453128 .1559906 .064453128 .1789856 .064453128 .18899536 .055252077 .21398926 .026245118 .23098755 .0052490236 .24899292-.0107421879 .27799989-.0107421879 .3769989-.0107421879 .43499757 .1164093 .43499757 .14338684 .43499757 .14837647 .43099977 .15338135 .4229889 .15338135 .4139862 .15338135 .4119873 .14738465 .40899659 .14039612 .38598634 .07543945 .32199098 .056243898 .2889862 .056243898 .2689972 .056243898 .25099183 .06239319 .22999573 .06944275 .19599915 .08244324 .18099976 .08644104 .1599884 .08644104 .1579895 .08644104 .14199829 .08644104 .1329956 .08345032Z"/>
<path id="font_2_85" d="M.33099366-.2400055C.33099366-.23701477 .33099366-.23500061 .31399537-.21800232 .18899536-.0920105 .15699768 .09700012 .15699768 .25 .15699768 .42399598 .19499207 .59799197 .31799317 .72299197 .33099366 .7350006 .33099366 .7369995 .33099366 .73999026 .33099366 .746994 .32699586 .75 .32099916 .75 .31098939 .75 .22099304 .6819916 .1619873 .5549927 .11099243 .44499208 .09899902 .33399964 .09899902 .25 .09899902 .17199707 .10998535 .050994874 .16499329-.06201172 .22499085-.18501282 .31098939-.25 .32099916-.25 .32699586-.25 .33099366-.24700928 .33099366-.2400055Z"/>
<path id="font_2_70" d="M.5109863 0V.0309906C.47399903 .0309906 .45199586 .0309906 .4139862 .0839386L.2869873 .26278688C.28599549 .26478578 .2809906 .2707672 .2809906 .2737732 .2809906 .277771 .35198976 .33770753 .3619995 .34570313 .4249878 .39666749 .46699525 .39865113 .48799134 .3996582V.43066407C.45899964 .42765809 .44599916 .42765809 .41799928 .42765809 .38198854 .42765809 .31999208 .42965699 .30599977 .43066407V.3996582C.32499696 .39865113 .33499146 .3876648 .33499146 .37467958 .33499146 .3547058 .32099916 .3427124 .31298829 .33570863L.17199707 .21382141V.69433596L.027999878 .6826172V.6516113C.09799194 .6516113 .10598755 .64460757 .10598755 .5956421V.07595825C.10598755 .0309906 .09498596 .0309906 .027999878 .0309906V0L.13699341 .0029907227 .24699402 0V.0309906C.17999268 .0309906 .16899109 .0309906 .16899109 .07595825V.17889405L.23298645 .23387146C.30999757 .12792969 .35198976 .07196045 .35198976 .053985597 .35198976 .034988405 .33499146 .0309906 .31599427 .0309906V0L.42399598 .0029907227C.45298768 .0029907227 .48199464 .0019989014 .5109863 0Z"/>
<path id="font_2_75" d="M.8129883 0V.0309906C.7609863 .0309906 .73599246 .0309906 .7350006 .061019899V.25221253C.7350006 .3383026 .7350006 .36932374 .70399478 .405365 .6899872 .42237855 .6569977 .4423828 .598999 .4423828 .5149994 .4423828 .47099305 .38233949 .45399476 .34429933 .43998719 .43138124 .3659973 .4423828 .32099916 .4423828 .24798584 .4423828 .20098877 .39935304 .17298889 .33729554V.4423828L.03199768 .43066407V.3996582C.101989749 .3996582 .10998535 .39266969 .10998535 .34370423V.07595825C.10998535 .0309906 .09899902 .0309906 .03199768 .0309906V0L.14498902 .0029907227 .25698854 0V.0309906C.18998719 .0309906 .1789856 .0309906 .1789856 .07595825V.25978089C.1789856 .36431886 .25 .42037965 .31399537 .42037965 .3769989 .42037965 .3880005 .36631776 .3880005 .30926515V.076034549C.3880005 .0309906 .3769989 .0309906 .30999757 .0309906V0L.4229889 .0029907227 .5349884 0V.0309906C.46798707 .0309906 .45700074 .0309906 .45700074 .076034549V.2602234C.45700074 .36431886 .5279999 .42037965 .59199526 .42037965 .6549988 .42037965 .66600039 .36631776 .66600039 .30926515V.076034549C.66600039 .0309906 .6549988 .0309906 .58799746 .0309906V0L.70098879 .0029907227 .8129883 0Z"/>
<path id="font_2_86" d="M.2889862 .25C.2889862 .32798768 .27799989 .44898988 .22299195 .56199648 .16299439 .68499758 .07699585 .75 .066986087 .75 .06098938 .75 .056991579 .74598696 .056991579 .73999026 .056991579 .7369995 .056991579 .7350006 .07598877 .71699526 .17399597 .6179962 .23098755 .45899964 .23098755 .25 .23098755 .07899475 .19400025-.09700012 .069992069-.2230072 .056991579-.23500061 .056991579-.23701477 .056991579-.2400055 .056991579-.2460022 .06098938-.25 .066986087-.25 .07699585-.25 .16699219-.18200684 .22599793-.055007936 .2769928 .054992677 .2889862 .16600037 .2889862 .25Z"/>
<path id="font_1_3" d="M.36698915 .3996582H.45298768C.47299195 .3996582 .48298646 .3996582 .48298646 .41966249 .48298646 .43066407 .47299195 .43066407 .45599366 .43066407H.37298585L.3939972 .5449524C.397995 .5660095 .4119873 .6370239 .41799928 .6490326 .4269867 .66804507 .44400025 .68307498 .46499635 .68307498 .46899415 .68307498 .49499513 .68307498 .5139923 .66503909 .46998597 .661026 .45999146 .6260376 .45999146 .6110382 .45999146 .58802798 .47799684 .57603457 .49699403 .57603457 .522995 .57603457 .5519867 .5980377 .5519867 .6360321 .5519867 .6820679 .5059967 .7050781 .46499635 .7050781 .43099977 .7050781 .36799623 .68707278 .33799745 .58802798 .33198548 .56700137 .32899476 .5569763 .30499269 .43066407H.23599243C.21699524 .43066407 .20599365 .43066407 .20599365 .4116516 .20599365 .3996582 .21499634 .3996582 .23399353 .3996582H.2999878L.22499085 .0048828127C.20698548-.09207153 .18998719-.18309021 .13798523-.18309021 .13398743-.18309021 .10899353-.18309021 .08999634-.16506958 .13598633-.1620636 .14498902-.12606812 .14498902-.111068729 .14498902-.08807373 .1269989-.07606506 .10798645-.07606506 .08198547-.07606506 .052993776-.09806824 .052993776-.13606262 .052993776-.18109131 .09700012-.20507813 .13798523-.20507813 .19299317-.20507813 .23298645-.14607239 .25099183-.108062747 .2829895-.04508972 .30599977 .07583618 .30699159 .082839969L.36698915 .3996582Z"/>
<path id="font_3_1" d="M.33099366-.2400055C.33099366-.23701477 .33099366-.23500061 .31399537-.21800232 .18899536-.0920105 .15699768 .09700012 .15699768 .25 .15699768 .42399598 .19499207 .59799197 .31799317 .72299197 .33099366 .73498538 .33099366 .7369995 .33099366 .73999026 .33099366 .746994 .32699586 .75 .32099916 .75 .31098939 .75 .22099304 .6819916 .1619873 .5549927 .11099243 .44499208 .09899902 .33399964 .09899902 .25 .09899902 .17199707 .10998535 .050994874 .16499329-.06201172 .22499085-.18501282 .31098939-.25 .32099916-.25 .32699586-.25 .33099366-.24700928 .33099366-.2400055Z"/>
<path id="font_3_2" d="M.2889862 .25C.2889862 .32798768 .27799989 .44898988 .22299195 .56199648 .16299439 .68499758 .07699585 .75 .066986087 .75 .06098938 .75 .056991579 .74598696 .056991579 .73999026 .056991579 .7369995 .056991579 .73498538 .07598877 .71699526 .17399597 .6179962 .23098755 .45899964 .23098755 .25 .23098755 .07899475 .19400025-.09700012 .069992069-.2230072 .056991579-.23500061 .056991579-.23701477 .056991579-.2400055 .056991579-.2460022 .06098938-.25 .066986087-.25 .07699585-.25 .16699219-.18200684 .22599793-.055007936 .2769928 .054992677 .2889862 .16600037 .2889862 .25Z"/>
<path id="font_1_4" d="M.08799744 .059265138C.084991458 .044265748 .07899475 .021255494 .07899475 .01625061 .07899475-.0017547608 .09298706-.0107421879 .10798645-.0107421879 .11999512-.0107421879 .13798523-.002746582 .14498902 .01725769 .1459961 .019256592 .1579895 .06626892 .1639862 .091278079L.18598938 .18130493C.19198609 .2033081 .19799805 .22531128 .20298767 .24832154 .20698548 .26531983 .21499634 .29434205 .21598816 .29833985 .23098755 .3293457 .28399659 .42037965 .3789978 .42037965 .42399598 .42037965 .43299867 .38336183 .43299867 .35035707 .43299867 .3253479 .42599488 .29733277 .41799928 .26733399L.3899994 .1512909 .36999513 .07527161C.3659973 .055267335 .35699464 .021255494 .35699464 .01625061 .35699464-.0017547608 .37098695-.0107421879 .38598634-.0107421879 .4169922-.0107421879 .4229889 .014251709 .43099977 .04626465 .44499208 .10227966 .48199464 .24832154 .4909973 .28733827 .49398805 .30033876 .5469971 .42037965 .6559906 .42037965 .69898989 .42037965 .70999148 .3863678 .70999148 .35035707 .70999148 .29333497 .66799929 .17930603 .647995 .12628174 .6389923 .10227966 .6349945 .091278079 .6349945 .0712738 .6349945 .024261475 .66999819-.0107421879 .71699526-.0107421879 .8109894-.0107421879 .84799197 .13528443 .84799197 .14329529 .84799197 .1532898 .83898928 .1532898 .83599856 .1532898 .82598879 .1532898 .82598879 .15029907 .82099917 .13528443 .80599978 .08227539 .7739868 .011245728 .71899417 .011245728 .70199587 .011245728 .69499209 .021255494 .69499209 .044265748 .69499209 .0692749 .70399478 .09327698 .71299746 .11528015 .7319946 .16729737 .7739868 .27833558 .7739868 .3353424 .7739868 .4003601 .73399356 .4423828 .6589966 .4423828 .58399966 .4423828 .5329895 .3983612 .49598695 .34535218 .49499513 .35835267 .49198915 .3923645 .46398927 .41636659 .43899537 .43737794 .40699769 .4423828 .38198854 .4423828 .2919922 .4423828 .24299622 .37835694 .22599793 .35534669 .22099304 .41236878 .1789856 .4423828 .13398743 .4423828 .08799744 .4423828 .068984989 .4033661 .05999756 .38536073 .041992189 .35035707 .0289917 .29133607 .0289917 .28833009 .0289917 .27833558 .038986207 .27833558 .040985109 .27833558 .050994874 .27833558 .051986696 .2793274 .057998659 .30133058 .07499695 .37236024 .09498596 .42037965 .1309967 .42037965 .14698792 .42037965 .1619873 .41236878 .1619873 .37435914 .1619873 .35334779 .15899658 .3423462 .1459961 .29032899L.08799744 .059265138Z"/>
<path id="font_1_2" d="M.43899537 .71199038C.44400025 .72499087 .44400025 .72898867 .44400025 .7299957 .44400025 .7409973 .43499757 .75 .42399598 .75 .4169922 .75 .4099884 .746994 .40699769 .7409973L.05999756-.21200562C.054992677-.2250061 .054992677-.2290039 .054992677-.23001099 .054992677-.24101258 .06399536-.25 .07499695-.25 .08799744-.25 .09098816-.24301148 .09700012-.22601319L.43899537 .71199038Z"/>
<path id="font_1_5" d="M.3909912 .37405396C.36299134 .37304688 .34298707 .3510437 .34298707 .32904054 .34298707 .31503297 .35198976 .30003358 .37399293 .30003358 .3959961 .30003358 .41999818 .31703187 .41999818 .35603334 .41999818 .40124513 .3769989 .4423828 .30099488 .4423828 .16899109 .4423828 .13198853 .3400421 .13198853 .29605104 .13198853 .21820069 .20599365 .20323181 .23498535 .19725037 .2869873 .18727112 .33898927 .17628479 .33898927 .12133789 .33898927 .095336917 .31599427 .011245728 .19599915 .011245728 .18199158 .011245728 .10499573 .011245728 .08198547 .064331058 .11999512 .059326173 .14498902 .08934021 .14498902 .11734009 .14498902 .14033509 .1289978 .15234375 .10798645 .15234375 .08198547 .15234375 .051986696 .1313324 .051986696 .08633423 .051986696 .029281617 .10899353-.0107421879 .19499207-.0107421879 .35699464-.0107421879 .3959961 .1103363 .3959961 .15533448 .3959961 .19125366 .3769989 .21620178 .36499024 .22817993 .33799745 .25613404 .30899049 .26112367 .2649994 .27009584 .22898865 .27807618 .18899536 .2850647 .18899536 .33003236 .18899536 .3590393 .21299744 .42037965 .30099488 .42037965 .32598878 .42037965 .37599183 .41333009 .3909912 .37405396Z"/>
<path id="font_4_1" d="M.5049896 .18203736H.47099305C.46798707 .16001892 .45799256 .100997928 .44499208 .09098816 .43699647 .084991458 .3600006 .084991458 .34599305 .084991458H.1619873C.2669983 .17803955 .3019867 .20603943 .3619995 .25306703 .43598939 .312088 .5049896 .374115 .5049896 .46914674 .5049896 .5900879 .39898683 .6640625 .2709961 .6640625 .14698792 .6640625 .06298828 .57710269 .06298828 .4851532 .06298828 .43414308 .10598755 .42915345 .115997318 .42915345 .13999939 .42915345 .16899109 .44615174 .16899109 .48214723 .16899109 .5001526 .1619873 .53515627 .10998535 .53515627 .14099121 .6060791 .20899964 .62805178 .2559967 .62805178 .35598756 .62805178 .4079895 .5501404 .4079895 .46914674 .4079895 .38212586 .34599305 .3130951 .31399537 .27708436L.07299805 .038986207C.06298828 .02999878 .06298828 .027999878 .06298828 0H.47499085L.5049896 .18203736Z"/>
<path id="font_3_3" d="M.45999146 .31976319C.45999146 .39982606 .45498658 .47988893 .41999818 .5539398 .37399293 .65000918 .2919922 .6660156 .25 .6660156 .18998719 .6660156 .116989139 .64001467 .07598877 .54693606 .04399109 .47789 .038986207 .39982606 .038986207 .31976319 .038986207 .24472046 .042999269 .15464783 .083999637 .07859802 .1269989-.0024719239 .19999695-.022460938 .24899292-.022460938 .30299378-.022460938 .3789978-.0014648438 .4229889 .09359741 .45498658 .16265869 .45999146 .2407074 .45999146 .31976319M.24899292-.00047302247C.20999146-.00047302247 .15098572 .024551392 .1329956 .12062073 .12199402 .18066406 .12199402 .2727356 .12199402 .3317871 .12199402 .39582826 .12199402 .46188355 .12998963 .5159149 .14898682 .63500979 .22399903 .64401248 .24899292 .64401248 .28199769 .64401248 .34799195 .6259918 .36698915 .52693179 .3769989 .47088624 .3769989 .39482118 .3769989 .3317871 .3769989 .25672914 .3769989 .18867493 .3659973 .12461853 .35099793 .029556275 .2939911-.00047302247 .24899292-.00047302247Z"/>
<path id="font_1_1" d="M.19198609 .052993776C.19198609 .08198547 .16799927 .10598755 .13899231 .10598755 .10998535 .10598755 .085998538 .08198547 .085998538 .052993776 .085998538 .023986817 .10998535 0 .13899231 0 .16799927 0 .19198609 .023986817 .19198609 .052993776Z"/>
<path id="font_3_7" d="M.44898988 .20022583C.44898988 .3193512 .36698915 .41944886 .25898744 .41944886 .21099854 .41944886 .16799927 .40345765 .13198853 .36842347V.5637665C.1519928 .5577698 .18499756 .55078127 .21699524 .55078127 .33999635 .55078127 .4099884 .6417694 .4099884 .6547699 .4099884 .6607666 .40699769 .6657715 .3999939 .6657715 .39898683 .6657715 .39698792 .6657715 .3919983 .66278079 .37199403 .6537781 .32299806 .6337738 .2559967 .6337738 .21598816 .6337738 .16999817 .6407776 .12298584 .6617737 .114990238 .66477969 .11299133 .66477969 .11099243 .66477969 .100997928 .66477969 .100997928 .6567688 .100997928 .6407776V.34439088C.100997928 .32637025 .100997928 .31835938 .114990238 .31835938 .12199402 .31835938 .12399292 .32136537 .12799073 .32736207 .13899231 .3433838 .17599488 .39746095 .25698854 .39746095 .30899049 .39746095 .33399964 .35139466 .34199525 .33337403 .35798646 .29632569 .3600006 .25727845 .3600006 .20722962 .3600006 .17222595 .3600006 .11222839 .33599855 .07035828 .31199647 .031463624 .2749939 .0055389406 .22898865 .0055389406 .1559906 .0055389406 .09899902 .058380128 .08198547 .11723328 .084991458 .1162262 .08799744 .115234378 .09899902 .115234378 .13198853 .115234378 .14898682 .14022827 .14898682 .16423035 .14898682 .18823242 .13198853 .21322632 .09899902 .21322632 .084991458 .21322632 .049987794 .20622254 .049987794 .16023255 .049987794 .07434082 .11898804-.022460938 .23098755-.022460938 .34700013-.022460938 .44898988 .073349 .44898988 .20022583Z"/>
<path id="font_3_5" d="M.1269989 .07699585 .23298645 .18003845C.3889923 .31811524 .44898988 .3721466 .44898988 .47216798 .44898988 .5860901 .35899354 .6660156 .23699951 .6660156 .12399292 .6660156 .049987794 .57411196 .049987794 .48516847 .049987794 .4291687 .099990848 .4291687 .102996829 .4291687 .11999512 .4291687 .15499878 .44117738 .15499878 .48217774 .15499878 .5081787 .13699341 .5341797 .101989749 .5341797 .09399414 .5341797 .09199524 .5341797 .08898926 .5331726 .11199951 .59806826 .1659851 .63500979 .22399903 .63500979 .31498719 .63500979 .35798646 .5541382 .35798646 .47216798 .35798646 .39215089 .30799867 .31311036 .25299073 .25108338L.06098938 .036987306C.049987794 .025985718 .049987794 .023986817 .049987794 0H.42099L.44898988 .17404175H.42399598C.4189911 .14402771 .4119873 .1000061 .4019928 .084991458 .394989 .07699585 .32899476 .07699585 .30699159 .07699585H.1269989Z"/>
<path id="font_3_6" d="M.2939911 .16503906V.07800293C.2939911 .041992189 .2919922 .0309906 .21798706 .0309906H.19699097V0C.23799134 .0029907227 .2899933 .0029907227 .33198548 .0029907227 .37399293 .0029907227 .4269867 .0029907227 .46798707 0V.0309906H.44699098C.37298585 .0309906 .37098695 .041992189 .37098695 .07800293V.16503906H.47099305V.19602967H.37098695V.65075686C.37098695 .67074587 .37098695 .6767578 .35499574 .6767578 .34599305 .6767578 .34298707 .6767578 .33499146 .66474917L.027999878 .19602967V.16503906H.2939911M.2999878 .19602967H.055999757L.2999878 .5688019V.19602967Z"/>
<path id="font_3_8" d="M.13198853 .327713V.35173036C.13198853 .6047821 .2559967 .64100649 .30699159 .64100649 .33099366 .64100649 .37298585 .634964 .394989 .6007538 .37998963 .6007538 .33999635 .6007538 .33999635 .5557556 .33999635 .524765 .3639984 .5097656 .38598634 .5097656 .4019928 .5097656 .43199159 .51875308 .43199159 .5577545 .43199159 .6178589 .3880005 .6660156 .30499269 .6660156 .1769867 .6660156 .041992189 .5367584 .041992189 .31570436 .041992189 .048553468 .1579895-.022460938 .25099183-.022460938 .3619995-.022460938 .45700074 .07156372 .45700074 .2036438 .45700074 .33070375 .36799623 .4267578 .25698854 .4267578 .18899536 .4267578 .1519928 .37573243 .13198853 .327713M.25099183 .0055389406C.18798828 .0055389406 .1579895 .06556702 .1519928 .080566409 .13398743 .127594 .13398743 .2076416 .13398743 .22564698 .13398743 .30369569 .1659851 .40374757 .2559967 .40374757 .27198792 .40374757 .31799317 .40374757 .34899903 .34172059 .36698915 .30470277 .36698915 .2536621 .36698915 .20463562 .36698915 .15661621 .36698915 .10658264 .34999085 .0705719 .31999208 .010528564 .27398683 .0055389406 .25099183 .0055389406Z"/>
<path id="font_3_9" d="M.16299439 .4569702C.116989139 .486969 .11299133 .52098086 .11299133 .5379791 .11299133 .598999 .17799378 .64100649 .24899292 .64100649 .32199098 .64100649 .38598634 .58898928 .38598634 .51698306 .38598634 .45996095 .34700013 .4119568 .2869873 .37695313L.16299439 .4569702M.30899049 .36193849C.3809967 .3989563 .42999269 .45095826 .42999269 .51698306 .42999269 .6090088 .34098817 .6660156 .25 .6660156 .1499939 .6660156 .068984989 .59199526 .068984989 .49897767 .068984989 .4809723 .070999149 .43595887 .11299133 .38894654 .12399292 .37695313 .16099549 .35194398 .18598938 .33494569 .12799073 .30592347 .041992189 .24984741 .041992189 .15072632 .041992189 .04458618 .14399719-.022460938 .24899292-.022460938 .3619995-.022460938 .45700074 .06060791 .45700074 .16773987 .45700074 .20379639 .44599916 .24885559 .4079895 .2909088 .3889923 .31193543 .37298585 .3219452 .30899049 .36193849M.20899964 .3199463 .33198548 .24183655C.3600006 .2228241 .40699769 .19277954 .40699769 .13169861 .40699769 .05760193 .33198548 .0055389406 .25 .0055389406 .1639862 .0055389406 .09199524 .067611698 .09199524 .15072632 .09199524 .20880127 .12399292 .27288819 .20899964 .3199463Z"/>
<path id="font_3_4" d="M.2939911 .64004519C.2939911 .66400149 .2939911 .6660156 .2709961 .6660156 .20899964 .60227969 .12098694 .60227969 .08898926 .60227969V.57128909C.10899353 .57128909 .16799927 .57128909 .21998596 .5972748V.07902527C.21998596 .042999269 .21699524 .0309906 .1269989 .0309906H.09498596V0C.12998963 .0029907227 .21699524 .0029907227 .25698854 .0029907227 .29699708 .0029907227 .38398744 .0029907227 .4189911 0V.0309906H.3869934C.29699708 .0309906 .2939911 .041992189 .2939911 .07902527V.64004519Z"/>
</defs>
<path transform="matrix(1.00003,0,0,-1.00008,15.675026,134.78975)" d="M14.17339 0V88.7252H70.867V0H14.17339" fill="#cce3f4"/>
<path transform="matrix(1.00003,0,0,-1.00008,15.675026,134.78975)" stroke-width=".79701" stroke-linecap="butt" stroke-miterlimit="10" stroke-linejoin="miter" fill="none" stroke="#000000" d="M14.17339 0V88.7252H70.867V0H14.17339"/>
<path transform="matrix(1.00003,0,0,-1.00008,15.675026,134.78975)" d="M70.867 0V86.81209H127.56062V0H70.867" fill="#cce3f4"/>
<path transform="matrix(1.00003,0,0,-1.00008,15.675026,134.78975)" stroke-width=".79701" stroke-linecap="butt" stroke-miterlimit="10" stroke-linejoin="miter" fill="none" stroke="#000000" d="M70.867 0V86.81209H127.56062V0H70.867"/>
<path transform="matrix(1.00003,0,0,-1.00008,15.675026,134.78975)" d="M127.56062 0V33.16571H184.25424V0H127.56062" fill="#cce3f4"/>
<path transform="matrix(1.00003,0,0,-1.00008,15.675026,134.78975)" stroke-width=".79701" stroke-linecap="butt" stroke-miterlimit="10" stroke-linejoin="miter" fill="none" stroke="#000000" d="M127.56062 0V33.16571H184.25424V0H127.56062"/>
<path transform="matrix(1.00003,0,0,-1.00008,15.675026,134.78975)" d="M184.25424 0V53.00838H240.94788V0H184.25424" fill="#cce3f4"/>
<path transform="matrix(1.00003,0,0,-1.00008,15.675026,134.78975)" stroke-width=".79701" stroke-linecap="butt" stroke-miterlimit="10" stroke-linejoin="miter" fill="none" stroke="#000000" d="M184.25424 0V53.00838H240.94788V0H184.25424"/>
<path transform="matrix(1.00003,0,0,-1.00008,15.675026,134.78975)" d="M240.94788 0V31.32309H297.6415V0H184.25424" fill="#cce3f4"/>
<path transform="matrix(1.00003,0,0,-1.00008,15.675026,134.78975)" stroke-width=".79701" stroke-linecap="butt" stroke-miterlimit="10" stroke-linejoin="miter" fill="none" stroke="#000000" d="M240.94788 0V31.32309H297.6415V0H184.25424"/>
<path transform="matrix(1.00003,0,0,-1.00008,15.675026,134.78975)" stroke-width=".49814" stroke-linecap="butt" stroke-miterlimit="10" stroke-linejoin="miter" fill="none" stroke="#424242" d="M0 0H364.653"/>
<path transform="matrix(1.00003,0,0,-1.00008,380.339,134.78975)" d="M3.85551 0C2.71312 .21419 .85678 .85678-.42839 1.60646V-1.60646C.85678-.85678 2.71312-.21419 3.85551 0" fill="#424242"/>
<use data-text="z" xlink:href="#font_1_6" transform="matrix(9.962899,0,0,-9.963397,397.69255,145.83263)" fill="#424242"/>
<use data-text="(" xlink:href="#font_2_85" transform="matrix(9.962899,0,0,-9.963397,406.0818,145.83263)" fill="#424242"/>
<use data-text="k" xlink:href="#font_2_70" transform="matrix(9.962899,0,0,-9.963397,409.95735,145.83263)" fill="#424242"/>
<use data-text="m" xlink:href="#font_2_75" transform="matrix(9.962899,0,0,-9.963397,415.21778,145.83263)" fill="#424242"/>
<use data-text=")" xlink:href="#font_2_86" transform="matrix(9.962899,0,0,-9.963397,423.51686,145.83263)" fill="#424242"/>
<path transform="matrix(1.00003,0,0,-1.00008,15.675026,134.78975)" stroke-width=".49814" stroke-linecap="butt" stroke-miterlimit="10" stroke-linejoin="miter" fill="none" stroke="#424242" d="M0 0H-10.31787"/>
<path transform="matrix(-1.00003,-0,0,1.00008,5.356846,134.78975)" d="M3.85551 0C2.71312 .21419 .85678 .85678-.42839 1.60646V-1.60646C.85678-.85678 2.71312-.21419 3.85551 0" fill="#424242"/>
<path transform="matrix(1.00003,0,0,-1.00008,15.675026,134.78975)" stroke-width=".49814" stroke-linecap="butt" stroke-miterlimit="10" stroke-linejoin="miter" fill="none" stroke="#424242" d="M0 0V123.70511"/>
<path transform="matrix(0,-1.00008,-1.00003,-0,15.675026,11.074745)" d="M3.85551 0C2.71312 .21419 .85678 .85678-.42839 1.60646V-1.60646C.85678-.85678 2.71312-.21419 3.85551 0" fill="#424242"/>
<use data-text="f" xlink:href="#font_1_3" transform="matrix(9.962899,0,0,-9.963397,19.245133,10.02877)" fill="#424242"/>
<use data-text="(" xlink:href="#font_3_1" transform="matrix(9.962899,0,0,-9.963397,25.195313,10.02877)" fill="#424242"/>
<use data-text="z" xlink:href="#font_1_6" transform="matrix(9.962899,0,0,-9.963397,29.069428,10.02877)" fill="#424242"/>
<use data-text=")" xlink:href="#font_3_2" transform="matrix(9.962899,0,0,-9.963397,34.14058,10.02877)" fill="#424242"/>
<use data-text="(" xlink:href="#font_2_85" transform="matrix(9.962899,0,0,-9.963397,41.332796,10.02877)" fill="#424242"/>
<use data-text="m" xlink:href="#font_1_4" transform="matrix(9.962899,0,0,-9.963397,45.208917,10.02877)" fill="#424242"/>
<use data-text="/" xlink:href="#font_1_2" transform="matrix(9.962899,0,0,-9.963397,53.956354,10.02877)" fill="#424242"/>
<use data-text="s" xlink:href="#font_1_5" transform="matrix(9.962899,0,0,-9.963397,58.937784,10.02877)" fill="#424242"/>
<use data-text="2" xlink:href="#font_4_1" transform="matrix(6.9740097,0,0,-6.974358,63.607477,6.4134829)" fill="#424242"/>
<use data-text=")" xlink:href="#font_2_86" transform="matrix(9.962899,0,0,-9.963397,68.0776,10.02877)" fill="#424242"/>
<path transform="matrix(1.00003,0,0,-1.00008,15.675026,134.78975)" stroke-width=".49814" stroke-linecap="butt" stroke-miterlimit="10" stroke-linejoin="miter" fill="none" stroke="#424242" d="M0 0V-10.31787"/>
<path transform="matrix(0,1.00008,1.00003,0,15.675026,145.10845)" d="M3.85551 0C2.71312 .21419 .85678 .85678-.42839 1.60646V-1.60646C.85678-.85678 2.71312-.21419 3.85551 0" fill="#424242"/>
<path transform="matrix(1.00003,0,0,-1.00008,15.675026,134.78975)" d="M73.85583 88.7252C73.85583 90.3759 72.51772 91.71404 70.867 91.71404 69.21631 91.71404 67.87817 90.3759 67.87817 88.7252 67.87817 87.0745 69.21631 85.73637 70.867 85.73637 72.51772 85.73637 73.85583 87.0745 73.85583 88.7252ZM70.867 88.7252" fill="#0074c8"/>
<path transform="matrix(1.00003,0,0,-1.00008,15.675026,134.78975)" d="M130.54946 86.81209C130.54946 88.4628 129.21134 89.80092 127.56062 89.80092 125.90993 89.80092 124.5718 88.4628 124.5718 86.81209 124.5718 85.16138 125.90993 83.82326 127.56062 83.82326 129.21134 83.82326 130.54946 85.16138 130.54946 86.81209ZM127.56062 86.81209" fill="#0074c8"/>
<path transform="matrix(1.00003,0,0,-1.00008,15.675026,134.78975)" d="M187.24308 33.16571C187.24308 34.81642 185.90496 36.15454 184.25424 36.15454 182.60355 36.15454 181.26541 34.81642 181.26541 33.16571 181.26541 31.515 182.60355 30.17688 184.25424 30.17688 185.90496 30.17688 187.24308 31.515 187.24308 33.16571ZM184.25424 33.16571" fill="#0074c8"/>
<path transform="matrix(1.00003,0,0,-1.00008,15.675026,134.78975)" d="M243.9367 53.00838C243.9367 54.65909 242.59857 55.99721 240.94788 55.99721 239.29717 55.99721 237.95905 54.65909 237.95905 53.00838 237.95905 51.35767 239.29717 50.01955 240.94788 50.01955 242.59857 50.01955 243.9367 51.35767 243.9367 53.00838ZM240.94788 53.00838" fill="#0074c8"/>
<path transform="matrix(1.00003,0,0,-1.00008,15.675026,134.78975)" d="M300.63035 31.32309C300.63035 32.9738 299.29219 34.31192 297.6415 34.31192 295.99079 34.31192 294.65266 32.9738 294.65266 31.32309 294.65266 29.67238 295.99079 28.33426 297.6415 28.33426 299.29219 28.33426 300.63035 29.67238 300.63035 31.32309ZM297.6415 31.32309" fill="#0074c8"/>
<path transform="matrix(1.00003,0,0,-1.00008,15.675026,134.78975)" d="M17.16222 0C17.16222 1.6507 15.8241 2.98883 14.17339 2.98883 12.52269 2.98883 11.18456 1.6507 11.18456 0 11.18456-1.6507 12.52269-2.98883 14.17339-2.98883 15.8241-2.98883 17.16222-1.6507 17.16222 0ZM14.17339 0" fill="#0074c8"/>
<path transform="matrix(1.00003,0,0,-1.00008,15.675026,134.78975)" d="M357.32395 0C357.32395 1.6507 355.9858 2.98883 354.3351 2.98883 352.6844 2.98883 351.34629 1.6507 351.34629 0 351.34629-1.6507 352.6844-2.98883 354.3351-2.98883 355.9858-2.98883 357.32395-1.6507 357.32395 0ZM354.3351 0" fill="#0074c8"/>
<path transform="matrix(1.00003,0,0,-1.00008,15.675026,134.78975)" stroke-width=".79701" stroke-linecap="butt" stroke-miterlimit="10" stroke-linejoin="miter" fill="none" stroke="#0074c8" d="M14.17339 0 70.867 88.7252 127.56062 86.81209 184.25424 33.16571 240.94788 53.00838 297.6415 31.32309 354.3351 0"/>
<use data-text="f" xlink:href="#font_1_3" transform="matrix(9.962899,0,0,-9.963397,162.20142,43.532449)" fill="#0074c8"/>
<use data-text="(" xlink:href="#font_3_1" transform="matrix(9.962899,0,0,-9.963397,168.15161,43.532449)" fill="#0074c8"/>
<use data-text="z" xlink:href="#font_1_6" transform="matrix(9.962899,0,0,-9.963397,172.02573,43.532449)" fill="#0074c8"/>
<use data-text=")" xlink:href="#font_3_2" transform="matrix(9.962899,0,0,-9.963397,177.09687,43.532449)" fill="#0074c8"/>
<path transform="matrix(1.00003,0,0,-1.00008,15.675026,134.78975)" stroke-width=".79701" stroke-linecap="butt" stroke-miterlimit="10" stroke-linejoin="miter" fill="none" stroke="#000000" d="M14.17339 2.98883V-2.98883"/>
<use data-text="0" xlink:href="#font_3_3" transform="matrix(9.962899,0,0,-9.963397,23.483262,147.9188)"/>
<use data-text="." xlink:href="#font_1_1" transform="matrix(9.962899,0,0,-9.963397,28.464417,147.9188)"/>
<use data-text="5" xlink:href="#font_3_7" transform="matrix(9.962899,0,0,-9.963397,31.231499,147.9188)"/>
<path transform="matrix(1.00003,0,0,-1.00008,15.675026,134.78975)" stroke-width=".79701" stroke-linecap="butt" stroke-miterlimit="10" stroke-linejoin="miter" fill="none" stroke="#000000" d="M70.867 2.98883V-2.98883"/>
<use data-text="2" xlink:href="#font_3_5" transform="matrix(9.962899,0,0,-9.963397,80.17896,147.9188)"/>
<use data-text="." xlink:href="#font_1_1" transform="matrix(9.962899,0,0,-9.963397,85.16012,147.9188)"/>
<use data-text="5" xlink:href="#font_3_7" transform="matrix(9.962899,0,0,-9.963397,87.9272,147.9188)"/>
<path transform="matrix(1.00003,0,0,-1.00008,15.675026,134.78975)" stroke-width=".79701" stroke-linecap="butt" stroke-miterlimit="10" stroke-linejoin="miter" fill="none" stroke="#000000" d="M127.56062 2.98883V-2.98883"/>
<use data-text="4" xlink:href="#font_3_6" transform="matrix(9.962899,0,0,-9.963397,136.87467,147.9188)"/>
<use data-text="." xlink:href="#font_1_1" transform="matrix(9.962899,0,0,-9.963397,141.85582,147.9188)"/>
<use data-text="5" xlink:href="#font_3_7" transform="matrix(9.962899,0,0,-9.963397,144.6229,147.9188)"/>
<path transform="matrix(1.00003,0,0,-1.00008,15.675026,134.78975)" stroke-width=".79701" stroke-linecap="butt" stroke-miterlimit="10" stroke-linejoin="miter" fill="none" stroke="#000000" d="M184.25424 2.98883V-2.98883"/>
<use data-text="6" xlink:href="#font_3_8" transform="matrix(9.962899,0,0,-9.963397,193.56937,147.9188)"/>
<use data-text="." xlink:href="#font_1_1" transform="matrix(9.962899,0,0,-9.963397,198.55054,147.9188)"/>
<use data-text="5" xlink:href="#font_3_7" transform="matrix(9.962899,0,0,-9.963397,201.31761,147.9188)"/>
<path transform="matrix(1.00003,0,0,-1.00008,15.675026,134.78975)" stroke-width=".79701" stroke-linecap="butt" stroke-miterlimit="10" stroke-linejoin="miter" fill="none" stroke="#000000" d="M240.94788 2.98883V-2.98883"/>
<use data-text="8" xlink:href="#font_3_9" transform="matrix(9.962899,0,0,-9.963397,250.26508,147.9188)"/>
<use data-text="." xlink:href="#font_1_1" transform="matrix(9.962899,0,0,-9.963397,255.24622,147.9188)"/>
<use data-text="5" xlink:href="#font_3_7" transform="matrix(9.962899,0,0,-9.963397,258.0133,147.9188)"/>
<path transform="matrix(1.00003,0,0,-1.00008,15.675026,134.78975)" stroke-width=".79701" stroke-linecap="butt" stroke-miterlimit="10" stroke-linejoin="miter" fill="none" stroke="#000000" d="M297.6415 2.98883V-2.98883"/>
<use data-text="1" xlink:href="#font_3_4" transform="matrix(9.962899,0,0,-9.963397,304.4697,147.9188)"/>
<use data-text="0" xlink:href="#font_3_3" transform="matrix(9.962899,0,0,-9.963397,309.45118,147.9188)"/>
<use data-text="." xlink:href="#font_1_1" transform="matrix(9.962899,0,0,-9.963397,314.432,147.9188)"/>
<use data-text="5" xlink:href="#font_3_7" transform="matrix(9.962899,0,0,-9.963397,317.20008,147.9188)"/>
<path transform="matrix(1.00003,0,0,-1.00008,15.675026,134.78975)" stroke-width=".79701" stroke-linecap="butt" stroke-miterlimit="10" stroke-linejoin="miter" fill="none" stroke="#000000" d="M354.3351 2.98883V-2.98883"/>
<use data-text="1" xlink:href="#font_3_4" transform="matrix(9.962899,0,0,-9.963397,361.1644,147.9188)"/>
<use data-text="2" xlink:href="#font_3_5" transform="matrix(9.962899,0,0,-9.963397,366.14585,147.9188)"/>
<use data-text="." xlink:href="#font_1_1" transform="matrix(9.962899,0,0,-9.963397,371.1267,147.9188)"/>
<use data-text="5" xlink:href="#font_3_7" transform="matrix(9.962899,0,0,-9.963397,373.89479,147.9188)"/>
<path transform="matrix(1.00003,0,0,-1.00008,15.675026,134.78975)" stroke-width=".79701" stroke-linecap="butt" stroke-miterlimit="10" stroke-linejoin="miter" fill="none" stroke="#000000" d="M-1.99255 28.3468H1.99255"/>
<use data-text="0" xlink:href="#font_3_3" transform="matrix(9.962899,0,0,-9.963397,1.2175903,109.65074)"/>
<use data-text="." xlink:href="#font_1_1" transform="matrix(9.962899,0,0,-9.963397,6.1987459,109.65074)"/>
<use data-text="2" xlink:href="#font_3_5" transform="matrix(9.962899,0,0,-9.963397,8.965828,109.65074)"/>
<path transform="matrix(1.00003,0,0,-1.00008,15.675026,134.78975)" stroke-width=".79701" stroke-linecap="butt" stroke-miterlimit="10" stroke-linejoin="miter" fill="none" stroke="#000000" d="M-1.99255 56.69362H1.99255"/>
<use data-text="0" xlink:href="#font_3_3" transform="matrix(9.962899,0,0,-9.963397,1.2175903,81.302478)"/>
<use data-text="." xlink:href="#font_1_1" transform="matrix(9.962899,0,0,-9.963397,6.1987459,81.302478)"/>
<use data-text="4" xlink:href="#font_3_6" transform="matrix(9.962899,0,0,-9.963397,8.965828,81.302478)"/>
<path transform="matrix(1.00003,0,0,-1.00008,15.675026,134.78975)" stroke-width=".79701" stroke-linecap="butt" stroke-miterlimit="10" stroke-linejoin="miter" fill="none" stroke="#000000" d="M-1.99255 85.04042H1.99255"/>
<use data-text="0" xlink:href="#font_3_3" transform="matrix(9.962899,0,0,-9.963397,1.2175903,52.9532)"/>
<use data-text="." xlink:href="#font_1_1" transform="matrix(9.962899,0,0,-9.963397,6.1987459,52.9532)"/>
<use data-text="6" xlink:href="#font_3_8" transform="matrix(9.962899,0,0,-9.963397,8.965828,52.9532)"/>
<path transform="matrix(1.00003,0,0,-1.00008,15.675026,134.78975)" stroke-width=".79701" stroke-linecap="butt" stroke-miterlimit="10" stroke-linejoin="miter" fill="none" stroke="#000000" d="M-1.99255 113.38724H1.99255"/>
<use data-text="0" xlink:href="#font_3_3" transform="matrix(9.962899,0,0,-9.963397,1.2175903,24.603936)"/>
<use data-text="." xlink:href="#font_1_1" transform="matrix(9.962899,0,0,-9.963397,6.1987459,24.603936)"/>
<use data-text="8" xlink:href="#font_3_9" transform="matrix(9.962899,0,0,-9.963397,8.965828,24.603936)"/>
</svg>
