<svg xmlns="http://www.w3.org/2000/svg" xmlns:xlink="http://www.w3.org/1999/xlink" version="1.1" width="201pt" height="182pt" viewBox="0 0 201 182">
<defs>
<path id="font_1_2" d="M.33399964 .30233766C.33999635 .32835389 .36299134 .42037965 .43299867 .42037965 .43798829 .42037965 .46199037 .42037965 .48298646 .40734864 .45498658 .402359 .43499757 .37734986 .43499757 .35334779 .43499757 .33735658 .44599916 .31835938 .47299195 .31835938 .49499513 .31835938 .5269928 .3363495 .5269928 .37635804 .5269928 .42837525 .46798707 .4423828 .43399049 .4423828 .37599183 .4423828 .34098817 .38935853 .32899476 .36634828 .3039856 .43237306 .25 .4423828 .22099304 .4423828 .116989139 .4423828 .05999756 .3133545 .05999756 .28834535 .05999756 .27833558 .069992069 .27833558 .07199097 .27833558 .07998657 .27833558 .08299255 .28033448 .084991458 .28933717 .11898804 .39535523 .18499756 .42037965 .21899414 .42037965 .23799134 .42037965 .272995 .4113617 .272995 .35334779 .272995 .32235719 .2559967 .25532533 .21899414 .11528015 .20298767 .053268434 .16799927 .011245728 .12399292 .011245728 .117996219 .011245728 .09498596 .011245728 .07398987 .024276734 .09899902 .029266358 .12098694 .05027771 .12098694 .07827759 .12098694 .105270389 .09899902 .11328125 .083999637 .11328125 .053985597 .11328125 .0289917 .08728027 .0289917 .055267335 .0289917 .009246826 .07899475-.0107421879 .12298584-.0107421879 .18899536-.0107421879 .22499085 .059280397 .22799683 .0652771 .23999024 .028274537 .27598573-.0107421879 .33599855-.0107421879 .43899537-.0107421879 .49598695 .118270877 .49598695 .14328003 .49598695 .1532898 .4869995 .1532898 .48399354 .1532898 .47499085 .1532898 .47299195 .14929199 .47099305 .14228821 .43798829 .03527832 .36999513 .011245728 .33799745 .011245728 .29899598 .011245728 .2829895 .043273927 .2829895 .07727051 .2829895 .09927368 .2889862 .121276859 .2999878 .16529846L.33399964 .30233766Z"/>
<path id="font_2_70" d="M.5109863 0V.0309906C.47399903 .0309906 .45199586 .0309906 .4139862 .0839386L.2869873 .26278688C.28599549 .26478578 .2809906 .2707672 .2809906 .2737732 .2809906 .277771 .35198976 .33770753 .3619995 .34570313 .4249878 .39666749 .46699525 .39865113 .48799134 .3996582V.43066407C.45899964 .42765809 .44599916 .42765809 .41799928 .42765809 .38198854 .42765809 .31999208 .42965699 .30599977 .43066407V.3996582C.32499696 .39865113 .33499146 .3876648 .33499146 .37467958 .33499146 .3547058 .32099916 .3427124 .31298829 .33570863L.17199707 .21382141V.69433596L.027999878 .6826172V.6516113C.09799194 .6516113 .10598755 .64460757 .10598755 .5956421V.07595825C.10598755 .0309906 .09498596 .0309906 .027999878 .0309906V0L.13699341 .0029907227 .24699402 0V.0309906C.17999268 .0309906 .16899109 .0309906 .16899109 .07595825V.17889405L.23298645 .23387146C.30999757 .12792969 .35198976 .07196045 .35198976 .053985597 .35198976 .034988405 .33499146 .0309906 .31599427 .0309906V0L.42399598 .0029907227C.45298768 .0029907227 .48199464 .0019989014 .5109863 0Z"/>
<path id="font_2_75" d="M.8129883 0V.0309906C.7609863 .0309906 .73599246 .0309906 .7350006 .061019899V.25221253C.7350006 .3383026 .7350006 .36932374 .70399478 .405365 .6899872 .42237855 .6569977 .4423828 .598999 .4423828 .5149994 .4423828 .47099305 .38233949 .45399476 .34429933 .43998719 .43138124 .3659973 .4423828 .32099916 .4423828 .24798584 .4423828 .20098877 .39935304 .17298889 .33729554V.4423828L.03199768 .43066407V.3996582C.101989749 .3996582 .10998535 .39266969 .10998535 .34370423V.07595825C.10998535 .0309906 .09899902 .0309906 .03199768 .0309906V0L.14498902 .0029907227 .25698854 0V.0309906C.18998719 .0309906 .1789856 .0309906 .1789856 .07595825V.25978089C.1789856 .36431886 .25 .42037965 .31399537 .42037965 .3769989 .42037965 .3880005 .36631776 .3880005 .30926515V.076034549C.3880005 .0309906 .3769989 .0309906 .30999757 .0309906V0L.4229889 .0029907227 .5349884 0V.0309906C.46798707 .0309906 .45700074 .0309906 .45700074 .076034549V.2602234C.45700074 .36431886 .5279999 .42037965 .59199526 .42037965 .6549988 .42037965 .66600039 .36631776 .66600039 .30926515V.076034549C.66600039 .0309906 .6549988 .0309906 .58799746 .0309906V0L.70098879 .0029907227 .8129883 0Z"/>
<path id="font_1_3" d="M.48599244 .38136292C.48999024 .39537049 .48999024 .39736939 .48999024 .40437318 .48999024 .42237855 .47599793 .43138124 .46099855 .43138124 .45098878 .43138124 .43499757 .42536927 .42599488 .41036988 .42399598 .405365 .41600038 .37435914 .4119873 .35635377 .40499879 .33035279 .397995 .30334474 .3919983 .27633668L.34700013 .09628296C.34298707 .08126831 .2999878 .011245728 .23399353 .011245728 .18299866 .011245728 .17199707 .055267335 .17199707 .0922699 .17199707 .1382904 .18899536 .20030213 .22299195 .28833009 .23899842 .3293457 .24299622 .3403473 .24299622 .36035157 .24299622 .405365 .21099854 .4423828 .16099549 .4423828 .06599426 .4423828 .0289917 .29733277 .0289917 .28833009 .0289917 .27833558 .038986207 .27833558 .040985109 .27833558 .050994874 .27833558 .051986696 .28033448 .056991579 .29634095 .083999637 .3903656 .12399292 .42037965 .1579895 .42037965 .1659851 .42037965 .18299866 .42037965 .18299866 .3883667 .18299866 .36335755 .17298889 .3373413 .1659851 .31834413 .12599182 .21231079 .10798645 .1552887 .10798645 .10827637 .10798645 .019256592 .17098999-.0107421879 .22999573-.0107421879 .2689972-.0107421879 .30299378 .0062561037 .33099366 .03425598 .31799317-.017745972 .30599977-.06674194 .2659912-.11973572 .23999024-.15385437 .20199585-.18309021 .1559906-.18309021 .14199829-.18309021 .09700012-.18005371 .07998657-.14074707 .09599304-.14074707 .10899353-.14074707 .12298584-.1287384 .1329956-.11973572 .14299011-.10673523 .14299011-.08773804 .14299011-.056747438 .115997318-.052734376 .10598755-.052734376 .08299255-.052734376 .049987794-.068740848 .049987794-.11773682 .049987794-.16796875 .09399414-.20507813 .1559906-.20507813 .25898744-.20507813 .3619995-.11373901 .3899994-.00074768069L.48599244 .38136292Z"/>
<path id="font_2_74" d="M.8789978 0V.0309906H.8549957C.7779999 .0309906 .776001 .041992189 .776001 .07795715V.6046295C.776001 .64060977 .7779999 .6516113 .8549957 .6516113H.8789978V.6826172H.70999148C.6839905 .6826172 .6839905 .6816101 .6769867 .66360476L.45799256 .10095215 .24099732 .660614C.23199463 .6826172 .22898865 .6826172 .20599365 .6826172H.036987306V.6516113H.06098938C.13798523 .6516113 .13999939 .64060977 .13999939 .6046295V.10494995C.13999939 .07795715 .13999939 .0309906 .036987306 .0309906V0L.1539917 .0029907227 .2709961 0V.0309906C.16799927 .0309906 .16799927 .07795715 .16799927 .10494995V.6436157H.16899109L.4099884 .021987915C.4149933 .008987427 .41999818 0 .42999269 0 .44099427 0 .44400025 .0079956059 .44799806 .018997193L.69400027 .6516113H.69499209V.07795715C.69499209 .041992189 .69299319 .0309906 .6159973 .0309906H.59199526V0C.6289978 .0029907227 .69699099 .0029907227 .73599246 .0029907227 .7749939 .0029907227 .84199526 .0029907227 .8789978 0Z"/>
<path id="font_2_66" d="M.24699402 0V.0309906C.18099976 .0309906 .1769867 .035995485 .1769867 .075042728V.4423828L.036987306 .43066407V.3996582C.101989749 .3996582 .11099243 .3936615 .11099243 .3447113V.07595825C.11099243 .0309906 .099990848 .0309906 .032989503 .0309906V0L.14299011 .0029907227C.17799378 .0029907227 .21299744 .0009918213 .24699402 0M.19198609 .603775C.19198609 .6307678 .16899109 .6567688 .13899231 .6567688 .10499573 .6567688 .084991458 .6287689 .084991458 .603775 .084991458 .57676699 .10798645 .55078127 .13798523 .55078127 .17199707 .55078127 .19198609 .5787811 .19198609 .603775Z"/>
<path id="font_2_47" d="M.5269928 0V.0309906C.45700074 .0309906 .44898988 .038009645 .44898988 .0871582V.69433596L.30499269 .6826172V.6516113C.375 .6516113 .3829956 .64463809 .3829956 .59580996V.38035584C.35398866 .41636659 .31098939 .4423828 .25698854 .4423828 .13899231 .4423828 .033996583 .3443451 .033996583 .21531677 .033996583 .088272098 .13198853-.0107421879 .24598694-.0107421879 .30999757-.0107421879 .35499574 .023254395 .37998963 .055267335V-.0107421879L.5269928 0M.37998963 .117996219C.37998963 .099990848 .37998963 .09799194 .36898805 .08099365 .33898927 .033218385 .2939911 .011245728 .25099183 .011245728 .20599365 .011245728 .16999817 .037216188 .1459961 .075164798 .11999512 .1161499 .116989139 .17320252 .116989139 .21421814 .116989139 .25125123 .11898804 .31129457 .147995 .35632325 .16899109 .38734437 .20698548 .42037965 .26098634 .42037965 .29599 .42037965 .33799745 .405365 .36898805 .3603363 .37998963 .34332276 .37998963 .34132386 .37998963 .32330323V.117996219Z"/>
<path id="font_2_72" d="M.25498963 0V.0309906C.18798828 .0309906 .1769867 .0309906 .1769867 .07601929V.69433596L.032989503 .6826172V.6516113C.102996829 .6516113 .11099243 .64460757 .11099243 .5956421V.07595825C.11099243 .0309906 .099990848 .0309906 .032989503 .0309906V0L.14399719 .0029907227 .25498963 0Z"/>
<path id="font_2_50" d="M.4149933 .11933899C.4149933 .12934876 .40699769 .13134766 .4019928 .13134766 .3929901 .13134766 .3909912 .12535095 .3889923 .11734009 .35398866 .014251709 .2639923 .014251709 .2539978 .014251709 .20399475 .014251709 .1639862 .044281007 .14099121 .08131409 .11099243 .12934876 .11099243 .19540406 .11099243 .23144531H.3899994C.4119873 .23144531 .4149933 .23144531 .4149933 .2524414 .4149933 .35131837 .36099244 .4482422 .23599243 .4482422 .11999512 .4482422 .027999878 .34532167 .027999878 .22042847 .027999878 .08631897 .1329956-.0107421879 .24798584-.0107421879 .36999513-.0107421879 .4149933 .10032654 .4149933 .11933899M.34899903 .2524414H.11199951C.117996219 .40126039 .20199585 .426239 .23599243 .426239 .33898927 .426239 .34899903 .2913971 .34899903 .2524414Z"/>
<path id="font_2_105" d="M.33198548 .12385559V.18066406H.30699159V.12585449C.30699159 .052108766 .2769928 .014251709 .23999024 .014251709 .17298889 .014251709 .17298889 .10491943 .17298889 .12187195V.3996582H.31599427V.43066407H.17298889V.6142578H.147995C.14698792 .5324249 .116989139 .42565919 .018997193 .42166139V.3996582H.10398865V.12408447C.10398865 .0012512207 .19699097-.0107421879 .23298645-.0107421879 .3039856-.0107421879 .33198548 .060180665 .33198548 .12408447V.12385559Z"/>
<path id="font_2_81" d="M.47099305 .21424866C.47099305 .34223939 .37098695 .4482422 .25 .4482422 .125 .4482422 .027999878 .3392334 .027999878 .21424866 .027999878 .085250858 .13198853-.0107421879 .24899292-.0107421879 .36999513-.0107421879 .47099305 .087249759 .47099305 .21424866M.3880005 .22224427C.3880005 .18624878 .3880005 .13224793 .3659973 .08824158 .34399415 .04324341 .2999878 .014251709 .25 .014251709 .20698548 .014251709 .16299439 .035247804 .13598633 .08125305 .11099243 .12524414 .11099243 .18624878 .11099243 .22224427 .11099243 .26124574 .11099243 .31523133 .1349945 .35923768 .1619873 .40522767 .20899964 .426239 .24899292 .426239 .29299928 .426239 .33599855 .40423585 .3619995 .36123658 .3880005 .3182373 .3880005 .26023866 .3880005 .22224427Z"/>
<path id="font_2_114" d="M.7029877 .3996582V.43066407C.68099978 .4286499 .6519928 .42765809 .6299896 .42765809L.5369873 .43066407V.3996582C.57299807 .39866639 .59498599 .38075257 .59498599 .35176087 .59498599 .34576417 .59498599 .34376527 .58999636 .33078004L.49899293 .07513428 .3999939 .35375978C.3959961 .36575318 .394989 .36775209 .394989 .37275697 .394989 .3996582 .43399049 .3996582 .45399476 .3996582V.43066407L.34999085 .42765809C.31999208 .42765809 .29100038 .4286499 .26098634 .43066407V.3996582C.2979889 .3996582 .31399537 .39767457 .32398988 .38476563 .32899476 .37875367 .33999635 .34877015 .34700013 .3297882L.26098634 .08811951 .1659851 .3547516C.16099549 .36676026 .16099549 .36875917 .16099549 .37275697 .16099549 .3996582 .19999695 .3996582 .21998596 .3996582V.43066407L.11099243 .42765809 .017990113 .43066407V.3996582C.067993167 .3996582 .07998657 .39668275 .09199524 .36476136L.21798706 .01121521C.22299195-.0027618409 .22599793-.0107421879 .23899842-.0107421879 .2519989-.0107421879 .2539978-.004760742 .25898744 .009216309L.3600006 .2918396 .46199037 .008224487C.46598817-.0027618409 .46899415-.0107421879 .48199464-.0107421879 .49499513-.0107421879 .49798585-.0017547608 .5019989 .008224487L.61898806 .3357849C.6369934 .38575746 .66799929 .39866639 .7029877 .3996582Z"/>
<path id="font_2_77" d="M.5349884 0V.0309906C.48298646 .0309906 .45799256 .0309906 .45700074 .061019899V.25221253C.45700074 .3383026 .45700074 .36932374 .42599488 .405365 .4119873 .42237855 .3789978 .4423828 .32099916 .4423828 .24798584 .4423828 .20098877 .39935304 .17298889 .33729554V.4423828L.03199768 .43066407V.3996582C.101989749 .3996582 .10998535 .39266969 .10998535 .34370423V.07595825C.10998535 .0309906 .09899902 .0309906 .03199768 .0309906V0L.14498902 .0029907227 .25698854 0V.0309906C.18998719 .0309906 .1789856 .0309906 .1789856 .07595825V.25978089C.1789856 .36431886 .25 .42037965 .31399537 .42037965 .3769989 .42037965 .3880005 .36631776 .3880005 .30926515V.076034549C.3880005 .0309906 .3769989 .0309906 .30999757 .0309906V0L.4229889 .0029907227 .5349884 0Z"/>
<path id="font_3_3" d="M.1269989 .07699585 .23298645 .18003845C.3889923 .31811524 .44898988 .3721466 .44898988 .47216798 .44898988 .5860901 .35899354 .6660156 .23699951 .6660156 .12399292 .6660156 .049987794 .57411196 .049987794 .48516847 .049987794 .4291687 .099990848 .4291687 .102996829 .4291687 .11999512 .4291687 .15499878 .44117738 .15499878 .48217774 .15499878 .5081787 .13699341 .5341797 .101989749 .5341797 .09399414 .5341797 .09199524 .5341797 .08898926 .5331726 .11199951 .59806826 .1659851 .63500979 .22399903 .63500979 .31498719 .63500979 .35798646 .5541382 .35798646 .47216798 .35798646 .39215089 .30799867 .31311036 .25299073 .25108338L.06098938 .036987306C.049987794 .025985718 .049987794 .023986817 .049987794 0H.42099L.44898988 .17404175H.42399598C.4189911 .14402771 .4119873 .1000061 .4019928 .084991458 .394989 .07699585 .32899476 .07699585 .30699159 .07699585H.1269989Z"/>
<path id="font_3_1" d="M.45999146 .31976319C.45999146 .39982606 .45498658 .47988893 .41999818 .5539398 .37399293 .65000918 .2919922 .6660156 .25 .6660156 .18998719 .6660156 .116989139 .64001467 .07598877 .54693606 .04399109 .47789 .038986207 .39982606 .038986207 .31976319 .038986207 .24472046 .042999269 .15464783 .083999637 .07859802 .1269989-.0024719239 .19999695-.022460938 .24899292-.022460938 .30299378-.022460938 .3789978-.0014648438 .4229889 .09359741 .45498658 .16265869 .45999146 .2407074 .45999146 .31976319M.24899292-.00047302247C.20999146-.00047302247 .15098572 .024551392 .1329956 .12062073 .12199402 .18066406 .12199402 .2727356 .12199402 .3317871 .12199402 .39582826 .12199402 .46188355 .12998963 .5159149 .14898682 .63500979 .22399903 .64401248 .24899292 .64401248 .28199769 .64401248 .34799195 .6259918 .36698915 .52693179 .3769989 .47088624 .3769989 .39482118 .3769989 .3317871 .3769989 .25672914 .3769989 .18867493 .3659973 .12461853 .35099793 .029556275 .2939911-.00047302247 .24899292-.00047302247Z"/>
<path id="font_3_2" d="M.2939911 .64004519C.2939911 .66400149 .2939911 .6660156 .2709961 .6660156 .20899964 .60227969 .12098694 .60227969 .08898926 .60227969V.57128909C.10899353 .57128909 .16799927 .57128909 .21998596 .5972748V.07902527C.21998596 .042999269 .21699524 .0309906 .1269989 .0309906H.09498596V0C.12998963 .0029907227 .21699524 .0029907227 .25698854 .0029907227 .29699708 .0029907227 .38398744 .0029907227 .4189911 0V.0309906H.3869934C.29699708 .0309906 .2939911 .041992189 .2939911 .07902527V.64004519Z"/>
<path id="font_3_5" d="M.2939911 .16503906V.07800293C.2939911 .041992189 .2919922 .0309906 .21798706 .0309906H.19699097V0C.23799134 .0029907227 .2899933 .0029907227 .33198548 .0029907227 .37399293 .0029907227 .4269867 .0029907227 .46798707 0V.0309906H.44699098C.37298585 .0309906 .37098695 .041992189 .37098695 .07800293V.16503906H.47099305V.19602967H.37098695V.65075686C.37098695 .67074587 .37098695 .6767578 .35499574 .6767578 .34599305 .6767578 .34298707 .6767578 .33499146 .66474917L.027999878 .19602967V.16503906H.2939911M.2999878 .19602967H.055999757L.2999878 .5688019V.19602967Z"/>
<path id="font_1_1" d="M.1789856 .114868167C.13899231 .047973634 .099990848 .033981325 .055999757 .0309906 .04399109 .02999878 .034988405 .02999878 .034988405 .010986328 .034988405 .004989624 .039993287 0 .04798889 0 .07499695 0 .10598755 .0029907227 .13398743 .0029907227 .16699219 .0029907227 .20199585 0 .23399353 0 .23999024 0 .25299073 0 .25299073 .018997193 .25299073 .02999878 .24398804 .0309906 .23699951 .0309906 .21398926 .032989503 .18998719 .04096985 .18998719 .06593323 .18998719 .077926639 .19599915 .088897708 .20399475 .102890018L.27999879 .23068238H.5309906C.5329895 .2097168 .5469971 .07392883 .5469971 .063949588 .5469971 .033981325 .49499513 .0309906 .47499085 .0309906 .46099855 .0309906 .45098878 .0309906 .45098878 .010986328 .45098878 0 .46299745 0 .46499635 0 .5059967 0 .548996 .0029907227 .58999636 .0029907227 .61499026 .0029907227 .6779938 0 .7029877 0 .70899966 0 .72099307 0 .72099307 .019989014 .72099307 .0309906 .71099856 .0309906 .69799807 .0309906 .6359863 .0309906 .6359863 .037979127 .6329956 .06694031L.57199099 .691803C.56999209 .71180728 .56999209 .7158203 .5529938 .7158203 .5369873 .7158203 .5329895 .7088165 .5269928 .69880679L.1789856 .114868167M.29899598 .26168824 .49598695 .5917816 .5279999 .26168824H.29899598Z"/>
<path id="font_3_4" d="M.2899933 .35191346C.37199403 .37893678 .42999269 .4490509 .42999269 .52809146 .42999269 .6100464 .34199525 .6660156 .24598694 .6660156 .14498902 .6660156 .068984989 .60606387 .068984989 .53009036 .068984989 .49710084 .09098816 .47808839 .11999512 .47808839 .15098572 .47808839 .17098999 .50009158 .17098999 .5290985 .17098999 .57910159 .12399292 .57910159 .10899353 .57910159 .13999939 .62802127 .20599365 .64100649 .24198914 .64100649 .2829895 .64100649 .33799745 .6190338 .33799745 .5290985 .33799745 .51708987 .33599855 .45906068 .30999757 .4149933 .27999879 .36691285 .24598694 .36390687 .22099304 .36291505 .21299744 .36190797 .18899536 .35990907 .18199158 .35990907 .17399597 .35890199 .16699219 .35791017 .16699219 .3479004 .16699219 .33691407 .17399597 .33691407 .19099427 .33691407H.23498535C.31698609 .33691407 .35398866 .2686615 .35398866 .17037964 .35398866 .034469606 .2849884 .0055389406 .24099732 .0055389406 .19799805 .0055389406 .12298584 .022491456 .08799744 .08137512 .12298584 .07637024 .1539917 .09837341 .1539917 .1363678 .1539917 .17237854 .1269989 .19238281 .09799194 .19238281 .07398987 .19238281 .041992189 .17837525 .041992189 .1343689 .041992189 .043441774 .1349945-.022460938 .24398804-.022460938 .3659973-.022460938 .45700074 .06838989 .45700074 .17037964 .45700074 .252594 .3939972 .33088685 .2899933 .35191346Z"/>
<path id="font_3_6" d="M.44898988 .20022583C.44898988 .3193512 .36698915 .41944886 .25898744 .41944886 .21099854 .41944886 .16799927 .40345765 .13198853 .36842347V.5637665C.1519928 .5577698 .18499756 .55078127 .21699524 .55078127 .33999635 .55078127 .4099884 .6417694 .4099884 .6547699 .4099884 .6607666 .40699769 .6657715 .3999939 .6657715 .39898683 .6657715 .39698792 .6657715 .3919983 .66278079 .37199403 .6537781 .32299806 .6337738 .2559967 .6337738 .21598816 .6337738 .16999817 .6407776 .12298584 .6617737 .114990238 .66477969 .11299133 .66477969 .11099243 .66477969 .100997928 .66477969 .100997928 .6567688 .100997928 .6407776V.34439088C.100997928 .32637025 .100997928 .31835938 .114990238 .31835938 .12199402 .31835938 .12399292 .32136537 .12799073 .32736207 .13899231 .3433838 .17599488 .39746095 .25698854 .39746095 .30899049 .39746095 .33399964 .35139466 .34199525 .33337403 .35798646 .29632569 .3600006 .25727845 .3600006 .20722962 .3600006 .17222595 .3600006 .11222839 .33599855 .07035828 .31199647 .031463624 .2749939 .0055389406 .22898865 .0055389406 .1559906 .0055389406 .09899902 .058380128 .08198547 .11723328 .084991458 .1162262 .08799744 .115234378 .09899902 .115234378 .13198853 .115234378 .14898682 .14022827 .14898682 .16423035 .14898682 .18823242 .13198853 .21322632 .09899902 .21322632 .084991458 .21322632 .049987794 .20622254 .049987794 .16023255 .049987794 .07434082 .11898804-.022460938 .23098755-.022460938 .34700013-.022460938 .44898988 .073349 .44898988 .20022583Z"/>
<path id="font_3_7" d="M.13198853 .327713V.35173036C.13198853 .6047821 .2559967 .64100649 .30699159 .64100649 .33099366 .64100649 .37298585 .634964 .394989 .6007538 .37998963 .6007538 .33999635 .6007538 .33999635 .5557556 .33999635 .524765 .3639984 .5097656 .38598634 .5097656 .4019928 .5097656 .43199159 .51875308 .43199159 .5577545 .43199159 .6178589 .3880005 .6660156 .30499269 .6660156 .1769867 .6660156 .041992189 .5367584 .041992189 .31570436 .041992189 .048553468 .1579895-.022460938 .25099183-.022460938 .3619995-.022460938 .45700074 .07156372 .45700074 .2036438 .45700074 .33070375 .36799623 .4267578 .25698854 .4267578 .18899536 .4267578 .1519928 .37573243 .13198853 .327713M.25099183 .0055389406C.18798828 .0055389406 .1579895 .06556702 .1519928 .080566409 .13398743 .127594 .13398743 .2076416 .13398743 .22564698 .13398743 .30369569 .1659851 .40374757 .2559967 .40374757 .27198792 .40374757 .31799317 .40374757 .34899903 .34172059 .36698915 .30470277 .36698915 .2536621 .36698915 .20463562 .36698915 .15661621 .36698915 .10658264 .34999085 .0705719 .31999208 .010528564 .27398683 .0055389406 .25099183 .0055389406Z"/>
<path id="font_3_8" d="M.47599793 .609375C.4850006 .6213684 .4850006 .62338259 .4850006 .64437869H.24198914C.11999512 .64437869 .117996219 .65737918 .11399841 .67637637H.08898926L.055999757 .4702301H.08099365C.083999637 .48625184 .09298706 .5493469 .10598755 .56137087 .11299133 .5673828 .19099427 .5673828 .20399475 .5673828H.41099549C.3999939 .5513611 .32099916 .4421997 .29899598 .40914918 .20899964 .27394105 .17599488 .1347351 .17599488 .032577516 .17599488 .022567749 .17599488-.022460938 .22200012-.022460938 .2679901-.022460938 .2679901 .022567749 .2679901 .032577516V.08366394C.2679901 .13873291 .2709961 .19381714 .2789917 .24790955 .2829895 .27093507 .29699708 .35707093 .34098817 .41915895L.47599793 .609375Z"/>
</defs>
<path transform="matrix(1.00003,0,0,-1.00002,46.095933,154.82178)" stroke-width=".79701" stroke-linecap="butt" stroke-dasharray=".79701,1.99255" stroke-miterlimit="10" stroke-linejoin="miter" fill="none" stroke="#cbcbcb" d="M0 0H127.55977M0 25.51193H127.55977M0 51.0239H127.55977M0 76.53586H127.55977M0 102.0478H127.55977M0 127.55081H127.55977M0 0V127.55977M25.51193 0V127.55977M51.0239 0V127.55977M76.53586 0V127.55977M102.0478 0V127.55977M127.55081 0V127.55977M127.55977 127.55977"/>
<path transform="matrix(1.00003,0,0,-1.00002,46.095933,154.82178)" stroke-width=".29887" stroke-linecap="butt" stroke-miterlimit="10" stroke-linejoin="miter" fill="none" stroke="#797979" d="M0 0H149.75417"/>
<path transform="matrix(1.00003,0,0,-1.00002,195.8546,154.82178)" d="M3.31755 0C2.33455 .1843 .73723 .73723-.3686 1.38231V-1.38231C.73723-.73723 2.33455-.1843 3.31755 0" fill="#797979"/>
<use data-text="x" xlink:href="#font_1_2" transform="matrix(9.962899,0,0,-9.962799,175.1298,151.35172)" fill="#797979"/>
<use data-text="k" xlink:href="#font_2_70" transform="matrix(9.962899,0,0,-9.962799,184.14208,151.35172)" fill="#797979"/>
<use data-text="m" xlink:href="#font_2_75" transform="matrix(9.962899,0,0,-9.962799,189.40248,151.35172)" fill="#797979"/>
<path transform="matrix(1.00003,0,0,-1.00002,46.095933,154.82178)" stroke-width=".29887" stroke-linecap="butt" stroke-miterlimit="10" stroke-linejoin="miter" fill="none" stroke="#797979" d="M0 0H-22.19438"/>
<path transform="matrix(-1.00003,-0,0,1.00002,23.900885,154.82178)" d="M3.31755 0C2.33455 .1843 .73723 .73723-.3686 1.38231V-1.38231C.73723-.73723 2.33455-.1843 3.31755 0" fill="#797979"/>
<path transform="matrix(1.00003,0,0,-1.00002,46.095933,154.82178)" stroke-width=".29887" stroke-linecap="butt" stroke-miterlimit="10" stroke-linejoin="miter" fill="none" stroke="#797979" d="M0 0V149.75417"/>
<path transform="matrix(0,-1.00002,-1.00003,-0,46.095933,5.0646059)" d="M3.31755 0C2.33455 .1843 .73723 .73723-.3686 1.38231V-1.38231C.73723-.73723 2.33455-.1843 3.31755 0" fill="#797979"/>
<use data-text="y" xlink:href="#font_1_3" transform="matrix(9.962899,0,0,-9.962799,49.56604,16.99202)" fill="#797979"/>
<use data-text="k" xlink:href="#font_2_70" transform="matrix(9.962899,0,0,-9.962799,58.126298,16.99202)" fill="#797979"/>
<use data-text="m" xlink:href="#font_2_75" transform="matrix(9.962899,0,0,-9.962799,63.386705,16.99202)" fill="#797979"/>
<path transform="matrix(1.00003,0,0,-1.00002,46.095933,154.82178)" stroke-width=".29887" stroke-linecap="butt" stroke-miterlimit="10" stroke-linejoin="miter" fill="none" stroke="#797979" d="M0 0V-22.19438"/>
<path transform="matrix(0,1.00002,1.00003,0,46.095933,177.0166)" d="M3.31755 0C2.33455 .1843 .73723 .73723-.3686 1.38231V-1.38231C.73723-.73723 2.33455-.1843 3.31755 0" fill="#797979"/>
<path transform="matrix(1.00003,0,0,-1.00002,46.095933,154.82178)" stroke-width="1.49442" stroke-linecap="butt" stroke-miterlimit="10" stroke-linejoin="miter" fill="none" stroke="#0074c8" d="M76.53586 51.0239 98.4172 83.84587"/>
<path transform="matrix(.55468669,-.8320367,-.83204498,-.55468109,144.51609,70.97423)" d="M6.54549 0C4.60605 .36362 1.45454 1.45454-.72726 2.72728V-2.72728C1.45454-1.45454 4.60605-.36362 6.54549 0" fill="#0074c8"/>
<path transform="matrix(1.00003,0,0,-1.00002,46.095933,154.82178)" d="M2.68993 0C2.68993 1.48561 1.48561 2.68993 0 2.68993-1.48561 2.68993-2.68993 1.48561-2.68993 0-2.68993-1.48561-1.48561-2.68993 0-2.68993 1.48561-2.68993 2.68993-1.48561 2.68993 0ZM0 0" fill="#0074c8"/>
<use data-text="M" xlink:href="#font_2_74" transform="matrix(9.962899,0,0,-9.962799,1.2165833,165.45499)" fill="#0074c8"/>
<use data-text="i" xlink:href="#font_2_66" transform="matrix(9.962899,0,0,-9.962799,10.35257,165.45499)" fill="#0074c8"/>
<use data-text="d" xlink:href="#font_2_47" transform="matrix(9.962899,0,0,-9.962799,13.122269,165.45499)" fill="#0074c8"/>
<use data-text="d" xlink:href="#font_2_47" transform="matrix(9.962899,0,0,-9.962799,18.661622,165.45499)" fill="#0074c8"/>
<use data-text="l" xlink:href="#font_2_72" transform="matrix(9.962899,0,0,-9.962799,24.200989,165.45499)" fill="#0074c8"/>
<use data-text="e" xlink:href="#font_2_50" transform="matrix(9.962899,0,0,-9.962799,26.970688,165.45499)" fill="#0074c8"/>
<use data-text="t" xlink:href="#font_2_105" transform="matrix(9.962899,0,0,-9.962799,31.394227,165.45499)" fill="#0074c8"/>
<use data-text="o" xlink:href="#font_2_81" transform="matrix(9.962899,0,0,-9.962799,35.26979,165.45499)" fill="#0074c8"/>
<use data-text="w" xlink:href="#font_2_114" transform="matrix(9.962899,0,0,-9.962799,39.982225,165.45499)" fill="#0074c8"/>
<use data-text="n" xlink:href="#font_2_77" transform="matrix(9.962899,0,0,-9.962799,47.175447,165.45499)" fill="#0074c8"/>
<path transform="matrix(1.00003,0,0,-1.00002,46.095933,154.82178)" d="M28.20187 25.51193C28.20187 26.99754 26.99754 28.20187 25.51193 28.20187 24.02632 28.20187 22.822 26.99754 22.822 25.51193 22.822 24.02632 24.02632 22.822 25.51193 22.822 26.99754 22.822 28.20187 24.02632 28.20187 25.51193ZM25.51193 25.51193"/>
<use data-text="2" xlink:href="#font_3_3" transform="matrix(9.962899,0,0,-9.962799,75.32781,132.51934)"/>
<use data-text="0" xlink:href="#font_3_1" transform="matrix(9.962899,0,0,-9.962799,80.30926,132.51934)"/>
<path transform="matrix(1.00003,0,0,-1.00002,46.095933,154.82178)" d="M53.71382 25.51193C53.71382 26.99754 52.5095 28.20187 51.0239 28.20187 49.53828 28.20187 48.33397 26.99754 48.33397 25.51193 48.33397 24.02632 49.53828 22.822 51.0239 22.822 52.5095 22.822 53.71382 24.02632 53.71382 25.51193ZM51.0239 25.51193"/>
<use data-text="2" xlink:href="#font_3_3" transform="matrix(9.962899,0,0,-9.962799,100.840579,132.51934)"/>
<use data-text="2" xlink:href="#font_3_3" transform="matrix(9.962899,0,0,-9.962799,105.82202,132.51934)"/>
<path transform="matrix(1.00003,0,0,-1.00002,46.095933,154.82178)" d="M79.22578 25.51193C79.22578 26.99754 78.02147 28.20187 76.53586 28.20187 75.05025 28.20187 73.84593 26.99754 73.84593 25.51193 73.84593 24.02632 75.05025 22.822 76.53586 22.822 78.02147 22.822 79.22578 24.02632 79.22578 25.51193ZM76.53586 25.51193"/>
<use data-text="2" xlink:href="#font_3_3" transform="matrix(9.962899,0,0,-9.962799,126.35334,132.51934)"/>
<use data-text="1" xlink:href="#font_3_2" transform="matrix(9.962899,0,0,-9.962799,131.33478,132.51934)"/>
<path transform="matrix(1.00003,0,0,-1.00002,46.095933,154.82178)" d="M104.73773 25.51193C104.73773 26.99754 103.53342 28.20187 102.0478 28.20187 100.5622 28.20187 99.35788 26.99754 99.35788 25.51193 99.35788 24.02632 100.5622 22.822 102.0478 22.822 103.53342 22.822 104.73773 24.02632 104.73773 25.51193ZM102.0478 25.51193"/>
<use data-text="2" xlink:href="#font_3_3" transform="matrix(9.962899,0,0,-9.962799,151.8661,132.51934)"/>
<use data-text="2" xlink:href="#font_3_3" transform="matrix(9.962899,0,0,-9.962799,156.84755,132.51934)"/>
<path transform="matrix(1.00003,0,0,-1.00002,46.095933,154.82178)" d="M130.2497 25.51193C130.2497 26.99754 129.04538 28.20187 127.55977 28.20187 126.07414 28.20187 124.86983 26.99754 124.86983 25.51193 124.86983 24.02632 126.07414 22.822 127.55977 22.822 129.04538 22.822 130.2497 24.02632 130.2497 25.51193ZM127.55977 25.51193"/>
<use data-text="2" xlink:href="#font_3_3" transform="matrix(9.962899,0,0,-9.962799,177.37888,132.51934)"/>
<use data-text="2" xlink:href="#font_3_3" transform="matrix(9.962899,0,0,-9.962799,182.36032,132.51934)"/>
<path transform="matrix(1.00003,0,0,-1.00002,46.095933,154.82178)" d="M28.20187 51.0239C28.20187 52.5095 26.99754 53.71382 25.51193 53.71382 24.02632 53.71382 22.822 52.5095 22.822 51.0239 22.822 49.53828 24.02632 48.33397 25.51193 48.33397 26.99754 48.33397 28.20187 49.53828 28.20187 51.0239ZM25.51193 51.0239"/>
<use data-text="2" xlink:href="#font_3_3" transform="matrix(9.962899,0,0,-9.962799,75.32781,107.00682)"/>
<use data-text="1" xlink:href="#font_3_2" transform="matrix(9.962899,0,0,-9.962799,80.30926,107.00682)"/>
<path transform="matrix(1.00003,0,0,-1.00002,46.095933,154.82178)" d="M53.71382 51.0239C53.71382 52.5095 52.5095 53.71382 51.0239 53.71382 49.53828 53.71382 48.33397 52.5095 48.33397 51.0239 48.33397 49.53828 49.53828 48.33397 51.0239 48.33397 52.5095 48.33397 53.71382 49.53828 53.71382 51.0239ZM51.0239 51.0239"/>
<use data-text="2" xlink:href="#font_3_3" transform="matrix(9.962899,0,0,-9.962799,100.840579,107.00682)"/>
<use data-text="2" xlink:href="#font_3_3" transform="matrix(9.962899,0,0,-9.962799,105.82202,107.00682)"/>
<path transform="matrix(1.00003,0,0,-1.00002,46.095933,154.82178)" d="M79.22578 51.0239C79.22578 52.5095 78.02147 53.71382 76.53586 53.71382 75.05025 53.71382 73.84593 52.5095 73.84593 51.0239 73.84593 49.53828 75.05025 48.33397 76.53586 48.33397 78.02147 48.33397 79.22578 49.53828 79.22578 51.0239ZM76.53586 51.0239" fill="#0074c8"/>
<use data-text="2" xlink:href="#font_3_3" transform="matrix(9.962899,0,0,-9.962799,126.35334,107.00682)" fill="#0074c8"/>
<use data-text="4" xlink:href="#font_3_5" transform="matrix(9.962899,0,0,-9.962799,131.33478,107.00682)" fill="#0074c8"/>
<use data-text="A" xlink:href="#font_1_1" transform="matrix(9.962899,0,0,-9.962799,116.545047,98.271648)" fill="#0074c8"/>
<path transform="matrix(1.00003,0,0,-1.00002,46.095933,154.82178)" d="M104.73773 51.0239C104.73773 52.5095 103.53342 53.71382 102.0478 53.71382 100.5622 53.71382 99.35788 52.5095 99.35788 51.0239 99.35788 49.53828 100.5622 48.33397 102.0478 48.33397 103.53342 48.33397 104.73773 49.53828 104.73773 51.0239ZM102.0478 51.0239"/>
<use data-text="2" xlink:href="#font_3_3" transform="matrix(9.962899,0,0,-9.962799,151.8661,107.00682)"/>
<use data-text="4" xlink:href="#font_3_5" transform="matrix(9.962899,0,0,-9.962799,156.84755,107.00682)"/>
<path transform="matrix(1.00003,0,0,-1.00002,46.095933,154.82178)" d="M130.2497 51.0239C130.2497 52.5095 129.04538 53.71382 127.55977 53.71382 126.07414 53.71382 124.86983 52.5095 124.86983 51.0239 124.86983 49.53828 126.07414 48.33397 127.55977 48.33397 129.04538 48.33397 130.2497 49.53828 130.2497 51.0239ZM127.55977 51.0239"/>
<use data-text="2" xlink:href="#font_3_3" transform="matrix(9.962899,0,0,-9.962799,177.37888,107.00682)"/>
<use data-text="4" xlink:href="#font_3_5" transform="matrix(9.962899,0,0,-9.962799,182.36032,107.00682)"/>
<path transform="matrix(1.00003,0,0,-1.00002,46.095933,154.82178)" d="M28.20187 76.53586C28.20187 78.02147 26.99754 79.22578 25.51193 79.22578 24.02632 79.22578 22.822 78.02147 22.822 76.53586 22.822 75.05025 24.02632 73.84593 25.51193 73.84593 26.99754 73.84593 28.20187 75.05025 28.20187 76.53586ZM25.51193 76.53586"/>
<use data-text="2" xlink:href="#font_3_3" transform="matrix(9.962899,0,0,-9.962799,75.32781,81.494319)"/>
<use data-text="2" xlink:href="#font_3_3" transform="matrix(9.962899,0,0,-9.962799,80.30926,81.494319)"/>
<path transform="matrix(1.00003,0,0,-1.00002,46.095933,154.82178)" d="M53.71382 76.53586C53.71382 78.02147 52.5095 79.22578 51.0239 79.22578 49.53828 79.22578 48.33397 78.02147 48.33397 76.53586 48.33397 75.05025 49.53828 73.84593 51.0239 73.84593 52.5095 73.84593 53.71382 75.05025 53.71382 76.53586ZM51.0239 76.53586"/>
<use data-text="2" xlink:href="#font_3_3" transform="matrix(9.962899,0,0,-9.962799,100.840579,81.494319)"/>
<use data-text="3" xlink:href="#font_3_4" transform="matrix(9.962899,0,0,-9.962799,105.82202,81.494319)"/>
<path transform="matrix(1.00003,0,0,-1.00002,46.095933,154.82178)" d="M79.22578 76.53586C79.22578 78.02147 78.02147 79.22578 76.53586 79.22578 75.05025 79.22578 73.84593 78.02147 73.84593 76.53586 73.84593 75.05025 75.05025 73.84593 76.53586 73.84593 78.02147 73.84593 79.22578 75.05025 79.22578 76.53586ZM76.53586 76.53586"/>
<use data-text="2" xlink:href="#font_3_3" transform="matrix(9.962899,0,0,-9.962799,126.35334,81.494319)"/>
<use data-text="4" xlink:href="#font_3_5" transform="matrix(9.962899,0,0,-9.962799,131.33478,81.494319)"/>
<path transform="matrix(1.00003,0,0,-1.00002,46.095933,154.82178)" d="M104.73773 76.53586C104.73773 78.02147 103.53342 79.22578 102.0478 79.22578 100.5622 79.22578 99.35788 78.02147 99.35788 76.53586 99.35788 75.05025 100.5622 73.84593 102.0478 73.84593 103.53342 73.84593 104.73773 75.05025 104.73773 76.53586ZM102.0478 76.53586"/>
<use data-text="2" xlink:href="#font_3_3" transform="matrix(9.962899,0,0,-9.962799,151.8661,81.494319)"/>
<use data-text="5" xlink:href="#font_3_6" transform="matrix(9.962899,0,0,-9.962799,156.84755,81.494319)"/>
<path transform="matrix(1.00003,0,0,-1.00002,46.095933,154.82178)" d="M130.2497 76.53586C130.2497 78.02147 129.04538 79.22578 127.55977 79.22578 126.07414 79.22578 124.86983 78.02147 124.86983 76.53586 124.86983 75.05025 126.07414 73.84593 127.55977 73.84593 129.04538 73.84593 130.2497 75.05025 130.2497 76.53586ZM127.55977 76.53586"/>
<use data-text="2" xlink:href="#font_3_3" transform="matrix(9.962899,0,0,-9.962799,177.37888,81.494319)"/>
<use data-text="5" xlink:href="#font_3_6" transform="matrix(9.962899,0,0,-9.962799,182.36032,81.494319)"/>
<path transform="matrix(1.00003,0,0,-1.00002,46.095933,154.82178)" d="M28.20187 102.0478C28.20187 103.53342 26.99754 104.73773 25.51193 104.73773 24.02632 104.73773 22.822 103.53342 22.822 102.0478 22.822 100.5622 24.02632 99.35788 25.51193 99.35788 26.99754 99.35788 28.20187 100.5622 28.20187 102.0478ZM25.51193 102.0478"/>
<use data-text="2" xlink:href="#font_3_3" transform="matrix(9.962899,0,0,-9.962799,75.32781,55.981805)"/>
<use data-text="3" xlink:href="#font_3_4" transform="matrix(9.962899,0,0,-9.962799,80.30926,55.981805)"/>
<path transform="matrix(1.00003,0,0,-1.00002,46.095933,154.82178)" d="M53.71382 102.0478C53.71382 103.53342 52.5095 104.73773 51.0239 104.73773 49.53828 104.73773 48.33397 103.53342 48.33397 102.0478 48.33397 100.5622 49.53828 99.35788 51.0239 99.35788 52.5095 99.35788 53.71382 100.5622 53.71382 102.0478ZM51.0239 102.0478"/>
<use data-text="2" xlink:href="#font_3_3" transform="matrix(9.962899,0,0,-9.962799,100.840579,55.981805)"/>
<use data-text="4" xlink:href="#font_3_5" transform="matrix(9.962899,0,0,-9.962799,105.82202,55.981805)"/>
<path transform="matrix(1.00003,0,0,-1.00002,46.095933,154.82178)" d="M79.22578 102.0478C79.22578 103.53342 78.02147 104.73773 76.53586 104.73773 75.05025 104.73773 73.84593 103.53342 73.84593 102.0478 73.84593 100.5622 75.05025 99.35788 76.53586 99.35788 78.02147 99.35788 79.22578 100.5622 79.22578 102.0478ZM76.53586 102.0478"/>
<use data-text="2" xlink:href="#font_3_3" transform="matrix(9.962899,0,0,-9.962799,126.35334,55.981805)"/>
<use data-text="5" xlink:href="#font_3_6" transform="matrix(9.962899,0,0,-9.962799,131.33478,55.981805)"/>
<path transform="matrix(1.00003,0,0,-1.00002,46.095933,154.82178)" d="M104.73773 102.0478C104.73773 103.53342 103.53342 104.73773 102.0478 104.73773 100.5622 104.73773 99.35788 103.53342 99.35788 102.0478 99.35788 100.5622 100.5622 99.35788 102.0478 99.35788 103.53342 99.35788 104.73773 100.5622 104.73773 102.0478ZM102.0478 102.0478"/>
<use data-text="2" xlink:href="#font_3_3" transform="matrix(9.962899,0,0,-9.962799,151.8661,55.981805)"/>
<use data-text="6" xlink:href="#font_3_7" transform="matrix(9.962899,0,0,-9.962799,156.84755,55.981805)"/>
<path transform="matrix(1.00003,0,0,-1.00002,46.095933,154.82178)" d="M130.2497 102.0478C130.2497 103.53342 129.04538 104.73773 127.55977 104.73773 126.07414 104.73773 124.86983 103.53342 124.86983 102.0478 124.86983 100.5622 126.07414 99.35788 127.55977 99.35788 129.04538 99.35788 130.2497 100.5622 130.2497 102.0478ZM127.55977 102.0478"/>
<use data-text="2" xlink:href="#font_3_3" transform="matrix(9.962899,0,0,-9.962799,177.37888,55.981805)"/>
<use data-text="6" xlink:href="#font_3_7" transform="matrix(9.962899,0,0,-9.962799,182.36032,55.981805)"/>
<path transform="matrix(1.00003,0,0,-1.00002,46.095933,154.82178)" d="M28.20187 127.55977C28.20187 129.04538 26.99754 130.2497 25.51193 130.2497 24.02632 130.2497 22.822 129.04538 22.822 127.55977 22.822 126.07414 24.02632 124.86983 25.51193 124.86983 26.99754 124.86983 28.20187 126.07414 28.20187 127.55977ZM25.51193 127.55977"/>
<use data-text="2" xlink:href="#font_3_3" transform="matrix(9.962899,0,0,-9.962799,75.32781,30.469292)"/>
<use data-text="3" xlink:href="#font_3_4" transform="matrix(9.962899,0,0,-9.962799,80.30926,30.469292)"/>
<path transform="matrix(1.00003,0,0,-1.00002,46.095933,154.82178)" d="M53.71382 127.55977C53.71382 129.04538 52.5095 130.2497 51.0239 130.2497 49.53828 130.2497 48.33397 129.04538 48.33397 127.55977 48.33397 126.07414 49.53828 124.86983 51.0239 124.86983 52.5095 124.86983 53.71382 126.07414 53.71382 127.55977ZM51.0239 127.55977"/>
<use data-text="2" xlink:href="#font_3_3" transform="matrix(9.962899,0,0,-9.962799,100.840579,30.469292)"/>
<use data-text="4" xlink:href="#font_3_5" transform="matrix(9.962899,0,0,-9.962799,105.82202,30.469292)"/>
<path transform="matrix(1.00003,0,0,-1.00002,46.095933,154.82178)" d="M79.22578 127.55977C79.22578 129.04538 78.02147 130.2497 76.53586 130.2497 75.05025 130.2497 73.84593 129.04538 73.84593 127.55977 73.84593 126.07414 75.05025 124.86983 76.53586 124.86983 78.02147 124.86983 79.22578 126.07414 79.22578 127.55977ZM76.53586 127.55977"/>
<use data-text="2" xlink:href="#font_3_3" transform="matrix(9.962899,0,0,-9.962799,126.35334,30.469292)"/>
<use data-text="5" xlink:href="#font_3_6" transform="matrix(9.962899,0,0,-9.962799,131.33478,30.469292)"/>
<path transform="matrix(1.00003,0,0,-1.00002,46.095933,154.82178)" d="M104.73773 127.55977C104.73773 129.04538 103.53342 130.2497 102.0478 130.2497 100.5622 130.2497 99.35788 129.04538 99.35788 127.55977 99.35788 126.07414 100.5622 124.86983 102.0478 124.86983 103.53342 124.86983 104.73773 126.07414 104.73773 127.55977ZM102.0478 127.55977"/>
<use data-text="2" xlink:href="#font_3_3" transform="matrix(9.962899,0,0,-9.962799,151.8661,30.469292)"/>
<use data-text="7" xlink:href="#font_3_8" transform="matrix(9.962899,0,0,-9.962799,156.84755,30.469292)"/>
<path transform="matrix(1.00003,0,0,-1.00002,46.095933,154.82178)" d="M130.2497 127.55977C130.2497 129.04538 129.04538 130.2497 127.55977 130.2497 126.07414 130.2497 124.86983 129.04538 124.86983 127.55977 124.86983 126.07414 126.07414 124.86983 127.55977 124.86983 129.04538 124.86983 130.2497 126.07414 130.2497 127.55977ZM127.55977 127.55977"/>
<use data-text="2" xlink:href="#font_3_3" transform="matrix(9.962899,0,0,-9.962799,177.37888,30.469292)"/>
<use data-text="6" xlink:href="#font_3_7" transform="matrix(9.962899,0,0,-9.962799,182.36032,30.469292)"/>
<path transform="matrix(1.00003,0,0,-1.00002,46.095933,154.82178)" stroke-width=".79701" stroke-linecap="butt" stroke-miterlimit="10" stroke-linejoin="miter" fill="none" stroke="#000000" d="M25.51193 1.79327V-1.79327"/>
<use data-text="1" xlink:href="#font_3_2" transform="matrix(9.962899,0,0,-9.962799,69.11762,166.75502)"/>
<path transform="matrix(1.00003,0,0,-1.00002,46.095933,154.82178)" stroke-width=".79701" stroke-linecap="butt" stroke-miterlimit="10" stroke-linejoin="miter" fill="none" stroke="#000000" d="M51.0239 1.79327V-1.79327"/>
<use data-text="2" xlink:href="#font_3_3" transform="matrix(9.962899,0,0,-9.962799,94.63039,166.75502)"/>
<path transform="matrix(1.00003,0,0,-1.00002,46.095933,154.82178)" stroke-width=".79701" stroke-linecap="butt" stroke-miterlimit="10" stroke-linejoin="miter" fill="none" stroke="#000000" d="M76.53586 1.79327V-1.79327"/>
<use data-text="3" xlink:href="#font_3_4" transform="matrix(9.962899,0,0,-9.962799,120.14316,166.75502)"/>
<path transform="matrix(1.00003,0,0,-1.00002,46.095933,154.82178)" stroke-width=".79701" stroke-linecap="butt" stroke-miterlimit="10" stroke-linejoin="miter" fill="none" stroke="#000000" d="M102.0478 1.79327V-1.79327"/>
<use data-text="4" xlink:href="#font_3_5" transform="matrix(9.962899,0,0,-9.962799,145.65592,166.75502)"/>
<path transform="matrix(1.00003,0,0,-1.00002,46.095933,154.82178)" stroke-width=".79701" stroke-linecap="butt" stroke-miterlimit="10" stroke-linejoin="miter" fill="none" stroke="#000000" d="M127.55977 1.79327V-1.79327"/>
<use data-text="5" xlink:href="#font_3_6" transform="matrix(9.962899,0,0,-9.962799,171.16869,166.75502)"/>
<path transform="matrix(1.00003,0,0,-1.00002,46.095933,154.82178)" stroke-width=".79701" stroke-linecap="butt" stroke-miterlimit="10" stroke-linejoin="miter" fill="none" stroke="#000000" d="M-1.79327 25.51193H1.79327"/>
<use data-text="1" xlink:href="#font_3_2" transform="matrix(9.962899,0,0,-9.962799,39.18872,132.51934)"/>
<path transform="matrix(1.00003,0,0,-1.00002,46.095933,154.82178)" stroke-width=".79701" stroke-linecap="butt" stroke-miterlimit="10" stroke-linejoin="miter" fill="none" stroke="#000000" d="M-1.79327 51.0239H1.79327"/>
<use data-text="2" xlink:href="#font_3_3" transform="matrix(9.962899,0,0,-9.962799,39.18872,107.00682)"/>
<path transform="matrix(1.00003,0,0,-1.00002,46.095933,154.82178)" stroke-width=".79701" stroke-linecap="butt" stroke-miterlimit="10" stroke-linejoin="miter" fill="none" stroke="#000000" d="M-1.79327 76.53586H1.79327"/>
<use data-text="3" xlink:href="#font_3_4" transform="matrix(9.962899,0,0,-9.962799,39.18872,81.494319)"/>
<path transform="matrix(1.00003,0,0,-1.00002,46.095933,154.82178)" stroke-width=".79701" stroke-linecap="butt" stroke-miterlimit="10" stroke-linejoin="miter" fill="none" stroke="#000000" d="M-1.79327 102.0478H1.79327"/>
<use data-text="4" xlink:href="#font_3_5" transform="matrix(9.962899,0,0,-9.962799,39.18872,55.981805)"/>
<path transform="matrix(1.00003,0,0,-1.00002,46.095933,154.82178)" stroke-width=".79701" stroke-linecap="butt" stroke-miterlimit="10" stroke-linejoin="miter" fill="none" stroke="#000000" d="M-1.79327 127.55977H1.79327"/>
<use data-text="5" xlink:href="#font_3_6" transform="matrix(9.962899,0,0,-9.962799,39.18872,30.469292)"/>
</svg>
