<svg xmlns="http://www.w3.org/2000/svg" xmlns:xlink="http://www.w3.org/1999/xlink" version="1.1" width="174pt" height="174pt" viewBox="0 0 174 174">
<defs>
<path id="font_1_1" d="M.33399964 .30233766C.33999635 .32835389 .36299134 .42037965 .43299867 .42037965 .43798829 .42037965 .46199037 .42037965 .48298646 .40734864 .45498658 .402359 .43499757 .37734986 .43499757 .35334779 .43499757 .33735658 .44599916 .31835938 .47299195 .31835938 .49499513 .31835938 .5269928 .3363495 .5269928 .37635804 .5269928 .42837525 .46798707 .4423828 .43399049 .4423828 .37599183 .4423828 .34098817 .38935853 .32899476 .36634828 .3039856 .43237306 .25 .4423828 .22099304 .4423828 .116989139 .4423828 .05999756 .3133545 .05999756 .28834535 .05999756 .27833558 .069992069 .27833558 .07199097 .27833558 .07998657 .27833558 .08299255 .28033448 .084991458 .28933717 .11898804 .39535523 .18499756 .42037965 .21899414 .42037965 .23799134 .42037965 .272995 .4113617 .272995 .35334779 .272995 .32235719 .2559967 .25532533 .21899414 .11528015 .20298767 .053268434 .16799927 .011245728 .12399292 .011245728 .117996219 .011245728 .09498596 .011245728 .07398987 .024276734 .09899902 .029266358 .12098694 .05027771 .12098694 .07827759 .12098694 .105270389 .09899902 .11328125 .083999637 .11328125 .053985597 .11328125 .0289917 .08728027 .0289917 .055267335 .0289917 .009246826 .07899475-.0107421879 .12298584-.0107421879 .18899536-.0107421879 .22499085 .059280397 .22799683 .0652771 .23999024 .028274537 .27598573-.0107421879 .33599855-.0107421879 .43899537-.0107421879 .49598695 .118270877 .49598695 .14328003 .49598695 .1532898 .4869995 .1532898 .48399354 .1532898 .47499085 .1532898 .47299195 .14929199 .47099305 .14228821 .43798829 .03527832 .36999513 .011245728 .33799745 .011245728 .29899598 .011245728 .2829895 .043273927 .2829895 .07727051 .2829895 .09927368 .2889862 .121276859 .2999878 .16529846L.33399964 .30233766Z"/>
<path id="font_1_2" d="M.48599244 .38136292C.48999024 .39537049 .48999024 .39736939 .48999024 .40437318 .48999024 .42237855 .47599793 .43138124 .46099855 .43138124 .45098878 .43138124 .43499757 .42536927 .42599488 .41036988 .42399598 .405365 .41600038 .37435914 .4119873 .35635377 .40499879 .33035279 .397995 .30334474 .3919983 .27633668L.34700013 .09628296C.34298707 .08126831 .2999878 .011245728 .23399353 .011245728 .18299866 .011245728 .17199707 .055267335 .17199707 .0922699 .17199707 .1382904 .18899536 .20030213 .22299195 .28833009 .23899842 .3293457 .24299622 .3403473 .24299622 .36035157 .24299622 .405365 .21099854 .4423828 .16099549 .4423828 .06599426 .4423828 .0289917 .29733277 .0289917 .28833009 .0289917 .27833558 .038986207 .27833558 .040985109 .27833558 .050994874 .27833558 .051986696 .28033448 .056991579 .29634095 .083999637 .3903656 .12399292 .42037965 .1579895 .42037965 .1659851 .42037965 .18299866 .42037965 .18299866 .3883667 .18299866 .36335755 .17298889 .3373413 .1659851 .31834413 .12599182 .21231079 .10798645 .1552887 .10798645 .10827637 .10798645 .019256592 .17098999-.0107421879 .22999573-.0107421879 .2689972-.0107421879 .30299378 .0062561037 .33099366 .03425598 .31799317-.017745972 .30599977-.06674194 .2659912-.11973572 .23999024-.15385437 .20199585-.18309021 .1559906-.18309021 .14199829-.18309021 .09700012-.18005371 .07998657-.14074707 .09599304-.14074707 .10899353-.14074707 .12298584-.1287384 .1329956-.11973572 .14299011-.10673523 .14299011-.08773804 .14299011-.056747438 .115997318-.052734376 .10598755-.052734376 .08299255-.052734376 .049987794-.068740848 .049987794-.11773682 .049987794-.16796875 .09399414-.20507813 .1559906-.20507813 .25898744-.20507813 .3619995-.11373901 .3899994-.00074768069L.48599244 .38136292Z"/>
<path id="font_1_3" d="M.1329956 .08345032C.18699646 .14138794 .21598816 .16636658 .2519989 .19732666 .2519989 .19833374 .31399537 .25128175 .34999085 .2872467 .44499208 .3803711 .46699525 .42837525 .46699525 .43237306 .46699525 .4423828 .45799256 .4423828 .45599366 .4423828 .44898988 .4423828 .44599916 .44036866 .44099427 .43138124 .41099549 .38337709 .3899994 .3671875 .3659973 .3671875 .34199525 .3671875 .32998658 .38237 .31498719 .3993683 .29599 .42237855 .2789917 .4423828 .24598694 .4423828 .17098999 .4423828 .125 .34918214 .125 .3282013 .125 .3231964 .12799073 .31721498 .13699341 .31721498 .1459961 .31721498 .147995 .3222046 .1499939 .3282013 .16899109 .37434388 .22698975 .37538148 .23498535 .37538148 .2559967 .37538148 .2749939 .36820985 .2979889 .36018373 .33799745 .34518434 .34899903 .34518434 .375 .34518434 .33898927 .30223084 .25498963 .2303009 .23599243 .21430969L.1459961 .13040161C.07798767 .06341553 .042999269 .0062561037 .042999269-.00074768069 .042999269-.0107421879 .052993776-.0107421879 .054992677-.0107421879 .06298828-.0107421879 .06498718-.008743286 .070999149 .002243042 .09399414 .037246705 .12399292 .064453128 .1559906 .064453128 .1789856 .064453128 .18899536 .055252077 .21398926 .026245118 .23098755 .0052490236 .24899292-.0107421879 .27799989-.0107421879 .3769989-.0107421879 .43499757 .1164093 .43499757 .14338684 .43499757 .14837647 .43099977 .15338135 .4229889 .15338135 .4139862 .15338135 .4119873 .14738465 .40899659 .14039612 .38598634 .07543945 .32199098 .056243898 .2889862 .056243898 .2689972 .056243898 .25099183 .06239319 .22999573 .06944275 .19599915 .08244324 .18099976 .08644104 .1599884 .08644104 .1579895 .08644104 .14199829 .08644104 .1329956 .08345032Z"/>
<path id="font_2_5" d="M.68699648 .32714845C.70199587 .32714845 .72099307 .32714845 .72099307 .34713746 .72099307 .36714173 .70199587 .36714173 .6879883 .36714173H.08898926C.07499695 .36714173 .055999757 .36714173 .055999757 .34713746 .055999757 .32714845 .07499695 .32714845 .08999634 .32714845H.68699648M.6879883 .13284302C.70199587 .13284302 .72099307 .13284302 .72099307 .15284729 .72099307 .17285156 .70199587 .17285156 .68699648 .17285156H.08999634C.07499695 .17285156 .055999757 .17285156 .055999757 .15284729 .055999757 .13284302 .07499695 .13284302 .08898926 .13284302H.6879883Z"/>
<path id="font_2_1" d="M.2939911 .64004519C.2939911 .66400149 .2939911 .6660156 .2709961 .6660156 .20899964 .60227969 .12098694 .60227969 .08898926 .60227969V.57128909C.10899353 .57128909 .16799927 .57128909 .21998596 .5972748V.07902527C.21998596 .042999269 .21699524 .0309906 .1269989 .0309906H.09498596V0C.12998963 .0029907227 .21699524 .0029907227 .25698854 .0029907227 .29699708 .0029907227 .38398744 .0029907227 .4189911 0V.0309906H.3869934C.29699708 .0309906 .2939911 .041992189 .2939911 .07902527V.64004519Z"/>
<path id="font_2_3" d="M.2939911 .16503906V.07800293C.2939911 .041992189 .2919922 .0309906 .21798706 .0309906H.19699097V0C.23799134 .0029907227 .2899933 .0029907227 .33198548 .0029907227 .37399293 .0029907227 .4269867 .0029907227 .46798707 0V.0309906H.44699098C.37298585 .0309906 .37098695 .041992189 .37098695 .07800293V.16503906H.47099305V.19602967H.37098695V.65075686C.37098695 .67074587 .37098695 .6767578 .35499574 .6767578 .34599305 .6767578 .34298707 .6767578 .33499146 .66474917L.027999878 .19602967V.16503906H.2939911M.2999878 .19602967H.055999757L.2999878 .5688019V.19602967Z"/>
<path id="font_2_4" d="M.47599793 .609375C.4850006 .6213684 .4850006 .62338259 .4850006 .64437869H.24198914C.11999512 .64437869 .117996219 .65737918 .11399841 .67637637H.08898926L.055999757 .4702301H.08099365C.083999637 .48625184 .09298706 .5493469 .10598755 .56137087 .11299133 .5673828 .19099427 .5673828 .20399475 .5673828H.41099549C.3999939 .5513611 .32099916 .4421997 .29899598 .40914918 .20899964 .27394105 .17599488 .1347351 .17599488 .032577516 .17599488 .022567749 .17599488-.022460938 .22200012-.022460938 .2679901-.022460938 .2679901 .022567749 .2679901 .032577516V.08366394C.2679901 .13873291 .2709961 .19381714 .2789917 .24790955 .2829895 .27093507 .29699708 .35707093 .34098817 .41915895L.47599793 .609375Z"/>
<path id="font_3_1" d="M.6589966 .23046875C.6759949 .23046875 .69400027 .23046875 .69400027 .25045777 .69400027 .27046205 .6759949 .27046205 .6589966 .27046205H.117996219C.100997928 .27046205 .08299255 .27046205 .08299255 .25045777 .08299255 .23046875 .100997928 .23046875 .117996219 .23046875H.6589966Z"/>
<path id="font_2_2" d="M.1269989 .07699585 .23298645 .18003845C.3889923 .31811524 .44898988 .3721466 .44898988 .47216798 .44898988 .5860901 .35899354 .6660156 .23699951 .6660156 .12399292 .6660156 .049987794 .57411196 .049987794 .48516847 .049987794 .4291687 .099990848 .4291687 .102996829 .4291687 .11999512 .4291687 .15499878 .44117738 .15499878 .48217774 .15499878 .5081787 .13699341 .5341797 .101989749 .5341797 .09399414 .5341797 .09199524 .5341797 .08898926 .5331726 .11199951 .59806826 .1659851 .63500979 .22399903 .63500979 .31498719 .63500979 .35798646 .5541382 .35798646 .47216798 .35798646 .39215089 .30799867 .31311036 .25299073 .25108338L.06098938 .036987306C.049987794 .025985718 .049987794 .023986817 .049987794 0H.42099L.44898988 .17404175H.42399598C.4189911 .14402771 .4119873 .1000061 .4019928 .084991458 .394989 .07699585 .32899476 .07699585 .30699159 .07699585H.1269989Z"/>
</defs>
<path transform="matrix(1.00003,0,0,-1,87.33705,87.038)" stroke-width=".79701" stroke-linecap="butt" stroke-miterlimit="10" stroke-linejoin="miter" fill="none" stroke="#e0e0e0" d="M-85.04042-85.04042H85.04042M-85.04042-56.69362H85.04042M-85.04042-28.3468H85.04042M-85.04042 0H85.04042M-85.04042 28.3468H85.04042M-85.04042 56.69362H85.04042M-85.04042 85.03047H85.04042M-85.04042-85.04042V85.04042M-56.69362-85.04042V85.04042M-28.3468-85.04042V85.04042M0-85.04042V85.04042M28.3468-85.04042V85.04042M56.69362-85.04042V85.04042M85.03047-85.04042V85.04042M85.04042 85.04042"/>
<path transform="matrix(1.00003,0,0,-1,87.33705,87.038)" stroke-width=".29887" stroke-linecap="butt" stroke-miterlimit="10" stroke-linejoin="miter" fill="none" stroke="#424242" d="M-56.69362 0H81.72287"/>
<path transform="matrix(1.00003,0,0,-1,169.06238,87.038)" d="M3.31755 0C2.33455 .1843 .73723 .73723-.3686 1.38231V-1.38231C.73723-.73723 2.33455-.1843 3.31755 0" fill="#424242"/>
<use data-text="x" xlink:href="#font_1_1" transform="matrix(9.962899,0,0,-9.9626,155.3591,94.798007)" fill="#424242"/>
<path transform="matrix(1.00003,0,0,-1,87.33705,87.038)" stroke-width=".29887" stroke-linecap="butt" stroke-miterlimit="10" stroke-linejoin="miter" fill="none" stroke="#424242" d="M0 0H-81.72287"/>
<path transform="matrix(-1.00003,-0,0,1,5.611725,87.038)" d="M3.31755 0C2.33455 .1843 .73723 .73723-.3686 1.38231V-1.38231C.73723-.73723 2.33455-.1843 3.31755 0" fill="#424242"/>
<path transform="matrix(1.00003,0,0,-1,87.33705,87.038)" stroke-width=".29887" stroke-linecap="butt" stroke-miterlimit="10" stroke-linejoin="miter" fill="none" stroke="#424242" d="M0-28.3468V81.72287"/>
<path transform="matrix(0,-1,-1.00003,-0,87.33705,5.315132)" d="M3.31755 0C2.33455 .1843 .73723 .73723-.3686 1.38231V-1.38231C.73723-.73723 2.33455-.1843 3.31755 0" fill="#424242"/>
<use data-text="y" xlink:href="#font_1_2" transform="matrix(9.962899,0,0,-9.9626,90.80716,17.347)" fill="#424242"/>
<path transform="matrix(1.00003,0,0,-1,87.33705,87.038)" stroke-width=".29887" stroke-linecap="butt" stroke-miterlimit="10" stroke-linejoin="miter" fill="none" stroke="#424242" d="M0 0V-81.72287"/>
<path transform="matrix(0,1,1.00003,0,87.33705,168.76087)" d="M3.31755 0C2.33455 .1843 .73723 .73723-.3686 1.38231V-1.38231C.73723-.73723 2.33455-.1843 3.31755 0" fill="#424242"/>
<path transform="matrix(1.00003,0,0,-1,87.33705,87.038)" stroke-width=".99628" stroke-linecap="butt" stroke-miterlimit="10" stroke-linejoin="miter" fill="none" stroke="#0074c8" d="M25.51193 8.73726C25.51193 8.73726 25.59726 8.61147 25.63002 8.5625 25.66278 8.51353 25.71535 8.43459 25.7481 8.3843 25.78085 8.334 25.83344 8.25189 25.8662 8.20004 25.89896 8.14821 25.95152 8.06369 25.98428 8.01059 26.01704 7.95749 26.0696 7.87186 26.10236 7.81725 26.13512 7.76263 26.18768 7.67343 26.22044 7.61697 26.2532 7.56052 26.30576 7.46855 26.33852 7.41023 26.37128 7.3519 26.42384 7.25685 26.4566 7.19655 26.48936 7.13625 26.54193 7.038 26.57469 6.97552 26.60745 6.91306 26.66 6.81108 26.69276 6.74628 26.72552 6.68147 26.77809 6.5759 26.81085 6.50839 26.84361 6.44087 26.89616 6.33025 26.92892 6.25967 26.96169 6.18912 27.01425 6.07365 27.04701 5.99973 27.07977 5.9258 27.13234 5.80457 27.1651 5.72679 27.19786 5.64902 27.25043 5.52142 27.28319 5.43915 27.31595 5.35689 27.36852 5.22145 27.40128 5.13377 27.43404 5.04611 27.48659 4.90135 27.51935 4.8072 27.55211 4.71306 27.60468 4.5569 27.63744 4.45512 27.6702 4.35335 27.72276 4.18565 27.75552 4.07362 27.78828 3.96158 27.84084 3.77394 27.8736 3.64757 27.90636 3.5212 27.95892 3.30984 27.99168 3.1627 28.02444 3.01556 28.077 2.77153 28.10976 2.58699 28.14252 2.40245 28.19508 2.1701 28.22784 1.83266 28.2606 1.4952 28.34593 .15485 28.34593 .15485"/>
<path transform="matrix(1.00003,0,0,-1,87.33705,87.038)" stroke-width=".99628" stroke-linecap="butt" stroke-miterlimit="10" stroke-linejoin="miter" fill="none" stroke="#0074c8" d="M-28.3468 0C-28.3468 0-28.26147 1.46788-28.22871 1.82616-28.19595 2.18445-28.14339 2.39732-28.11063 2.58223-28.07787 2.76714-28.02531 3.01149-27.99255 3.15881-27.9598 3.30614-27.90723 3.51779-27.87447 3.64412-27.8417 3.77045-27.78915 3.9569-27.7564 4.0693-27.72363 4.1817-27.67107 4.35225-27.6383 4.45427-27.60555 4.55629-27.55296 4.71059-27.5202 4.80463-27.48744 4.89867-27.43489 5.04431-27.40213 5.13205-27.36937 5.21977-27.3168 5.3547-27.28404 5.43698-27.25128 5.51926-27.19873 5.64728-27.16597 5.72505-27.13321 5.80283-27.08064 5.92363-27.04788 5.99756-27.01512 6.07149-26.96255 6.18732-26.9298 6.25795-26.89703 6.32858-26.84448 6.43898-26.81172 6.50665-26.77896 6.57433-26.7264 6.68103-26.69363 6.74583-26.66087 6.81064-26.60832 6.91151-26.57556 6.9738-26.5428 7.03607-26.49023 7.1345-26.45747 7.19481-26.42471 7.25513-26.37215 7.35016-26.33939 7.4085-26.30663 7.46683-26.25407 7.55879-26.22131 7.61525-26.18855 7.67172-26.13597 7.76073-26.10323 7.8155-26.07047 7.8703-26.0179 7.95706-25.98514 8.01016-25.95238 8.06326-25.89981 8.14664-25.86705 8.19832-25.83429 8.24998-25.78172 8.33223-25.74896 8.38258-25.7162 8.43292-25.66365 8.51225-25.63089 8.56122-25.59813 8.61018-25.5128 8.73552-25.5128 8.73552"/>
<path transform="matrix(1.00003,0,0,-1,87.33705,87.038)" stroke-width=".99628" stroke-linecap="butt" stroke-miterlimit="10" stroke-linejoin="miter" fill="none" stroke="#0074c8" d="M-25.51193 8.73726C-25.51193 8.73726-23.97595 10.70009-23.38602 11.32729-22.79608 11.9545-21.85002 12.77744-21.2601 13.25772-20.67017 13.73799-19.7241 14.40355-19.13417 14.7889-18.54425 15.17422-17.59816 15.72003-17.00824 16.03503-16.4183 16.35004-15.47224 16.80058-14.88232 17.05928-14.29239 17.318-13.34633 17.6885-12.7564 17.8997-12.16647 18.11089-11.2204 18.41197-10.63048 18.58139-10.04054 18.7508-9.09447 18.98915-8.50455 19.12076-7.91461 19.25235-6.96855 19.43333-6.37862 19.52994-5.7887 19.62656-4.84262 19.7536-4.2527 19.81714-3.66277 19.88068-2.7167 19.9565-2.12679 19.98799-1.53685 20.01949-.59077 20.04422-.00084 20.04422 .58907 20.04422 1.53513 20.01949 2.12505 19.98799 2.71498 19.9565 3.66104 19.88062 4.25096 19.81714 4.8409 19.75366 5.78696 19.62692 6.37689 19.53036 6.96681 19.43382 7.9129 19.25279 8.50282 19.12119 9.09276 18.9896 10.03882 18.75116 10.62874 18.58182 11.21867 18.41246 12.16473 18.1117 12.75467 17.90056 13.34459 17.68944 14.29066 17.3188 14.88058 17.06015 15.47052 16.80151 16.41658 16.35133 17.0065 16.03633 17.59644 15.72133 18.54251 15.17503 19.13245 14.78975 19.72237 14.40448 20.66844 13.73955 21.25836 13.25943 21.8483 12.77933 22.79436 11.95659 23.38428 11.32945 23.97421 10.7023 25.51021 8.73941 25.51021 8.73941"/>
<path transform="matrix(1.00003,0,0,-1,87.33705,87.038)" stroke-width=".99628" stroke-linecap="butt" stroke-miterlimit="10" stroke-linejoin="miter" fill="none" stroke="#0074c8" d="M-25.51193-8.73726C-25.51193-8.73726-23.97595-10.70009-23.38602-11.32729-22.79608-11.9545-21.85002-12.77744-21.2601-13.25772-20.67017-13.73799-19.7241-14.40355-19.13417-14.7889-18.54425-15.17422-17.59816-15.72003-17.00824-16.03503-16.4183-16.35004-15.47224-16.80058-14.88232-17.05928-14.29239-17.318-13.34633-17.6885-12.7564-17.8997-12.16647-18.11089-11.2204-18.41197-10.63048-18.58139-10.04054-18.7508-9.09447-18.98915-8.50455-19.12076-7.91461-19.25235-6.96855-19.43333-6.37862-19.52994-5.7887-19.62656-4.84262-19.7536-4.2527-19.81714-3.66277-19.88068-2.7167-19.9565-2.12679-19.98799-1.53685-20.01949-.59077-20.04422-.00084-20.04422 .58907-20.04422 1.53513-20.01949 2.12505-19.98799 2.71498-19.9565 3.66104-19.88062 4.25096-19.81714 4.8409-19.75366 5.78696-19.62692 6.37689-19.53036 6.96681-19.43382 7.9129-19.25279 8.50282-19.12119 9.09276-18.9896 10.03882-18.75116 10.62874-18.58182 11.21867-18.41246 12.16473-18.1117 12.75467-17.90056 13.34459-17.68944 14.29066-17.3188 14.88058-17.06015 15.47052-16.80151 16.41658-16.35133 17.0065-16.03633 17.59644-15.72133 18.54251-15.17503 19.13245-14.78975 19.72237-14.40448 20.66844-13.73955 21.25836-13.25943 21.8483-12.77933 22.79436-11.95659 23.38428-11.32945 23.97421-10.7023 25.51021-8.73941 25.51021-8.73941"/>
<path transform="matrix(1.00003,0,0,-1,87.33705,87.038)" stroke-width=".99628" stroke-linecap="butt" stroke-miterlimit="10" stroke-linejoin="miter" fill="none" stroke="#0074c8" d="M-28.3468 0C-28.3468 0-28.26147-1.46788-28.22871-1.82616-28.19595-2.18445-28.14339-2.39732-28.11063-2.58223-28.07787-2.76714-28.02531-3.01149-27.99255-3.15881-27.9598-3.30614-27.90723-3.51779-27.87447-3.64412-27.8417-3.77045-27.78915-3.9569-27.7564-4.0693-27.72363-4.1817-27.67107-4.35225-27.6383-4.45427-27.60555-4.55629-27.55296-4.71059-27.5202-4.80463-27.48744-4.89867-27.43489-5.04431-27.40213-5.13205-27.36937-5.21977-27.3168-5.3547-27.28404-5.43698-27.25128-5.51926-27.19873-5.64728-27.16597-5.72505-27.13321-5.80283-27.08064-5.92363-27.04788-5.99756-27.01512-6.07149-26.96255-6.18732-26.9298-6.25795-26.89703-6.32858-26.84448-6.43898-26.81172-6.50665-26.77896-6.57433-26.7264-6.68103-26.69363-6.74583-26.66087-6.81064-26.60832-6.91151-26.57556-6.9738-26.5428-7.03607-26.49023-7.1345-26.45747-7.19481-26.42471-7.25513-26.37215-7.35016-26.33939-7.4085-26.30663-7.46683-26.25407-7.55879-26.22131-7.61525-26.18855-7.67172-26.13597-7.76073-26.10323-7.8155-26.07047-7.8703-26.0179-7.95706-25.98514-8.01016-25.95238-8.06326-25.89981-8.14664-25.86705-8.19832-25.83429-8.24998-25.78172-8.33223-25.74896-8.38258-25.7162-8.43292-25.66365-8.51225-25.63089-8.56122-25.59813-8.61018-25.5128-8.73552-25.5128-8.73552"/>
<use data-text="z" xlink:href="#font_1_3" transform="matrix(9.962899,0,0,-9.9626,98.24238,76.075008)" fill="#0074c8"/>
<use data-text="=" xlink:href="#font_2_5" transform="matrix(9.962899,0,0,-9.9626,106.08163,76.075008)" fill="#0074c8"/>
<use data-text="1" xlink:href="#font_2_1" transform="matrix(9.962899,0,0,-9.9626,116.58253,76.075008)" fill="#0074c8"/>
<path transform="matrix(1.00003,0,0,-1,87.33705,87.038)" stroke-width=".99628" stroke-linecap="butt" stroke-miterlimit="10" stroke-linejoin="miter" fill="none" stroke="#0074c8" d="M25.51193-8.73726C25.51193-8.73726 25.59726-8.61147 25.63002-8.5625 25.66278-8.51353 25.71535-8.43459 25.7481-8.3843 25.78085-8.334 25.83344-8.25189 25.8662-8.20004 25.89896-8.14821 25.95152-8.06369 25.98428-8.01059 26.01704-7.95749 26.0696-7.87186 26.10236-7.81725 26.13512-7.76263 26.18768-7.67343 26.22044-7.61697 26.2532-7.56052 26.30576-7.46855 26.33852-7.41023 26.37128-7.3519 26.42384-7.25685 26.4566-7.19655 26.48936-7.13625 26.54193-7.038 26.57469-6.97552 26.60745-6.91306 26.66-6.81108 26.69276-6.74628 26.72552-6.68147 26.77809-6.5759 26.81085-6.50839 26.84361-6.44087 26.89616-6.33025 26.92892-6.25967 26.96169-6.18912 27.01425-6.07365 27.04701-5.99973 27.07977-5.9258 27.13234-5.80457 27.1651-5.72679 27.19786-5.64902 27.25043-5.52142 27.28319-5.43915 27.31595-5.35689 27.36852-5.22145 27.40128-5.13377 27.43404-5.04611 27.48659-4.90135 27.51935-4.8072 27.55211-4.71306 27.60468-4.5569 27.63744-4.45512 27.6702-4.35335 27.72276-4.18565 27.75552-4.07362 27.78828-3.96158 27.84084-3.77394 27.8736-3.64757 27.90636-3.5212 27.95892-3.30984 27.99168-3.1627 28.02444-3.01556 28.077-2.77153 28.10976-2.58699 28.14252-2.40245 28.19508-2.1701 28.22784-1.83266 28.2606-1.4952 28.34593-.15485 28.34593-.15485"/>
<path transform="matrix(1.00003,0,0,-1,87.33705,87.038)" stroke-width=".99628" stroke-linecap="butt" stroke-miterlimit="10" stroke-linejoin="miter" fill="none" stroke="#0074c8" d="M-51.02432 17.47365C-51.02432 17.47365-47.95235 21.40005-46.77248 22.65459-45.5926 23.90912-43.7005 25.55492-42.52063 26.51544-41.34076 27.47595-39.44864 28.80667-38.26878 29.57738-37.08893 30.34807-35.19681 31.44-34.01694 32.07008-32.83707 32.70016-30.94496 33.60109-29.76509 34.11858-28.58522 34.63608-26.69312 35.37755-25.51324 35.79987-24.33337 36.22217-22.44125 36.82364-21.26138 37.16235-20.08151 37.50107-18.18942 37.97777-17.00955 38.2411-15.82968 38.50443-13.93756 38.86703-12.75769 39.06033-11.57782 39.25363-9.68571 39.50739-8.50584 39.63431-7.32597 39.76123-5.43387 39.91214-4.254 39.97514-3.07413 40.03816-1.182 40.08841-.00215 40.08847 1.17769 40.08853 3.06982 40.03848 4.24968 39.97559 5.42953 39.91269 7.32164 39.76208 8.50151 39.63516 9.68138 39.50824 11.5735 39.254 12.75337 39.06076 13.93324 38.86752 15.82535 38.5056 17.00522 38.24239 18.18509 37.97919 20.0772 37.50237 21.25706 37.16365 22.43694 36.82494 24.32904 36.22334 25.50891 35.80115 26.68878 35.37897 28.5809 34.6381 29.76077 34.12074 30.94064 33.60338 32.83275 32.70226 34.0126 32.07225 35.19246 31.44223 37.08458 30.35046 38.26445 29.57996 39.44432 28.80945 41.33644 27.47911 42.51631 26.51889 43.69618 25.55867 45.58827 23.91345 46.76814 22.65935 47.94801 21.40524 51.02 17.48013 51.02 17.48013"/>
<path transform="matrix(1.00003,0,0,-1,87.33705,87.038)" stroke-width=".99628" stroke-linecap="butt" stroke-miterlimit="10" stroke-linejoin="miter" fill="none" stroke="#0074c8" d="M-56.69362 0C-56.69362 0-56.52296 2.93887-56.45743 3.65536-56.39189 4.37187-56.28679 4.79462-56.22127 5.16406-56.15575 5.5335-56.05063 6.0234-55.9851 6.31807-55.91959 6.61273-55.81447 7.03517-55.74895 7.28783-55.68343 7.54048-55.57832 7.91449-55.51279 8.13905-55.44725 8.36362-55.34215 8.70227-55.27661 8.90637-55.21107 9.11047-55.10596 9.42198-55.04044 9.61012-54.97491 9.79826-54.8698 10.08702-54.80428 10.26237-54.73875 10.43773-54.63364 10.7092-54.56812 10.87398-54.5026 11.03877-54.39749 11.2944-54.33195 11.45013-54.26642 11.60587-54.16132 11.84856-54.09578 11.99641-54.03024 12.14429-53.92514 12.37482-53.85962 12.5159-53.7941 12.657-53.68896 12.87823-53.62344 13.01332-53.55794 13.1484-53.4528 13.3598-53.38728 13.48955-53.32176 13.6193-53.21666 13.82347-53.15112 13.94847-53.08559 14.07349-52.98048 14.26997-52.91495 14.39052-52.84941 14.51108-52.74431 14.70096-52.67879 14.81744-52.61327 14.93391-52.50815 15.11726-52.44263 15.23007-52.3771 15.3429-52.27197 15.52109-52.20647 15.6306-52.14095 15.74013-52.03583 15.91312-51.97029 16.01945-51.90475 16.1258-51.79965 16.29369-51.73412 16.39708-51.66858 16.50046-51.56348 16.66402-51.49796 16.76472-51.43243 16.86542-51.32732 17.02475-51.2618 17.12286-51.19627 17.22098-51.02563 17.47192-51.02563 17.47192"/>
<path transform="matrix(1.00003,0,0,-1,87.33705,87.038)" stroke-width=".99628" stroke-linecap="butt" stroke-miterlimit="10" stroke-linejoin="miter" fill="none" stroke="#0074c8" d="M51.02432 17.47365C51.02432 17.47365 51.19496 17.22264 51.2605 17.12459 51.32603 17.02654 51.43114 16.86752 51.49666 16.76689 51.56218 16.66626 51.66731 16.50262 51.73283 16.39923 51.79834 16.29584 51.90347 16.12798 51.969 16.02164 52.03452 15.9153 52.13962 15.74223 52.20515 15.63278 52.27069 15.52333 52.3758 15.34549 52.44133 15.23268 52.50687 15.11986 52.61197 14.93613 52.67749 14.8196 52.74301 14.70306 52.84813 14.5132 52.91365 14.3927 52.97917 14.27219 53.0843 14.07594 53.14981 13.95107 53.21533 13.82617 53.32045 13.62231 53.38599 13.49257 53.45152 13.36282 53.55663 13.151 53.62216 13.01591 53.6877 12.88083 53.7928 12.66002 53.85832 12.51892 53.92384 12.37784 54.02896 12.14696 54.09448 11.99902 54.16 11.85109 54.26512 11.60832 54.33064 11.45273 54.39616 11.29712 54.50127 11.04205 54.5668 10.87744 54.63234 10.71284 54.73746 10.44162 54.803 10.26627 54.86853 10.09091 54.97363 9.80165 55.03915 9.61357 55.10468 9.42549 55.2098 9.11467 55.27531 8.91069 55.34084 8.70671 55.44595 8.36775 55.51147 8.14337 55.577 7.91899 55.6821 7.54604 55.74763 7.29344 55.81317 7.04085 55.91827 6.61731 55.98381 6.32283 56.04935 6.02835 56.15446 5.5397 56.21999 5.17097 56.2855 4.80225 56.39063 4.34549 56.45615 3.66531 56.52167 2.98512 56.6923 .2686 56.6923 .2686"/>
<use data-text="z" xlink:href="#font_1_3" transform="matrix(9.962899,0,0,-9.9626,116.66893,61.901)" fill="#0074c8"/>
<use data-text="=" xlink:href="#font_2_5" transform="matrix(9.962899,0,0,-9.9626,124.50818,61.901)" fill="#0074c8"/>
<use data-text="4" xlink:href="#font_2_3" transform="matrix(9.962899,0,0,-9.9626,135.00908,61.901)" fill="#0074c8"/>
<path transform="matrix(1.00003,0,0,-1,87.33705,87.038)" stroke-width=".99628" stroke-linecap="butt" stroke-miterlimit="10" stroke-linejoin="miter" fill="none" stroke="#0074c8" d="M-51.02432-17.47365C-51.02432-17.47365-47.95235-21.40005-46.77248-22.65459-45.5926-23.90912-43.7005-25.55492-42.52063-26.51544-41.34076-27.47595-39.44864-28.80667-38.26878-29.57738-37.08893-30.34807-35.19681-31.44-34.01694-32.07008-32.83707-32.70016-30.94496-33.60109-29.76509-34.11858-28.58522-34.63608-26.69312-35.37755-25.51324-35.79987-24.33337-36.22217-22.44125-36.82364-21.26138-37.16235-20.08151-37.50107-18.18942-37.97777-17.00955-38.2411-15.82968-38.50443-13.93756-38.86703-12.75769-39.06033-11.57782-39.25363-9.68571-39.50739-8.50584-39.63431-7.32597-39.76123-5.43387-39.91214-4.254-39.97514-3.07413-40.03816-1.182-40.08841-.00215-40.08847 1.17769-40.08853 3.06982-40.03848 4.24968-39.97559 5.42953-39.91269 7.32164-39.76208 8.50151-39.63516 9.68138-39.50824 11.5735-39.254 12.75337-39.06076 13.93324-38.86752 15.82535-38.5056 17.00522-38.24239 18.18509-37.97919 20.0772-37.50237 21.25706-37.16365 22.43694-36.82494 24.32904-36.22334 25.50891-35.80115 26.68878-35.37897 28.5809-34.6381 29.76077-34.12074 30.94064-33.60338 32.83275-32.70226 34.0126-32.07225 35.19246-31.44223 37.08458-30.35046 38.26445-29.57996 39.44432-28.80945 41.33644-27.47911 42.51631-26.51889 43.69618-25.55867 45.58827-23.91345 46.76814-22.65935 47.94801-21.40524 51.02-17.48013 51.02-17.48013"/>
<path transform="matrix(1.00003,0,0,-1,87.33705,87.038)" stroke-width=".99628" stroke-linecap="butt" stroke-miterlimit="10" stroke-linejoin="miter" fill="none" stroke="#0074c8" d="M51.02432-17.47365C51.02432-17.47365 51.19496-17.22264 51.2605-17.12459 51.32603-17.02654 51.43114-16.86752 51.49666-16.76689 51.56218-16.66626 51.66731-16.50262 51.73283-16.39923 51.79834-16.29584 51.90347-16.12798 51.969-16.02164 52.03452-15.9153 52.13962-15.74223 52.20515-15.63278 52.27069-15.52333 52.3758-15.34549 52.44133-15.23268 52.50687-15.11986 52.61197-14.93613 52.67749-14.8196 52.74301-14.70306 52.84813-14.5132 52.91365-14.3927 52.97917-14.27219 53.0843-14.07594 53.14981-13.95107 53.21533-13.82617 53.32045-13.62231 53.38599-13.49257 53.45152-13.36282 53.55663-13.151 53.62216-13.01591 53.6877-12.88083 53.7928-12.66002 53.85832-12.51892 53.92384-12.37784 54.02896-12.14696 54.09448-11.99902 54.16-11.85109 54.26512-11.60832 54.33064-11.45273 54.39616-11.29712 54.50127-11.04205 54.5668-10.87744 54.63234-10.71284 54.73746-10.44162 54.803-10.26627 54.86853-10.09091 54.97363-9.80165 55.03915-9.61357 55.10468-9.42549 55.2098-9.11467 55.27531-8.91069 55.34084-8.70671 55.44595-8.36775 55.51147-8.14337 55.577-7.91899 55.6821-7.54604 55.74763-7.29344 55.81317-7.04085 55.91827-6.61731 55.98381-6.32283 56.04935-6.02835 56.15446-5.5397 56.21999-5.17097 56.2855-4.80225 56.39063-4.34549 56.45615-3.66531 56.52167-2.98512 56.6923-.2686 56.6923-.2686"/>
<path transform="matrix(1.00003,0,0,-1,87.33705,87.038)" stroke-width=".99628" stroke-linecap="butt" stroke-miterlimit="10" stroke-linejoin="miter" fill="none" stroke="#0074c8" d="M-56.69362 0C-56.69362 0-56.52296-2.93887-56.45743-3.65536-56.39189-4.37187-56.28679-4.79462-56.22127-5.16406-56.15575-5.5335-56.05063-6.0234-55.9851-6.31807-55.91959-6.61273-55.81447-7.03517-55.74895-7.28783-55.68343-7.54048-55.57832-7.91449-55.51279-8.13905-55.44725-8.36362-55.34215-8.70227-55.27661-8.90637-55.21107-9.11047-55.10596-9.42198-55.04044-9.61012-54.97491-9.79826-54.8698-10.08702-54.80428-10.26237-54.73875-10.43773-54.63364-10.7092-54.56812-10.87398-54.5026-11.03877-54.39749-11.2944-54.33195-11.45013-54.26642-11.60587-54.16132-11.84856-54.09578-11.99641-54.03024-12.14429-53.92514-12.37482-53.85962-12.5159-53.7941-12.657-53.68896-12.87823-53.62344-13.01332-53.55794-13.1484-53.4528-13.3598-53.38728-13.48955-53.32176-13.6193-53.21666-13.82347-53.15112-13.94847-53.08559-14.07349-52.98048-14.26997-52.91495-14.39052-52.84941-14.51108-52.74431-14.70096-52.67879-14.81744-52.61327-14.93391-52.50815-15.11726-52.44263-15.23007-52.3771-15.3429-52.27197-15.52109-52.20647-15.6306-52.14095-15.74013-52.03583-15.91312-51.97029-16.01945-51.90475-16.1258-51.79965-16.29369-51.73412-16.39708-51.66858-16.50046-51.56348-16.66402-51.49796-16.76472-51.43243-16.86542-51.32732-17.02475-51.2618-17.12286-51.19627-17.22098-51.02563-17.47192-51.02563-17.47192"/>
<path transform="matrix(1.00003,0,0,-1,87.33705,87.038)" stroke-width=".99628" stroke-linecap="butt" stroke-miterlimit="10" stroke-linejoin="miter" fill="none" stroke="#0074c8" d="M-56.69362 34.71765C-56.69362 34.71765-53.28038 37.33836-51.96944 38.23592-50.6585 39.13347-48.5562 40.43071-47.24525 41.18668-45.93431 41.94266-43.83202 43.04384-42.52107 43.6846-41.21013 44.32536-39.10783 45.26207-37.79689 45.80489-36.48595 46.3477-34.38365 47.14008-33.07271 47.5969-31.76176 48.05373-29.65947 48.71785-28.34853 49.09737-27.03758 49.47688-24.93527 50.0238-23.62434 50.33228-22.31342 50.64073-20.2111 51.07872-18.90018 51.32062-17.58925 51.56253-15.48694 51.89705-14.176 52.07584-12.86505 52.25461-10.76276 52.4911-9.45181 52.60915-8.14087 52.72719-6.03857 52.868-4.72763 52.92664-3.41669 52.98528-1.31438 53.03174-.00345 53.03174 1.30746 53.03174 3.40977 52.98521 4.7207 52.92664 6.03163 52.86806 8.13396 52.72751 9.44489 52.60959 10.75581 52.49167 12.85812 52.25542 14.16905 52.07669 15.47998 51.89798 17.58229 51.56332 18.89323 51.32147 20.20418 51.07962 22.30647 50.64185 23.61742 50.33356 24.92836 50.02528 27.03065 49.47888 28.3416 49.09953 29.65254 48.7202 31.75484 48.05626 33.06578 47.5995 34.37672 47.14275 36.47902 46.35019 37.78996 45.8075 39.1009 45.2648 41.2032 44.32863 42.51414 43.68805 43.82509 43.04747 45.9274 41.94644 47.23833 41.19057 48.54926 40.43471 50.65157 39.13754 51.9625 38.24023 53.27342 37.34293 56.68668 34.72327 56.68668 34.72327"/>
<path transform="matrix(1.00003,0,0,-1,87.33705,87.038)" stroke-width=".99628" stroke-linecap="butt" stroke-miterlimit="10" stroke-linejoin="miter" fill="none" stroke="#0074c8" d="M-74.99861 0C-74.99861 0-74.44763 6.06712-74.23604 7.54344-74.02444 9.01976-73.68507 9.88353-73.47348 10.64043-73.26189 11.39731-72.92252 12.39787-72.71092 12.99861-72.49933 13.59935-72.15996 14.45744-71.94835 14.97012-71.73676 15.48282-71.39738 16.2402-71.18579 16.69379-70.9742 17.14737-70.63481 17.82924-70.42322 18.23924-70.21162 18.64926-69.87225 19.27272-69.66066 19.64888-69.44907 20.02504-69.1097 20.60173-68.8981 20.9504-68.6865 21.29907-68.34712 21.83614-68.13553 22.16194-67.92393 22.48775-67.58456 22.99222-67.37297 23.29865-67.16138 23.60507-66.822 24.08096-66.61041 24.37047-66.39882 24.65997-66.05943 25.11053-65.84784 25.38521-65.63623 25.6599-65.29688 26.08861-65.08527 26.3502-64.87367 26.6118-64.5343 27.02087-64.32271 27.27065-64.11111 27.5204-63.77174 27.9114-63.56015 28.15042-63.34856 28.38945-63.00919 28.76413-62.79759 28.99344-62.58598 29.22275-62.24661 29.58278-62.035 29.80315-61.82341 30.02351-61.48404 30.3697-61.27245 30.58173-61.06085 30.79375-60.72148 31.12689-60.50989 31.3313-60.2983 31.5357-59.95892 31.85762-59.74733 32.05495-59.53572 32.25227-59.19637 32.56288-58.98476 32.7535-58.77316 32.94409-58.43378 33.2444-58.22218 33.42868-58.01059 33.61298-57.67122 33.9034-57.45963 34.0818-57.24803 34.26022-56.69707 34.71461-56.69707 34.71461"/>
<path transform="matrix(1.00003,0,0,-1,87.33705,87.038)" stroke-width=".99628" stroke-linecap="butt" stroke-miterlimit="10" stroke-linejoin="miter" fill="none" stroke="#0074c8" d="M56.69362 34.71765C56.69362 34.71765 57.24458 34.26326 57.45618 34.08485 57.66777 33.90643 58.00714 33.61601 58.21873 33.43172 58.43033 33.24742 58.7697 32.94711 58.9813 32.75652 59.19289 32.56592 59.53226 32.25523 59.74387 32.05797 59.95546 31.8607 60.29483 31.53917 60.50642 31.33476 60.71802 31.13036 61.0574 30.79683 61.269 30.58475 61.48059 30.37267 61.81996 30.02649 62.03156 29.80618 62.24315 29.58588 62.58252 29.22609 62.79411 28.9969 63.00572 28.76772 63.3451 28.3933 63.55669 28.15431 63.76828 27.91534 64.10765 27.52419 64.31924 27.27454 64.53084 27.02489 64.87022 26.6165 65.08182 26.35497 65.29341 26.09343 65.63278 25.66426 65.84438 25.38953 66.05598 25.1148 66.39534 24.66423 66.60695 24.3748 66.81854 24.08537 67.15791 23.60965 67.3695 23.3034 67.5811 22.99716 67.92047 22.49332 68.13206 22.16756 68.34366 21.84181 68.68303 21.30414 68.89462 20.95558 69.10623 20.60704 69.4456 20.0313 69.65721 19.65538 69.8688 19.27946 70.20818 18.65611 70.41977 18.24617 70.63136 17.83621 70.97073 17.15404 71.18233 16.7007 71.39392 16.24736 71.73329 15.49117 71.94489 14.97878 72.1565 14.4664 72.49585 13.60796 72.70746 13.0077 72.91905 12.40746 73.25844 11.40828 73.47003 10.65254 73.68163 9.89679 74.021 8.96841 74.23259 7.56075 74.44418 6.15308 74.99515 .50691 74.99515 .50691"/>
<path transform="matrix(1.00003,0,0,-1,87.33705,87.038)" stroke-width=".99628" stroke-linecap="butt" stroke-miterlimit="10" stroke-linejoin="miter" fill="none" stroke="#0074c8" d="M-56.69362-34.71765C-56.69362-34.71765-53.28038-37.33836-51.96944-38.23592-50.6585-39.13347-48.5562-40.43071-47.24525-41.18668-45.93431-41.94266-43.83202-43.04384-42.52107-43.6846-41.21013-44.32536-39.10783-45.26207-37.79689-45.80489-36.48595-46.3477-34.38365-47.14008-33.07271-47.5969-31.76176-48.05373-29.65947-48.71785-28.34853-49.09737-27.03758-49.47688-24.93527-50.0238-23.62434-50.33228-22.31342-50.64073-20.2111-51.07872-18.90018-51.32062-17.58925-51.56253-15.48694-51.89705-14.176-52.07584-12.86505-52.25461-10.76276-52.4911-9.45181-52.60915-8.14087-52.72719-6.03857-52.868-4.72763-52.92664-3.41669-52.98528-1.31438-53.03174-.00345-53.03174 1.30746-53.03174 3.40977-52.98521 4.7207-52.92664 6.03163-52.86806 8.13396-52.72751 9.44489-52.60959 10.75581-52.49167 12.85812-52.25542 14.16905-52.07669 15.47998-51.89798 17.58229-51.56332 18.89323-51.32147 20.20418-51.07962 22.30647-50.64185 23.61742-50.33356 24.92836-50.02528 27.03065-49.47888 28.3416-49.09953 29.65254-48.7202 31.75484-48.05626 33.06578-47.5995 34.37672-47.14275 36.47902-46.35019 37.78996-45.8075 39.1009-45.2648 41.2032-44.32863 42.51414-43.68805 43.82509-43.04747 45.9274-41.94644 47.23833-41.19057 48.54926-40.43471 50.65157-39.13754 51.9625-38.24023 53.27342-37.34293 56.68668-34.72327 56.68668-34.72327"/>
<path transform="matrix(1.00003,0,0,-1,87.33705,87.038)" stroke-width=".99628" stroke-linecap="butt" stroke-miterlimit="10" stroke-linejoin="miter" fill="none" stroke="#0074c8" d="M-56.69362-34.71765C-56.69362-34.71765-57.24458-34.26326-57.45618-34.08485-57.66777-33.90643-58.00714-33.61601-58.21873-33.43172-58.43033-33.24742-58.7697-32.94711-58.9813-32.75652-59.19289-32.56592-59.53226-32.25523-59.74387-32.05797-59.95546-31.8607-60.29483-31.53917-60.50642-31.33476-60.71802-31.13036-61.0574-30.79683-61.269-30.58475-61.48059-30.37267-61.81996-30.02649-62.03156-29.80618-62.24315-29.58588-62.58252-29.22609-62.79411-28.9969-63.00572-28.76772-63.3451-28.3933-63.55669-28.15431-63.76828-27.91534-64.10765-27.52419-64.31924-27.27454-64.53084-27.02489-64.87022-26.6165-65.08182-26.35497-65.29341-26.09343-65.63278-25.66426-65.84438-25.38953-66.05598-25.1148-66.39534-24.66423-66.60695-24.3748-66.81854-24.08537-67.15791-23.60965-67.3695-23.3034-67.5811-22.99716-67.92047-22.49332-68.13206-22.16756-68.34366-21.84181-68.68303-21.30414-68.89462-20.95558-69.10623-20.60704-69.4456-20.0313-69.65721-19.65538-69.8688-19.27946-70.20818-18.65611-70.41977-18.24617-70.63136-17.83621-70.97073-17.15404-71.18233-16.7007-71.39392-16.24736-71.73329-15.49117-71.94489-14.97878-72.1565-14.4664-72.49585-13.60796-72.70746-13.0077-72.91905-12.40746-73.25844-11.40828-73.47003-10.65254-73.68163-9.89679-74.021-8.96841-74.23259-7.56075-74.44418-6.15308-74.99515-.50691-74.99515-.50691"/>
<path transform="matrix(1.00003,0,0,-1,87.33705,87.038)" stroke-width=".99628" stroke-linecap="butt" stroke-miterlimit="10" stroke-linejoin="miter" fill="none" stroke="#0074c8" d="M56.69362-34.71765C56.69362-34.71765 57.24458-34.26326 57.45618-34.08485 57.66777-33.90643 58.00714-33.61601 58.21873-33.43172 58.43033-33.24742 58.7697-32.94711 58.9813-32.75652 59.19289-32.56592 59.53226-32.25523 59.74387-32.05797 59.95546-31.8607 60.29483-31.53917 60.50642-31.33476 60.71802-31.13036 61.0574-30.79683 61.269-30.58475 61.48059-30.37267 61.81996-30.02649 62.03156-29.80618 62.24315-29.58588 62.58252-29.22609 62.79411-28.9969 63.00572-28.76772 63.3451-28.3933 63.55669-28.15431 63.76828-27.91534 64.10765-27.52419 64.31924-27.27454 64.53084-27.02489 64.87022-26.6165 65.08182-26.35497 65.29341-26.09343 65.63278-25.66426 65.84438-25.38953 66.05598-25.1148 66.39534-24.66423 66.60695-24.3748 66.81854-24.08537 67.15791-23.60965 67.3695-23.3034 67.5811-22.99716 67.92047-22.49332 68.13206-22.16756 68.34366-21.84181 68.68303-21.30414 68.89462-20.95558 69.10623-20.60704 69.4456-20.0313 69.65721-19.65538 69.8688-19.27946 70.20818-18.65611 70.41977-18.24617 70.63136-17.83621 70.97073-17.15404 71.18233-16.7007 71.39392-16.24736 71.73329-15.49117 71.94489-14.97878 72.1565-14.4664 72.49585-13.60796 72.70746-13.0077 72.91905-12.40746 73.25844-11.40828 73.47003-10.65254 73.68163-9.89679 74.021-8.96841 74.23259-7.56075 74.44418-6.15308 74.99515-.50691 74.99515-.50691"/>
<use data-text="z" xlink:href="#font_1_3" transform="matrix(9.962899,0,0,-9.9626,147.85088,47.728)" fill="#0074c8"/>
<use data-text="=" xlink:href="#font_2_5" transform="matrix(9.962899,0,0,-9.9626,155.69013,47.728)" fill="#0074c8"/>
<use data-text="7" xlink:href="#font_2_4" transform="matrix(9.962899,0,0,-9.9626,166.19103,47.728)" fill="#0074c8"/>
<path transform="matrix(1.00003,0,0,-1,87.33705,87.038)" stroke-width=".79701" stroke-linecap="butt" stroke-miterlimit="10" stroke-linejoin="miter" fill="none" stroke="#000000" d="M-56.69362 2.98883V-2.98883"/>
<use data-text="&#x2212;" xlink:href="#font_3_1" transform="matrix(9.962899,0,0,-9.9626,24.276154,100.166)"/>
<use data-text="2" xlink:href="#font_2_2" transform="matrix(9.962899,0,0,-9.9626,32.02539,100.166)"/>
<path transform="matrix(1.00003,0,0,-1,87.33705,87.038)" stroke-width=".79701" stroke-linecap="butt" stroke-miterlimit="10" stroke-linejoin="miter" fill="none" stroke="#000000" d="M-28.3468 2.98883V-2.98883"/>
<use data-text="&#x2212;" xlink:href="#font_3_1" transform="matrix(9.962899,0,0,-9.9626,52.62401,100.166)"/>
<use data-text="1" xlink:href="#font_2_1" transform="matrix(9.962899,0,0,-9.9626,60.373247,100.166)"/>
<path transform="matrix(1.00003,0,0,-1,87.33705,87.038)" stroke-width=".79701" stroke-linecap="butt" stroke-miterlimit="10" stroke-linejoin="miter" fill="none" stroke="#000000" d="M28.3468 2.98883V-2.98883"/>
<use data-text="1" xlink:href="#font_2_1" transform="matrix(9.962899,0,0,-9.9626,113.19383,100.166)"/>
<path transform="matrix(1.00003,0,0,-1,87.33705,87.038)" stroke-width=".79701" stroke-linecap="butt" stroke-miterlimit="10" stroke-linejoin="miter" fill="none" stroke="#000000" d="M56.69362 2.98883V-2.98883"/>
<use data-text="2" xlink:href="#font_2_2" transform="matrix(9.962899,0,0,-9.9626,141.54169,100.166)"/>
<path transform="matrix(1.00003,0,0,-1,87.33705,87.038)" stroke-width=".79701" stroke-linecap="butt" stroke-miterlimit="10" stroke-linejoin="miter" fill="none" stroke="#000000" d="M-1.99255-56.69362H1.99255"/>
<use data-text="&#x2212;" xlink:href="#font_3_1" transform="matrix(9.962899,0,0,-9.9626,72.879619,146.52701)"/>
<use data-text="2" xlink:href="#font_2_2" transform="matrix(9.962899,0,0,-9.9626,80.62885,146.52701)"/>
<path transform="matrix(1.00003,0,0,-1,87.33705,87.038)" stroke-width=".79701" stroke-linecap="butt" stroke-miterlimit="10" stroke-linejoin="miter" fill="none" stroke="#000000" d="M-1.99255-28.3468H1.99255"/>
<use data-text="&#x2212;" xlink:href="#font_3_1" transform="matrix(9.962899,0,0,-9.9626,72.879619,118.18)"/>
<use data-text="1" xlink:href="#font_2_1" transform="matrix(9.962899,0,0,-9.9626,80.62885,118.18)"/>
<path transform="matrix(1.00003,0,0,-1,87.33705,87.038)" stroke-width=".79701" stroke-linecap="butt" stroke-miterlimit="10" stroke-linejoin="miter" fill="none" stroke="#000000" d="M-1.99255 28.3468H1.99255"/>
<use data-text="1" xlink:href="#font_2_1" transform="matrix(9.962899,0,0,-9.9626,80.62885,61.901)"/>
<path transform="matrix(1.00003,0,0,-1,87.33705,87.038)" stroke-width=".79701" stroke-linecap="butt" stroke-miterlimit="10" stroke-linejoin="miter" fill="none" stroke="#000000" d="M-1.99255 56.69362H1.99255"/>
<use data-text="2" xlink:href="#font_2_2" transform="matrix(9.962899,0,0,-9.9626,80.62885,33.555)"/>
</svg>
