<svg xmlns="http://www.w3.org/2000/svg" xmlns:xlink="http://www.w3.org/1999/xlink" version="1.1" width="157pt" height="201pt" viewBox="0 0 157 201">
<defs>
<path id="font_1_2" d="M.2939911 .64004519C.2939911 .66400149 .2939911 .6660156 .2709961 .6660156 .20899964 .60227969 .12098694 .60227969 .08898926 .60227969V.57128909C.10899353 .57128909 .16799927 .57128909 .21998596 .5972748V.07902527C.21998596 .042999269 .21699524 .0309906 .1269989 .0309906H.09498596V0C.12998963 .0029907227 .21699524 .0029907227 .25698854 .0029907227 .29699708 .0029907227 .38398744 .0029907227 .4189911 0V.0309906H.3869934C.29699708 .0309906 .2939911 .041992189 .2939911 .07902527V.64004519Z"/>
<path id="font_1_1" d="M.45999146 .31976319C.45999146 .39982606 .45498658 .47988893 .41999818 .5539398 .37399293 .65000918 .2919922 .6660156 .25 .6660156 .18998719 .6660156 .116989139 .64001467 .07598877 .54693606 .04399109 .47789 .038986207 .39982606 .038986207 .31976319 .038986207 .24472046 .042999269 .15464783 .083999637 .07859802 .1269989-.0024719239 .19999695-.022460938 .24899292-.022460938 .30299378-.022460938 .3789978-.0014648438 .4229889 .09359741 .45498658 .16265869 .45999146 .2407074 .45999146 .31976319M.24899292-.00047302247C.20999146-.00047302247 .15098572 .024551392 .1329956 .12062073 .12199402 .18066406 .12199402 .2727356 .12199402 .3317871 .12199402 .39582826 .12199402 .46188355 .12998963 .5159149 .14898682 .63500979 .22399903 .64401248 .24899292 .64401248 .28199769 .64401248 .34799195 .6259918 .36698915 .52693179 .3769989 .47088624 .3769989 .39482118 .3769989 .3317871 .3769989 .25672914 .3769989 .18867493 .3659973 .12461853 .35099793 .029556275 .2939911-.00047302247 .24899292-.00047302247Z"/>
<path id="font_2_75" d="M.8129883 0V.0309906C.7609863 .0309906 .73599246 .0309906 .7350006 .061019899V.25221253C.7350006 .3383026 .7350006 .36932374 .70399478 .405365 .6899872 .42237855 .6569977 .4423828 .598999 .4423828 .5149994 .4423828 .47099305 .38233949 .45399476 .34429933 .43998719 .43138124 .3659973 .4423828 .32099916 .4423828 .24798584 .4423828 .20098877 .39935304 .17298889 .33729554V.4423828L.03199768 .43066407V.3996582C.101989749 .3996582 .10998535 .39266969 .10998535 .34370423V.07595825C.10998535 .0309906 .09899902 .0309906 .03199768 .0309906V0L.14498902 .0029907227 .25698854 0V.0309906C.18998719 .0309906 .1789856 .0309906 .1789856 .07595825V.25978089C.1789856 .36431886 .25 .42037965 .31399537 .42037965 .3769989 .42037965 .3880005 .36631776 .3880005 .30926515V.076034549C.3880005 .0309906 .3769989 .0309906 .30999757 .0309906V0L.4229889 .0029907227 .5349884 0V.0309906C.46798707 .0309906 .45700074 .0309906 .45700074 .076034549V.2602234C.45700074 .36431886 .5279999 .42037965 .59199526 .42037965 .6549988 .42037965 .66600039 .36631776 .66600039 .30926515V.076034549C.66600039 .0309906 .6549988 .0309906 .58799746 .0309906V0L.70098879 .0029907227 .8129883 0Z"/>
<path id="font_2_35" d="M.5209961 .2163086C.5209961 .34335328 .4229889 .4423828 .30899049 .4423828 .23098755 .4423828 .18798828 .39537049 .17199707 .3773651V.69433596L.027999878 .68333438V.6523285C.09799194 .6523285 .10598755 .6453247 .10598755 .596344V.00024414063H.1309967L.16699219 .06227112C.18199158 .039260866 .22399903-.0107421879 .2979889-.0107421879 .4169922-.0107421879 .5209961 .08728027 .5209961 .2163086M.43798829 .21731568C.43798829 .18029785 .43598939 .120285037 .40699769 .07527161 .38598634 .044265748 .34799195 .011245728 .2939911 .011245728 .24899292 .011260986 .21299744 .03526306 .18899536 .072265628 .1749878 .09326172 .1749878 .09625244 .1749878 .11425781V.32034303C.1749878 .3393402 .1749878 .3403473 .18598938 .35635377 .22499085 .41236878 .27999879 .42037965 .3039856 .42037965 .34899903 .42037965 .3849945 .3943634 .40899659 .35635377 .43499757 .31533814 .43798829 .25831605 .43798829 .21730042V.21731568Z"/>
<path id="font_1_5" d="M.36698915 .31781007V.28579713C.36698915 .05178833 .2630005 .0055389406 .20498657 .0055389406 .18798828 .0055389406 .13398743 .007537842 .10699463 .041778566 .15098572 .041778566 .15899658 .07078552 .15899658 .08778381 .15899658 .118774417 .1349945 .13378906 .11299133 .13378906 .09700012 .13378906 .066986087 .12478638 .066986087 .08578491 .066986087 .018615723 .12098694-.022460938 .20599365-.022460938 .33499146-.022460938 .45700074 .11378479 .45700074 .32881166 .45700074 .5979767 .34199525 .6660156 .25299073 .6660156 .19799805 .6660156 .14898682 .64801028 .10598755 .60298159 .06498718 .5579529 .041992189 .5159302 .041992189 .44088746 .041992189 .31581117 .12998963 .21777344 .24198914 .21777344 .30299378 .21777344 .34399415 .25978089 .36698915 .31781007M.24299622 .24076844C.22698975 .24076844 .18099976 .24076844 .1499939 .3038025 .13198853 .3408203 .13198853 .39085389 .13198853 .43988038 .13198853 .49391175 .13198853 .54093936 .15299988 .5779724 .17999268 .6279907 .21798706 .64100649 .25299073 .64100649 .29899598 .64100649 .33198548 .60697939 .34899903 .5619507 .36099244 .52993777 .36499024 .4669037 .36499024 .42086793 .36499024 .3378296 .33099366 .24076844 .24299622 .24076844Z"/>
<path id="font_1_4" d="M.13198853 .327713V.35173036C.13198853 .6047821 .2559967 .64100649 .30699159 .64100649 .33099366 .64100649 .37298585 .634964 .394989 .6007538 .37998963 .6007538 .33999635 .6007538 .33999635 .5557556 .33999635 .524765 .3639984 .5097656 .38598634 .5097656 .4019928 .5097656 .43199159 .51875308 .43199159 .5577545 .43199159 .6178589 .3880005 .6660156 .30499269 .6660156 .1769867 .6660156 .041992189 .5367584 .041992189 .31570436 .041992189 .048553468 .1579895-.022460938 .25099183-.022460938 .3619995-.022460938 .45700074 .07156372 .45700074 .2036438 .45700074 .33070375 .36799623 .4267578 .25698854 .4267578 .18899536 .4267578 .1519928 .37573243 .13198853 .327713M.25099183 .0055389406C.18798828 .0055389406 .1579895 .06556702 .1519928 .080566409 .13398743 .127594 .13398743 .2076416 .13398743 .22564698 .13398743 .30369569 .1659851 .40374757 .2559967 .40374757 .27198792 .40374757 .31799317 .40374757 .34899903 .34172059 .36698915 .30470277 .36698915 .2536621 .36698915 .20463562 .36698915 .15661621 .36698915 .10658264 .34999085 .0705719 .31999208 .010528564 .27398683 .0055389406 .25099183 .0055389406Z"/>
<path id="font_1_3" d="M.1269989 .07699585 .23298645 .18003845C.3889923 .31811524 .44898988 .3721466 .44898988 .47216798 .44898988 .5860901 .35899354 .6660156 .23699951 .6660156 .12399292 .6660156 .049987794 .57411196 .049987794 .48516847 .049987794 .4291687 .099990848 .4291687 .102996829 .4291687 .11999512 .4291687 .15499878 .44117738 .15499878 .48217774 .15499878 .5081787 .13699341 .5341797 .101989749 .5341797 .09399414 .5341797 .09199524 .5341797 .08898926 .5331726 .11199951 .59806826 .1659851 .63500979 .22399903 .63500979 .31498719 .63500979 .35798646 .5541382 .35798646 .47216798 .35798646 .39215089 .30799867 .31311036 .25299073 .25108338L.06098938 .036987306C.049987794 .025985718 .049987794 .023986817 .049987794 0H.42099L.44898988 .17404175H.42399598C.4189911 .14402771 .4119873 .1000061 .4019928 .084991458 .394989 .07699585 .32899476 .07699585 .30699159 .07699585H.1269989Z"/>
<path id="font_3_62" d="M.6409912 0V.025985718C.57199099 .025985718 .5609894 .025985718 .5609894 .07096863V.6116333C.5609894 .6566162 .57199099 .6566162 .6409912 .6566162V.6826172C.6119995 .680603 .5589905 .680603 .5279999 .680603 .49699403 .680603 .44400025 .680603 .4149933 .6826172V.6566162C.48399354 .6566162 .49499513 .6566162 .49499513 .6116333V.3677826H.19699097V.6116333C.19699097 .6566162 .20799256 .6566162 .2769928 .6566162V.6826172C.24798584 .680603 .19499207 .680603 .1639862 .680603 .1329956 .680603 .07998657 .680603 .050994874 .6826172V.6566162C.11999512 .6566162 .1309967 .6566162 .1309967 .6116333V.07096863C.1309967 .025985718 .11999512 .025985718 .050994874 .025985718V0C.07998657 .0019989014 .1329956 .0019989014 .1639862 .0019989014 .19499207 .0019989014 .24798584 .0019989014 .2769928 0V.025985718C.20799256 .025985718 .19699097 .025985718 .19699097 .07096863V.34179688H.49499513V.07096863C.49499513 .025985718 .48399354 .025985718 .4149933 .025985718V0C.44400025 .0019989014 .49699403 .0019989014 .5279999 .0019989014 .5589905 .0019989014 .6119995 .0019989014 .6409912 0Z"/>
<path id="font_3_71" d="M.5419922 .2528534H.5239868C.5159912 .1539154 .5029907 .025985718 .33198548 .025985718H.23899842C.19898987 .025985718 .19699097 .0309906 .19699097 .064971927V.6106415C.19699097 .6466217 .19898987 .6566162 .2749939 .6566162H.29699708V.6826172C.2559967 .680603 .20799256 .680603 .16699219 .680603 .13598633 .680603 .07998657 .680603 .050994874 .6826172V.6566162C.11999512 .6566162 .1309967 .6566162 .1309967 .6116333V.07096863C.1309967 .025985718 .11999512 .025985718 .050994874 .025985718V0H.5179901L.5419922 .2528534Z"/>
<path id="font_2_83" d="M.6239929 .4967041C.6239929 .59465029 .5249939 .6826172 .3880005 .6826172H.034988405V.6516113H.05899048C.13598633 .6516113 .13798523 .64060977 .13798523 .6046295V.07795715C.13798523 .041992189 .13598633 .0309906 .05899048 .0309906H.034988405V0C.069992069 .0029907227 .14399719 .0029907227 .18199158 .0029907227 .21998596 .0029907227 .29499818 .0029907227 .32998658 0V.0309906H.30599977C.22898865 .0309906 .22698975 .041992189 .22698975 .07795715V.3157959H.3959961C.5159912 .3157959 .6239929 .39675904 .6239929 .4967041M.5209961 .4967041C.5209961 .4497223 .5209961 .34179688 .3619995 .34179688H.22399903V.6116333C.22399903 .64460757 .22599793 .6516113 .272995 .6516113H.3619995C.5209961 .6516113 .5209961 .54566958 .5209961 .4967041Z"/>
<path id="font_2_58" d="M.7350006 .24145508V.27246095L.61299136 .26945497C.57299807 .26945497 .48799134 .26945497 .45199586 .27246095V.24145508H.48399354C.57398989 .24145508 .57699587 .23045349 .57699587 .19346619V.12948609C.57699587 .017532349 .44999696 .008529663 .42199708 .008529663 .35699464 .008529663 .15899658 .043518068 .15899658 .34155274 .15899658 .6410217 .35598756 .67407229 .41600038 .67407229 .522995 .67407229 .6139984 .5839386 .6339874 .43670655 .6359863 .42268373 .6359863 .41967774 .6499939 .41967774 .66600039 .41967774 .66600039 .42268373 .66600039 .44371034V.68107607C.66600039 .69807437 .66600039 .7050781 .6549988 .7050781 .651001 .7050781 .6469879 .7050781 .6389923 .69306948L.58898928 .61898806C.5569916 .6510315 .5029907 .7050781 .4039917 .7050781 .21798706 .7050781 .055999757 .546875 .055999757 .34155274 .055999757 .13648987 .21598816-.022460938 .4059906-.022460938 .47898866-.022460938 .5589905 .0035247803 .59298709 .06251526 .60598757 .040527345 .6459961 .0005340576 .6569977 .0005340576 .66600039 .0005340576 .66600039 .008529663 .66600039 .023529053V.19746399C.66600039 .2364502 .66999819 .24145508 .7350006 .24145508Z"/>
<path id="font_2_54" d="M.6100006 .45477296 .58200076 .6796875H.032989503V.64868167H.056991579C.13398743 .64868167 .13598633 .63768008 .13598633 .6016998V.07797241C.13598633 .041992189 .13398743 .0309906 .056991579 .0309906H.032989503V0C.067993167 .0029907227 .1459961 .0029907227 .18499756 .0029907227 .22599793 .0029907227 .31698609 .0029907227 .35299684 0V.0309906H.31999208C.22499085 .031188965 .22499085 .044189454 .22499085 .079193118V.3251953H.31098939C.40699769 .3251953 .4169922 .29318238 .4169922 .20819092H.44198609V.4731903H.4169922C.4169922 .38919068 .40699769 .3561859 .31098939 .3561859H.22499085V.6091919C.22499085 .64167788 .22698975 .64868167 .27398683 .64868167H.3939972C.5439911 .64868167 .56900027 .5926819 .58499148 .4546814L.6100006 .45477296Z"/>
</defs>
<path transform="matrix(1.00008,0,0,-1.00005,58.591249,71.549777)" stroke-width=".99628" stroke-linecap="butt" stroke-miterlimit="10" stroke-linejoin="miter" fill="none" stroke="#000000" d="M28.3468-99.21382C28.3468-83.5581 15.6557-70.867 0-70.867-15.6557-70.867-28.3468-83.5581-28.3468-99.21382-28.3468-114.86954-15.6557-127.56062 0-127.56062 15.6557-127.56062 28.3468-114.86954 28.3468-99.21382ZM0-99.21382"/>
<path transform="matrix(1.00008,0,0,-1.00005,58.591249,71.549777)" stroke-width=".99628" stroke-linecap="butt" stroke-miterlimit="10" stroke-linejoin="miter" fill="none" stroke="#000000" d="M28.3468 41.10277C28.3468 56.75848 15.6557 69.44957 0 69.44957-15.6557 69.44957-28.3468 56.75848-28.3468 41.10277-28.3468 25.44705-15.6557 12.75595 0 12.75595 15.6557 12.75595 28.3468 25.44705 28.3468 41.10277ZM0 41.10277"/>
<path transform="matrix(1.00008,0,0,-1.00005,58.591249,71.549777)" stroke-width="1.99255" stroke-linecap="butt" stroke-miterlimit="10" stroke-linejoin="miter" fill="none" stroke="#0074c8" d="M-56.69362-17.00737C-56.69362-17.00737-53.28038-15.01204-51.96944-14.29103-50.6585-13.57004-48.5562-12.46632-47.24525-11.81087-45.93431-11.1554-43.83202-10.15678-42.52107-9.56685-41.21013-8.97693-39.10783-8.08342-37.79689-7.55902-36.48595-7.03464-34.38365-6.24614-33.07271-5.78734-31.76176-5.32854-29.65947-4.64552-28.34853-4.25226-27.03758-3.859-24.93527-3.2807-23.62434-2.95291-22.31342-2.62514-20.2111-2.15193-18.90018-1.88976-17.58925-1.62756-15.48694-1.25981-14.176-1.06316-12.86505-.8665-10.76276-.60344-9.45181-.47232-8.14087-.3412-6.03857-.1836-4.72763-.11807-3.41669-.05255-1.31438-.00003-.00345 0 1.30746 .00003 3.40977-.05219 4.7207-.11765 6.03163-.1831 8.13396-.34088 9.44489-.47188 10.75581-.60287 12.85812-.86534 14.16905-1.06186 15.47998-1.25839 17.58229-1.62637 18.89323-1.88844 20.20418-2.15051 22.30647-2.6231 23.61742-2.95076 24.92836-3.27843 27.03065-3.8569 28.3416-4.2501 29.65254-4.6433 31.75484-5.32607 33.06578-5.78474 34.37672-6.24341 36.47902-7.03177 37.78996-7.55598 39.1009-8.0802 41.2032-8.9731 42.51414-9.56296 43.82509-10.15283 45.9274-11.152 47.23833-11.8074 48.54926-12.4628 50.65157-13.5659 51.9625-14.28673 53.27342-15.00754 56.68668-17.00261 56.68668-17.00261"/>
<use data-text="1" xlink:href="#font_1_2" transform="matrix(9.963397,0,0,-9.963098,119.606128,89.12665)" fill="#0074c8"/>
<use data-text="0" xlink:href="#font_1_1" transform="matrix(9.963397,0,0,-9.963098,124.587818,89.12665)" fill="#0074c8"/>
<use data-text="0" xlink:href="#font_1_1" transform="matrix(9.963397,0,0,-9.963098,129.5695,89.12665)" fill="#0074c8"/>
<use data-text="0" xlink:href="#font_1_1" transform="matrix(9.963397,0,0,-9.963098,134.5512,89.12665)" fill="#0074c8"/>
<use data-text="m" xlink:href="#font_2_75" transform="matrix(9.963397,0,0,-9.963098,142.85099,89.12665)" fill="#0074c8"/>
<use data-text="b" xlink:href="#font_2_35" transform="matrix(9.963397,0,0,-9.963098,150.87152,89.12665)" fill="#0074c8"/>
<path transform="matrix(1.00008,0,0,-1.00005,58.591249,71.549777)" stroke-width="1.99255" stroke-linecap="butt" stroke-miterlimit="10" stroke-linejoin="miter" fill="none" stroke="#0074c8" d="M-56.69362-51.0239C-56.69362-51.0239-53.28038-48.36319-51.96944-47.40182-50.6585-46.44048-48.5562-44.96904-47.24525-44.09506-45.93431-43.22108-43.83202-41.88936-42.52107-41.10277-41.21013-40.31618-39.10783-39.12494-37.79689-38.4258-36.48595-37.72664-34.38365-36.67548-33.07271-36.0637-31.76176-35.45193-29.65947-34.5409-28.34853-34.0165-27.03758-33.49211-24.93527-32.7212-23.62434-32.2842-22.31342-31.84718-20.2111-31.21638-18.90018-30.86676-17.58925-30.51712-15.48694-30.02641-14.176-29.76422-12.86505-29.50203-10.76276-29.15181-9.45181-28.977-8.14087-28.8022-6.03857-28.59166-4.72763-28.50423-3.41669-28.41681-1.31438-28.34685-.00345-28.3468 1.30746-28.34676 3.40977-28.4165 4.7207-28.50381 6.03163-28.59111 8.13396-28.80145 9.44489-28.97614 10.75581-29.15082 12.85812-29.50092 14.16905-29.76292 15.47998-30.02493 17.58229-30.51509 18.89323-30.8646 20.20418-31.21411 22.30647-31.84514 23.61742-32.28203 24.92836-32.71892 27.03065-33.48927 28.3416-34.01347 29.65254-34.53769 31.75484-35.4486 33.06578-36.06024 34.37672-36.67189 36.47902-37.72287 37.78996-38.4219 39.1009-39.12093 41.2032-40.31198 42.51414-41.09845 43.82509-41.88492 45.9274-43.21645 47.23833-44.0903 48.54926-44.96416 50.65157-46.43552 51.9625-47.39664 53.27342-48.35774 56.68668-51.01741 56.68668-51.01741"/>
<use data-text="9" xlink:href="#font_1_5" transform="matrix(9.963397,0,0,-9.963098,119.606128,117.47407)" fill="#0074c8"/>
<use data-text="9" xlink:href="#font_1_5" transform="matrix(9.963397,0,0,-9.963098,124.587818,117.47407)" fill="#0074c8"/>
<use data-text="6" xlink:href="#font_1_4" transform="matrix(9.963397,0,0,-9.963098,129.5695,117.47407)" fill="#0074c8"/>
<use data-text="m" xlink:href="#font_2_75" transform="matrix(9.963397,0,0,-9.963098,137.86859,117.47407)" fill="#0074c8"/>
<use data-text="b" xlink:href="#font_2_35" transform="matrix(9.963397,0,0,-9.963098,145.89908,117.47407)" fill="#0074c8"/>
<path transform="matrix(1.00008,0,0,-1.00005,58.591249,71.549777)" stroke-width="1.99255" stroke-linecap="butt" stroke-miterlimit="10" stroke-linejoin="miter" fill="none" stroke="#0074c8" d="M-56.69362-85.04042C-56.69362-85.04042-53.28038-81.71477-51.96944-80.51305-50.6585-79.31133-48.5562-77.47177-47.24525-76.37927-45.93431-75.28679-43.83202-73.62239-42.52107-72.63911-41.21013-71.65585-39.10783-70.16655-37.79689-69.29257-36.48595-68.4186-34.38365-67.10477-33.07271-66.34007-31.76176-65.57538-29.65947-64.43669-28.34853-63.78117-27.03758-63.12564-24.93527-62.16174-23.62434-61.61545-22.31342-61.06915-20.2111-60.28079-18.90018-59.84378-17.58925-59.40677-15.48694-58.79349-14.176-58.46571-12.86505-58.13792-10.76276-57.69981-9.45181-57.48126-8.14087-57.2627-6.03857-56.99968-4.72763-56.8904-3.41669-56.78113-1.31438-56.69366-.00345-56.69362 1.30746-56.69357 3.40977-56.78087 4.7207-56.88997 6.03163-56.99908 8.13396-57.26158 9.44489-57.47997 10.75581-57.69833 12.85812-58.13632 14.16905-58.46399 15.47998-58.79166 17.58229-59.4048 18.89323-59.84163 20.20418-60.27846 22.30647-61.06631 23.61742-61.61243 24.92836-62.15854 27.03065-63.12238 28.3416-63.77773 29.65254-64.43306 31.75484-65.57117 33.06578-66.33574 34.37672-67.10031 36.47902-68.41444 37.78996-69.28824 39.1009-70.16203 41.2032-71.65047 42.51414-72.6335 43.82509-73.61652 45.9274-75.2809 47.23833-76.37321 48.54926-77.46552 50.65157-79.30452 51.9625-80.50612 53.27342-81.7077 56.68668-85.0335 56.68668-85.0335"/>
<use data-text="9" xlink:href="#font_1_5" transform="matrix(9.963397,0,0,-9.963098,119.606128,145.82248)" fill="#0074c8"/>
<use data-text="9" xlink:href="#font_1_5" transform="matrix(9.963397,0,0,-9.963098,124.587818,145.82248)" fill="#0074c8"/>
<use data-text="2" xlink:href="#font_1_3" transform="matrix(9.963397,0,0,-9.963098,129.5695,145.82248)" fill="#0074c8"/>
<use data-text="m" xlink:href="#font_2_75" transform="matrix(9.963397,0,0,-9.963098,137.86859,145.82248)" fill="#0074c8"/>
<use data-text="b" xlink:href="#font_2_35" transform="matrix(9.963397,0,0,-9.963098,145.89908,145.82248)" fill="#0074c8"/>
<path transform="matrix(1.00008,0,0,-1.00005,58.591249,71.549777)" d="M28.3468 41.10277C28.3468 56.75848 15.6557 69.44957 0 69.44957-15.6557 69.44957-28.3468 56.75848-28.3468 41.10277-28.3468 25.44705-15.6557 12.75595 0 12.75595 15.6557 12.75595 28.3468 25.44705 28.3468 41.10277ZM0 41.10277" fill="#ebebeb"/>
<path transform="matrix(1.00008,0,0,-1.00005,58.591249,71.549777)" stroke-width="3.9851" stroke-linecap="butt" stroke-miterlimit="10" stroke-linejoin="miter" fill="none" stroke="#0074c8" d=""/>
<use data-text="H" xlink:href="#font_3_62" transform="matrix(24.789084,0,0,-24.788338,50.001565,37.888093)" fill="#0074c8"/>
<path transform="matrix(1.00008,0,0,-1.00005,58.591249,71.549777)" d="M28.3468-99.21382C28.3468-83.5581 15.6557-70.867 0-70.867-15.6557-70.867-28.3468-83.5581-28.3468-99.21382-28.3468-114.86954-15.6557-127.56062 0-127.56062 15.6557-127.56062 28.3468-114.86954 28.3468-99.21382ZM0-99.21382" fill="#ebebeb"/>
<path transform="matrix(1.00008,0,0,-1.00005,58.591249,71.549777)" stroke-width="3.9851" stroke-linecap="butt" stroke-miterlimit="10" stroke-linejoin="miter" fill="none" stroke="#ff0000" d=""/>
<use data-text="L" xlink:href="#font_3_71" transform="matrix(24.789084,0,0,-24.788338,51.451677,178.83814)" fill="#ff0000"/>
<path transform="matrix(1.00008,0,0,-1.00005,58.591249,71.549777)" stroke-width="4.98138" stroke-linecap="butt" stroke-miterlimit="10" stroke-linejoin="miter" fill="none" stroke="#ff0000" d="M0-28.3468V-47.81982"/>
<path transform="matrix(0,1.00005,1.00008,0,58.591249,119.37198)" d="M15.96048 0C11.23137 .88667 3.54677 3.54677-1.77338 6.65019V-6.65019C3.54677-3.54677 11.23137-.88667 15.96048 0" fill="#ff0000"/>
<use data-text="P" xlink:href="#font_2_83" transform="matrix(9.963397,0,0,-9.963098,24.579529,121.72629)" fill="#ff0000"/>
<use data-text="G" xlink:href="#font_2_58" transform="matrix(9.963397,0,0,-9.963098,31.364609,121.72629)" fill="#ff0000"/>
<use data-text="F" xlink:href="#font_2_54" transform="matrix(9.963397,0,0,-9.963098,39.185884,121.72629)" fill="#ff0000"/>
<path transform="matrix(1.00008,0,0,-1.00005,58.591249,71.549777)" d="M2.98883-28.3468C2.98883-26.69609 1.6507-25.35797 0-25.35797-1.6507-25.35797-2.98883-26.69609-2.98883-28.3468-2.98883-29.99751-1.6507-31.33563 0-31.33563 1.6507-31.33563 2.98883-29.99751 2.98883-28.3468ZM0-28.3468"/>
</svg>
