<svg xmlns="http://www.w3.org/2000/svg" xmlns:xlink="http://www.w3.org/1999/xlink" version="1.1" width="147pt" height="123pt" viewBox="0 0 147 123">
<defs>
<path id="font_1_49" d="M.6519928 .2579193H.6269989C.60198977 .10397339 .57899478 .0309906 .40699769 .0309906H.27398683C.22698975 .0309906 .22499085 .037994386 .22499085 .07098389V.33789063H.31498719C.4119873 .33789063 .4229889 .30589295 .4229889 .220932H.44799806V.48606874H.4229889C.4229889 .39994813 .4119873 .36888124 .31498719 .36888124H.22499085V.6087799C.22499085 .6416931 .22698975 .64868167 .27398683 .64868167H.40299989C.55599978 .64868167 .58299258 .59381106 .598999 .45507813H.6239929L.59599307 .6796875H.032989503V.64868167H.056991579C.13398743 .64868167 .13598633 .6377106 .13598633 .6017914V.07797241C.13598633 .041992189 .13398743 .0309906 .056991579 .0309906H.032989503V0H.6100006L.6519928 .2579193Z"/>
<path id="font_1_113" d="M1.0089874 .6516113V.6826172C.97898867 .680603 .94799807 .6796112 .91799929 .6796112L.798996 .6826172V.6516113C.8659973 .65060427 .8860016 .6174164 .8860016 .5983734 .8860016 .59236147 .8829956 .58436587 .8809967 .57836917L.73098757 .116363529 .57099917 .606369C.56999209 .6103668 .56799319 .6164093 .56799319 .62142947 .56799319 .6516113 .6259918 .6516113 .6519928 .6516113V.6826172C.6159973 .6796112 .5479889 .6796112 .5099945 .6796112L.3880005 .6826172V.6516113C.44499208 .6516113 .46598817 .6516113 .47799684 .61595156L.5 .5459595 .36099244 .11695862 .19999695 .60894778C.19898987 .61195376 .19799805 .618927 .19799805 .62190249 .19799805 .6516113 .2559967 .6516113 .28199769 .6516113V.6826172C.24598694 .6796112 .17799378 .6796112 .13999939 .6796112L.017990113 .6826172V.6516113C.09298706 .6513672 .09700012 .6463623 .10899353 .609375L.30899049-.003479004C.31199647-.012466431 .31498719-.022460938 .32798768-.022460938 .34199525-.022460938 .34399415-.015472412 .34799195-.0024719239L.5130005 .50538638 .67900088-.003479004C.6819916-.012466431 .68499758-.022460938 .69799807-.022460938 .71199038-.022460938 .71398928-.015472412 .71798709-.0024719239L.9089966 .58496096C.9269867 .6417084 .9700012 .6516113 1.0089874 .6516113Z"/>
<path id="font_1_76" d="M.71598818 .6516113V.6826172L.598999 .6796112 .48199464 .6826172V.6516113C.58499148 .6516113 .58499148 .6046295 .58499148 .577652V.15092469L.23199463 .6696167C.22299195 .6816101 .22200012 .6826172 .20298767 .6826172H.032989503V.6516113H.06199646C.07699585 .6516113 .09700012 .65060427 .11199951 .6496124 .1349945 .64660647 .13598633 .6456146 .13598633 .62661746V.10494995C.13598633 .07795715 .13598633 .0309906 .032989503 .0309906V0L.1499939 .0029907227 .2669983 0V.0309906C.1639862 .0309906 .1639862 .07795715 .1639862 .10494995V.62461856C.16899109 .6196289 .16999817 .6186218 .17399597 .6126251L.58200076 .0129852299C.59098818 .0009918213 .59199526 0 .598999 0 .61299136 0 .61299136 .0069885256 .61299136 .025985718V.577652C.61299136 .6046295 .61299136 .6516113 .71598818 .6516113Z"/>
<path id="font_1_97" d="M.49899293 .18579102C.49899293 .2858429 .43299867 .36791993 .34899903 .38793946L.22099304 .4189453C.15899658 .43388368 .11999512 .48773194 .11999512 .5458069 .11999512 .61595156 .17399597 .677063 .2519989 .677063 .4189911 .677063 .44099427 .5127411 .44699098 .46777345 .44799806 .461792 .44799806 .45581056 .45899964 .45581056 .47200013 .45581056 .47200013 .46080018 .47200013 .47973634V.68107607C.47200013 .69807437 .47200013 .7050781 .46099855 .7050781 .45399476 .7050781 .45298768 .70407107 .44599916 .69207766L.41099549 .63497927C.3809967 .66404727 .33999635 .7050781 .25099183 .7050781 .13999939 .7050781 .055999757 .61694338 .055999757 .5107422 .055999757 .42790223 .10899353 .35490418 .18699646 .32788087 .19799805 .32388307 .24899292 .3118744 .31900025 .29486085 .34599305 .28785707 .37599183 .280838 .4039917 .24382019 .4249878 .2177887 .43499757 .18478394 .43499757 .1517334 .43499757 .0806427 .3849945 .008529663 .30099488 .008529663 .27198792 .008529663 .19599915 .013534546 .14299011 .06260681 .084991458 .11668396 .08198547 .18078614 .08099365 .21679688 .07998657 .22679138 .07199097 .22679138 .068984989 .22679138 .055999757 .22679138 .055999757 .2197876 .055999757 .20178223V.0015258789C.055999757-.015472412 .055999757-.022460938 .066986087-.022460938 .07398987-.022460938 .07499695-.020462037 .08198547-.009475708 .08198547-.009475708 .084991458-.0054626467 .117996219 .047592164 .14898682 .013534546 .21299744-.022460938 .3019867-.022460938 .4189911-.022460938 .49899293 .07562256 .49899293 .18579102Z"/>
<path id="font_2_3" d="M.5369873 .5947571C.522995 .5818329 .48999024 .55400088 .48999024 .5361023 .48999024 .5261078 .5 .516098 .5099945 .516098 .5189972 .516098 .5239868 .5231018 .5289917 .5290985 .54100039 .5440674 .56399539 .5718994 .60798647 .59376528 .61499026 .59776309 .625 .6027527 .625 .61476138 .625 .62475588 .6179962 .62976077 .61099246 .6347656 .58898928 .6497803 .5779877 .66781619 .56999209 .69184878 .56799319 .7008667 .56399539 .7138672 .5499878 .7138672 .5359955 .7138672 .5299988 .7008667 .5299988 .69285586 .5299988 .68785098 .5379944 .65579226 .55400088 .6347656H.21699524C.19999695 .6347656 .18199158 .6347656 .18199158 .61476138 .18199158 .5947571 .19999695 .5947571 .21699524 .5947571H.5369873Z"/>
<path id="font_2_2" d="M.46798707 .37236024C.46798707 .42637635 .44198609 .4423828 .42399598 .4423828 .39898683 .4423828 .375 .41636659 .375 .3943634 .375 .38136292 .37998963 .3753662 .3909912 .36434938 .4119873 .3443451 .4249878 .31834413 .4249878 .28233338 .4249878 .24032593 .3639984 .011245728 .24699402 .011245728 .19599915 .011245728 .17298889 .04626465 .17298889 .09828186 .17298889 .15429688 .19999695 .22731018 .23098755 .31033326 .23799134 .3273468 .24299622 .34135438 .24299622 .36035157 .24299622 .405365 .21099854 .4423828 .16099549 .4423828 .066986087 .4423828 .0289917 .29733277 .0289917 .28833009 .0289917 .27833558 .038986207 .27833558 .040985109 .27833558 .050994874 .27833558 .051986696 .28033448 .056991579 .29634095 .085998538 .39736939 .1289978 .42037965 .1579895 .42037965 .1659851 .42037965 .18299866 .42037965 .18299866 .3883667 .18299866 .36335755 .17298889 .3363495 .1659851 .31834413 .12199402 .20230103 .10899353 .15629578 .10899353 .11328125 .10899353 .0052490236 .19699097-.0107421879 .24299622-.0107421879 .41099549-.0107421879 .46798707 .32034303 .46798707 .37236024Z"/>
<path id="font_2_1" d="M.43699647 .67033389C.43699647 .67233279 .43998719 .68333438 .43998719 .6843262 .43998719 .68533328 .43998719 .69433596 .42799378 .69433596 .41799928 .69433596 .4169922 .69132998 .41299439 .67433169L.35499574 .44337464C.19599915 .43836976 .04899597 .30532838 .04899597 .169281 .04899597 .07424927 .11898804-.004776001 .24099732-.011779785 .23298645-.04283142 .22599793-.07489014 .21798706-.10594177 .20599365-.1530304 .19599915-.19108582 .19599915-.1940918 .19599915-.2040863 .20298767-.20507813 .20799256-.20507813 .21299744-.20507813 .21499634-.2040863 .21798706-.20108032 .21998596-.19908142 .22599793-.17506409 .22898865-.16104126L.2669983-.011779785C.42799378-.0067749025 .57299807 .12826538 .57299807 .26231385 .57299807 .3413391 .519989 .43338014 .3809967 .44337464L.43699647 .67033389M.24598694 .010223389C.18598938 .01322937 .11399841 .048233034 .11399841 .14826966 .11399841 .2683258 .19999695 .40837098 .34899903 .42137147L.24598694 .010223389M.375 .42137147C.45098878 .41737367 .5079956 .37135316 .5079956 .2833252 .5079956 .1652832 .42199708 .022232056 .27198792 .010223389L.375 .42137147Z"/>
<path id="font_3_6" d="M.07499695-.12220764C.067993167-.15031433 .06599426-.15834046 .025985718-.15834046 .0129852299-.15834046-.0010070801-.15834046-.0010070801-.17933655-.0010070801-.19033814 .0079956059-.19433594 .0129852299-.19433594 .038986207-.19433594 .07199097-.19033814 .09899902-.19033814 .1329956-.19033814 .17098999-.19433594 .20399475-.19433594 .21299744-.19433594 .22399903-.19134522 .22399903-.17234802 .22399903-.15834046 .20999146-.15834046 .19799805-.15834046 .17599488-.15834046 .14898682-.15834046 .14898682-.14630127 .14898682-.14128113 .1559906-.11517334 .1599884-.100112918 .17199707-.046920778 .18598938 .007232666 .19699097 .049240114 .20899964 .02923584 .23999024-.009765625 .2999878-.009765625 .42199708-.009765625 .5569916 .12527466 .5569916 .27433778 .5569916 .39138795 .47599793 .44140626 .40699769 .44140626 .34498597 .44140626 .2919922 .3993988 .2649994 .37138368 .24798584 .42840577 .19198609 .44140626 .1619873 .44140626 .12298584 .44140626 .09899902 .41540528 .08299255 .38838197 .06298828 .35437013 .04699707 .29434205 .04699707 .28834535 .04699707 .27534486 .06098938 .27534486 .06399536 .27534486 .07798767 .27534486 .07899475 .27833558 .085998538 .3053589 .100997928 .3633728 .11999512 .4133911 .15899658 .4133911 .18499756 .4133911 .19198609 .39138795 .19198609 .36437989 .19198609 .3533783 .18998719 .34036256 .18899536 .33436585L.07499695-.12220764M.2639923 .32136537C.32199098 .39839173 .37199403 .4133911 .4039917 .4133911 .44299317 .4133911 .47698976 .38438417 .47698976 .31636048 .47698976 .27534486 .45498658 .17329407 .4249878 .11526489 .3999939 .06625366 .35099793 .018234253 .2999878 .018234253 .22898865 .018234253 .21099854 .09526062 .21099854 .105270389 .21099854 .10926819 .21299744 .11627197 .21398926 .120269779L.2639923 .32136537Z"/>
<path id="font_3_5" d="M.5309906 .2663269C.5309906 .37738038 .44799806 .44140626 .34999085 .44140626 .20199585 .44140626 .06199646 .3023529 .06199646 .1652832 .06199646 .06524658 .1349945-.009765625 .24398804-.009765625 .3869934-.009765625 .5309906 .12226868 .5309906 .2663269M.24499512 .018234253C.19499207 .018234253 .14498902 .050247194 .14498902 .12927246 .14498902 .17028809 .1639862 .26834107 .20298767 .32536317 .24598694 .38739015 .3039856 .4133911 .34899903 .4133911 .40299989 .4133911 .44898988 .37638856 .44898988 .3023529 .44898988 .27833558 .43699647 .17929077 .3929901 .10926819 .35499574 .050247194 .29499818 .018234253 .24499512 .018234253Z"/>
<path id="font_3_3" d="M.28199769 .66430667C.2829895 .66630557 .28599549 .67930606 .28599549 .68029788 .28599549 .68530276 .28199769 .6943054 .269989 .6943054 .25 .6943054 .16699219 .6863098 .14199829 .6843109 .1349945 .68330386 .12098694 .682312 .12098694 .66130068 .12098694 .64730837 .1349945 .64730837 .1459961 .64730837 .19400025 .64730837 .19400025 .64030459 .19400025 .6322937 .19400025 .6253052 .19198609 .6192932 .18998719 .6103058L.06599426 .116241458C.06298828 .10623169 .06199646 .0952301 .06199646 .085235599 .06199646 .021224976 .11898804-.009765625 .16699219-.009765625 .19099427-.009765625 .22099304-.0017700195 .24699402 .04322815 .2679901 .08023071 .28199769 .13923645 .28199769 .14324951 .28199769 .15625 .2689972 .15625 .2659912 .15625 .2519989 .15625 .25 .15023804 .24598694 .13224793 .23298645 .082229617 .21398926 .018234253 .17098999 .018234253 .14399719 .018234253 .13699341 .04322815 .13699341 .067230228 .13699341 .07823181 .13999939 .097229007 .14299011 .10823059L.28199769 .66430667Z"/>
<path id="font_3_1" d="M.42199708 .38238526C.40098573 .41540528 .36698915 .44140626 .31900025 .44140626 .19099427 .44140626 .06098938 .300354 .06098938 .15628052 .06098938 .059249879 .12599182-.009765625 .21199036-.009765625 .2659912-.009765625 .31399537 .021224976 .35398866 .0602417 .37298585 .00022888184 .43099977-.009765625 .45700074-.009765625 .49299623-.009765625 .5179901 .01222229 .5359955 .04324341 .55799868 .08226013 .57099917 .13928223 .57099917 .14328003 .57099917 .15628052 .55799868 .15628052 .5549927 .15628052 .54100039 .15628052 .5399933 .15228272 .5329895 .12527466 .5209961 .07725525 .5019989 .018234253 .45999146 .018234253 .43399049 .018234253 .4269867 .040237428 .4269867 .06724548 .4269867 .08425903 .43499757 .120269779 .44198609 .14628601 .44898988 .17329407 .45899964 .21430969 .46398927 .23632813L.48399354 .3123474C.48999024 .33836366 .5019989 .38539125 .5019989 .39038087 .5019989 .4123993 .48399354 .4223938 .46798707 .4223938 .45098878 .4223938 .42799378 .4104004 .42199708 .38238526M.35798646 .12527466C.35099793 .09725952 .32899476 .07725525 .30699159 .058242799 .2979889 .050247194 .2579956 .018234253 .21499634 .018234253 .17799378 .018234253 .14199829 .04423523 .14199829 .11526489 .14199829 .16828919 .17098999 .27833558 .19400025 .31835938 .23999024 .39839173 .29100038 .4133911 .31900025 .4133911 .3889923 .4133911 .4079895 .33737184 .4079895 .32635499 .4079895 .32235719 .4059906 .3153534 .40499879 .3123474L.35798646 .12527466Z"/>
<path id="font_3_7" d="M.23498535 .2023468C.23599243 .2083435 .25898744 .29840089 .26098634 .30340577 .2630005 .31140138 .2919922 .36140443 .32398988 .3854065 .33499146 .3934021 .3619995 .4133911 .40499879 .4133911 .4149933 .4133911 .43998719 .4123993 .45999146 .39941407 .42799378 .39041139 .41600038 .3624115 .41600038 .34440614 .41600038 .32240296 .43299867 .30740357 .45599366 .30740357 .47898866 .30740357 .5119934 .32640077 .5119934 .3684082 .5119934 .4203949 .45700074 .44140626 .4059906 .44140626 .35398866 .44140626 .30899049 .4203949 .2649994 .3704071 .24699402 .43139649 .18598938 .44140626 .1619873 .44140626 .125 .44140626 .099990848 .418396 .083999637 .39041139 .06098938 .3514099 .04699707 .293396 .04699707 .2883911 .04699707 .27539063 .06098938 .27539063 .06399536 .27539063 .07798767 .27539063 .07899475 .2783966 .085998538 .30540467 .100997928 .3664093 .11999512 .4133911 .15899658 .4133911 .18499756 .4133911 .19198609 .3914032 .19198609 .3644104 .19198609 .3454132 .18299866 .30841065 .17599488 .28138734 .16899109 .25437928 .15899658 .21334839 .1539917 .19132996L.12199402 .06326294C.117996219 .050247194 .11199951 .025238038 .11199951 .022232056 .11199951 .00022888184 .12998963-.009765625 .1459961-.009765625 .16099549-.009765625 .18099976-.00077819827 .18899536 .019226075 .19099427 .025238038 .20199585 .06925964 .20799256 .09428406L.23498535 .2023468Z"/>
<path id="font_4_5" d="M.68699648 .32714845C.70199587 .32714845 .72099307 .32714845 .72099307 .34713746 .72099307 .36714173 .70199587 .36714173 .6879883 .36714173H.08898926C.07499695 .36714173 .055999757 .36714173 .055999757 .34713746 .055999757 .32714845 .07499695 .32714845 .08999634 .32714845H.68699648M.6879883 .13284302C.70199587 .13284302 .72099307 .13284302 .72099307 .15284729 .72099307 .17285156 .70199587 .17285156 .68699648 .17285156H.08999634C.07499695 .17285156 .055999757 .17285156 .055999757 .15284729 .055999757 .13284302 .07499695 .13284302 .08898926 .13284302H.6879883Z"/>
<path id="font_4_2" d="M.1269989 .07699585 .23298645 .18003845C.3889923 .31811524 .44898988 .3721466 .44898988 .47216798 .44898988 .5860901 .35899354 .6660156 .23699951 .6660156 .12399292 .6660156 .049987794 .57411196 .049987794 .48516847 .049987794 .4291687 .099990848 .4291687 .102996829 .4291687 .11999512 .4291687 .15499878 .44117738 .15499878 .48217774 .15499878 .5081787 .13699341 .5341797 .101989749 .5341797 .09399414 .5341797 .09199524 .5341797 .08898926 .5331726 .11199951 .59806826 .1659851 .63500979 .22399903 .63500979 .31498719 .63500979 .35798646 .5541382 .35798646 .47216798 .35798646 .39215089 .30799867 .31311036 .25299073 .25108338L.06098938 .036987306C.049987794 .025985718 .049987794 .023986817 .049987794 0H.42099L.44898988 .17404175H.42399598C.4189911 .14402771 .4119873 .1000061 .4019928 .084991458 .394989 .07699585 .32899476 .07699585 .30699159 .07699585H.1269989Z"/>
<path id="font_4_3" d="M.2899933 .35191346C.37199403 .37893678 .42999269 .4490509 .42999269 .52809146 .42999269 .6100464 .34199525 .6660156 .24598694 .6660156 .14498902 .6660156 .068984989 .60606387 .068984989 .53009036 .068984989 .49710084 .09098816 .47808839 .11999512 .47808839 .15098572 .47808839 .17098999 .50009158 .17098999 .5290985 .17098999 .57910159 .12399292 .57910159 .10899353 .57910159 .13999939 .62802127 .20599365 .64100649 .24198914 .64100649 .2829895 .64100649 .33799745 .6190338 .33799745 .5290985 .33799745 .51708987 .33599855 .45906068 .30999757 .4149933 .27999879 .36691285 .24598694 .36390687 .22099304 .36291505 .21299744 .36190797 .18899536 .35990907 .18199158 .35990907 .17399597 .35890199 .16699219 .35791017 .16699219 .3479004 .16699219 .33691407 .17399597 .33691407 .19099427 .33691407H.23498535C.31698609 .33691407 .35398866 .2686615 .35398866 .17037964 .35398866 .034469606 .2849884 .0055389406 .24099732 .0055389406 .19799805 .0055389406 .12298584 .022491456 .08799744 .08137512 .12298584 .07637024 .1539917 .09837341 .1539917 .1363678 .1539917 .17237854 .1269989 .19238281 .09799194 .19238281 .07398987 .19238281 .041992189 .17837525 .041992189 .1343689 .041992189 .043441774 .1349945-.022460938 .24398804-.022460938 .3659973-.022460938 .45700074 .06838989 .45700074 .17037964 .45700074 .252594 .3939972 .33088685 .2899933 .35191346Z"/>
<path id="font_4_1" d="M.45999146 .31976319C.45999146 .39982606 .45498658 .47988893 .41999818 .5539398 .37399293 .65000918 .2919922 .6660156 .25 .6660156 .18998719 .6660156 .116989139 .64001467 .07598877 .54693606 .04399109 .47789 .038986207 .39982606 .038986207 .31976319 .038986207 .24472046 .042999269 .15464783 .083999637 .07859802 .1269989-.0024719239 .19999695-.022460938 .24899292-.022460938 .30299378-.022460938 .3789978-.0014648438 .4229889 .09359741 .45498658 .16265869 .45999146 .2407074 .45999146 .31976319M.24899292-.00047302247C.20999146-.00047302247 .15098572 .024551392 .1329956 .12062073 .12199402 .18066406 .12199402 .2727356 .12199402 .3317871 .12199402 .39582826 .12199402 .46188355 .12998963 .5159149 .14898682 .63500979 .22399903 .64401248 .24899292 .64401248 .28199769 .64401248 .34799195 .6259918 .36698915 .52693179 .3769989 .47088624 .3769989 .39482118 .3769989 .3317871 .3769989 .25672914 .3769989 .18867493 .3659973 .12461853 .35099793 .029556275 .2939911-.00047302247 .24899292-.00047302247Z"/>
<path id="font_5_1" d="M.5069885 .24998474C.5069885 .3710022 .4099884 .4650116 .2919922 .4650116 .17199707 .4650116 .07699585 .36799623 .07699585 .25097657 .07699585 .1299591 .17399597 .035949708 .2919922 .035949708 .4119873 .035949708 .5069885 .13296509 .5069885 .24998474M.2919922 .08496094C.19799805 .08496094 .12599182 .16096497 .12599182 .24998474 .12599182 .34300233 .19999695 .41601563 .2919922 .41601563 .38598634 .41601563 .45799256 .33999635 .45799256 .25097657 .45799256 .15795899 .38398744 .08496094 .2919922 .08496094Z"/>
<path id="font_3_4" d="M.43399049 .08125305C.42900086 .06124878 .41999818 .027236939 .41999818 .022232056 .41999818 .00022888184 .43798829-.009765625 .45399476-.009765625 .47200013-.009765625 .48799134 .0032196046 .49299623 .01222229 .49798585 .021224976 .5059967 .053237916 .5109863 .07424927 .5159912 .09326172 .5269928 .13928223 .5329895 .16429138 .5389862 .18629456 .54499819 .20831299 .5499878 .23132324 .5609894 .27433778 .5609894 .27633668 .58099368 .3073578 .61299136 .35636903 .6629944 .4133911 .7409973 .4133911 .7969971 .4133911 .7999878 .36738587 .7999878 .34336854 .7999878 .28334046 .7569885 .17228699 .7409973 .13027954 .7299957 .102264408 .7259979 .09326172 .7259979 .07624817 .7259979 .023223877 .769989-.009765625 .82099917-.009765625 .92099-.009765625 .96499636 .12828064 .96499636 .14328003 .96499636 .15628052 .95199587 .15628052 .94898989 .15628052 .93499758 .15628052 .9339905 .15028382 .9299927 .13928223 .9069977 .059249879 .8639984 .018234253 .82398989 .018234253 .8029938 .018234253 .798996 .032226564 .798996 .053237916 .798996 .07624817 .80400088 .089263919 .82199099 .13427735 .83399966 .1652832 .875 .2713318 .875 .32736207 .875 .34336854 .875 .38539125 .83799746 .4143982 .82099917 .42739869 .7919922 .44140626 .7449951 .44140626 .6549988 .44140626 .59999087 .38238526 .56799319 .34036256 .55999758 .42539979 .4889984 .44140626 .43798829 .44140626 .35499574 .44140626 .29899598 .39038087 .2689972 .3503723 .2619934 .41940309 .20298767 .44140626 .1619873 .44140626 .11898804 .44140626 .09599304 .4104004 .08299255 .38739015 .06098938 .3503723 .04699707 .29335023 .04699707 .28834535 .04699707 .27534486 .06098938 .27534486 .06399536 .27534486 .07798767 .27534486 .07899475 .27833558 .085998538 .3053589 .100997928 .36437989 .11999512 .4133911 .15899658 .4133911 .18499756 .4133911 .19198609 .39138795 .19198609 .36437989 .19198609 .34536744 .18299866 .3083496 .17599488 .28134156 .16899109 .2543335 .15899658 .21331787 .1539917 .19129944L.12199402 .06324768C.117996219 .050247194 .11199951 .025222779 .11199951 .022232056 .11199951 .00022888184 .12998963-.009765625 .1459961-.009765625 .1639862-.009765625 .17999268 .0032196046 .18499756 .01222229 .18998719 .021224976 .19799805 .053237916 .20298767 .07424927 .20799256 .09326172 .21899414 .13928223 .22499085 .16429138 .23098755 .18629456 .23699951 .20831299 .24198914 .23132324 .25299073 .27233888 .25498963 .28033448 .28399659 .32136537 .31199647 .3613739 .35899354 .4133911 .43399049 .4133911 .49198915 .4133911 .49299623 .36238099 .49299623 .34336854 .49299623 .31835938 .48999024 .3053589 .47599793 .24932862L.43399049 .08125305Z"/>
<path id="font_3_2" d="M.22399903 .22851563C.2519989 .22851563 .33099366 .23051453 .3849945 .24951172 .45899964 .27549745 .47299195 .3234558 .47299195 .35343934 .47299195 .4084015 .41799928 .44140626 .34899903 .44140626 .22898865 .44140626 .066986087 .34944154 .066986087 .17843628 .066986087 .077301029 .12998963-.009765625 .24699402-.009765625 .41600038-.009765625 .49499513 .08932495 .49499513 .10334778 .49499513 .10934448 .48599244 .12036133 .47799684 .12036133 .47200013 .12036133 .46998597 .11836243 .46199037 .11035156 .38398744 .018234253 .2669983 .018234253 .24899292 .018234253 .18899536 .018234253 .14898682 .058273317 .14898682 .13938904 .14898682 .15341187 .14898682 .1734314 .16099549 .22851563H.22399903M.16899109 .2565155C.20999146 .40141297 .32099916 .4133911 .34899903 .4133911 .3929901 .4133911 .42999269 .39141847 .42999269 .35343934 .42999269 .2565155 .26098634 .2565155 .21798706 .2565155H.16899109Z"/>
<path id="font_3_8" d="M.24598694 .39465333H.34799195C.36698915 .39465333 .37998963 .39465333 .37998963 .4166565 .37998963 .43066407 .36698915 .43066407 .34999085 .43066407H.25498963L.2919922 .57850649C.29299928 .58351138 .29499818 .588501 .29499818 .5924988 .29499818 .6104889 .2809906 .6244812 .26098634 .6244812 .23599243 .6244812 .22099304 .6074829 .21398926 .58151248 .20698548 .5565338 .21998596 .6044922 .17599488 .43066407H.07398987C.054992677 .43066407 .041992189 .43066407 .041992189 .4086609 .041992189 .39465333 .053985597 .39465333 .07199097 .39465333H.16699219L.10798645 .15901184C.101989749 .13404846 .09298706 .098098758 .09298706 .085128787 .09298706 .0262146 .14299011-.009765625 .19999695-.009765625 .31098939-.009765625 .37399293 .13005066 .37399293 .14303589 .37399293 .15602112 .36099244 .15602112 .35798646 .15602112 .34599305 .15602112 .34498597 .15402222 .33699037 .13703919 .30899049 .074142459 .2579956 .018234253 .20298767 .018234253 .18199158 .018234253 .16799927 .031204224 .16799927 .06715393 .16799927 .07713318 .17199707 .098098758 .17399597 .10809326L.24598694 .39465333Z"/>
<path id="font_4_4" d="M.2939911 .16503906V.07800293C.2939911 .041992189 .2919922 .0309906 .21798706 .0309906H.19699097V0C.23799134 .0029907227 .2899933 .0029907227 .33198548 .0029907227 .37399293 .0029907227 .4269867 .0029907227 .46798707 0V.0309906H.44699098C.37298585 .0309906 .37098695 .041992189 .37098695 .07800293V.16503906H.47099305V.19602967H.37098695V.65075686C.37098695 .67074587 .37098695 .6767578 .35499574 .6767578 .34599305 .6767578 .34298707 .6767578 .33499146 .66474917L.027999878 .19602967V.16503906H.2939911M.2999878 .19602967H.055999757L.2999878 .5688019V.19602967Z"/>
</defs>
<path transform="matrix(1,0,0,-1.00002,72.774997,61.016984)" stroke-width=".29887" stroke-linecap="butt" stroke-miterlimit="10" stroke-linejoin="miter" fill="none" stroke="#797979" d="M0 0H53.37605"/>
<path transform="matrix(1,0,0,-1.00002,126.15105,61.016984)" d="M3.31755 0C2.33455 .1843 .73723 .73723-.3686 1.38231V-1.38231C.73723-.73723 2.33455-.1843 3.31755 0" fill="#797979"/>
<use data-text="E" xlink:href="#font_1_49" transform="matrix(9.9626,0,0,-9.962799,126.07599,71.26219)" fill="#797979"/>
<path transform="matrix(1,0,0,-1.00002,72.774997,61.016984)" stroke-width=".29887" stroke-linecap="butt" stroke-miterlimit="10" stroke-linejoin="miter" fill="none" stroke="#797979" d="M0 0H-53.37605"/>
<path transform="matrix(-1,-0,0,1.00002,19.398945,61.016984)" d="M3.31755 0C2.33455 .1843 .73723 .73723-.3686 1.38231V-1.38231C.73723-.73723 2.33455-.1843 3.31755 0" fill="#797979"/>
<path transform="matrix(1,0,0,-1.00002,72.774997,61.016984)" stroke-width=".29887" stroke-linecap="butt" stroke-miterlimit="10" stroke-linejoin="miter" fill="none" stroke="#797979" d="M0 0H53.37605"/>
<path transform="matrix(1,0,0,-1.00002,126.15105,61.016984)" d="M3.31755 0C2.33455 .1843 .73723 .73723-.3686 1.38231V-1.38231C.73723-.73723 2.33455-.1843 3.31755 0" fill="#797979"/>
<use data-text="W" xlink:href="#font_1_113" transform="matrix(9.9626,0,0,-9.962799,10.960999,71.29219)" fill="#797979"/>
<path transform="matrix(1,0,0,-1.00002,72.774997,61.016984)" stroke-width=".29887" stroke-linecap="butt" stroke-miterlimit="10" stroke-linejoin="miter" fill="none" stroke="#797979" d="M0 0V53.37605"/>
<path transform="matrix(0,-1.00002,-1,-0,72.774997,7.639866)" d="M3.31755 0C2.33455 .1843 .73723 .73723-.3686 1.38231V-1.38231C.73723-.73723 2.33455-.1843 3.31755 0" fill="#797979"/>
<use data-text="N" xlink:href="#font_1_76" transform="matrix(9.9626,0,0,-9.962799,76.244998,7.7249147)" fill="#797979"/>
<path transform="matrix(1,0,0,-1.00002,72.774997,61.016984)" stroke-width=".29887" stroke-linecap="butt" stroke-miterlimit="10" stroke-linejoin="miter" fill="none" stroke="#797979" d="M0 0V-53.37605"/>
<path transform="matrix(0,1.00002,1,0,72.774997,114.394107)" d="M3.31755 0C2.33455 .1843 .73723 .73723-.3686 1.38231V-1.38231C.73723-.73723 2.33455-.1843 3.31755 0" fill="#797979"/>
<path transform="matrix(1,0,0,-1.00002,72.774997,61.016984)" stroke-width=".29887" stroke-linecap="butt" stroke-miterlimit="10" stroke-linejoin="miter" fill="none" stroke="#797979" d="M0 0V53.37605"/>
<path transform="matrix(0,-1.00002,-1,-0,72.774997,7.639866)" d="M3.31755 0C2.33455 .1843 .73723 .73723-.3686 1.38231V-1.38231C.73723-.73723 2.33455-.1843 3.31755 0" fill="#797979"/>
<use data-text="S" xlink:href="#font_1_97" transform="matrix(9.9626,0,0,-9.962799,76.244998,121.11419)" fill="#797979"/>
<path transform="matrix(1,0,0,-1.00002,72.774997,61.016984)" stroke-width=".29887" stroke-linecap="butt" stroke-miterlimit="10" stroke-linejoin="miter" fill="none" stroke="#797979" d="M0 0V-53.37605"/>
<path transform="matrix(0,1.00002,1,0,72.774997,114.394107)" d="M3.31755 0C2.33455 .1843 .73723 .73723-.3686 1.38231V-1.38231C.73723-.73723 2.33455-.1843 3.31755 0" fill="#797979"/>
<path transform="matrix(1,0,0,-1.00002,72.774997,61.016984)" stroke-width="1.49442" stroke-linecap="butt" stroke-dasharray="1.49442,1.99255" stroke-miterlimit="10" stroke-linejoin="miter" fill="none" stroke="#000000" d="M0 0 36.56718 43.37057"/>
<path transform="matrix(1,0,0,-1.00002,72.774997,61.016984)" stroke-width="1.49442" stroke-linecap="butt" stroke-miterlimit="10" stroke-linejoin="miter" fill="none" stroke="#000000" d="M0 0-32.3482-38.36656"/>
<path transform="matrix(-.64456,.76451537,.7645,.6445729,40.426794,99.38431)" d="M6.54549 0C4.60605 .36362 1.45454 1.45454-.72726 2.72728V-2.72728C1.45454-1.45454 4.60605-.36362 6.54549 0"/>
<use data-text="&#x20d7;" xlink:href="#font_2_3" transform="matrix(9.9626,0,0,-9.962799,52.786005,94.88066)"/>
<use data-text="v" xlink:href="#font_2_2" transform="matrix(9.9626,0,0,-9.962799,53.174539,94.88066)"/>
<path transform="matrix(1,0,0,-1.00002,72.774997,61.016984)" stroke-width="1.49442" stroke-linecap="butt" stroke-miterlimit="10" stroke-linejoin="miter" fill="none" stroke="#0074c8" d="M28.3468 0C28.3468 15.6557 15.6557 28.3468 0 28.3468-15.6557 28.3468-28.3468 15.6557-28.3468 0-28.3468-8.37825-24.63907-16.3296-23.23517-17.5075"/>
<path transform="matrix(.76604,.64277288,.64276,-.76605537,49.539815,78.52483)" d="M6.54549 0C4.60605 .36362 1.45454 1.45454-.72726 2.72728V-2.72728C1.45454-1.45454 4.60605-.36362 6.54549 0" fill="#0074c8"/>
<use data-text="&#x03d5;" xlink:href="#font_2_1" transform="matrix(9.9626,0,0,-9.962799,1.2160034,25.751278)" fill="#0074c8"/>
<use data-text="p" xlink:href="#font_3_6" transform="matrix(6.9738,0,0,-6.97394,7.152008,27.245308)" fill="#0074c8"/>
<use data-text="o" xlink:href="#font_3_5" transform="matrix(6.9738,0,0,-6.97394,11.252609,27.245308)" fill="#0074c8"/>
<use data-text="l" xlink:href="#font_3_3" transform="matrix(6.9738,0,0,-6.97394,15.178864,27.245308)" fill="#0074c8"/>
<use data-text="a" xlink:href="#font_3_1" transform="matrix(6.9738,0,0,-6.97394,17.731278,27.245308)" fill="#0074c8"/>
<use data-text="r" xlink:href="#font_3_7" transform="matrix(6.9738,0,0,-6.97394,22.048066,27.245308)" fill="#0074c8"/>
<use data-text="=" xlink:href="#font_4_5" transform="matrix(9.9626,0,0,-9.962799,29.252015,25.751278)" fill="#0074c8"/>
<use data-text="2" xlink:href="#font_4_2" transform="matrix(9.9626,0,0,-9.962799,39.752595,25.751278)" fill="#0074c8"/>
<use data-text="3" xlink:href="#font_4_3" transform="matrix(9.9626,0,0,-9.962799,44.733888,25.751278)" fill="#0074c8"/>
<use data-text="0" xlink:href="#font_4_1" transform="matrix(9.9626,0,0,-9.962799,49.71518,25.751278)" fill="#0074c8"/>
<use data-text="&#x25e6;" xlink:href="#font_5_1" transform="matrix(6.9738,0,0,-6.97394,54.712007,22.135205)" fill="#0074c8"/>
<path transform="matrix(1,0,0,-1.00002,72.774997,61.016984)" stroke-width="1.49442" stroke-linecap="butt" stroke-miterlimit="10" stroke-linejoin="miter" fill="none" stroke="#ff0000" d="M0 42.5202C9.9955 42.5202 19.67506 38.99652 22.31755 36.77924"/>
<path transform="matrix(.76604,.64277288,.64276,-.76605537,95.09253,24.237008)" d="M6.54549 0C4.60605 .36362 1.45454 1.45454-.72726 2.72728V-2.72728C1.45454-1.45454 4.60605-.36362 6.54549 0" fill="#ff0000"/>
<use data-text="&#x03d5;" xlink:href="#font_2_1" transform="matrix(9.9626,0,0,-9.962799,98.32199,12.491009)" fill="#ff0000"/>
<use data-text="m" xlink:href="#font_3_4" transform="matrix(6.9738,0,0,-6.97394,104.257999,13.985039)" fill="#ff0000"/>
<use data-text="e" xlink:href="#font_3_2" transform="matrix(6.9738,0,0,-6.97394,111.32245,13.985039)" fill="#ff0000"/>
<use data-text="t" xlink:href="#font_3_8" transform="matrix(6.9738,0,0,-6.97394,115.10225,13.985039)" fill="#ff0000"/>
<use data-text="=" xlink:href="#font_4_5" transform="matrix(9.9626,0,0,-9.962799,121.38199,12.491009)" fill="#ff0000"/>
<use data-text="4" xlink:href="#font_4_4" transform="matrix(9.9626,0,0,-9.962799,131.88257,12.491009)" fill="#ff0000"/>
<use data-text="0" xlink:href="#font_4_1" transform="matrix(9.9626,0,0,-9.962799,136.86386,12.491009)" fill="#ff0000"/>
<use data-text="&#x25e6;" xlink:href="#font_5_1" transform="matrix(6.9738,0,0,-6.97394,141.861,8.874935)" fill="#ff0000"/>
</svg>
