<svg xmlns="http://www.w3.org/2000/svg" xmlns:xlink="http://www.w3.org/1999/xlink" version="1.1" width="280pt" height="222pt" viewBox="0 0 280 222">
<defs>
<clipPath id="clip_1">
<path transform="matrix(1.00005,0,0,-1,155.29366,111.521)" d="M85.04042 0 84.30986-2.87248 82.14285-5.69662 78.56403-8.42238 73.64735-11.00504 67.46423-13.39828 60.1327-15.5635 51.767-17.46103 42.5202-19.06136 32.54155-20.33388 22.01012-21.26015 11.09846-21.82101 0-22.0101-11.09846-21.82101-22.01012-21.26015-32.54155-20.33388-42.5202-19.06136-51.767-17.46103-60.1327-15.5635-67.46423-13.39828-73.64735-11.00504-78.56403-8.42238-82.14285-5.69662-84.30986-2.87248-85.04042 0-84.30986-11.09846-82.14285-22.01012-78.56403-32.54155-73.64735-42.5202-67.46423-51.767-60.1327-60.1327-51.767-67.46423-42.5202-73.64735-32.54155-78.56403-22.01012-82.14285-11.09846-84.30986 0-85.04042 11.09846-84.30986 22.01012-82.14285 32.54155-78.56403 42.5202-73.64735 51.767-67.46423 60.1327-60.1327 67.46423-51.767 73.64735-42.5202 78.56403-32.54155 82.14285-22.01012 84.30986-11.09846 85.04042 0"/>
</clipPath>
<path id="font_2_1" d="M.43699647 .67033389C.43699647 .67233279 .43998719 .68333438 .43998719 .6843262 .43998719 .68533328 .43998719 .69433596 .42799378 .69433596 .41799928 .69433596 .4169922 .69132998 .41299439 .67433169L.35499574 .44337464C.19599915 .43836976 .04899597 .30532838 .04899597 .169281 .04899597 .07424927 .11898804-.004776001 .24099732-.011779785 .23298645-.04283142 .22599793-.07489014 .21798706-.10594177 .20599365-.1530304 .19599915-.19108582 .19599915-.1940918 .19599915-.2040863 .20298767-.20507813 .20799256-.20507813 .21299744-.20507813 .21499634-.2040863 .21798706-.20108032 .21998596-.19908142 .22599793-.17506409 .22898865-.16104126L.2669983-.011779785C.42799378-.0067749025 .57299807 .12826538 .57299807 .26231385 .57299807 .3413391 .519989 .43338014 .3809967 .44337464L.43699647 .67033389M.24598694 .010223389C.18598938 .01322937 .11399841 .048233034 .11399841 .14826966 .11399841 .2683258 .19999695 .40837098 .34899903 .42137147L.24598694 .010223389M.375 .42137147C.45098878 .41737367 .5079956 .37135316 .5079956 .2833252 .5079956 .1652832 .42199708 .022232056 .27198792 .010223389L.375 .42137147Z"/>
<path id="font_3_4" d="M.68699648 .32714845C.70199587 .32714845 .72099307 .32714845 .72099307 .34713746 .72099307 .36714173 .70199587 .36714173 .6879883 .36714173H.08898926C.07499695 .36714173 .055999757 .36714173 .055999757 .34713746 .055999757 .32714845 .07499695 .32714845 .08999634 .32714845H.68699648M.6879883 .13284302C.70199587 .13284302 .72099307 .13284302 .72099307 .15284729 .72099307 .17285156 .70199587 .17285156 .68699648 .17285156H.08999634C.07499695 .17285156 .055999757 .17285156 .055999757 .15284729 .055999757 .13284302 .07499695 .13284302 .08898926 .13284302H.6879883Z"/>
<path id="font_3_2" d="M.2939911 .64004519C.2939911 .66400149 .2939911 .6660156 .2709961 .6660156 .20899964 .60227969 .12098694 .60227969 .08898926 .60227969V.57128909C.10899353 .57128909 .16799927 .57128909 .21998596 .5972748V.07902527C.21998596 .042999269 .21699524 .0309906 .1269989 .0309906H.09498596V0C.12998963 .0029907227 .21699524 .0029907227 .25698854 .0029907227 .29699708 .0029907227 .38398744 .0029907227 .4189911 0V.0309906H.3869934C.29699708 .0309906 .2939911 .041992189 .2939911 .07902527V.64004519Z"/>
<path id="font_3_1" d="M.45999146 .31976319C.45999146 .39982606 .45498658 .47988893 .41999818 .5539398 .37399293 .65000918 .2919922 .6660156 .25 .6660156 .18998719 .6660156 .116989139 .64001467 .07598877 .54693606 .04399109 .47789 .038986207 .39982606 .038986207 .31976319 .038986207 .24472046 .042999269 .15464783 .083999637 .07859802 .1269989-.0024719239 .19999695-.022460938 .24899292-.022460938 .30299378-.022460938 .3789978-.0014648438 .4229889 .09359741 .45498658 .16265869 .45999146 .2407074 .45999146 .31976319M.24899292-.00047302247C.20999146-.00047302247 .15098572 .024551392 .1329956 .12062073 .12199402 .18066406 .12199402 .2727356 .12199402 .3317871 .12199402 .39582826 .12199402 .46188355 .12998963 .5159149 .14898682 .63500979 .22399903 .64401248 .24899292 .64401248 .28199769 .64401248 .34799195 .6259918 .36698915 .52693179 .3769989 .47088624 .3769989 .39482118 .3769989 .3317871 .3769989 .25672914 .3769989 .18867493 .3659973 .12461853 .35099793 .029556275 .2939911-.00047302247 .24899292-.00047302247Z"/>
<path id="font_4_1" d="M.5069885 .24998474C.5069885 .3710022 .4099884 .4650116 .2919922 .4650116 .17199707 .4650116 .07699585 .36799623 .07699585 .25097657 .07699585 .1299591 .17399597 .035949708 .2919922 .035949708 .4119873 .035949708 .5069885 .13296509 .5069885 .24998474M.2919922 .08496094C.19799805 .08496094 .12599182 .16096497 .12599182 .24998474 .12599182 .34300233 .19999695 .41601563 .2919922 .41601563 .38598634 .41601563 .45799256 .33999635 .45799256 .25097657 .45799256 .15795899 .38398744 .08496094 .2919922 .08496094Z"/>
<path id="font_5_50" d="M.4139862 .21875C.4139862 .25274659 .41299439 .32781983 .37399293 .38790895 .33299256 .4499359 .27198792 .4609375 .23599243 .4609375 .125 .4609375 .034988405 .3548584 .034988405 .22573853 .034988405 .09411621 .1309967-.0107421879 .25099183-.0107421879 .31399537-.0107421879 .37098695 .013244629 .4099884 .041244508L.4039917 .1060791C.34098817 .054244996 .2749939 .050247194 .2519989 .050247194 .17199707 .050247194 .10798645 .121032718 .10499573 .21875H.4139862M.35699464 .27374269H.10998535C.12599182 .34985353 .1789856 .39993287 .23599243 .39993287 .28799439 .39993287 .34399415 .36587525 .35699464 .27374269Z"/>
<path id="font_5_91" d="M.43399049-.19335938V.45507813H.35899354V.3870697C.34899903 .4000702 .2999878 .45507813 .22200012 .45507813 .12199402 .45507813 .035995485 .35609437 .035995485 .22116089 .035995485 .09422302 .10899353-.0107421879 .20498657-.0107421879 .26098634-.0107421879 .31399537 .012252808 .35598756 .050247194V-.19335938H.43399049M.35899354 .14019776C.35899354 .12220764 .35899354 .12020874 .34899903 .10722351 .32299806 .06724548 .28599549 .050247194 .25 .050247194 .17399597 .050247194 .11399841 .12820435 .11399841 .22116089 .11399841 .32310487 .18598938 .3910675 .25898744 .3910675 .32798768 .3910675 .35899354 .32009889 .35899354 .28012086V.14019776Z"/>
<path id="font_5_109" d="M.43499757 .00024414063V.44433595H.35699464V.15426636C.35699464 .07925415 .30099488 .04425049 .23699951 .04425049 .1659851 .04425049 .15899658 .070251468 .15899658 .11326599V.44433595H.08099365V.10926819C.08099365 .037246705 .10398865-.0107421879 .18699646-.0107421879 .23999024-.0107421879 .31098939 .0052490236 .3600006 .04824829V.00024414063H.43499757Z"/>
<path id="font_5_28" d="M.40899659 .00024414063V.28903199C.40899659 .39094544 .33599855 .4609375 .24398804 .4609375 .1789856 .4609375 .13398743 .44493104 .08699036 .41792298L.09298706 .3519745C.14498902 .38894654 .19499207 .40193177 .24398804 .40193177 .29100038 .40193177 .33099366 .361969 .33099366 .2880249V.24505615C.18099976 .24305725 .053985597 .20106507 .053985597 .11317444 .053985597 .07022095 .08099365-.0107421879 .16799927-.0107421879 .18199158-.0107421879 .27598573-.008743286 .33399964 .036254884V.00024414063H.40899659M.33099366 .13214112C.33099366 .11317444 .33099366 .0881958 .29699708 .069229129 .2679901 .051254274 .22999573 .050247194 .21899414 .050247194 .17098999 .050247194 .12599182 .07322693 .12599182 .11515808 .12599182 .18507385 .28799439 .19206238 .33099366 .19406128V.13214112Z"/>
<path id="font_5_105" d="M.33198548 .027252198 .31599427 .086257938C.2899933 .06524658 .2579956 .053253175 .22599793 .053253175 .18899536 .053253175 .1749878 .08325195 .1749878 .13627625V.38632203H.31599427V.44433595H.1749878V.57128909H.10598755V.44433595H.018997193V.38632203H.102996829V.119262699C.102996829 .059249879 .116989139-.0107421879 .18598938-.0107421879 .2559967-.0107421879 .30699159 .014251709 .33198548 .027252198Z"/>
<path id="font_5_81" d="M.46899415 .22009278C.46899415 .3539734 .36898805 .4609375 .25 .4609375 .1269989 .4609375 .02999878 .35098268 .02999878 .22009278 .02999878 .08821106 .13198853-.0107421879 .24899292-.0107421879 .36898805-.0107421879 .46899415 .09020996 .46899415 .22009278M.3909912 .23008728C.3909912 .112197879 .32299806 .053253175 .24899292 .053253175 .17999268 .053253175 .10798645 .109191898 .10798645 .23008728 .10798645 .35098268 .18399048 .39993287 .24899292 .39993287 .31900025 .39993287 .3909912 .34797669 .3909912 .23008728Z"/>
<path id="font_5_96" d="M.32699586 .38806153V.45507813C.23799134 .45407105 .18299866 .4050598 .1519928 .35905458V.45007325H.08198547V0H.15699768V.21403504C.15699768 .31404115 .22898865 .38606263 .32699586 .38806153Z"/>
<path id="font_5_77" d="M.43499757 0V.29804994C.43499757 .36405946 .41999818 .45507813 .2979889 .45507813 .20799256 .45507813 .15899658 .3870697 .15299988 .3790741V.45007325H.08099365V0H.15899658V.2450409C.15899658 .31105042 .18399048 .3940735 .2599945 .3940735 .35598756 .3940735 .35699464 .32305909 .35699464 .29104615V0H.43499757Z"/>
<path id="font_5_63" d="M.43499757 0V.29804994C.43499757 .36405946 .41999818 .45507813 .2979889 .45507813 .23599243 .45507813 .18798828 .42407228 .1559906 .3830719V.69433596H.08099365V0H.15899658V.2450409C.15899658 .31105042 .18399048 .3940735 .2599945 .3940735 .35598756 .3940735 .35699464 .32305909 .35699464 .29104615V0H.43499757Z"/>
<path id="font_5_84" d="M.47999574 .22315979C.47999574 .34309388 .4169922 .45507813 .32099916 .45507813 .26098634 .45507813 .20298767 .43406678 .15699768 .3950653V.44407655H.08198547V-.19335938H.1599884V.04624939C.19099427 .01725769 .23498535-.0107421879 .29499818-.0107421879 .3919983-.0107421879 .47999574 .0872345 .47999574 .22315979M.4019928 .22315979C.4019928 .12020874 .33099366 .050247194 .2559967 .050247194 .21699524 .050247194 .18998719 .070236209 .16999817 .097229007 .1599884 .112213138 .1599884 .114212039 .1599884 .13220215V.33309938C.18399048 .36808778 .22299195 .3910675 .2659912 .3910675 .34199525 .3910675 .4019928 .31510926 .4019928 .22315979Z"/>
<path id="font_5_72" d="M.1559906 0V.69433596H.08099365V0H.1559906Z"/>
<path id="font_5_98" d="M.3600006 .12817383C.3600006 .18313599 .32299806 .21710205 .32099916 .22009278 .28199769 .25506593 .25498963 .26106263 .20498657 .27005006 .1499939 .28103639 .10398865 .29103089 .10398865 .33998109 .10398865 .40193177 .17599488 .40193177 .18899536 .40193177 .22099304 .40193177 .27398683 .39793397 .33099366 .3639679L.34298707 .42892457C.29100038 .45292665 .25 .4609375 .19898987 .4609375 .17399597 .4609375 .032989503 .4609375 .032989503 .32998658 .032989503 .28103639 .06199646 .24906922 .08699036 .23008728 .117996219 .20809937 .13999939 .20411682 .19499207 .19311524 .23098755 .18612671 .2889862 .1741333 .2889862 .1211853 .2889862 .052246095 .20999146 .052246095 .19499207 .052246095 .11399841 .052246095 .057998659 .08921814 .039993287 .10121155L.027999878 .0332489C.05999756 .01725769 .114990238-.0107421879 .19599915-.0107421879 .21398926-.0107421879 .2689972-.0107421879 .31199647 .021255494 .34298707 .04525757 .3600006 .08522034 .3600006 .12817383Z"/>
<path id="font_5_75" d="M.71299746 0V.29804994C.71299746 .36506654 .69699099 .45507813 .57598879 .45507813 .5159912 .45507813 .46398927 .427063 .4269867 .37306214 .40098573 .44906617 .33099366 .45507813 .29899598 .45507813 .22698975 .45507813 .17999268 .41407777 .15299988 .37806703V.45007325H.08099365V0H.15899658V.2450409C.15899658 .31304933 .18598938 .3940735 .2599945 .3940735 .35299684 .3940735 .35798646 .3290558 .35798646 .29104615V0H.43598939V.2450409C.43598939 .31304933 .46299745 .3940735 .5369873 .3940735 .6299896 .3940735 .6349945 .3290558 .6349945 .29104615V0H.71299746Z"/>
<path id="font_5_66" d="M.1559906 0V.44433595H.08099365V0H.1559906M.1639862 .5662689V.65527346H.07499695V.5662689H.1639862Z"/>
<path id="font_5_47" d="M.43399049-.0001373291V.69433596H.35899354V.39985658C.30599977 .44407655 .25 .45507813 .21299744 .45507813 .11399841 .45507813 .035995485 .35107423 .035995485 .22210694 .035995485 .09111023 .11299133-.0107421879 .20799256-.0107421879 .24099732-.0107421879 .2999878-.0017547608 .35598756 .052246095V.00024414063L.43399049-.0001373291M.35598756 .13911438C.35598756 .12512207 .35499574 .1071167 .32299806 .078125 .2999878 .05821228 .2749939 .050247194 .24899292 .050247194 .18699646 .050247194 .11399841 .09712219 .11399841 .22109986 .11399841 .35307313 .19999695 .3940735 .25898744 .3940735 .3039856 .39385987 .33399964 .37086488 .35598756 .3388672V.13911438Z"/>
<path id="font_3_3" d="M.1269989 .07699585 .23298645 .18003845C.3889923 .31811524 .44898988 .3721466 .44898988 .47216798 .44898988 .5860901 .35899354 .6660156 .23699951 .6660156 .12399292 .6660156 .049987794 .57411196 .049987794 .48516847 .049987794 .4291687 .099990848 .4291687 .102996829 .4291687 .11999512 .4291687 .15499878 .44117738 .15499878 .48217774 .15499878 .5081787 .13699341 .5341797 .101989749 .5341797 .09399414 .5341797 .09199524 .5341797 .08898926 .5331726 .11199951 .59806826 .1659851 .63500979 .22399903 .63500979 .31498719 .63500979 .35798646 .5541382 .35798646 .47216798 .35798646 .39215089 .30799867 .31311036 .25299073 .25108338L.06098938 .036987306C.049987794 .025985718 .049987794 .023986817 .049987794 0H.42099L.44898988 .17404175H.42399598C.4189911 .14402771 .4119873 .1000061 .4019928 .084991458 .394989 .07699585 .32899476 .07699585 .30699159 .07699585H.1269989Z"/>
<path id="font_5_97" d="M.49899293 .18856812C.49899293 .25358583 .46798707 .30158998 .44599916 .32559205 .39898683 .3755951 .3659973 .38459779 .27398683 .40760804 .21598816 .4216156 .19999695 .42562867 .16999817 .4516449 .16299439 .45765687 .1349945 .48667909 .1349945 .53071597 .1349945 .58976748 .18899536 .6498108 .2809906 .6498108 .36499024 .6498108 .41299439 .6167908 .44999696 .5857544L.46499635 .66581729C.4099884 .69880679 .35499574 .7158203 .28199769 .7158203 .14299011 .7158203 .055999757 .6177826 .055999757 .5187073 .055999757 .47566224 .069992069 .43362428 .10998535 .39160157 .1519928 .34658814 .19599915 .33459474 .25498963 .32058717 .33999635 .29959107 .34999085 .29658509 .37799073 .27157594 .397995 .25457765 .41999818 .22157288 .41999818 .17855835 .41999818 .11254883 .36499024 .046524049 .27398683 .046524049 .23298645 .046524049 .14299011 .056533815 .05899048 .12754822L.04399109 .046524049C.13198853-.008468628 .21199036-.022460938 .2749939-.022460938 .40699769-.022460938 .49899293 .07853699 .49899293 .18856812Z"/>
</defs>
<path transform="matrix(1.00005,0,0,-1,155.29366,111.521)" stroke-width=".79701" stroke-linecap="butt" stroke-dasharray="2.98883,2.98883" stroke-linejoin="bevel" fill="none" stroke="#929292" d="M0-109.5238V109.5238"/>
<g clip-path="url(#clip_1)">
</g>
<path transform="matrix(1.00005,0,0,-1,155.29366,111.521)" stroke-width=".3985" stroke-linecap="butt" stroke-linejoin="bevel" fill="none" stroke="#000000" d="M85.04042 0C85.04042 46.96713 46.96713 85.04042 0 85.04042-46.96713 85.04042-85.04042 46.96713-85.04042 0-85.04042-46.96713-46.96713-85.04042 0-85.04042 46.96713-85.04042 85.04042-46.96713 85.04042 0ZM0 0"/>
<path transform="matrix(1.00005,0,0,-1,155.29366,111.521)" stroke-width="1.19553" stroke-linecap="butt" stroke-linejoin="bevel" fill="none" stroke="#929292" d="M85.04042 0C85.04042 0 84.7119-2.08209 84.30986-2.87248 83.90782-3.66287 82.94006-4.9266 82.14285-5.69662 81.34563-6.46666 79.74277-7.68585 78.56403-8.42238 77.3853-9.15889 75.18742-10.31464 73.64735-11.00504 72.1073-11.69543 69.33934-12.76581 67.46423-13.39828 65.58911-14.03076 62.31067-14.99982 60.1327-15.5635 57.95476-16.1272 54.21071-16.97572 51.767-17.46103 49.3233-17.94633 45.18768-18.66277 42.5202-19.06136 39.8527-19.45996 35.38728-20.02881 32.54155-20.33388 29.69582-20.63896 24.98529-21.0538 22.01012-21.26015 19.03494-21.46648 14.15231-21.71698 11.09846-21.82101 8.04462-21.92506 3.07977-22.0101 0-22.0101-3.07977-22.0101-8.04462-21.92506-11.09846-21.82101-14.15231-21.71698-19.03494-21.46648-22.01012-21.26015-24.98529-21.0538-29.69582-20.63896-32.54155-20.33388-35.38728-20.02881-39.8527-19.45996-42.5202-19.06136-45.18768-18.66277-49.3233-17.94633-51.767-17.46103-54.21071-16.97572-57.95476-16.1272-60.1327-15.5635-62.31067-14.99982-65.58911-14.03076-67.46423-13.39828-69.33934-12.76581-72.1073-11.69543-73.64735-11.00504-75.18742-10.31464-77.3853-9.15889-78.56403-8.42238-79.74277-7.68585-81.34563-6.46666-82.14285-5.69662-82.94006-4.9266-83.90782-3.66287-84.30986-2.87248-84.7119-2.08209-85.04042 0-85.04042 0"/>
<path transform="matrix(1.00005,0,0,-1,155.29366,111.521)" stroke-width="1.19553" stroke-linecap="butt" stroke-dasharray="2.98883,2.98883" stroke-linejoin="bevel" fill="none" stroke="#929292" d="M-85.04042 0C-85.04042 0-84.7119 2.08209-84.30986 2.87248-83.90782 3.66287-82.94006 4.9266-82.14285 5.69662-81.34563 6.46666-79.74277 7.68585-78.56403 8.42238-77.3853 9.15889-75.18742 10.31464-73.64735 11.00504-72.1073 11.69543-69.33934 12.76581-67.46423 13.39828-65.58911 14.03076-62.31067 14.99982-60.1327 15.5635-57.95476 16.1272-54.21071 16.97572-51.767 17.46103-49.3233 17.94633-45.18768 18.66277-42.5202 19.06136-39.8527 19.45996-35.38728 20.02881-32.54155 20.33388-29.69582 20.63896-24.98529 21.0538-22.01012 21.26015-19.03494 21.46648-14.15231 21.71698-11.09846 21.82101-8.04462 21.92506-3.07977 22.0101 0 22.0101 3.07977 22.0101 8.04462 21.92506 11.09846 21.82101 14.15231 21.71698 19.03494 21.46648 22.01012 21.26015 24.98529 21.0538 29.69582 20.63896 32.54155 20.33388 35.38728 20.02881 39.8527 19.45996 42.5202 19.06136 45.18768 18.66277 49.3233 17.94633 51.767 17.46103 54.21071 16.97572 57.95476 16.1272 60.1327 15.5635 62.31067 14.99982 65.58911 14.03076 67.46423 13.39828 69.33934 12.76581 72.1073 11.69543 73.64735 11.00504 75.18742 10.31464 77.3853 9.15889 78.56403 8.42238 79.74277 7.68585 81.34563 6.46666 82.14285 5.69662 82.94006 4.9266 83.90782 3.66287 84.30986 2.87248 84.7119 2.08209 85.04042 0 85.04042 0"/>
<path transform="matrix(1.00005,0,0,-1,155.29366,111.521)" stroke-width="1.19553" stroke-linecap="butt" stroke-linejoin="bevel" fill="none" stroke="#0074c8" d="M79.91225-28.09496C79.91225-28.09496 79.60323-30.05144 79.22537-30.79416 78.84753-31.53688 77.93814-32.72443 77.18898-33.44803 76.43982-34.17162 74.9336-35.3173 73.826-36.00941 72.7184-36.70154 70.65323-37.78761 69.20605-38.43636 67.7589-39.0851 65.15785-40.09088 63.39578-40.6852 61.63373-41.27953 58.55295-42.19017 56.5063-42.71988 54.45967-43.24959 50.94124-44.04697 48.64494-44.503 46.34863-44.95905 42.4627-45.63228 39.95612-46.00682 37.44952-46.38136 33.25327-46.91588 30.57912-47.20255 27.90497-47.48921 23.47844-47.87906 20.68265-48.07295 17.88686-48.26683 13.2986-48.50223 10.42891-48.6 7.55923-48.69778 2.89398-48.77777 0-48.77777-2.89398-48.77777-7.55923-48.69778-10.42891-48.6-13.2986-48.50223-17.88686-48.26683-20.68265-48.07295-23.47844-47.87906-27.90497-47.48921-30.57912-47.20255-33.25327-46.91588-37.44952-46.38136-39.95612-46.00682-42.4627-45.63228-46.34863-44.95905-48.64494-44.503-50.94124-44.04697-54.45967-43.24959-56.5063-42.71988-58.55295-42.19017-61.63373-41.27953-63.39578-40.6852-65.15785-40.09088-67.7589-39.0851-69.20605-38.43636-70.65323-37.78761-72.7184-36.70154-73.826-36.00941-74.9336-35.3173-76.43982-34.17162-77.18898-33.44803-77.93814-32.72443-78.84753-31.53688-79.22537-30.79416-79.60323-30.05144-79.91225-28.09496-79.91225-28.09496"/>
<path transform="matrix(1.00005,0,0,-1,155.29366,111.521)" stroke-width="1.19553" stroke-linecap="butt" stroke-dasharray="2.98883,2.98883" stroke-linejoin="bevel" fill="none" stroke="#0074c8" d="M-79.91225-28.09496C-79.91225-28.09496-79.60323-26.13847-79.22537-25.39575-78.84753-24.65303-77.93814-23.46548-77.18898-22.74188-76.43982-22.01828-74.9336-20.8726-73.826-20.18048-72.7184-19.48837-70.65323-18.4023-69.20605-17.75354-67.7589-17.1048-65.15785-16.09903-63.39578-15.5047-61.63373-14.91039-58.55295-13.99974-56.5063-13.47003-54.45967-12.9403-50.94124-12.14294-48.64494-11.68689-46.34863-11.23085-42.4627-10.55763-39.95612-10.18309-37.44952-9.80853-33.25327-9.27402-30.57912-8.98735-27.90497-8.7007-23.47844-8.31084-20.68265-8.11696-17.88686-7.92307-13.2986-7.68768-10.42891-7.5899-7.55923-7.49213-2.89398-7.41212 0-7.41212 2.89398-7.41212 7.55923-7.49213 10.42891-7.5899 13.2986-7.68768 17.88686-7.92307 20.68265-8.11696 23.47844-8.31084 27.90497-8.7007 30.57912-8.98735 33.25327-9.27402 37.44952-9.80853 39.95612-10.18309 42.4627-10.55763 46.34863-11.23085 48.64494-11.68689 50.94124-12.14294 54.45967-12.9403 56.5063-13.47003 58.55295-13.99974 61.63373-14.91039 63.39578-15.5047 65.15785-16.09903 67.7589-17.1048 69.20605-17.75354 70.65323-18.4023 72.7184-19.48837 73.826-20.18048 74.9336-20.8726 76.43982-22.01828 77.18898-22.74188 77.93814-23.46548 78.84753-24.65303 79.22537-25.39575 79.60323-26.13847 79.91225-28.09496 79.91225-28.09496"/>
<path transform="matrix(1.00005,0,0,-1,155.29366,111.521)" stroke-width=".79701" stroke-linecap="butt" stroke-linejoin="bevel" fill="none" stroke="#929292" d="M0-109.5238V-82.14285M18.04721-83.10063C18.04721-83.10063 22.35085-81.90106 23.94096-81.22722 25.5311-80.55338 28.0189-79.21988 29.50774-78.24403 30.99655-77.26819 33.30385-75.45813 34.67137-74.19394 36.0389-72.92973 38.13663-70.66815 39.36397-69.13252 40.5913-67.5969 42.44705-64.91237 43.51721-63.12616 44.58737-61.33997 46.17818-58.27086 47.077-56.2588 47.97581-54.24675 49.28014-50.835 49.99532-48.62459 50.7105-46.41415 51.71002-42.70659 52.23154-40.32755 52.75307-37.94849 53.43338-33.99309 53.75407-31.47801 54.07478-28.96294 54.4271-24.8169 54.54301-22.20056 54.65895-19.58424 54.68059-15.30354 54.58974-12.62137 54.49889-9.9392 54.18457-5.58107 53.88817-2.86923 53.59175-.1574 52.95058 4.21944 52.45343 6.92366 51.95628 9.62788 50.99702 13.96127 50.30501 16.62091 49.613 19.28053 48.3433 23.5138 47.46585 26.09251 46.58838 28.67125 45.03107 32.74385 43.98088 35.20663 42.9307 37.66942 41.10588 41.52953 39.89685 43.84256 38.68782 46.15558 36.61853 49.74576 35.26697 51.87738 33.9154 54.009 31.63098 57.28423 30.15567 59.20581 28.68036 61.12741 26.2129 64.04172 24.63388 65.72696 23.05487 67.4122 20.43657 69.92662 18.77516 71.35191 17.11375 72.7772 14.38028 74.85327 12.6595 75.99948 10.93872 77.1457 8.12947 78.76091 6.373 79.6131 4.61652 80.4653 0 82.14159 0 82.14159V109.5238"/>
<path transform="matrix(1.00005,0,0,-1,155.29366,111.521)" stroke-width=".79701" stroke-linecap="butt" stroke-linejoin="bevel" fill="none" stroke="#000000" d="M0 82.14285V0L51.3669-43.93866"/>
<path transform="matrix(1.00005,0,0,-1,155.29366,111.521)" d="M0 82.14285V0L51.3669-43.93866 0 82.14285C0 82.14285 3.15881 81.04741 4.36688 80.5289 5.57495 80.01039 7.51042 79.06485 8.70697 78.4057 9.90352 77.74655 11.81354 76.57437 12.99083 75.77821 14.16812 74.98206 16.04138 73.59506 17.19208 72.66747 18.34277 71.73988 20.16788 70.14644 21.28432 69.09271 22.40074 68.03899 24.16338 66.24557 25.23857 65.07292 26.31378 63.90028 28.00664 61.92506 29.03366 60.64105 30.06067 59.35703 31.66855 57.20613 32.6406 55.81854 33.61264 54.43095 35.12813 52.12228 36.03949 50.64018 36.95085 49.15808 38.36469 46.70372 39.20912 45.1365 40.05356 43.56929 41.3533 40.9866 42.12572 39.34474 42.89815 37.70287 44.08115 35.00935 44.77632 33.303 45.47151 31.59663 46.52263 28.80663 47.13625 27.04646 47.74988 25.28632 48.67072 22.41931 49.19902 20.61694 49.72733 18.81459 50.50482 15.8893 50.94388 14.0562 51.38292 12.2231 52.01569 9.25723 52.36346 7.40517 52.71124 5.55309 53.19664 2.56697 53.45044 .70772 53.70424-1.1515 54.03448-4.14037 54.19267-5.99501 54.35086-7.84966 54.52892-10.82158 54.5906-12.65932 54.6523-14.49706 54.6726-17.4308 54.63731-19.24019 54.60204-21.04958 54.46812-23.93028 54.33627-25.70016 54.20442-27.47006 53.91489-30.2777 53.68703-31.99638 53.45917-33.71507 53.01595-36.43059 52.69392-38.08734 52.3719-39.74411 51.36603-43.9372 51.36603-43.9372L0 82.14285" fill="#cce3f4" fill-opacity=".35"/>
<path transform="matrix(1.00005,0,0,-1,155.29366,111.521)" stroke-width="1.19553" stroke-linecap="butt" stroke-linejoin="bevel" fill="none" stroke="#0074c8" d="M0 16.4283C0 16.4283 .63174 16.20921 .87329 16.10548 1.11482 16.00175 1.5017 15.81256 1.74095 15.68073 1.98022 15.54889 2.36234 15.31451 2.59781 15.15529 2.8333 14.99606 3.20808 14.71858 3.43822 14.53305 3.66837 14.34753 4.03336 14.02882 4.25659 13.8181 4.47983 13.60739 4.83226 13.24881 5.04727 13.01431 5.2623 12.77983 5.60095 12.38481 5.80637 12.12804 6.0118 11.87126 6.33347 11.4411 6.52785 11.16359 6.72221 10.88608 7.02512 10.42435 7.20737 10.12791 7.38963 9.83148 7.67253 9.34044 7.84146 9.02698 8.01039 8.7135 8.2705 8.19691 8.42496 7.86858 8.57942 7.54025 8.81583 7.00177 8.95482 6.66052 9.09381 6.31929 9.304 5.76112 9.42673 5.40907 9.54945 5.05702 9.7337 4.48366 9.83937 4.12321 9.94504 3.76276 10.10063 3.17769 10.18842 2.81111 10.27621 2.44453 10.40262 1.85146 10.47217 1.48105 10.54172 1.11063 10.63898 .51323 10.68973 .14136 10.7405-.2305 10.80647-.82828 10.83809-1.19919 10.8697-1.5701 10.90532-2.1645 10.91768-2.53194 10.93004-2.89937 10.93427-3.48566 10.92719-3.84744 10.92012-4.20924 10.89304-4.78549 10.86664-5.1395 10.84026-5.49348 10.78242-6.05518 10.73688-6.39888 10.69133-6.7426 10.60272-7.28549 10.53835-7.61685 10.47395-7.94821 10.27277-8.78717 11.61072-3.20712"/>
<path transform="matrix(-.23316166,.97238,.97242859,.23315,166.90496,114.7281)" d="M5.73854 0C4.0382 .31879 1.27522 1.27522-.6376 2.39105V-2.39105C1.27522-1.27522 4.0382-.31879 5.73854 0" fill="#0074c8"/>
<use data-text="&#x03d5;" xlink:href="#font_2_1" transform="matrix(9.963098,0,0,-9.9626,164.2691,102.673007)" fill="#0074c8"/>
<use data-text="=" xlink:href="#font_3_4" transform="matrix(9.963098,0,0,-9.9626,172.97356,102.673007)" fill="#0074c8"/>
<use data-text="1" xlink:href="#font_3_2" transform="matrix(9.963098,0,0,-9.9626,183.47466,102.673007)" fill="#0074c8"/>
<use data-text="1" xlink:href="#font_3_2" transform="matrix(9.963098,0,0,-9.9626,188.45619,102.673007)" fill="#0074c8"/>
<use data-text="0" xlink:href="#font_3_1" transform="matrix(9.963098,0,0,-9.9626,193.43773,102.673007)" fill="#0074c8"/>
<use data-text="&#x25e6;" xlink:href="#font_4_1" transform="matrix(6.9741489,0,0,-6.9738,198.4348,99.05801)" fill="#0074c8"/>
<path transform="matrix(1.00005,0,0,-1,155.29366,111.521)" d="M52.36317-43.93866C52.36317-43.38843 51.91713-42.94238 51.3669-42.94238 50.81667-42.94238 50.37062-43.38843 50.37062-43.93866 50.37062-44.4889 50.81667-44.93494 51.3669-44.93494 51.91713-44.93494 52.36317-44.4889 52.36317-43.93866ZM51.3669-43.93866" fill="#0074c8"/>
<path transform="matrix(1.00005,0,0,-1,155.29366,111.521)" stroke-width=".3985" stroke-linecap="butt" stroke-linejoin="bevel" fill="none" stroke="#000000" d="M52.36317-43.93866C52.36317-43.38843 51.91713-42.94238 51.3669-42.94238 50.81667-42.94238 50.37062-43.38843 50.37062-43.93866 50.37062-44.4889 50.81667-44.93494 51.3669-44.93494 51.91713-44.93494 52.36317-44.4889 52.36317-43.93866ZM51.3669-43.93866"/>
<path transform="matrix(1.00005,0,0,-1,155.29366,111.521)" d="M.99628 0C.99628 .55023 .55023 .99628 0 .99628-.55023 .99628-.99628 .55023-.99628 0-.99628-.55023-.55023-.99628 0-.99628 .55023-.99628 .99628-.55023 .99628 0ZM0 0" fill="#0074c8"/>
<path transform="matrix(1.00005,0,0,-1,155.29366,111.521)" stroke-width=".3985" stroke-linecap="butt" stroke-linejoin="bevel" fill="none" stroke="#000000" d="M.99628 0C.99628 .55023 .55023 .99628 0 .99628-.55023 .99628-.99628 .55023-.99628 0-.99628-.55023-.55023-.99628 0-.99628 .55023-.99628 .99628-.55023 .99628 0ZM0 0"/>
<path transform="matrix(1.00005,0,0,-1,155.29366,111.521)" stroke-width="1.19553" stroke-linecap="butt" stroke-linejoin="bevel" fill="none" stroke="#000000" d="M-23.06854 92.3862C-23.06854 92.3862-22.18936 92.01553-21.81981 91.87895-21.45024 91.74239-20.81906 91.52954-20.40497 91.40182-19.99088 91.27411-19.29079 91.0763-18.8353 90.9584-18.37979 90.84052-17.61548 90.6593-17.122 90.55212-16.62851 90.44495-15.80621 90.28157-15.27853 90.18594-14.75084 90.0903-13.87663 89.94612-13.3187 89.86275-12.76074 89.77937-11.84108 89.65546-11.25722 89.58499-10.67336 89.51453-9.7159 89.41183-9.11053 89.35483-8.50517 89.29782-7.51656 89.2172-6.89421 89.17404-6.27187 89.13087-5.25957 89.07268-4.62512 89.04373-3.99066 89.01479-2.96313 88.97987-2.32141 88.96536-1.67969 88.95084-.64418 88.93906 0 88.93906 .64418 88.93906 1.67969 88.95084 2.32141 88.96536 2.96313 88.97987 3.99066 89.01479 4.62512 89.04373 5.25957 89.07268 6.27187 89.13087 6.89421 89.17404 7.51656 89.2172 8.50517 89.29782 9.11053 89.35483 9.7159 89.41183 10.67336 89.51453 11.25722 89.58499 11.84108 89.65546 12.76074 89.77937 13.3187 89.86275 13.87663 89.94612 14.75084 90.0903 15.27853 90.18594 15.80621 90.28157 16.62851 90.44495 17.122 90.55212 17.61548 90.6593 18.37979 90.84052 18.8353 90.9584 19.29079 91.0763 19.99088 91.27411 20.40497 91.40182 20.81906 91.52954 21.45024 91.74239 21.81981 91.87895 22.18936 92.01553 23.06854 92.3862 17.78087 90.1571"/>
<path transform="matrix(.921476,-.38844,-.3884594,-.92143,173.0754,21.363907)" d="M5.73854 0C4.0382 .31879 1.27522 1.27522-.6376 2.39105V-2.39105C1.27522-1.27522 4.0382-.31879 5.73854 0"/>
<path transform="matrix(1.00005,0,0,-1,155.29366,111.521)" stroke-width=".3985" stroke-linecap="butt" stroke-linejoin="bevel" fill="none" stroke="#000000" d="M-90.70978 0H-119.05658M0 82.14285C-22.28218 82.14285-34.41142 87.81212-56.69362 87.81212M0-82.14285C-22.28218-82.14285-34.41142-87.81212-56.69362-87.81212"/>
<use data-text="e" xlink:href="#font_5_50" transform="matrix(9.963098,0,0,-9.9626,1.4859772,113.399)"/>
<use data-text="q" xlink:href="#font_5_91" transform="matrix(9.963098,0,0,-9.9626,5.909607,113.399)"/>
<use data-text="u" xlink:href="#font_5_109" transform="matrix(9.963098,0,0,-9.9626,11.060516,113.399)"/>
<use data-text="a" xlink:href="#font_5_28" transform="matrix(9.963098,0,0,-9.9626,16.211457,113.399)"/>
<use data-text="t" xlink:href="#font_5_105" transform="matrix(9.963098,0,0,-9.9626,21.003693,113.399)"/>
<use data-text="o" xlink:href="#font_5_81" transform="matrix(9.963098,0,0,-9.9626,24.600373,113.399)"/>
<use data-text="r" xlink:href="#font_5_96" transform="matrix(9.963098,0,0,-9.9626,29.312928,113.399)"/>
<use data-text="n" xlink:href="#font_5_77" transform="matrix(9.963098,0,0,-9.9626,52.53453,26.200005)"/>
<use data-text="o" xlink:href="#font_5_81" transform="matrix(9.963098,0,0,-9.9626,57.685457,26.200005)"/>
<use data-text="r" xlink:href="#font_5_96" transform="matrix(9.963098,0,0,-9.9626,62.39801,26.200005)"/>
<use data-text="t" xlink:href="#font_5_105" transform="matrix(9.963098,0,0,-9.9626,65.80536,26.200005)"/>
<use data-text="h" xlink:href="#font_5_63" transform="matrix(9.963098,0,0,-9.9626,69.40204,26.200005)"/>
<use data-text="p" xlink:href="#font_5_84" transform="matrix(9.963098,0,0,-9.9626,77.86072,26.200005)"/>
<use data-text="o" xlink:href="#font_5_81" transform="matrix(9.963098,0,0,-9.9626,83.29062,26.200005)"/>
<use data-text="l" xlink:href="#font_5_72" transform="matrix(9.963098,0,0,-9.9626,88.272159,26.200005)"/>
<use data-text="e" xlink:href="#font_5_50" transform="matrix(9.963098,0,0,-9.9626,90.65335,26.200005)"/>
<use data-text="s" xlink:href="#font_5_98" transform="matrix(9.963098,0,0,-9.9626,51.84648,201.824)"/>
<use data-text="o" xlink:href="#font_5_81" transform="matrix(9.963098,0,0,-9.9626,55.662355,201.824)"/>
<use data-text="u" xlink:href="#font_5_109" transform="matrix(9.963098,0,0,-9.9626,60.64389,201.824)"/>
<use data-text="t" xlink:href="#font_5_105" transform="matrix(9.963098,0,0,-9.9626,65.7948,201.824)"/>
<use data-text="h" xlink:href="#font_5_63" transform="matrix(9.963098,0,0,-9.9626,69.39148,201.824)"/>
<use data-text="p" xlink:href="#font_5_84" transform="matrix(9.963098,0,0,-9.9626,77.86011,201.824)"/>
<use data-text="o" xlink:href="#font_5_81" transform="matrix(9.963098,0,0,-9.9626,83.29001,201.824)"/>
<use data-text="l" xlink:href="#font_5_72" transform="matrix(9.963098,0,0,-9.9626,88.271549,201.824)"/>
<use data-text="e" xlink:href="#font_5_50" transform="matrix(9.963098,0,0,-9.9626,90.65274,201.824)"/>
<path transform="matrix(1.00005,0,0,-1,155.29366,111.521)" stroke-width=".3985" stroke-linecap="butt" stroke-linejoin="bevel" fill="none" stroke="#000000" d="M38.65245-70.00595 44.32173-98.35277"/>
<use data-text="m" xlink:href="#font_5_75" transform="matrix(9.963098,0,0,-9.9626,181.81798,220.30802)"/>
<use data-text="e" xlink:href="#font_5_50" transform="matrix(9.963098,0,0,-9.9626,189.7287,220.30802)"/>
<use data-text="r" xlink:href="#font_5_96" transform="matrix(9.963098,0,0,-9.9626,194.15232,220.30802)"/>
<use data-text="i" xlink:href="#font_5_66" transform="matrix(9.963098,0,0,-9.9626,197.55966,220.30802)"/>
<use data-text="d" xlink:href="#font_5_47" transform="matrix(9.963098,0,0,-9.9626,199.94086,220.30802)"/>
<use data-text="i" xlink:href="#font_5_66" transform="matrix(9.963098,0,0,-9.9626,205.0918,220.30802)"/>
<use data-text="a" xlink:href="#font_5_28" transform="matrix(9.963098,0,0,-9.9626,207.47299,220.30802)"/>
<use data-text="n" xlink:href="#font_5_77" transform="matrix(9.963098,0,0,-9.9626,212.26523,220.30802)"/>
<path transform="matrix(1.00005,0,0,-1,155.29366,111.521)" stroke-width=".3985" stroke-linecap="butt" stroke-linejoin="bevel" fill="none" stroke="#0074c8" d="M85.5816-28.09496 113.9284-33.76422"/>
<use data-text="2" xlink:href="#font_3_3" transform="matrix(9.963098,0,0,-9.9626,259.18586,155.938)" fill="#0074c8"/>
<use data-text="0" xlink:href="#font_3_1" transform="matrix(9.963098,0,0,-9.9626,264.1674,155.938)" fill="#0074c8"/>
<use data-text="&#x25e6;" xlink:href="#font_4_1" transform="matrix(6.9741489,0,0,-6.9738,269.14936,152.323)" fill="#0074c8"/>
<use data-text="S" xlink:href="#font_5_97" transform="matrix(9.963098,0,0,-9.9626,273.72956,155.938)" fill="#0074c8"/>
</svg>
