<svg xmlns="http://www.w3.org/2000/svg" xmlns:xlink="http://www.w3.org/1999/xlink" version="1.1" width="173pt" height="84pt" viewBox="0 0 173 84">
<defs>
<path id="font_1_1" d="M.44198609 .69781497C.43499757 .7108154 .43299867 .7158203 .41600038 .7158203 .39898683 .7158203 .39698792 .7108154 .3899994 .69781497L.051986696 .019989014C.04699707 .010986328 .04699707 .008987427 .04699707 .0079956059 .04699707 0 .052993776 0 .068984989 0H.7630005C.7789917 0 .7849884 0 .7849884 .0079956059 .7849884 .008987427 .7849884 .010986328 .7799988 .019989014L.44198609 .69781497M.38398744 .61582949 .6529999 .07598877H.11399841L.38398744 .61582949Z"/>
<path id="font_2_3" d="M.644989 .69506838C.644989 .69807437 .6429901 .7050781 .6339874 .7050781 .6289978 .7050781 .6279907 .70407107 .6159973 .6900635L.56799319 .6330414C.5419922 .68006899 .48999024 .7050781 .4249878 .7050781 .2979889 .7050781 .17799378 .58999636 .17799378 .4689026 .17799378 .38783265 .23098755 .34179688 .28199769 .32678224L.3889923 .2987671C.42599488 .2897644 .48098756 .27474977 .48098756 .19267273 .48098756 .1026001 .39898683 .008529663 .30099488 .008529663 .23699951 .008529663 .12599182 .030548096 .12599182 .15464783 .12599182 .17866516 .1309967 .2026825 .13198853 .20869446 .1329956 .21269226 .13398743 .21369934 .13398743 .21569824 .13398743 .22570801 .1269989 .22669983 .12199402 .22669983 .116989139 .22669983 .114990238 .22570801 .11199951 .22270203 .10798645 .21870423 .051986696-.009475708 .051986696-.012466431 .051986696-.018463135 .056991579-.022460938 .06298828-.022460938 .067993167-.022460938 .068984989-.021469117 .08099365-.007461548L.12998963 .049560548C.17298889-.008468628 .24099732-.022460938 .29899598-.022460938 .43499757-.022460938 .5529938 .11061096 .5529938 .2347107 .5529938 .30377198 .5189972 .33779908 .5039978 .35180665 .48098756 .37483216 .46598817 .37882997 .3769989 .40185548 .35499574 .40785218 .31900025 .41786195 .30999757 .41986085 .2829895 .42886354 .24899292 .457901 .24899292 .51094058 .24899292 .59199526 .32899476 .677063 .42399598 .677063 .5069885 .677063 .56799319 .6340332 .56799319 .52194216 .56799319 .48991395 .56399539 .47190858 .56399539 .4658966 .56399539 .4649048 .56399539 .45588685 .57598879 .45588685 .58599856 .45588685 .58699038 .45889283 .59098818 .47590638L.644989 .69506838Z"/>
<path id="font_2_2" d="M.30299378 .3157959H.47299195C.61499026 .3157959 .7539978 .41973878 .7539978 .53167727 .7539978 .6086273 .6879883 .6826172 .5569916 .6826172H.23298645C.21398926 .6826172 .20298767 .6826172 .20298767 .66360476 .20298767 .6516113 .21199036 .6516113 .23199463 .6516113 .24499512 .6516113 .2630005 .65060427 .2749939 .6496124 .29100038 .6476135 .29699708 .64460757 .29699708 .6336212 .29699708 .6296234 .29599 .62661746 .29299928 .614624L.15899658 .07795715C.14898682 .038986207 .14698792 .0309906 .067993167 .0309906 .050994874 .0309906 .039993287 .0309906 .039993287 .011993408 .039993287 0 .051986696 0 .054992677 0 .08299255 0 .1539917 .0029907227 .18199158 .0029907227 .20298767 .0029907227 .22499085 .0019989014 .24598694 .0019989014 .2679901 .0019989014 .2899933 0 .31098939 0 .31799317 0 .33099366 0 .33099366 .019989014 .33099366 .0309906 .32199098 .0309906 .30299378 .0309906 .2659912 .0309906 .23799134 .0309906 .23799134 .048980714 .23799134 .054977418 .23999024 .05996704 .24099732 .065963748L.30299378 .3157959M.375 .6136322C.38398744 .64860537 .38598634 .6516113 .42900086 .6516113H.5249939C.60798647 .6516113 .6609955 .62461856 .6609955 .55566409 .6609955 .5166931 .6409912 .43074037 .60198977 .39476014 .5519867 .34977723 .49198915 .34179688 .44799806 .34179688H.30699159L.375 .6136322Z"/>
<path id="font_2_1" d="M.54100039 .6096039C.548996 .64260867 .5509949 .6516113 .60598757 .6516113 .621994 .6516113 .6329956 .6516113 .6329956 .6706085 .6329956 .6796112 .6269989 .6826172 .61898806 .6826172 .59399417 .6826172 .5329895 .6796112 .5079956 .6796112 .47499085 .6796112 .3939972 .6826172 .36099244 .6826172 .35198976 .6826172 .33999635 .6826172 .33999635 .6626129 .33999635 .6516113 .34799195 .6516113 .37399293 .6516113 .39698792 .6516113 .40699769 .6516113 .43199159 .6496124 .45599366 .64660647 .46299745 .64360049 .46299745 .62960818 .46299745 .62361147 .46099855 .61660769 .45899964 .60861209L.34399415 .1496582C.31999208 .052642824 .2519989-.00047302247 .19999695-.00047302247 .17399597-.00047302247 .12098694 .009552002 .10499573 .061660768 .10798645 .060653688 .114990238 .060653688 .116989139 .060653688 .1559906 .060653688 .18199158 .09465027 .18199158 .12464905 .18199158 .15666199 .15499878 .1666565 .13798523 .1666565 .11999512 .1666565 .070999149 .15466309 .070999149 .08665466 .070999149 .02458191 .12399292-.022460938 .20298767-.022460938 .29499818-.022460938 .39898683 .043624879 .42399598 .14265442L.54100039 .6096039Z"/>
</defs>
<path transform="matrix(1,0,0,-1.00006,1.1060028,13.046003)" stroke-width="1.99255" stroke-linecap="butt" stroke-miterlimit="10" stroke-linejoin="miter" fill="none" stroke="#0074c8" d="M0 0H170.08257"/>
<use data-text="&#x2206;" xlink:href="#font_1_1" transform="matrix(9.9626,0,0,-9.963197,78.654,8.7287449)" fill="#0074c8"/>
<use data-text="S" xlink:href="#font_2_3" transform="matrix(9.9626,0,0,-9.963197,86.956,8.7287449)" fill="#0074c8"/>
<path transform="matrix(1,0,0,-1.00006,1.1060028,13.046003)" stroke-width="1.99255" stroke-linecap="butt" stroke-miterlimit="10" stroke-linejoin="miter" fill="none" stroke="#0074c8" d="M0-34.0165H85.04128"/>
<use data-text="&#x2206;" xlink:href="#font_1_1" transform="matrix(9.9626,0,0,-9.963197,35.585004,42.747789)" fill="#0074c8"/>
<use data-text="P" xlink:href="#font_2_2" transform="matrix(9.9626,0,0,-9.963197,43.887006,42.747789)" fill="#0074c8"/>
<path transform="matrix(1,0,0,-1.00006,1.1060028,13.046003)" stroke-width="1.99255" stroke-linecap="butt" stroke-miterlimit="10" stroke-linejoin="miter" fill="none" stroke="#0074c8" d="M0-68.03302H17.00824"/>
<use data-text="&#x2206;" xlink:href="#font_1_1" transform="matrix(9.9626,0,0,-9.963197,2.2180024,76.76582)" fill="#0074c8"/>
<use data-text="J" xlink:href="#font_2_1" transform="matrix(9.9626,0,0,-9.963197,10.520004,76.76582)" fill="#0074c8"/>
</svg>
