<svg xmlns="http://www.w3.org/2000/svg" xmlns:xlink="http://www.w3.org/1999/xlink" version="1.1" width="95pt" height="95pt" viewBox="0 0 95 95">
<defs>
<path id="font_1_3" d="M.5369873 .5947571C.522995 .5818329 .48999024 .55400088 .48999024 .5361023 .48999024 .5261078 .5 .516098 .5099945 .516098 .5189972 .516098 .5239868 .5231018 .5289917 .5290985 .54100039 .5440674 .56399539 .5718994 .60798647 .59376528 .61499026 .59776309 .625 .6027527 .625 .61476138 .625 .62475588 .6179962 .62976077 .61099246 .6347656 .58898928 .6497803 .5779877 .66781619 .56999209 .69184878 .56799319 .7008667 .56399539 .7138672 .5499878 .7138672 .5359955 .7138672 .5299988 .7008667 .5299988 .69285586 .5299988 .68785098 .5379944 .65579226 .55400088 .6347656H.21699524C.19999695 .6347656 .18199158 .6347656 .18199158 .61476138 .18199158 .5947571 .19999695 .5947571 .21699524 .5947571H.5369873Z"/>
<path id="font_1_2" d="M.46798707 .37236024C.46798707 .42637635 .44198609 .4423828 .42399598 .4423828 .39898683 .4423828 .375 .41636659 .375 .3943634 .375 .38136292 .37998963 .3753662 .3909912 .36434938 .4119873 .3443451 .4249878 .31834413 .4249878 .28233338 .4249878 .24032593 .3639984 .011245728 .24699402 .011245728 .19599915 .011245728 .17298889 .04626465 .17298889 .09828186 .17298889 .15429688 .19999695 .22731018 .23098755 .31033326 .23799134 .3273468 .24299622 .34135438 .24299622 .36035157 .24299622 .405365 .21099854 .4423828 .16099549 .4423828 .066986087 .4423828 .0289917 .29733277 .0289917 .28833009 .0289917 .27833558 .038986207 .27833558 .040985109 .27833558 .050994874 .27833558 .051986696 .28033448 .056991579 .29634095 .085998538 .39736939 .1289978 .42037965 .1579895 .42037965 .1659851 .42037965 .18299866 .42037965 .18299866 .3883667 .18299866 .36335755 .17298889 .3363495 .1659851 .31834413 .12199402 .20230103 .10899353 .15629578 .10899353 .11328125 .10899353 .0052490236 .19699097-.0107421879 .24299622-.0107421879 .41099549-.0107421879 .46798707 .32034303 .46798707 .37236024Z"/>
<path id="font_2_2" d="M.1269989 .07699585 .23298645 .18003845C.3889923 .31811524 .44898988 .3721466 .44898988 .47216798 .44898988 .5860901 .35899354 .6660156 .23699951 .6660156 .12399292 .6660156 .049987794 .57411196 .049987794 .48516847 .049987794 .4291687 .099990848 .4291687 .102996829 .4291687 .11999512 .4291687 .15499878 .44117738 .15499878 .48217774 .15499878 .5081787 .13699341 .5341797 .101989749 .5341797 .09399414 .5341797 .09199524 .5341797 .08898926 .5331726 .11199951 .59806826 .1659851 .63500979 .22399903 .63500979 .31498719 .63500979 .35798646 .5541382 .35798646 .47216798 .35798646 .39215089 .30799867 .31311036 .25299073 .25108338L.06098938 .036987306C.049987794 .025985718 .049987794 .023986817 .049987794 0H.42099L.44898988 .17404175H.42399598C.4189911 .14402771 .4119873 .1000061 .4019928 .084991458 .394989 .07699585 .32899476 .07699585 .30699159 .07699585H.1269989Z"/>
<path id="font_2_1" d="M.45999146 .31976319C.45999146 .39982606 .45498658 .47988893 .41999818 .5539398 .37399293 .65000918 .2919922 .6660156 .25 .6660156 .18998719 .6660156 .116989139 .64001467 .07598877 .54693606 .04399109 .47789 .038986207 .39982606 .038986207 .31976319 .038986207 .24472046 .042999269 .15464783 .083999637 .07859802 .1269989-.0024719239 .19999695-.022460938 .24899292-.022460938 .30299378-.022460938 .3789978-.0014648438 .4229889 .09359741 .45498658 .16265869 .45999146 .2407074 .45999146 .31976319M.24899292-.00047302247C.20999146-.00047302247 .15098572 .024551392 .1329956 .12062073 .12199402 .18066406 .12199402 .2727356 .12199402 .3317871 .12199402 .39582826 .12199402 .46188355 .12998963 .5159149 .14898682 .63500979 .22399903 .64401248 .24899292 .64401248 .28199769 .64401248 .34799195 .6259918 .36698915 .52693179 .3769989 .47088624 .3769989 .39482118 .3769989 .3317871 .3769989 .25672914 .3769989 .18867493 .3659973 .12461853 .35099793 .029556275 .2939911-.00047302247 .24899292-.00047302247Z"/>
<path id="font_1_1" d="M.19198609 .052993776C.19198609 .08198547 .16799927 .10598755 .13899231 .10598755 .10998535 .10598755 .085998538 .08198547 .085998538 .052993776 .085998538 .023986817 .10998535 0 .13899231 0 .16799927 0 .19198609 .023986817 .19198609 .052993776Z"/>
<path id="font_2_3" d="M.44898988 .20022583C.44898988 .3193512 .36698915 .41944886 .25898744 .41944886 .21099854 .41944886 .16799927 .40345765 .13198853 .36842347V.5637665C.1519928 .5577698 .18499756 .55078127 .21699524 .55078127 .33999635 .55078127 .4099884 .6417694 .4099884 .6547699 .4099884 .6607666 .40699769 .6657715 .3999939 .6657715 .39898683 .6657715 .39698792 .6657715 .3919983 .66278079 .37199403 .6537781 .32299806 .6337738 .2559967 .6337738 .21598816 .6337738 .16999817 .6407776 .12298584 .6617737 .114990238 .66477969 .11299133 .66477969 .11099243 .66477969 .100997928 .66477969 .100997928 .6567688 .100997928 .6407776V.34439088C.100997928 .32637025 .100997928 .31835938 .114990238 .31835938 .12199402 .31835938 .12399292 .32136537 .12799073 .32736207 .13899231 .3433838 .17599488 .39746095 .25698854 .39746095 .30899049 .39746095 .33399964 .35139466 .34199525 .33337403 .35798646 .29632569 .3600006 .25727845 .3600006 .20722962 .3600006 .17222595 .3600006 .11222839 .33599855 .07035828 .31199647 .031463624 .2749939 .0055389406 .22898865 .0055389406 .1559906 .0055389406 .09899902 .058380128 .08198547 .11723328 .084991458 .1162262 .08799744 .115234378 .09899902 .115234378 .13198853 .115234378 .14898682 .14022827 .14898682 .16423035 .14898682 .18823242 .13198853 .21322632 .09899902 .21322632 .084991458 .21322632 .049987794 .20622254 .049987794 .16023255 .049987794 .07434082 .11898804-.022460938 .23098755-.022460938 .34700013-.022460938 .44898988 .073349 .44898988 .20022583Z"/>
<path id="font_3_1" d="M.6589966 .23046875C.6759949 .23046875 .69400027 .23046875 .69400027 .25045777 .69400027 .27046205 .6759949 .27046205 .6589966 .27046205H.117996219C.100997928 .27046205 .08299255 .27046205 .08299255 .25045777 .08299255 .23046875 .100997928 .23046875 .117996219 .23046875H.6589966Z"/>
</defs>
<path transform="matrix(1.00006,0,0,-1.00002,29.991715,50.953725)" stroke-width="1.49442" stroke-linecap="butt" stroke-miterlimit="10" stroke-linejoin="miter" fill="none" stroke="#000000" d="M0 0 23.71844 23.71844"/>
<path transform="matrix(.70714238,-.70711418,-.70714238,-.70711418,53.711568,27.23482)" d="M6.54549 0C4.60605 .36362 1.45454 1.45454-.72726 2.72728V-2.72728C1.45454-1.45454 4.60605-.36362 6.54549 0"/>
<use data-text="&#x20d7;" xlink:href="#font_1_3" transform="matrix(9.963197,0,0,-9.962799,30.271729,40.33951)"/>
<use data-text="v" xlink:href="#font_1_2" transform="matrix(9.963197,0,0,-9.962799,30.660294,40.33951)"/>
<path transform="matrix(1.00006,0,0,-1.00002,29.991715,50.953725)" stroke-width="1.49442" stroke-linecap="butt" stroke-miterlimit="10" stroke-linejoin="miter" fill="none" stroke="#0074c8" d="M7.08669-7.08669 59.15193 44.97855"/>
<path transform="matrix(.70714238,-.70711418,-.70714238,-.70711418,89.14719,5.9742929)" d="M6.54549 0C4.60605 .36362 1.45454 1.45454-.72726 2.72728V-2.72728C1.45454-1.45454 4.60605-.36362 6.54549 0" fill="#0074c8"/>
<use data-text="2" xlink:href="#font_2_2" transform="matrix(9.963197,0,0,-9.962799,62.529664,11.991943)" fill="#0074c8"/>
<use data-text="&#x20d7;" xlink:href="#font_1_3" transform="matrix(9.963197,0,0,-9.962799,67.12494,11.991943)" fill="#0074c8"/>
<use data-text="v" xlink:href="#font_1_2" transform="matrix(9.963197,0,0,-9.962799,67.513507,11.991943)" fill="#0074c8"/>
<path transform="matrix(1.00006,0,0,-1.00002,29.991715,50.953725)" stroke-width="1.49442" stroke-linecap="butt" stroke-miterlimit="10" stroke-linejoin="miter" fill="none" stroke="#0074c8" d="M14.17339-14.17339 23.71844-4.62836"/>
<path transform="matrix(.70714238,-.70711418,-.70714238,-.70711418,53.711568,55.582189)" d="M6.54549 0C4.60605 .36362 1.45454 1.45454-.72726 2.72728V-2.72728C1.45454-1.45454 4.60605-.36362 6.54549 0" fill="#0074c8"/>
<use data-text="0" xlink:href="#font_2_1" transform="matrix(9.963197,0,0,-9.962799,55.32123,68.68608)" fill="#0074c8"/>
<use data-text="." xlink:href="#font_1_1" transform="matrix(9.963197,0,0,-9.962799,60.30353,68.68608)" fill="#0074c8"/>
<use data-text="5" xlink:href="#font_2_3" transform="matrix(9.963197,0,0,-9.962799,63.070699,68.68608)" fill="#0074c8"/>
<use data-text="&#x20d7;" xlink:href="#font_1_3" transform="matrix(9.963197,0,0,-9.962799,67.66597,68.68608)" fill="#0074c8"/>
<use data-text="v" xlink:href="#font_1_2" transform="matrix(9.963197,0,0,-9.962799,68.054538,68.68608)" fill="#0074c8"/>
<path transform="matrix(1.00006,0,0,-1.00002,29.991715,50.953725)" stroke-width="1.49442" stroke-linecap="butt" stroke-miterlimit="10" stroke-linejoin="miter" fill="none" stroke="#0074c8" d="M0-14.17339-23.71844-37.89183"/>
<path transform="matrix(-.70714238,.70711418,.70714238,.70711418,6.271862,88.8463)" d="M6.54549 0C4.60605 .36362 1.45454 1.45454-.72726 2.72728V-2.72728C1.45454-1.45454 4.60605-.36362 6.54549 0" fill="#0074c8"/>
<use data-text="&#x2212;" xlink:href="#font_3_1" transform="matrix(9.963197,0,0,-9.962799,19.885109,82.44536)" fill="#0074c8"/>
<use data-text="&#x20d7;" xlink:href="#font_1_3" transform="matrix(9.963197,0,0,-9.962799,27.247551,82.44536)" fill="#0074c8"/>
<use data-text="v" xlink:href="#font_1_2" transform="matrix(9.963197,0,0,-9.962799,27.636116,82.44536)" fill="#0074c8"/>
</svg>
