<svg xmlns="http://www.w3.org/2000/svg" xmlns:xlink="http://www.w3.org/1999/xlink" version="1.1" width="93pt" height="28pt" viewBox="0 0 93 28">
<path transform="matrix(1.00006,0,0,-1.00002,-10.193695,70.88208)" d="M59.08488 56.69382C59.08488 58.01437 58.01437 59.08488 56.69382 59.08488 55.37325 59.08488 54.30273 58.01437 54.30273 56.69382 54.30273 55.37325 55.37325 54.30273 56.69382 54.30273 58.01437 54.30273 59.08488 55.37325 59.08488 56.69382ZM56.69382 56.69382" fill="#0074c8"/>
<path transform="matrix(1.00006,0,0,-1.00002,-10.193695,70.88208)" stroke-width=".49814" stroke-linecap="butt" stroke-miterlimit="10" stroke-linejoin="miter" fill="none" stroke="#000000" d="M68.0326 68.0326H49.21057"/>
<path transform="matrix(-1.00006,-0,0,1.00002,39.01983,2.848114)" d="M3.85551 0C2.71312 .21419 .85678 .85678-.42839 1.60646V-1.60646C.85678-.85678 2.71312-.21419 3.85551 0"/>
<path transform="matrix(1.00006,0,0,-1.00002,-10.193695,70.88208)" stroke-width=".49814" stroke-linecap="butt" stroke-miterlimit="10" stroke-linejoin="miter" fill="none" stroke="#000000" d="M102.04889 56.69382H71.8881"/>
<path transform="matrix(-1.00006,-0,0,1.00002,61.698717,14.187122)" d="M3.85551 0C2.71312 .21419 .85678 .85678-.42839 1.60646V-1.60646C.85678-.85678 2.71312-.21419 3.85551 0"/>
<path transform="matrix(1.00006,0,0,-1.00002,-10.193695,70.88208)" stroke-width=".49814" stroke-linecap="butt" stroke-miterlimit="10" stroke-linejoin="miter" fill="none" stroke="#000000" d="M45.35506 56.69382H15.19427"/>
<path transform="matrix(-1.00006,-0,0,1.00002,5.001486,14.187122)" d="M3.85551 0C2.71312 .21419 .85678 .85678-.42839 1.60646V-1.60646C.85678-.85678 2.71312-.21419 3.85551 0"/>
<path transform="matrix(1.00006,0,0,-1.00002,-10.193695,70.88208)" stroke-width=".49814" stroke-linecap="butt" stroke-miterlimit="10" stroke-linejoin="miter" fill="none" stroke="#000000" d="M79.37135 45.35506H37.8718"/>
<path transform="matrix(-1.00006,-0,0,1.00002,27.680375,25.526112)" d="M3.85551 0C2.71312 .21419 .85678 .85678-.42839 1.60646V-1.60646C.85678-.85678 2.71312-.21419 3.85551 0"/>
</svg>
