<svg xmlns="http://www.w3.org/2000/svg" xmlns:xlink="http://www.w3.org/1999/xlink" version="1.1" width="299pt" height="88pt" viewBox="0 0 299 88">
<defs>
<path id="font_1_2" d="M.20599365 .3996582H.2999878C.31999208 .3996582 .32998658 .3996582 .32998658 .41966249 .32998658 .43066407 .31999208 .43066407 .3019867 .43066407H.21398926C.25 .5724945 .25498963 .59246829 .25498963 .59846499 .25498963 .61546328 .24299622 .62545779 .22599793 .62545779 .22299195 .62545779 .19499207 .62446597 .18598938 .58947756L.14698792 .43066407H.052993776C.032989503 .43066407 .022994996 .43066407 .022994996 .4116516 .022994996 .3996582 .0309906 .3996582 .050994874 .3996582H.13899231C.066986087 .11608887 .06298828 .099121097 .06298828 .08114624 .06298828 .02722168 .100997928-.0107421879 .15499878-.0107421879 .25698854-.0107421879 .31399537 .13505554 .31399537 .14305115 .31399537 .1530304 .30599977 .1530304 .3019867 .1530304 .29299928 .1530304 .2919922 .15003968 .2869873 .13905335 .24398804 .035217287 .19099427 .011245728 .15699768 .011245728 .13598633 .011245728 .12599182 .024230957 .12599182 .057174684 .12599182 .08114624 .12799073 .088134769 .13198853 .10510254L.20599365 .3996582Z"/>
<path id="font_1_3" d="M.48599244 .38136292C.48999024 .39537049 .48999024 .39736939 .48999024 .40437318 .48999024 .42237855 .47599793 .43138124 .46099855 .43138124 .45098878 .43138124 .43499757 .42536927 .42599488 .41036988 .42399598 .405365 .41600038 .37435914 .4119873 .35635377 .40499879 .33035279 .397995 .30334474 .3919983 .27633668L.34700013 .09628296C.34298707 .08126831 .2999878 .011245728 .23399353 .011245728 .18299866 .011245728 .17199707 .055267335 .17199707 .0922699 .17199707 .1382904 .18899536 .20030213 .22299195 .28833009 .23899842 .3293457 .24299622 .3403473 .24299622 .36035157 .24299622 .405365 .21099854 .4423828 .16099549 .4423828 .06599426 .4423828 .0289917 .29733277 .0289917 .28833009 .0289917 .27833558 .038986207 .27833558 .040985109 .27833558 .050994874 .27833558 .051986696 .28033448 .056991579 .29634095 .083999637 .3903656 .12399292 .42037965 .1579895 .42037965 .1659851 .42037965 .18299866 .42037965 .18299866 .3883667 .18299866 .36335755 .17298889 .3373413 .1659851 .31834413 .12599182 .21231079 .10798645 .1552887 .10798645 .10827637 .10798645 .019256592 .17098999-.0107421879 .22999573-.0107421879 .2689972-.0107421879 .30299378 .0062561037 .33099366 .03425598 .31799317-.017745972 .30599977-.06674194 .2659912-.11973572 .23999024-.15385437 .20199585-.18309021 .1559906-.18309021 .14199829-.18309021 .09700012-.18005371 .07998657-.14074707 .09599304-.14074707 .10899353-.14074707 .12298584-.1287384 .1329956-.11973572 .14299011-.10673523 .14299011-.08773804 .14299011-.056747438 .115997318-.052734376 .10598755-.052734376 .08299255-.052734376 .049987794-.068740848 .049987794-.11773682 .049987794-.16796875 .09399414-.20507813 .1559906-.20507813 .25898744-.20507813 .3619995-.11373901 .3899994-.00074768069L.48599244 .38136292Z"/>
<path id="font_2_5" d="M.116989139 .21801758C.116989139 .38093568 .19898987 .42323304 .2519989 .42323304 .26098634 .42323304 .32398988 .42222596 .35899354 .38594056 .31799317 .38293458 .31199647 .3529358 .31199647 .3399353 .31199647 .31393434 .32998658 .2939453 .35798646 .2939453 .38398744 .2939453 .4039917 .3109436 .4039917 .34094239 .4039917 .40911866 .32798768 .4482422 .25099183 .4482422 .12599182 .4482422 .033996583 .3399353 .033996583 .21601868 .033996583 .08816528 .1329956-.0107421879 .24899292-.0107421879 .3829956-.0107421879 .4149933 .10914612 .4149933 .119140628 .4149933 .12911988 .40499879 .12911988 .4019928 .12911988 .3929901 .12911988 .3909912 .12512207 .3889923 .119140628 .3600006 .026229859 .29499818 .014251709 .2579956 .014251709 .20498657 .014251709 .116989139 .0572052 .116989139 .21801758Z"/>
<path id="font_2_8" d="M.47099305 .21424866C.47099305 .34223939 .37098695 .4482422 .25 .4482422 .125 .4482422 .027999878 .3392334 .027999878 .21424866 .027999878 .085250858 .13198853-.0107421879 .24899292-.0107421879 .36999513-.0107421879 .47099305 .087249759 .47099305 .21424866M.25 .014251709C.20698548 .014251709 .16299439 .035247804 .13598633 .08125305 .11099243 .12524414 .11099243 .18624878 .11099243 .22224427 .11099243 .26124574 .11099243 .31523133 .1349945 .35923768 .1619873 .40522767 .20899964 .426239 .24899292 .426239 .29299928 .426239 .33599855 .40423585 .3619995 .36123658 .3880005 .3182373 .3880005 .26023866 .3880005 .22224427 .3880005 .18624878 .3880005 .13224793 .3659973 .08824158 .34399415 .04324341 .2999878 .014251709 .25 .014251709Z"/>
<path id="font_2_9" d="M.20799256 .19424439C.22999573 .19024658 .31199647 .17424011 .31199647 .102249149 .31199647 .051254274 .2769928 .011245728 .19898987 .011245728 .114990238 .011245728 .07899475 .06825256 .05999756 .15324402 .056991579 .1662445 .055999757 .17024231 .04598999 .17024231 .032989503 .17024231 .032989503 .16323853 .032989503 .14524842V.013244629C.032989503-.003753662 .032989503-.0107421879 .04399109-.0107421879 .04899597-.0107421879 .049987794-.009750366 .068984989 .009246826 .070999149 .011245728 .070999149 .013244629 .08898926 .03224182 .1329956-.009750366 .17799378-.0107421879 .19898987-.0107421879 .31399537-.0107421879 .3600006 .056243898 .3600006 .12825012 .3600006 .1812439 .32998658 .21124268 .31799317 .22323609 .2849884 .25523377 .24598694 .26324464 .20399475 .27124024 .147995 .28224183 .08099365 .2952423 .08099365 .35324098 .08099365 .38822938 .10699463 .42922975 .19299317 .42922975 .30299378 .42922975 .30799867 .3392334 .30999757 .3082428 .31098939 .2992401 .31999208 .2992401 .32199098 .2992401 .33499146 .2992401 .33499146 .304245 .33499146 .3232422V.4242401C.33499146 .4412384 .33499146 .4482422 .32398988 .4482422 .31900025 .4482422 .31698609 .4482422 .3039856 .43623353 .30099488 .43223573 .29100038 .42323304 .2869873 .42022706 .24899292 .4482422 .20799256 .4482422 .19299317 .4482422 .070999149 .4482422 .032989503 .38124085 .032989503 .3252411 .032989503 .29023744 .04899597 .26223756 .07598877 .24023438 .10798645 .21424866 .13598633 .2082367 .20799256 .19424439Z"/>
<path id="font_2_1" d="M.33099366-.2400055C.33099366-.23701477 .33099366-.23500061 .31399537-.21800232 .18899536-.0920105 .15699768 .09700012 .15699768 .25 .15699768 .42399598 .19499207 .59799197 .31799317 .72299197 .33099366 .73498538 .33099366 .7369995 .33099366 .73999026 .33099366 .746994 .32699586 .75 .32099916 .75 .31098939 .75 .22099304 .6819916 .1619873 .5549927 .11099243 .44499208 .09899902 .33399964 .09899902 .25 .09899902 .17199707 .10998535 .050994874 .16499329-.06201172 .22499085-.18501282 .31098939-.25 .32099916-.25 .32699586-.25 .33099366-.24700928 .33099366-.2400055Z"/>
<path id="font_2_2" d="M.2889862 .25C.2889862 .32798768 .27799989 .44898988 .22299195 .56199648 .16299439 .68499758 .07699585 .75 .066986087 .75 .06098938 .75 .056991579 .74598696 .056991579 .73999026 .056991579 .7369995 .056991579 .73498538 .07598877 .71699526 .17399597 .6179962 .23098755 .45899964 .23098755 .25 .23098755 .07899475 .19400025-.09700012 .069992069-.2230072 .056991579-.23500061 .056991579-.23701477 .056991579-.2400055 .056991579-.2460022 .06098938-.25 .066986087-.25 .07699585-.25 .16699219-.18200684 .22599793-.055007936 .2769928 .054992677 .2889862 .16600037 .2889862 .25Z"/>
<path id="font_2_6" d="M.1769867 .4423828 .036987306 .43138124V.40037538C.101989749 .40037538 .11099243 .3943634 .11099243 .34532167V.076034549C.11099243 .0309906 .099990848 .0309906 .032989503 .0309906V0C.06498718 .0009918213 .11898804 .0029907227 .14299011 .0029907227 .17799378 .0029907227 .21299744 .0009918213 .24699402 0V.0309906C.18099976 .0309906 .1769867 .035995485 .1769867 .075042728V.4423828M.18099976 .6159363C.18099976 .64793398 .1559906 .6689453 .12799073 .6689453 .09700012 .6689453 .07499695 .64193728 .07499695 .6159363 .07499695 .5889435 .09700012 .5629425 .12799073 .5629425 .1559906 .5629425 .18099976 .5839386 .18099976 .6159363Z"/>
<path id="font_2_7" d="M.10998535 .34429933V.076034549C.10998535 .0309906 .09899902 .0309906 .03199768 .0309906V0C.066986087 .0009918213 .117996219 .0029907227 .14498902 .0029907227 .17098999 .0029907227 .22299195 .0009918213 .25698854 0V.0309906C.18998719 .0309906 .1789856 .0309906 .1789856 .076034549V.2602234C.1789856 .36431886 .25 .42037965 .31399537 .42037965 .3769989 .42037965 .3880005 .36631776 .3880005 .30926515V.076034549C.3880005 .0309906 .3769989 .0309906 .30999757 .0309906V0C.34498597 .0009918213 .3959961 .0029907227 .4229889 .0029907227 .44898988 .0029907227 .5009918 .0009918213 .5349884 0V.0309906C.48298646 .0309906 .45799256 .0309906 .45700074 .061019899V.25221253C.45700074 .3383026 .45700074 .36932374 .42599488 .405365 .4119873 .42237855 .3789978 .4423828 .32099916 .4423828 .24798584 .4423828 .20098877 .39935304 .17298889 .33729554V.4423828L.03199768 .43138124V.40037538C.101989749 .4003601 .10998535 .39335633 .10998535 .34429933Z"/>
<path id="font_3_1" d="M.6589966 .23046875C.6759949 .23046875 .69400027 .23046875 .69400027 .25045777 .69400027 .27046205 .6759949 .27046205 .6589966 .27046205H.117996219C.100997928 .27046205 .08299255 .27046205 .08299255 .25045777 .08299255 .23046875 .100997928 .23046875 .117996219 .23046875H.6589966Z"/>
<path id="font_1_1" d="M.2649994 .37265016H.37799073C.34498597 .22489929 .33599855 .18196106 .33599855 .11508179 .33599855 .100097659 .33599855 .073150638 .34399415 .03919983 .35398866-.0047454836 .36499024-.0107421879 .37998963-.0107421879 .3999939-.0107421879 .42099 .007247925 .42099 .02722168 .42099 .033218385 .42099 .035202028 .4149933 .049179079 .38598634 .12106323 .38598634 .18595886 .38598634 .21391297 .38598634 .26683045 .3929901 .32073976 .4039917 .37265016H.5179901C.5309906 .37265016 .5669861 .37265016 .5669861 .406662 .5669861 .43066407 .54599 .43066407 .5269928 .43066407H.19198609C.16999817 .43066407 .13198853 .43066407 .08799744 .38365174 .052993776 .34469605 .026992798 .29878236 .026992798 .29379273 .026992798 .29278565 .026992798 .28379823 .038986207 .28379823 .04699707 .28379823 .04899597 .28779603 .054992677 .29577638 .10398865 .37265016 .1619873 .37265016 .18199158 .37265016H.23899842C.20698548 .25186158 .15299988 .13105774 .11099243 .04020691 .102996829 .025222779 .102996829 .023223877 .102996829 .016235352 .102996829-.002746582 .11898804-.0107421879 .13198853-.0107421879 .1619873-.0107421879 .16999817 .017242432 .18199158 .05418396 .19599915 .100097659 .19599915 .10209656 .20899964 .15202332L.2649994 .37265016Z"/>
<path id="font_2_4" d="M.1269989 .07699585 .23298645 .18003845C.3889923 .31811524 .44898988 .3721466 .44898988 .47216798 .44898988 .5860901 .35899354 .6660156 .23699951 .6660156 .12399292 .6660156 .049987794 .57411196 .049987794 .48516847 .049987794 .4291687 .099990848 .4291687 .102996829 .4291687 .11999512 .4291687 .15499878 .44117738 .15499878 .48217774 .15499878 .5081787 .13699341 .5341797 .101989749 .5341797 .09399414 .5341797 .09199524 .5341797 .08898926 .5331726 .11199951 .59806826 .1659851 .63500979 .22399903 .63500979 .31498719 .63500979 .35798646 .5541382 .35798646 .47216798 .35798646 .39215089 .30799867 .31311036 .25299073 .25108338L.06098938 .036987306C.049987794 .025985718 .049987794 .023986817 .049987794 0H.42099L.44898988 .17404175H.42399598C.4189911 .14402771 .4119873 .1000061 .4019928 .084991458 .394989 .07699585 .32899476 .07699585 .30699159 .07699585H.1269989Z"/>
<path id="font_2_3" d="M.2939911 .64004519C.2939911 .66400149 .2939911 .6660156 .2709961 .6660156 .20899964 .60227969 .12098694 .60227969 .08898926 .60227969V.57128909C.10899353 .57128909 .16799927 .57128909 .21998596 .5972748V.07902527C.21998596 .042999269 .21699524 .0309906 .1269989 .0309906H.09498596V0C.12998963 .0029907227 .21699524 .0029907227 .25698854 .0029907227 .29699708 .0029907227 .38398744 .0029907227 .4189911 0V.0309906H.3869934C.29699708 .0309906 .2939911 .041992189 .2939911 .07902527V.64004519Z"/>
</defs>
<path transform="matrix(1.00008,0,0,-1,104.33591,44.297)" stroke-width=".49814" stroke-linecap="butt" stroke-miterlimit="10" stroke-linejoin="miter" fill="none" stroke="#424242" d="M0 0H188.3358"/>
<path transform="matrix(1.00008,0,0,-1,292.68678,44.297)" d="M3.85551 0C2.71312 .21419 .85678 .85678-.42839 1.60646V-1.60646C.85678-.85678 2.71312-.21419 3.85551 0" fill="#424242"/>
<use data-text="t" xlink:href="#font_1_2" transform="matrix(9.963397,0,0,-9.9626,294.74314,53.995004)" fill="#424242"/>
<path transform="matrix(1.00008,0,0,-1,104.33591,44.297)" stroke-width=".49814" stroke-linecap="butt" stroke-miterlimit="10" stroke-linejoin="miter" fill="none" stroke="#424242" d="M0 0H-99.32683"/>
<path transform="matrix(-1.00008,-0,0,1,5.001137,44.297)" d="M3.85551 0C2.71312 .21419 .85678 .85678-.42839 1.60646V-1.60646C.85678-.85678 2.71312-.21419 3.85551 0" fill="#424242"/>
<path transform="matrix(1.00008,0,0,-1,104.33591,44.297)" stroke-width=".49814" stroke-linecap="butt" stroke-miterlimit="10" stroke-linejoin="miter" fill="none" stroke="#424242" d="M0 0V38.66467"/>
<path transform="matrix(0,-1,-1.00008,-0,104.33591,5.632332)" d="M3.85551 0C2.71312 .21419 .85678 .85678-.42839 1.60646V-1.60646C.85678-.85678 2.71312-.21419 3.85551 0" fill="#424242"/>
<use data-text="y" xlink:href="#font_1_3" transform="matrix(9.963397,0,0,-9.9626,107.90619,10.040001)" fill="#424242"/>
<path transform="matrix(1.00008,0,0,-1,104.33591,44.297)" stroke-width=".49814" stroke-linecap="butt" stroke-miterlimit="10" stroke-linejoin="miter" fill="none" stroke="#424242" d="M0 0V-38.66467"/>
<path transform="matrix(0,1,1.00008,0,104.33591,82.96167)" d="M3.85551 0C2.71312 .21419 .85678 .85678-.42839 1.60646V-1.60646C.85678-.85678 2.71312-.21419 3.85551 0" fill="#424242"/>
<path transform="matrix(1.00008,0,0,-1,104.33591,44.297)" stroke-width="1.49442" stroke-linecap="butt" stroke-miterlimit="10" stroke-linejoin="miter" fill="none" stroke="#0074c8" d="M-89.00894-28.3468C-89.00894-28.3468-80.97055-27.33952-77.88321-26.18756-74.79587-25.0356-69.8448-22.17255-66.75746-20.04422-63.67012-17.91591-58.71907-13.62895-55.63173-10.84804-52.54439-8.06712-47.59332-3.01115-44.50598-.00128-41.41866 3.00858-36.46758 8.06404-33.38023 10.845-30.2929 13.62598-25.34184 17.91344-22.2545 20.04207-19.16716 22.1707-14.2161 25.03448-11.12875 26.18669-8.04141 27.3389-3.09036 28.34607-.00302 28.34636 3.0843 28.34665 8.03537 27.34041 11.1227 26.18887 14.21004 25.03734 19.1611 22.17491 22.24844 20.04683 25.33577 17.91875 30.28685 13.63191 33.37419 10.85106 36.46153 8.0702 41.41258 3.01422 44.49992 .0043 47.58727-3.00558 52.53833-8.06131 55.62567-10.8424 58.71301-13.6235 63.66406-17.9111 66.7514-20.0399 69.83875-22.16872 74.78983-25.03291 77.87715-26.1854 80.9645-27.33789 85.91556-28.34576 89.0029-28.34636 92.09024-28.34695 97.0413-27.34102 100.12865-26.18973 103.21599-25.03844 108.16704-22.1764 111.25438-20.04855 114.34172-17.92072 119.29277-13.63432 122.38011-10.85365 125.46745-8.07298 130.41852-3.01727 133.50586-.00734 136.5932 3.00258 141.54427 8.05861 144.6316 10.83983 147.71894 13.62105 152.67002 17.90869 155.75736 20.03773 158.8447 22.16678 163.79575 25.03174 166.88309 26.18454 169.97043 27.33733 178.00884 28.34636 178.00884 28.34636"/>
<use data-text="c" xlink:href="#font_2_5" transform="matrix(9.963397,0,0,-9.9626,223.81546,23.565)" fill="#0074c8"/>
<use data-text="o" xlink:href="#font_2_8" transform="matrix(9.963397,0,0,-9.9626,228.23923,23.565)" fill="#0074c8"/>
<use data-text="s" xlink:href="#font_2_9" transform="matrix(9.963397,0,0,-9.9626,233.22092,23.565)" fill="#0074c8"/>
<use data-text="(" xlink:href="#font_2_1" transform="matrix(9.963397,0,0,-9.9626,237.14649,23.565)" fill="#0074c8"/>
<use data-text="t" xlink:href="#font_1_2" transform="matrix(9.963397,0,0,-9.9626,241.02985,23.565)" fill="#0074c8"/>
<use data-text=")" xlink:href="#font_2_2" transform="matrix(9.963397,0,0,-9.9626,244.62815,23.565)" fill="#0074c8"/>
<path transform="matrix(1.00008,0,0,-1,104.33591,44.297)" stroke-width="1.49442" stroke-linecap="butt" stroke-dasharray="2.98883,2.98883" stroke-miterlimit="10" stroke-linejoin="miter" fill="none" stroke="#ff0000" d="M-89.00894 0C-89.00894 0-80.97055-8.06532-77.88321-10.8463-74.79587-13.62727-69.8448-17.91492-66.75746-20.04337-63.67012-22.1718-58.71907-25.03467-55.63173-26.18669-52.54439-27.33871-47.59332-28.34619-44.50598-28.34636-41.41866-28.34653-36.46758-27.33978-33.38023-26.188-30.2929-25.03622-25.34184-22.1733-22.2545-20.04509-19.16716-17.91689-14.2161-13.63019-11.12875-10.84933-8.04141-8.06848-3.09036-3.01245-.00302-.00258 3.0843 3.00728 8.03537 8.06268 11.1227 10.84372 14.21004 13.62476 19.1611 17.91246 22.24844 20.0412 25.33577 22.16995 30.28685 25.03394 33.37419 26.18626 36.46153 27.3386 41.41258 28.34595 44.49992 28.34636 47.58727 28.34677 52.53833 27.34076 55.62567 26.18929 58.71301 25.03781 63.66406 22.17522 66.7514 20.04726 69.83875 17.9193 74.78983 13.63304 77.87715 10.85237 80.9645 8.0717 85.91556 3.01598 89.0029 .00604 92.09024-3.00388 97.0413-8.0599 100.12865-10.84111 103.21599-13.62233 108.16704-17.91011 111.25438-20.03905 114.34172-22.16797 119.29277-25.03236 122.38011-26.18497 125.46745-27.33759 130.41852-28.34558 133.50586-28.34636 136.5932-28.34714 141.54427-27.34172 144.6316-26.1906 147.71894-25.03947 152.67002-22.17764 155.75736-20.04985 158.8447-17.92206 163.79575-13.63557 166.88309-10.85497 169.97043-8.07436 178.00884-.00906 178.00884-.00906"/>
<use data-text="s" xlink:href="#font_2_9" transform="matrix(9.963397,0,0,-9.9626,139.32172,9.392002)" fill="#ff0000"/>
<use data-text="i" xlink:href="#font_2_6" transform="matrix(9.963397,0,0,-9.9626,143.24729,9.392002)" fill="#ff0000"/>
<use data-text="n" xlink:href="#font_2_7" transform="matrix(9.963397,0,0,-9.9626,146.00714,9.392002)" fill="#ff0000"/>
<use data-text="(" xlink:href="#font_2_1" transform="matrix(9.963397,0,0,-9.9626,151.53684,9.392002)" fill="#ff0000"/>
<use data-text="t" xlink:href="#font_1_2" transform="matrix(9.963397,0,0,-9.9626,155.42899,9.392002)" fill="#ff0000"/>
<use data-text=")" xlink:href="#font_2_2" transform="matrix(9.963397,0,0,-9.9626,159.02729,9.392002)" fill="#ff0000"/>
<path transform="matrix(1.00008,0,0,-1,104.33591,44.297)" stroke-width=".79701" stroke-linecap="butt" stroke-miterlimit="10" stroke-linejoin="miter" fill="none" stroke="#000000" d="M-89.00894 2.98883V-2.98883"/>
<use data-text="&#x2212;" xlink:href="#font_3_1" transform="matrix(9.963397,0,0,-9.9626,8.426239,56.817)"/>
<use data-text="&#x03c0;" xlink:href="#font_1_1" transform="matrix(9.963397,0,0,-9.9626,16.17485,56.817)"/>
<path transform="matrix(1.00008,0,0,-1,104.33591,44.297)" stroke-width=".79701" stroke-linecap="butt" stroke-miterlimit="10" stroke-linejoin="miter" fill="none" stroke="#000000" d="M89.00894 2.98883V-2.98883"/>
<use data-text="&#x03c0;" xlink:href="#font_1_1" transform="matrix(9.963397,0,0,-9.9626,190.33379,55.294)"/>
<path transform="matrix(1.00008,0,0,-1,104.33591,44.297)" stroke-width=".79701" stroke-linecap="butt" stroke-miterlimit="10" stroke-linejoin="miter" fill="none" stroke="#000000" d="M178.01792 2.98883V-2.98883"/>
<use data-text="2" xlink:href="#font_2_4" transform="matrix(9.963397,0,0,-9.9626,276.8587,57.425004)"/>
<use data-text="&#x03c0;" xlink:href="#font_1_1" transform="matrix(9.963397,0,0,-9.9626,281.8401,57.425004)"/>
<path transform="matrix(1.00008,0,0,-1,104.33591,44.297)" stroke-width=".79701" stroke-linecap="butt" stroke-miterlimit="10" stroke-linejoin="miter" fill="none" stroke="#000000" d="M-1.99255-28.3468H1.99255"/>
<use data-text="&#x2212;" xlink:href="#font_3_1" transform="matrix(9.963397,0,0,-9.9626,89.87775,75.438999)"/>
<use data-text="1" xlink:href="#font_2_3" transform="matrix(9.963397,0,0,-9.9626,97.62636,75.438999)"/>
<path transform="matrix(1.00008,0,0,-1,104.33591,44.297)" stroke-width=".79701" stroke-linecap="butt" stroke-miterlimit="10" stroke-linejoin="miter" fill="none" stroke="#000000" d="M-1.99255 28.3468H1.99255"/>
<use data-text="1" xlink:href="#font_2_3" transform="matrix(9.963397,0,0,-9.9626,97.62737,19.160002)"/>
</svg>
