<svg xmlns="http://www.w3.org/2000/svg" xmlns:xlink="http://www.w3.org/1999/xlink" version="1.1" width="76pt" height="68pt" viewBox="0 0 76 68">
<path transform="matrix(1.00003,0,0,-1.00005,2.8935166,65.37852)" stroke-width="1.99255" stroke-linecap="butt" stroke-miterlimit="10" stroke-linejoin="miter" fill="none" stroke="#000000" d="M0 0H56.69362V56.69362H0V0"/>
<path transform="matrix(1.00003,0,0,-1.00005,2.8935166,65.37852)" stroke-width="1.99255" stroke-linecap="butt" stroke-dasharray="2.98883,2.98883" stroke-miterlimit="10" stroke-linejoin="miter" fill="none" stroke="#0074c8" d="M0 0 49.6069 14.17339 70.867 63.7803 21.2601 49.6069 0 0"/>
<path transform="matrix(1.00003,0,0,-1.00005,2.8935166,65.37852)" stroke-width="1.49442" stroke-linecap="butt" stroke-miterlimit="10" stroke-linejoin="miter" fill="none" stroke="#0074c8" d="M28.3468 28.3468 44.16095 38.8897"/>
<path transform="matrix(.83204498,-.55468776,-.5546767,-.8320615,47.055795,26.486874)" d="M6.54549 0C4.60605 .36362 1.45454 1.45454-.72726 2.72728V-2.72728C1.45454-1.45454 4.60605-.36362 6.54549 0" fill="#0074c8"/>
</svg>
