<svg xmlns="http://www.w3.org/2000/svg" xmlns:xlink="http://www.w3.org/1999/xlink" version="1.1" width="170pt" height="109pt" viewBox="0 0 170 109">
<defs>
<path id="font_1_1" d="M.33399964 .30233766C.33999635 .32835389 .36299134 .42037965 .43299867 .42037965 .43798829 .42037965 .46199037 .42037965 .48298646 .40734864 .45498658 .402359 .43499757 .37734986 .43499757 .35334779 .43499757 .33735658 .44599916 .31835938 .47299195 .31835938 .49499513 .31835938 .5269928 .3363495 .5269928 .37635804 .5269928 .42837525 .46798707 .4423828 .43399049 .4423828 .37599183 .4423828 .34098817 .38935853 .32899476 .36634828 .3039856 .43237306 .25 .4423828 .22099304 .4423828 .116989139 .4423828 .05999756 .3133545 .05999756 .28834535 .05999756 .27833558 .069992069 .27833558 .07199097 .27833558 .07998657 .27833558 .08299255 .28033448 .084991458 .28933717 .11898804 .39535523 .18499756 .42037965 .21899414 .42037965 .23799134 .42037965 .272995 .4113617 .272995 .35334779 .272995 .32235719 .2559967 .25532533 .21899414 .11528015 .20298767 .053268434 .16799927 .011245728 .12399292 .011245728 .117996219 .011245728 .09498596 .011245728 .07398987 .024276734 .09899902 .029266358 .12098694 .05027771 .12098694 .07827759 .12098694 .105270389 .09899902 .11328125 .083999637 .11328125 .053985597 .11328125 .0289917 .08728027 .0289917 .055267335 .0289917 .009246826 .07899475-.0107421879 .12298584-.0107421879 .18899536-.0107421879 .22499085 .059280397 .22799683 .0652771 .23999024 .028274537 .27598573-.0107421879 .33599855-.0107421879 .43899537-.0107421879 .49598695 .118270877 .49598695 .14328003 .49598695 .1532898 .4869995 .1532898 .48399354 .1532898 .47499085 .1532898 .47299195 .14929199 .47099305 .14228821 .43798829 .03527832 .36999513 .011245728 .33799745 .011245728 .29899598 .011245728 .2829895 .043273927 .2829895 .07727051 .2829895 .09927368 .2889862 .121276859 .2999878 .16529846L.33399964 .30233766Z"/>
<path id="font_1_2" d="M.48599244 .38136292C.48999024 .39537049 .48999024 .39736939 .48999024 .40437318 .48999024 .42237855 .47599793 .43138124 .46099855 .43138124 .45098878 .43138124 .43499757 .42536927 .42599488 .41036988 .42399598 .405365 .41600038 .37435914 .4119873 .35635377 .40499879 .33035279 .397995 .30334474 .3919983 .27633668L.34700013 .09628296C.34298707 .08126831 .2999878 .011245728 .23399353 .011245728 .18299866 .011245728 .17199707 .055267335 .17199707 .0922699 .17199707 .1382904 .18899536 .20030213 .22299195 .28833009 .23899842 .3293457 .24299622 .3403473 .24299622 .36035157 .24299622 .405365 .21099854 .4423828 .16099549 .4423828 .06599426 .4423828 .0289917 .29733277 .0289917 .28833009 .0289917 .27833558 .038986207 .27833558 .040985109 .27833558 .050994874 .27833558 .051986696 .28033448 .056991579 .29634095 .083999637 .3903656 .12399292 .42037965 .1579895 .42037965 .1659851 .42037965 .18299866 .42037965 .18299866 .3883667 .18299866 .36335755 .17298889 .3373413 .1659851 .31834413 .12599182 .21231079 .10798645 .1552887 .10798645 .10827637 .10798645 .019256592 .17098999-.0107421879 .22999573-.0107421879 .2689972-.0107421879 .30299378 .0062561037 .33099366 .03425598 .31799317-.017745972 .30599977-.06674194 .2659912-.11973572 .23999024-.15385437 .20199585-.18309021 .1559906-.18309021 .14199829-.18309021 .09700012-.18005371 .07998657-.14074707 .09599304-.14074707 .10899353-.14074707 .12298584-.1287384 .1329956-.11973572 .14299011-.10673523 .14299011-.08773804 .14299011-.056747438 .115997318-.052734376 .10598755-.052734376 .08299255-.052734376 .049987794-.068740848 .049987794-.11773682 .049987794-.16796875 .09399414-.20507813 .1559906-.20507813 .25898744-.20507813 .3619995-.11373901 .3899994-.00074768069L.48599244 .38136292Z"/>
<path id="font_1_3" d="M.1329956 .08345032C.18699646 .14138794 .21598816 .16636658 .2519989 .19732666 .2519989 .19833374 .31399537 .25128175 .34999085 .2872467 .44499208 .3803711 .46699525 .42837525 .46699525 .43237306 .46699525 .4423828 .45799256 .4423828 .45599366 .4423828 .44898988 .4423828 .44599916 .44036866 .44099427 .43138124 .41099549 .38337709 .3899994 .3671875 .3659973 .3671875 .34199525 .3671875 .32998658 .38237 .31498719 .3993683 .29599 .42237855 .2789917 .4423828 .24598694 .4423828 .17098999 .4423828 .125 .34918214 .125 .3282013 .125 .3231964 .12799073 .31721498 .13699341 .31721498 .1459961 .31721498 .147995 .3222046 .1499939 .3282013 .16899109 .37434388 .22698975 .37538148 .23498535 .37538148 .2559967 .37538148 .2749939 .36820985 .2979889 .36018373 .33799745 .34518434 .34899903 .34518434 .375 .34518434 .33898927 .30223084 .25498963 .2303009 .23599243 .21430969L.1459961 .13040161C.07798767 .06341553 .042999269 .0062561037 .042999269-.00074768069 .042999269-.0107421879 .052993776-.0107421879 .054992677-.0107421879 .06298828-.0107421879 .06498718-.008743286 .070999149 .002243042 .09399414 .037246705 .12399292 .064453128 .1559906 .064453128 .1789856 .064453128 .18899536 .055252077 .21398926 .026245118 .23098755 .0052490236 .24899292-.0107421879 .27799989-.0107421879 .3769989-.0107421879 .43499757 .1164093 .43499757 .14338684 .43499757 .14837647 .43099977 .15338135 .4229889 .15338135 .4139862 .15338135 .4119873 .14738465 .40899659 .14039612 .38598634 .07543945 .32199098 .056243898 .2889862 .056243898 .2689972 .056243898 .25099183 .06239319 .22999573 .06944275 .19599915 .08244324 .18099976 .08644104 .1599884 .08644104 .1579895 .08644104 .14199829 .08644104 .1329956 .08345032Z"/>
<path id="font_2_1" d="M.33299256-.25C.34098817-.25 .35299684-.25 .35299684-.23800659 .35299684-.23400879 .35198976-.23300171 .33898927-.22000122 .20199585-.09100342 .16799927 .09498596 .16799927 .25 .16799927 .5379944 .2869873 .6729889 .33799745 .71899417 .35198976 .7319946 .35299684 .73298647 .35299684 .73799136 .35299684 .7429962 .34899903 .75 .33898927 .75 .32299806 .75 .272995 .69898989 .2649994 .6899872 .1309967 .5499878 .102996829 .36999513 .102996829 .25 .102996829 .025985718 .19699097-.15400696 .33299256-.25Z"/>
<path id="font_3_3" d="M.5009918 .39942933C.45700074 .38842774 .45498658 .34942628 .45498658 .34542848 .45498658 .3234253 .47200013 .3084259 .49398805 .3084259 .5159912 .3084259 .5499878 .3254242 .5499878 .36842347 .5499878 .42539979 .4869995 .44140626 .44999696 .44140626 .40299989 .44140626 .36499024 .4084015 .34199525 .36943055 .31999208 .4223938 .2679901 .44140626 .22698975 .44140626 .117996219 .44140626 .056991579 .31643678 .056991579 .28840638 .056991579 .27938844 .06399536 .27539063 .07199097 .27539063 .083999637 .27539063 .085998538 .2803955 .08898926 .29240418 .11199951 .36543275 .17199707 .4133911 .22399903 .4133911 .2630005 .4133911 .28199769 .385437 .28199769 .34942628 .28199769 .32943727 .269989 .2834015 .2619934 .25135804 .25498963 .22232056 .23298645 .13320923 .22799683 .11419678 .21398926 .060195924 .17799378 .018234253 .1329956 .018234253 .1289978 .018234253 .102996829 .018234253 .08198547 .032196046 .12799073 .04319763 .12799073 .08518982 .12799073 .0861969 .12799073 .109191898 .10998535 .12319946 .08799744 .12319946 .06098938 .12319946 .03199768 .10018921 .03199768 .062194826 .03199768 .016220093 .08099365-.009765625 .13198853-.009765625 .18499756-.009765625 .22200012 .030197144 .23999024 .062194826 .2619934 .01322937 .30799867-.009765625 .35598756-.009765625 .46499635-.009765625 .5249939 .1151886 .5249939 .143219 .5249939 .15322876 .5169983 .15623474 .5099945 .15623474 .49798585 .15623474 .49598695 .14923096 .49299623 .13922119 .47299195 .07218933 .41600038 .018234253 .35798646 .018234253 .32499696 .018234253 .30099488 .04019165 .30099488 .0821991 .30099488 .10218811 .30699159 .12519837 .32099916 .18127442 .32798768 .21130371 .34999085 .29942323 .35499574 .31843568 .36898805 .37042237 .4039917 .4133911 .44898988 .4133911 .45399476 .4133911 .47999574 .4133911 .5009918 .39942933Z"/>
<path id="font_4_1" d="M.5499878 .31877137C.5499878 .39183045 .5499878 .66503909 .30499269 .66503909 .05999756 .66503909 .05999756 .39183045 .05999756 .31877137 .05999756 .2467041 .05999756-.021484375 .30499269-.021484375 .5499878-.021484375 .5499878 .2467041 .5499878 .31877137M.30499269 .010513306C.2630005 .010513306 .19499207 .030517579 .17098999 .113601688 .15499878 .17164612 .15499878 .2697296 .15499878 .33177186 .15499878 .39883424 .15499878 .4758911 .16899109 .52993777 .19400025 .6200104 .269989 .6330261 .30499269 .6330261 .35099793 .6330261 .4169922 .6110077 .43899537 .5349426 .45399476 .48190309 .45498658 .408844 .45498658 .33177186 .45498658 .26771546 .45498658 .16664124 .43798829 .1105957 .4099884 .023513794 .33799745 .010513306 .30499269 .010513306Z"/>
<path id="font_3_1" d="M.18699646 .01499939C.18699646-.050109865 .17298889-.10720825 .11099243-.16934204 .10699463-.17234802 .10499573-.17434693 .10499573-.17933655 .10499573-.18734741 .11299133-.19334412 .11999512-.19334412 .13198853-.19334412 .21499634-.114227298 .21499634 .0029907227 .21499634 .066986087 .19099427 .11099243 .14698792 .11099243 .11199951 .11099243 .09199524 .08299255 .09199524 .055999757 .09199524 .027999878 .11099243 0 .147995 0 .17199707 0 .18699646 .01399231 .18699646 .01499939Z"/>
<path id="font_3_4" d="M.5179901 .37738038C.5219879 .39138795 .5219879 .39338685 .5219879 .40039063 .5219879 .42539979 .5019989 .43139649 .48999024 .43139649 .4850006 .43139649 .46199037 .43040467 .44898988 .40438844 .44699098 .3993988 .43798829 .3633728 .43299867 .34236146L.37298585 .102264408C.37199403 .09925842 .32899476 .018234253 .2559967 .018234253 .20698548 .018234253 .18998719 .054244996 .18998719 .09925842 .18998719 .1572876 .22399903 .24632263 .24699402 .3043518 .25698854 .32936097 .2599945 .33836366 .2599945 .35636903 .2599945 .4113922 .21598816 .44140626 .16999817 .44140626 .070999149 .44140626 .02999878 .300354 .02999878 .28834535 .02999878 .27934266 .036987306 .27534486 .04499817 .27534486 .057998659 .27534486 .05899048 .28134156 .06199646 .29135133 .08799744 .37838746 .1309967 .4133911 .16699219 .4133911 .18199158 .4133911 .19099427 .4033966 .19099427 .38038636 .19099427 .359375 .18299866 .33636476 .17599488 .31835938 .1349945 .21231079 .117996219 .1612854 .117996219 .11427307 .117996219 .016220093 .19198609-.009765625 .25099183-.009765625 .2979889-.009765625 .33198548 .011230469 .35598756 .034240724 .34199525-.021774292 .33198548-.060791017 .2939911-.108795169 .26098634-.14985657 .22099304-.17610169 .17599488-.17610169 .15899658-.17610169 .12098694-.17308045 .100997928-.14279175 .1539917-.13879395 .1579895-.09379578 .1579895-.08778381 .1579895-.06378174 .13999939-.05078125 .11898804-.05078125 .09700012-.05078125 .06199646-.0677948 .06199646-.11679077 .06199646-.1639862 .10499573-.20410156 .17599488-.20410156 .27799989-.20410156 .3929901-.121795658 .4229889-.00077819827L.5179901 .37738038Z"/>
<path id="font_3_2" d="M.375 .10926819C.36999513 .09025574 .32299806 .018234253 .2559967 .018234253 .20698548 .018234253 .18998719 .054244996 .18998719 .09925842 .18998719 .15829468 .22499085 .24832154 .24699402 .3043518 .25698854 .32936097 .2599945 .33836366 .2599945 .35636903 .2599945 .4113922 .21598816 .44140626 .16999817 .44140626 .070999149 .44140626 .02999878 .300354 .02999878 .28834535 .02999878 .27934266 .036987306 .27534486 .04499817 .27534486 .057998659 .27534486 .05899048 .28134156 .06199646 .29135133 .08799744 .38038636 .13198853 .4133911 .16699219 .4133911 .18199158 .4133911 .19099427 .4033966 .19099427 .38038636 .19099427 .3573761 .18199158 .33436585 .16899109 .29934693 .1269989 .19329834 .117996219 .15028382 .117996219 .11427307 .117996219 .016220093 .19198609-.009765625 .25099183-.009765625 .32598878-.009765625 .37199403 .050247194 .37599183 .055236818 .3919983 .008224487 .43699647-.009765625 .47299195-.009765625 .519989-.009765625 .54299929 .030227662 .5499878 .04524231 .56999209 .08125305 .58399966 .13928223 .58399966 .14328003 .58399966 .14927674 .5799866 .15628052 .56799319 .15628052 .55599978 .15628052 .55400088 .1512909 .5479889 .12527466 .5349884 .07525635 .5169983 .018234253 .47599793 .018234253 .45298768 .018234253 .44400025 .037231447 .44400025 .06524658 .44400025 .08226013 .45298768 .11627197 .45899964 .14128113 .46499635 .16629029 .47999574 .22631836 .48399354 .24432373L.5039978 .32035829C.5099945 .34736634 .5219879 .39439393 .5219879 .40039063 .5219879 .42539979 .5019989 .43139649 .48999024 .43139649 .47599793 .43139649 .45399476 .4223938 .44699098 .39839173L.375 .10926819Z"/>
<path id="font_2_2" d="M.30899049 .25C.30899049 .34500123 .29299928 .45899964 .23098755 .57699587 .18199158 .6689911 .09098816 .75 .07299805 .75 .06298828 .75 .05999756 .7429962 .05999756 .73799136 .05999756 .73399356 .05999756 .7319946 .07199097 .7200012 .21199036 .58699038 .24398804 .4039917 .24398804 .25 .24398804-.037002565 .125-.17300415 .07398987-.2190094 .06098938-.23200989 .05999756-.23300171 .05999756-.23800659 .05999756-.24301148 .06298828-.25 .07299805-.25 .08898926-.25 .13899231-.19900513 .14698792-.19000244 .2809906-.05000305 .30899049 .12998963 .30899049 .25Z"/>
</defs>
<path transform="matrix(1.00003,0,0,-1.00003,53.268465,63.0055)" stroke-width=".3985" stroke-linecap="butt" stroke-miterlimit="10" stroke-linejoin="miter" fill="none" stroke="#000000" d="M0 0-36.16785-33.98628"/>
<path transform="matrix(-.72872188,.6847706,.6847706,.72872188,17.099545,96.9928)" d="M3.58653 0C2.52383 .19925 .797 .797-.3985 1.49438V-1.49438C.797-.797 2.52383-.19925 3.58653 0"/>
<use data-text="x" xlink:href="#font_1_1" transform="matrix(9.962899,0,0,-9.962899,11.639206,107.25883)"/>
<path transform="matrix(1.00003,0,0,-1.00003,53.268465,63.0055)" stroke-width=".3985" stroke-linecap="butt" stroke-miterlimit="10" stroke-linejoin="miter" fill="none" stroke="#000000" d="M0 0 102.99074-12.82036"/>
<path transform="matrix(.9923398,.12350371,.12350371,-.9923398,156.26229,75.826229)" d="M3.58653 0C2.52383 .19925 .797 .797-.3985 1.49438V-1.49438C.797-.797 2.52383-.19925 3.58653 0"/>
<use data-text="y" xlink:href="#font_1_2" transform="matrix(9.962899,0,0,-9.962899,163.34177,77.44493)"/>
<path transform="matrix(1.00003,0,0,-1.00003,53.268465,63.0055)" stroke-width=".3985" stroke-linecap="butt" stroke-miterlimit="10" stroke-linejoin="miter" fill="none" stroke="#000000" d="M0 0V49.6883"/>
<path transform="matrix(0,-1.00003,-1.00003,-0,53.268465,13.315708)" d="M3.58653 0C2.52383 .19925 .797 .797-.3985 1.49438V-1.49438C.797-.797 2.52383-.19925 3.58653 0"/>
<use data-text="z" xlink:href="#font_1_3" transform="matrix(9.962899,0,0,-9.962899,50.732385,6.2087976)"/>
<path transform="matrix(1.00003,0,0,-1.00003,53.268465,63.0055)" d="M-8.47104 23.64684C-8.47104 23.64684-7.02765 23.66104-6.4733 23.67616-5.91895 23.69128-5.02994 23.72717-4.47557 23.75589-3.92122 23.7846-3.03221 23.84132-2.47786 23.8832-1.9235 23.92506-1.03448 24.0032-.48013 24.05763 .0742 24.11208 .96324 24.20941 1.5176 24.27557 2.07195 24.34174 2.96095 24.45735 3.51532 24.53456 4.06967 24.61177 4.95866 24.74457 5.51302 24.83217 6.06738 24.91975 6.95639 25.06898 7.51074 25.16594 8.0651 25.2629 8.95412 25.42577 9.50847 25.53102 10.06282 25.63626 10.95184 25.81184 11.5062 25.92453 12.06056 26.03723 12.94957 26.22412 13.50392 26.34325 14.05827 26.46237 14.9473 26.65863 15.50165 26.78311 16.056 26.9076 16.945 27.11176 17.49937 27.24045 18.05373 27.36914 18.94273 27.57893 19.49709 27.7108 20.05145 27.84267 20.94048 28.05695 21.49483 28.19089 22.04918 28.32483 22.9382 28.5417 23.49255 28.67627 24.0469 28.81084 24.93591 29.02644 25.49028 29.16084 26.04463 29.29524 26.93364 29.51183 27.48799 29.64499 28.04236 29.77815 28.93137 29.99013 29.48572 30.12064 30.04007 30.25114 30.92911 30.45868 31.48346 30.5857 32.03781 30.7127 32.92682 30.91405 33.48119 31.0361 34.03554 31.15816 34.92455 31.34921 35.4789 31.4654 36.03326 31.58159 36.92227 31.76411 37.47662 31.87354 38.03098 31.98296 38.92 32.15265 39.47435 32.25406 40.0287 32.35547 40.91772 32.5119 41.47208 32.6045 42.02644 32.69713 42.91545 32.83876 43.4698 32.92162 44.02415 33.00446 44.91318 33.12955 45.46753 33.20174 46.02188 33.27393 46.91089 33.38121 47.46526 33.44202 48.0196 33.50282 48.90862 33.59137 49.46297 33.64005 50.01733 33.68872 50.90636 33.75711 51.46071 33.79294 52.01506 33.82877 52.90408 33.87589 53.45844 33.89828 54.01279 33.9207 54.9018 33.94586 55.45616 33.95445 56.01051 33.96304 56.89952 33.96594 57.45387 33.9602 58.00824 33.95448 58.89725 33.93369 59.4516 33.91313 60.00595 33.89258 60.89499 33.8475 61.44934 33.81201 62.0037 33.7765 62.8927 33.70782 63.44707 33.65721 64.00142 33.60661 64.89043 33.51312 65.44478 33.44716 65.99915 33.3812 66.88815 33.26299 67.4425 33.18181 67.99686 33.10063 68.88588 32.95836 69.44023 32.862 69.99458 32.76566 70.8836 32.5989 71.43796 32.48732 71.99232 32.37573 72.88133 32.18419 73.43568 32.05779 73.99004 31.93138 74.87906 31.71695 75.43341 31.5762 75.98776 31.43547 76.87677 31.19836 77.43114 31.04343 77.98549 30.88849 78.8745 30.62805 79.42885 30.45941 79.98322 30.29076 80.87224 30.00941 81.42659 29.82785 81.98094 29.6463 82.86996 29.34474 83.42432 29.15077 83.97867 28.95682 84.86768 28.6355 85.42204 28.42981 85.9764 28.2241 86.8654 27.88489 87.41975 27.66818 87.97412 27.45148 88.86313 27.09474 89.41748 26.86794 89.97183 26.64114 90.86087 26.26955 91.41522 26.03357 91.96957 25.79758 92.85858 25.41145 93.41295 25.16707 93.9673 24.92268 94.85631 24.52374 95.41066 24.27214 95.96503 24.02054 96.85403 23.6115 97.40839 23.35362 97.96274 23.09575 98.85176 22.67674 99.40611 22.41357 99.96046 22.15042 100.84949 21.72408 101.40384 21.45683 101.9582 21.1896 102.84721 20.75774 103.40157 20.48752 103.95592 20.2173 104.84494 19.78128 105.39929 19.50925 105.95364 19.23723 106.84265 18.79962 107.39702 18.52693 107.95137 18.25424 108.84038 17.81609 109.39473 17.5438 109.9491 17.2715 111.39247 16.5643 111.39247 16.5643L111.39735 15.67355C111.39735 15.67355 110.872 15.29922 110.67023 15.15327 110.46846 15.00734 110.14487 14.77072 109.9431 14.62161 109.74135 14.47252 109.41776 14.23067 109.21599 14.07857 109.01424 13.92648 108.69063 13.68019 108.48886 13.52539 108.28711 13.37059 107.9635 13.12012 107.76173 12.96284 107.55998 12.80556 107.23639 12.5514 107.03462 12.39175 106.83287 12.2321 106.50928 11.97395 106.30753 11.81216 106.10576 11.65036 105.78215 11.38939 105.5804 11.22562 105.37863 11.06184 105.05504 10.79747 104.85329 10.63179 104.65152 10.4661 104.32791 10.19888 104.12616 10.03145 103.9244 9.86401 103.60078 9.59401 103.39903 9.42499 103.19727 9.25598 102.87369 8.98367 102.67192 8.81326 102.47015 8.64285 102.14656 8.3685 101.9448 8.19667 101.74303 8.02484 101.41943 7.74796 101.21767 7.57477 101.01591 7.4016 100.69232 7.12271 100.49055 6.94841 100.2888 6.7741 99.9652 6.49385 99.76343 6.3184 99.56168 6.14296 99.23807 5.86041 99.0363 5.6839 98.83455 5.5074 98.51096 5.22357 98.30919 5.04617 98.10744 4.86876 97.78383 4.5835 97.58206 4.40518 97.38031 4.22685 97.0567 3.94005 96.85495 3.76093 96.65318 3.58182 96.32959 3.29408 96.12784 3.11424 95.92607 2.9344 95.60246 2.64531 95.40071 2.46474 95.19894 2.28416 94.87534 1.99394 94.67358 1.81276 94.47182 1.63156 94.14822 1.3406 93.94647 1.15875 93.7447 .97688 93.42111 .68436 93.21935 .50192 93.01758 .31947 92.694 .02673 92.49223-.15613 92.29047-.339 91.96687-.63289 91.7651-.81624 91.56335-.99957 91.23975-1.2937 91.03798-1.47754 90.83623-1.66138 90.51263-1.957 90.31087-2.1413 90.10912-2.32559 89.7855-2.62125 89.58374-2.80586 89.38199-2.9905 89.05838-3.28702 88.85661-3.47205 88.65486-3.65707 88.33127-3.95415 88.12952-4.13947 87.92775-4.32477 87.60414-4.6221 87.40239-4.8077 87.20062-4.99329 86.87701-5.2912 86.67526-5.47713 86.4735-5.66307 86.1499-5.96158 85.94815-6.1478 85.74638-6.334 85.42278-6.63284 85.22102-6.81927 85.01926-7.00572 84.69566-7.30489 84.4939-7.49156 84.29213-7.67822 83.96855-7.97777 83.76678-8.16466 83.56502-8.35155 83.24142-8.65146 83.03966-8.83858 82.8379-9.0257 82.5143-9.326 82.31253-9.5133 82.11078-9.70059 81.78719-10.0011 81.58542-10.18843 81.38367-10.37576 81.06006-10.67601 80.85829-10.86357 80.65654-11.05113 80.33293-11.3526 80.13116-11.54033 79.92941-11.72806 79.60582-12.02882 79.40407-12.21667 79.2023-12.40453 78.8787-12.70625 78.67694-12.89427 78.47517-13.08228 78.15157-13.38374 77.94981-13.57182 77.74805-13.7599 77.42445-14.06163 77.2227-14.24982 77.02094-14.43799 76.69733-14.73991 76.49557-14.92819 76.29381-15.11649 75.9702-15.41856 75.76845-15.60698 75.56668-15.7954 75.2431-16.09767 75.04134-16.2862 74.83957-16.47472 74.51598-16.77722 74.31421-16.96579 74.11244-17.15437 73.78886-17.45674 73.5871-17.64539 73.38535-17.83403 73.06174-18.13666 72.85997-18.3254 72.65822-18.51414 72.33461-18.81702 72.13284-19.00583 71.93109-19.19464 71.6075-19.49736 71.40573-19.68623 71.20398-19.8751 70.88037-20.17816 70.6786-20.36707 70.47685-20.55598 70.15324-20.85898 69.95149-21.0479 69.74973-21.2368 69.42613-21.53973 69.22438-21.72871 69.02261-21.9177 68.699-22.2209 68.49725-22.40994 68.29549-22.59898 67.77013-23.09117 67.77013-23.09117L67.76834-23.09285C67.76834-23.09285 66.32497-22.90341 65.7706-22.83075 65.21625-22.75809 64.32724-22.64174 63.77289-22.56908 63.21854-22.49641 62.32951-22.3797 61.77516-22.30698 61.22081-22.23425 60.3318-22.11757 59.77744-22.04489 59.22308-21.97223 58.33406-21.85582 57.77971-21.78322 57.22534-21.7106 56.33633-21.59409 55.78198-21.52153 55.22763-21.44896 54.33861-21.33269 53.78426-21.26025 53.2299-21.1878 52.3409-21.07172 51.78653-20.99939 51.23218-20.92705 50.34317-20.81113 49.78882-20.7389 49.23445-20.6667 48.34543-20.55096 47.79108-20.47887 47.23672-20.40677 46.3477-20.29108 45.79335-20.21921 45.239-20.14732 44.34999-20.03241 43.79562-19.96077 43.24127-19.88911 42.35226-19.77429 41.79791-19.70274 41.24355-19.63121 40.35454-19.51645 39.80019-19.44513 39.24583-19.37383 38.3568-19.25977 37.80244-19.18874 37.2481-19.1177 36.35909-19.00397 35.80472-18.93317 35.25037-18.86235 34.36136-18.74895 33.807-18.67836 33.25266-18.60777 32.36363-18.49477 31.80928-18.42441 31.25493-18.35405 30.36592-18.24133 29.81155-18.17126 29.2572-18.1012 28.36818-17.98907 27.81383-17.91934 27.25946-17.84961 26.37045-17.73813 25.8161-17.66862 25.26175-17.59912 24.37273-17.48755 23.81837-17.41832 23.26402-17.34909 22.37502-17.23859 21.82065-17.16963 21.2663-17.1007 20.37729-16.99002 19.82294-16.92137 19.26857-16.85272 18.37955-16.74312 17.8252-16.67474 17.27084-16.60635 16.38182-16.49664 15.82747-16.4285 15.27312-16.36035 14.38411-16.2513 13.82974-16.18349 13.27539-16.11568 12.38638-16.00726 11.83203-15.93968 11.27766-15.87209 10.38866-15.76364 9.8343-15.69627 9.27995-15.62892 8.39091-15.5212 7.83656-15.45412 7.28221-15.38702 6.3932-15.2796 5.83884-15.21275 5.28448-15.14589 4.39548-15.03883 3.84113-14.97221 3.28677-14.90558 2.39775-14.79886 1.8434-14.73245 1.28905-14.66606 .40004-14.55972-.15431-14.49355-.70866-14.42737-1.59769-14.32144-2.15204-14.25543-2.7064-14.18942-3.59541-14.08363-4.14977-14.01773-4.70412-13.95184-5.59314-13.84618-6.14749-13.78046-6.70184-13.71472-7.59085-13.60956-8.14522-13.54395-8.69957-13.47833-9.58858-13.37297-10.14293-13.30746-10.6973-13.24196-11.58632-13.13718-12.14067-13.0718-12.69502-13.00641-13.58405-12.90152-14.1384-12.83614-14.69275-12.77075-15.58176-12.66579-16.13612-12.60045-16.69048-12.53511-17.57948-12.43054-18.13383-12.3652-18.6882-12.29987-19.57721-12.19485-20.13156-12.12952-20.68591-12.06418-21.57495-11.95953-22.1293-11.89426-22.68365-11.82898-23.57266-11.72433-24.12703-11.659-24.68138-11.59366-25.57039-11.48872-26.12474-11.42334-26.6791-11.35796-27.56812-11.2531-28.12247-11.18767-28.67682-11.12222-29.56583-11.01714-30.1202-10.95157-30.67455-10.886-31.56357-10.78076-32.11792-10.71509-32.67229-10.64941-33.5613-10.54399-34.11565-10.47821-34.67-10.41243-35.55902-10.30687-36.11337-10.2409-36.66772-10.17496-37.55673-10.06892-38.1111-10.0028-38.66545-9.93669-39.55444-9.83066-40.1088-9.76431-40.66316-9.69797-41.55219-9.59116-42.10654-9.52457-42.66089-9.45798-43.54991-9.35115-44.10426-9.28442-44.65862-9.21768-45.54762-9.11043-46.10199-9.04347-46.65634-8.9765-47.54535-8.8689-48.0997-8.80171-48.65407-8.73451-49.54308-8.62656-50.09743-8.55913-50.65178-8.49171-52.09517-8.31573-52.09517-8.31573L-52.10005-8.31512C-52.10005-8.31512-51.57468-7.83067-51.37292-7.64485-51.17116-7.45905-50.84755-7.16136-50.6458-6.97581-50.44403-6.79027-50.12044-6.49277-49.91869-6.30759-49.71692-6.12239-49.39331-5.82579-49.19156-5.64099-48.98979-5.45619-48.6662-5.16031-48.46443-4.97562-48.26266-4.79092-47.93909-4.49423-47.73732-4.30983-47.53555-4.12543-47.21196-3.83022-47.0102-3.64648-46.80844-3.46275-46.48483-3.16856-46.28307-2.98557-46.08131-2.80257-45.75772-2.51016-45.55595-2.3275-45.3542-2.14485-45.0306-1.85136-44.82883-1.66905-44.62708-1.48672-44.30347-1.195-44.1017-1.01341-43.89995-.83183-43.57635-.54114-43.3746-.36023-43.17284-.17934-42.84923 .11026-42.64748 .2905-42.44571 .47073-42.1221 .75926-41.92035 .93881-41.71858 1.11836-41.39499 1.40585-41.19324 1.58467-40.99147 1.7635-40.66786 2.04993-40.46611 2.22769-40.26434 2.40544-39.94075 2.68872-39.73898 2.86586-39.53722 3.04298-39.21364 3.32835-39.01187 3.50441-38.8101 3.68047-38.48651 3.9599-38.28474 4.13483-38.083 4.30975-37.75938 4.59128-37.55762 4.76524-37.35587 4.93922-37.03227 5.21616-36.8305 5.38878-36.62875 5.56139-36.30515 5.83823-36.10338 6.00943-35.90163 6.18063-35.57802 6.45293-35.37625 6.62279-35.1745 6.79263-34.8509 7.0653-34.64915 7.2337-34.44739 7.4021-34.12378 7.66983-33.92203 7.83647-33.72026 8.00311-33.39667 8.26984-33.19492 8.4348-32.99315 8.59975-32.66954 8.86258-32.46779 9.02539-32.26602 9.1882-31.94241 9.44748-31.74066 9.60825-31.5389 9.76903-31.2153 10.02547-31.01355 10.18422-30.81178 10.34297-30.48819 10.59619-30.28642 10.75246-30.08466 10.90872-29.76106 11.15668-29.5593 11.31052-29.35753 11.46437-29.03395 11.71028-28.83218 11.8613-28.63043 12.01231-28.30682 12.25113-28.10506 12.39905-27.9033 12.54697-27.5797 12.78296-27.37793 12.92743-27.17618 13.07191-26.85258 13.29947-26.65082 13.4404-26.44907 13.58131-26.12546 13.80565-25.92369 13.9432-25.72194 14.08075-25.39833 14.2984-25.19658 14.43176-24.99481 14.56512-24.67122 14.77568-24.46947 14.90448-24.2677 15.0333-23.94409 15.23619-23.74234 15.36015-23.54057 15.4841-23.21696 15.67882-23.01521 15.7979-22.81345 15.91699-22.48985 16.10501-22.2881 16.21858-22.08633 16.33217-21.76274 16.50887-21.56097 16.61653-21.3592 16.7242-21.03561 16.8931-20.83385 16.99454-20.63208 17.09598-20.3085 17.25331-20.10674 17.34776-19.90498 17.44221-19.58138 17.58865-19.37961 17.67538-19.17786 17.7621-18.85425 17.89407-18.65248 17.97292-18.45073 18.05174-18.12714 18.17308-17.92537 18.24362-17.72362 18.31418-17.40001 18.42035-17.19824 18.48141-16.99649 18.54248-16.67288 18.6328-16.47113 18.68384-16.26936 18.73486-15.94577 18.80891-15.74402 18.84929-15.54225 18.88966-15.21864 18.94635-15.01689 18.97488-14.81512 19.00342-14.49153 19.03902-14.28978 19.05498-14.08801 19.07094-13.7644 19.08719-13.56265 19.08994-13.36089 19.09268-13.03731 19.08702-12.83554 19.0749-12.63377 19.06279-12.3102 19.03029-12.10843 19.00256-11.90666 18.97482-11.58307 18.91937-11.3813 18.87495-11.17953 18.83054-10.85594 18.74513-10.65417 18.68231-10.45242 18.61949-10.12883 18.50478-9.92706 18.42218-9.72531 18.33957-9.4017 18.19067-9.19994 18.08687-8.99818 17.98305-8.47281 17.67393-8.47281 17.67393" fill="#ebebeb" fill-opacity=".5"/>
<path transform="matrix(1.00003,0,0,-1.00003,53.268465,63.0055)" d="M33.88417 3.05281C33.88417 3.05281 35.92368 2.85365 36.7215 2.7968 37.51932 2.73993 38.8201 2.67082 39.63437 2.64296 40.44862 2.6151 41.76842 2.59393 42.59015 2.59592 43.41187 2.59789 44.73663 2.6249 45.55685 2.65726 46.37708 2.68962 47.69208 2.76662 48.5018 2.82925 49.31152 2.89188 50.60242 3.01611 51.39282 3.10875 52.18321 3.20139 53.4361 3.37419 54.19844 3.49704 54.96077 3.61989 56.16124 3.84198 56.88724 3.99416 57.61324 4.14635 58.74928 4.41286 59.43098 4.594 60.11269 4.77515 61.17073 5.08969 61.80058 5.29984 62.43044 5.50996 63.3993 5.8708 63.97049 6.1086 64.54167 6.3464 65.41115 6.7489 65.91737 7.01387 66.4236 7.27884 67.18335 7.72632 67.61906 8.01834 68.05476 8.31035 68.69719 8.80034 69.05762 9.11858 69.41806 9.43681 69.93571 9.96811 70.21693 10.31198 70.49814 10.65585 70.88547 11.22783 71.0844 11.59702 71.28333 11.96622 71.53622 12.57968 71.6507 12.97292 71.76517 13.36617 71.88081 14.01614 71.90948 14.43134 71.93816 14.84653 71.9148 15.53104 71.85742 15.96545 71.80005 16.39989 71.63866 17.11343 71.49591 17.56242 71.35316 18.01141 71.05518 18.74478 70.8285 19.20155 70.60182 19.65833 70.17012 20.39864 69.86208 20.85454 69.55405 21.31044 68.99425 22.04321 68.60829 22.48747 68.22232 22.93173 67.54002 23.63731 67.08028 24.05658 66.62051 24.47583 65.82317 25.12895 65.29465 25.5092 64.76614 25.88945 63.8625 26.4702 63.27107 26.79723 62.67964 27.12424 61.67982 27.60594 61.03192 27.86627 60.38402 28.12659 59.29868 28.49014 58.60133 28.67343 57.904 28.85672 56.74498 29.08731 56.00595 29.1874 55.26692 29.28749 54.04745 29.37944 53.27484 29.39485 52.50223 29.41028 51.23532 29.36447 50.43752 29.29852 49.6397 29.23257 48.33891 29.05933 47.52464 28.91948 46.71039 28.77963 45.3906 28.49323 44.56886 28.2906 43.74713 28.08797 42.42238 27.71123 41.60216 27.45901 40.78194 27.20682 39.46695 26.76064 38.65723 26.47287 37.8475 26.1851 36.55658 25.69562 35.76619 25.38495 34.9758 25.0743 33.7229 24.5568 32.96057 24.23375 32.19824 23.9107 30.99777 23.38338 30.27177 23.05664 29.54576 22.7299 28.40974 22.2039 27.72803 21.87881 27.04631 21.55374 25.98827 21.0339 25.35841 20.71367 24.72856 20.39345 23.75969 19.88475 23.1885 19.57082 22.61732 19.25688 21.74786 18.75867 21.24164 18.45096 20.73541 18.14323 19.97565 17.65527 19.53995 17.353 19.10425 17.05072 18.46182 16.5699 18.10138 16.27225 17.74095 15.9746 17.22328 15.5014 16.94208 15.20767 16.66087 14.91394 16.27354 14.44551 16.07462 14.15517 15.87567 13.86482 15.62277 13.40176 15.5083 13.11497 15.39383 12.8282 15.2782 12.37067 15.24953 12.08821 15.22086 11.80576 15.24422 11.35643 15.30159 11.07924 15.35896 10.80205 15.52032 10.36064 15.66307 10.0903 15.80582 9.81996 16.1038 9.39204 16.3305 9.1308 16.55719 8.86955 16.98889 8.45773 17.29692 8.20738 17.60497 7.95705 18.16476 7.56363 18.55072 7.32639 18.93669 7.08914 19.61899 6.71904 20.07874 6.49745 20.53848 6.27586 21.33586 5.93318 21.86438 5.72928 22.39288 5.52538 23.29651 5.21179 23.88794 5.02779 24.47937 4.84378 25.47917 4.56474 26.12709 4.403 26.775 4.24127 27.86034 3.99979 28.55766 3.86206 29.255 3.72432 30.41403 3.52255 31.15306 3.41028 31.89209 3.29802 33.88417 3.05281 33.88417 3.05281" fill="#cce3f4" fill-opacity=".5"/>
<path transform="matrix(1.00003,0,0,-1.00003,53.268465,63.0055)" stroke-width=".3985" stroke-linecap="butt" stroke-miterlimit="10" stroke-linejoin="miter" fill="none" stroke="#0074c8" d="M33.88417 3.05281C33.88417 3.05281 35.92368 2.85365 36.7215 2.7968 37.51932 2.73993 38.8201 2.67082 39.63437 2.64296 40.44862 2.6151 41.76842 2.59393 42.59015 2.59592 43.41187 2.59789 44.73663 2.6249 45.55685 2.65726 46.37708 2.68962 47.69208 2.76662 48.5018 2.82925 49.31152 2.89188 50.60242 3.01611 51.39282 3.10875 52.18321 3.20139 53.4361 3.37419 54.19844 3.49704 54.96077 3.61989 56.16124 3.84198 56.88724 3.99416 57.61324 4.14635 58.74928 4.41286 59.43098 4.594 60.11269 4.77515 61.17073 5.08969 61.80058 5.29984 62.43044 5.50996 63.3993 5.8708 63.97049 6.1086 64.54167 6.3464 65.41115 6.7489 65.91737 7.01387 66.4236 7.27884 67.18335 7.72632 67.61906 8.01834 68.05476 8.31035 68.69719 8.80034 69.05762 9.11858 69.41806 9.43681 69.93571 9.96811 70.21693 10.31198 70.49814 10.65585 70.88547 11.22783 71.0844 11.59702 71.28333 11.96622 71.53622 12.57968 71.6507 12.97292 71.76517 13.36617 71.88081 14.01614 71.90948 14.43134 71.93816 14.84653 71.9148 15.53104 71.85742 15.96545 71.80005 16.39989 71.63866 17.11343 71.49591 17.56242 71.35316 18.01141 71.05518 18.74478 70.8285 19.20155 70.60182 19.65833 70.17012 20.39864 69.86208 20.85454 69.55405 21.31044 68.99425 22.04321 68.60829 22.48747 68.22232 22.93173 67.54002 23.63731 67.08028 24.05658 66.62051 24.47583 65.82317 25.12895 65.29465 25.5092 64.76614 25.88945 63.8625 26.4702 63.27107 26.79723 62.67964 27.12424 61.67982 27.60594 61.03192 27.86627 60.38402 28.12659 59.29868 28.49014 58.60133 28.67343 57.904 28.85672 56.74498 29.08731 56.00595 29.1874 55.26692 29.28749 54.04745 29.37944 53.27484 29.39485 52.50223 29.41028 51.23532 29.36447 50.43752 29.29852 49.6397 29.23257 48.33891 29.05933 47.52464 28.91948 46.71039 28.77963 45.3906 28.49323 44.56886 28.2906 43.74713 28.08797 42.42238 27.71123 41.60216 27.45901 40.78194 27.20682 39.46695 26.76064 38.65723 26.47287 37.8475 26.1851 36.55658 25.69562 35.76619 25.38495 34.9758 25.0743 33.7229 24.5568 32.96057 24.23375 32.19824 23.9107 30.99777 23.38338 30.27177 23.05664 29.54576 22.7299 28.40974 22.2039 27.72803 21.87881 27.04631 21.55374 25.98827 21.0339 25.35841 20.71367 24.72856 20.39345 23.75969 19.88475 23.1885 19.57082 22.61732 19.25688 21.74786 18.75867 21.24164 18.45096 20.73541 18.14323 19.97565 17.65527 19.53995 17.353 19.10425 17.05072 18.46182 16.5699 18.10138 16.27225 17.74095 15.9746 17.22328 15.5014 16.94208 15.20767 16.66087 14.91394 16.27354 14.44551 16.07462 14.15517 15.87567 13.86482 15.62277 13.40176 15.5083 13.11497 15.39383 12.8282 15.2782 12.37067 15.24953 12.08821 15.22086 11.80576 15.24422 11.35643 15.30159 11.07924 15.35896 10.80205 15.52032 10.36064 15.66307 10.0903 15.80582 9.81996 16.1038 9.39204 16.3305 9.1308 16.55719 8.86955 16.98889 8.45773 17.29692 8.20738 17.60497 7.95705 18.16476 7.56363 18.55072 7.32639 18.93669 7.08914 19.61899 6.71904 20.07874 6.49745 20.53848 6.27586 21.33586 5.93318 21.86438 5.72928 22.39288 5.52538 23.29651 5.21179 23.88794 5.02779 24.47937 4.84378 25.47917 4.56474 26.12709 4.403 26.775 4.24127 27.86034 3.99979 28.55766 3.86206 29.255 3.72432 30.41403 3.52255 31.15306 3.41028 31.89209 3.29802 33.88417 3.05281 33.88417 3.05281"/>
<path transform="matrix(1.00003,0,0,-1.00003,53.268465,63.0055)" d="M44.57578 14.34886C44.57578 14.89911 44.12975 15.34514 43.5795 15.34514 43.02927 15.34514 42.58322 14.89911 42.58322 14.34886 42.58322 13.79863 43.02927 13.35258 43.5795 13.35258 44.12975 13.35258 44.57578 13.79863 44.57578 14.34886ZM43.5795 14.34886"/>
<use data-text="(" xlink:href="#font_2_1" transform="matrix(7.9703395,0,0,-7.9703395,29.449746,43.143907)"/>
<use data-text="x" xlink:href="#font_3_3" transform="matrix(7.9703395,0,0,-7.9703395,32.743844,43.143907)"/>
<use data-text="0" xlink:href="#font_4_1" transform="matrix(5.97778,0,0,-5.97778,37.510004,44.25094)"/>
<use data-text="," xlink:href="#font_3_1" transform="matrix(7.9703395,0,0,-7.9703395,41.661127,43.143907)"/>
<use data-text="y" xlink:href="#font_3_4" transform="matrix(7.9703395,0,0,-7.9703395,45.42312,43.143907)"/>
<use data-text="0" xlink:href="#font_4_1" transform="matrix(5.97778,0,0,-5.97778,49.611368,44.25094)"/>
<use data-text="," xlink:href="#font_3_1" transform="matrix(7.9703395,0,0,-7.9703395,53.76249,43.143907)"/>
<use data-text="u" xlink:href="#font_3_2" transform="matrix(7.9703395,0,0,-7.9703395,57.524484,43.143907)"/>
<use data-text="(" xlink:href="#font_2_1" transform="matrix(7.9703395,0,0,-7.9703395,62.429758,43.143907)"/>
<use data-text="x" xlink:href="#font_3_3" transform="matrix(7.9703395,0,0,-7.9703395,65.72285,43.143907)"/>
<use data-text="0" xlink:href="#font_4_1" transform="matrix(5.97778,0,0,-5.97778,70.49,44.25094)"/>
<use data-text="," xlink:href="#font_3_1" transform="matrix(7.9703395,0,0,-7.9703395,74.64112,43.143907)"/>
<use data-text="y" xlink:href="#font_3_4" transform="matrix(7.9703395,0,0,-7.9703395,78.403118,43.143907)"/>
<use data-text="0" xlink:href="#font_4_1" transform="matrix(5.97778,0,0,-5.97778,82.59037,44.25094)"/>
<use data-text=")" xlink:href="#font_2_2" transform="matrix(7.9703395,0,0,-7.9703395,86.74149,43.143907)"/>
<use data-text=")" xlink:href="#font_2_2" transform="matrix(7.9703395,0,0,-7.9703395,90.03324,43.143907)"/>
</svg>
