<svg xmlns="http://www.w3.org/2000/svg" xmlns:xlink="http://www.w3.org/1999/xlink" version="1.1" width="208pt" height="214pt" viewBox="0 0 208 214">
<defs>
<path id="font_1_1" d="M.1269989 .07699585 .23298645 .18003845C.3889923 .31811524 .44898988 .3721466 .44898988 .47216798 .44898988 .5860901 .35899354 .6660156 .23699951 .6660156 .12399292 .6660156 .049987794 .57411196 .049987794 .48516847 .049987794 .4291687 .099990848 .4291687 .102996829 .4291687 .11999512 .4291687 .15499878 .44117738 .15499878 .48217774 .15499878 .5081787 .13699341 .5341797 .101989749 .5341797 .09399414 .5341797 .09199524 .5341797 .08898926 .5331726 .11199951 .59806826 .1659851 .63500979 .22399903 .63500979 .31498719 .63500979 .35798646 .5541382 .35798646 .47216798 .35798646 .39215089 .30799867 .31311036 .25299073 .25108338L.06098938 .036987306C.049987794 .025985718 .049987794 .023986817 .049987794 0H.42099L.44898988 .17404175H.42399598C.4189911 .14402771 .4119873 .1000061 .4019928 .084991458 .394989 .07699585 .32899476 .07699585 .30699159 .07699585H.1269989Z"/>
<path id="font_1_2" d="M.2899933 .35191346C.37199403 .37893678 .42999269 .4490509 .42999269 .52809146 .42999269 .6100464 .34199525 .6660156 .24598694 .6660156 .14498902 .6660156 .068984989 .60606387 .068984989 .53009036 .068984989 .49710084 .09098816 .47808839 .11999512 .47808839 .15098572 .47808839 .17098999 .50009158 .17098999 .5290985 .17098999 .57910159 .12399292 .57910159 .10899353 .57910159 .13999939 .62802127 .20599365 .64100649 .24198914 .64100649 .2829895 .64100649 .33799745 .6190338 .33799745 .5290985 .33799745 .51708987 .33599855 .45906068 .30999757 .4149933 .27999879 .36691285 .24598694 .36390687 .22099304 .36291505 .21299744 .36190797 .18899536 .35990907 .18199158 .35990907 .17399597 .35890199 .16699219 .35791017 .16699219 .3479004 .16699219 .33691407 .17399597 .33691407 .19099427 .33691407H.23498535C.31698609 .33691407 .35398866 .2686615 .35398866 .17037964 .35398866 .034469606 .2849884 .0055389406 .24099732 .0055389406 .19799805 .0055389406 .12298584 .022491456 .08799744 .08137512 .12298584 .07637024 .1539917 .09837341 .1539917 .1363678 .1539917 .17237854 .1269989 .19238281 .09799194 .19238281 .07398987 .19238281 .041992189 .17837525 .041992189 .1343689 .041992189 .043441774 .1349945-.022460938 .24398804-.022460938 .3659973-.022460938 .45700074 .06838989 .45700074 .17037964 .45700074 .252594 .3939972 .33088685 .2899933 .35191346Z"/>
<path id="font_1_3" d="M.2939911 .16503906V.07800293C.2939911 .041992189 .2919922 .0309906 .21798706 .0309906H.19699097V0C.23799134 .0029907227 .2899933 .0029907227 .33198548 .0029907227 .37399293 .0029907227 .4269867 .0029907227 .46798707 0V.0309906H.44699098C.37298585 .0309906 .37098695 .041992189 .37098695 .07800293V.16503906H.47099305V.19602967H.37098695V.65075686C.37098695 .67074587 .37098695 .6767578 .35499574 .6767578 .34599305 .6767578 .34298707 .6767578 .33499146 .66474917L.027999878 .19602967V.16503906H.2939911M.2999878 .19602967H.055999757L.2999878 .5688019V.19602967Z"/>
</defs>
<path transform="matrix(1.00002,0,0,-1,7.9248659,199.77)" stroke-width=".79701" stroke-linecap="butt" stroke-dasharray=".79701,1.99255" stroke-miterlimit="10" stroke-linejoin="miter" fill="none" stroke="#afafaf" d="M0 226.77448V226.77448M0 226.77448V226.77448M0 226.77448"/>
<path transform="matrix(1.00002,0,0,-1,7.9248659,199.77)" stroke-width="1.49442" stroke-linecap="butt" stroke-miterlimit="10" stroke-linejoin="miter" fill="none" stroke="#0074c8" d="M0 0H191.88216"/>
<path transform="matrix(1.00002,0,0,-1,199.81087,199.77)" d="M6.54549 0C4.60605 .36362 1.45454 1.45454-.72726 2.72728V-2.72728C1.45454-1.45454 4.60605-.36362 6.54549 0" fill="#0074c8"/>
<path transform="matrix(1.00002,0,0,-1,7.9248659,199.77)" stroke-width="1.49442" stroke-linecap="butt" stroke-miterlimit="10" stroke-linejoin="miter" fill="none" stroke="#0074c8" d="M0 0V191.88216"/>
<path transform="matrix(0,-1,-1.00002,-0,7.9248659,7.887848)" d="M6.54549 0C4.60605 .36362 1.45454 1.45454-.72726 2.72728V-2.72728C1.45454-1.45454 4.60605-.36362 6.54549 0" fill="#0074c8"/>
<path transform="matrix(1.00002,0,0,-1,7.9248659,199.77)" stroke-width=".99628" stroke-linecap="butt" stroke-miterlimit="10" stroke-linejoin="miter" fill="none" stroke="#ff0000" d="M56.69362 56.69362 94.28035 69.22255"/>
<path transform="matrix(.948659,-.31621,-.31621633,-.94864,102.20708,130.54746)" d="M5.20058 0C3.65962 .28891 1.15567 1.15567-.57784 2.1669V-2.1669C1.15567-1.15567 3.65962-.28891 5.20058 0" fill="#ff0000"/>
<path transform="matrix(1.00002,0,0,-1,7.9248659,199.77)" stroke-width=".99628" stroke-linecap="butt" stroke-miterlimit="10" stroke-linejoin="miter" fill="none" stroke="#ff0000" d="M113.38724 56.69362 138.84944 94.88687"/>
<path transform="matrix(.55468109,-.83202,-.8320367,-.55467,146.77707,104.88314)" d="M5.20058 0C3.65962 .28891 1.15567 1.15567-.57784 2.1669V-2.1669C1.15567-1.15567 3.65962-.28891 5.20058 0" fill="#ff0000"/>
<path transform="matrix(1.00002,0,0,-1,7.9248659,199.77)" stroke-width=".99628" stroke-linecap="butt" stroke-miterlimit="10" stroke-linejoin="miter" fill="none" stroke="#ff0000" d="M170.08086 56.69362V94.01324"/>
<path transform="matrix(0,-1,-1.00002,-0,178.00913,105.75677)" d="M5.20058 0C3.65962 .28891 1.15567 1.15567-.57784 2.1669V-2.1669C1.15567-1.15567 3.65962-.28891 5.20058 0" fill="#ff0000"/>
<path transform="matrix(1.00002,0,0,-1,7.9248659,199.77)" stroke-width=".99628" stroke-linecap="butt" stroke-miterlimit="10" stroke-linejoin="miter" fill="none" stroke="#ff0000" d="M56.69362 113.38724 81.36307 138.05669"/>
<path transform="matrix(.70711418,-.7071,-.70711418,-.7071,89.28955,61.713335)" d="M5.20058 0C3.65962 .28891 1.15567 1.15567-.57784 2.1669V-2.1669C1.15567-1.15567 3.65962-.28891 5.20058 0" fill="#ff0000"/>
<path transform="matrix(1.00002,0,0,-1,7.9248659,199.77)" stroke-width=".99628" stroke-linecap="butt" stroke-miterlimit="10" stroke-linejoin="miter" fill="none" stroke="#ff0000" d="M113.38724 113.38724 137.08275 125.23508"/>
<path transform="matrix(.8943979,-.44717,-.44717894,-.89438,145.01036,74.53494)" d="M5.20058 0C3.65962 .28891 1.15567 1.15567-.57784 2.1669V-2.1669C1.15567-1.15567 3.65962-.28891 5.20058 0" fill="#ff0000"/>
<path transform="matrix(1.00002,0,0,-1,7.9248659,199.77)" stroke-width=".99628" stroke-linecap="butt" stroke-miterlimit="10" stroke-linejoin="miter" fill="none" stroke="#ff0000" d="M170.08086 113.38724 181.9287 137.08275"/>
<path transform="matrix(.44717894,-.89438,-.8943979,-.44717,189.8572,62.687257)" d="M5.20058 0C3.65962 .28891 1.15567 1.15567-.57784 2.1669V-2.1669C1.15567-1.15567 3.65962-.28891 5.20058 0" fill="#ff0000"/>
<path transform="matrix(1.00002,0,0,-1,7.9248659,199.77)" stroke-width=".99628" stroke-linecap="butt" stroke-miterlimit="10" stroke-linejoin="miter" fill="none" stroke="#ff0000" d="M56.69362 170.08086 80.38913 181.9287"/>
<path transform="matrix(.8943979,-.44717,-.44717894,-.89438,88.315608,17.841324)" d="M5.20058 0C3.65962 .28891 1.15567 1.15567-.57784 2.1669V-2.1669C1.15567-1.15567 3.65962-.28891 5.20058 0" fill="#ff0000"/>
<path transform="matrix(1.00002,0,0,-1,7.9248659,199.77)" stroke-width=".99628" stroke-linecap="butt" stroke-miterlimit="10" stroke-linejoin="miter" fill="none" stroke="#ff0000" d="M113.38724 170.08086 137.08275 181.9287"/>
<path transform="matrix(.8943979,-.44717,-.44717894,-.89438,145.01036,17.841324)" d="M5.20058 0C3.65962 .28891 1.15567 1.15567-.57784 2.1669V-2.1669C1.15567-1.15567 3.65962-.28891 5.20058 0" fill="#ff0000"/>
<path transform="matrix(1.00002,0,0,-1,7.9248659,199.77)" stroke-width=".99628" stroke-linecap="butt" stroke-miterlimit="10" stroke-linejoin="miter" fill="none" stroke="#ff0000" d="M170.08086 170.08086 181.9287 193.77637"/>
<path transform="matrix(.44717894,-.89438,-.8943979,-.44717,189.8572,5.993637)" d="M5.20058 0C3.65962 .28891 1.15567 1.15567-.57784 2.1669V-2.1669C1.15567-1.15567 3.65962-.28891 5.20058 0" fill="#ff0000"/>
<path transform="matrix(1.00002,0,0,-1,7.9248659,199.77)" stroke-width=".79701" stroke-linecap="butt" stroke-miterlimit="10" stroke-linejoin="miter" fill="none" stroke="#000000" d="M56.69362 1.99255V-1.99255"/>
<use data-text="2" xlink:href="#font_1_1" transform="matrix(9.962799,0,0,-9.9626,62.128953,211.90201)"/>
<path transform="matrix(1.00002,0,0,-1,7.9248659,199.77)" stroke-width=".79701" stroke-linecap="butt" stroke-miterlimit="10" stroke-linejoin="miter" fill="none" stroke="#000000" d="M113.38724 1.99255V-1.99255"/>
<use data-text="3" xlink:href="#font_1_2" transform="matrix(9.962799,0,0,-9.9626,118.82409,211.90201)"/>
<path transform="matrix(1.00002,0,0,-1,7.9248659,199.77)" stroke-width=".79701" stroke-linecap="butt" stroke-miterlimit="10" stroke-linejoin="miter" fill="none" stroke="#000000" d="M170.08086 1.99255V-1.99255"/>
<use data-text="4" xlink:href="#font_1_3" transform="matrix(9.962799,0,0,-9.9626,175.51822,211.90201)"/>
<path transform="matrix(1.00002,0,0,-1,7.9248659,199.77)" stroke-width=".79701" stroke-linecap="butt" stroke-miterlimit="10" stroke-linejoin="miter" fill="none" stroke="#000000" d="M-1.99255 56.69362H1.99255"/>
<use data-text="2" xlink:href="#font_1_1" transform="matrix(9.962799,0,0,-9.9626,1.2167282,146.287)"/>
<path transform="matrix(1.00002,0,0,-1,7.9248659,199.77)" stroke-width=".79701" stroke-linecap="butt" stroke-miterlimit="10" stroke-linejoin="miter" fill="none" stroke="#000000" d="M-1.99255 113.38724H1.99255"/>
<use data-text="3" xlink:href="#font_1_2" transform="matrix(9.962799,0,0,-9.9626,1.2167282,89.593)"/>
<path transform="matrix(1.00002,0,0,-1,7.9248659,199.77)" stroke-width=".79701" stroke-linecap="butt" stroke-miterlimit="10" stroke-linejoin="miter" fill="none" stroke="#000000" d="M-1.99255 170.08086H1.99255"/>
<use data-text="4" xlink:href="#font_1_3" transform="matrix(9.962799,0,0,-9.9626,1.2167282,32.899003)"/>
</svg>
