<svg xmlns="http://www.w3.org/2000/svg" xmlns:xlink="http://www.w3.org/1999/xlink" version="1.1" width="154pt" height="166pt" viewBox="0 0 154 166">
<defs>
<path id="font_1_3" d="M.44898988 .20022583C.44898988 .3193512 .36698915 .41944886 .25898744 .41944886 .21099854 .41944886 .16799927 .40345765 .13198853 .36842347V.5637665C.1519928 .5577698 .18499756 .55078127 .21699524 .55078127 .33999635 .55078127 .4099884 .6417694 .4099884 .6547699 .4099884 .6607666 .40699769 .6657715 .3999939 .6657715 .39898683 .6657715 .39698792 .6657715 .3919983 .66278079 .37199403 .6537781 .32299806 .6337738 .2559967 .6337738 .21598816 .6337738 .16999817 .6407776 .12298584 .6617737 .114990238 .66477969 .11299133 .66477969 .11099243 .66477969 .100997928 .66477969 .100997928 .6567688 .100997928 .6407776V.34439088C.100997928 .32637025 .100997928 .31835938 .114990238 .31835938 .12199402 .31835938 .12399292 .32136537 .12799073 .32736207 .13899231 .3433838 .17599488 .39746095 .25698854 .39746095 .30899049 .39746095 .33399964 .35139466 .34199525 .33337403 .35798646 .29632569 .3600006 .25727845 .3600006 .20722962 .3600006 .17222595 .3600006 .11222839 .33599855 .07035828 .31199647 .031463624 .2749939 .0055389406 .22898865 .0055389406 .1559906 .0055389406 .09899902 .058380128 .08198547 .11723328 .084991458 .1162262 .08799744 .115234378 .09899902 .115234378 .13198853 .115234378 .14898682 .14022827 .14898682 .16423035 .14898682 .18823242 .13198853 .21322632 .09899902 .21322632 .084991458 .21322632 .049987794 .20622254 .049987794 .16023255 .049987794 .07434082 .11898804-.022460938 .23098755-.022460938 .34700013-.022460938 .44898988 .073349 .44898988 .20022583Z"/>
<path id="font_1_1" d="M.45999146 .31976319C.45999146 .39982606 .45498658 .47988893 .41999818 .5539398 .37399293 .65000918 .2919922 .6660156 .25 .6660156 .18998719 .6660156 .116989139 .64001467 .07598877 .54693606 .04399109 .47789 .038986207 .39982606 .038986207 .31976319 .038986207 .24472046 .042999269 .15464783 .083999637 .07859802 .1269989-.0024719239 .19999695-.022460938 .24899292-.022460938 .30299378-.022460938 .3789978-.0014648438 .4229889 .09359741 .45498658 .16265869 .45999146 .2407074 .45999146 .31976319M.24899292-.00047302247C.20999146-.00047302247 .15098572 .024551392 .1329956 .12062073 .12199402 .18066406 .12199402 .2727356 .12199402 .3317871 .12199402 .39582826 .12199402 .46188355 .12998963 .5159149 .14898682 .63500979 .22399903 .64401248 .24899292 .64401248 .28199769 .64401248 .34799195 .6259918 .36698915 .52693179 .3769989 .47088624 .3769989 .39482118 .3769989 .3317871 .3769989 .25672914 .3769989 .18867493 .3659973 .12461853 .35099793 .029556275 .2939911-.00047302247 .24899292-.00047302247Z"/>
<path id="font_1_2" d="M.2939911 .64004519C.2939911 .66400149 .2939911 .6660156 .2709961 .6660156 .20899964 .60227969 .12098694 .60227969 .08898926 .60227969V.57128909C.10899353 .57128909 .16799927 .57128909 .21998596 .5972748V.07902527C.21998596 .042999269 .21699524 .0309906 .1269989 .0309906H.09498596V0C.12998963 .0029907227 .21699524 .0029907227 .25698854 .0029907227 .29699708 .0029907227 .38398744 .0029907227 .4189911 0V.0309906H.3869934C.29699708 .0309906 .2939911 .041992189 .2939911 .07902527V.64004519Z"/>
</defs>
<path transform="matrix(1.00008,0,0,-1.00002,18.28434,152.96976)" stroke-width=".79701" stroke-linecap="butt" stroke-dasharray=".79701,1.99255" stroke-miterlimit="10" stroke-linejoin="miter" fill="none" stroke="#afafaf" d="M0 127.56192V127.56192M0 127.56192V127.56192M0 127.56192"/>
<path transform="matrix(1.00008,0,0,-1.00002,18.28434,152.96976)" stroke-width="1.49442" stroke-linecap="butt" stroke-miterlimit="10" stroke-linejoin="miter" fill="none" stroke="#0074c8" d="M0 0H127.56192"/>
<path transform="matrix(1.00008,0,0,-1.00002,18.28434,152.96976)" stroke-width="1.49442" stroke-linecap="butt" stroke-miterlimit="10" stroke-linejoin="miter" fill="none" stroke="#0074c8" d="M0 0V127.56192"/>
<path transform="matrix(1.00008,0,0,-1.00002,18.28434,152.96976)" stroke-width="1.99255" stroke-linecap="butt" stroke-miterlimit="10" stroke-linejoin="miter" fill="none" stroke="#ff0000" d="M21.26031 9.35457 28.78497 10.6089"/>
<path transform="matrix(.9864189,-.1643733,-.16438315,-.9863597,47.07161,142.36066)" d="M7.89055 0C5.55257 .43835 1.75345 1.75345-.87672 3.28772V-3.28772C1.75345-1.75345 5.55257-.43835 7.89055 0" fill="#ff0000"/>
<path transform="matrix(1.00008,0,0,-1.00002,18.28434,152.96976)" stroke-width="1.99255" stroke-linecap="butt" stroke-miterlimit="10" stroke-linejoin="miter" fill="none" stroke="#0074c8" d="M62.9305 23.81157 106.02382 44.99309"/>
<path transform="matrix(.8974718,-.4410988,-.44112528,-.897418,124.31663,107.975788)" d="M7.89055 0C5.55257 .43835 1.75345 1.75345-.87672 3.28772V-3.28772C1.75345-1.75345 5.55257-.43835 7.89055 0" fill="#0074c8"/>
<path transform="matrix(1.00008,0,0,-1.00002,18.28434,152.96976)" stroke-width="1.99255" stroke-linecap="butt" stroke-miterlimit="10" stroke-linejoin="miter" fill="none" stroke="#0074c8" d="M17.85872 43.3711 26.11183 75.69542"/>
<path transform="matrix(.2473798,-.96890947,-.9689675,-.24736496,44.398248,77.27282)" d="M7.89055 0C5.55257 .43835 1.75345 1.75345-.87672 3.28772V-3.28772C1.75345-1.75345 5.55257-.43835 7.89055 0" fill="#0074c8"/>
<path transform="matrix(1.00008,0,0,-1.00002,18.28434,152.96976)" stroke-width="1.99255" stroke-linecap="butt" stroke-miterlimit="10" stroke-linejoin="miter" fill="none" stroke="#0074c8" d="M44.22144 73.13554 67.28766 143.87186"/>
<path transform="matrix(.31003479,-.950729,-.95078608,-.31001619,85.57738,9.0950169)" d="M7.89055 0C5.55257 .43835 1.75345 1.75345-.87672 3.28772V-3.28772C1.75345-1.75345 5.55257-.43835 7.89055 0" fill="#0074c8"/>
<path transform="matrix(1.00008,0,0,-1.00002,18.28434,152.96976)" stroke-width="1.99255" stroke-linecap="butt" stroke-miterlimit="10" stroke-linejoin="miter" fill="none" stroke="#0074c8" d="M53.57602 10.20491 87.51543 17.13144"/>
<path transform="matrix(.97982838,-.199944,-.19995599,-.9797696,105.80677,135.838)" d="M7.89055 0C5.55257 .43835 1.75345 1.75345-.87672 3.28772V-3.28772C1.75345-1.75345 5.55257-.43835 7.89055 0" fill="#0074c8"/>
<path transform="matrix(1.00008,0,0,-1.00002,18.28434,152.96976)" stroke-width="1.99255" stroke-linecap="butt" stroke-miterlimit="10" stroke-linejoin="miter" fill="none" stroke="#0074c8" d="M49.32394 31.46523 79.19043 58.48732"/>
<path transform="matrix(.7415593,-.67089346,-.67093369,-.74151489,97.48108,94.48126)" d="M7.89055 0C5.55257 .43835 1.75345 1.75345-.87672 3.28772V-3.28772C1.75345-1.75345 5.55257-.43835 7.89055 0" fill="#0074c8"/>
<path transform="matrix(1.00008,0,0,-1.00002,18.28434,152.96976)" stroke-width=".79701" stroke-linecap="butt" stroke-miterlimit="10" stroke-linejoin="miter" fill="none" stroke="#000000" d="M42.52063 .59776V-.59776"/>
<use data-text="5" xlink:href="#font_1_3" transform="matrix(9.963397,0,0,-9.962799,55.826345,163.70697)"/>
<use data-text="0" xlink:href="#font_1_1" transform="matrix(9.963397,0,0,-9.962799,60.80805,163.70697)"/>
<path transform="matrix(1.00008,0,0,-1.00002,18.28434,152.96976)" stroke-width=".79701" stroke-linecap="butt" stroke-miterlimit="10" stroke-linejoin="miter" fill="none" stroke="#000000" d="M85.04128 .59776V-.59776"/>
<use data-text="1" xlink:href="#font_1_2" transform="matrix(9.963397,0,0,-9.962799,95.85954,163.70697)"/>
<use data-text="0" xlink:href="#font_1_1" transform="matrix(9.963397,0,0,-9.962799,100.84125,163.70697)"/>
<use data-text="0" xlink:href="#font_1_1" transform="matrix(9.963397,0,0,-9.962799,105.822948,163.70697)"/>
<path transform="matrix(1.00008,0,0,-1.00002,18.28434,152.96976)" stroke-width=".79701" stroke-linecap="butt" stroke-miterlimit="10" stroke-linejoin="miter" fill="none" stroke="#000000" d="M127.56192 .59776V-.59776"/>
<use data-text="1" xlink:href="#font_1_2" transform="matrix(9.963397,0,0,-9.962799,138.38394,163.70697)"/>
<use data-text="5" xlink:href="#font_1_3" transform="matrix(9.963397,0,0,-9.962799,143.36565,163.70697)"/>
<use data-text="0" xlink:href="#font_1_1" transform="matrix(9.963397,0,0,-9.962799,148.34735,163.70697)"/>
<path transform="matrix(1.00008,0,0,-1.00002,18.28434,152.96976)" stroke-width=".79701" stroke-linecap="butt" stroke-miterlimit="10" stroke-linejoin="miter" fill="none" stroke="#000000" d="M-.59776 42.52063H.59776"/>
<use data-text="5" xlink:href="#font_1_3" transform="matrix(9.963397,0,0,-9.962799,5.199295,113.658969)"/>
<use data-text="0" xlink:href="#font_1_1" transform="matrix(9.963397,0,0,-9.962799,10.181,113.658969)"/>
<path transform="matrix(1.00008,0,0,-1.00002,18.28434,152.96976)" stroke-width=".79701" stroke-linecap="butt" stroke-miterlimit="10" stroke-linejoin="miter" fill="none" stroke="#000000" d="M-.59776 85.04128H.59776"/>
<use data-text="1" xlink:href="#font_1_2" transform="matrix(9.963397,0,0,-9.962799,.21789551,71.137119)"/>
<use data-text="0" xlink:href="#font_1_1" transform="matrix(9.963397,0,0,-9.962799,5.1996,71.137119)"/>
<use data-text="0" xlink:href="#font_1_1" transform="matrix(9.963397,0,0,-9.962799,10.181297,71.137119)"/>
<path transform="matrix(1.00008,0,0,-1.00002,18.28434,152.96976)" stroke-width=".79701" stroke-linecap="butt" stroke-miterlimit="10" stroke-linejoin="miter" fill="none" stroke="#000000" d="M-.59776 127.56192H.59776"/>
<use data-text="1" xlink:href="#font_1_2" transform="matrix(9.963397,0,0,-9.962799,.21789551,28.615273)"/>
<use data-text="5" xlink:href="#font_1_3" transform="matrix(9.963397,0,0,-9.962799,5.1996,28.615273)"/>
<use data-text="0" xlink:href="#font_1_1" transform="matrix(9.963397,0,0,-9.962799,10.181297,28.615273)"/>
</svg>
