<svg xmlns="http://www.w3.org/2000/svg" xmlns:xlink="http://www.w3.org/1999/xlink" version="1.1" width="144pt" height="120pt" viewBox="0 0 144 120">
<defs>
<path id="font_1_1" d="M.7599945 .69506838C.7599945 .69807437 .7579956 .7050781 .7489929 .7050781 .74598696 .7050781 .7449951 .70407107 .73399356 .69306948L.6639862 .61602786C.6549988 .6300354 .60899356 .7050781 .49798585 .7050781 .2749939 .7050781 .049987794 .48391725 .049987794 .25172425 .049987794 .08659363 .16799927-.022460938 .32099916-.022460938 .4079895-.022460938 .48399354 .017532349 .5369873 .063583377 .6299896 .14564514 .6469879 .2367096 .6469879 .23971558 .6469879 .24972534 .6369934 .24972534 .6349945 .24972534 .6289978 .24972534 .6239929 .24772644 .621994 .23971558 .61299136 .21069336 .58999636 .13963318 .5209961 .081588748 .45199586 .025543213 .3889923 .008529663 .33699037 .008529663 .24699402 .008529663 .14099121 .060577394 .14099121 .21670532 .14099121 .27374269 .1619873 .43588258 .2619934 .55296328 .32299806 .62402346 .4169922 .67407229 .5059967 .67407229 .60798647 .67407229 .6669922 .5970001 .6669922 .48091126 .6669922 .44088746 .6639862 .43988038 .6639862 .4298706 .6639862 .41986085 .6749878 .41986085 .67900088 .41986085 .69200137 .41986085 .69200137 .42185975 .69699099 .43988038L.7599945 .69506838Z"/>
</defs>
<path transform="matrix(1.00003,0,0,-1,72.163639,59.691)" stroke-width="1.99255" stroke-linecap="butt" stroke-miterlimit="10" stroke-linejoin="miter" fill="none" stroke="#ff0000" d="M42.52022 0C42.52022 23.48355 23.48355 42.52022 0 42.52022-23.48355 42.52022-42.52022 23.48355-42.52022 0-42.52022-23.48355-23.48355-42.52022 0-42.52022 23.48355-42.52022 42.52022-23.48355 42.52022 0ZM0 0"/>
<path transform="matrix(1.00003,0,0,-1,72.163639,59.691)" stroke-width="1.99255" stroke-linecap="butt" stroke-miterlimit="10" stroke-linejoin="miter" fill="none" stroke="#ff0000" d="M42.5202 0V-5.0557"/>
<path transform="matrix(0,-1,-1.00003,-0,114.68511,64.746707)" d="M7.89055 0C5.55257 .43835 1.75345 1.75345-.87672 3.28772V-3.28772C1.75345-1.75345 5.55257-.43835 7.89055 0" fill="#ff0000"/>
<use data-text="C" xlink:href="#font_1_1" transform="matrix(9.962899,0,0,-9.9626,104.82861,29.079003)" fill="#ff0000"/>
<path transform="matrix(1.00003,0,0,-1,72.163639,59.691)" stroke-width="1.99255" stroke-linecap="butt" stroke-miterlimit="10" stroke-linejoin="miter" fill="none" stroke="#ff0000" d="M-42.5202 0V5.0557"/>
<path transform="matrix(0,1,1.00003,0,29.642159,54.635305)" d="M7.89055 0C5.55257 .43835 1.75345 1.75345-.87672 3.28772V-3.28772C1.75345-1.75345 5.55257-.43835 7.89055 0" fill="#ff0000"/>
<path transform="matrix(1.00003,0,0,-1,72.163639,59.691)" stroke-width=".79701" stroke-linecap="butt" stroke-miterlimit="10" stroke-linejoin="miter" fill="none" stroke="#0074c8" d="M-56.69362-56.69362H-47.18268"/>
<path transform="matrix(1.00003,0,0,-1,24.979538,116.38462)" d="M4.66248 0C3.28098 .25902 1.0361 1.0361-.51805 1.94269V-1.94269C1.0361-1.0361 3.28098-.25902 4.66248 0" fill="#0074c8"/>
<path transform="matrix(1.00003,0,0,-1,72.163639,59.691)" stroke-width=".79701" stroke-linecap="butt" stroke-miterlimit="10" stroke-linejoin="miter" fill="none" stroke="#0074c8" d="M-56.69362-42.5202H-50.72603"/>
<path transform="matrix(1.00003,0,0,-1,21.436085,102.2112)" d="M4.66248 0C3.28098 .25902 1.0361 1.0361-.51805 1.94269V-1.94269C1.0361-1.0361 3.28098-.25902 4.66248 0" fill="#0074c8"/>
<path transform="matrix(1.00003,0,0,-1,72.163639,59.691)" stroke-width=".79701" stroke-linecap="butt" stroke-miterlimit="10" stroke-linejoin="miter" fill="none" stroke="#0074c8" d="M-56.69362-28.3468H-54.26938"/>
<path transform="matrix(1.00003,0,0,-1,17.892628,88.0378)" d="M4.66248 0C3.28098 .25902 1.0361 1.0361-.51805 1.94269V-1.94269C1.0361-1.0361 3.28098-.25902 4.66248 0" fill="#0074c8"/>
<path transform="matrix(1.00003,0,0,-1,72.163639,59.691)" stroke-width=".79701" stroke-linecap="butt" stroke-miterlimit="10" stroke-linejoin="miter" fill="none" stroke="#0074c8" d="M-56.69362-14.17339H-57.81273"/>
<path transform="matrix(1.00003,0,0,-1,14.349171,73.864398)" d="M4.66248 0C3.28098 .25902 1.0361 1.0361-.51805 1.94269V-1.94269C1.0361-1.0361 3.28098-.25902 4.66248 0" fill="#0074c8"/>
<path transform="matrix(1.00003,0,0,-1,72.163639,59.691)" stroke-width=".79701" stroke-linecap="butt" stroke-miterlimit="10" stroke-linejoin="miter" fill="none" stroke="#0074c8" d="M-56.69362 14.17339H-55.57448"/>
<path transform="matrix(-1.00003,-0,0,1,16.587487,45.517614)" d="M4.66248 0C3.28098 .25902 1.0361 1.0361-.51805 1.94269V-1.94269C1.0361-1.0361 3.28098-.25902 4.66248 0" fill="#0074c8"/>
<path transform="matrix(1.00003,0,0,-1,72.163639,59.691)" stroke-width=".79701" stroke-linecap="butt" stroke-miterlimit="10" stroke-linejoin="miter" fill="none" stroke="#0074c8" d="M-56.69362 28.3468H-59.11783"/>
<path transform="matrix(-1.00003,-0,0,1,13.044029,31.344202)" d="M4.66248 0C3.28098 .25902 1.0361 1.0361-.51805 1.94269V-1.94269C1.0361-1.0361 3.28098-.25902 4.66248 0" fill="#0074c8"/>
<path transform="matrix(1.00003,0,0,-1,72.163639,59.691)" stroke-width=".79701" stroke-linecap="butt" stroke-miterlimit="10" stroke-linejoin="miter" fill="none" stroke="#0074c8" d="M-56.69362 42.5202H-62.66118"/>
<path transform="matrix(-1.00003,-0,0,1,9.500576,17.170804)" d="M4.66248 0C3.28098 .25902 1.0361 1.0361-.51805 1.94269V-1.94269C1.0361-1.0361 3.28098-.25902 4.66248 0" fill="#0074c8"/>
<path transform="matrix(1.00003,0,0,-1,72.163639,59.691)" stroke-width=".79701" stroke-linecap="butt" stroke-miterlimit="10" stroke-linejoin="miter" fill="none" stroke="#0074c8" d="M-56.69362 56.69362H-66.20453"/>
<path transform="matrix(-1.00003,-0,0,1,5.957115,2.997383)" d="M4.66248 0C3.28098 .25902 1.0361 1.0361-.51805 1.94269V-1.94269C1.0361-1.0361 3.28098-.25902 4.66248 0" fill="#0074c8"/>
<path transform="matrix(1.00003,0,0,-1,72.163639,59.691)" stroke-width=".79701" stroke-linecap="butt" stroke-miterlimit="10" stroke-linejoin="miter" fill="none" stroke="#0074c8" d="M-42.5202-56.69362H-33.00928"/>
<path transform="matrix(1.00003,0,0,-1,39.153364,116.38462)" d="M4.66248 0C3.28098 .25902 1.0361 1.0361-.51805 1.94269V-1.94269C1.0361-1.0361 3.28098-.25902 4.66248 0" fill="#0074c8"/>
<path transform="matrix(1.00003,0,0,-1,72.163639,59.691)" stroke-width=".79701" stroke-linecap="butt" stroke-miterlimit="10" stroke-linejoin="miter" fill="none" stroke="#0074c8" d="M-42.5202-42.5202H-36.55261"/>
<path transform="matrix(1.00003,0,0,-1,35.60993,102.2112)" d="M4.66248 0C3.28098 .25902 1.0361 1.0361-.51805 1.94269V-1.94269C1.0361-1.0361 3.28098-.25902 4.66248 0" fill="#0074c8"/>
<path transform="matrix(1.00003,0,0,-1,72.163639,59.691)" stroke-width=".79701" stroke-linecap="butt" stroke-miterlimit="10" stroke-linejoin="miter" fill="none" stroke="#0074c8" d="M-42.5202-28.3468H-40.09598"/>
<path transform="matrix(1.00003,0,0,-1,32.06645,88.0378)" d="M4.66248 0C3.28098 .25902 1.0361 1.0361-.51805 1.94269V-1.94269C1.0361-1.0361 3.28098-.25902 4.66248 0" fill="#0074c8"/>
<path transform="matrix(1.00003,0,0,-1,72.163639,59.691)" stroke-width=".79701" stroke-linecap="butt" stroke-miterlimit="10" stroke-linejoin="miter" fill="none" stroke="#0074c8" d="M-42.5202-14.17339H-43.63933"/>
<path transform="matrix(1.00003,0,0,-1,28.522992,73.864398)" d="M4.66248 0C3.28098 .25902 1.0361 1.0361-.51805 1.94269V-1.94269C1.0361-1.0361 3.28098-.25902 4.66248 0" fill="#0074c8"/>
<path transform="matrix(1.00003,0,0,-1,72.163639,59.691)" stroke-width=".79701" stroke-linecap="butt" stroke-miterlimit="10" stroke-linejoin="miter" fill="none" stroke="#0074c8" d="M-42.5202 14.17339H-41.40108"/>
<path transform="matrix(-1.00003,-0,0,1,30.76131,45.517614)" d="M4.66248 0C3.28098 .25902 1.0361 1.0361-.51805 1.94269V-1.94269C1.0361-1.0361 3.28098-.25902 4.66248 0" fill="#0074c8"/>
<path transform="matrix(1.00003,0,0,-1,72.163639,59.691)" stroke-width=".79701" stroke-linecap="butt" stroke-miterlimit="10" stroke-linejoin="miter" fill="none" stroke="#0074c8" d="M-42.5202 28.3468H-44.94443"/>
<path transform="matrix(-1.00003,-0,0,1,27.217854,31.344202)" d="M4.66248 0C3.28098 .25902 1.0361 1.0361-.51805 1.94269V-1.94269C1.0361-1.0361 3.28098-.25902 4.66248 0" fill="#0074c8"/>
<path transform="matrix(1.00003,0,0,-1,72.163639,59.691)" stroke-width=".79701" stroke-linecap="butt" stroke-miterlimit="10" stroke-linejoin="miter" fill="none" stroke="#0074c8" d="M-42.5202 42.5202H-48.48778"/>
<path transform="matrix(-1.00003,-0,0,1,23.674397,17.170804)" d="M4.66248 0C3.28098 .25902 1.0361 1.0361-.51805 1.94269V-1.94269C1.0361-1.0361 3.28098-.25902 4.66248 0" fill="#0074c8"/>
<path transform="matrix(1.00003,0,0,-1,72.163639,59.691)" stroke-width=".79701" stroke-linecap="butt" stroke-miterlimit="10" stroke-linejoin="miter" fill="none" stroke="#0074c8" d="M-42.5202 56.69362H-52.03113"/>
<path transform="matrix(-1.00003,-0,0,1,20.13094,2.997383)" d="M4.66248 0C3.28098 .25902 1.0361 1.0361-.51805 1.94269V-1.94269C1.0361-1.0361 3.28098-.25902 4.66248 0" fill="#0074c8"/>
<path transform="matrix(1.00003,0,0,-1,72.163639,59.691)" stroke-width=".79701" stroke-linecap="butt" stroke-miterlimit="10" stroke-linejoin="miter" fill="none" stroke="#0074c8" d="M-28.3468-56.69362H-18.83586"/>
<path transform="matrix(1.00003,0,0,-1,53.32721,116.38462)" d="M4.66248 0C3.28098 .25902 1.0361 1.0361-.51805 1.94269V-1.94269C1.0361-1.0361 3.28098-.25902 4.66248 0" fill="#0074c8"/>
<path transform="matrix(1.00003,0,0,-1,72.163639,59.691)" stroke-width=".79701" stroke-linecap="butt" stroke-miterlimit="10" stroke-linejoin="miter" fill="none" stroke="#0074c8" d="M-28.3468-42.5202H-22.37923"/>
<path transform="matrix(1.00003,0,0,-1,49.783735,102.2112)" d="M4.66248 0C3.28098 .25902 1.0361 1.0361-.51805 1.94269V-1.94269C1.0361-1.0361 3.28098-.25902 4.66248 0" fill="#0074c8"/>
<path transform="matrix(1.00003,0,0,-1,72.163639,59.691)" stroke-width=".79701" stroke-linecap="butt" stroke-miterlimit="10" stroke-linejoin="miter" fill="none" stroke="#0074c8" d="M-28.3468-28.3468H-25.92258"/>
<path transform="matrix(1.00003,0,0,-1,46.240278,88.0378)" d="M4.66248 0C3.28098 .25902 1.0361 1.0361-.51805 1.94269V-1.94269C1.0361-1.0361 3.28098-.25902 4.66248 0" fill="#0074c8"/>
<path transform="matrix(1.00003,0,0,-1,72.163639,59.691)" stroke-width=".79701" stroke-linecap="butt" stroke-miterlimit="10" stroke-linejoin="miter" fill="none" stroke="#0074c8" d="M-28.3468-14.17339H-29.46593"/>
<path transform="matrix(1.00003,0,0,-1,42.69682,73.864398)" d="M4.66248 0C3.28098 .25902 1.0361 1.0361-.51805 1.94269V-1.94269C1.0361-1.0361 3.28098-.25902 4.66248 0" fill="#0074c8"/>
<path transform="matrix(1.00003,0,0,-1,72.163639,59.691)" stroke-width=".79701" stroke-linecap="butt" stroke-miterlimit="10" stroke-linejoin="miter" fill="none" stroke="#0074c8" d="M-28.3468 14.17339H-27.22766"/>
<path transform="matrix(-1.00003,-0,0,1,44.935159,45.517614)" d="M4.66248 0C3.28098 .25902 1.0361 1.0361-.51805 1.94269V-1.94269C1.0361-1.0361 3.28098-.25902 4.66248 0" fill="#0074c8"/>
<path transform="matrix(1.00003,0,0,-1,72.163639,59.691)" stroke-width=".79701" stroke-linecap="butt" stroke-miterlimit="10" stroke-linejoin="miter" fill="none" stroke="#0074c8" d="M-28.3468 28.3468H-30.77101"/>
<path transform="matrix(-1.00003,-0,0,1,41.3917,31.344202)" d="M4.66248 0C3.28098 .25902 1.0361 1.0361-.51805 1.94269V-1.94269C1.0361-1.0361 3.28098-.25902 4.66248 0" fill="#0074c8"/>
<path transform="matrix(1.00003,0,0,-1,72.163639,59.691)" stroke-width=".79701" stroke-linecap="butt" stroke-miterlimit="10" stroke-linejoin="miter" fill="none" stroke="#0074c8" d="M-28.3468 42.5202H-34.31438"/>
<path transform="matrix(-1.00003,-0,0,1,37.848226,17.170804)" d="M4.66248 0C3.28098 .25902 1.0361 1.0361-.51805 1.94269V-1.94269C1.0361-1.0361 3.28098-.25902 4.66248 0" fill="#0074c8"/>
<path transform="matrix(1.00003,0,0,-1,72.163639,59.691)" stroke-width=".79701" stroke-linecap="butt" stroke-miterlimit="10" stroke-linejoin="miter" fill="none" stroke="#0074c8" d="M-28.3468 56.69362H-37.85773"/>
<path transform="matrix(-1.00003,-0,0,1,34.304769,2.997383)" d="M4.66248 0C3.28098 .25902 1.0361 1.0361-.51805 1.94269V-1.94269C1.0361-1.0361 3.28098-.25902 4.66248 0" fill="#0074c8"/>
<path transform="matrix(1.00003,0,0,-1,72.163639,59.691)" stroke-width=".79701" stroke-linecap="butt" stroke-miterlimit="10" stroke-linejoin="miter" fill="none" stroke="#0074c8" d="M-14.17339-56.69362H-4.66248"/>
<path transform="matrix(1.00003,0,0,-1,67.501018,116.38462)" d="M4.66248 0C3.28098 .25902 1.0361 1.0361-.51805 1.94269V-1.94269C1.0361-1.0361 3.28098-.25902 4.66248 0" fill="#0074c8"/>
<path transform="matrix(1.00003,0,0,-1,72.163639,59.691)" stroke-width=".79701" stroke-linecap="butt" stroke-miterlimit="10" stroke-linejoin="miter" fill="none" stroke="#0074c8" d="M-14.17339-42.5202H-8.20581"/>
<path transform="matrix(1.00003,0,0,-1,63.95758,102.2112)" d="M4.66248 0C3.28098 .25902 1.0361 1.0361-.51805 1.94269V-1.94269C1.0361-1.0361 3.28098-.25902 4.66248 0" fill="#0074c8"/>
<path transform="matrix(1.00003,0,0,-1,72.163639,59.691)" stroke-width=".79701" stroke-linecap="butt" stroke-miterlimit="10" stroke-linejoin="miter" fill="none" stroke="#0074c8" d="M-14.17339-28.3468H-11.74916"/>
<path transform="matrix(1.00003,0,0,-1,60.414125,88.0378)" d="M4.66248 0C3.28098 .25902 1.0361 1.0361-.51805 1.94269V-1.94269C1.0361-1.0361 3.28098-.25902 4.66248 0" fill="#0074c8"/>
<path transform="matrix(1.00003,0,0,-1,72.163639,59.691)" stroke-width=".79701" stroke-linecap="butt" stroke-miterlimit="10" stroke-linejoin="miter" fill="none" stroke="#0074c8" d="M-14.17339-14.17339H-15.29251"/>
<path transform="matrix(1.00003,0,0,-1,56.870668,73.864398)" d="M4.66248 0C3.28098 .25902 1.0361 1.0361-.51805 1.94269V-1.94269C1.0361-1.0361 3.28098-.25902 4.66248 0" fill="#0074c8"/>
<path transform="matrix(1.00003,0,0,-1,72.163639,59.691)" stroke-width=".79701" stroke-linecap="butt" stroke-miterlimit="10" stroke-linejoin="miter" fill="none" stroke="#0074c8" d="M-14.17339 14.17339H-13.05426"/>
<path transform="matrix(-1.00003,-0,0,1,59.108983,45.517614)" d="M4.66248 0C3.28098 .25902 1.0361 1.0361-.51805 1.94269V-1.94269C1.0361-1.0361 3.28098-.25902 4.66248 0" fill="#0074c8"/>
<path transform="matrix(1.00003,0,0,-1,72.163639,59.691)" stroke-width=".79701" stroke-linecap="butt" stroke-miterlimit="10" stroke-linejoin="miter" fill="none" stroke="#0074c8" d="M-14.17339 28.3468H-16.59763"/>
<path transform="matrix(-1.00003,-0,0,1,55.565507,31.344202)" d="M4.66248 0C3.28098 .25902 1.0361 1.0361-.51805 1.94269V-1.94269C1.0361-1.0361 3.28098-.25902 4.66248 0" fill="#0074c8"/>
<path transform="matrix(1.00003,0,0,-1,72.163639,59.691)" stroke-width=".79701" stroke-linecap="butt" stroke-miterlimit="10" stroke-linejoin="miter" fill="none" stroke="#0074c8" d="M-14.17339 42.5202H-20.14098"/>
<path transform="matrix(-1.00003,-0,0,1,52.02205,17.170804)" d="M4.66248 0C3.28098 .25902 1.0361 1.0361-.51805 1.94269V-1.94269C1.0361-1.0361 3.28098-.25902 4.66248 0" fill="#0074c8"/>
<path transform="matrix(1.00003,0,0,-1,72.163639,59.691)" stroke-width=".79701" stroke-linecap="butt" stroke-miterlimit="10" stroke-linejoin="miter" fill="none" stroke="#0074c8" d="M-14.17339 56.69362H-23.68433"/>
<path transform="matrix(-1.00003,-0,0,1,48.478593,2.997383)" d="M4.66248 0C3.28098 .25902 1.0361 1.0361-.51805 1.94269V-1.94269C1.0361-1.0361 3.28098-.25902 4.66248 0" fill="#0074c8"/>
<path transform="matrix(1.00003,0,0,-1,72.163639,59.691)" stroke-width=".79701" stroke-linecap="butt" stroke-miterlimit="10" stroke-linejoin="miter" fill="none" stroke="#0074c8" d="M0-56.69362H9.51091"/>
<path transform="matrix(1.00003,0,0,-1,81.674839,116.38462)" d="M4.66248 0C3.28098 .25902 1.0361 1.0361-.51805 1.94269V-1.94269C1.0361-1.0361 3.28098-.25902 4.66248 0" fill="#0074c8"/>
<path transform="matrix(1.00003,0,0,-1,72.163639,59.691)" stroke-width=".79701" stroke-linecap="butt" stroke-miterlimit="10" stroke-linejoin="miter" fill="none" stroke="#0074c8" d="M0-42.5202H5.96756"/>
<path transform="matrix(1.00003,0,0,-1,78.13138,102.2112)" d="M4.66248 0C3.28098 .25902 1.0361 1.0361-.51805 1.94269V-1.94269C1.0361-1.0361 3.28098-.25902 4.66248 0" fill="#0074c8"/>
<path transform="matrix(1.00003,0,0,-1,72.163639,59.691)" stroke-width=".79701" stroke-linecap="butt" stroke-miterlimit="10" stroke-linejoin="miter" fill="none" stroke="#0074c8" d="M0-28.3468H2.42421"/>
<path transform="matrix(1.00003,0,0,-1,74.58792,88.0378)" d="M4.66248 0C3.28098 .25902 1.0361 1.0361-.51805 1.94269V-1.94269C1.0361-1.0361 3.28098-.25902 4.66248 0" fill="#0074c8"/>
<path transform="matrix(1.00003,0,0,-1,72.163639,59.691)" stroke-width=".79701" stroke-linecap="butt" stroke-miterlimit="10" stroke-linejoin="miter" fill="none" stroke="#0074c8" d="M0-14.17339H-1.11913"/>
<path transform="matrix(1.00003,0,0,-1,71.04447,73.864398)" d="M4.66248 0C3.28098 .25902 1.0361 1.0361-.51805 1.94269V-1.94269C1.0361-1.0361 3.28098-.25902 4.66248 0" fill="#0074c8"/>
<path transform="matrix(1.00003,0,0,-1,72.163639,59.691)" stroke-width=".79701" stroke-linecap="butt" stroke-miterlimit="10" stroke-linejoin="miter" fill="none" stroke="#0074c8" d="M0 14.17339H1.11913"/>
<path transform="matrix(-1.00003,-0,0,1,73.2828,45.517614)" d="M4.66248 0C3.28098 .25902 1.0361 1.0361-.51805 1.94269V-1.94269C1.0361-1.0361 3.28098-.25902 4.66248 0" fill="#0074c8"/>
<path transform="matrix(1.00003,0,0,-1,72.163639,59.691)" stroke-width=".79701" stroke-linecap="butt" stroke-miterlimit="10" stroke-linejoin="miter" fill="none" stroke="#0074c8" d="M0 28.3468H-2.42421"/>
<path transform="matrix(-1.00003,-0,0,1,69.73935,31.344202)" d="M4.66248 0C3.28098 .25902 1.0361 1.0361-.51805 1.94269V-1.94269C1.0361-1.0361 3.28098-.25902 4.66248 0" fill="#0074c8"/>
<path transform="matrix(1.00003,0,0,-1,72.163639,59.691)" stroke-width=".79701" stroke-linecap="butt" stroke-miterlimit="10" stroke-linejoin="miter" fill="none" stroke="#0074c8" d="M0 42.5202H-5.96756"/>
<path transform="matrix(-1.00003,-0,0,1,66.19589,17.170804)" d="M4.66248 0C3.28098 .25902 1.0361 1.0361-.51805 1.94269V-1.94269C1.0361-1.0361 3.28098-.25902 4.66248 0" fill="#0074c8"/>
<path transform="matrix(1.00003,0,0,-1,72.163639,59.691)" stroke-width=".79701" stroke-linecap="butt" stroke-miterlimit="10" stroke-linejoin="miter" fill="none" stroke="#0074c8" d="M0 56.69362H-9.51091"/>
<path transform="matrix(-1.00003,-0,0,1,62.65244,2.997383)" d="M4.66248 0C3.28098 .25902 1.0361 1.0361-.51805 1.94269V-1.94269C1.0361-1.0361 3.28098-.25902 4.66248 0" fill="#0074c8"/>
<path transform="matrix(1.00003,0,0,-1,72.163639,59.691)" stroke-width=".79701" stroke-linecap="butt" stroke-miterlimit="10" stroke-linejoin="miter" fill="none" stroke="#0074c8" d="M14.17339-56.69362H23.68433"/>
<path transform="matrix(1.00003,0,0,-1,95.84868,116.38462)" d="M4.66248 0C3.28098 .25902 1.0361 1.0361-.51805 1.94269V-1.94269C1.0361-1.0361 3.28098-.25902 4.66248 0" fill="#0074c8"/>
<path transform="matrix(1.00003,0,0,-1,72.163639,59.691)" stroke-width=".79701" stroke-linecap="butt" stroke-miterlimit="10" stroke-linejoin="miter" fill="none" stroke="#0074c8" d="M14.17339-42.5202H20.14098"/>
<path transform="matrix(1.00003,0,0,-1,92.30522,102.2112)" d="M4.66248 0C3.28098 .25902 1.0361 1.0361-.51805 1.94269V-1.94269C1.0361-1.0361 3.28098-.25902 4.66248 0" fill="#0074c8"/>
<path transform="matrix(1.00003,0,0,-1,72.163639,59.691)" stroke-width=".79701" stroke-linecap="butt" stroke-miterlimit="10" stroke-linejoin="miter" fill="none" stroke="#0074c8" d="M14.17339-28.3468H16.59763"/>
<path transform="matrix(1.00003,0,0,-1,88.761768,88.0378)" d="M4.66248 0C3.28098 .25902 1.0361 1.0361-.51805 1.94269V-1.94269C1.0361-1.0361 3.28098-.25902 4.66248 0" fill="#0074c8"/>
<path transform="matrix(1.00003,0,0,-1,72.163639,59.691)" stroke-width=".79701" stroke-linecap="butt" stroke-miterlimit="10" stroke-linejoin="miter" fill="none" stroke="#0074c8" d="M14.17339-14.17339H13.05426"/>
<path transform="matrix(1.00003,0,0,-1,85.218288,73.864398)" d="M4.66248 0C3.28098 .25902 1.0361 1.0361-.51805 1.94269V-1.94269C1.0361-1.0361 3.28098-.25902 4.66248 0" fill="#0074c8"/>
<path transform="matrix(1.00003,0,0,-1,72.163639,59.691)" stroke-width=".79701" stroke-linecap="butt" stroke-miterlimit="10" stroke-linejoin="miter" fill="none" stroke="#0074c8" d="M14.17339 14.17339H15.29251"/>
<path transform="matrix(-1.00003,-0,0,1,87.456607,45.517614)" d="M4.66248 0C3.28098 .25902 1.0361 1.0361-.51805 1.94269V-1.94269C1.0361-1.0361 3.28098-.25902 4.66248 0" fill="#0074c8"/>
<path transform="matrix(1.00003,0,0,-1,72.163639,59.691)" stroke-width=".79701" stroke-linecap="butt" stroke-miterlimit="10" stroke-linejoin="miter" fill="none" stroke="#0074c8" d="M14.17339 28.3468H11.74916"/>
<path transform="matrix(-1.00003,-0,0,1,83.91315,31.344202)" d="M4.66248 0C3.28098 .25902 1.0361 1.0361-.51805 1.94269V-1.94269C1.0361-1.0361 3.28098-.25902 4.66248 0" fill="#0074c8"/>
<path transform="matrix(1.00003,0,0,-1,72.163639,59.691)" stroke-width=".79701" stroke-linecap="butt" stroke-miterlimit="10" stroke-linejoin="miter" fill="none" stroke="#0074c8" d="M14.17339 42.5202H8.20581"/>
<path transform="matrix(-1.00003,-0,0,1,80.36969,17.170804)" d="M4.66248 0C3.28098 .25902 1.0361 1.0361-.51805 1.94269V-1.94269C1.0361-1.0361 3.28098-.25902 4.66248 0" fill="#0074c8"/>
<path transform="matrix(1.00003,0,0,-1,72.163639,59.691)" stroke-width=".79701" stroke-linecap="butt" stroke-miterlimit="10" stroke-linejoin="miter" fill="none" stroke="#0074c8" d="M14.17339 56.69362H4.66248"/>
<path transform="matrix(-1.00003,-0,0,1,76.826259,2.997383)" d="M4.66248 0C3.28098 .25902 1.0361 1.0361-.51805 1.94269V-1.94269C1.0361-1.0361 3.28098-.25902 4.66248 0" fill="#0074c8"/>
<path transform="matrix(1.00003,0,0,-1,72.163639,59.691)" stroke-width=".79701" stroke-linecap="butt" stroke-miterlimit="10" stroke-linejoin="miter" fill="none" stroke="#0074c8" d="M28.3468-56.69362H37.85773"/>
<path transform="matrix(1.00003,0,0,-1,110.02251,116.38462)" d="M4.66248 0C3.28098 .25902 1.0361 1.0361-.51805 1.94269V-1.94269C1.0361-1.0361 3.28098-.25902 4.66248 0" fill="#0074c8"/>
<path transform="matrix(1.00003,0,0,-1,72.163639,59.691)" stroke-width=".79701" stroke-linecap="butt" stroke-miterlimit="10" stroke-linejoin="miter" fill="none" stroke="#0074c8" d="M28.3468-42.5202H34.31438"/>
<path transform="matrix(1.00003,0,0,-1,106.47905,102.2112)" d="M4.66248 0C3.28098 .25902 1.0361 1.0361-.51805 1.94269V-1.94269C1.0361-1.0361 3.28098-.25902 4.66248 0" fill="#0074c8"/>
<path transform="matrix(1.00003,0,0,-1,72.163639,59.691)" stroke-width=".79701" stroke-linecap="butt" stroke-miterlimit="10" stroke-linejoin="miter" fill="none" stroke="#0074c8" d="M28.3468-28.3468H30.77101"/>
<path transform="matrix(1.00003,0,0,-1,102.93557,88.0378)" d="M4.66248 0C3.28098 .25902 1.0361 1.0361-.51805 1.94269V-1.94269C1.0361-1.0361 3.28098-.25902 4.66248 0" fill="#0074c8"/>
<path transform="matrix(1.00003,0,0,-1,72.163639,59.691)" stroke-width=".79701" stroke-linecap="butt" stroke-miterlimit="10" stroke-linejoin="miter" fill="none" stroke="#0074c8" d="M28.3468-14.17339H27.22766"/>
<path transform="matrix(1.00003,0,0,-1,99.39211,73.864398)" d="M4.66248 0C3.28098 .25902 1.0361 1.0361-.51805 1.94269V-1.94269C1.0361-1.0361 3.28098-.25902 4.66248 0" fill="#0074c8"/>
<path transform="matrix(1.00003,0,0,-1,72.163639,59.691)" stroke-width=".79701" stroke-linecap="butt" stroke-miterlimit="10" stroke-linejoin="miter" fill="none" stroke="#0074c8" d="M28.3468 14.17339H29.46593"/>
<path transform="matrix(-1.00003,-0,0,1,101.63045,45.517614)" d="M4.66248 0C3.28098 .25902 1.0361 1.0361-.51805 1.94269V-1.94269C1.0361-1.0361 3.28098-.25902 4.66248 0" fill="#0074c8"/>
<path transform="matrix(1.00003,0,0,-1,72.163639,59.691)" stroke-width=".79701" stroke-linecap="butt" stroke-miterlimit="10" stroke-linejoin="miter" fill="none" stroke="#0074c8" d="M28.3468 28.3468H25.92258"/>
<path transform="matrix(-1.00003,-0,0,1,98.08699,31.344202)" d="M4.66248 0C3.28098 .25902 1.0361 1.0361-.51805 1.94269V-1.94269C1.0361-1.0361 3.28098-.25902 4.66248 0" fill="#0074c8"/>
<path transform="matrix(1.00003,0,0,-1,72.163639,59.691)" stroke-width=".79701" stroke-linecap="butt" stroke-miterlimit="10" stroke-linejoin="miter" fill="none" stroke="#0074c8" d="M28.3468 42.5202H22.37923"/>
<path transform="matrix(-1.00003,-0,0,1,94.54353,17.170804)" d="M4.66248 0C3.28098 .25902 1.0361 1.0361-.51805 1.94269V-1.94269C1.0361-1.0361 3.28098-.25902 4.66248 0" fill="#0074c8"/>
<path transform="matrix(1.00003,0,0,-1,72.163639,59.691)" stroke-width=".79701" stroke-linecap="butt" stroke-miterlimit="10" stroke-linejoin="miter" fill="none" stroke="#0074c8" d="M28.3468 56.69362H18.83586"/>
<path transform="matrix(-1.00003,-0,0,1,91.00006,2.997383)" d="M4.66248 0C3.28098 .25902 1.0361 1.0361-.51805 1.94269V-1.94269C1.0361-1.0361 3.28098-.25902 4.66248 0" fill="#0074c8"/>
<path transform="matrix(1.00003,0,0,-1,72.163639,59.691)" stroke-width=".79701" stroke-linecap="butt" stroke-miterlimit="10" stroke-linejoin="miter" fill="none" stroke="#0074c8" d="M42.5202-56.69362H52.03113"/>
<path transform="matrix(1.00003,0,0,-1,124.196338,116.38462)" d="M4.66248 0C3.28098 .25902 1.0361 1.0361-.51805 1.94269V-1.94269C1.0361-1.0361 3.28098-.25902 4.66248 0" fill="#0074c8"/>
<path transform="matrix(1.00003,0,0,-1,72.163639,59.691)" stroke-width=".79701" stroke-linecap="butt" stroke-miterlimit="10" stroke-linejoin="miter" fill="none" stroke="#0074c8" d="M42.5202-42.5202H48.48778"/>
<path transform="matrix(1.00003,0,0,-1,120.65288,102.2112)" d="M4.66248 0C3.28098 .25902 1.0361 1.0361-.51805 1.94269V-1.94269C1.0361-1.0361 3.28098-.25902 4.66248 0" fill="#0074c8"/>
<path transform="matrix(1.00003,0,0,-1,72.163639,59.691)" stroke-width=".79701" stroke-linecap="butt" stroke-miterlimit="10" stroke-linejoin="miter" fill="none" stroke="#0074c8" d="M42.5202-28.3468H44.94443"/>
<path transform="matrix(1.00003,0,0,-1,117.10942,88.0378)" d="M4.66248 0C3.28098 .25902 1.0361 1.0361-.51805 1.94269V-1.94269C1.0361-1.0361 3.28098-.25902 4.66248 0" fill="#0074c8"/>
<path transform="matrix(1.00003,0,0,-1,72.163639,59.691)" stroke-width=".79701" stroke-linecap="butt" stroke-miterlimit="10" stroke-linejoin="miter" fill="none" stroke="#0074c8" d="M42.5202-14.17339H41.40108"/>
<path transform="matrix(1.00003,0,0,-1,113.56596,73.864398)" d="M4.66248 0C3.28098 .25902 1.0361 1.0361-.51805 1.94269V-1.94269C1.0361-1.0361 3.28098-.25902 4.66248 0" fill="#0074c8"/>
<path transform="matrix(1.00003,0,0,-1,72.163639,59.691)" stroke-width=".79701" stroke-linecap="butt" stroke-miterlimit="10" stroke-linejoin="miter" fill="none" stroke="#0074c8" d="M42.5202 14.17339H43.63933"/>
<path transform="matrix(-1.00003,-0,0,1,115.804279,45.517614)" d="M4.66248 0C3.28098 .25902 1.0361 1.0361-.51805 1.94269V-1.94269C1.0361-1.0361 3.28098-.25902 4.66248 0" fill="#0074c8"/>
<path transform="matrix(1.00003,0,0,-1,72.163639,59.691)" stroke-width=".79701" stroke-linecap="butt" stroke-miterlimit="10" stroke-linejoin="miter" fill="none" stroke="#0074c8" d="M42.5202 28.3468H40.09598"/>
<path transform="matrix(-1.00003,-0,0,1,112.26082,31.344202)" d="M4.66248 0C3.28098 .25902 1.0361 1.0361-.51805 1.94269V-1.94269C1.0361-1.0361 3.28098-.25902 4.66248 0" fill="#0074c8"/>
<path transform="matrix(1.00003,0,0,-1,72.163639,59.691)" stroke-width=".79701" stroke-linecap="butt" stroke-miterlimit="10" stroke-linejoin="miter" fill="none" stroke="#0074c8" d="M42.5202 42.5202H36.55261"/>
<path transform="matrix(-1.00003,-0,0,1,108.71735,17.170804)" d="M4.66248 0C3.28098 .25902 1.0361 1.0361-.51805 1.94269V-1.94269C1.0361-1.0361 3.28098-.25902 4.66248 0" fill="#0074c8"/>
<path transform="matrix(1.00003,0,0,-1,72.163639,59.691)" stroke-width=".79701" stroke-linecap="butt" stroke-miterlimit="10" stroke-linejoin="miter" fill="none" stroke="#0074c8" d="M42.5202 56.69362H33.00928"/>
<path transform="matrix(-1.00003,-0,0,1,105.173908,2.997383)" d="M4.66248 0C3.28098 .25902 1.0361 1.0361-.51805 1.94269V-1.94269C1.0361-1.0361 3.28098-.25902 4.66248 0" fill="#0074c8"/>
<path transform="matrix(1.00003,0,0,-1,72.163639,59.691)" stroke-width=".79701" stroke-linecap="butt" stroke-miterlimit="10" stroke-linejoin="miter" fill="none" stroke="#0074c8" d="M56.69362-56.69362H66.20453"/>
<path transform="matrix(1.00003,0,0,-1,138.37015,116.38462)" d="M4.66248 0C3.28098 .25902 1.0361 1.0361-.51805 1.94269V-1.94269C1.0361-1.0361 3.28098-.25902 4.66248 0" fill="#0074c8"/>
<path transform="matrix(1.00003,0,0,-1,72.163639,59.691)" stroke-width=".79701" stroke-linecap="butt" stroke-miterlimit="10" stroke-linejoin="miter" fill="none" stroke="#0074c8" d="M56.69362-42.5202H62.66118"/>
<path transform="matrix(1.00003,0,0,-1,134.82669,102.2112)" d="M4.66248 0C3.28098 .25902 1.0361 1.0361-.51805 1.94269V-1.94269C1.0361-1.0361 3.28098-.25902 4.66248 0" fill="#0074c8"/>
<path transform="matrix(1.00003,0,0,-1,72.163639,59.691)" stroke-width=".79701" stroke-linecap="butt" stroke-miterlimit="10" stroke-linejoin="miter" fill="none" stroke="#0074c8" d="M56.69362-28.3468H59.11783"/>
<path transform="matrix(1.00003,0,0,-1,131.28324,88.0378)" d="M4.66248 0C3.28098 .25902 1.0361 1.0361-.51805 1.94269V-1.94269C1.0361-1.0361 3.28098-.25902 4.66248 0" fill="#0074c8"/>
<path transform="matrix(1.00003,0,0,-1,72.163639,59.691)" stroke-width=".79701" stroke-linecap="butt" stroke-miterlimit="10" stroke-linejoin="miter" fill="none" stroke="#0074c8" d="M56.69362-14.17339H55.57448"/>
<path transform="matrix(1.00003,0,0,-1,127.739788,73.864398)" d="M4.66248 0C3.28098 .25902 1.0361 1.0361-.51805 1.94269V-1.94269C1.0361-1.0361 3.28098-.25902 4.66248 0" fill="#0074c8"/>
<path transform="matrix(1.00003,0,0,-1,72.163639,59.691)" stroke-width=".79701" stroke-linecap="butt" stroke-miterlimit="10" stroke-linejoin="miter" fill="none" stroke="#0074c8" d="M56.69362 14.17339H57.81273"/>
<path transform="matrix(-1.00003,-0,0,1,129.9781,45.517614)" d="M4.66248 0C3.28098 .25902 1.0361 1.0361-.51805 1.94269V-1.94269C1.0361-1.0361 3.28098-.25902 4.66248 0" fill="#0074c8"/>
<path transform="matrix(1.00003,0,0,-1,72.163639,59.691)" stroke-width=".79701" stroke-linecap="butt" stroke-miterlimit="10" stroke-linejoin="miter" fill="none" stroke="#0074c8" d="M56.69362 28.3468H54.26938"/>
<path transform="matrix(-1.00003,-0,0,1,126.43465,31.344202)" d="M4.66248 0C3.28098 .25902 1.0361 1.0361-.51805 1.94269V-1.94269C1.0361-1.0361 3.28098-.25902 4.66248 0" fill="#0074c8"/>
<path transform="matrix(1.00003,0,0,-1,72.163639,59.691)" stroke-width=".79701" stroke-linecap="butt" stroke-miterlimit="10" stroke-linejoin="miter" fill="none" stroke="#0074c8" d="M56.69362 42.5202H50.72603"/>
<path transform="matrix(-1.00003,-0,0,1,122.89119,17.170804)" d="M4.66248 0C3.28098 .25902 1.0361 1.0361-.51805 1.94269V-1.94269C1.0361-1.0361 3.28098-.25902 4.66248 0" fill="#0074c8"/>
<path transform="matrix(1.00003,0,0,-1,72.163639,59.691)" stroke-width=".79701" stroke-linecap="butt" stroke-miterlimit="10" stroke-linejoin="miter" fill="none" stroke="#0074c8" d="M56.69362 56.69362H47.18268"/>
<path transform="matrix(-1.00003,-0,0,1,119.34773,2.997383)" d="M4.66248 0C3.28098 .25902 1.0361 1.0361-.51805 1.94269V-1.94269C1.0361-1.0361 3.28098-.25902 4.66248 0" fill="#0074c8"/>
</svg>
