<svg xmlns="http://www.w3.org/2000/svg" xmlns:xlink="http://www.w3.org/1999/xlink" version="1.1" width="149pt" height="139pt" viewBox="0 0 149 139">
<defs>
<path id="font_1_1" d="M.7599945 .69506838C.7599945 .69807437 .7579956 .7050781 .7489929 .7050781 .74598696 .7050781 .7449951 .70407107 .73399356 .69306948L.6639862 .61602786C.6549988 .6300354 .60899356 .7050781 .49798585 .7050781 .2749939 .7050781 .049987794 .48391725 .049987794 .25172425 .049987794 .08659363 .16799927-.022460938 .32099916-.022460938 .4079895-.022460938 .48399354 .017532349 .5369873 .063583377 .6299896 .14564514 .6469879 .2367096 .6469879 .23971558 .6469879 .24972534 .6369934 .24972534 .6349945 .24972534 .6289978 .24972534 .6239929 .24772644 .621994 .23971558 .61299136 .21069336 .58999636 .13963318 .5209961 .081588748 .45199586 .025543213 .3889923 .008529663 .33699037 .008529663 .24699402 .008529663 .14099121 .060577394 .14099121 .21670532 .14099121 .27374269 .1619873 .43588258 .2619934 .55296328 .32299806 .62402346 .4169922 .67407229 .5059967 .67407229 .60798647 .67407229 .6669922 .5970001 .6669922 .48091126 .6669922 .44088746 .6639862 .43988038 .6639862 .4298706 .6639862 .41986085 .6749878 .41986085 .67900088 .41986085 .69200137 .41986085 .69200137 .42185975 .69699099 .43988038L.7599945 .69506838Z"/>
</defs>
<path transform="matrix(1.00008,0,0,-1.00006,74.529529,69.50727)" stroke-width="1.99255" stroke-linecap="butt" stroke-miterlimit="10" stroke-linejoin="miter" fill="none" stroke="#ff0000" d="M42.52022 0C42.52022 23.48355 23.48355 42.52022 0 42.52022-23.48355 42.52022-42.52022 23.48355-42.52022 0-42.52022-23.48355-23.48355-42.52022 0-42.52022 23.48355-42.52022 42.52022-23.48355 42.52022 0ZM0 0"/>
<path transform="matrix(1.00008,0,0,-1.00006,74.529529,69.50727)" stroke-width="1.99255" stroke-linecap="butt" stroke-miterlimit="10" stroke-linejoin="miter" fill="none" stroke="#ff0000" d="M2.83484 42.5202H7.89055"/>
<path transform="matrix(-1.00008,-0,0,1.00006,82.42071,26.984524)" d="M7.89055 0C5.55257 .43835 1.75345 1.75345-.87672 3.28772V-3.28772C1.75345-1.75345 5.55257-.43835 7.89055 0" fill="#ff0000"/>
<use data-text="C" xlink:href="#font_1_1" transform="matrix(9.963397,0,0,-9.963197,107.19614,38.893438)" fill="#ff0000"/>
<path transform="matrix(1.00008,0,0,-1.00006,74.529529,69.50727)" stroke-width=".79701" stroke-linecap="butt" stroke-miterlimit="10" stroke-linejoin="miter" fill="none" stroke="#0074c8" d="M-56.69362-49.6069-70.15897-34.21805"/>
<path transform="matrix(-.6585327,-.7525951,-.7526102,.65851947,4.3649599,103.72737)" d="M4.66248 0C3.28098 .25902 1.0361 1.0361-.51805 1.94269V-1.94269C1.0361-1.0361 3.28098-.25902 4.66248 0" fill="#0074c8"/>
<path transform="matrix(1.00008,0,0,-1.00006,74.529529,69.50727)" stroke-width=".79701" stroke-linecap="butt" stroke-miterlimit="10" stroke-linejoin="miter" fill="none" stroke="#0074c8" d="M-56.69362-28.3468-64.05746-13.61916"/>
<path transform="matrix(-.44720576,-.89441367,-.89443156,.4471968,10.466942,83.12724)" d="M4.66248 0C3.28098 .25902 1.0361 1.0361-.51805 1.94269V-1.94269C1.0361-1.0361 3.28098-.25902 4.66248 0" fill="#0074c8"/>
<path transform="matrix(1.00008,0,0,-1.00006,74.529529,69.50727)" stroke-width=".79701" stroke-linecap="butt" stroke-miterlimit="10" stroke-linejoin="miter" fill="none" stroke="#0074c8" d="M-56.69362-14.17339-60.28717 .20091"/>
<path transform="matrix(-.24251941,-.97019818,-.9702176,.24251455,14.237545,69.30635)" d="M4.66248 0C3.28098 .25902 1.0361 1.0361-.51805 1.94269V-1.94269C1.0361-1.0361 3.28098-.25902 4.66248 0" fill="#0074c8"/>
<path transform="matrix(1.00008,0,0,-1.00006,74.529529,69.50727)" stroke-width=".79701" stroke-linecap="butt" stroke-miterlimit="10" stroke-linejoin="miter" fill="none" stroke="#0074c8" d="M-56.69362 14.17339-53.10004 28.54773"/>
<path transform="matrix(.24251941,-.97019818,-.9702176,-.24251455,21.425229,40.957834)" d="M4.66248 0C3.28098 .25902 1.0361 1.0361-.51805 1.94269V-1.94269C1.0361-1.0361 3.28098-.25902 4.66248 0" fill="#0074c8"/>
<path transform="matrix(1.00008,0,0,-1.00006,74.529529,69.50727)" stroke-width=".79701" stroke-linecap="butt" stroke-miterlimit="10" stroke-linejoin="miter" fill="none" stroke="#0074c8" d="M-56.69362 28.3468-49.32974 43.07443"/>
<path transform="matrix(.44720576,-.89441367,-.89443156,-.4471968,25.195843,26.43026)" d="M4.66248 0C3.28098 .25902 1.0361 1.0361-.51805 1.94269V-1.94269C1.0361-1.0361 3.28098-.25902 4.66248 0" fill="#0074c8"/>
<path transform="matrix(1.00008,0,0,-1.00006,74.529529,69.50727)" stroke-width=".79701" stroke-linecap="butt" stroke-miterlimit="10" stroke-linejoin="miter" fill="none" stroke="#0074c8" d="M-56.69362 49.6069-43.22824 64.99574"/>
<path transform="matrix(.6585327,-.7525951,-.7526102,-.65851947,31.29781,4.5076296)" d="M4.66248 0C3.28098 .25902 1.0361 1.0361-.51805 1.94269V-1.94269C1.0361-1.0361 3.28098-.25902 4.66248 0" fill="#0074c8"/>
<path transform="matrix(1.00008,0,0,-1.00006,74.529529,69.50727)" stroke-width=".79701" stroke-linecap="butt" stroke-miterlimit="10" stroke-linejoin="miter" fill="none" stroke="#0074c8" d="M-42.5202-49.6069-55.51587-38.46762"/>
<path transform="matrix(-.75928077,-.65079906,-.65081205,.75926557,19.009217,107.9772)" d="M4.66248 0C3.28098 .25902 1.0361 1.0361-.51805 1.94269V-1.94269C1.0361-1.0361 3.28098-.25902 4.66248 0" fill="#0074c8"/>
<path transform="matrix(1.00008,0,0,-1.00006,74.529529,69.50727)" stroke-width=".79701" stroke-linecap="butt" stroke-miterlimit="10" stroke-linejoin="miter" fill="none" stroke="#0074c8" d="M-42.5202-28.3468-49.38292-18.05263"/>
<path transform="matrix(-.55470439,-.8320699,-.83208659,.5546933,25.142678,87.561)" d="M4.66248 0C3.28098 .25902 1.0361 1.0361-.51805 1.94269V-1.94269C1.0361-1.0361 3.28098-.25902 4.66248 0" fill="#0074c8"/>
<path transform="matrix(1.00008,0,0,-1.00006,74.529529,69.50727)" stroke-width=".79701" stroke-linecap="butt" stroke-miterlimit="10" stroke-linejoin="miter" fill="none" stroke="#0074c8" d="M-42.5202-14.17339-45.77016-4.42299"/>
<path transform="matrix(-.3162253,-.94869688,-.94871589,.31621895,28.755722,73.930538)" d="M4.66248 0C3.28098 .25902 1.0361 1.0361-.51805 1.94269V-1.94269C1.0361-1.0361 3.28098-.25902 4.66248 0" fill="#0074c8"/>
<path transform="matrix(1.00008,0,0,-1.00006,74.529529,69.50727)" stroke-width=".79701" stroke-linecap="butt" stroke-miterlimit="10" stroke-linejoin="miter" fill="none" stroke="#0074c8" d="M-42.5202 14.17339-39.27025 23.9238"/>
<path transform="matrix(.3162253,-.94869688,-.94871589,-.31621895,35.256128,45.582056)" d="M4.66248 0C3.28098 .25902 1.0361 1.0361-.51805 1.94269V-1.94269C1.0361-1.0361 3.28098-.25902 4.66248 0" fill="#0074c8"/>
<path transform="matrix(1.00008,0,0,-1.00006,74.529529,69.50727)" stroke-width=".79701" stroke-linecap="butt" stroke-miterlimit="10" stroke-linejoin="miter" fill="none" stroke="#0074c8" d="M-42.5202 28.3468-35.65749 38.64096"/>
<path transform="matrix(.55470439,-.8320699,-.83208659,-.5546933,38.86917,30.864006)" d="M4.66248 0C3.28098 .25902 1.0361 1.0361-.51805 1.94269V-1.94269C1.0361-1.0361 3.28098-.25902 4.66248 0" fill="#0074c8"/>
<path transform="matrix(1.00008,0,0,-1.00006,74.529529,69.50727)" stroke-width=".79701" stroke-linecap="butt" stroke-miterlimit="10" stroke-linejoin="miter" fill="none" stroke="#0074c8" d="M-42.5202 49.6069-29.52454 60.74617"/>
<path transform="matrix(.75928077,-.65079906,-.65081205,-.75926557,45.002626,8.757458)" d="M4.66248 0C3.28098 .25902 1.0361 1.0361-.51805 1.94269V-1.94269C1.0361-1.0361 3.28098-.25902 4.66248 0" fill="#0074c8"/>
<path transform="matrix(1.00008,0,0,-1.00006,74.529529,69.50727)" stroke-width=".79701" stroke-linecap="butt" stroke-miterlimit="10" stroke-linejoin="miter" fill="none" stroke="#0074c8" d="M-28.3468-49.6069-40.83435-42.4712"/>
<path transform="matrix(-.86826947,-.49613974,-.4961497,.86825206,33.69191,111.98103)" d="M4.66248 0C3.28098 .25902 1.0361 1.0361-.51805 1.94269V-1.94269C1.0361-1.0361 3.28098-.25902 4.66248 0" fill="#0074c8"/>
<path transform="matrix(1.00008,0,0,-1.00006,74.529529,69.50727)" stroke-width=".79701" stroke-linecap="butt" stroke-miterlimit="10" stroke-linejoin="miter" fill="none" stroke="#0074c8" d="M-28.3468-28.3468-34.49872-22.19487"/>
<path transform="matrix(-.70715656,-.70714238,-.70715656,.70714238,40.02807,91.70349)" d="M4.66248 0C3.28098 .25902 1.0361 1.0361-.51805 1.94269V-1.94269C1.0361-1.0361 3.28098-.25902 4.66248 0" fill="#0074c8"/>
<path transform="matrix(1.00008,0,0,-1.00006,74.529529,69.50727)" stroke-width=".79701" stroke-linecap="butt" stroke-miterlimit="10" stroke-linejoin="miter" fill="none" stroke="#0074c8" d="M-28.3468-14.17339-30.98604-8.8946"/>
<path transform="matrix(-.44720576,-.8944336,-.8944515,.4471968,43.541009,78.40242)" d="M4.66248 0C3.28098 .25902 1.0361 1.0361-.51805 1.94269V-1.94269C1.0361-1.0361 3.28098-.25902 4.66248 0" fill="#0074c8"/>
<path transform="matrix(1.00008,0,0,-1.00006,74.529529,69.50727)" stroke-width=".79701" stroke-linecap="butt" stroke-miterlimit="10" stroke-linejoin="miter" fill="none" stroke="#0074c8" d="M-28.3468 14.17339-25.70755 19.45216"/>
<path transform="matrix(.44720576,-.8944336,-.8944515,-.4471968,48.81992,50.053956)" d="M4.66248 0C3.28098 .25902 1.0361 1.0361-.51805 1.94269V-1.94269C1.0361-1.0361 3.28098-.25902 4.66248 0" fill="#0074c8"/>
<path transform="matrix(1.00008,0,0,-1.00006,74.529529,69.50727)" stroke-width=".79701" stroke-linecap="butt" stroke-miterlimit="10" stroke-linejoin="miter" fill="none" stroke="#0074c8" d="M-28.3468 28.3468-22.19487 34.49872"/>
<path transform="matrix(.70715656,-.70714238,-.70715656,-.70714238,52.332864,35.006505)" d="M4.66248 0C3.28098 .25902 1.0361 1.0361-.51805 1.94269V-1.94269C1.0361-1.0361 3.28098-.25902 4.66248 0" fill="#0074c8"/>
<path transform="matrix(1.00008,0,0,-1.00006,74.529529,69.50727)" stroke-width=".79701" stroke-linecap="butt" stroke-miterlimit="10" stroke-linejoin="miter" fill="none" stroke="#0074c8" d="M-28.3468 49.6069-15.85924 56.74261"/>
<path transform="matrix(.86826947,-.49613974,-.4961497,-.86825206,58.669019,12.761269)" d="M4.66248 0C3.28098 .25902 1.0361 1.0361-.51805 1.94269V-1.94269C1.0361-1.0361 3.28098-.25902 4.66248 0" fill="#0074c8"/>
<path transform="matrix(1.00008,0,0,-1.00006,74.529529,69.50727)" stroke-width=".79701" stroke-linecap="butt" stroke-miterlimit="10" stroke-linejoin="miter" fill="none" stroke="#0074c8" d="M-14.17339-49.6069-26.2259-46.16345"/>
<path transform="matrix(-.9615769,-.27470649,-.27471198,.9615576,48.30153,115.67351)" d="M4.66248 0C3.28098 .25902 1.0361 1.0361-.51805 1.94269V-1.94269C1.0361-1.0361 3.28098-.25902 4.66248 0" fill="#0074c8"/>
<path transform="matrix(1.00008,0,0,-1.00006,74.529529,69.50727)" stroke-width=".79701" stroke-linecap="butt" stroke-miterlimit="10" stroke-linejoin="miter" fill="none" stroke="#0074c8" d="M-14.17339-28.3468-19.45216-25.70755"/>
<path transform="matrix(-.8944515,-.4471968,-.44720576,.8944336,55.07582,95.21636)" d="M4.66248 0C3.28098 .25902 1.0361 1.0361-.51805 1.94269V-1.94269C1.0361-1.0361 3.28098-.25902 4.66248 0" fill="#0074c8"/>
<path transform="matrix(1.00008,0,0,-1.00006,74.529529,69.50727)" stroke-width=".79701" stroke-linecap="butt" stroke-miterlimit="10" stroke-linejoin="miter" fill="none" stroke="#0074c8" d="M-14.17339-14.17339-15.60071-12.74608"/>
<path transform="matrix(-.70715656,-.70714238,-.70715656,.70714238,58.927579,82.254138)" d="M4.66248 0C3.28098 .25902 1.0361 1.0361-.51805 1.94269V-1.94269C1.0361-1.0361 3.28098-.25902 4.66248 0" fill="#0074c8"/>
<path transform="matrix(1.00008,0,0,-1.00006,74.529529,69.50727)" stroke-width=".79701" stroke-linecap="butt" stroke-miterlimit="10" stroke-linejoin="miter" fill="none" stroke="#0074c8" d="M-14.17339 14.17339-12.74608 15.60071"/>
<path transform="matrix(.70715656,-.70714238,-.70715656,-.70714238,61.782407,53.905637)" d="M4.66248 0C3.28098 .25902 1.0361 1.0361-.51805 1.94269V-1.94269C1.0361-1.0361 3.28098-.25902 4.66248 0" fill="#0074c8"/>
<path transform="matrix(1.00008,0,0,-1.00006,74.529529,69.50727)" stroke-width=".79701" stroke-linecap="butt" stroke-miterlimit="10" stroke-linejoin="miter" fill="none" stroke="#0074c8" d="M-14.17339 28.3468-8.8946 30.98604"/>
<path transform="matrix(.8944515,-.4471968,-.44720576,-.8944336,65.63419,38.51937)" d="M4.66248 0C3.28098 .25902 1.0361 1.0361-.51805 1.94269V-1.94269C1.0361-1.0361 3.28098-.25902 4.66248 0" fill="#0074c8"/>
<path transform="matrix(1.00008,0,0,-1.00006,74.529529,69.50727)" stroke-width=".79701" stroke-linecap="butt" stroke-miterlimit="10" stroke-linejoin="miter" fill="none" stroke="#0074c8" d="M-14.17339 49.6069-2.12088 53.05037"/>
<path transform="matrix(.9615769,-.27470649,-.27471198,-.9615576,72.40848,16.45374)" d="M4.66248 0C3.28098 .25902 1.0361 1.0361-.51805 1.94269V-1.94269C1.0361-1.0361 3.28098-.25902 4.66248 0" fill="#0074c8"/>
<path transform="matrix(1.00008,0,0,-1.00006,74.529529,69.50727)" stroke-width=".79701" stroke-linecap="butt" stroke-miterlimit="10" stroke-linejoin="miter" fill="none" stroke="#0074c8" d="M14.17339-49.6069 2.12088-53.05037"/>
<path transform="matrix(-.9615769,.27470649,.27471198,.9615576,76.65057,122.56081)" d="M4.66248 0C3.28098 .25902 1.0361 1.0361-.51805 1.94269V-1.94269C1.0361-1.0361 3.28098-.25902 4.66248 0" fill="#0074c8"/>
<path transform="matrix(1.00008,0,0,-1.00006,74.529529,69.50727)" stroke-width=".79701" stroke-linecap="butt" stroke-miterlimit="10" stroke-linejoin="miter" fill="none" stroke="#0074c8" d="M14.17339-28.3468 8.8946-30.98604"/>
<path transform="matrix(-.8944515,.4471968,.44720576,.8944336,83.42486,100.49517)" d="M4.66248 0C3.28098 .25902 1.0361 1.0361-.51805 1.94269V-1.94269C1.0361-1.0361 3.28098-.25902 4.66248 0" fill="#0074c8"/>
<path transform="matrix(1.00008,0,0,-1.00006,74.529529,69.50727)" stroke-width=".79701" stroke-linecap="butt" stroke-miterlimit="10" stroke-linejoin="miter" fill="none" stroke="#0074c8" d="M14.17339-14.17339 12.74608-15.60071"/>
<path transform="matrix(-.70715656,.70714238,.70715656,.70714238,87.27664,85.10891)" d="M4.66248 0C3.28098 .25902 1.0361 1.0361-.51805 1.94269V-1.94269C1.0361-1.0361 3.28098-.25902 4.66248 0" fill="#0074c8"/>
<path transform="matrix(1.00008,0,0,-1.00006,74.529529,69.50727)" stroke-width=".79701" stroke-linecap="butt" stroke-miterlimit="10" stroke-linejoin="miter" fill="none" stroke="#0074c8" d="M14.17339 14.17339 15.60071 12.74608"/>
<path transform="matrix(.70715656,.70714238,.70715656,-.70714238,90.13148,56.760408)" d="M4.66248 0C3.28098 .25902 1.0361 1.0361-.51805 1.94269V-1.94269C1.0361-1.0361 3.28098-.25902 4.66248 0" fill="#0074c8"/>
<path transform="matrix(1.00008,0,0,-1.00006,74.529529,69.50727)" stroke-width=".79701" stroke-linecap="butt" stroke-miterlimit="10" stroke-linejoin="miter" fill="none" stroke="#0074c8" d="M14.17339 28.3468 19.45216 25.70755"/>
<path transform="matrix(.8944515,.4471968,.44720576,-.8944336,93.98323,43.79818)" d="M4.66248 0C3.28098 .25902 1.0361 1.0361-.51805 1.94269V-1.94269C1.0361-1.0361 3.28098-.25902 4.66248 0" fill="#0074c8"/>
<path transform="matrix(1.00008,0,0,-1.00006,74.529529,69.50727)" stroke-width=".79701" stroke-linecap="butt" stroke-miterlimit="10" stroke-linejoin="miter" fill="none" stroke="#0074c8" d="M14.17339 49.6069 26.2259 46.16345"/>
<path transform="matrix(.9615769,.27470649,.27471198,-.9615576,100.75752,23.34103)" d="M4.66248 0C3.28098 .25902 1.0361 1.0361-.51805 1.94269V-1.94269C1.0361-1.0361 3.28098-.25902 4.66248 0" fill="#0074c8"/>
<path transform="matrix(1.00008,0,0,-1.00006,74.529529,69.50727)" stroke-width=".79701" stroke-linecap="butt" stroke-miterlimit="10" stroke-linejoin="miter" fill="none" stroke="#0074c8" d="M28.3468-49.6069 15.85924-56.74261"/>
<path transform="matrix(-.86826947,.49613974,.4961497,.86825206,90.39003,126.25327)" d="M4.66248 0C3.28098 .25902 1.0361 1.0361-.51805 1.94269V-1.94269C1.0361-1.0361 3.28098-.25902 4.66248 0" fill="#0074c8"/>
<path transform="matrix(1.00008,0,0,-1.00006,74.529529,69.50727)" stroke-width=".79701" stroke-linecap="butt" stroke-miterlimit="10" stroke-linejoin="miter" fill="none" stroke="#0074c8" d="M28.3468-28.3468 22.19487-34.49872"/>
<path transform="matrix(-.70715656,.70714238,.70715656,.70714238,96.72619,104.00804)" d="M4.66248 0C3.28098 .25902 1.0361 1.0361-.51805 1.94269V-1.94269C1.0361-1.0361 3.28098-.25902 4.66248 0" fill="#0074c8"/>
<path transform="matrix(1.00008,0,0,-1.00006,74.529529,69.50727)" stroke-width=".79701" stroke-linecap="butt" stroke-miterlimit="10" stroke-linejoin="miter" fill="none" stroke="#0074c8" d="M28.3468-14.17339 25.70755-19.45216"/>
<path transform="matrix(-.44720576,.8944336,.8944515,.4471968,100.239139,88.96059)" d="M4.66248 0C3.28098 .25902 1.0361 1.0361-.51805 1.94269V-1.94269C1.0361-1.0361 3.28098-.25902 4.66248 0" fill="#0074c8"/>
<path transform="matrix(1.00008,0,0,-1.00006,74.529529,69.50727)" stroke-width=".79701" stroke-linecap="butt" stroke-miterlimit="10" stroke-linejoin="miter" fill="none" stroke="#0074c8" d="M28.3468 14.17339 30.98604 8.8946"/>
<path transform="matrix(.44720576,.8944336,.8944515,-.4471968,105.51804,60.612119)" d="M4.66248 0C3.28098 .25902 1.0361 1.0361-.51805 1.94269V-1.94269C1.0361-1.0361 3.28098-.25902 4.66248 0" fill="#0074c8"/>
<path transform="matrix(1.00008,0,0,-1.00006,74.529529,69.50727)" stroke-width=".79701" stroke-linecap="butt" stroke-miterlimit="10" stroke-linejoin="miter" fill="none" stroke="#0074c8" d="M28.3468 28.3468 34.49872 22.19487"/>
<path transform="matrix(.70715656,.70714238,.70715656,-.70714238,109.03098,47.31105)" d="M4.66248 0C3.28098 .25902 1.0361 1.0361-.51805 1.94269V-1.94269C1.0361-1.0361 3.28098-.25902 4.66248 0" fill="#0074c8"/>
<path transform="matrix(1.00008,0,0,-1.00006,74.529529,69.50727)" stroke-width=".79701" stroke-linecap="butt" stroke-miterlimit="10" stroke-linejoin="miter" fill="none" stroke="#0074c8" d="M28.3468 49.6069 40.83435 42.4712"/>
<path transform="matrix(.86826947,.49613974,.4961497,-.86825206,115.36714,27.033505)" d="M4.66248 0C3.28098 .25902 1.0361 1.0361-.51805 1.94269V-1.94269C1.0361-1.0361 3.28098-.25902 4.66248 0" fill="#0074c8"/>
<path transform="matrix(1.00008,0,0,-1.00006,74.529529,69.50727)" stroke-width=".79701" stroke-linecap="butt" stroke-miterlimit="10" stroke-linejoin="miter" fill="none" stroke="#0074c8" d="M42.5202-49.6069 29.52454-60.74617"/>
<path transform="matrix(-.75928077,.65079906,.65081205,.75926557,104.05643,130.25708)" d="M4.66248 0C3.28098 .25902 1.0361 1.0361-.51805 1.94269V-1.94269C1.0361-1.0361 3.28098-.25902 4.66248 0" fill="#0074c8"/>
<path transform="matrix(1.00008,0,0,-1.00006,74.529529,69.50727)" stroke-width=".79701" stroke-linecap="butt" stroke-miterlimit="10" stroke-linejoin="miter" fill="none" stroke="#0074c8" d="M42.5202-28.3468 35.65749-38.64096"/>
<path transform="matrix(-.55470439,.8320699,.83208659,.5546933,110.18988,108.150539)" d="M4.66248 0C3.28098 .25902 1.0361 1.0361-.51805 1.94269V-1.94269C1.0361-1.0361 3.28098-.25902 4.66248 0" fill="#0074c8"/>
<path transform="matrix(1.00008,0,0,-1.00006,74.529529,69.50727)" stroke-width=".79701" stroke-linecap="butt" stroke-miterlimit="10" stroke-linejoin="miter" fill="none" stroke="#0074c8" d="M42.5202-14.17339 39.27025-23.9238"/>
<path transform="matrix(-.3162253,.94869688,.94871589,.31621895,113.802928,93.43249)" d="M4.66248 0C3.28098 .25902 1.0361 1.0361-.51805 1.94269V-1.94269C1.0361-1.0361 3.28098-.25902 4.66248 0" fill="#0074c8"/>
<path transform="matrix(1.00008,0,0,-1.00006,74.529529,69.50727)" stroke-width=".79701" stroke-linecap="butt" stroke-miterlimit="10" stroke-linejoin="miter" fill="none" stroke="#0074c8" d="M42.5202 14.17339 45.77016 4.42299"/>
<path transform="matrix(.3162253,.94869688,.94871589,-.31621895,120.30333,65.08401)" d="M4.66248 0C3.28098 .25902 1.0361 1.0361-.51805 1.94269V-1.94269C1.0361-1.0361 3.28098-.25902 4.66248 0" fill="#0074c8"/>
<path transform="matrix(1.00008,0,0,-1.00006,74.529529,69.50727)" stroke-width=".79701" stroke-linecap="butt" stroke-miterlimit="10" stroke-linejoin="miter" fill="none" stroke="#0074c8" d="M42.5202 28.3468 49.38292 18.05263"/>
<path transform="matrix(.55470439,.8320699,.83208659,-.5546933,123.916378,51.453546)" d="M4.66248 0C3.28098 .25902 1.0361 1.0361-.51805 1.94269V-1.94269C1.0361-1.0361 3.28098-.25902 4.66248 0" fill="#0074c8"/>
<path transform="matrix(1.00008,0,0,-1.00006,74.529529,69.50727)" stroke-width=".79701" stroke-linecap="butt" stroke-miterlimit="10" stroke-linejoin="miter" fill="none" stroke="#0074c8" d="M42.5202 49.6069 55.51587 38.46762"/>
<path transform="matrix(.75928077,.65079906,.65081205,-.75926557,130.04984,31.037343)" d="M4.66248 0C3.28098 .25902 1.0361 1.0361-.51805 1.94269V-1.94269C1.0361-1.0361 3.28098-.25902 4.66248 0" fill="#0074c8"/>
<path transform="matrix(1.00008,0,0,-1.00006,74.529529,69.50727)" stroke-width=".79701" stroke-linecap="butt" stroke-miterlimit="10" stroke-linejoin="miter" fill="none" stroke="#0074c8" d="M56.69362-49.6069 43.22824-64.99574"/>
<path transform="matrix(-.6585327,.7525951,.7526102,.65851947,117.761249,134.50691)" d="M4.66248 0C3.28098 .25902 1.0361 1.0361-.51805 1.94269V-1.94269C1.0361-1.0361 3.28098-.25902 4.66248 0" fill="#0074c8"/>
<path transform="matrix(1.00008,0,0,-1.00006,74.529529,69.50727)" stroke-width=".79701" stroke-linecap="butt" stroke-miterlimit="10" stroke-linejoin="miter" fill="none" stroke="#0074c8" d="M56.69362-28.3468 49.32974-43.07443"/>
<path transform="matrix(-.44720576,.89441367,.89443156,.4471968,123.863208,112.58428)" d="M4.66248 0C3.28098 .25902 1.0361 1.0361-.51805 1.94269V-1.94269C1.0361-1.0361 3.28098-.25902 4.66248 0" fill="#0074c8"/>
<path transform="matrix(1.00008,0,0,-1.00006,74.529529,69.50727)" stroke-width=".79701" stroke-linecap="butt" stroke-miterlimit="10" stroke-linejoin="miter" fill="none" stroke="#0074c8" d="M56.69362-14.17339 53.10004-28.54773"/>
<path transform="matrix(-.24251941,.97019818,.9702176,.24251455,127.63382,98.05671)" d="M4.66248 0C3.28098 .25902 1.0361 1.0361-.51805 1.94269V-1.94269C1.0361-1.0361 3.28098-.25902 4.66248 0" fill="#0074c8"/>
<path transform="matrix(1.00008,0,0,-1.00006,74.529529,69.50727)" stroke-width=".79701" stroke-linecap="butt" stroke-miterlimit="10" stroke-linejoin="miter" fill="none" stroke="#0074c8" d="M56.69362 14.17339 60.28717-.20091"/>
<path transform="matrix(.24251941,.97019818,.9702176,-.24251455,134.8215,69.70819)" d="M4.66248 0C3.28098 .25902 1.0361 1.0361-.51805 1.94269V-1.94269C1.0361-1.0361 3.28098-.25902 4.66248 0" fill="#0074c8"/>
<path transform="matrix(1.00008,0,0,-1.00006,74.529529,69.50727)" stroke-width=".79701" stroke-linecap="butt" stroke-miterlimit="10" stroke-linejoin="miter" fill="none" stroke="#0074c8" d="M56.69362 28.3468 64.05746 13.61916"/>
<path transform="matrix(.44720576,.89441367,.89443156,-.4471968,138.5921,55.887296)" d="M4.66248 0C3.28098 .25902 1.0361 1.0361-.51805 1.94269V-1.94269C1.0361-1.0361 3.28098-.25902 4.66248 0" fill="#0074c8"/>
<path transform="matrix(1.00008,0,0,-1.00006,74.529529,69.50727)" stroke-width=".79701" stroke-linecap="butt" stroke-miterlimit="10" stroke-linejoin="miter" fill="none" stroke="#0074c8" d="M56.69362 49.6069 70.15897 34.21805"/>
<path transform="matrix(.6585327,.7525951,.7526102,-.65851947,144.69409,35.28717)" d="M4.66248 0C3.28098 .25902 1.0361 1.0361-.51805 1.94269V-1.94269C1.0361-1.0361 3.28098-.25902 4.66248 0" fill="#0074c8"/>
</svg>
