<svg xmlns="http://www.w3.org/2000/svg" xmlns:xlink="http://www.w3.org/1999/xlink" version="1.1" width="95pt" height="106pt" viewBox="0 0 95 106">
<defs>
<path id="font_1_1" d="M.5159912 .68333438C.5159912 .6843262 .5159912 .69433596 .5029907 .69433596 .48799134 .69433596 .3929901 .68533328 .37599183 .68333438 .36799623 .6823273 .3619995 .6773224 .3619995 .6643219 .3619995 .6523285 .37098695 .6523285 .38598634 .6523285 .43399049 .6523285 .43598939 .6453247 .43598939 .6353302L.43299867 .6153412 .37298585 .37835694C.35499574 .41537477 .32598878 .4423828 .2809906 .4423828 .1639862 .4423828 .039993287 .29533387 .039993287 .14929199 .039993287 .055267335 .09498596-.0107421879 .17298889-.0107421879 .19299317-.0107421879 .24299622-.0067443849 .30299378 .06427002 .31098939 .022247315 .34599305-.0107421879 .3939972-.0107421879 .42900086-.0107421879 .45199586 .012252808 .46798707 .044265748 .4850006 .08027649 .49798585 .14129639 .49798585 .14329529 .49798585 .1532898 .4889984 .1532898 .48599244 .1532898 .47599793 .1532898 .47499085 .14929199 .47200013 .13528443 .45498658 .07026672 .43699647 .011245728 .3959961 .011245728 .36898805 .011245728 .3659973 .037261964 .3659973 .057266237 .3659973 .08126831 .36799623 .088272098 .37199403 .105285648L.5159912 .68333438M.30799867 .119277957C.30299378 .10127258 .30299378 .09927368 .28799439 .08227539 .24398804 .027252198 .20298767 .011245728 .1749878 .011245728 .125 .011245728 .11099243 .06626892 .11099243 .105285648 .11099243 .1552887 .14299011 .27833558 .1659851 .32434083 .19699097 .38336183 .24198914 .42037965 .28199769 .42037965 .34700013 .42037965 .36099244 .3383484 .36099244 .33235169 .36099244 .32633973 .35899354 .32034303 .35798646 .31533814L.30799867 .119277957Z"/>
<path id="font_1_3" d="M.46798707 .37236024C.46798707 .42637635 .44198609 .4423828 .42399598 .4423828 .39898683 .4423828 .375 .41636659 .375 .3943634 .375 .38136292 .37998963 .3753662 .3909912 .36434938 .4119873 .3443451 .4249878 .31834413 .4249878 .28233338 .4249878 .24032593 .3639984 .011245728 .24699402 .011245728 .19599915 .011245728 .17298889 .04626465 .17298889 .09828186 .17298889 .15429688 .19999695 .22731018 .23098755 .31033326 .23799134 .3273468 .24299622 .34135438 .24299622 .36035157 .24299622 .405365 .21099854 .4423828 .16099549 .4423828 .066986087 .4423828 .0289917 .29733277 .0289917 .28833009 .0289917 .27833558 .038986207 .27833558 .040985109 .27833558 .050994874 .27833558 .051986696 .28033448 .056991579 .29634095 .085998538 .39736939 .1289978 .42037965 .1579895 .42037965 .1659851 .42037965 .18299866 .42037965 .18299866 .3883667 .18299866 .36335755 .17298889 .3363495 .1659851 .31834413 .12199402 .20230103 .10899353 .15629578 .10899353 .11328125 .10899353 .0052490236 .19699097-.0107421879 .24299622-.0107421879 .41099549-.0107421879 .46798707 .32034303 .46798707 .37236024Z"/>
<path id="font_1_4" d="M.33399964 .30233766C.33999635 .32835389 .36299134 .42037965 .43299867 .42037965 .43798829 .42037965 .46199037 .42037965 .48298646 .40734864 .45498658 .402359 .43499757 .37734986 .43499757 .35334779 .43499757 .33735658 .44599916 .31835938 .47299195 .31835938 .49499513 .31835938 .5269928 .3363495 .5269928 .37635804 .5269928 .42837525 .46798707 .4423828 .43399049 .4423828 .37599183 .4423828 .34098817 .38935853 .32899476 .36634828 .3039856 .43237306 .25 .4423828 .22099304 .4423828 .116989139 .4423828 .05999756 .3133545 .05999756 .28834535 .05999756 .27833558 .069992069 .27833558 .07199097 .27833558 .07998657 .27833558 .08299255 .28033448 .084991458 .28933717 .11898804 .39535523 .18499756 .42037965 .21899414 .42037965 .23799134 .42037965 .272995 .4113617 .272995 .35334779 .272995 .32235719 .2559967 .25532533 .21899414 .11528015 .20298767 .053268434 .16799927 .011245728 .12399292 .011245728 .117996219 .011245728 .09498596 .011245728 .07398987 .024276734 .09899902 .029266358 .12098694 .05027771 .12098694 .07827759 .12098694 .105270389 .09899902 .11328125 .083999637 .11328125 .053985597 .11328125 .0289917 .08728027 .0289917 .055267335 .0289917 .009246826 .07899475-.0107421879 .12298584-.0107421879 .18899536-.0107421879 .22499085 .059280397 .22799683 .0652771 .23999024 .028274537 .27598573-.0107421879 .33599855-.0107421879 .43899537-.0107421879 .49598695 .118270877 .49598695 .14328003 .49598695 .1532898 .4869995 .1532898 .48399354 .1532898 .47499085 .1532898 .47299195 .14929199 .47099305 .14228821 .43798829 .03527832 .36999513 .011245728 .33799745 .011245728 .29899598 .011245728 .2829895 .043273927 .2829895 .07727051 .2829895 .09927368 .2889862 .121276859 .2999878 .16529846L.33399964 .30233766Z"/>
<path id="font_1_2" d="M.34999085 .056259157C.36099244 .015258789 .3959961-.0107421879 .43899537-.0107421879 .47399903-.0107421879 .49699403 .012252808 .5130005 .044265748 .5299988 .08027649 .54299929 .14129639 .54299929 .14329529 .54299929 .1532898 .5339966 .1532898 .5309906 .1532898 .5209961 .1532898 .519989 .14929199 .5169983 .13528443 .5029907 .07926941 .48399354 .011245728 .44198609 .011245728 .42099 .011245728 .41099549 .024261475 .41099549 .057266237 .41099549 .07926941 .4229889 .12628174 .43099977 .16130066L.45899964 .2693329C.46199037 .28433229 .47200013 .32234193 .47599793 .3373413 .48098756 .36035157 .4909973 .3983612 .4909973 .40437318 .4909973 .42237855 .47698976 .43138124 .46199037 .43138124 .45700074 .43138124 .43099977 .43037416 .4229889 .3963623 .4039917 .323349 .3600006 .14828491 .34799195 .09527588 .34700013 .091278079 .30699159 .011245728 .23399353 .011245728 .18199158 .011245728 .17199707 .056259157 .17199707 .09327698 .17199707 .14929199 .19999695 .22831726 .22599793 .29733277 .23799134 .3273468 .24299622 .34135438 .24299622 .36035157 .24299622 .405365 .21099854 .4423828 .16099549 .4423828 .06599426 .4423828 .0289917 .29733277 .0289917 .28833009 .0289917 .27833558 .038986207 .27833558 .040985109 .27833558 .050994874 .27833558 .051986696 .28033448 .056991579 .29634095 .08198547 .38336183 .11999512 .42037965 .1579895 .42037965 .16699219 .42037965 .18299866 .41937257 .18299866 .38735963 .18299866 .36335755 .17199707 .3343506 .1659851 .31933595 .1289978 .2203064 .10798645 .15829468 .10798645 .10928345 .10798645 .014251709 .1769867-.0107421879 .23098755-.0107421879 .29699708-.0107421879 .33299256 .03425598 .34999085 .056259157Z"/>
<path id="font_1_5" d="M.48599244 .38136292C.48999024 .39537049 .48999024 .39736939 .48999024 .40437318 .48999024 .42237855 .47599793 .43138124 .46099855 .43138124 .45098878 .43138124 .43499757 .42536927 .42599488 .41036988 .42399598 .405365 .41600038 .37435914 .4119873 .35635377 .40499879 .33035279 .397995 .30334474 .3919983 .27633668L.34700013 .09628296C.34298707 .08126831 .2999878 .011245728 .23399353 .011245728 .18299866 .011245728 .17199707 .055267335 .17199707 .0922699 .17199707 .1382904 .18899536 .20030213 .22299195 .28833009 .23899842 .3293457 .24299622 .3403473 .24299622 .36035157 .24299622 .405365 .21099854 .4423828 .16099549 .4423828 .06599426 .4423828 .0289917 .29733277 .0289917 .28833009 .0289917 .27833558 .038986207 .27833558 .040985109 .27833558 .050994874 .27833558 .051986696 .28033448 .056991579 .29634095 .083999637 .3903656 .12399292 .42037965 .1579895 .42037965 .1659851 .42037965 .18299866 .42037965 .18299866 .3883667 .18299866 .36335755 .17298889 .3373413 .1659851 .31834413 .12599182 .21231079 .10798645 .1552887 .10798645 .10827637 .10798645 .019256592 .17098999-.0107421879 .22999573-.0107421879 .2689972-.0107421879 .30299378 .0062561037 .33099366 .03425598 .31799317-.017745972 .30599977-.06674194 .2659912-.11973572 .23999024-.15385437 .20199585-.18309021 .1559906-.18309021 .14199829-.18309021 .09700012-.18005371 .07998657-.14074707 .09599304-.14074707 .10899353-.14074707 .12298584-.1287384 .1329956-.11973572 .14299011-.10673523 .14299011-.08773804 .14299011-.056747438 .115997318-.052734376 .10598755-.052734376 .08299255-.052734376 .049987794-.068740848 .049987794-.11773682 .049987794-.16796875 .09399414-.20507813 .1559906-.20507813 .25898744-.20507813 .3619995-.11373901 .3899994-.00074768069L.48599244 .38136292Z"/>
</defs>
<path transform="matrix(1.00005,0,0,-1.00006,13.634781,90.95274)" stroke-width="1.99255" stroke-linecap="butt" stroke-miterlimit="10" stroke-linejoin="miter" fill="none" stroke="#000000" d="M0 0H56.69362V56.69362H0V0"/>
<path transform="matrix(1.00005,0,0,-1.00006,13.634781,90.95274)" stroke-width="1.99255" stroke-linecap="butt" stroke-dasharray="2.98883,2.98883" stroke-miterlimit="10" stroke-linejoin="miter" fill="none" stroke="#0074c8" d="M-11.74165 28.3468 28.34682-11.74167 68.4353 28.3468 28.34682 68.43529-11.74165 28.3468"/>
<path transform="matrix(1.00005,0,0,-1.00006,13.634781,90.95274)" stroke-width=".99628" stroke-linecap="butt" stroke-dasharray=".99628,1.99255" stroke-miterlimit="10" stroke-linejoin="miter" fill="none" stroke="#000000" d="M-7.08669 28.3468H63.7803"/>
<use data-text="d" xlink:href="#font_1_1" transform="matrix(9.963098,0,0,-9.963197,82.68723,59.27684)"/>
<use data-text="v" xlink:href="#font_1_3" transform="matrix(9.963098,0,0,-9.963197,87.86804,59.27684)"/>
<path transform="matrix(1.00005,0,0,-1.00006,-14.401619,-12.942492)" stroke-width=".3985" stroke-linecap="butt" stroke-miterlimit="10" stroke-linejoin="miter" fill="none" stroke="#000000" d="M96.83-76.464H107.709"/>
<use data-text="d" xlink:href="#font_1_1" transform="matrix(9.963098,0,0,-9.963197,82.43322,72.850658)"/>
<use data-text="x" xlink:href="#font_1_4" transform="matrix(9.963098,0,0,-9.963197,87.61403,72.850658)"/>
<path transform="matrix(1.00005,0,0,-1.00006,13.634781,90.95274)" stroke-width=".99628" stroke-linecap="butt" stroke-dasharray=".99628,1.99255" stroke-miterlimit="10" stroke-linejoin="miter" fill="none" stroke="#000000" d="M28.3468-7.08669V63.7803"/>
<use data-text="d" xlink:href="#font_1_1" transform="matrix(9.963098,0,0,-9.963197,36.538927,7.8387529)"/>
<use data-text="u" xlink:href="#font_1_2" transform="matrix(9.963098,0,0,-9.963197,41.719736,7.8387529)"/>
<path transform="matrix(1.00005,0,0,-1.00006,-60.295915,-64.38058)" stroke-width=".3985" stroke-linecap="butt" stroke-miterlimit="10" stroke-linejoin="miter" fill="none" stroke="#000000" d="M96.83-76.464H107.719"/>
<use data-text="d" xlink:href="#font_1_1" transform="matrix(9.963098,0,0,-9.963197,36.769929,21.412568)"/>
<use data-text="y" xlink:href="#font_1_5" transform="matrix(9.963098,0,0,-9.963197,41.950738,21.412568)"/>
<path transform="matrix(1.00005,0,0,-1.00006,13.634781,90.95274)" stroke-width="1.49442" stroke-linecap="butt" stroke-miterlimit="10" stroke-linejoin="miter" fill="none" stroke="#0074c8" d="M42.5202 28.3468V35.9747"/>
<path transform="matrix(0,-1.00006,-1.00005,-0,56.157106,54.975889)" d="M6.54549 0C4.60605 .36362 1.45454 1.45454-.72726 2.72728V-2.72728C1.45454-1.45454 4.60605-.36362 6.54549 0" fill="#0074c8"/>
<path transform="matrix(1.00005,0,0,-1.00006,13.634781,90.95274)" stroke-width="1.49442" stroke-linecap="butt" stroke-miterlimit="10" stroke-linejoin="miter" fill="none" stroke="#0074c8" d="M28.3468 14.17339H35.9747"/>
<path transform="matrix(1.00005,0,0,-1.00006,49.61128,76.7785)" d="M6.54549 0C4.60605 .36362 1.45454 1.45454-.72726 2.72728V-2.72728C1.45454-1.45454 4.60605-.36362 6.54549 0" fill="#0074c8"/>
<path transform="matrix(1.00005,0,0,-1.00006,13.634781,90.95274)" stroke-width="1.49442" stroke-linecap="butt" stroke-miterlimit="10" stroke-linejoin="miter" fill="none" stroke="#0074c8" d="M14.17339 28.3468V20.71889"/>
<path transform="matrix(0,1.00006,1.00005,0,27.80888,70.23261)" d="M6.54549 0C4.60605 .36362 1.45454 1.45454-.72726 2.72728V-2.72728C1.45454-1.45454 4.60605-.36362 6.54549 0" fill="#0074c8"/>
<path transform="matrix(1.00005,0,0,-1.00006,13.634781,90.95274)" stroke-width="1.49442" stroke-linecap="butt" stroke-miterlimit="10" stroke-linejoin="miter" fill="none" stroke="#0074c8" d="M28.3468 42.5202H20.71889"/>
<path transform="matrix(-1.00005,-0,0,1.00006,34.354707,48.429998)" d="M6.54549 0C4.60605 .36362 1.45454 1.45454-.72726 2.72728V-2.72728C1.45454-1.45454 4.60605-.36362 6.54549 0" fill="#0074c8"/>
<path transform="matrix(1.00005,0,0,-1.00006,13.634781,90.95274)" stroke-width="1.49442" stroke-linecap="butt" stroke-miterlimit="10" stroke-linejoin="miter" fill="none" stroke="#0074c8" d="M62.36288 28.3468V52.98296"/>
<path transform="matrix(0,-1.00006,-1.00005,-0,76.00078,37.966608)" d="M6.54549 0C4.60605 .36362 1.45454 1.45454-.72726 2.72728V-2.72728C1.45454-1.45454 4.60605-.36362 6.54549 0" fill="#0074c8"/>
<path transform="matrix(1.00005,0,0,-1.00006,13.634781,90.95274)" stroke-width="1.49442" stroke-linecap="butt" stroke-miterlimit="10" stroke-linejoin="miter" fill="none" stroke="#0074c8" d="M28.3468 62.36288H3.71065"/>
<path transform="matrix(-1.00005,-0,0,1.00006,17.345616,28.586125)" d="M6.54549 0C4.60605 .36362 1.45454 1.45454-.72726 2.72728V-2.72728C1.45454-1.45454 4.60605-.36362 6.54549 0" fill="#0074c8"/>
<path transform="matrix(1.00005,0,0,-1.00006,13.634781,90.95274)" stroke-width="1.49442" stroke-linecap="butt" stroke-miterlimit="10" stroke-linejoin="miter" fill="none" stroke="#0074c8" d="M-5.66927 28.3468V3.71065"/>
<path transform="matrix(0,1.00006,1.00005,0,7.9652278,87.241878)" d="M6.54549 0C4.60605 .36362 1.45454 1.45454-.72726 2.72728V-2.72728C1.45454-1.45454 4.60605-.36362 6.54549 0" fill="#0074c8"/>
<path transform="matrix(1.00005,0,0,-1.00006,13.634781,90.95274)" stroke-width="1.49442" stroke-linecap="butt" stroke-miterlimit="10" stroke-linejoin="miter" fill="none" stroke="#0074c8" d="M28.3468-5.66927H52.98296"/>
<path transform="matrix(1.00005,0,0,-1.00006,66.62039,96.62235)" d="M6.54549 0C4.60605 .36362 1.45454 1.45454-.72726 2.72728V-2.72728C1.45454-1.45454 4.60605-.36362 6.54549 0" fill="#0074c8"/>
</svg>
