<svg xmlns="http://www.w3.org/2000/svg" xmlns:xlink="http://www.w3.org/1999/xlink" version="1.1" width="76pt" height="76pt" viewBox="0 0 76 76">
<path transform="matrix(1.00003,0,0,-1.00009,17.066948,73.46918)" stroke-width="1.99255" stroke-linecap="butt" stroke-miterlimit="10" stroke-linejoin="miter" fill="none" stroke="#000000" d="M0 0H56.69362V56.69362H0V0"/>
<path transform="matrix(1.00003,0,0,-1.00009,17.066948,73.46918)" stroke-width="1.99255" stroke-linecap="butt" stroke-dasharray="2.98883,2.98883" stroke-miterlimit="10" stroke-linejoin="miter" fill="none" stroke="#0074c8" d="M0 0-14.17339 54.99286 40.81946 70.867 54.99286 14.17339 0 0"/>
<path transform="matrix(1.00003,0,0,-1.00009,17.066948,73.46918)" stroke-width=".59776" stroke-linecap="butt" stroke-miterlimit="10" stroke-linejoin="miter" fill="none" stroke="#0074c8" d="M35.43349 21.2601C37.1837 24.29155 36.43954 28.07874 33.83789 30.24493"/>
<path transform="matrix(-.6783204,-.7347761,-.73473206,.67836108,50.73196,43.41877)" d="M.91655 0C-.22913 .22913-1.37483 .68741-2.74966 1.4894-1.37483 .45827-1.37483-.45827-2.74966-1.4894-1.37483-.68741-.22913-.22913 .91655 0Z" fill="#0074c8"/>
<path transform="matrix(-.6783204,-.7347761,-.73473206,.67836108,50.73196,43.41877)" stroke-width=".59776" stroke-linecap="butt" stroke-linejoin="round" fill="none" stroke="#0074c8" d="M.91655 0C-.22913 .22913-1.37483 .68741-2.74966 1.4894-1.37483 .45827-1.37483-.45827-2.74966-1.4894-1.37483-.68741-.22913-.22913 .91655 0Z"/>
</svg>
