<svg xmlns="http://www.w3.org/2000/svg" xmlns:xlink="http://www.w3.org/1999/xlink" version="1.1" width="356pt" height="216pt" viewBox="0 0 356 216">
<defs>
<path id="font_1_28" d="M.48298646 .08912659V.14511109H.45799256V.08912659C.45799256 .03112793 .43299867 .025131226 .42199708 .025131226 .3889923 .025131226 .3849945 .070129398 .3849945 .07511902V.27508546C.3849945 .31707765 .3849945 .3560791 .34899903 .39312745 .30999757 .43223573 .2599945 .4482422 .21199036 .4482422 .12998963 .4482422 .06098938 .40115357 .06098938 .335083 .06098938 .30508424 .08099365 .28808595 .10699463 .28808595 .1349945 .28808595 .15299988 .30807496 .15299988 .33407594 .15299988 .3460846 .147995 .37908937 .101989749 .38008119 .1289978 .41519166 .17799378 .426239 .20999146 .426239 .25898744 .426239 .31599427 .38710023 .31599427 .29808045V.26107789C.2649994 .25808717 .19499207 .25508119 .13198853 .22509766 .056991579 .19110108 .03199768 .13911438 .03199768 .09512329 .03199768 .014251709 .1289978-.0107421879 .19198609-.0107421879 .2579956-.0107421879 .3039856 .029251099 .32299806 .07624817 .32699586 .036132814 .35398866-.005859375 .40098573-.005859375 .42199708-.005859375 .48298646 .008132935 .48298646 .08912659M.31599427 .14013672C.31599427 .04525757 .24398804 .011245728 .19898987 .011245728 .1499939 .011245728 .10899353 .04624939 .10899353 .09625244 .10899353 .15124512 .15098572 .23425293 .31599427 .24024964V.14013672Z"/>
<path id="font_1_66" d="M.24699402 0V.0309906C.18099976 .0309906 .1769867 .035995485 .1769867 .075042728V.4423828L.036987306 .43066407V.3996582C.101989749 .3996582 .11099243 .3936615 .11099243 .3447113V.07595825C.11099243 .0309906 .099990848 .0309906 .032989503 .0309906V0L.14299011 .0029907227C.17799378 .0029907227 .21299744 .0009918213 .24699402 0M.19198609 .603775C.19198609 .6307678 .16899109 .6567688 .13899231 .6567688 .10499573 .6567688 .084991458 .6287689 .084991458 .603775 .084991458 .57676699 .10798645 .55078127 .13798523 .55078127 .17199707 .55078127 .19198609 .5787811 .19198609 .603775Z"/>
<path id="font_1_96" d="M.3639984 .38137818C.3639984 .41337586 .33299256 .4423828 .2899933 .4423828 .21699524 .4423828 .18099976 .37538148 .16699219 .3323822V.4423828L.027999878 .43066407V.3996582C.09799194 .3996582 .10598755 .39266969 .10598755 .34370423V.07595825C.10598755 .0309906 .09498596 .0309906 .027999878 .0309906V0L.14199829 .0029907227C.18199158 .0029907227 .22898865 .0029907227 .2689972 0V.0309906H.24798584C.17399597 .0309906 .17199707 .04197693 .17199707 .07795715V.23181153C.17199707 .33137513 .21398926 .42037965 .2899933 .42037965 .29699708 .42037965 .29899598 .42037965 .30099488 .41937257 .2979889 .41838075 .27799989 .40637208 .27799989 .3803711 .27799989 .35237123 .29899598 .33737184 .32099916 .33737184 .33898927 .33737184 .3639984 .3493805 .3639984 .38137818Z"/>
<path id="font_1_105" d="M.33198548 .12385559V.18066406H.30699159V.12585449C.30699159 .052108766 .2769928 .014251709 .23999024 .014251709 .17298889 .014251709 .17298889 .10491943 .17298889 .12187195V.3996582H.31599427V.43066407H.17298889V.6142578H.147995C.14698792 .5324249 .116989139 .42565919 .018997193 .42166139V.3996582H.10398865V.12408447C.10398865 .0012512207 .19699097-.0107421879 .23298645-.0107421879 .3039856-.0107421879 .33198548 .060180665 .33198548 .12408447V.12385559Z"/>
<path id="font_1_50" d="M.4149933 .11933899C.4149933 .12934876 .40699769 .13134766 .4019928 .13134766 .3929901 .13134766 .3909912 .12535095 .3889923 .11734009 .35398866 .014251709 .2639923 .014251709 .2539978 .014251709 .20399475 .014251709 .1639862 .044281007 .14099121 .08131409 .11099243 .12934876 .11099243 .19540406 .11099243 .23144531H.3899994C.4119873 .23144531 .4149933 .23144531 .4149933 .2524414 .4149933 .35131837 .36099244 .4482422 .23599243 .4482422 .11999512 .4482422 .027999878 .34532167 .027999878 .22042847 .027999878 .08631897 .1329956-.0107421879 .24798584-.0107421879 .36999513-.0107421879 .4149933 .10032654 .4149933 .11933899M.34899903 .2524414H.11199951C.117996219 .40126039 .20199585 .426239 .23599243 .426239 .33898927 .426239 .34899903 .2913971 .34899903 .2524414Z"/>
<path id="font_1_75" d="M.8129883 0V.0309906C.7609863 .0309906 .73599246 .0309906 .7350006 .061019899V.25221253C.7350006 .3383026 .7350006 .36932374 .70399478 .405365 .6899872 .42237855 .6569977 .4423828 .598999 .4423828 .5149994 .4423828 .47099305 .38233949 .45399476 .34429933 .43998719 .43138124 .3659973 .4423828 .32099916 .4423828 .24798584 .4423828 .20098877 .39935304 .17298889 .33729554V.4423828L.03199768 .43066407V.3996582C.101989749 .3996582 .10998535 .39266969 .10998535 .34370423V.07595825C.10998535 .0309906 .09899902 .0309906 .03199768 .0309906V0L.14498902 .0029907227 .25698854 0V.0309906C.18998719 .0309906 .1789856 .0309906 .1789856 .07595825V.25978089C.1789856 .36431886 .25 .42037965 .31399537 .42037965 .3769989 .42037965 .3880005 .36631776 .3880005 .30926515V.076034549C.3880005 .0309906 .3769989 .0309906 .30999757 .0309906V0L.4229889 .0029907227 .5349884 0V.0309906C.46798707 .0309906 .45700074 .0309906 .45700074 .076034549V.2602234C.45700074 .36431886 .5279999 .42037965 .59199526 .42037965 .6549988 .42037965 .66600039 .36631776 .66600039 .30926515V.076034549C.66600039 .0309906 .6549988 .0309906 .58799746 .0309906V0L.70098879 .0029907227 .8129883 0Z"/>
<path id="font_1_84" d="M.5209961 .21636963C.5209961 .34336854 .42399598 .4423828 .31199647 .4423828 .23399353 .4423828 .19198609 .39837647 .17199707 .3763733V.4423828L.027999878 .43066407V.3996582C.09899902 .3996582 .10598755 .3936615 .10598755 .34973146V-.117996219C.10598755-.16308594 .09498596-.16308594 .027999878-.16308594V-.1940918L.13999939-.19110108 .25299073-.1940918V-.16308594C.18598938-.16308594 .1749878-.16308594 .1749878-.117996219V.050186159 .059173585C.17999268 .04319763 .22200012-.0107421879 .2979889-.0107421879 .4169922-.0107421879 .5209961 .087127689 .5209961 .21594239V.21636963M.43798829 .21594239C.43798829 .09512329 .36799623 .011245728 .2939911 .011245728 .2539978 .011245728 .21598816 .031219483 .18899536 .07215881 .1749878 .09312439 .1749878 .09411621 .1749878 .114089969V.33674623C.20399475 .38838197 .25299073 .41737367 .3039856 .41737367 .3769989 .41737367 .43798829 .32937623 .43798829 .21636963V.21594239Z"/>
<path id="font_1_45" d="M.20298767 .0009918213C.20298767 .06498718 .1789856 .10598755 .13899231 .10598755 .10398865 .10598755 .085998538 .07899475 .085998538 .052993776 .085998538 .026992798 .102996829 0 .13899231 0 .1539917 0 .16799927 .005996704 .1789856 .015991211 .18099976-.06312561 .15299988-.12423706 .10899353-.17132569 .102996829-.17733765 .101989749-.17834473 .101989749-.18234253 .101989749-.18936157 .10699463-.19335938 .11199951-.19335938 .12399292-.19335938 .20298767-.114227298 .20298767 .0009918213Z"/>
<path id="font_2_1" d="M.5069885 .24998474C.5069885 .3710022 .4099884 .4650116 .2919922 .4650116 .17199707 .4650116 .07699585 .36799623 .07699585 .25097657 .07699585 .1299591 .17399597 .035949708 .2919922 .035949708 .4119873 .035949708 .5069885 .13296509 .5069885 .24998474M.2919922 .08496094C.19799805 .08496094 .12599182 .16096497 .12599182 .24998474 .12599182 .34300233 .19999695 .41601563 .2919922 .41601563 .38598634 .41601563 .45799256 .33999635 .45799256 .25097657 .45799256 .15795899 .38398744 .08496094 .2919922 .08496094Z"/>
<path id="font_3_1" d="M.30299378 .3244629H.3999939C.47499085 .3244629 .48298646 .30848695 .48298646 .27954103 .48298646 .2725525 .48298646 .26057435 .47599793 .2306366 .47399903 .22564698 .47299195 .22164917 .47299195 .21965027 .47299195 .21166992 .47898866 .20767212 .4850006 .20767212 .49499513 .20767212 .49499513 .21066284 .5 .2286377L.5549927 .44551087C.55799868 .45651246 .55799868 .45851136 .55799868 .46151734 .55799868 .46351625 .55599978 .47251893 .54599 .47251893 .5359955 .47251893 .5349884 .46751405 .5309906 .45150758 .5099945 .37347413 .4869995 .35546876 .4019928 .35546876H.31098939L.375 .6095886C.38398744 .64460757 .3849945 .64860537 .42900086 .64860537H.5609894C.6839905 .64860537 .70700076 .6156006 .70700076 .53855898 .70700076 .5155487 .70700076 .51153567 .70399478 .4845276 .70199587 .4715271 .70199587 .46951295 .70199587 .46652223 .70199587 .46151734 .7049866 .45451356 .71398928 .45451356 .72499087 .45451356 .7259979 .46051026 .7279968 .4795227L.7480011 .65260317C.7509918 .6796112 .74598696 .6796112 .72099307 .6796112H.23098755C.21099854 .6796112 .20098877 .6796112 .20098877 .65960696 .20098877 .64860537 .20999146 .64860537 .22898865 .64860537 .2659912 .64860537 .2939911 .64860537 .2939911 .6306 .2939911 .6266022 .2939911 .6246033 .2889862 .60658267L.15699768 .07791138C.14698792 .038970949 .14498902 .0309906 .06599426 .0309906 .04899597 .0309906 .037994386 .0309906 .037994386 .011993408 .037994386 0 .049987794 0 .052993776 0 .08198547 0 .1559906 .0029907227 .18499756 .0029907227 .21798706 .0029907227 .30099488 0 .33399964 0 .34298707 0 .35499574 0 .35499574 .018997193 .35499574 .026992798 .34899903 .0289917 .34899903 .02999878 .34599305 .0309906 .34399415 .0309906 .32099916 .0309906 .29899598 .0309906 .2939911 .0309906 .2689972 .032989503 .23999024 .035980226 .23699951 .039978029 .23699951 .052947999 .23699951 .0549469 .23699951 .060943605 .24099732 .075912479L.30299378 .3244629Z"/>
<path id="font_1_114" d="M.7029877 .3996582V.43066407C.68099978 .4286499 .6519928 .42765809 .6299896 .42765809L.5369873 .43066407V.3996582C.57299807 .39866639 .59498599 .38075257 .59498599 .35176087 .59498599 .34576417 .59498599 .34376527 .58999636 .33078004L.49899293 .07513428 .3999939 .35375978C.3959961 .36575318 .394989 .36775209 .394989 .37275697 .394989 .3996582 .43399049 .3996582 .45399476 .3996582V.43066407L.34999085 .42765809C.31999208 .42765809 .29100038 .4286499 .26098634 .43066407V.3996582C.2979889 .3996582 .31399537 .39767457 .32398988 .38476563 .32899476 .37875367 .33999635 .34877015 .34700013 .3297882L.26098634 .08811951 .1659851 .3547516C.16099549 .36676026 .16099549 .36875917 .16099549 .37275697 .16099549 .3996582 .19999695 .3996582 .21998596 .3996582V.43066407L.11099243 .42765809 .017990113 .43066407V.3996582C.067993167 .3996582 .07998657 .39668275 .09199524 .36476136L.21798706 .01121521C.22299195-.0027618409 .22599793-.0107421879 .23899842-.0107421879 .2519989-.0107421879 .2539978-.004760742 .25898744 .009216309L.3600006 .2918396 .46199037 .008224487C.46598817-.0027618409 .46899415-.0107421879 .48199464-.0107421879 .49499513-.0107421879 .49798585-.0017547608 .5019989 .008224487L.61898806 .3357849C.6369934 .38575746 .66799929 .39866639 .7029877 .3996582Z"/>
<path id="font_1_77" d="M.5349884 0V.0309906C.48298646 .0309906 .45799256 .0309906 .45700074 .061019899V.25221253C.45700074 .3383026 .45700074 .36932374 .42599488 .405365 .4119873 .42237855 .3789978 .4423828 .32099916 .4423828 .24798584 .4423828 .20098877 .39935304 .17298889 .33729554V.4423828L.03199768 .43066407V.3996582C.101989749 .3996582 .10998535 .39266969 .10998535 .34370423V.07595825C.10998535 .0309906 .09899902 .0309906 .03199768 .0309906V0L.14498902 .0029907227 .25698854 0V.0309906C.18998719 .0309906 .1789856 .0309906 .1789856 .07595825V.25978089C.1789856 .36431886 .25 .42037965 .31399537 .42037965 .3769989 .42037965 .3880005 .36631776 .3880005 .30926515V.076034549C.3880005 .0309906 .3769989 .0309906 .30999757 .0309906V0L.4229889 .0029907227 .5349884 0Z"/>
<path id="font_1_47" d="M.5269928 0V.0309906C.45700074 .0309906 .44898988 .038009645 .44898988 .0871582V.69433596L.30499269 .6826172V.6516113C.375 .6516113 .3829956 .64463809 .3829956 .59580996V.38035584C.35398866 .41636659 .31098939 .4423828 .25698854 .4423828 .13899231 .4423828 .033996583 .3443451 .033996583 .21531677 .033996583 .088272098 .13198853-.0107421879 .24598694-.0107421879 .30999757-.0107421879 .35499574 .023254395 .37998963 .055267335V-.0107421879L.5269928 0M.37998963 .117996219C.37998963 .099990848 .37998963 .09799194 .36898805 .08099365 .33898927 .033218385 .2939911 .011245728 .25099183 .011245728 .20599365 .011245728 .16999817 .037216188 .1459961 .075164798 .11999512 .1161499 .116989139 .17320252 .116989139 .21421814 .116989139 .25125123 .11898804 .31129457 .147995 .35632325 .16899109 .38734437 .20698548 .42037965 .26098634 .42037965 .29599 .42037965 .33799745 .405365 .36898805 .3603363 .37998963 .34332276 .37998963 .34132386 .37998963 .32330323V.117996219Z"/>
<path id="font_1_98" d="M.3600006 .12823487C.3600006 .18122864 .32998658 .21122742 .31799317 .22323609 .2849884 .25523377 .24598694 .26322938 .20399475 .27124024 .147995 .28224183 .08099365 .29522706 .08099365 .35324098 .08099365 .38822938 .10699463 .42922975 .19299317 .42922975 .30299378 .42922975 .30799867 .3392334 .30999757 .30822755 .31098939 .2992401 .32199098 .2992401 .32199098 .2992401 .33499146 .2992401 .33499146 .30422975 .33499146 .32322694V.4242401C.33499146 .4412384 .33499146 .4482422 .32398988 .4482422 .31900025 .4482422 .31698609 .4482422 .3039856 .43623353 .30099488 .43223573 .29100038 .42323304 .2869873 .42022706 .24899292 .4482422 .20799256 .4482422 .19299317 .4482422 .070999149 .4482422 .032989503 .38124085 .032989503 .3252411 .032989503 .29023744 .04899597 .26223756 .07598877 .24023438 .10798645 .2142334 .13598633 .2082367 .20799256 .19422913 .22999573 .19021607 .31199647 .17422486 .31199647 .10221863 .31199647 .051223756 .2769928 .011245728 .19898987 .011245728 .114990238 .011245728 .07899475 .068222049 .05999756 .1532135 .056991579 .16621399 .055999757 .17021179 .04598999 .17021179 .032989503 .17021179 .032989503 .16322327 .032989503 .1452179V.013214111C.032989503-.003753662 .032989503-.0107421879 .04399109-.0107421879 .04899597-.0107421879 .049987794-.009750366 .068984989 .009246826 .070999149 .011245728 .070999149 .013214111 .08898926 .032226564 .1329956-.009750366 .17799378-.0107421879 .19898987-.0107421879 .31399537-.0107421879 .3600006 .05621338 .3600006 .1282196V.12823487Z"/>
<path id="font_1_63" d="M.5349884 0V.0309906C.48298646 .0309906 .45799256 .0309906 .45700074 .061019899V.25221253C.45700074 .3383026 .45700074 .36932374 .42599488 .405365 .4119873 .42237855 .3789978 .4423828 .32099916 .4423828 .23699951 .4423828 .19299317 .38233949 .1769867 .34629823H.17599488V.69433596L.03199768 .6826172V.6516113C.101989749 .6516113 .10998535 .64463809 .10998535 .59580996V.076034549C.10998535 .0309906 .09899902 .0309906 .03199768 .0309906V0L.14498902 .0029907227 .25698854 0V.0309906C.18998719 .0309906 .1789856 .0309906 .1789856 .076034549V.2602234C.1789856 .36431886 .25 .42037965 .31399537 .42037965 .3769989 .42037965 .3880005 .36631776 .3880005 .30926515V.076034549C.3880005 .0309906 .3769989 .0309906 .30999757 .0309906V0L.4229889 .0029907227 .5349884 0Z"/>
<path id="font_4_1" d="M.6589966 .23046875C.6759949 .23046875 .69400027 .23046875 .69400027 .25045777 .69400027 .27046205 .6759949 .27046205 .6589966 .27046205H.117996219C.100997928 .27046205 .08299255 .27046205 .08299255 .25045777 .08299255 .23046875 .100997928 .23046875 .117996219 .23046875H.6589966Z"/>
<path id="font_5_7" d="M.16299439 .4569702C.116989139 .486969 .11299133 .52098086 .11299133 .5379791 .11299133 .598999 .17799378 .64100649 .24899292 .64100649 .32199098 .64100649 .38598634 .58898928 .38598634 .51698306 .38598634 .45996095 .34700013 .4119568 .2869873 .37695313L.16299439 .4569702M.30899049 .36193849C.3809967 .3989563 .42999269 .45095826 .42999269 .51698306 .42999269 .6090088 .34098817 .6660156 .25 .6660156 .1499939 .6660156 .068984989 .59199526 .068984989 .49897767 .068984989 .4809723 .070999149 .43595887 .11299133 .38894654 .12399292 .37695313 .16099549 .35194398 .18598938 .33494569 .12799073 .30592347 .041992189 .24984741 .041992189 .15072632 .041992189 .04458618 .14399719-.022460938 .24899292-.022460938 .3619995-.022460938 .45700074 .06060791 .45700074 .16773987 .45700074 .20379639 .44599916 .24885559 .4079895 .2909088 .3889923 .31193543 .37298585 .3219452 .30899049 .36193849M.20899964 .3199463 .33198548 .24183655C.3600006 .2228241 .40699769 .19277954 .40699769 .13169861 .40699769 .05760193 .33198548 .0055389406 .25 .0055389406 .1639862 .0055389406 .09199524 .067611698 .09199524 .15072632 .09199524 .20880127 .12399292 .27288819 .20899964 .3199463Z"/>
<path id="font_5_1" d="M.45999146 .31976319C.45999146 .39982606 .45498658 .47988893 .41999818 .5539398 .37399293 .65000918 .2919922 .6660156 .25 .6660156 .18998719 .6660156 .116989139 .64001467 .07598877 .54693606 .04399109 .47789 .038986207 .39982606 .038986207 .31976319 .038986207 .24472046 .042999269 .15464783 .083999637 .07859802 .1269989-.0024719239 .19999695-.022460938 .24899292-.022460938 .30299378-.022460938 .3789978-.0014648438 .4229889 .09359741 .45498658 .16265869 .45999146 .2407074 .45999146 .31976319M.24899292-.00047302247C.20999146-.00047302247 .15098572 .024551392 .1329956 .12062073 .12199402 .18066406 .12199402 .2727356 .12199402 .3317871 .12199402 .39582826 .12199402 .46188355 .12998963 .5159149 .14898682 .63500979 .22399903 .64401248 .24899292 .64401248 .28199769 .64401248 .34799195 .6259918 .36698915 .52693179 .3769989 .47088624 .3769989 .39482118 .3769989 .3317871 .3769989 .25672914 .3769989 .18867493 .3659973 .12461853 .35099793 .029556275 .2939911-.00047302247 .24899292-.00047302247Z"/>
<path id="font_5_6" d="M.13198853 .327713V.35173036C.13198853 .6047821 .2559967 .64100649 .30699159 .64100649 .33099366 .64100649 .37298585 .634964 .394989 .6007538 .37998963 .6007538 .33999635 .6007538 .33999635 .5557556 .33999635 .524765 .3639984 .5097656 .38598634 .5097656 .4019928 .5097656 .43199159 .51875308 .43199159 .5577545 .43199159 .6178589 .3880005 .6660156 .30499269 .6660156 .1769867 .6660156 .041992189 .5367584 .041992189 .31570436 .041992189 .048553468 .1579895-.022460938 .25099183-.022460938 .3619995-.022460938 .45700074 .07156372 .45700074 .2036438 .45700074 .33070375 .36799623 .4267578 .25698854 .4267578 .18899536 .4267578 .1519928 .37573243 .13198853 .327713M.25099183 .0055389406C.18798828 .0055389406 .1579895 .06556702 .1519928 .080566409 .13398743 .127594 .13398743 .2076416 .13398743 .22564698 .13398743 .30369569 .1659851 .40374757 .2559967 .40374757 .27198792 .40374757 .31799317 .40374757 .34899903 .34172059 .36698915 .30470277 .36698915 .2536621 .36698915 .20463562 .36698915 .15661621 .36698915 .10658264 .34999085 .0705719 .31999208 .010528564 .27398683 .0055389406 .25099183 .0055389406Z"/>
<path id="font_5_5" d="M.2939911 .16503906V.07800293C.2939911 .041992189 .2919922 .0309906 .21798706 .0309906H.19699097V0C.23799134 .0029907227 .2899933 .0029907227 .33198548 .0029907227 .37399293 .0029907227 .4269867 .0029907227 .46798707 0V.0309906H.44699098C.37298585 .0309906 .37098695 .041992189 .37098695 .07800293V.16503906H.47099305V.19602967H.37098695V.65075686C.37098695 .67074587 .37098695 .6767578 .35499574 .6767578 .34599305 .6767578 .34298707 .6767578 .33499146 .66474917L.027999878 .19602967V.16503906H.2939911M.2999878 .19602967H.055999757L.2999878 .5688019V.19602967Z"/>
<path id="font_5_3" d="M.1269989 .07699585 .23298645 .18003845C.3889923 .31811524 .44898988 .3721466 .44898988 .47216798 .44898988 .5860901 .35899354 .6660156 .23699951 .6660156 .12399292 .6660156 .049987794 .57411196 .049987794 .48516847 .049987794 .4291687 .099990848 .4291687 .102996829 .4291687 .11999512 .4291687 .15499878 .44117738 .15499878 .48217774 .15499878 .5081787 .13699341 .5341797 .101989749 .5341797 .09399414 .5341797 .09199524 .5341797 .08898926 .5331726 .11199951 .59806826 .1659851 .63500979 .22399903 .63500979 .31498719 .63500979 .35798646 .5541382 .35798646 .47216798 .35798646 .39215089 .30799867 .31311036 .25299073 .25108338L.06098938 .036987306C.049987794 .025985718 .049987794 .023986817 .049987794 0H.42099L.44898988 .17404175H.42399598C.4189911 .14402771 .4119873 .1000061 .4019928 .084991458 .394989 .07699585 .32899476 .07699585 .30699159 .07699585H.1269989Z"/>
<path id="font_5_2" d="M.2939911 .64004519C.2939911 .66400149 .2939911 .6660156 .2709961 .6660156 .20899964 .60227969 .12098694 .60227969 .08898926 .60227969V.57128909C.10899353 .57128909 .16799927 .57128909 .21998596 .5972748V.07902527C.21998596 .042999269 .21699524 .0309906 .1269989 .0309906H.09498596V0C.12998963 .0029907227 .21699524 .0029907227 .25698854 .0029907227 .29699708 .0029907227 .38398744 .0029907227 .4189911 0V.0309906H.3869934C.29699708 .0309906 .2939911 .041992189 .2939911 .07902527V.64004519Z"/>
<path id="font_5_4" d="M.2899933 .35191346C.37199403 .37893678 .42999269 .4490509 .42999269 .52809146 .42999269 .6100464 .34199525 .6660156 .24598694 .6660156 .14498902 .6660156 .068984989 .60606387 .068984989 .53009036 .068984989 .49710084 .09098816 .47808839 .11999512 .47808839 .15098572 .47808839 .17098999 .50009158 .17098999 .5290985 .17098999 .57910159 .12399292 .57910159 .10899353 .57910159 .13999939 .62802127 .20599365 .64100649 .24198914 .64100649 .2829895 .64100649 .33799745 .6190338 .33799745 .5290985 .33799745 .51708987 .33599855 .45906068 .30999757 .4149933 .27999879 .36691285 .24598694 .36390687 .22099304 .36291505 .21299744 .36190797 .18899536 .35990907 .18199158 .35990907 .17399597 .35890199 .16699219 .35791017 .16699219 .3479004 .16699219 .33691407 .17399597 .33691407 .19099427 .33691407H.23498535C.31698609 .33691407 .35398866 .2686615 .35398866 .17037964 .35398866 .034469606 .2849884 .0055389406 .24099732 .0055389406 .19799805 .0055389406 .12298584 .022491456 .08799744 .08137512 .12298584 .07637024 .1539917 .09837341 .1539917 .1363678 .1539917 .17237854 .1269989 .19238281 .09799194 .19238281 .07398987 .19238281 .041992189 .17837525 .041992189 .1343689 .041992189 .043441774 .1349945-.022460938 .24398804-.022460938 .3659973-.022460938 .45700074 .06838989 .45700074 .17037964 .45700074 .252594 .3939972 .33088685 .2899933 .35191346Z"/>
</defs>
<path transform="matrix(1,0,0,-1.00003,182.98499,201.2516)" stroke-width=".79701" stroke-linecap="butt" stroke-miterlimit="10" stroke-linejoin="miter" fill="none" stroke="#e0e0e0" d="M-170.08086 0H113.38724M-170.08086 28.3468H113.38724M-170.08086 56.69362H113.38724M-170.08086 85.04042H113.38724M-170.08086 113.38724H113.38724M-170.08086 141.73404H113.38724M-170.08086 170.07089H113.38724M-170.08086 0V170.08086M-141.73404 0V170.08086M-113.38724 0V170.08086M-85.04042 0V170.08086M-56.69362 0V170.08086M-28.3468 0V170.08086M0 0V170.08086M28.3468 0V170.08086M56.69362 0V170.08086M85.04042 0V170.08086M113.37727 0V170.08086M113.38724 170.08086"/>
<path transform="matrix(1,0,0,-1.00003,182.98499,201.2516)" stroke-width=".29887" stroke-linecap="butt" stroke-miterlimit="10" stroke-linejoin="miter" fill="none" stroke="#424242" d="M-56.69362 0H110.06967"/>
<path transform="matrix(1,0,0,-1.00003,293.05467,201.2516)" d="M3.31755 0C2.33455 .1843 .73723 .73723-.3686 1.38231V-1.38231C.73723-.73723 2.33455-.1843 3.31755 0" fill="#424242"/>
<use data-text="a" xlink:href="#font_1_28" transform="matrix(9.9626,0,0,-9.962899,299.84199,203.71567)" fill="#424242"/>
<use data-text="i" xlink:href="#font_1_66" transform="matrix(9.9626,0,0,-9.962899,304.82328,203.71567)" fill="#424242"/>
<use data-text="r" xlink:href="#font_1_96" transform="matrix(9.9626,0,0,-9.962899,307.59288,203.71567)" fill="#424242"/>
<use data-text="t" xlink:href="#font_1_105" transform="matrix(9.9626,0,0,-9.962899,314.81575,203.71567)" fill="#424242"/>
<use data-text="e" xlink:href="#font_1_50" transform="matrix(9.9626,0,0,-9.962899,318.6912,203.71567)" fill="#424242"/>
<use data-text="m" xlink:href="#font_1_75" transform="matrix(9.9626,0,0,-9.962899,323.1146,203.71567)" fill="#424242"/>
<use data-text="p" xlink:href="#font_1_84" transform="matrix(9.9626,0,0,-9.962899,331.41346,203.71567)" fill="#424242"/>
<use data-text="," xlink:href="#font_1_45" transform="matrix(9.9626,0,0,-9.962899,336.95268,203.71567)" fill="#424242"/>
<use data-text="&#x25e6;" xlink:href="#font_2_1" transform="matrix(6.9738,0,0,-6.9740097,343.03999,200.10056)" fill="#424242"/>
<use data-text="F" xlink:href="#font_3_1" transform="matrix(9.9626,0,0,-9.962899,347.61997,203.71567)" fill="#424242"/>
<path transform="matrix(1,0,0,-1.00003,182.98499,201.2516)" stroke-width=".29887" stroke-linecap="butt" stroke-miterlimit="10" stroke-linejoin="miter" fill="none" stroke="#424242" d="M0 0H-166.76329"/>
<path transform="matrix(-1,-0,0,1.00003,16.221695,201.2516)" d="M3.31755 0C2.33455 .1843 .73723 .73723-.3686 1.38231V-1.38231C.73723-.73723 2.33455-.1843 3.31755 0" fill="#424242"/>
<path transform="matrix(1,0,0,-1.00003,182.98499,201.2516)" stroke-width=".29887" stroke-linecap="butt" stroke-miterlimit="10" stroke-linejoin="miter" fill="none" stroke="#424242" d="M0 0V166.76329"/>
<path transform="matrix(0,-1.00003,-1,-0,182.98499,34.483308)" d="M3.31755 0C2.33455 .1843 .73723 .73723-.3686 1.38231V-1.38231C.73723-.73723 2.33455-.1843 3.31755 0" fill="#424242"/>
<use data-text="w" xlink:href="#font_1_114" transform="matrix(9.9626,0,0,-9.962899,146.00798,25.762345)" fill="#424242"/>
<use data-text="i" xlink:href="#font_1_66" transform="matrix(9.9626,0,0,-9.962899,153.20098,25.762345)" fill="#424242"/>
<use data-text="n" xlink:href="#font_1_77" transform="matrix(9.9626,0,0,-9.962899,155.97057,25.762345)" fill="#424242"/>
<use data-text="d" xlink:href="#font_1_47" transform="matrix(9.9626,0,0,-9.962899,161.50978,25.762345)" fill="#424242"/>
<use data-text="s" xlink:href="#font_1_98" transform="matrix(9.9626,0,0,-9.962899,170.36653,25.762345)" fill="#424242"/>
<use data-text="p" xlink:href="#font_1_84" transform="matrix(9.9626,0,0,-9.962899,174.2918,25.762345)" fill="#424242"/>
<use data-text="e" xlink:href="#font_1_50" transform="matrix(9.9626,0,0,-9.962899,180.10997,25.762345)" fill="#424242"/>
<use data-text="e" xlink:href="#font_1_50" transform="matrix(9.9626,0,0,-9.962899,184.53337,25.762345)" fill="#424242"/>
<use data-text="d" xlink:href="#font_1_47" transform="matrix(9.9626,0,0,-9.962899,188.95677,25.762345)" fill="#424242"/>
<use data-text="," xlink:href="#font_1_45" transform="matrix(9.9626,0,0,-9.962899,194.49599,25.762345)" fill="#424242"/>
<use data-text="m" xlink:href="#font_1_75" transform="matrix(9.9626,0,0,-9.962899,200.58312,25.762345)" fill="#424242"/>
<use data-text="p" xlink:href="#font_1_84" transform="matrix(9.9626,0,0,-9.962899,208.88198,25.762345)" fill="#424242"/>
<use data-text="h" xlink:href="#font_1_63" transform="matrix(9.9626,0,0,-9.962899,214.42119,25.762345)" fill="#424242"/>
<path transform="matrix(1,0,0,-1.00003,182.98499,201.2516)" stroke-width=".99628" stroke-linecap="butt" stroke-miterlimit="10" stroke-linejoin="miter" fill="none" stroke="#0074c8" d="M-170.08086 21.2601C-170.08086 21.2601-168.37422 23.5352-167.71875 24.45827-167.0633 25.38133-166.01213 26.91884-165.35668 27.91295-164.7012 28.90707-163.65004 30.5582-162.99457 31.62328-162.33911 32.68834-161.28795 34.4531-160.63249 35.5892-159.97702 36.72533-158.92586 38.60448-158.27039 39.81165-157.61493 41.01883-156.56377 43.0116-155.90831 44.2897-155.25284 45.56781-154.20168 47.6743-153.5462 49.0234-152.89075 50.37251-151.83959 52.59302-151.18413 54.01317-150.52866 55.43332-149.47751 57.76782-148.82204 59.25899-148.16658 60.75015-147.1154 63.19833-146.45995 64.76044-145.80448 66.32253-144.75333 68.88437-144.09786 70.51752-143.4424 72.15067-142.39122 74.8269-141.73577 76.5311-141.08029 78.2353-140.02915 81.02516-139.37368 82.80031-138.71822 84.57544-137.66704 87.47899-137.01158 89.32513-136.35611 91.17128-135.30496 94.18884-134.64949 96.10603-133.99404 98.02322-132.94287 101.1548-132.28742 103.143-131.63195 105.1312-130.58078 108.3764-129.92531 110.4356-129.26985 112.49477-128.21869 115.85405-127.56323 117.98424-126.90776 120.11441-125.8566 123.58739-125.20113 125.78851-124.54567 127.98964-123.4945 131.57627-122.83905 133.84844-122.18358 136.12062-121.13242 139.82167-120.47694 142.16484-119.82149 144.50801-118.77032 148.32228-118.11487 150.73644-117.4594 153.1506-116.40825 157.07932-115.75278 159.56455-115.09732 162.04979-113.39069 168.64829-113.39069 168.64829"/>
<use data-text="&#x2212;" xlink:href="#font_4_1" transform="matrix(9.9626,0,0,-9.962899,32.39499,69.03763)" fill="#0074c8"/>
<use data-text="8" xlink:href="#font_5_7" transform="matrix(9.9626,0,0,-9.962899,40.143983,69.03763)" fill="#0074c8"/>
<use data-text="0" xlink:href="#font_5_1" transform="matrix(9.9626,0,0,-9.962899,45.125276,69.03763)" fill="#0074c8"/>
<path transform="matrix(1,0,0,-1.00003,182.98499,201.2516)" stroke-width=".99628" stroke-linecap="butt" stroke-miterlimit="10" stroke-linejoin="miter" fill="none" stroke="#0074c8" d="M-136.06476 8.3337C-136.06476 8.3337-133.97408 10.16861-133.17108 10.94147-132.3681 11.71432-131.08039 13.03265-130.2774 13.90392-129.47443 14.77519-128.1867 16.25146-127.38373 17.22105-126.58073 18.19063-125.29303 19.82405-124.49004 20.892-123.68706 21.95993-122.39934 23.75171-121.59636 24.91808-120.79338 26.08443-119.50566 28.03366-118.70268 29.29839-117.89969 30.56311-116.61198 32.67029-115.809 34.03337-115.00601 35.39645-113.71832 37.66124-112.91533 39.12262-112.11235 40.584-110.82463 43.00635-110.02165 44.5661-109.21867 46.12585-107.93095 48.70618-107.12798 50.36429-106.32498 52.0224-105.03728 54.76021-104.23428 56.5167-103.4313 58.27318-102.14359 61.1689-101.3406 63.02379-100.53763 64.8787-99.24991 67.93231-98.44693 69.88559-97.64394 71.83885-96.35623 75.04999-95.55324 77.10161-94.75026 79.15324-93.46255 82.52234-92.65958 84.67232-91.8566 86.82231-90.56888 90.34892-89.7659 92.59727-88.9629 94.84564-87.6752 98.53021-86.87221 100.87694-86.06923 103.22365-84.78152 107.06575-83.97853 109.51082-83.17555 111.95589-81.88783 115.95595-81.08485 118.49939-80.28188 121.04283-78.99416 125.20047-78.19118 127.84221-77.38818 130.48395-76.10048 134.79912-75.29749 137.53928-74.4945 140.27945-73.2068 144.75289-72.40382 147.59148-71.60085 150.43006-70.31313 155.061-69.51015 157.9979-68.70715 160.93479-66.61646 168.75858-66.61646 168.75858"/>
<use data-text="&#x2212;" xlink:href="#font_4_1" transform="matrix(9.9626,0,0,-9.962899,63.576997,111.559909)" fill="#0074c8"/>
<use data-text="6" xlink:href="#font_5_6" transform="matrix(9.9626,0,0,-9.962899,71.32599,111.559909)" fill="#0074c8"/>
<use data-text="0" xlink:href="#font_5_1" transform="matrix(9.9626,0,0,-9.962899,76.30728,111.559909)" fill="#0074c8"/>
<path transform="matrix(1,0,0,-1.00003,182.98499,201.2516)" stroke-width=".99628" stroke-linecap="butt" stroke-miterlimit="10" stroke-linejoin="miter" fill="none" stroke="#0074c8" d="M-87.87527 13.31697C-87.87527 13.31697-85.9127 15.43297-85.15894 16.30365-84.40517 17.17432-83.19637 18.63771-82.44258 19.59222-81.68881 20.54674-80.48001 22.14487-79.72626 23.18317-78.97249 24.22145-77.76367 25.95349-77.00992 27.07556-76.25615 28.19765-75.04736 30.0644-74.29358 31.27032-73.53981 32.47624-72.33101 34.4773-71.57722 35.76698-70.82346 37.05667-69.61465 39.19215-68.8609 40.56557-68.10713 41.93896-66.89832 44.20842-66.14456 45.6656-65.39081 47.1228-64.182 49.527-63.42822 51.06801-62.67445 52.60904-61.46565 55.14752-60.71187 56.77232-59.9581 58.39713-58.7493 61.06998-57.99554 62.77855-57.24178 64.48714-56.03296 67.29433-55.2792 69.08669-54.52545 70.87904-53.31664 73.82053-52.56287 75.69672-51.80911 77.57292-50.60031 80.64914-49.84653 82.60913-49.09276 84.56912-47.88396 87.77927-47.13019 89.82298-46.3764 91.86668-45.1676 95.21121-44.41385 97.33876-43.6601 99.46631-42.45128 102.94557-41.69751 105.15689-40.94376 107.36823-39.73495 110.9814-38.98119 113.2765-38.2274 115.57161-37.0186 119.31956-36.26483 121.69844-35.51105 124.07732-34.30225 127.95921-33.5485 130.42188-32.79474 132.88454-31.58592 136.90114-30.83215 139.44763-30.0784 141.99413-28.86958 146.14505-28.11583 148.77533-27.36206 151.4056-26.15326 155.69086-25.39949 158.4049-24.6457 161.11898-22.68314 168.33643-22.68314 168.33643"/>
<use data-text="&#x2212;" xlink:href="#font_4_1" transform="matrix(9.9626,0,0,-9.962899,94.757999,139.90677)" fill="#0074c8"/>
<use data-text="4" xlink:href="#font_5_5" transform="matrix(9.9626,0,0,-9.962899,102.50699,139.90677)" fill="#0074c8"/>
<use data-text="0" xlink:href="#font_5_1" transform="matrix(9.9626,0,0,-9.962899,107.48828,139.90677)" fill="#0074c8"/>
<path transform="matrix(1,0,0,-1.00003,182.98499,201.2516)" stroke-width=".99628" stroke-linecap="butt" stroke-miterlimit="10" stroke-linejoin="miter" fill="none" stroke="#0074c8" d="M-39.68535 16.4373C-39.68535 16.4373-37.8934 19.2644-37.20518 20.40929-36.51695 21.55417-35.41322 23.45836-34.725 24.68883-34.03677 25.9193-32.93306 27.96094-32.24483 29.27762-31.55661 30.59431-30.45288 32.7744-29.76466 34.17871-29.07643 35.58302-27.97272 37.9079-27.28448 39.399-26.59627 40.8901-25.49255 43.34665-24.80432 44.92555-24.11607 46.50444-23.01236 49.10985-22.32413 50.77864-21.6359 52.44743-20.53218 55.19858-19.84395 56.95313-19.15573 58.70767-18.052 61.57825-17.36378 63.42433-16.67555 65.27042-15.57184 68.32024-14.8836 70.25842-14.19539 72.19662-13.09166 75.36763-12.40344 77.39357-11.71521 79.41951-10.6115 82.74313-9.92326 84.86005-9.23505 86.97697-8.13132 90.44482-7.4431 92.65092-6.75487 94.85703-5.65114 98.46246-4.96292 100.76015-4.2747 103.05783-3.17097 106.82109-2.48274 109.21106-1.79453 111.60104-.6908 115.50638-.00258 117.98553 .68564 120.4647 1.78934 124.50896 2.47757 127.07921 3.16579 129.64948 4.26952 133.84537 4.95773 136.51029 5.64597 139.17519 6.74968 143.52838 7.43791 146.28606 8.12613 149.04375 9.22986 153.5383 9.91808 156.38584 10.60631 159.23336 11.71004 163.86785 12.39825 166.80913 13.08647 169.75041 14.1902 174.54506 14.87843 177.58452 15.56665 180.62398 16.67038 185.58455 17.3586 188.71546 18.04683 191.84636 19.83878 200.15001 19.83878 200.15001"/>
<use data-text="&#x2212;" xlink:href="#font_4_1" transform="matrix(9.9626,0,0,-9.962899,128.77399,168.25461)" fill="#0074c8"/>
<use data-text="2" xlink:href="#font_5_3" transform="matrix(9.9626,0,0,-9.962899,136.52298,168.25461)" fill="#0074c8"/>
<use data-text="0" xlink:href="#font_5_1" transform="matrix(9.9626,0,0,-9.962899,141.50428,168.25461)" fill="#0074c8"/>
<path transform="matrix(1,0,0,-1.00003,182.98499,201.2516)" stroke-width=".99628" stroke-linecap="butt" stroke-miterlimit="10" stroke-linejoin="miter" fill="none" stroke="#0074c8" d="M11.33855 18.50786C11.33855 18.50786 12.7039 21.02647 13.2283 22.03044 13.75269 23.03441 14.59366 24.68484 15.11806 25.74379 15.64244 26.80272 16.48343 28.54784 17.00781 29.66258 17.53221 30.77733 18.37318 32.6069 18.89757 33.77818 19.42197 34.94946 20.26294 36.8769 20.78732 38.10442 21.31172 39.33194 22.1527 41.34048 22.6771 42.6253 23.20148 43.91013 24.04245 46.02272 24.56685 47.36462 25.09123 48.70654 25.9322 50.90051 26.4566 52.29684 26.981 53.69318 27.82198 55.96938 28.34636 57.4285 28.87076 58.8876 29.71173 61.29367 30.23611 62.81316 30.76051 64.33264 31.60149 66.80522 32.12587 68.37991 32.65027 69.95462 33.49124 72.52815 34.01564 74.1625 34.54002 75.79686 35.381 78.46527 35.9054 80.15923 36.42978 81.85316 37.27075 84.61751 37.79515 86.37134 38.31955 88.12518 39.16052 90.98544 39.6849 92.79971 40.2093 94.61397 41.05028 97.57227 41.57466 99.44739 42.09906 101.3225 42.94003 104.37814 43.46443 106.31436 43.98882 108.25058 44.82979 111.40582 45.35419 113.40236 45.87857 115.3989 46.71954 118.64485 47.24394 120.70404 47.76833 122.76321 48.60931 126.12416 49.1337 128.2436 49.6581 130.36305 50.49907 133.79776 51.02345 135.97954 51.54785 138.16133 52.38884 141.72148 52.91322 143.96852 53.43762 146.21556 54.2786 149.86994 54.803 152.17464 55.32738 154.47936 56.69275 160.57929 56.69275 160.57929"/>
<use data-text="0" xlink:href="#font_5_1" transform="matrix(9.9626,0,0,-9.962899,191.83298,169.08464)" fill="#0074c8"/>
<path transform="matrix(1,0,0,-1.00003,182.98499,201.2516)" stroke-width=".99628" stroke-linecap="butt" stroke-miterlimit="10" stroke-linejoin="miter" fill="none" stroke="#0074c8" d="M59.52846 18.33095C59.52846 18.33095 60.72289 20.28067 61.18161 21.07626 61.64035 21.87186 62.37605 23.2006 62.8348 24.06511 63.29352 24.9296 64.0292 26.37088 64.48795 27.30698 64.94667 28.24306 65.68236 29.80182 66.1411 30.81183 66.59982 31.82185 67.33553 33.50078 67.79427 34.5866 68.253 35.67241 68.98868 37.47299 69.44742 38.63774 69.90616 39.80247 70.64183 41.73601 71.10057 42.9813 71.55931 44.22658 72.29501 46.28499 72.75374 47.61292 73.21248 48.94083 73.94817 51.13776 74.40689 52.55205 74.86563 53.96634 75.60133 56.30528 76.06006 57.80609 76.5188 59.30692 77.25449 61.78078 77.71323 63.36897 78.17195 64.95717 78.90764 67.57077 79.36638 69.25278 79.8251 70.93478 80.5608 73.71698 81.01955 75.49171 81.47829 77.26643 82.21396 80.17815 82.6727 82.0438 83.13144 83.90944 83.86713 86.96489 84.32587 88.93802 84.7846 90.91113 85.5203 94.18925 85.97902 96.26477 86.43776 98.34029 87.17345 101.72635 87.63217 103.89691 88.09091 106.06747 88.82661 109.63297 89.28534 111.90881 89.74408 114.18465 90.47977 117.91797 90.9385 120.29962 91.39723 122.68126 92.13292 126.58482 92.59166 129.07408 93.05038 131.56333 93.78609 135.64238 94.24483 138.24044 94.70355 140.83847 95.43924 145.08965 95.89798 147.79909 96.35672 150.50852 97.0924 154.94295 97.55115 157.76822 98.00989 160.59349 99.2043 168.16168 99.2043 168.16168"/>
<use data-text="2" xlink:href="#font_5_3" transform="matrix(9.9626,0,0,-9.962899,234.69699,154.91121)" fill="#0074c8"/>
<use data-text="0" xlink:href="#font_5_1" transform="matrix(9.9626,0,0,-9.962899,239.67829,154.91121)" fill="#0074c8"/>
<path transform="matrix(1,0,0,-1.00003,182.98499,201.2516)" stroke-width=".79701" stroke-linecap="butt" stroke-miterlimit="10" stroke-linejoin="miter" fill="none" stroke="#000000" d="M-170.08086 2.98883V-2.98883"/>
<use data-text="&#x2212;" xlink:href="#font_4_1" transform="matrix(9.9626,0,0,-9.962899,4.0479738,214.38)"/>
<use data-text="6" xlink:href="#font_5_6" transform="matrix(9.9626,0,0,-9.962899,11.796967,214.38)"/>
<use data-text="0" xlink:href="#font_5_1" transform="matrix(9.9626,0,0,-9.962899,16.77826,214.38)"/>
<path transform="matrix(1,0,0,-1.00003,182.98499,201.2516)" stroke-width=".79701" stroke-linecap="butt" stroke-miterlimit="10" stroke-linejoin="miter" fill="none" stroke="#000000" d="M-113.38724 2.98883V-2.98883"/>
<use data-text="&#x2212;" xlink:href="#font_4_1" transform="matrix(9.9626,0,0,-9.962899,60.74199,214.38)"/>
<use data-text="4" xlink:href="#font_5_5" transform="matrix(9.9626,0,0,-9.962899,68.49098,214.38)"/>
<use data-text="0" xlink:href="#font_5_1" transform="matrix(9.9626,0,0,-9.962899,73.472278,214.38)"/>
<path transform="matrix(1,0,0,-1.00003,182.98499,201.2516)" stroke-width=".79701" stroke-linecap="butt" stroke-miterlimit="10" stroke-linejoin="miter" fill="none" stroke="#000000" d="M-56.69362 2.98883V-2.98883"/>
<use data-text="&#x2212;" xlink:href="#font_4_1" transform="matrix(9.9626,0,0,-9.962899,117.435977,214.38)"/>
<use data-text="2" xlink:href="#font_5_3" transform="matrix(9.9626,0,0,-9.962899,125.18497,214.38)"/>
<use data-text="0" xlink:href="#font_5_1" transform="matrix(9.9626,0,0,-9.962899,130.16626,214.38)"/>
<path transform="matrix(1,0,0,-1.00003,182.98499,201.2516)" stroke-width=".79701" stroke-linecap="butt" stroke-miterlimit="10" stroke-linejoin="miter" fill="none" stroke="#000000" d="M0 2.98883V-2.98883"/>
<use data-text="0" xlink:href="#font_5_1" transform="matrix(9.9626,0,0,-9.962899,180.49399,214.38)"/>
<path transform="matrix(1,0,0,-1.00003,182.98499,201.2516)" stroke-width=".79701" stroke-linecap="butt" stroke-miterlimit="10" stroke-linejoin="miter" fill="none" stroke="#000000" d="M56.69362 2.98883V-2.98883"/>
<use data-text="2" xlink:href="#font_5_3" transform="matrix(9.9626,0,0,-9.962899,234.69699,214.38)"/>
<use data-text="0" xlink:href="#font_5_1" transform="matrix(9.9626,0,0,-9.962899,239.67829,214.38)"/>
<path transform="matrix(1,0,0,-1.00003,182.98499,201.2516)" stroke-width=".79701" stroke-linecap="butt" stroke-miterlimit="10" stroke-linejoin="miter" fill="none" stroke="#000000" d="M113.38724 2.98883V-2.98883"/>
<use data-text="4" xlink:href="#font_5_5" transform="matrix(9.9626,0,0,-9.962899,291.391,214.38)"/>
<use data-text="0" xlink:href="#font_5_1" transform="matrix(9.9626,0,0,-9.962899,296.37229,214.38)"/>
<path transform="matrix(1,0,0,-1.00003,182.98499,201.2516)" stroke-width=".79701" stroke-linecap="butt" stroke-miterlimit="10" stroke-linejoin="miter" fill="none" stroke="#000000" d="M-172.07341 56.69362H-168.0883"/>
<use data-text="1" xlink:href="#font_5_2" transform="matrix(9.9626,0,0,-9.962899,1.2149658,147.767)"/>
<use data-text="0" xlink:href="#font_5_1" transform="matrix(9.9626,0,0,-9.962899,6.1962587,147.767)"/>
<path transform="matrix(1,0,0,-1.00003,182.98499,201.2516)" stroke-width=".79701" stroke-linecap="butt" stroke-miterlimit="10" stroke-linejoin="miter" fill="none" stroke="#000000" d="M-172.07341 113.38724H-168.0883"/>
<use data-text="2" xlink:href="#font_5_3" transform="matrix(9.9626,0,0,-9.962899,1.2149658,91.07129)"/>
<use data-text="0" xlink:href="#font_5_1" transform="matrix(9.9626,0,0,-9.962899,6.1962587,91.07129)"/>
<path transform="matrix(1,0,0,-1.00003,182.98499,201.2516)" stroke-width=".79701" stroke-linecap="butt" stroke-miterlimit="10" stroke-linejoin="miter" fill="none" stroke="#000000" d="M-172.07341 170.08086H-168.0883"/>
<use data-text="3" xlink:href="#font_5_4" transform="matrix(9.9626,0,0,-9.962899,1.2149658,34.37558)"/>
<use data-text="0" xlink:href="#font_5_1" transform="matrix(9.9626,0,0,-9.962899,6.1962587,34.37558)"/>
</svg>
